<svg fill="none" height="64" viewBox="0 0 64 64" width="64" xmlns="http://www.w3.org/2000/svg" xmlns:xlink="http://www.w3.org/1999/xlink"><mask id="a" fill="#fff"><path clip-rule="evenodd" d="m10.4765 18.2919c.2172-.5632.4602-1.1134.7275-1.6495.1683-3.8269 3.0253-6.95541 6.7283-7.54313 3.0101-1.96025 6.604-3.09927 10.4639-3.09927 2.6509 0 4.8 2.14903 4.8 4.8v37.6545c0 .2481-.0138.4929-.0407.7338.0269.2669.0407.5377.0407.8117 0 4.4183-3.5818 8-8 8-3.5592 0-6.5755-2.3242-7.6139-5.5377-.2478-.1509-.4915-.3079-.731-.4707-3.7058-.1797-6.6551-3.2412-6.6551-6.9916 0-.263.0145-.5227.0427-.7782-1.81693-1.0312-3.04273-2.9833-3.04273-5.2218 0-1.2837.40316-2.4733 1.08977-3.449-1.27949-1.1004-2.08977-2.7311-2.08977-4.551 0-2.1245 1.10419-3.9911 2.76998-5.0573-.49026-.8694-.76998-1.8734-.76998-2.9427 0-1.9087.89124-3.6092 2.28033-4.7081z" fill="#fff" fill-rule="evenodd"/></mask><mask id="b" fill="#fff"><path clip-rule="evenodd" d="m53.7197 18.2919c-.2172-.5632-.4602-1.1134-.7275-1.6495-.1684-3.8269-3.0253-6.95541-6.7283-7.54313-3.0101-1.96025-6.604-3.09927-10.4639-3.09927-2.651 0-4.8 2.14903-4.8 4.8v37.6545c0 .2481.0138.4929.0407.7338-.0269.2669-.0407.5377-.0407.8117 0 4.4183 3.5817 8 8 8 3.5591 0 6.5754-2.3242 7.6139-5.5377.2478-.1509.4915-.3079.731-.4707 3.7058-.1797 6.6551-3.2412 6.6551-6.9916 0-.263-.0145-.5227-.0428-.7782 1.817-1.0312 3.0428-2.9833 3.0428-5.2218 0-1.2837-.4032-2.4733-1.0898-3.449 1.2795-1.1004 2.0898-2.7311 2.0898-4.551 0-2.1245-1.1042-3.9911-2.77-5.0573.4903-.8694.77-1.8734.77-2.9427 0-1.9087-.8912-3.6092-2.2803-4.7081z" fill="#fff" fill-rule="evenodd"/></mask><path clip-rule="evenodd" d="m10.4765 18.2919c.2172-.5632.4602-1.1134.7275-1.6495.1683-3.8269 3.0253-6.95541 6.7283-7.54313 3.0101-1.96025 6.604-3.09927 10.4639-3.09927 2.6509 0 4.8 2.14903 4.8 4.8v37.6545c0 .2481-.0138.4929-.0407.7338.0269.2669.0407.5377.0407.8117 0 4.4183-3.5818 8-8 8-3.5592 0-6.5755-2.3242-7.6139-5.5377-.2478-.1509-.4915-.3079-.731-.4707-3.7058-.1797-6.6551-3.2412-6.6551-6.9916 0-.263.0145-.5227.0427-.7782-1.81693-1.0312-3.04273-2.9833-3.04273-5.2218 0-1.2837.40316-2.4733 1.08977-3.449-1.27949-1.1004-2.08977-2.7311-2.08977-4.551 0-2.1245 1.10419-3.9911 2.76998-5.0573-.49026-.8694-.76998-1.8734-.76998-2.9427 0-1.9087.89124-3.6092 2.28033-4.7081z" fill="#fff" fill-rule="evenodd"/><path d="m11.204 16.6424 1.7898.8926.1896-.3802.0187-.4245zm-.7275 1.6495 1.2408 1.5685.4285-.339.1966-.5097zm7.4558-9.19263.3135 1.97523.4208-.0667.3571-.2326zm15.2232 40.08903-1.9877-.2217-.0235.211.0213.2112zm-15.5732 3.274 1.9031-.615-.2284-.7066-.6342-.3864zm-.731-.4707 1.1242-1.6541-.4653-.3162-.562-.0273zm-6.6124-7.7698 1.9879.2199.1448-1.3092-1.1455-.6501zm-1.95296-8.6708 1.63561 1.151 1.04435-1.4841-1.37588-1.1833zm.68021-9.6083 1.07815 1.6846 1.5929-1.0195-.9289-1.6474zm.4481-10.1929c-.29529.5921-.56375 1.2-.80377 1.8222l3.73192 1.4397c.1945-.5041.412-.9967.6514-1.4767zm8.20455-8.6258c-4.631.73499-8.20228 4.6434-8.41285 9.4305l3.99615.1758c.1261-2.8667 2.2686-5.2153 5.0437-5.6558zm10.7774-3.124c-4.2591 0-8.2304 1.25802-11.5553 3.42333l2.1828 3.35187c2.6952-1.75519 5.9117-2.7752 9.3725-2.7752zm6.8 6.8c0-3.75554-3.0445-6.8-6.8-6.8v4c1.5464 0 2.8 1.2536 2.8 2.8zm0 37.6545v-37.6545h-4v37.6545zm-.053.9556c.035-.3144.053-.6333.053-.9556h-4c0 .1739-.0097.3447-.0284.5121zm.053.5899c0-.3411-.0172-.6788-.0508-1.0122l-3.9798.401c.0202.2004.0306.4043.0306.6112zm-10 10c5.5228 0 10-4.4772 10-10h-4c0 3.3137-2.6863 6-6 6zm-9.517-6.9227c1.2974 4.0148 5.065 6.9227 9.517 6.9227v-4c-2.6663 0-4.9313-1.7406-5.7108-4.1527zm.0479.5685c.2668.1813.5384.3563.8146.5245l2.0811-3.416c-.2194-.1336-.4352-.2726-.6473-.4168zm-7.53093-8.6458c0 4.8225 3.79203 8.7581 8.55823 8.9893l.1938-3.9953c-2.6454-.1283-4.752-2.3157-4.752-4.994zm.05489-.9981c-.03632.3284-.05489.6615-.05489.9981h4.00003c0-.1894.0104-.3757.0306-.5583zm2.97504-1.5195c-1.2165-.6904-2.02993-1.9927-2.02993-3.4824h-4c0 2.9872 1.63817 5.5892 4.05559 6.9612zm-2.02993-3.4824c0-.8584.26815-1.6483.72538-2.298l-3.27121-2.302c-.916 1.3017-1.45417 2.891-1.45417 4.6zm-5-8c0 2.427 1.08325 4.6033 2.7857 6.0674l2.60815-3.0328c-.85653-.7366-1.39385-1.8218-1.39385-3.0346zm3.69186-6.7418c-2.21591 1.4182-3.69186 3.907-3.69186 6.7418h4c0-1.4142.73243-2.6587 1.84813-3.3727zm-1.69186-1.2582c0 1.4224.37295 2.7636 1.02786 3.9251l3.48427-1.9647c-.3256-.5775-.5121-1.2441-.5121-1.9604zm3.03939-6.2766c-1.84787 1.4619-3.03939 3.7307-3.03939 6.2766h4.00003c0-1.2715.5909-2.4037 1.5211-3.1396z" fill="#000" mask="url(#a)"/><g stroke="#000" stroke-linecap="round" stroke-linejoin="round" stroke-width="2"><path d="m21.1962 40c0 .6566-.1294 1.3068-.3806 1.9134-.2513.6066-.6196 1.1578-1.0839 1.6221s-1.0155.8326-1.6221 1.0839-1.2568.3806-1.9134.3806"/><path d="m26.5263 32.5c.6065 1.0505.8104 2.2857.5738 3.4755-.2367 1.1897-.8978 2.2528-1.8601 2.9913-.9624.7384-2.1604 1.1018-3.3708 1.0225-1.2105-.0793-2.3508-.596-3.2086-1.4538"/><path d="m14.2464 12.0503c.7592-.7593 1.683-1.3337 2.6997-1.6788s2.0992-.45176 3.1637-.3116c1.0646.1401 2.0826.5233 2.9754 1.1198.8927.5965 1.6363 1.3904 2.1731 2.3203"/><path d="m14.1153 27.9993c-.7083-.0114-1.406-.1732-2.0469-.4746-.641-.3015-1.2106-.7357-1.6712-1.2738-.4605-.5382-.80143-1.1681-1.00018-1.8479-.19875-.6799-.25078-1.3942-.15265-2.0957s.34419-1.3741.72187-1.9734c.37766-.5992.87836-1.1113 1.46886-1.5024.5906-.3912 1.2575-.6524 1.9566-.7664.699-.1139 1.4144-.0781 2.0985.1053"/><path d="m19.7427 50.4328c-1.3518.6336-2.8914.7405-4.3178.2998-1.4265-.4408-2.6374-1.3975-3.3961-2.6834"/><path d="m24 23c0 .6566-.1293 1.3068-.3806 1.9134s-.6196 1.1578-1.0839 1.6221-1.0155.8326-1.6221 1.0839-1.2568.3806-1.9134.3806"/><path d="m29.5 45.6699c.7601.4388 1.3913 1.07 1.8301 1.8301.4389.7601.6699 1.6223.6699 2.5"/></g><path clip-rule="evenodd" d="m53.7197 18.2919c-.2172-.5632-.4602-1.1134-.7275-1.6495-.1684-3.8269-3.0253-6.95541-6.7283-7.54313-3.0101-1.96025-6.604-3.09927-10.4639-3.09927-2.651 0-4.8 2.14903-4.8 4.8v37.6545c0 .2481.0138.4929.0407.7338-.0269.2669-.0407.5377-.0407.8117 0 4.4183 3.5817 8 8 8 3.5591 0 6.5754-2.3242 7.6139-5.5377.2478-.1509.4915-.3079.731-.4707 3.7058-.1797 6.6551-3.2412 6.6551-6.9916 0-.263-.0145-.5227-.0428-.7782 1.817-1.0312 3.0428-2.9833 3.0428-5.2218 0-1.2837-.4032-2.4733-1.0898-3.449 1.2795-1.1004 2.0898-2.7311 2.0898-4.551 0-2.1245-1.1042-3.9911-2.77-5.0573.4903-.8694.77-1.8734.77-2.9427 0-1.9087-.8912-3.6092-2.2803-4.7081z" fill="#c4f0f5" fill-rule="evenodd"/><path d="m52.9922 16.6424-1.7898.8926-.1896-.3802-.0187-.4245zm.7275 1.6495-1.2409 1.5685-.4284-.339-.1967-.5097zm-7.4558-9.19263-.3135 1.97523-.4209-.0667-.3571-.2326zm-15.2232 40.08903 1.9876-.2217.0236.211-.0213.2112zm15.5732 3.274-1.9031-.615.2284-.7066.6341-.3864zm.731-.4707-1.1243-1.6541.4654-.3162.562-.0273zm6.6123-7.7698-1.9878.2199-.1448-1.3092 1.1455-.6501zm1.953-8.6708-1.6356 1.151-1.0444-1.4841 1.376-1.1833zm-.6802-9.6083-1.0781 1.6846-1.5929-1.0195.9289-1.6474zm-.4481-10.1929c.2953.5921.5638 1.2.8038 1.8222l-3.732 1.4397c-.1944-.5041-.4119-.9967-.6513-1.4767zm-8.2045-8.6258c4.631.73499 8.2022 4.6434 8.4128 9.4305l-3.9961.1758c-.1261-2.8667-2.2686-5.2153-5.0437-5.6558zm-10.7774-3.124c4.259 0 8.2304 1.25802 11.5553 3.42333l-2.1829 3.35187c-2.6952-1.75519-5.9116-2.7752-9.3724-2.7752zm-6.8 6.8c0-3.75554 3.0445-6.8 6.8-6.8v4c-1.5464 0-2.8 1.2536-2.8 2.8zm0 37.6545v-37.6545h4v37.6545zm.053.9556c-.0351-.3144-.053-.6333-.053-.9556h4c0 .1739.0097.3447.0283.5121zm-.053.5899c0-.3411.0171-.6788.0507-1.0122l3.9799.401c-.0202.2004-.0306.4043-.0306.6112zm10 10c-5.5228 0-10-4.4772-10-10h4c0 3.3137 2.6863 6 6 6zm9.517-6.9227c-1.2974 4.0148-5.065 6.9227-9.517 6.9227v-4c2.6663 0 4.9313-1.7406 5.7108-4.1527zm-.0479.5685c-.2668.1813-.5385.3563-.8146.5245l-2.0812-3.416c.2194-.1336.4353-.2726.6473-.4168zm7.5309-8.6458c0 4.8225-3.792 8.7581-8.5582 8.9893l-.1938-3.9953c2.6453-.1283 4.752-2.3157 4.752-4.994zm-.0549-.9981c.0363.3284.0549.6615.0549.9981h-4c0-.1894-.0104-.3757-.0306-.5583zm-2.975-1.5195c1.2165-.6904 2.0299-1.9927 2.0299-3.4824h4c0 2.9872-1.6382 5.5892-4.0556 6.9612zm2.0299-3.4824c0-.8584-.2682-1.6483-.7254-2.298l3.2712-2.302c.916 1.3017 1.4542 2.891 1.4542 4.6zm5-8c0 2.427-1.0833 4.6033-2.7857 6.0674l-2.6081-3.0328c.8565-.7366 1.3938-1.8218 1.3938-3.0346zm-3.6919-6.7418c2.2159 1.4182 3.6919 3.907 3.6919 6.7418h-4c0-1.4142-.7324-2.6587-1.8481-3.3727zm1.6919-1.2582c0 1.4224-.373 2.7636-1.0279 3.9251l-3.4842-1.9647c.3256-.5775.5121-1.2441.5121-1.9604zm-3.0394-6.2766c1.8479 1.4619 3.0394 3.7307 3.0394 6.2766h-4c0-1.2715-.591-2.4037-1.5212-3.1396z" fill="#000" mask="url(#b)"/><g stroke="#000" stroke-linecap="round" stroke-linejoin="round" stroke-width="2"><path d="m43 39c0 .6566.1293 1.3068.3806 1.9134s.6196 1.1578 1.0839 1.6221 1.0155.8326 1.6221 1.0839 1.2568.3806 1.9134.3806"/><path d="m40 23c0 .6566.1293 1.3068.3806 1.9134s.6196 1.1578 1.0839 1.6221 1.0155.8326 1.6221 1.0839 1.2568.3806 1.9134.3806"/><path d="m37.6699 31.5c-.6065 1.0505-.8105 2.2857-.5738 3.4755.2366 1.1897.8977 2.2528 1.8601 2.9913.9624.7384 2.1604 1.1018 3.3708 1.0225 1.2105-.0793 2.3508-.596 3.2085-1.4538"/><path d="m34.5 19.6699c-.7601.4388-1.3913 1.07-1.8301 1.8301-.4389.7601-.6699 1.6223-.6699 2.5"/><path d="m49.9497 12.0503c-.7592-.7593-1.6829-1.3337-2.6996-1.6788-1.0168-.3451-2.0993-.45176-3.1638-.3116-1.0645.1401-2.0825.5233-2.9753 1.1198s-1.6363 1.3904-2.1732 2.3203"/><path d="m50.0809 27.9993c.7082-.0114 1.4059-.1732 2.0469-.4746.641-.3015 1.2106-.7357 1.6711-1.2738.4606-.5382.8015-1.1681 1.0002-1.8479.1988-.6799.2508-1.3942.1527-2.0957s-.3442-1.3741-.7219-1.9734c-.3777-.5992-.8783-1.1113-1.4689-1.5024-.5905-.3912-1.2574-.6524-1.9565-.7664-.6991-.1139-1.4144-.0781-2.0986.1053"/><path d="m44.4534 50.4328c1.3519.6336 2.8914.7405 4.3179.2998 1.4265-.4408 2.6374-1.3975 3.3961-2.6834"/></g></svg>