<svg fill="none" height="55" viewBox="0 0 54 55" width="54" xmlns="http://www.w3.org/2000/svg" xmlns:xlink="http://www.w3.org/1999/xlink"><linearGradient id="a" gradientUnits="userSpaceOnUse" x1="26.3235" x2="26.3236" y1="13.4569" y2="35.3667"><stop offset="0" stop-color="#4c98ed"/><stop offset="1" stop-color="#e5a7de"/></linearGradient><path d="m47.2844 5.26416h-42.10886v4.436h42.10886z" fill="#6471b9"/><path clip-rule="evenodd" d="m46.3235 5.80703h-40.00001c-.22092 0-.4.17909-.4.4v40.62757c0 .2209.17908.4.4.4h40.00001c.2209 0 .4-.1791.4-.4v-40.62757c0-.22091-.1791-.4-.4-.4zm-40.00001-1.6h40.00001c1.1046 0 2 .89543 2 2v40.62757c0 1.1045-.8954 2-2 2h-40.00001c-1.10457 0-2-.8955-2-2v-40.62757c0-1.10457.89543-2 2-2z" fill="#2e3c47" fill-rule="evenodd"/><path clip-rule="evenodd" d="m46.3235 5.80703h-40.00001c-.22092 0-.4.17909-.4.4v40.62757c0 .2209.17908.4.4.4h40.00001c.2209 0 .4-.1791.4-.4v-40.62757c0-.22091-.1791-.4-.4-.4zm-40.00001-1.6h40.00001c1.1046 0 2 .89543 2 2v40.62757c0 1.1045-.8954 2-2 2h-40.00001c-1.10457 0-2-.8955-2-2v-40.62757c0-1.10457.89543-2 2-2z" fill="#2e3c47" fill-rule="evenodd"/><path d="m11.1165 13.457h30.4141v21.9097h-30.4141z" fill="url(#a)"/><path clip-rule="evenodd" d="m10.9189 42.145c0-.2761.2239-.5.5-.5h18.4603c.2762 0 .5.2239.5.5 0 .2762-.2238.5-.5.5h-18.4603c-.2761 0-.5-.2238-.5-.5z" fill="#2e3c47" fill-rule="evenodd"/><path clip-rule="evenodd" d="m10.9189 38.8916c0-.2761.2239-.5.5-.5h28.8189c.2762 0 .5.2239.5.5s-.2238.5-.5.5h-28.8189c-.2761 0-.5-.2239-.5-.5z" fill="#2e3c47" fill-rule="evenodd"/><path d="m31.9834 18.3656 2.6662-1.015v12.4812l-2.6662-1.0784z" fill="#fff"/><path clip-rule="evenodd" d="m35.4022 16.0758c.2296.1471.3685.401.3685.6737v13.3793c0 .2627-.129.5087-.3451.6581-.216.1494-.4917.1831-.7375.0904l-8.38-3.1636h-2.9777v4.3604c0 .4419-.3582.8-.8.8h-3.1742c-.4419 0-.8-.3581-.8-.8v-4.3604h-.8785c-.4418 0-.8-.3582-.8-.8v-6.1764c0-.4419.3582-.8.8-.8h8.4544l8.5041-3.9145c.2477-.1141.5364-.0941.766.053zm-12.8571 10.0379c-.0049-.0001-.0098-.0002-.0147-.0002h-3.1742c-.005 0-.0099.0001-.0148.0002h-.8637v-4.5764h7.0463v4.5764zm-2.3889 1.6v3.5604h1.5742v-3.5604zm6.9682-6.4719v5.0698l7.0463 2.6601v-10.9733z" fill="#2e3c47" fill-rule="evenodd"/></svg>