<svg fill="none" height="55" viewBox="0 0 54 55" width="54" xmlns="http://www.w3.org/2000/svg" xmlns:xlink="http://www.w3.org/1999/xlink"><linearGradient id="a" gradientUnits="userSpaceOnUse" x1="27" x2="26.9999" y1="4.04998" y2="22.2959"><stop offset="0" stop-color="#4c98ed"/><stop offset="1" stop-color="#e5a7de"/></linearGradient><path d="m19.8 4.05005h14.4c1.1045 0 2 .89543 2 2v11.36585c0 .8179-.4979 1.5533-1.2573 1.857l-7.1999 2.88c-.4769.1907-1.0088.1907-1.4856 0l-7.2-2.88c-.7593-.3037-1.2572-1.0391-1.2572-1.857v-11.36585c0-1.10457.8954-2 2-2z" fill="url(#a)"/><path d="m20.6055 37.9819h-11.7449v8.7664h11.7449z" fill="#6471b9"/><path d="m45.0168 37.9819h-11.5v8.6181h11.5z" fill="#cf7dc6"/><g fill="#2e3c47"><path clip-rule="evenodd" d="m5.84057 36.5565h17.78663v-1.6h-17.78663z" fill-rule="evenodd"/><path d="m35.1998 4.05005h-16.4c-.5523 0-1 .44771-1 1v3.72428h18.4v-3.72428c0-.55229-.4478-1-1-1z"/><path clip-rule="evenodd" d="m26.2006 25.9431h-9.4669c-1.5464 0-2.8 1.2536-2.8 2.8v2.9067h1.6v-2.9067c0-.6627.5372-1.2 1.2-1.2h20.5332c.6628 0 1.2.5373 1.2 1.2v2.9067h1.6v-2.9067c0-1.5464-1.2536-2.8-2.8-2.8h-9.4663v-4.1064h-1.6zm20.277 5.7068c.0551.0003.1096.0028.1635.0075.2816.0243.5465.107.7826.2359.6214.3393 1.043.9987 1.043 1.7566v2.9066h-18.4v-.9066h-.0001v-2c0-.0588.0026-.117.0076-.1744.0243-.2817.107-.5466.2359-.7826.0181-.0333.0372-.066.0571-.098.1625-.2611.3834-.482.6444-.6444.0321-.02.0648-.039.098-.0572.1771-.0966.3703-.1673.5747-.2069.0681-.0132.1375-.0229.2079-.029.0575-.005.1157-.0075.1744-.0075h.0001 1.9999 3.2 4 3.2 2 .0001zm-16.411 7.2h1.6v4h-1.6zm0 7.2h1.6v2c0 .0127.0006.0249.0016.0367l.0288.3329.3329.0288c.0059.0005.0119.0009.018.0012.0061.0002.0124.0004.0187.0004h2v1.6h-2c-.0587 0-.1169-.0026-.1744-.0075-.2816-.0244-.5465-.1071-.7826-.236-.0332-.0181-.0659-.0372-.098-.0571-.261-.1624-.4819-.3833-.6444-.6444-.0199-.0321-.039-.0647-.0571-.098-.1289-.2361-.2116-.501-.2359-.7826-.005-.0575-.0076-.1157-.0076-.1744zm7.2 4v-1.6h4v1.6zm7.2 0v-1.6h2c.0065 0 .0128-.0002.019-.0005.006-.0002.0119-.0006.0177-.0011l.333-.0288.0287-.3329c.0011-.0118.0016-.024.0016-.0367v-2h1.6v2c0 .0587-.0025.1169-.0075.1744-.0243.2816-.107.5465-.2359.7826-.0182.0333-.0372.0659-.0572.098-.1624.2611-.3833.482-.6444.6444-.032.0199-.0647.039-.0979.0571-.2361.1289-.501.2116-.7826.236-.0575.0049-.1157.0075-.1745.0075zm4-7.2h-1.6v-4h1.6zm-41.3334-6.2934h15.2v11.4934c0 .2209-.1791.4-.4.4h-14.4c-.22091 0-.4-.1791-.4-.4zm.4-4.9066h.00055 14.39945.0005l.0253.0002c1.0929.0135 1.9747.9037 1.9747 1.9998v2.9066h-.0005v11.4934c0 1.1045-.8955 2-2 2h-14.4c-1.10457 0-2-.8955-2-2v-14.4c0-1.1046.89543-2 2-2z" fill-rule="evenodd"/></g></svg>