<svg width="64" height="64" viewBox="0 0 64 64" fill="none" xmlns="http://www.w3.org/2000/svg">
<circle cx="32" cy="32" r="27" fill="white" stroke="black" stroke-width="2"/>
<path d="M32 54C44.1503 54 54 44.1503 54 32C54 19.8497 44.1503 10 32 10C19.8497 10 10 19.8497 10 32C10 44.1503 19.8497 54 32 54Z" fill="#C4F0F5"/>
<path d="M32 35C33.6569 35 35 33.6569 35 32C35 30.3431 33.6569 29 32 29C30.3431 29 29 30.3431 29 32C29 33.6569 30.3431 35 32 35Z" fill="black"/>
<line x1="33.2628" y1="31.3243" x2="44.2628" y2="19.3243" stroke="black" stroke-width="2"/>
<line x1="32.2631" y1="31.9648" x2="21.2631" y2="34.9648" stroke="black" stroke-width="2"/>
</svg>
