<svg fill="none" height="25" viewBox="0 0 24 25" width="24" xmlns="http://www.w3.org/2000/svg" xmlns:xlink="http://www.w3.org/1999/xlink"><linearGradient id="a" gradientUnits="userSpaceOnUse" x1="9.9002" x2="9.90021" y1="2.53952" y2="11.2154"><stop offset="0" stop-color="#4c98ed"/><stop offset="1" stop-color="#e5a7de"/></linearGradient><clipPath id="b"><path d="m0 .280762h24v24h-24z"/></clipPath><g clip-path="url(#b)"><path clip-rule="evenodd" d="m7.95361 19.1789c0-.4418.35818-.8.8-.8h10.68309c.4418 0 .8.3582.8.8s-.3582.8-.8.8h-10.68309c-.44182 0-.8-.3582-.8-.8z" fill="#2e3c47" fill-rule="evenodd"/><path clip-rule="evenodd" d="m.999951.935059c-.441828 0-.8.358171-.8.800001v14.08764c0 .4418.358172.8.8.8h3.390429v6.2037c0 .4418.35817.8.8.8h17.80962c.4419 0 .8-.3582.8-.8v-14.08768c0-.44183-.3581-.8-.8-.8h-3.3904v-6.20366c0-.44183-.3582-.800001-.8-.800001zm18.609649 8.603661v6.28398c0 .4418-.3582.8-.8.8h-12.81922v5.4037h16.20962v-12.48768zm-17.80965 5.48398v-12.48764h16.20965v12.48764z" fill="#2e3c47" fill-rule="evenodd"/><path d="m1.80273 2.53955h16.19497v8.67585h-16.19497z" fill="url(#a)"/><g fill="#2e3c47"><path d="m7.30331 4.56006 4.05429 5.14367h-8.10858z"/><path d="m16.0609 7.09026c0 1.39739-1.1328 2.53019-2.5302 2.53019s-2.5302-1.1328-2.5302-2.53019 1.1328-2.5302 2.5302-2.5302 2.5302 1.13281 2.5302 2.5302z"/></g></g></svg>