<svg fill="none" height="25" viewBox="0 0 24 25" width="24" xmlns="http://www.w3.org/2000/svg" xmlns:xlink="http://www.w3.org/1999/xlink"><linearGradient id="a" gradientUnits="userSpaceOnUse" x1="11.78" x2="11.78" y1="4.42822" y2="17.2953"><stop offset="0" stop-color="#4c98ed"/><stop offset="1" stop-color="#e5a7de"/></linearGradient><path d="m22.7188 4.42822h-21.23418v3.10815l9.92628 9.48203c.3865.3692.995.3692 1.3815 0l9.9263-9.48203z" fill="url(#a)"/><path clip-rule="evenodd" d="m1.6 19.2733v-14.3735h20.8v14.2242l-5.63-5.9787-1.1648 1.0969 5.2814 5.6244h-17.72491l5.37375-5.6244-1.16483-1.0969zm-1.6-14.9735c0-.55228.447715-1 1-1h22c.5523 0 1 .44772 1 1v16.1668c0 .5523-.4477 1-1 1h-22c-.552284 0-1-.4477-1-1z" fill="#2e3c47" fill-rule="evenodd"/></svg>