<svg fill="none" height="25" viewBox="0 0 24 25" width="24" xmlns="http://www.w3.org/2000/svg" xmlns:xlink="http://www.w3.org/1999/xlink"><linearGradient id="a" gradientUnits="userSpaceOnUse" x1="11.9876" x2="11.9876" y1="4.05657" y2="21.1529"><stop offset="0" stop-color="#4c98ed"/><stop offset="1" stop-color="#e5a7de"/></linearGradient><clipPath id="b"><path d="m0 .608398h24v24h-24z"/></clipPath><g clip-path="url(#b)"><path clip-rule="evenodd" d="m3.45239 1.60835c0-.44183.35817-.8.8-.8h15.49401c.4418 0 .8.35817.8.8v21.99995c0 .4419-.3582.8-.8.8h-15.49401c-.44183 0-.8-.3581-.8-.8zm1.6.8v20.39995h13.89401v-20.39995z" fill="#2e3c47" fill-rule="evenodd"/><path d="m6.802 4.05664h10.3711v17.09626h-10.3711z" fill="url(#a)"/><path d="m14.769 9.83553c0 1.52947-1.2399 2.76937-2.7694 2.76937s-2.76938-1.2399-2.76938-2.76937c0-1.52948 1.23988-2.76937 2.76938-2.76937s2.7694 1.23989 2.7694 2.76937z" fill="#fff"/><path d="m8.06079 15.4644c0-.2762.22386-.5.5-.5h7.00511c.2761 0 .5.2238.5.5v1.8988c0 .2762-.2239.5-.5.5h-7.00511c-.27614 0-.5-.2238-.5-.5z" fill="#2e3c47"/></g></svg>