<svg fill="none" height="64" viewBox="0 0 64 64" width="64" xmlns="http://www.w3.org/2000/svg" xmlns:xlink="http://www.w3.org/1999/xlink"><mask id="a" fill="#fff"><path clip-rule="evenodd" d="m40 43.7374c5.9537-3.2082 10-9.5003 10-16.7374 0-10.4934-8.5066-19-19-19s-19 8.5066-19 19c0 7.2371 4.0463 13.5292 10 16.7374v12.2626c0 1.1046.8954 2 2 2h14c1.1046 0 2-.8954 2-2z" fill="#fff" fill-rule="evenodd"/></mask><path clip-rule="evenodd" d="m40 43.7374c5.9537-3.2082 10-9.5003 10-16.7374 0-10.4934-8.5066-19-19-19s-19 8.5066-19 19c0 7.2371 4.0463 13.5292 10 16.7374v12.2626c0 1.1046.8954 2 2 2h14c1.1046 0 2-.8954 2-2z" fill="#fff" fill-rule="evenodd"/><path d="m40 43.7374-.9487-1.7607-1.0513.5665v1.1942zm-18 0h2v-1.1942l-1.0513-.5665zm26-16.7374c0 6.4726-3.6166 12.1035-8.9487 14.9767l1.8974 3.5213c6.5753-3.5431 11.0513-10.4963 11.0513-18.498zm-17-17c9.3888 0 17 7.6112 17 17h4c0-11.598-9.402-21-21-21zm-17 17c0-9.3888 7.6112-17 17-17v-4c-11.598 0-21 9.402-21 21zm8.9487 14.9767c-5.3321-2.8732-8.9487-8.5041-8.9487-14.9767h-4c0 8.0017 4.476 14.9549 11.0513 18.498zm1.0513 14.0233v-12.2626h-4v12.2626zm0 0h-4c0 2.2091 1.7909 4 4 4zm14 0h-14v4h14zm0 0v4c2.2091 0 4-1.7909 4-4zm0-12.2626v12.2626h4v-12.2626z" fill="#000" mask="url(#a)"/><g stroke="#000" stroke-width="2"><path d="m23 46h16l-16 11" stroke-linejoin="bevel"/><path d="m31 6v-6"/><path d="m52 27h6"/><path d="m4 27h6"/><path d="m8.70711 8.67156 4.24259 4.24264"/><path d="m0-1h6" transform="matrix(-.707107 .707107 .707107 .707107 56.2427 9.37866)"/></g><circle cx="31" cy="27" fill="#c4f0f5" r="13"/><path d="m31 45v-13m0 0-4-4m4 4 4-4" stroke="#000" stroke-width="2"/></svg>