<svg fill="none" height="64" viewBox="0 0 64 64" width="64" xmlns="http://www.w3.org/2000/svg"><path d="m45 28.2108c0-3.4301-2.9101-6.2108-6.5-6.2108-4.3333 0-6.5 4.1905-6.5 4.1905s-2.1667-4.1905-6.5-4.1905c-3.5899 0-6.5 2.7807-6.5 6.2108 0 .7786.1499 1.5238.4237 2.2105 1.7142 4.8142 8.227 10.5531 12.0791 13.3984.3001.2217.7078.2412 1.0276.0462 4.471-2.7261 12.4696-9.1769 12.4696-15.6551z" fill="#fff" stroke="#000" stroke-linejoin="round" stroke-width="2"/><path clip-rule="evenodd" d="m42.2504 33.4642c-2.5561-2.7464-6.2026-4.4642-10.2504-4.4642-3.9073 0-7.4408 1.6007-9.9805 4.1822 2.4965 3.7428 6.7533 7.5313 9.5216 9.6457.277.2116.6533.2302.9485.0441 2.8718-1.8108 7.3204-5.3431 9.7608-9.4078z" fill="#c4f0f5" fill-rule="evenodd"/><g stroke="#000" stroke-width="2"><path d="m9.23932 35.3093c-.72849-5.0104.21665-10.1212 2.68888-14.5397 2.4721-4.4185 6.3332-7.8978 10.9843-9.8982 4.6512-2.00047 9.8324-2.4103 14.7402-1.16594 4.9078 1.24434 9.2679 4.07334 12.404 8.04824"/><path d="m3 29 6 6 6-6"/><path d="m49 35 6-6 6 6"/><path d="m54.8817 29.6707c.5128 5.0371-.6508 10.1026-3.3104 14.4109s-6.6664 7.6186-11.3991 9.4176-9.9268 1.986-14.7767.5322c-4.8498-1.4539-9.0844-4.4675-12.047-8.5733"/></g></svg>