<svg width="64" height="64" viewBox="0 0 64 64" fill="none" xmlns="http://www.w3.org/2000/svg">
<rect x="5" y="21" width="54" height="34" rx="1" fill="white" stroke="black" stroke-width="2"/>
<path d="M6.85038 21H57.1496C58.1029 21 58.5156 22.2072 57.7618 22.7907L32.6122 42.2614C32.2517 42.5404 31.7482 42.5404 31.3878 42.2614L6.23821 22.7907C5.48443 22.2072 5.8971 21 6.85038 21Z" fill="#C4F0F5" stroke="black" stroke-width="2"/>
<path d="M12 7H52C52.5523 7 53 7.44772 53 8V26.0179C53 26.3276 52.8565 26.6198 52.6115 26.8092L32.6115 42.2638C32.2513 42.542 31.7487 42.542 31.3886 42.2638L11.3886 26.8092C11.1435 26.6198 11 26.3276 11 26.0179V8C11 7.44772 11.4477 7 12 7Z" fill="white" stroke="black" stroke-width="2"/>
<path d="M7.78917 55H56.2108C57.208 55 57.5909 53.7003 56.753 53.1597L32.5421 37.5398C32.2121 37.3269 31.7879 37.3269 31.4579 37.5398L7.24705 53.1597C6.4091 53.7003 6.79197 55 7.78917 55Z" fill="white" stroke="black" stroke-width="2"/>
<line x1="20" y1="29" x2="44" y2="29" stroke="black" stroke-width="2"/>
<line x1="24" y1="33" x2="40" y2="33" stroke="black" stroke-width="2"/>
<circle cx="32" cy="19" r="5" fill="#C4F0F5"/>
</svg>
