<svg fill="none" height="64" viewBox="0 0 64 64" width="64" xmlns="http://www.w3.org/2000/svg"><g stroke="#000" stroke-width="2"><rect fill="#fff" height="34" rx="1" width="54" x="5" y="21"/><path d="m6.85038 21h50.29922c.9533 0 1.366 1.2072.6122 1.7907l-25.1496 19.4707c-.3605.279-.864.279-1.2244 0l-25.14959-19.4707c-.75378-.5835-.34111-1.7907.61217-1.7907z" fill="#c4f0f5"/><path d="m12 7h40c.5523 0 1 .44772 1 1v18.0179c0 .3097-.1435.6019-.3885.7913l-20 15.4546c-.3602.2782-.8628.2782-1.2229 0l-20-15.4546c-.2451-.1894-.3886-.4816-.3886-.7913v-18.0179c0-.55228.4477-1 1-1z" fill="#fff"/><path d="m7.78917 55h48.42163c.9972 0 1.3801-1.2997.5422-1.8403l-24.2109-15.6199c-.33-.2129-.7542-.2129-1.0842 0l-24.21085 15.6199c-.83795.5406-.45508 1.8403.54212 1.8403z" fill="#fff"/><path d="m20 29h24"/><path d="m24 33h16"/></g><circle cx="32" cy="19" fill="#c4f0f5" r="5"/></svg>