<svg fill="none" height="25" viewBox="0 0 24 25" width="24" xmlns="http://www.w3.org/2000/svg" xmlns:xlink="http://www.w3.org/1999/xlink"><linearGradient id="a" gradientUnits="userSpaceOnUse" x1="6.29902" x2="6.29905" y1="6.69552" y2="14.8563"><stop offset="0" stop-color="#4c98ed"/><stop offset="1" stop-color="#e5a7de"/></linearGradient><path clip-rule="evenodd" d="m.85542 3.55176c-.441828 0-.8000001.35817-.8000001.8v14.93004c0 1.5464 1.2536001 2.8 2.8000001 2.8h9.72708v.0001h8.4996c1.5463 0 2.7999-1.2536 2.7999-2.8v-11.28195c0-.44183-.3581-.8-.7999-.8h-3.0009v-2.84819c0-.44183-.3582-.8-.8-.8zm19.22578 5.24819v11.68195h1.0009c.6627 0 1.2-.5373 1.2-1.2v-10.48195zm-18.42578 10.48185v-14.13004h16.82578v15.33004h-15.62578c-.66274 0-1.2-.5373-1.2-1.2z" fill="#2e3c47" fill-rule="evenodd"/><path d="m3.37134 6.69556h5.85536v8.16074h-5.85536z" fill="url(#a)"/><g clip-rule="evenodd" fill="#2e3c47" fill-rule="evenodd"><path d="m10.5669 9.24336c0-.44183.3582-.8.8-.8h4.9769c.4418 0 .8.35817.8.8s-.3582.80004-.8.80004h-4.9769c-.4418 0-.8-.35821-.8-.80004z"/><path d="m10.5669 12.3203c0-.4419.3582-.8.8-.8h4.9769c.4418 0 .8.3581.8.8 0 .4418-.3582.8-.8.8h-4.9769c-.4418 0-.8-.3582-.8-.8z"/><path d="m3.48762 17.302c-.00045-.4419.35737-.8004.7992-.8008l12.05618-.0121c.4418-.0004.8003.3574.8008.7992.0004.4418-.3574.8004-.7992.8008l-12.05618.0121c-.44183.0004-.80036-.3574-.8008-.7992z"/></g></svg>