<svg fill="none" height="64" viewBox="0 0 64 64" width="64" xmlns="http://www.w3.org/2000/svg"><path d="m22.6166 29.7751c.1047-.4537.5088-.7751.9744-.7751h16.818c.4656 0 .8697.3215.9744.7752l5.0769 21.9999c.1446.6267-.3313 1.2249-.9744 1.2249h-26.9718c-.6431 0-1.119-.5982-.9744-1.2249z" fill="#c4f0f5" stroke="#000" stroke-width="2"/><circle cx="32" cy="28" fill="#fff" r="21" stroke="#000" stroke-width="2"/><circle cx="32" cy="28" fill="#c4f0f5" r="16"/><g stroke="#000" stroke-width="2"><rect fill="#c4f0f5" height="4" rx="1" width="34" x="15" y="53"/><path d="m33.9168 19.0304c-.4669-1.3434-2.3667-1.3434-2.8336 0l-1.5329 4.4097-4.6676.0951c-1.4219.029-2.0089 1.8358-.8756 2.695l3.7202 2.8205-1.3519 4.4686c-.4118 1.3612 1.1252 2.4779 2.2925 1.6656l3.8321-2.6666 3.8321 2.6666c1.1673.8123 2.7043-.3044 2.2925-1.6656l-1.3519-4.4686 3.7202-2.8205c1.1333-.8592.5463-2.666-.8756-2.695l-4.6676-.0951z" fill="#fff"/></g></svg>