<svg fill="none" height="25" viewBox="0 0 24 25" width="24" xmlns="http://www.w3.org/2000/svg" xmlns:xlink="http://www.w3.org/1999/xlink"><linearGradient id="a" gradientUnits="userSpaceOnUse" x1="5.375" x2="5.37502" y1="6.53758" y2="11.787"><stop offset="0" stop-color="#4c98ed"/><stop offset="1" stop-color="#e5a7de"/></linearGradient><path clip-rule="evenodd" d="m.999951 3.89551c-.441828 0-.8.35817-.8.8v8.93369c0 .4418.358172.8.8.8h.560599v2.5053c0 .4419.35817.8.8.8h.40507v2.5109c0 .4419.35818.8.8.8h16.86868c.4419 0 .8-.3581.8-.8v-2.5109h.4048c.4418 0 .8-.3581.8-.8v-2.5053h.5609c.4418 0 .7999-.3582.7999-.8v-8.93369c0-.44183-.3581-.8-.7999-.8zm19.839149 10.53369h-17.67855v1.7053h17.67855zm-19.03915-1.6v-7.33369h20.40005v7.33369zm2.56567 6.6162v-1.7109h15.26868v1.7109z" fill="#2e3c47" fill-rule="evenodd"/><path d="m2.9375 6.5376h4.875v5.2494h-4.875z" fill="url(#a)"/><path clip-rule="evenodd" d="m9.35205 9.1623c0-.44182.35817-.8.80005-.8h9.0502c.4419 0 .8.35818.8.8 0 .44183-.3581.8-.8.8h-9.0502c-.44188 0-.80005-.35817-.80005-.8z" fill="#2e3c47" fill-rule="evenodd"/></svg>