<svg fill="none" height="64" viewBox="0 0 64 64" width="64" xmlns="http://www.w3.org/2000/svg"><circle cx="32" cy="32" fill="#fff" r="27" stroke="#000" stroke-width="2"/><path d="m32 54c12.1503 0 22-9.8497 22-22s-9.8497-22-22-22-22 9.8497-22 22 9.8497 22 22 22z" fill="#c4f0f5"/><path d="m31.5647 20c-4.4613 0-7.3061 2.4375-7.5647 6.3438l2.9418.1874c.2586-2.4999 1.8104-4.0312 4.6229-4.0312s4.3965 1.8125 4.3965 4.25c0 2.0625-1.1638 3.2188-2.9095 4.4688-2.1013 1.625-3.1034 3-3.1034 5.1562v.9688h2.9418v-.8438c0-1.875.7758-2.9062 2.6832-4.2812 2.0043-1.4063 3.4267-2.75 3.4267-5.5001 0-3.9375-2.7478-6.7187-7.4353-6.7187zm-.194 20.2813c-1.0345 0-1.9073.8437-1.9073 1.8749 0 1 .8728 1.8438 1.9073 1.8438 1.0668 0 1.9396-.8438 1.9396-1.8438 0-1.0312-.8728-1.8749-1.9396-1.8749z" fill="#000"/></svg>