<svg width="560" height="141" viewBox="0 0 560 141" fill="none" xmlns="http://www.w3.org/2000/svg">
<path d="M36.9384 13.5237C55.1823 13.5237 67.6828 23.2088 68.1333 39.4256L50.3398 40.3266C50.2272 33.2317 45.272 28.6144 37.2762 28.6144C29.2804 28.6144 24.7757 32.7812 24.7757 38.7499C24.7757 45.1691 29.6183 46.971 41.2178 49.6738C58.4482 54.0658 69.8225 59.4714 69.8225 74.4495C69.8225 92.3556 55.7454 100.239 38.8529 100.239C19.3701 100.239 5.293 90.6663 5.06776 73.2107L22.7486 72.3098C23.0865 79.9677 29.7309 85.1481 38.8529 85.1481C46.6234 85.1481 52.1417 82.3327 52.1417 75.4631C52.1417 69.0439 46.0603 66.6789 34.7986 63.8635C19.5954 60.0345 6.98225 55.6425 6.98225 39.313C6.98225 25.4611 16.7799 13.5237 36.9384 13.5237ZM100.094 39.6509C115.748 39.6509 124.307 47.7593 124.307 63.0752V99H108.428V94.2701C105.162 97.6486 100.207 100.239 93.5627 100.239C81.8505 100.239 74.1926 94.2701 74.1926 83.0084C74.1926 70.0574 85.1164 65.8906 97.5043 65.3275L107.865 64.7644V62.5121C107.865 56.656 105.387 53.5028 100.32 53.5028C94.6889 53.5028 92.2113 57.3317 92.2113 61.1607L75.7692 60.485C75.7692 50.2369 85.1164 39.6509 100.094 39.6509ZM107.865 75.5757L99.0809 76.1388C94.1258 76.364 90.6346 78.0532 90.6346 82.2201C90.6346 86.0491 93.4501 87.5131 97.3917 87.5131C103.36 87.5131 107.865 84.2472 107.865 78.0532V75.5757ZM158.164 39.6509C166.385 39.6509 172.467 42.8041 175.507 46.8583V40.777H190.936V101.14C190.936 117.92 179.449 128.843 161.543 128.843C143.299 128.843 133.726 119.722 131.587 106.433L147.916 105.87C148.705 111.5 153.547 114.879 160.98 114.879C169.088 114.879 174.606 110.712 174.606 102.379V94.0449C171.453 97.4234 165.71 100.239 158.164 100.239C141.722 100.239 130.123 88.1888 130.123 69.9448C130.123 51.7009 141.722 39.6509 158.164 39.6509ZM160.867 53.728C152.646 53.728 146.79 59.5841 146.79 69.9448C146.79 80.3056 152.646 86.1617 160.867 86.1617C168.976 86.1617 174.606 80.6434 174.606 71.2962V68.5934C174.606 59.2462 168.976 53.728 160.867 53.728ZM253.825 75.1252H213.846C214.184 82.3327 218.576 86.95 226.009 86.95C231.752 86.95 235.469 84.585 236.708 80.5308L253.262 81.3191C251.235 92.3556 240.086 100.239 226.459 100.239C208.666 100.239 196.391 88.6392 196.391 69.9448C196.391 51.1378 208.666 39.6509 226.009 39.6509C242.789 39.6509 253.825 50.4621 253.825 68.5934V75.1252ZM225.896 52.4892C218.914 52.4892 214.297 56.7686 213.846 64.2014H237.271C236.933 57.1065 233.329 52.4892 225.896 52.4892ZM358.586 99H339.442L332.572 82.7832H297.548L290.566 99H271.534L307.684 14.7625H322.324L358.586 99ZM303.742 68.5934H326.491L315.116 41.678L303.742 68.5934ZM378.639 99H361.184V14.7625H378.639V99Z" fill="black"/>
<g clip-path="url(#clip0_1712_80051)">
<path d="M559.338 93.6857C559.338 93.6857 557.715 91.5176 557.215 90.8981C556.865 90.4931 556.441 90.0166 555.342 90.7313C552.869 92.3038 550.097 93.7572 546.675 93.7572C544.052 93.7572 541.779 93.1139 540.081 91.732C540.805 91.4223 541.554 91.0887 542.304 90.6837C546.35 88.6108 549.722 85.9424 551.345 84.3937C559.213 76.8886 556.766 65.6905 547.149 65.6905C538.082 65.6905 530.939 74.101 530.939 83.4645C530.939 84.8702 531.114 86.8954 531.738 89.0159C531.214 89.2541 527.617 90.9219 523.321 93.1854C519.274 90.3025 512.98 91.5891 512.98 91.5891C518.825 83.6551 527.642 71.2895 528.391 70.265C528.941 69.5264 528.841 68.8117 528.316 67.668C527.642 66.2861 526.967 66.0479 526.068 66.0479H507.76C507.16 66.0479 506.686 66.31 506.511 66.9533C506.336 67.5966 505.961 69.8123 505.886 70.5509C505.811 71.3134 506.561 71.7899 507.335 71.7899H520.598L508.609 88.1582C508.534 88.2296 508.459 88.3011 508.384 88.3964C506.636 90.8028 503.963 94.1622 500.766 94.1622C498.768 94.1622 496.295 92.8042 496.295 88.3488C496.295 83.9887 498.143 74.7681 499.492 67.5727C499.642 66.8103 499.367 66.0479 498.068 66.0479H494.821C494.072 66.0479 493.647 66.4767 493.547 67.0962C493.348 68.1922 493.148 69.2644 492.973 70.3127C491.374 67.3821 488.802 65.7143 485.105 65.7143C481.658 65.7143 478.311 66.9294 475.564 69.5503C468.72 76.0785 470.019 86.7286 464.099 92.3753C461.551 94.8055 458.679 94.0669 458.679 89.278C458.679 83.8219 460.877 77.7225 463.375 71.9567C463.824 70.9322 463.35 70.0744 462.875 69.4311C462.201 68.5019 461.951 68.0254 460.752 68.0254C458.879 68.0254 455.906 69.1452 449.937 69.1452C448.663 69.1452 447.464 69.0976 446.365 69.0261C446.44 68.1684 446.44 67.5966 446.465 67.3821C446.515 66.572 446.215 66.0717 445.316 66.0717H442.269C441.17 66.0717 440.895 66.572 440.77 67.4059C440.245 70.8845 439.271 83.6789 432.527 90.088C431.753 90.8266 431.278 91.0649 431.278 91.0649C432.952 87.9437 433.851 83.8457 433.851 80.5816C433.851 71.4325 428.181 65.762 421.038 65.762C418.865 65.762 416.567 66.4291 414.394 67.7157C415.393 62.1405 416.317 56.9226 416.642 55.1595C416.916 53.6585 416.367 52.8961 415.942 52.2766C415.268 51.2759 414.668 50.8232 413.769 50.8232H403.229C402.629 50.8232 402.18 51.2283 402.03 51.8716C401.855 52.6102 401.48 54.5639 401.43 55.4693C401.38 56.2555 401.955 56.5652 402.629 56.5652H410.322C409.098 63.7606 406.751 77.6987 406.051 81.201C405.152 85.6565 401.83 91.1125 396.235 93.0663C395.536 93.3045 395.261 93.924 395.511 94.6388C395.76 95.3535 396.735 97.2119 397.034 97.6884C397.334 98.1888 397.983 98.4985 398.583 98.3079C401.48 97.3311 404.153 95.7586 406.251 93.7572C406.776 93.2569 407.275 92.7089 407.75 92.1132C410.247 97.4978 415.393 99.4516 420.613 99.4516C426.533 99.4516 432.927 97.474 437.423 93.2092C442.668 88.2058 444.841 79.9621 445.79 74.101C447.089 74.2678 448.563 74.4107 449.987 74.4107C453.583 74.4107 456.606 73.6721 456.606 73.6721C456.606 73.6721 452.984 82.8688 452.984 89.6354C452.984 97.2834 456.83 99.4516 461.052 99.4516C465.423 99.4516 468.495 96.3304 470.668 92.4468C471.243 93.6619 472.092 95.0914 473.241 96.1874C475.214 98.0697 477.662 99.4516 481.209 99.4516C485.255 99.4516 488.727 97.2358 491.2 93.8049C491.649 95.2582 492.324 96.4495 493.248 97.3311C494.497 98.5223 496.795 99.4516 499.642 99.4516C504.563 99.4516 507.435 95.9253 515.103 95.9253C516.077 95.9253 516.951 96.0683 517.751 96.3304C514.229 98.3794 510.882 100.571 508.834 102.525C502.514 108.553 502.215 116.511 506.361 120.466C511.406 125.279 518.55 122.848 523.046 118.584C528.291 113.58 529.815 104.121 526.793 97.6646C530.464 95.83 533.536 94.472 534.261 94.1384C536.559 97.1166 540.355 99.4516 546.6 99.4516C551.071 99.4516 555.592 97.9505 559.113 95.4012C559.613 94.9485 559.738 94.2099 559.338 93.6857ZM423.685 91.6367C422.262 92.9948 420.513 93.7334 418.74 93.7334C417.091 93.7334 415.668 93.0186 414.469 91.875C410.422 88.0152 410.772 78.5087 415.992 73.5292C417.466 72.1234 419.264 71.3134 421.088 71.3134C422.736 71.3134 424.16 72.0043 425.359 73.1479C429.155 76.7933 429.38 86.2044 423.685 91.6367ZM481.558 93.7096C477.187 93.7096 474.34 88.6823 475.214 82.4876C476.088 76.2929 480.334 71.2657 484.705 71.2657C488.752 71.2657 491.499 75.5782 491.2 81.1296C491.075 81.9396 490.975 82.7021 490.9 83.4645C489.726 89.2065 485.705 93.7096 481.558 93.7096ZM517.951 115.534C512.231 120.99 504.937 114.033 513.455 105.908C515.378 104.074 518.55 102.049 521.847 100.19C523.72 104.622 522.247 111.436 517.951 115.534ZM540.905 73.6483C545.201 69.5503 549.972 70.7654 549.972 74.7443C549.972 78.6279 545.101 82.8212 539.206 86.0615C538.632 86.3712 537.957 86.7286 537.283 87.0622C537.058 86.0853 536.933 85.0132 536.933 83.798C536.908 80.4624 538.382 76.0547 540.905 73.6483Z" fill="black"/>
</g>
<path d="M406.207 13.5154V23.8024C407.117 22.7568 408.871 21.9474 411.097 21.9474C416.055 21.9474 419.529 25.5225 419.529 31.0202C419.529 36.4841 416.055 40.0929 411.097 40.0929C408.669 40.0929 406.847 39.1148 405.937 37.9344V39.7219H401.282V13.5154H406.207ZM410.321 26.1633C407.893 26.1633 406.207 27.816 406.207 30.6154V31.3912C406.207 34.2243 407.893 35.8432 410.321 35.8432C412.784 35.8432 414.537 34.1231 414.537 31.0202C414.537 27.9172 412.784 26.1633 410.321 26.1633ZM428.124 48.3225H422.761L427.214 38.1704L420.401 22.2846H425.831L429.844 32.6728L433.824 22.2846H439.288L428.124 48.3225Z" fill="black"/>
<defs>
<clipPath id="clip0_1712_80051">
<rect width="164.152" height="72.2873" fill="white" transform="translate(395.41 50.8232)"/>
</clipPath>
</defs>
</svg>
