<svg fill="none" height="64" viewBox="0 0 64 64" width="64" xmlns="http://www.w3.org/2000/svg"><path d="m4 18h56v34c0 1.1046-.8954 2-2 2h-52c-1.10457 0-2-.8954-2-2z" fill="#fff"/><path clip-rule="evenodd" d="m58 20h-52v32h52zm-54-2v34c0 1.1046.89543 2 2 2h52c1.1046 0 2-.8954 2-2v-34z" fill="#000" fill-rule="evenodd"/><path d="m4 12c0-1.1046.89543-2 2-2h52c1.1046 0 2 .8954 2 2v8h-56z" fill="#c4f0f5"/><g fill="#000"><path clip-rule="evenodd" d="m58 12h-52v6h52zm-52-2c-1.10457 0-2 .8954-2 2v8h56v-8c0-1.1046-.8954-2-2-2z" fill-rule="evenodd"/><path d="m10 15c0 .5523-.44772 1-1 1s-1-.4477-1-1 .44772-1 1-1 1 .4477 1 1z"/><path d="m14 15c0 .5523-.4477 1-1 1s-1-.4477-1-1 .4477-1 1-1 1 .4477 1 1z"/><path d="m18 15c0 .5523-.4477 1-1 1s-1-.4477-1-1 .4477-1 1-1 1 .4477 1 1z"/></g><g clip-rule="evenodd" fill-rule="evenodd"><path d="m29.0106 22.7575c.1113-.4452.5113-.7575.9702-.7575h4.0384c.4589 0 .8589.3123.9702.7575l.5313 2.1254c.0821.3282.3257.5896.6397.7153.0518.0207.1034.0418.1549.0633.309.1292.6621.115.9493-.0573l2.2588-1.3552c.3935-.2361.8972-.1741 1.2216.1503l2.8556 2.8557c.3245.3244.3865.8281.1504 1.2216l-1.3552 2.2587c-.1724.2872-.1865.6404-.0573.9494.0215.0514.0426.1031.0633.1549.1257.314.3871.5576.7153.6397l2.1254.5313c.4452.1113.7575.5113.7575.9702v4.0384c0 .4589-.3123.8589-.7575.9702l-2.1254.5313c-.3282.0821-.5896.3257-.7153.6397-.0207.0518-.0418.1034-.0633.1549-.1292.309-.115.6621.0573.9493l1.3553 2.2588c.236.3935.174.8972-.1504 1.2216l-2.8556 2.8557c-.3245.3244-.8282.3864-1.2216.1503l-2.2589-1.3552c-.2871-.1724-.6403-.1865-.9493-.0573-.0515.0215-.1031.0426-.1549.0633-.314.1257-.5576.3871-.6397.7153l-.5313 2.1254c-.1113.4452-.5113.7575-.9702.7575h-4.0384c-.4589 0-.8589-.3123-.9702-.7575l-.5313-2.1254c-.0821-.3282-.3257-.5896-.6397-.7153-.0518-.0207-.1034-.0418-.1549-.0633-.309-.1292-.6621-.115-.9493.0573l-2.2588 1.3553c-.3935.236-.8972.174-1.2216-.1504l-2.8557-2.8556c-.3244-.3245-.3864-.8282-.1503-1.2216l1.3552-2.2589c.1724-.2871.1865-.6403.0573-.9493-.0215-.0515-.0426-.1031-.0633-.1549-.1257-.314-.3871-.5576-.7153-.6397l-2.1254-.5313c-.4452-.1113-.7575-.5113-.7575-.9702v-4.0384c0-.4589.3123-.8589.7575-.9702l2.1254-.5313c.3282-.0821.5896-.3257.7153-.6397.0207-.0518.0418-.1034.0633-.1549.1292-.309.1151-.6622-.0573-.9493l-1.3552-2.2589c-.2361-.3934-.1741-.8971.1503-1.2216l2.8557-2.8556c.3244-.3244.8281-.3864 1.2216-.1504l2.2588 1.3553c.2872.1723.6403.1865.9493.0573.0515-.0215.1031-.0426.1549-.0633.314-.1257.5576-.3871.6397-.7153zm2.9894 16.9758c2.0619 0 3.7333-1.6714 3.7333-3.7333s-1.6714-3.7333-3.7333-3.7333-3.7333 1.6714-3.7333 3.7333 1.6714 3.7333 3.7333 3.7333z" fill="#fff"/><path d="m30.7616 24-.342 1.368c-.2504 1.0016-.9768 1.7427-1.8367 2.0869-.0425.017-.0848.0344-.127.052-.8466.3537-1.873.3382-2.7495-.1877l-1.5893-.9536-1.7515 1.7515.9536 1.5893c.5259.8765.5415 1.9029.1877 2.7495-.0176.0422-.035.0845-.052.127-.3442.8599-1.0853 1.5863-2.0869 1.8367l-1.368.342v2.4768l1.368.342c1.0016.2504 1.7427.9768 2.0869 1.8367.017.0425.0344.0848.052.127.3538.8466.3382 1.873-.1877 2.7495l-.9536 1.5893 1.7515 1.7515 1.5893-.9536c.8765-.5259 1.9029-.5414 2.7495-.1877.0422.0176.0845.035.127.052.8599.3442 1.5863 1.0853 1.8367 2.0869l.342 1.368h2.4768l.342-1.368c.2504-1.0016.9768-1.7427 1.8367-2.0869.0425-.017.0848-.0344.127-.052.8466-.3538 1.873-.3382 2.7495.1877l1.5893.9536 1.7515-1.7515-.9536-1.5893c-.5259-.8765-.5414-1.9029-.1877-2.7495.0176-.0422.035-.0845.052-.127.3442-.8599 1.0853-1.5863 2.0869-1.8367l1.368-.342v-2.4768l-1.368-.342c-1.0016-.2504-1.7427-.9768-2.0869-1.8367-.017-.0425-.0344-.0848-.052-.127-.3538-.8466-.3382-1.873.1877-2.7496l.9535-1.5892-1.7514-1.7515-1.5893.9536c-.8765.5259-1.9029.5414-2.7495.1877-.0422-.0176-.0845-.035-.127-.052-.8599-.3442-1.5863-1.0853-1.8367-2.0869l-.342-1.368zm6.9717 12c0 3.1664-2.5669 5.7333-5.7333 5.7333s-5.7333-2.5669-5.7333-5.7333 2.5669-5.7333 5.7333-5.7333 5.7333 2.5669 5.7333 5.7333zm-7.7525-14c-.4589 0-.8589.3123-.9702.7575l-.5313 2.1254c-.0821.3282-.3257.5896-.6397.7153-.0518.0207-.1034.0418-.1549.0633-.309.1292-.6621.115-.9493-.0573l-2.2588-1.3553c-.3935-.236-.8972-.174-1.2216.1504l-2.8557 2.8556c-.3244.3245-.3864.8282-.1503 1.2216l1.3552 2.2589c.1724.2871.1865.6403.0573.9493-.0215.0515-.0426.1031-.0633.1549-.1257.314-.3871.5576-.7153.6397l-2.1254.5313c-.4452.1113-.7575.5113-.7575.9702v4.0384c0 .4589.3123.8589.7575.9702l2.1254.5313c.3282.0821.5896.3257.7153.6397.0207.0518.0418.1034.0633.1549.1292.309.1151.6622-.0573.9493l-1.3552 2.2589c-.2361.3934-.1741.8971.1503 1.2216l2.8557 2.8556c.3244.3244.8281.3864 1.2216.1504l2.2588-1.3553c.2872-.1723.6403-.1865.9493-.0573.0515.0215.1031.0426.1549.0633.314.1257.5576.3871.6397.7153l.5313 2.1254c.1113.4452.5113.7575.9702.7575h4.0384c.4589 0 .8589-.3123.9702-.7575l.5313-2.1254c.0821-.3282.3257-.5896.6397-.7153.0518-.0207.1034-.0418.1549-.0633.309-.1292.6622-.1151.9493.0573l2.2589 1.3552c.3934.2361.8971.1741 1.2216-.1503l2.8556-2.8557c.3244-.3244.3864-.8281.1504-1.2216l-1.3553-2.2588c-.1723-.2872-.1865-.6403-.0573-.9493.0215-.0515.0426-.1031.0633-.1549.1257-.314.3871-.5576.7153-.6397l2.1254-.5313c.4452-.1113.7575-.5113.7575-.9702v-4.0384c0-.4589-.3123-.8589-.7575-.9702l-2.1254-.5313c-.3282-.0821-.5896-.3257-.7153-.6397-.0207-.0518-.0418-.1035-.0633-.1549-.1292-.309-.1151-.6622.0573-.9494l1.3552-2.2587c.2361-.3935.1741-.8972-.1504-1.2216l-2.8556-2.8557c-.3244-.3244-.8281-.3864-1.2216-.1503l-2.2588 1.3552c-.2872.1723-.6403.1865-.9493.0573-.0515-.0215-.1031-.0426-.1549-.0633-.314-.1257-.5576-.3871-.6397-.7153l-.5313-2.1254c-.1113-.4452-.5113-.7575-.9702-.7575zm5.7525 14c0 2.0619-1.6714 3.7333-3.7333 3.7333s-3.7333-1.6714-3.7333-3.7333 1.6714-3.7333 3.7333-3.7333 3.7333 1.6714 3.7333 3.7333z" fill="#000"/><path d="m32 42c3.3137 0 6-2.6863 6-6s-2.6863-6-6-6-6 2.6863-6 6 2.6863 6 6 6zm0 3c4.9706 0 9-4.0294 9-9s-4.0294-9-9-9-9 4.0294-9 9 4.0294 9 9 9z" fill="#c4f0f5"/><g fill="#000"><path d="m52.8512 27.4001c1.2756 2.0683 2.1488 4.838 2.1488 8.5999 0 5.6-2.6511 8.9664-5.1337 10.6858l1.3763.3441-.4851 1.9402-4.9701-1.2425 1.2425-4.9701 1.9403.485-.4922 1.9689c2.0553-1.3198 4.522-4.1491 4.522-9.2114 0-3.4381-.7934-5.8351-1.8511-7.5501-1.0607-1.7197-2.428-2.8201-3.6789-3.6019l1.06-1.696c1.4158.8849 3.0485 2.1845 4.3212 4.2481z"/><path d="m11.1488 44.5999c-1.27561-2.0683-2.14883-4.838-2.14883-8.5999 0-5.6 2.65113-8.9664 5.13373-10.6858l-1.3763-.3441.4851-1.9402 4.9701 1.2425-1.2425 4.9701-1.9403-.485.4922-1.9689c-2.0553 1.3198-4.522 4.1491-4.522 9.2114 0 3.4381.7934 5.8351 1.8511 7.5501 1.0607 1.7197 2.428 2.8201 3.6789 3.6019l-1.06 1.696c-1.4158-.8849-3.0485-2.1845-4.3212-4.2481z"/></g></g></svg>