<svg fill="none" height="25" viewBox="0 0 25 25" width="25" xmlns="http://www.w3.org/2000/svg" xmlns:xlink="http://www.w3.org/1999/xlink"><linearGradient id="a" gradientUnits="userSpaceOnUse" x1="3.07373" x2="23.4642" y1="15.4255" y2="15.4255"><stop offset="0" stop-color="#4c98ed"/><stop offset="1" stop-color="#e5a7de"/></linearGradient><clipPath id="b"><path d="m.987793.021973h24v24h-24z"/></clipPath><g clip-path="url(#b)"><path d="m14.6204 12.9143c-5.56608-4.88116-8.36393-4.46423-11.54667-4.46428v4.83498c4.50024 0 4.55716-.2199 9.77027 4.48 4.0194 3.6237 7.4663 4.6379 10.1206 4.7467.2759.0114.4996-.2136.4996-.4897v-4.2127c0-.2517-.188-.4638-.4373-.4988-3.9929-.5598-5.0998-1.4965-8.4065-4.3962z" fill="#6471b9"/><path d="m14.6204 17.4314c-5.56608 4.8812-8.36393 4.4642-11.54667 4.4643v-4.835c4.50024 0 4.55716.2199 9.77027-4.48 4.0194-3.62369 7.4662-3.27404 10.1205-3.21887.276.00574.4997.22971.4997.50585v3.81982c0 .2762-.2252.4998-.5013.501-4.4172.0195-5.0392.3462-8.3425 3.2429z" fill="url(#a)"/><g clip-rule="evenodd" fill="#2e3c47" fill-rule="evenodd"><path d="m3.87368 1.52192c0-.44182-.35817-.799996-.8-.799996s-.8.358176-.8.799996v11.91298c0 .4418.35817.8.8.8s.8-.3582.8-.8v-5.66197h19.01582v-5.15208h-19.01582z"/><path d="m3.07368 15.8284c.44183 0 .8.3581.8.8v5.8305c0 .4418-.35817.8-.8.8s-.8-.3582-.8-.8v-5.8305c0-.4419.35817-.8.8-.8z"/></g></g></svg>