<svg fill="none" height="25" viewBox="0 0 24 25" width="24" xmlns="http://www.w3.org/2000/svg" xmlns:xlink="http://www.w3.org/1999/xlink"><linearGradient id="a" gradientUnits="userSpaceOnUse" x1="12.0073" x2="12.0073" y1="14.6736" y2="21.6388"><stop offset="0" stop-color="#4c98ed"/><stop offset="1" stop-color="#e5a7de"/></linearGradient><path d="m22.2573 14.6736h-20.49998v6.9652l5.56658-3.9073h14.9334z" fill="url(#a)"/><g clip-rule="evenodd" fill="#2e3c47" fill-rule="evenodd"><path d="m.942627 2.85493c0-.44183.358173-.8.800003-.8h20.49997c.4419 0 .8.35817.8.8v15.46867c0 .4418-.3581.8-.8.8h-14.68065l-5.35971 3.7621c-.24431.1715-.56376.1927-.8286.055-.26484-.1376-.431013-.4113-.431013-.7098zm1.600003.8v17.03707l4.30696-3.0232c.13464-.0945.29513-.1452.45962-.1452h14.13339v-13.86867z"/><path d="m7.29907 7.5478c0-.44183.35817-.8.8-.8h7.87503c.4418 0 .8.35817.8.8s-.3582.8-.8.8h-7.87503c-.44183 0-.8-.35817-.8-.8z"/><path d="m7.26978 11.1992c0-.4419.35817-.8.8-.8h7.87502c.4418 0 .8.3581.8.8 0 .4418-.3582.8-.8.8h-7.87502c-.44183 0-.8-.3582-.8-.8z"/></g></svg>