<svg fill="none" height="64" viewBox="0 0 64 64" width="64" xmlns="http://www.w3.org/2000/svg"><g stroke="#000" stroke-width="2"><path d="m16 48c-2.5-12.5 1.5-17 14.0555-17" stroke-dasharray=".1 5" stroke-linecap="round"/><circle cx="15" cy="49" fill="#c4f0f5" r="8"/><path d="m39 16 9-9 9 9"/><path d="m48 7c0 17.5 2.5 24-18 24"/><path d="m24 8 5 5m5 5-5-5m0 0 5-5m-5 5-5 5"/><path d="m8 19 5 5m5 5-5-5m0 0 5-5m-5 5-5 5"/><path d="m46 34 5 5m5 5-5-5m0 0 5-5m-5 5-5 5"/><path d="m30 42 5 5m5 5-5-5m0 0 5-5m-5 5-5 5"/></g></svg>