<svg fill="none" height="64" viewBox="0 0 64 64" width="64" xmlns="http://www.w3.org/2000/svg" xmlns:xlink="http://www.w3.org/1999/xlink"><mask id="a" fill="#fff"><path clip-rule="evenodd" d="m19 60v-11-21-1c0-.5523.4477-1 1-1h1 10 1 7 .7414c2.2804 0 4.272 1.5431 4.8415 3.7513l2.7724 10.7492c.3265 1.2659-.6293 2.4995-1.9366 2.4995h-1.4187v1c0 3.866-3.134 7-7 7h-3v9c0 1.1046-.8954 2-2 2h-11c-1.1046 0-2-.8954-2-2z" fill="#fff" fill-rule="evenodd"/></mask><path clip-rule="evenodd" d="m19 60v-11-21-1c0-.5523.4477-1 1-1h1 10 1 7 .7414c2.2804 0 4.272 1.5431 4.8415 3.7513l2.7724 10.7492c.3265 1.2659-.6293 2.4995-1.9366 2.4995h-1.4187v1c0 3.866-3.134 7-7 7h-3v9c0 1.1046-.8954 2-2 2h-11c-1.1046 0-2-.8954-2-2z" fill="#fff" fill-rule="evenodd"/><path d="m44.5829 29.7513 1.9366-.4995zm2.7724 10.7492 1.9367-.4995zm-3.3553 2.4995v-2h-2v2zm-10 8v-2h-2v2zm-17-2v11h4v-11zm4 0v-21h-4v21zm0-21v-1h-4v1zm0-1c0 .5523-.4477 1-1 1v-4c-1.6569 0-3 1.3431-3 3zm-1 1h1v-4h-1zm1 0h10v-4h-10zm10 0h1v-4h-1zm1 0h7v-4h-7zm7.7414-4h-.7414v4h.7414zm6.7781 5.2518c-.7973-3.0915-3.5855-5.2518-6.7781-5.2518v4c1.3682 0 2.5632.9258 2.9049 2.2508zm2.7725 10.7492-2.7725-10.7492-3.8732.999 2.7724 10.7492zm-3.8733 4.999c2.6146 0 4.5262-2.4673 3.8733-4.999l-3.8733.999zm-1.4187 0h1.4187v-4h-1.4187zm-2-2v1h4v-1zm0 1c0 2.7614-2.2386 5-5 5v4c4.9706 0 9-4.0294 9-9zm-5 5h-3v4h3zm-1 11v-9h-4v9zm-4 4c2.2091 0 4-1.7909 4-4h-4zm-11 0h11v-4h-11zm-4-4c0 2.2091 1.7909 4 4 4v-4z" fill="#000" mask="url(#a)"/><circle cx="36.5" cy="35.5" fill="#000" r="1.5"/><path d="m21 52h11v8h-11z" fill="#c4f0f5"/><g stroke="#000" stroke-width="2"><circle cx="51" cy="13" fill="#c4f0f5" r="4"/><circle cx="13" cy="13" fill="#c4f0f5" r="4"/><circle cx="32" cy="7" fill="#fff" r="4"/><circle cx="32" cy="19" fill="#fff" r="4"/><path d="m28 7h-5v13m13-1h6v-13"/></g></svg>