<svg fill="none" height="25" viewBox="0 0 24 25" width="24" xmlns="http://www.w3.org/2000/svg" xmlns:xlink="http://www.w3.org/1999/xlink"><linearGradient id="a" gradientUnits="userSpaceOnUse" x1="10.2859" x2="13.8215" y1="7.41313" y2="3.8776"><stop offset="0" stop-color="#4c98ed"/><stop offset="1" stop-color="#e5a7de"/></linearGradient><clipPath id="b"><path d="m0 .063477h24v24h-24z"/></clipPath><g clip-path="url(#b)"><path clip-rule="evenodd" d="m14.8955 20.9516c.3162-.3121.821-.31 1.1274.0047.4532.4654 1.0158.7982 1.63.9672.614.169 1.2589.1686 1.8704.0004.6115-.1683 1.1702-.4992 1.6197-.9608.4496-.4618.7748-1.0389.9407-1.6747s.1662-1.3068-.0003-1.945-.4935-1.2192-.9467-1.6846c-.4531-.4654-1.0157-.7982-1.6299-.9672-.6141-.169-1.259-.1687-1.8705-.0004-.3385.0932-.6952-.046-.8796-.3433l-4.6079-7.42731c-.232-.37403-.1168-.87013.2575-1.10806.3742-.23794.8657-.12761 1.0978.24642l4.3172 6.95875c.707-.1076 1.4296-.0657 2.1224.125.8867.244 1.6926.7226 2.3381 1.3856.6454.6629 1.1086 1.4874 1.3442 2.3906.2356.9031.236 1.855-.0003 2.7605-.2363.9057-.7012 1.734-1.3502 2.4006-.6492.6667-1.459 1.1473-2.3483 1.392s-1.8246.2444-2.7113.0004c-.8866-.244-1.6925-.7227-2.3381-1.3856-.3064-.3148-.2985-.823.0177-1.1352z" fill="#2e3c47" fill-rule="evenodd"/><path d="m13.7679 3.82403c.9763.97631.9763 2.55922 0 3.53553s-2.5592.97631-3.5355 0c-.97634-.97631-.97634-2.55922 0-3.53553.9763-.97631 2.5592-.97631 3.5355 0z" fill="url(#a)"/><path clip-rule="evenodd" d="m13.2173 2.03198c-.562-.19594-1.1617-.24632-1.7464-.14718-.5848.09916-1.1386.34518-1.61184.71816-.47341.37307-.85198.86196-1.10025 1.42471-.2483.56284-.35803 1.18098-.31857 1.79929.03946.6183.22675 1.2158.54387 1.73954.31705.52365.75355.95662 1.26919 1.26234.362.21469.4958.67324.3059 1.04893l-4.04867 8.01233c-.19927.3943-.68048.5524-1.07482.3532-.39434-.1993-.55248-.6805-.35322-1.0749l3.73604-7.39346c-.47551-.38426-.88291-.85093-1.20309-1.37974-.45155-.74577-.71621-1.59288-.77195-2.46634-.05574-.87344.09902-1.74814.45145-2.547.35248-.79895.89237-1.49858 1.57377-2.03558.68154-.537089 1.48329-.894598 2.33469-1.038959.8514-.144372 1.7243-.070758 2.5406.213841.8162.28456 1.5493.770698 2.1353 1.413288.5859.64248 1.007 1.42166 1.2277 2.26782.1116.42752-.1446.86451-.5721.97605s-.8645-.14461-.9761-.57213c-.1559-.59785-.4526-1.14497-.8617-1.59361-.409-.44852-.9177-.78462-1.4798-.9806z" fill="#2e3c47" fill-rule="evenodd"/><path d="m8.01489 18.2793c0 1.3807-1.11929 2.5-2.5 2.5s-2.5-1.1193-2.5-2.5 1.11929-2.5 2.5-2.5 2.5 1.1193 2.5 2.5z" fill="#6471b9"/><path clip-rule="evenodd" d="m3.61471 15.0593c.38004-.2254.50544-.7161.2801-1.0962-.22535-.38-.71611-.5054-1.09615-.2801-.79523.4716-1.45299 1.1482-1.909247 1.9598-.456186.8115-.695565 1.7305-.695565 2.6647s.239378 1.8532.695564 2.6647c.456258.8116 1.114008 1.4882 1.909248 1.9598l.40802-.6882-.40802.6882c.7954.4716 1.69938.7208 2.62086.7208s1.82546-.2492 2.62086-.7208c.79523-.4716 1.45298-1.1482 1.90924-1.9598.32498-.5782.53998-1.2108.63668-1.8647h5.3815c.3418.9737 1.2692 1.6718 2.3596 1.6718 1.3807 0 2.5-1.1193 2.5-2.5s-1.1193-2.5-2.5-2.5c-1.1114 0-2.0534.7252-2.3786 1.7282h-6.10361c-.44183 0-.8.3582-.8.8 0 .6615-.16961 1.3102-.49029 1.8806-.32061.5703-.78023 1.0413-1.33057 1.3676-.55017.3262-1.17256.4971-1.80481.4971-.63226 0-1.25464-.1709-1.80481-.4971-.55034-.3263-1.00996-.7973-1.33057-1.3676-.32068-.5704-.49029-1.2191-.49029-1.8806s.16961-1.3102.49029-1.8806c.32061-.5703.78023-1.0413 1.33057-1.3676z" fill="#2e3c47" fill-rule="evenodd"/></g></svg>