<svg fill="none" height="25" viewBox="0 0 24 25" width="24" xmlns="http://www.w3.org/2000/svg" xmlns:xlink="http://www.w3.org/1999/xlink"><linearGradient id="a" gradientUnits="userSpaceOnUse" x1="11.964" x2="11.964" y1="5.55683" y2="19.0592"><stop offset="0" stop-color="#4c98ed"/><stop offset="1" stop-color="#e5a7de"/></linearGradient><clipPath id="b"><path d="m0 .288086h24v24h-24z"/></clipPath><g clip-path="url(#b)"><path clip-rule="evenodd" d="m1.79995 12.288c0-5.63327 4.5667-10.19996 10.20005-10.19996 5.6333 0 10.2 4.56669 10.2 10.19996 0 5.6333-4.5667 10.2-10.2 10.2-1.8977 0-3.67222-.5174-5.19268-1.4186-.20566-.1538-.48157-.206-.7424-.1154l-3.52746 1.2262c-.15809.0549-.30973-.097-.25444-.255l1.21332-3.4666c.10449-.2986.02156-.6173-.18701-.8278-.95717-1.5534-1.50938-3.3825-1.50938-5.3428zm.05214 6.0251c-1.049442-1.7641-1.652139-3.8252-1.652139-6.0251 0-6.51692 5.283039-11.799963 11.800049-11.799963 6.5169 0 11.7999 5.283043 11.7999 11.799963 0 6.517-5.283 11.8-11.7999 11.8-2.0913 0-4.05743-.5446-5.76211-1.5002l-3.17509 1.1037c-1.42284.4946-2.787574-.873-2.289952-2.2948z" fill="#2e3c47" fill-rule="evenodd"/><path d="m11.1928 8.65124-1.50705-2.63131c-.17817-.3111-.51191-.51433-.8649-.45171-1.78238.31621-3.13991 2.01278-3.54864 2.80268-.04772.09222-.07247.19537-.08087.29886-.56429 6.94794 5.19366 10.38944 9.39696 10.38944 1.8224 0 3.7054-1.9562 4.158-3.437.1028-.3363-.0796-.6732-.3745-.8649l-2.3281-1.5132c-.3204-.2084-.7317-.2158-1.0594-.0191l-1.6638.9983c-.1918.1151-.4183.1684-.6353.1143-1.2433-.31-2.1199-1.3986-2.5636-2.2002-.15711-.2838-.1209-.6273.0539-.9005l.9918-1.54962c.2007-.31366.2106-.71289.0255-1.03604z" fill="url(#a)"/></g></svg>