<svg fill="none" height="25" viewBox="0 0 25 25" width="25" xmlns="http://www.w3.org/2000/svg" xmlns:xlink="http://www.w3.org/1999/xlink"><linearGradient id="a" gradientUnits="userSpaceOnUse" x1="2.56662" x2="9.33788" y1="21.7712" y2="22.3637"><stop offset="0" stop-color="#4c98ed"/><stop offset="1" stop-color="#e5a7de"/></linearGradient><path d="m7.44812 14.1704 3.38538 3.4073-5.78945 5.7522-3.38536-3.4073z" fill="url(#a)"/><path clip-rule="evenodd" d="m16.0629 3.12979c-3.3222 0-6.0154 2.69317-6.0154 6.01538 0 .89833.1964 1.74863.5478 2.51203l.2527.549-7.28192 6.2367c-.93965.8048-1.0091 2.2341-.1519 3.1262.85505.8899 2.28325.8749 3.11943-.0327l6.56399-7.1246.5244.2331c.745.3312 1.5703.5157 2.4409.5157 3.3222 0 6.0154-2.6932 6.0154-6.01543 0-.33157-.0268-.65654-.0782-.97299l-2.6114 2.61142c-.4065.4065-.9827.5944-1.5507.5056l-2.0391-.3186c-.7732-.1208-1.3797-.7274-1.5005-1.50054l-.3186-2.03913c-.0888-.56797.0991-1.14417.5056-1.55067l2.6545-2.65448c-.3491-.06304-.709-.09599-1.077-.09599zm-7.61538 6.01538c0-4.20586 3.40948-7.61538 7.61538-7.61538 1.0246 0 2.0038.20276 2.8982.57109l1.1095.45693-4.4538 4.45382c-.0452.04517-.0661.10919-.0562.1723l.3186 2.03912c.0134.08591.0808.15331.1667.16673l2.0392.31861c.0631.00986.1271-.01101.1722-.05618l4.4408-4.44079.4483 1.13263c.3435.86807.5319 1.81356.5319 2.80112 0 4.20583-3.4095 7.61543-7.6154 7.61543-.8934 0-1.7523-.1542-2.5504-.4378l-5.80217 6.2977c-1.46086 1.5856-3.95602 1.6118-5.44985.0572-1.494381-1.5552-1.373306-4.047.26481-5.45l6.38344-5.4672c-.29852-.8163-.46121-1.6976-.46121-2.61533z" fill="#2e3c47" fill-rule="evenodd"/></svg>