<svg width="161" height="34" viewBox="0 0 161 34" fill="none" xmlns="http://www.w3.org/2000/svg">
<path d="M12.04 26H16.612V13.652C16.612 10.268 14.776 8.18 10.96 8.18C8.116 8.18 5.956 9.548 4.84 10.88V1.988H0.268V26H4.84V14.3C5.632 13.256 7.036 12.248 8.8 12.248C10.78 12.248 12.04 13.004 12.04 15.416V26ZM23.4188 6.056C24.9308 6.056 26.1548 4.832 26.1548 3.32C26.1548 1.808 24.9308 0.583999 23.4188 0.583999C21.9428 0.583999 20.6828 1.808 20.6828 3.32C20.6828 4.832 21.9428 6.056 23.4188 6.056ZM21.1508 26H25.7228V8.612H21.1508V26ZM29.8963 30.464C32.0923 32.372 34.3963 33.056 37.3843 33.056C41.6683 33.056 46.7803 31.436 46.7803 24.812V8.612H42.1723V10.844C40.7683 9.08 38.8963 8.18 36.8083 8.18C32.4163 8.18 29.1403 11.348 29.1403 17.036C29.1403 22.832 32.4523 25.892 36.8083 25.892C38.9323 25.892 40.8043 24.884 42.1723 23.156V24.92C42.1723 28.34 39.5803 29.312 37.3843 29.312C35.1883 29.312 33.3523 28.7 31.9483 27.152L29.8963 30.464ZM42.1723 19.844C41.4163 20.96 39.7603 21.824 38.2483 21.824C35.6563 21.824 33.8563 20.024 33.8563 17.036C33.8563 14.048 35.6563 12.248 38.2483 12.248C39.7603 12.248 41.4163 13.076 42.1723 14.228V19.844ZM63.0869 26H67.6589V13.652C67.6589 10.268 65.8229 8.18 62.0069 8.18C59.1629 8.18 57.0029 9.548 55.8869 10.88V1.988H51.3149V26H55.8869V14.3C56.6789 13.256 58.0829 12.248 59.8469 12.248C61.8269 12.248 63.0869 13.004 63.0869 15.416V26ZM78.0297 26.432C79.9377 26.432 81.1617 25.928 81.8457 25.316L80.8737 21.86C80.6217 22.112 79.9737 22.364 79.2897 22.364C78.2817 22.364 77.7057 21.536 77.7057 20.456V12.608H81.2337V8.612H77.7057V3.86H73.0977V8.612H70.2177V12.608H73.0977V21.68C73.0977 24.776 74.8257 26.432 78.0297 26.432ZM92.4258 26.432C98.1858 26.432 101.642 22.256 101.642 17.288C101.642 12.356 98.1858 8.18 92.4258 8.18C86.7018 8.18 83.2458 12.356 83.2458 17.288C83.2458 22.256 86.7018 26.432 92.4258 26.432ZM92.4258 22.364C89.5818 22.364 87.9978 20.024 87.9978 17.288C87.9978 14.588 89.5818 12.248 92.4258 12.248C95.2698 12.248 96.8898 14.588 96.8898 17.288C96.8898 20.024 95.2698 22.364 92.4258 22.364ZM116.77 26H121.342V8.612H116.77V20.384C115.978 21.392 114.574 22.364 112.81 22.364C110.866 22.364 109.606 21.572 109.606 19.16V8.612H105.034V20.96C105.034 24.344 106.834 26.432 110.65 26.432C113.494 26.432 115.582 25.136 116.77 23.804V26ZM124.765 17.288C124.765 22.652 128.617 26.432 133.981 26.432C137.545 26.432 139.705 24.884 140.857 23.264L137.869 20.492C137.041 21.644 135.781 22.364 134.197 22.364C131.425 22.364 129.481 20.312 129.481 17.288C129.481 14.264 131.425 12.248 134.197 12.248C135.781 12.248 137.041 12.896 137.869 14.12L140.857 11.312C139.705 9.728 137.545 8.18 133.981 8.18C128.617 8.18 124.765 11.96 124.765 17.288ZM155.618 26H160.19V13.652C160.19 10.268 158.354 8.18 154.538 8.18C151.694 8.18 149.534 9.548 148.418 10.88V1.988H143.846V26H148.418V14.3C149.21 13.256 150.614 12.248 152.378 12.248C154.358 12.248 155.618 13.004 155.618 15.416V26Z" fill="white"/>
</svg>
