<svg width="31" height="26" viewBox="0 0 31 26" fill="none" xmlns="http://www.w3.org/2000/svg">
<path d="M12.04 25H16.612V12.652C16.612 9.268 14.776 7.18 10.96 7.18C8.116 7.18 5.956 8.548 4.84 9.88V0.987998H0.268V25H4.84V13.3C5.632 12.256 7.036 11.248 8.8 11.248C10.78 11.248 12.04 12.004 12.04 14.416V25ZM26.9828 25.432C28.8908 25.432 30.1148 24.928 30.7988 24.316L29.8268 20.86C29.5748 21.112 28.9268 21.364 28.2428 21.364C27.2348 21.364 26.6588 20.536 26.6588 19.456V11.608H30.1868V7.612H26.6588V2.86H22.0508V7.612H19.1708V11.608H22.0508V20.68C22.0508 23.776 23.7788 25.432 26.9828 25.432Z" fill="#0D0526"/>
</svg>
