<svg fill="none" height="50" viewBox="0 0 108 50" width="108" xmlns="http://www.w3.org/2000/svg"><path d="m105.535 27.1296c-.523 0-.978.2678-1.413.5317 0 0-.762.4437-1.088.6316-1.816 1.0354-3.7012 1.663-5.719 1.4991-1.1358-.092-2.1951-.3678-3.0973-1.0074-.149-.1079-.29-.2279-.4471-.3558.0766-.036.1168-.056.1571-.076 2.5092-1.0833 4.813-2.5544 6.9883-4.2494 1.357-1.0594 2.541-2.3427 3.399-3.8258 1.003-1.731 1.522-3.5419 1.273-5.4448-.254-1.9148-1.233-3.294-3.053-3.9816-1.317-.4957-2.7229-.4557-4.1567-.1519-2.2918.4877-4.2613 1.659-5.9086 3.378-3.1456 3.2821-4.4707 7.0758-4.1686 11.2853.0282.4038.0926.8035.1369 1.1753-1.9332.9555-3.8424 1.8989-5.7555 2.8343-.0604.032-.1369.032-.1933 0-.3464-.1878-.6646-.4277-1.0271-.5876-1.458-.6516-3.0529-.7316-4.6962-.5757-.3021.028-.6001.072-.9384.116.0765-.1.1248-.1639.1772-.2279 1.8446-2.2906 9.7227-11.893 11.7204-14.3915 0-.008.0041-.016.0081-.02.0604-.0839.1007-.1759.149-.2678.0201-.036.0443-.072.0644-.1119.0323-.072.0605-.144.0846-.2159.0363-.104.0604-.2119.0806-.3198.004-.036.0241-.068.0282-.108 0-.012 0-.028 0-.0399 0-.032 0-.068 0-.1 0-.0919.004-.1839-.0041-.2718-.008-.088-.0322-.1759-.0523-.2679-.004-.02-.0081-.0439-.0121-.0639-.008-.032-.0121-.064-.0201-.096-.3424-1.0434-1.4742-1.615-2.5254-1.2752-.0483.016-4.9943 1.5711-11.2975.6476-1.0955-.1679-2.1145.5917-2.2797 1.679-.1611 1.0874.5961 2.0988 1.6916 2.2627 1.6675.2438 3.2423.3398 4.6923.3398 1.4499 0 2.626-.088 3.7215-.2119-1.6513 2.0108-7.7089 9.2465-9.7308 11.7011-.4028.4917-.8579.9474-1.317 1.3911-.6807.6557-1.4298 1.2153-2.32 1.5351-1.615.5837-3.0408-.0519-3.5282-1.567-.2618-.8236-.2618-1.687-.1128-2.5625.1773-1.0594 2.8838-11.6411 3.1618-12.6365.008-.024.0241-.088.0281-.108 0 0 .0484-.2198.0605-.3558.1127-1.0793-.6767-1.9548-1.7642-1.9548-1.0874 0-1.9131.8395-2.199 1.9548 0 0-.1571.7116-.2377.9835 0 0-.1007-.2159-.1369-.2879-.6767-1.4111-1.74-2.3986-3.347-2.7144-2.1024-.4117-4.1565.016-6.1341 1.1314-1.8205 1.0274-3.1899 2.5065-4.2894 4.2454-.8982 1.4192-1.5507 2.9343-2.183 4.4614-.6485 1.5631-1.2808 3.1341-1.9937 4.6732-.6283 1.3632-1.4741 2.6065-2.618 3.6499-.439.4037-.9183.7435-1.4942.9114-.6727.1959-1.3614-.0639-1.6594-.6396-.141-.2718-.2336-.5876-.2779-.8995-.1611-1.0473.0443-2.1107.2618-3.1661.3705-1.7749.9545-3.6418 1.7117-5.3248.7451-1.659 1.5587-3.2981 2.3562-4.9371.0443-.088.0765-.1719.1087-.2598.0927-.1999.1531-.4158.1773-.6397.1127-1.0753-.6727-1.9508-1.7601-1.9508-.1611 0-1.1922.1719-1.5507.2398-2.4971.4878-3.061.6597-5.538.5157-.1812-.012-.3585-.0319-.5477-.0479.0161-.088.012-.4038.0161-.4478.1087-1.0354-.6485-1.8709-1.6876-1.8709-1.0392 0-1.889.8315-2.0823 1.8709 0 .016-.0765.3158-.1974.8475-.4551 1.9749-.9827 3.9377-1.6916 5.8646-.8176 2.2266-1.9614 4.5053-3.4356 6.4521-.6726.8915-1.6553 1.711-2.5575 2.3906-.0886.064-.1853.12-.3263.2079.0443-.0879.0564-.1159.0685-.1399 1.2687-2.2067 2.0702-4.5014 2.3481-6.8879.0766-.5757.1329-1.1514.1491-1.739.0402-1.5471-.1732-3.0302-.7814-4.3894-1.2003-2.6744-3.2987-4.1775-6.4241-4.2695-1.5466-.048-3.1456.3078-4.5674 1.0754-.0725.04-.145.0719-.2255.1119 0-.032-.004-.04 0-.048 0 0 1.2929-4.80911 1.9413-9.56629.1329-1.095355-.6364-2.0188081-1.7399-2.06677966-.9707-.03997634-1.8125.65960966-1.9373 1.61503966-.8297 6.35624-2.74688 14.17563-4.72445 19.68433-1.05928 2.9503-3.03685 5.4168-5.83606 7.1278-.10875.068-.25777.1479-.42291.2279-.873997.4357-1.288845 1.4511-.946495 2.3626.39471 1.0553 1.623145 1.5431 2.638105 1.0473 1.65939-.8075 3.16573-1.8828 4.47875-3.29.04833-.052.10069-.1039.1611-.1679.0282.0719.04834.1319.06847.1879.49138 1.3592 1.33315 2.5705 2.51325 3.398 1.44994 1.0194 3.15764 1.4271 5.01044 1.4751.0845 0 .157-.012.2376-.016l-.0121.016c1.454.036 2.916-.1199 4.37-.4637 4.4183-1.0474 8.2849-3.454 10.7941-7.3877 1.6755-2.6224 2.8314-5.5247 3.6813-8.423.1288-.4397.2456-.8794.3786-1.3432 4.7486.3278 5.1997-.1879 5.1674-.1159-.2295.4957-.4591 1.0754-.6726 1.5791-1.1962 2.8503-2.2756 5.8565-2.7267 8.8587-.2094 1.3992-.2537 2.7824.0926 4.1136.3907 1.4991 1.2647 2.5665 2.8154 2.9782 1.9211.5117 3.7618.1439 5.4856-1.1553 1.1318-.8555 2.0219-1.9229 2.8113-3.0782.0765-.1119.1571-.2278.2578-.3718.0805.2159.1087.2919.1933.4997.3907.9555.9425 1.843 1.6957 2.5465 1.8406 1.715 4.1081 2.2027 6.7825 1.4152 1.6755-.4917 3.0409-1.5431 4.229-2.8383.1974-.2159.3867-.4398.6001-.6836.0564.2239.1007.4157.1531.5996.3262 1.1314.9143 2.0588 1.9937 2.5945 1.5104.7476 3.1496.9035 4.8815.4237 1.0834-.2998 2.1427-.7355 3.202-1.1313 1.9333-.7236 3.8867-1.1113 5.8803-1.0274.4511.02.8861.1 1.3211.2679-.1087.0639-.1933.1119-.2739.1599-1.321.8235-2.6622 1.619-3.9591 2.4745-1.7964 1.1873-3.3672 2.6225-4.5553 4.4294-1.2405 1.8789-1.9655 3.8737-1.8648 6.0244.0966 2.0428.9747 3.6179 2.6945 4.6333 1.454.8555 3.0932.9434 4.813.4517 2.9442-.8435 5.2883-2.5825 7.0283-5.1489 1.0794-1.5911 1.7721-3.3181 2.187-5.129.4632-2.0228.5518-4.0136.1168-5.9605-.0766-.3438-.1772-.6796-.2739-1.0514 2.0581-1.1753 5.1876-2.4225 5.1876-2.4225.0645.0919.1087.1559.1531.2198.7692 1.1274 1.8285 2.0268 3.0932 2.5905 1.9494.8675 4.0679 1.0314 6.2751.7596 2.4449-.3039 4.7199-1.2033 6.8309-2.6385 0 0 1.18-.8155 1.281-1.7989.117-1.1034-.689-1.9988-1.801-1.9988zm-83.6337-6.4042c-.431 2.9662-1.5305 5.4008-3.6531 7.4396-.6968.6636-1.4781 1.1793-2.3843 1.4511-1.4862.4437-2.7308.1599-3.7417-.8115-.8337-.8035-1.2687-1.8389-1.4016-3.0102-.3666-3.3021.584-6.3603 2.9361-9.1186.588-.6916 1.2808-1.2673 2.0783-1.699 1.9453-1.0474 4.2169-.5757 5.2842 1.0833.572.8915.8297 1.9149.8861 3.0102.0322.6277 0 1.2673-.008 1.6591zm37.6665 6.2283c-.7169.9234-1.5707 1.703-2.6099 2.2586-2.05 1.0954-4.0518.6157-5.0869-1.2272-.5276-.9395-.7451-1.9869-.7652-3.0942-.0041-.3078.008-.6196.0201-.8915.0161-.3238.0443-.6476.1047-.9674.4551-2.5185 1.4218-4.7012 3.1859-6.5841.7894-.8395 1.6997-1.5191 2.7871-1.8869 1.7883-.5996 3.3712-.012 4.2693 1.5591.5236.9234.7653 1.9548.7733 3.0502.0161 2.8103-.8337 5.4208-2.6784 7.7874zm17.9996 17.7135c-.2014.2039-.4189.3997-.6525.5676-2.6461 1.9229-5.0466.7196-4.954-1.7469.0443-1.1154.4954-2.1188 1.1479-3.0742.9344-1.3712 2.1548-2.4625 3.5081-3.422 1.4016-.9954 4.4143-2.7024 4.4586-2.7224.1933.6117.286 1.2393.2698 1.8869-.0684 3.2301-1.3371 6.0684-3.7739 8.511zm14.8781-19.5604c-.0604.0279-.1168.0519-.2215.0999-.0121-.4717-.0564-.9234-.0362-1.3752.1087-2.6184 1.023-5.037 2.7871-7.2037.2135-.2599.4551-.4997.7129-.7156 1.4701-1.2073 3.1134-2.0868 4.5872-1.5791.87.2999 1.37 1.1234 1.317 2.1228-.056 1.0674-.543 1.9948-1.212 2.8623-.9304 1.2033-2.0904 2.1707-3.3188 3.0542-1.4661 1.0514-3.0086 1.9508-4.6197 2.7344z" fill="#fff"/></svg>