<?xml version="1.0"?>
<svg xmlns="http://www.w3.org/2000/svg" xmlns:xlink="http://www.w3.org/1999/xlink" xmlns:svgjs="http://svgjs.com/svgjs" version="1.1" width="512" height="512" x="0" y="0" viewBox="0 0 512 512" style="enable-background:new 0 0 512 512" xml:space="preserve" class=""><g><path xmlns="http://www.w3.org/2000/svg" d="m361 0h-346c-8.289062 0-15 6.710938-15 15v105h361zm-285 75c-8.285156 0-15-6.714844-15-15s6.714844-15 15-15 15 6.714844 15 15-6.714844 15-15 15zm60 0c-8.285156 0-15-6.714844-15-15s6.714844-15 15-15 15 6.714844 15 15-6.714844 15-15 15zm60 0c-8.285156 0-15-6.714844-15-15s6.714844-15 15-15 15 6.714844 15 15-6.714844 15-15 15zm0 0" fill="#73d4e5" data-original="#000000" style="" class=""/><path xmlns="http://www.w3.org/2000/svg" d="m497 0h-106v120h121v-105c0-8.289062-6.710938-15-15-15zm0 0" fill="#73d4e5" data-original="#000000" style="" class=""/><path xmlns="http://www.w3.org/2000/svg" d="m332.199219 301c0-8.277344-6.722657-15-15-15h-46.199219v30h46.199219c8.277343 0 15-6.722656 15-15zm0 0" fill="#73d4e5" data-original="#000000" style="" class=""/><path xmlns="http://www.w3.org/2000/svg" d="m151 286c-16.539062 0-30 13.460938-30 30h60c0-16.539062-13.460938-30-30-30zm0 0" fill="#73d4e5" data-original="#000000" style="" class=""/><path xmlns="http://www.w3.org/2000/svg" d="m0 497c0 8.289062 6.710938 15 15 15h482c8.289062 0 15-6.710938 15-15v-347h-512zm391-226c0-8.289062 6.710938-15 15-15s15 6.710938 15 15v120c0 8.289062-6.710938 15-15 15s-15-6.710938-15-15zm-150 0c0-8.289062 6.710938-15 15-15 .210938 0 .390625.113281.601562.121094.210938-.007813.386719-.121094.601563-.121094h60c24.8125 0 45 20.1875 45 45s-20.1875 45-45 45h-46.203125v45c0 8.289062-6.710938 15-15 15s-15-6.710938-15-15zm-150 45c0-33.089844 26.910156-60 60-60s60 26.910156 60 60v75c0 8.289062-6.710938 15-15 15s-15-6.710938-15-15v-45h-60v45c0 8.289062-6.710938 15-15 15s-15-6.710938-15-15zm0 0" fill="#73d4e5" data-original="#000000" style="" class=""/></g></svg>
