<?xml version="1.0"?>
<svg xmlns="http://www.w3.org/2000/svg" xmlns:xlink="http://www.w3.org/1999/xlink" xmlns:svgjs="http://svgjs.com/svgjs" version="1.1" width="512" height="512" x="0" y="0" viewBox="0 0 338.352 338.352" style="enable-background:new 0 0 512 512" xml:space="preserve" class=""><g>
<g xmlns="http://www.w3.org/2000/svg">
	<g>
		<path d="M169.176,0C75.601,0,0,75.514,0,169.176s75.514,169.176,169.176,169.176s169.176-75.514,169.176-169.176    S262.752,0,169.176,0z M169.176,315.731c-81.191,0-146.556-65.365-146.556-146.556S87.986,22.619,169.176,22.619    s146.556,65.365,146.556,146.556S250.367,315.731,169.176,315.731z" fill="#73d4e5" data-original="#000000" style="" class=""/>
	</g>
</g>
<g xmlns="http://www.w3.org/2000/svg">
	<g>
		<path d="M231.187,162.382l-74.396-74.396c-4.472-4.472-11.267-4.472-15.825,0c-4.472,4.472-4.472,11.267,0,15.826l65.365,65.365    l-65.365,65.365c-4.472,4.472-4.472,11.267,0,15.825c2.236,2.236,4.472,3.354,7.913,3.354c2.236,0,5.677-1.118,9.03-2.236    l73.278-73.278c2.236-2.236,3.355-4.472,3.355-7.913C234.542,166.94,233.424,164.618,231.187,162.382z" fill="#73d4e5" data-original="#000000" style="" class=""/>
	</g>
</g>
<g xmlns="http://www.w3.org/2000/svg">
</g>
<g xmlns="http://www.w3.org/2000/svg">
</g>
<g xmlns="http://www.w3.org/2000/svg">
</g>
<g xmlns="http://www.w3.org/2000/svg">
</g>
<g xmlns="http://www.w3.org/2000/svg">
</g>
<g xmlns="http://www.w3.org/2000/svg">
</g>
<g xmlns="http://www.w3.org/2000/svg">
</g>
<g xmlns="http://www.w3.org/2000/svg">
</g>
<g xmlns="http://www.w3.org/2000/svg">
</g>
<g xmlns="http://www.w3.org/2000/svg">
</g>
<g xmlns="http://www.w3.org/2000/svg">
</g>
<g xmlns="http://www.w3.org/2000/svg">
</g>
<g xmlns="http://www.w3.org/2000/svg">
</g>
<g xmlns="http://www.w3.org/2000/svg">
</g>
<g xmlns="http://www.w3.org/2000/svg">
</g>
</g></svg>
