<svg enable-background="new 0 0 512 512" height="512" viewBox="0 0 338.352 338.352" width="512" xmlns="http://www.w3.org/2000/svg"><g fill="#73d4e5"><path d="m169.176 0c-93.575 0-169.176 75.514-169.176 169.176s75.514 169.176 169.176 169.176 169.176-75.514 169.176-169.176-75.6-169.176-169.176-169.176zm0 315.731c-81.191 0-146.556-65.365-146.556-146.556s65.366-146.556 146.556-146.556 146.556 65.365 146.556 146.556-65.365 146.556-146.556 146.556z" xmlns="http://www.w3.org/2000/svg"/><path d="m231.187 162.382-74.396-74.396c-4.472-4.472-11.267-4.472-15.825 0-4.472 4.472-4.472 11.267 0 15.826l65.365 65.365-65.365 65.365c-4.472 4.472-4.472 11.267 0 15.825 2.236 2.236 4.472 3.354 7.913 3.354 2.236 0 5.677-1.118 9.03-2.236l73.278-73.278c2.236-2.236 3.355-4.472 3.355-7.913 0-3.354-1.118-5.676-3.355-7.912z" xmlns="http://www.w3.org/2000/svg"/></g></svg>