<?xml version="1.0" encoding="UTF-8" standalone="no"?>
<svg
   enable-background="new 0 0 512 512"
   height="512"
   viewBox="0 0 338.352 338.352"
   width="512"
   version="1.1"
   id="svg52"
   sodipodi:docname="right-arrow.svg"
   inkscape:export-filename="right-arrow.svg"
   inkscape:export-xdpi="96"
   inkscape:export-ydpi="96"
   inkscape:version="1.2.1 (9c6d41e4, 2022-07-14)"
   xmlns:inkscape="http://www.inkscape.org/namespaces/inkscape"
   xmlns:sodipodi="http://sodipodi.sourceforge.net/DTD/sodipodi-0.dtd"
   xmlns="http://www.w3.org/2000/svg"
   xmlns:svg="http://www.w3.org/2000/svg">
  <defs
     id="defs56" />
  <sodipodi:namedview
     id="namedview54"
     pagecolor="#ffffff"
     bordercolor="#000000"
     borderopacity="0.25"
     inkscape:showpageshadow="2"
     inkscape:pageopacity="0.0"
     inkscape:pagecheckerboard="0"
     inkscape:deskcolor="#d1d1d1"
     showgrid="false"
     inkscape:zoom="1.1188815"
     inkscape:cx="176.06869"
     inkscape:cy="238.18429"
     inkscape:window-width="1309"
     inkscape:window-height="761"
     inkscape:window-x="0"
     inkscape:window-y="25"
     inkscape:window-maximized="0"
     inkscape:current-layer="svg52" />
  <g
     fill="#73d4e5"
     id="g50"
     style="display:inline">
    <path
       d="M 169.176,0 C 75.601,0 0,75.514 0,169.176 c 0,93.662 75.514,169.176 169.176,169.176 93.662,0 169.176,-75.514 169.176,-169.176 C 338.352,75.514 262.752,0 169.176,0 Z m 0,315.731 C 87.985,315.731 22.62,250.366 22.62,169.175 22.62,87.984 87.986,22.619 169.176,22.619 c 81.19,0 146.556,65.365 146.556,146.556 0,81.191 -65.365,146.556 -146.556,146.556 z"
       id="path46"
       style="fill:#f8b2b0;fill-opacity:1" />
    <path
       d="M 231.187,162.382 156.791,87.986 c -4.472,-4.472 -11.267,-4.472 -15.825,0 -4.472,4.472 -4.472,11.267 0,15.826 l 65.365,65.365 -65.365,65.365 c -4.472,4.472 -4.472,11.267 0,15.825 2.236,2.236 4.472,3.354 7.913,3.354 2.236,0 5.677,-1.118 9.03,-2.236 l 73.278,-73.278 c 2.236,-2.236 3.355,-4.472 3.355,-7.913 0,-3.354 -1.118,-5.676 -3.355,-7.912 z"
       id="path48"
       style="fill:#f8b2b0;fill-opacity:1" />
  </g>
  <path
     style="display:inline;fill:#000000;stroke-width:2.16949"
     d=""
     id="path283"
     transform="scale(0.66084375)" />
  <g
     inkscape:groupmode="layer"
     id="layer1"
     inkscape:label="Layer 1"
     style="display:inline" />
  <path
     style="fill:#f8b2b0;fill-opacity:1;stroke-width:0.89375"
     d="M 239.07804,511.07479 C 202.33449,508.02815 174.09402,500.35922 142.55307,484.86264 72.327031,450.35945 21.730347,384.97724 5.7801768,308.12154 -0.82335367,276.30251 -0.9669363,237.33123 5.4028433,205.70545 18.885457,138.76463 57.961545,80.763761 115.29371,42.593775 128.29575,33.937418 152.50878,21.695054 167.57807,16.158252 216.13297,-1.6819369 269.05468,-4.3563954 319.51551,8.4799207 412.19003,32.054629 484.56905,106.60891 505.2969,199.84473 c 4.73654,21.30542 5.48104,28.94118 5.48104,56.21455 0,20.12155 -0.3378,27.63078 -1.60822,35.74999 -8.75054,55.92473 -31.67551,102.66757 -69.41509,141.53372 -34.15184,35.17134 -74.20019,58.50396 -120.68599,70.31304 -25.21592,6.40575 -56.83757,9.33851 -79.9906,7.41876 z m 44.68748,-34.80549 c 29.46276,-3.61341 58.35826,-13.23336 83.45216,-27.78307 59.15383,-34.29803 98.28292,-92.22018 108.86138,-161.14571 2.2104,-14.40225 2.20921,-48.17383 -0.002,-62.56247 -6.01915,-39.16202 -19.9397,-72.52897 -43.06657,-103.22809 C 404.30968,83.45186 361.95265,54.629244 316.27265,42.113571 260.77327,26.907527 202.60407,33.043377 152.23253,59.41698 131.96307,70.029689 115.48891,82.303734 98.312465,99.590036 80.406532,117.61048 68.356751,134.43124 56.864265,157.44921 14.826797,241.64482 31.539452,345.45297 97.857967,412.07542 c 12.328393,12.3849 20.489713,19.17212 34.135813,28.38846 44.20743,29.85696 97.58907,42.45055 151.77174,35.80542 z"
     id="path1908"
     transform="scale(0.66084375)" />
  <path
     style="fill:#ff9997;fill-opacity:1;stroke-width:0.89375"
     d="M 234.16242,510.75203 C 147.91111,502.57492 74.147167,454.7308 32.333633,379.84362 -13.486619,297.78048 -9.5664266,194.71804 42.379336,115.74058 66.867541,78.509134 99.830964,48.872037 138.97808,28.889588 174.56809,10.722842 208.30398,2.0078657 248.01554,0.72199146 306.43448,-1.1696344 363.26906,16.767991 409.62012,51.726186 c 48.82318,36.822687 82.40535,88.856244 95.75108,148.360554 4.69602,20.93804 5.40952,28.49317 5.37039,56.86629 -0.0392,28.46626 -0.88159,36.32738 -6.36843,59.43436 -17.20527,72.45721 -67.66022,135.55147 -134.68183,168.42053 -26.75311,13.12039 -51.39088,20.68606 -80.15763,24.61452 -12.36846,1.68906 -43.6553,2.44033 -55.37128,1.32959 z m 58.87274,-35.68492 C 351.33991,464.68056 400.82688,434.15642 435.30616,387.3127 483.80553,321.42125 491.61257,232.15203 455.3499,158.12388 437.73006,122.154 411.95753,92.856302 378.21422,70.437567 325.85499,35.6506 259.71543,25.089866 197.66469,41.608596 169.16741,49.194951 139.16273,64.552431 115.64678,83.588334 104.70847,92.442773 87.935459,109.8086 79.395027,121.12134 c -20.41829,27.04629 -34.459862,57.79583 -40.874181,89.51008 -3.528971,17.44825 -4.112333,24.11965 -4.050467,46.32161 0.05096,18.28757 0.385566,23.79771 2.029987,33.42881 8.419847,49.31363 29.686233,90.47893 64.406684,124.6719 33.85269,33.33839 77.08428,54.30807 126.33439,61.27907 14.29487,2.02334 51.33017,1.31088 65.79372,-1.2657 z"
     id="path3524"
     transform="scale(0.66084375)" />
  <path
     style="fill:#ff9997;fill-opacity:1;stroke-width:0.89375"
     d="m 220.75617,382.82051 c -3.53972,-0.99518 -8.42041,-5.27251 -10.4575,-9.16474 -1.64097,-3.13538 -1.78925,-10.14242 -0.27758,-13.11727 0.59945,-1.17968 24.07196,-25.1701 52.16113,-53.31205 l 51.07122,-51.16717 -51.07122,-51.16716 c -28.08917,-28.14195 -51.56168,-52.13237 -52.16113,-53.31205 -0.59945,-1.17967 -1.08991,-4.08156 -1.08991,-6.44863 0,-6.33224 3.36583,-11.59734 9.30627,-14.55758 5.17407,-2.57835 6.7006,-2.75077 11.90309,-1.34439 3.0668,0.82903 11.8715,9.24547 61.9372,59.20593 32.0992,32.03173 59.10292,59.44607 60.00825,60.92076 2.39423,3.89992 2.97964,7.81538 1.82623,12.21427 -0.91206,3.47839 -6.86128,9.72673 -58.36125,61.29554 -50.63741,50.70509 -57.81737,57.57058 -61.37804,58.68972 -5.97416,1.87773 -9.9152,2.24926 -13.41676,1.26482 z"
     id="path4492"
     transform="scale(0.66084375)" />
</svg>
