<?xml version="1.0" encoding="UTF-8" standalone="no"?>
<svg
   enable-background="new 0 0 512 512"
   height="512"
   viewBox="0 0 512 512"
   width="512"
   version="1.1"
   id="svg60"
   sodipodi:docname="users copy.svg"
   inkscape:version="1.2.1 (9c6d41e4, 2022-07-14)"
   xmlns:inkscape="http://www.inkscape.org/namespaces/inkscape"
   xmlns:sodipodi="http://sodipodi.sourceforge.net/DTD/sodipodi-0.dtd"
   xmlns="http://www.w3.org/2000/svg"
   xmlns:svg="http://www.w3.org/2000/svg">
  <defs
     id="defs64" />
  <sodipodi:namedview
     id="namedview62"
     pagecolor="#ffffff"
     bordercolor="#000000"
     borderopacity="0.25"
     inkscape:showpageshadow="2"
     inkscape:pageopacity="0.0"
     inkscape:pagecheckerboard="0"
     inkscape:deskcolor="#d1d1d1"
     showgrid="false"
     inkscape:zoom="0.4609375"
     inkscape:cx="256"
     inkscape:cy="260.33898"
     inkscape:window-width="1309"
     inkscape:window-height="708"
     inkscape:window-x="0"
     inkscape:window-y="25"
     inkscape:window-maximized="0"
     inkscape:current-layer="svg60" />
  <g
     fill="#73d4e5"
     id="g58"
     style="fill:#ffa66b;fill-opacity:1">
    <path
       d="m155.327 57.142c-51.531 0-93.454 44.45-93.454 99.086s41.923 99.086 93.454 99.086 93.455-44.45 93.455-99.086-41.923-99.086-93.455-99.086z"
       id="path50"
       style="fill:#ffa66b;fill-opacity:1" />
    <path
       d="m367.798 71.321c-.211 0-.425.001-.636.002-21.626.179-41.826 9.31-56.878 25.713-14.788 16.113-22.829 37.37-22.644 59.854.186 22.484 8.577 43.605 23.628 59.473 15.17 15.991 35.265 24.773 56.651 24.773.215 0 .43-.001.646-.002 21.626-.179 41.826-9.311 56.878-25.713 14.788-16.113 22.829-37.37 22.644-59.855-.385-46.594-36.34-84.245-80.289-84.245z"
       id="path52"
       style="fill:#ffa66b;fill-opacity:1" />
    <path
       d="m371.74 257.358h-7.76c-36.14 0-69.12 13.74-94.02 36.26 6.23 4.78 12.16 9.99 17.78 15.61 16.58 16.58 29.6 35.9 38.7 57.42 8.2 19.38 12.88 39.8 13.97 60.83h171.59v-29.87c0-77.33-62.92-140.25-140.26-140.25z"
       id="path54"
       style="fill:#ffa66b;fill-opacity:1" />
    <path
       d="m310.35 427.478c-2.83-45.59-25.94-85.69-60.43-111.39-25.09-18.7-56.21-29.77-89.92-29.77h-9.34c-83.21.001-150.66 67.45-150.66 150.66v17.88h310.65v-17.88c0-3.19-.1-6.36-.3-9.5z"
       id="path56"
       style="fill:#ffa66b;fill-opacity:1" />
  </g>
</svg>
