<svg fill="none" height="347" viewBox="0 0 738 347" width="738" xmlns="http://www.w3.org/2000/svg"><path d="m725.545 188.279c-3.599 0-6.728 1.859-9.719 3.69 0 0-5.233 3.08-7.476 4.384-12.488 7.185-25.447 11.541-39.319 10.403-7.809-.638-15.091-2.552-21.294-6.991-1.024-.749-1.993-1.581-3.073-2.469.526-.25.803-.389 1.08-.527 17.25-7.519 33.089-17.728 48.041-29.492 9.332-7.352 17.473-16.257 23.37-26.55 6.895-12.013 10.467-24.581 8.75-37.787-1.744-13.2892-8.473-22.8607-20.988-27.6326-9.055-3.4402-18.719-3.1628-28.576-1.0543-15.756 3.3847-29.296 11.5136-40.621 23.4433-21.626 22.7776-30.735 49.1066-28.659 78.3206.194 2.802.637 5.576.942 8.156-13.291 6.631-26.416 13.178-39.569 19.67-.415.222-.941.222-1.329 0-2.381-1.304-4.569-2.968-7.061-4.078-10.023-4.522-20.989-5.077-32.286-3.995-2.077.194-4.126.499-6.452.805.526-.694.859-1.138 1.219-1.582 12.682-15.897 66.843-82.537 80.577-99.8767 0-.0555.027-.111.055-.1387.415-.5827.692-1.2207 1.025-1.8589.138-.2496.304-.4993.443-.7768.221-.4994.415-.9987.581-1.4981.249-.7214.415-1.4704.554-2.2195.028-.2497.166-.4717.194-.7491 0-.0832 0-.1942 0-.2774 0-.222 0-.4717 0-.6936 0-.6381.027-1.2762-.028-1.8866-.055-.6103-.222-1.2207-.36-1.8588-.028-.1387-.055-.3052-.083-.4439-.055-.2219-.083-.4439-.138-.6658-2.354-7.2411-10.135-11.2084-17.362-8.8502-.332.1109-34.335 10.9032-77.669 4.4944-7.532-1.1652-14.538 4.1061-15.673 11.6523-1.107 7.5463 4.098 14.5654 11.63 15.7024 11.463 1.693 22.29 2.359 32.258 2.359 9.969 0 18.054-.611 25.586-1.471-11.353 13.955-52.998 64.171-66.899 81.206-2.769 3.412-5.898 6.575-9.054 9.654-4.68 4.55-9.83 8.435-15.949 10.654-11.104 4.051-20.906-.361-24.257-10.875-1.799-5.716-1.799-11.708-.775-17.784 1.218-7.352 19.826-80.7894 21.736-87.6975.056-.1665.167-.6104.194-.7491 0 0 .333-1.5259.416-2.4692.775-7.4908-4.652-13.5666-12.128-13.5666-7.477 0-13.153 5.8262-15.119 13.5666 0 0-1.08 4.9384-1.634 6.8249 0 0-.692-1.4981-.941-1.9975-4.652-9.7935-11.962-16.6461-23.01-18.8379-14.454-2.8576-28.576.111-42.172 7.8514-12.515 7.1301-21.93 17.3953-29.489 29.4639-6.175 9.849-10.661 20.364-15.008 30.962-4.458 10.847-8.805 21.751-13.706 32.432-4.32 9.46-10.135 18.089-17.999 25.33-3.018 2.802-6.313 5.16-10.272 6.325-4.625 1.36-9.36-.444-11.409-4.439-.969-1.886-1.606-4.078-1.91-6.242-1.108-7.269.304-14.649 1.8-21.973 2.547-12.318 6.562-25.274 11.768-36.954 5.122-11.514 10.716-22.889 16.198-34.264.305-.61.526-1.193.748-1.803.637-1.3872 1.052-2.8853 1.218-4.439.775-7.463-4.624-13.5388-12.1-13.5388-1.108 0-8.196 1.193-10.661 1.6646-17.167 3.3847-21.044 4.5777-38.073 3.5789-1.246-.0832-2.464-.2219-3.766-.3329.111-.6104.083-2.8021.111-3.1073.748-7.1856-4.458-12.984-11.602-12.984s-12.987 5.7707-14.316 12.984c0 .111-.526 2.1918-1.356 5.8817-3.129 13.7048-6.757 27.3278-11.63 40.6998-5.621 15.453-13.485 31.267-23.619 44.778-4.625 6.187-11.381 11.874-17.583 16.591-.609.444-1.274.832-2.243 1.442.304-.61.387-.804.471-.971 8.722-15.314 14.232-31.239 16.143-47.802.526-3.995.913-7.99 1.024-12.068.277-10.737-1.191-21.03-5.372-30.463-8.251-18.5601-22.678-28.9917-44.165-29.6298-10.633-.3329-21.625 2.1362-31.3998 7.463-.4984.2775-.9968.4994-1.5506.7768 0-.2219-.0277-.2774 0-.3329 0 0 8.8884-33.3755 13.3464-66.3904.914-7.6017-4.375-14.010463-11.9619-14.3433854-6.6732-.2774356-12.4604 4.5776854-13.3188 11.2083854-5.704 44.1123-18.8843 98.3783-32.48 136.6093-7.2823 20.475-20.878 37.593-40.1223 49.467-.74762.472-1.77214 1.026-2.90741 1.581-6.00866 3.024-8.8607 10.071-6.507077 16.397 2.713587 7.324 11.158987 10.709 18.136787 7.269 11.4081-5.605 21.764-13.068 30.7909-22.833.3322-.361.6922-.722 1.1076-1.166.1938.5.3322.916.4707 1.304 3.3781 9.433 9.1653 17.839 17.2783 23.582 9.9683 7.075 21.7087 9.905 34.4462 10.238.581 0 1.08-.084 1.633-.111l-.083.111c9.996.249 20.048-.833 30.044-3.219 30.375-7.268 56.957-23.97 74.208-51.27 11.519-18.199 19.466-38.341 25.308-58.455.886-3.052 1.689-6.104 2.603-9.322 32.646 2.275 35.748-1.304 35.526-.805-1.578 3.44-3.157 7.463-4.624 10.959-8.224 19.781-15.645 40.644-18.746 61.48-1.44 9.71-1.744 19.309.637 28.548 2.686 10.404 8.694 17.811 19.355 20.669 13.208 3.551 25.862.999 37.713-8.018 7.781-5.937 13.901-13.345 19.328-21.363.526-.776 1.08-1.581 1.772-2.58.554 1.498.747 2.025 1.329 3.468 2.686 6.631 6.479 12.79 11.657 17.673 12.654 11.902 28.244 15.286 46.63 9.821 11.519-3.412 20.905-10.709 29.074-19.698 1.357-1.498 2.658-3.052 4.126-4.744.387 1.554.692 2.885 1.052 4.161 2.243 7.852 6.285 14.288 13.706 18.006 10.384 5.188 21.654 6.27 33.56 2.941 7.449-2.081 14.731-5.105 22.013-7.852 13.291-5.021 26.721-7.712 40.427-7.13 3.102.139 6.092.694 9.083 1.859-.748.444-1.33.777-1.883 1.11-9.083 5.715-18.303 11.236-27.219 17.173-12.35 8.24-23.149 18.2-31.317 30.74-8.529 13.04-13.513 26.884-12.821 41.81.665 14.177 6.701 25.108 18.525 32.154 9.996 5.938 21.265 6.548 33.089 3.135 20.241-5.853 36.356-17.922 48.318-35.733 7.421-11.042 12.184-23.027 15.036-35.595 3.184-14.039 3.793-27.855.803-41.366-.526-2.386-1.218-4.716-1.883-7.297 14.149-8.156 35.664-16.812 35.664-16.812.443.638.748 1.082 1.052 1.526 5.289 7.823 12.572 14.066 21.266 17.978 13.402 6.02 27.967 7.157 43.141 5.271 16.807-2.109 32.452-8.351 46.961-18.311 0 0 8.113-5.66 8.806-12.484.803-7.658-4.735-13.872-12.378-13.872zm-574.976-44.445c-2.963 20.586-10.522 37.482-25.114 51.631-4.791 4.605-10.162 8.184-16.393 10.071-10.217 3.079-18.7731 1.109-25.7233-5.632-5.7317-5.577-8.7222-12.762-9.636-20.891-2.5197-22.916 4.015-44.14 20.1858-63.283 4.0427-4.8 8.8055-8.795 14.2875-11.791 13.375-7.2691 28.991-3.9953 36.329 7.518 3.932 6.187 5.704 13.289 6.092 20.891.221 4.356 0 8.795-.055 11.514zm258.954 43.224c-4.929 6.409-10.799 11.819-17.943 15.676-14.094 7.601-27.856 4.272-34.972-8.518-3.627-6.519-5.122-13.788-5.261-21.473-.028-2.136.056-4.3.139-6.187.11-2.247.304-4.494.72-6.714 3.128-17.478 9.774-32.626 21.902-45.694 5.427-5.826 11.685-10.542 19.161-13.095 12.295-4.1611 23.177-.083 29.351 10.82 3.6 6.409 5.261 13.567 5.317 21.169.11 19.503-5.732 37.62-18.414 54.044zm123.745 122.932c-1.384 1.415-2.879 2.775-4.485 3.94-18.193 13.345-34.696 4.994-34.059-12.124.305-7.741 3.406-14.704 7.892-21.335 6.424-9.516 14.814-17.09 24.118-23.748 9.636-6.909 30.347-18.755 30.652-18.894 1.329 4.245 1.966 8.601 1.855 13.095-.471 22.417-9.193 42.115-25.945 59.066zm102.286-135.749c-.415.194-.803.361-1.523.694-.083-3.274-.388-6.409-.249-9.544.747-18.172 7.033-34.957 19.161-49.994 1.468-1.803 3.129-3.468 4.901-4.966 10.107-8.379 21.404-14.4824 31.539-10.959 5.981 2.081 9.414 7.796 9.054 14.732-.387 7.407-3.738 13.844-8.334 19.864-6.397 8.351-14.371 15.065-22.817 21.196-10.079 7.297-20.684 13.539-31.76 18.977z" fill="#000"/></svg>