<svg enable-background="new 0 0 657.2 303.4" viewBox="0 0 657.2 303.4" xmlns="http://www.w3.org/2000/svg"><path d="m656.3 179.9s-6.5-9.1-8.5-11.7c-1.4-1.7-3.1-3.7-7.5-.7-9.9 6.6-21 12.7-34.7 12.7-10.5 0-19.6-2.7-26.4-8.5 2.9-1.3 5.9-2.7 8.9-4.4 16.2-8.7 29.7-19.9 36.2-26.4 31.5-31.5 21.7-78.5-16.8-78.5-36.3 0-64.9 35.3-64.9 74.6 0 5.9.7 14.4 3.2 23.3-2.1 1-16.5 8-33.7 17.5-16.2-12.1-41.4-6.7-41.4-6.7 23.4-33.3 58.7-85.2 61.7-89.5 2.2-3.1 1.8-6.1-.3-10.9-2.7-5.8-5.4-6.8-9-6.8h-73.3c-2.4 0-4.3 1.1-5 3.8s-2.2 12-2.5 15.1c-.3 3.2 2.7 5.2 5.8 5.2h53.1l-48 68.7c-.3.3-.6.6-.9 1-7 10.1-17.7 24.2-30.5 24.2-8 0-17.9-5.7-17.9-24.4 0-18.3 7.4-57 12.8-87.2.6-3.2-.5-6.4-5.7-6.4h-13c-3 0-4.7 1.8-5.1 4.4-.8 4.6-1.6 9.1-2.3 13.5-6.4-12.3-16.7-19.3-31.5-19.3-13.8 0-27.2 5.1-38.2 16.1-27.4 27.4-22.2 72.1-45.9 95.8-10.2 10.2-21.7 7.1-21.7-13 0-22.9 8.8-48.5 18.8-72.7 1.8-4.3-.1-7.9-2-10.6-2.7-3.9-3.7-5.9-8.5-5.9-7.5 0-19.4 4.7-43.3 4.7-5.1 0-9.9-.2-14.3-.5.3-3.6.3-6 .4-6.9.2-3.4-1-5.5-4.6-5.5h-12.2c-4.4 0-5.5 2.1-6 5.6-2.1 14.6-6 68.3-33 95.2-3.1 3.1-5 4.1-5 4.1 6.7-13.1 10.3-30.3 10.3-44 0-38.4-22.7-62.2-51.3-62.2-8.7 0-17.9 2.8-26.6 8.2 4-23.4 7.7-45.3 9-52.7 1.1-6.3-1.1-9.5-2.8-12.1-2.7-4.2-5.1-6.1-8.7-6.1h-42.2c-2.4 0-4.2 1.7-4.8 4.4-.7 3.1-2.2 11.3-2.4 15.1-.2 3.3 2.1 4.6 4.8 4.6h30.8c-4.9 30.2-14.3 88.7-17.1 103.4-3.6 18.7-16.9 41.6-39.3 49.8-2.8 1-3.9 3.6-2.9 6.6s4.9 10.8 6.1 12.8c1.2 2.1 3.8 3.4 6.2 2.6 11.6-4.1 22.3-10.7 30.7-19.1 2.1-2.1 4.1-4.4 6-6.9 10 22.6 30.6 30.8 51.5 30.8 23.7 0 49.3-8.3 67.3-26.2 21-21 29.7-55.6 33.5-80.2 5.2.7 11.1 1.3 16.8 1.3 14.4 0 26.5-3.1 26.5-3.1s-14.5 38.6-14.5 67c0 32.1 15.4 41.2 32.3 41.2 17.5 0 29.8-13.1 38.5-29.4 2.3 5.1 5.7 11.1 10.3 15.7 7.9 7.9 17.7 13.7 31.9 13.7 16.2 0 30.1-9.3 40-23.7 1.8 6.1 4.5 11.1 8.2 14.8 5 5 14.2 8.9 25.6 8.9 19.7 0 31.2-14.8 61.9-14.8 3.9 0 7.4.6 10.6 1.7-14.1 8.6-27.5 17.8-35.7 26-25.3 25.3-26.5 58.7-9.9 75.3 20.2 20.2 48.8 10 66.8-7.9 21-21 27.1-60.7 15-87.8 14.7-7.7 27-13.4 29.9-14.8 9.2 12.5 24.4 22.3 49.4 22.3 17.9 0 36-6.3 50.1-17 2-1.9 2.5-5 .9-7.2zm-543.1-8.6c-5.7 5.7-12.7 8.8-19.8 8.8-6.6 0-12.3-3-17.1-7.8-16.2-16.2-14.8-56.1 6.1-77 5.9-5.9 13.1-9.3 20.4-9.3 6.6 0 12.3 2.9 17.1 7.7 15.2 15.3 16.1 54.8-6.7 77.6zm231.7 8.7c-17.5 0-28.9-21.1-25.4-47.1s20.5-47.1 38-47.1c16.2 0 27.2 18.1 26 41.4-.5 3.4-.9 6.6-1.2 9.8-4.7 24.1-20.8 43-37.4 43zm145.7 91.6c-22.9 22.9-52.1-6.3-18-40.4 7.7-7.7 20.4-16.2 33.6-24 7.5 18.6 1.6 47.2-15.6 64.4zm91.9-175.8c17.2-17.2 36.3-12.1 36.3 4.6 0 16.3-19.5 33.9-43.1 47.5-2.3 1.3-5 2.8-7.7 4.2-.9-4.1-1.4-8.6-1.4-13.7-.1-14 5.8-32.5 15.9-42.6z"/></svg>