<svg id="Layer_1" data-name="Layer 1" xmlns="http://www.w3.org/2000/svg" width="11.21in" height="2.35in" viewBox="0 0 807.13 168.96"><title>mParticle_Logo_Black</title><polygon points="135.2 126.72 135.2 168.96 202.8 126.72 202.8 84.49 135.2 126.72"/><polygon points="67.6 126.72 67.6 168.96 135.2 126.72 135.2 84.49 67.6 126.72"/><polygon points="0 126.72 0 168.96 67.6 126.72 67.6 84.49 0 126.72"/><polygon points="202.8 0 135.2 42.24 135.2 84.48 202.8 42.24 202.8 0"/><polygon points="135.2 0 67.6 42.24 67.6 84.48 135.2 42.24 135.2 0"/><polygon points="67.6 0 0 42.24 0 84.48 67.6 42.24 67.6 0"/><path d="M551.66,399.19v40H534.37V400.52c0-7.84-3.72-11.7-10.9-11.7q-8,0-14,6.78v43.61H492.22V400.52c0-7.84-3.59-11.7-10.77-11.7-5.45,0-10.1,2.39-14.09,7.18v43.21H449.94V375.39h16.22v6a31.16,31.16,0,0,1,20.34-7.18c8.78,0,15.16,2.93,18.88,8.78q10.57-8.78,23.14-8.78C543.55,374.19,551.66,383,551.66,399.19Z" transform="translate(-208.39 -312.17)"/><path d="M627.65,389.88a34.93,34.93,0,0,1-5.45,41.62,32.55,32.55,0,0,1-22.34,9.18,24.5,24.5,0,0,1-16.49-5.86V469H566V375.39h16.89v4.92a26.26,26.26,0,0,1,17-6.12A31.9,31.9,0,0,1,627.65,389.88Zm-12.9,17.29c0-11.3-8-18.35-17-18.35a19.06,19.06,0,0,0-14.62,6.51v24.34a18.48,18.48,0,0,0,14,6.25C606.91,425.92,614.75,418.87,614.75,407.17Z" transform="translate(-208.39 -312.17)"/><path d="M705.31,439.21H689l0-5.45a24.16,24.16,0,0,1-17.55,6.92,31.48,31.48,0,0,1-27.66-16,32.55,32.55,0,0,1-4.52-17.29c0-12.89,6.65-23.66,16.49-29.12a31.62,31.62,0,0,1,15.82-4.12,24.23,24.23,0,0,1,17.29,6.65v-5.45h16.48ZM688.16,419.8V395.07a18.86,18.86,0,0,0-14.23-6.25c-9.31,0-17.28,7.18-17.28,18.61s7.84,18.49,17.15,18.49A18.42,18.42,0,0,0,688.16,419.8Z" transform="translate(-208.39 -312.17)"/><path d="M736.43,375.39v5.85c5.18-5.19,10.9-7.05,20.74-7.05v16.49a16.36,16.36,0,0,0-4.79-.53,19.66,19.66,0,0,0-14.76,7.31v41.75H720.21V375.39Z" transform="translate(-208.39 -312.17)"/><path d="M809.66,375.39v14.36H795.3v49.46H778V389.75H764.59V375.39H778V354.12H795.3v21.27Z" transform="translate(-208.39 -312.17)"/><path d="M819.46,349.33h18.22v17.55H819.46Zm17.82,89.88V375.39H819.86v63.82Z" transform="translate(-208.39 -312.17)"/><path d="M910.5,426.31c-6.11,8.78-16.48,14.23-28.32,14.23-12.5,0-23.53-5.85-29.65-16a33.44,33.44,0,0,1,12.37-46.14,35.65,35.65,0,0,1,17.15-4.26c12.63,0,22.07,4.79,28.32,14.5l-13.3,8.24c-3.72-5.32-8.64-8-14.89-8-10.1,0-16.88,7.85-16.88,18.75s6.51,18.08,16.75,18.08a18.87,18.87,0,0,0,15.69-7.84Z" transform="translate(-208.39 -312.17)"/><path d="M939.21,439.21H921.93v-95.6h17.28Z" transform="translate(-208.39 -312.17)"/><path d="M999.05,418.28a20.1,20.1,0,0,1-16,7.35c-9,0-15.42-4.92-16.75-14.22h49.06a19.14,19.14,0,0,0,.13-2.66c0-21.14-13.16-34.71-32.44-34.71a34,34,0,0,0-17.68,4.52c-10.38,6-16.09,16.49-16.09,28.86a33.32,33.32,0,0,0,9.17,23.27c5.72,6,14.63,9.7,24.6,9.7,11.7,0,21.81-5.05,28.19-14.09h0Zm-15.57-30c8.11,0,13.16,3.86,15.29,11.7H967C969.38,392.39,975.1,388.27,983.48,388.27Z" transform="translate(-208.39 -312.17)"/></svg>