<svg width="123" height="123" viewBox="0 0 123 123" fill="none" xmlns="http://www.w3.org/2000/svg">
<g clip-path="url(#clip0_851_41288)">
<path d="M61.44 6.04868e-05C75.6599 -0.0040042 89.4413 4.92291 100.436 13.9412C111.43 22.9595 118.957 35.5112 121.734 49.4573C124.511 63.4034 122.366 77.881 115.665 90.423C108.964 102.965 98.1214 112.795 84.9846 118.239C71.8478 123.682 57.23 124.402 43.622 120.275C30.014 116.149 18.258 107.431 10.3572 95.608C2.45643 83.785 -1.10016 69.5881 0.293473 55.4366C1.68711 41.2851 7.94474 28.0548 18 18.0001C23.6968 12.2843 30.4675 7.75151 37.9226 4.66235C45.3778 1.5732 53.3702 -0.0112838 61.44 6.04868e-05ZM61.05 74.1801L52.1 98.9101C51.88 99.5298 51.5384 100.099 51.0954 100.585C50.6524 101.071 50.1168 101.464 49.52 101.74C48.6236 102.16 47.6226 102.305 46.6439 102.156C45.6651 102.007 44.7527 101.57 44.0223 100.902C43.2918 100.234 42.7763 99.3634 42.5409 98.4017C42.3055 97.4401 42.3609 96.4302 42.7 95.5001L48.94 78.2201C49.4352 76.9198 49.8265 75.5822 50.11 74.2201C50.3622 72.837 50.5424 71.4418 50.65 70.0401C50.89 67.5101 51.06 64.7701 51.19 62.1401C51.32 59.5101 51.41 56.9601 51.48 54.8501C51.57 52.2201 50.86 52.0501 48.75 51.5501L48.31 51.4501L30.31 48.0601C29.6627 47.9459 29.0441 47.7052 28.4899 47.3517C27.9357 46.9982 27.4566 46.5389 27.08 46.0001C26.5206 45.1838 26.2161 44.2198 26.2048 43.2303C26.1936 42.2408 26.4763 41.2703 27.017 40.4415C27.5577 39.6127 28.3322 38.9631 29.2424 38.5747C30.1526 38.1864 31.1576 38.0769 32.13 38.2601L51.47 41.8901C52.24 41.9601 52.99 42.0501 53.78 42.1401C56.16 42.4662 58.558 42.6432 60.96 42.6701C63.9501 42.6117 66.9347 42.388 69.9 42.0001C70.8 41.9001 71.65 41.7901 72.5 41.7101L90.75 38.2901C92.0447 38.0216 93.3931 38.2769 94.5 39.0001C95.0486 39.3713 95.518 39.8478 95.8809 40.402C96.2438 40.9562 96.493 41.5769 96.6139 42.2282C96.7349 42.8795 96.7252 43.5483 96.5855 44.1958C96.4458 44.8433 96.1788 45.4566 95.8 46.0001C95.4286 46.5423 94.9539 47.006 94.4031 47.3646C93.8523 47.7233 93.2362 47.9698 92.59 48.0901L75.15 51.3701C74.57 51.5001 74.05 51.5901 73.59 51.6601C71.77 51.9701 70.87 52.1301 70.98 54.7201C71.06 56.6101 71.29 58.8701 71.59 61.2301C71.94 64.0001 72.4 66.9401 72.88 69.6301C73.19 71.4001 73.48 72.8201 73.88 74.1801C74.28 75.5401 74.67 76.9301 75.27 78.6001L81.38 95.5001C81.7192 96.4302 81.7746 97.4401 81.5392 98.4017C81.3038 99.3634 80.7882 100.234 80.0578 100.902C79.3273 101.57 78.4149 102.007 77.4362 102.156C76.4574 102.305 75.4564 102.16 74.56 101.74C73.9633 101.464 73.4277 101.071 72.9846 100.585C72.5416 100.099 72.2001 99.5298 71.98 98.9101L63 74.2301L62 72.4001L61 74.1801H61.05ZM61.44 20.6601C63.483 20.6583 65.4633 21.365 67.0436 22.6598C68.6239 23.9545 69.7064 25.7572 70.1065 27.7606C70.5066 29.764 70.1997 31.8441 69.238 33.6466C68.2764 35.4491 66.7194 36.8623 64.8325 37.6455C62.9457 38.4286 60.8456 38.5333 58.8902 37.9416C56.9348 37.3499 55.245 36.0985 54.1089 34.4006C52.9728 32.7027 52.4605 30.6634 52.6595 28.6301C52.8585 26.5969 53.7563 24.6955 55.2 23.2501C56.0179 22.4281 56.9903 21.7761 58.0612 21.3316C59.1322 20.8871 60.2805 20.6589 61.44 20.6601ZM97.79 25.0901C89.3911 16.6631 78.3297 11.4094 66.4911 10.2245C54.6525 9.03956 42.7693 11.9967 32.8667 18.5919C22.9642 25.1871 15.6552 35.0122 12.1854 46.3928C8.7155 57.7733 9.29957 70.005 13.838 81.0032C18.3765 92.0013 26.5884 101.085 37.0743 106.707C47.5602 112.329 59.6711 114.14 71.3429 111.832C83.0148 109.525 93.5252 103.241 101.083 94.0523C108.641 84.8633 112.778 73.3378 112.79 61.4401C112.805 54.6921 111.488 48.0076 108.914 41.7698C106.339 35.532 102.559 29.8638 97.79 25.0901Z" fill="#801ED7"/>
</g>
<defs>
<clipPath id="clip0_851_41288">
<rect width="122.88" height="122.88" fill="white"/>
</clipPath>
</defs>
</svg>
