<svg fill="none" height="24" viewBox="0 0 24 24" width="24" xmlns="http://www.w3.org/2000/svg"><path clip-rule="evenodd" d="m9 2c.43043 0 .81257.27543.94868.68377l5.05132 15.15393 2.0513-6.1539c.1361-.4084.5183-.6838.9487-.6838h4c.5523 0 1 .4477 1 1s-.4477 1-1 1h-3.2792l-2.7721 8.3162c-.1361.4084-.5183.6838-.9487.6838s-.8126-.2754-.9487-.6838l-5.0513-15.15392-2.05132 6.15392c-.13611.4084-.51825.6838-.94868.6838h-4c-.55228 0-1-.4477-1-1s.44772-1 1-1h3.27924l2.77208-8.31623c.13611-.40834.51825-.68377.94868-.68377z" fill="#801ed7" fill-rule="evenodd"/></svg>