<svg fill="none" height="24" viewBox="0 0 24 24" width="24" xmlns="http://www.w3.org/2000/svg"><path clip-rule="evenodd" d="m3.50509 3.54972c2.6873-2.2961 6.14776-1.87764 8.48771.16725 2.3372-2.04567 5.7608-2.43445 8.478-.17602 2.9736 2.47149 3.3307 6.68655 1.0409 9.63305-.7951 1.0231-2.2744 2.5087-3.7573 3.9228-1.4995 1.43-3.0582 2.8389-4.0503 3.7242l-.022.0196c-.1625.1451-.3251.2902-.475.4039-.1685.1277-.3754.2592-.6393.3384-.3721.1116-.7772.1116-1.1493 0-.2639-.0792-.4708-.2107-.6393-.3384-.1499-.1137-.3124-.2587-.475-.4039l-.022-.0196c-.99213-.8853-2.55078-2.2942-4.05029-3.7242-1.48288-1.4141-2.96226-2.8997-3.75732-3.9228-2.298619-2.9579-1.876289-7.14066 1.0305-9.62428zm8.44361 4.63406c-.1279-.3837-.4744-.65258-.8778-.68125-.4035-.02867-.7844.18851-.9653.55027l-1.22363 2.4472h-.38197c-.55228 0-1 .4477-1 1s.44772 1 1 1h1c.37877 0 .725-.214.8944-.5528l.4204-.8406 1.2365 3.7096c.1279.3837.4744.6526.8778.6813.4035.0287.7844-.1885.9653-.5503l1.2236-2.4472h.382c.5523 0 1-.4477 1-1s-.4477-1-1-1h-1c-.3788 0-.725.214-.8944.5528l-.4204.8407z" fill="#801ed7" fill-rule="evenodd"/></svg>