<svg fill="none" height="24" viewBox="0 0 24 24" width="24" xmlns="http://www.w3.org/2000/svg"><g fill="#801ed7"><path clip-rule="evenodd" d="m11.4851 14.3722c.3325-.1216.6973-.1216 1.0298 0 .2629.0961.4436.2566.5563.3702.1001.1009.2044.2262.2947.3347.0057.0068.0113.0135.0169.0202l3.292 3.9504c.0076.0091.0152.0183.0229.0275.1543.1851.3106.3726.4244.5373.1076.1559.3041.4622.3102.8649.007.461-.1985.8995-.557 1.1893-.3132.2531-.6744.2983-.863.3153-.1994.0181-.4435.018-.6845.018-.012 0-.0239 0-.0358 0h-6.58397c-.01191 0-.02385 0-.03579 0-.24099 0-.48509.0001-.68452-.018-.18861-.017-.54978-.0622-.86299-.3153-.35858-.2898-.56399-.7283-.55704-1.1893.00607-.4027.20258-.709.31021-.8649.1138-.1647.2701-.3522.42442-.5373.00764-.0092.01529-.0184.02292-.0275l3.29196-3.9504c.0056-.0067.0112-.0134.0169-.0203.0903-.1084.1947-.2337.2947-.3346.1127-.1136.2934-.2741.5563-.3702z" fill-rule="evenodd"/><path d="m17.2413 2h-10.4826c-.80496-.00001-1.46933-.00002-2.01052.04419-.5621.04593-1.07881.14449-1.56414.39179-.75265.38349-1.36457.99541-1.74806 1.74806-.2473.48533-.34586 1.00204-.39179 1.56414-.044212.54119-.044202 1.20554-.04419 2.01051v5.48261c-.000012.805-.000022 1.4693.04419 2.0105.04593.5621.14449 1.0788.39179 1.5642.38349.7526.99541 1.3645 1.74806 1.748.38484.1961.80207.2993 1.22678.3558.16834.0225.25252.0337.33443.0172.07669-.0155.13726-.0425.19999-.0892.067-.0499.13158-.1445.26072-.3335.00972-.0142.01856-.027.02641-.0384.16849-.2439.38256-.5003.52176-.667l3.32674-3.992.02066-.0248c.08074-.0973.24144-.2909.40773-.4584.20105-.2026.62714-.598 1.28934-.84.7759-.2836 1.6271-.2836 2.403 0 .6622.242 1.0883.6374 1.2894.84.1662.1675.3269.3611.4077.4583l.0206.0249 3.3268 3.992c.1392.1667.3532.423.5217.667.0079.0114.0167.0242.0264.0384.1292.189.1938.2835.2608.3335.0627.0467.1233.0737.2.0892.0819.0165.1661.0052.3344-.0172.4246-.0565.8418-.1597 1.2266-.3558.7526-.3835 1.3645-.9954 1.748-1.748.2473-.4854.3459-1.0021.3918-1.5642.0442-.5412.0442-1.2055.0442-2.0105v-5.48262c0-.80496 0-1.46931-.0442-2.0105-.0459-.5621-.1445-1.07881-.3918-1.56414-.3835-.75265-.9954-1.36457-1.748-1.74806-.4854-.2473-1.0021-.34586-1.5642-.39179-.5412-.04421-1.2055-.0442-2.0105-.04419z"/></g></svg>