<svg fill="none" height="24" viewBox="0 0 24 24" width="24" xmlns="http://www.w3.org/2000/svg"><g clip-rule="evenodd" fill="#801ed7" fill-rule="evenodd"><path d="m1 7.625c0-2.83046 2.29454-5.125 5.125-5.125s5.125 2.29454 5.125 5.125v11.25c0 1.4497-1.1753 2.625-2.625 2.625-1.44975 0-2.625-1.1753-2.625-2.625v-6.1265c-2.77271-.0664-5-2.3348-5-5.1235z"/><path d="m12.75 7.625c0-2.83046 2.2945-5.125 5.125-5.125s5.125 2.29454 5.125 5.125c0 2.7887-2.2273 5.0571-5 5.1235v6.1265c0 1.4497-1.1753 2.625-2.625 2.625s-2.625-1.1753-2.625-2.625z"/></g></svg>