<svg fill="none" height="24" viewBox="0 0 24 24" width="24" xmlns="http://www.w3.org/2000/svg"><g fill="#801ed7"><path d="m5.70711 3.70711c.39052-.39053.39052-1.02369 0-1.41422-.39053-.39052-1.02369-.39052-1.41422 0l-3 3c-.390521.39053-.390521 1.02369 0 1.41422.39053.39052 1.02369.39052 1.41422 0z"/><path d="m19.7071 2.29289c-.3905-.39052-1.0237-.39052-1.4142 0-.3905.39053-.3905 1.02369 0 1.41422l3 3c.3905.39052 1.0237.39052 1.4142 0 .3905-.39053.3905-1.02369 0-1.41422z"/><path clip-rule="evenodd" d="m12 22c2.0512 0 4.0302-.7002 5.6175-1.9683l1.6754 1.6754c.3905.3905 1.0237.3905 1.4142 0s.3905-1.0237 0-1.4142l-1.6754-1.6754c1.2681-1.5873 1.9683-3.5663 1.9683-5.6175 0-2.3869-.9482-4.67613-2.636-6.36396-1.6879-1.68783-3.9771-2.63604-6.364-2.63604-2.38695 0-4.67613.94821-6.36396 2.63604s-2.63604 3.97706-2.63604 6.36396c0 2.0512.70023 4.0302 1.96832 5.6175l-1.67543 1.6754c-.39052.3905-.39052 1.0237 0 1.4142.39053.3905 1.02369.3905 1.41422 0l1.67542-1.6754c1.58724 1.2681 3.56626 1.9683 5.61747 1.9683zm-3-10c-.55228 0-1 .4477-1 1s.44772 1 1 1h6c.5523 0 1-.4477 1-1s-.4477-1-1-1z" fill-rule="evenodd"/></g></svg>