<svg fill="none" height="24" viewBox="0 0 24 24" width="24" xmlns="http://www.w3.org/2000/svg"><g fill="#801ed7"><path clip-rule="evenodd" d="m3.70711 2.29289c-.06335-.06334-.13307-.11641-.20711-.1592-.38243-.22105-.87992-.16798-1.20711.1592-.39052.39053-.39052 1.02369 0 1.41422l.2929.29289-1.2929 1.29289c-.390521.39053-.390521 1.02369 0 1.41422.39053.39052 1.02369.39052 1.41422 0l1.29289-1.2929 1.43236 1.43236c-1.56024 1.66513-2.43236 3.86433-2.43236 6.15353 0 2.0512.70021 4.0302 1.96826 5.6174l-1.67537 1.6754c-.39052.3905-.39052 1.0237 0 1.4142.39053.3905 1.02369.3905 1.41422 0l1.67535-1.6754c1.58725 1.2682 3.5663 1.9684 5.61754 1.9684 2.2892 0 4.4884-.8721 6.1535-2.4323l2.1394 2.1393c.3905.3905 1.0237.3905 1.4142 0s.3905-1.0237 0-1.4142z" fill-rule="evenodd"/><path d="m20.4203 16.1777c.3797-1.0061.5797-2.0816.5797-3.1777 0-2.3869-.9482-4.67613-2.636-6.36396-1.6879-1.68783-3.9771-2.63604-6.364-2.63604-1.0961 0-2.1716.19995-3.1777.57965z"/><path d="m19.7071 2.29289c-.3905-.39052-1.0237-.39052-1.4142 0-.3905.39053-.3905 1.02369 0 1.41422l3 3c.3905.39052 1.0237.39052 1.4142 0 .3905-.39053.3905-1.02369 0-1.41422z"/></g></svg>