<svg fill="none" height="24" viewBox="0 0 24 24" width="24" xmlns="http://www.w3.org/2000/svg"><path clip-rule="evenodd" d="m12.4029 1.18505c-.2658-.05467-.54-.05467-.8058 0-.3073.06319-.5819.21702-.8003.33931l-.0595.03325-7.39997 4.11111-.06314.03487c-.23113.12731-.52175.28738-.74492.52956-.19295.20938-.33897.45754-.4283.7279-.10332.3127-.10211.64448-.10115.90835l.00018.07213v8.11707l-.00018.0722c-.00096.2638-.00217.5956.10115.9083.08933.2704.23535.5185.4283.7279.22316.2422.51376.4022.74489.5296l.06317.0348 7.39997 4.1112.0595.0332c.2184.1223.493.2761.8003.3393.2658.0547.54.0547.8058 0 .3073-.0632.5819-.217.8003-.3393l.0595-.0332 7.4-4.1112.0631-.0348c.2311-.1273.5218-.2874.7449-.5296.193-.2094.339-.4575.4283-.7279.1033-.3127.1021-.6445.1012-.9083l-.0002-.0722v-8.11707l.0002-.07213c.0009-.26387.0021-.59565-.1012-.90835-.0893-.27036-.2353-.51852-.4283-.7279-.2231-.24218-.5138-.40225-.7449-.52956l-.0631-.03487-7.4-4.11111-.0595-.03325c-.2184-.12229-.493-.27612-.8003-.33931zm.5971 6.81495c0-.55228-.4477-1-1-1s-1 .44772-1 1v4c0 .5523.4477 1 1 1s1-.4477 1-1zm-1 7c-.5523 0-1 .4477-1 1s.4477 1 1 1h.01c.5523 0 1-.4477 1-1s-.4477-1-1-1z" fill="#801ed7" fill-rule="evenodd"/></svg>