<svg fill="none" height="24" viewBox="0 0 24 24" width="24" xmlns="http://www.w3.org/2000/svg"><g clip-rule="evenodd" fill="#801ed7" fill-rule="evenodd"><path d="m16.968 18h.064c.4386 0 .8171 0 1.1304-.0213.3298-.0226.6597-.0721.9857-.2071.735-.3044 1.3191-.8885 1.6235-1.6235.135-.326.1845-.6559.2071-.9857.0213-.3133.0213-.6918.0213-1.1304v-8.06399c0-.43865 0-.81713-.0213-1.13039-.0226-.32983-.0721-.65974-.2071-.98567-.3044-.73508-.8885-1.31911-1.6235-1.62359-.326-.135-.6559-.1845-.9857-.20701-.3133-.02137-.6918-.02136-1.1304-.02135h-.064c-.4386-.00001-.8171-.00002-1.1304.02135-.3298.02251-.6597.07201-.9856.20701-.7351.30449-1.3192.88851-1.6236 1.62359-.135.32593-.1845.65584-.207.98567-.0214.31326-.0214.69175-.0214 1.1304v8.06398c0 .4386 0 .8171.0214 1.1304.0225.3298.072.6597.207.9857.3044.735.8885 1.3191 1.6236 1.6235.3259.135.6558.1845.9856.2071.3133.0213.6918.0213 1.1304.0213z"/><path d="m6.96802 22h.06397c.43865 0 .81714 0 1.1304-.0213.32982-.0226.65973-.0721.98566-.2071.73509-.3044 1.31915-.8885 1.62355-1.6235.135-.326.1845-.6559.2071-.9857.0213-.3133.0213-.6918.0213-1.1304v-12.06399c0-.43865 0-.81713-.0213-1.13039-.0226-.32983-.0721-.65974-.2071-.98567-.3044-.73508-.88846-1.31911-1.62355-1.62359-.32593-.135-.65584-.1845-.98567-.20701-.31325-.02137-.69174-.02136-1.13039-.02135h-.06398c-.43865-.00001-.81713-.00002-1.13039.02135-.32983.02251-.65974.07201-.98567.20701-.73508.30448-1.31911.88851-1.62359 1.62359-.135.32593-.18451.65584-.20701.98567-.02137.31326-.02136.69175-.02135 1.1304v12.06398c-.00001.4386-.00002.8171.02135 1.1304.02251.3298.07201.6597.20701.9857.30449.735.88851 1.3191 1.62359 1.6235.32593.135.65584.1845.98567.2071.31326.0213.69175.0213 1.1304.0213z"/></g></svg>