<svg fill="none" height="24" viewBox="0 0 24 24" width="24" xmlns="http://www.w3.org/2000/svg"><g clip-rule="evenodd" fill="#801ed7" fill-rule="evenodd"><path d="m7.96802 3h8.06398c.4386-.00001.8171-.00002 1.1304.02135.3298.02251.6597.07201.9857.20701.735.30449 1.3191.88851 1.6235 1.62359.135.32593.1845.65584.2071.98567.0213.31326.0213.69174.0213 1.13039v.06398c0 .43865 0 .81714-.0213 1.13039-.0226.32983-.0721.65974-.2071.98567-.3044.73509-.8885 1.31915-1.6235 1.62355-.326.135-.6559.1845-.9857.2071-.3133.0213-.6918.0213-1.1304.0213h-8.06396c-.43866 0-.81716 0-1.13042-.0213-.32983-.0226-.65974-.0721-.98567-.2071-.73508-.3044-1.31911-.88847-1.62359-1.62355-.135-.32593-.1845-.65584-.20701-.98567-.02137-.31326-.02136-.69175-.02135-1.1304v-.06396c-.00001-.43865-.00002-.81714.02135-1.1304.02251-.32983.07201-.65974.20701-.98567.30448-.73508.88851-1.31911 1.62359-1.62359.32593-.135.65584-.18451.98567-.20701.31326-.02137.69175-.02136 1.1304-.02135z"/><path d="m5.96802 13h12.06398c.4386 0 .8171 0 1.1304.0214.3298.0225.6597.072.9857.207.735.3044 1.3191.8885 1.6235 1.6236.135.3259.1845.6558.2071.9856.0213.3133.0213.6918.0213 1.1304v.064c0 .4386 0 .8171-.0213 1.1304-.0226.3298-.0721.6597-.2071.9857-.3044.735-.8885 1.3191-1.6235 1.6235-.326.135-.6559.1845-.9857.2071-.3133.0213-.6918.0213-1.1304.0213h-12.06396c-.43866 0-.81716 0-1.13042-.0214-.32983-.0225-.65974-.072-.98567-.207-.73508-.3044-1.31911-.8885-1.62359-1.6235-.135-.326-.18451-.6559-.20701-.9857-.02137-.3133-.02136-.6918-.02135-1.1304v-.064c-.00001-.4386-.00002-.8171.02135-1.1304.02251-.3298.07201-.6597.20701-.9856.30448-.7351.88851-1.3192 1.62359-1.6236.32593-.135.65584-.1845.98567-.2071.31326-.0213.69175-.0213 1.1304-.0213z"/></g></svg>