<svg fill="none" height="24" viewBox="0 0 24 24" width="24" xmlns="http://www.w3.org/2000/svg"><g fill="#801ed7"><path d="m12 1c.5523 0 1 .44772 1 1v4.08579l2.2929-2.2929c.3905-.39052 1.0237-.39052 1.4142 0 .3905.39053.3905 1.02369 0 1.41422l-4 4c-.3905.39052-1.0237.39052-1.4142 0l-4.00001-4c-.39052-.39053-.39052-1.02369 0-1.41422.39053-.39052 1.02369-.39052 1.41422 0l2.29289 2.2929v-4.08579c0-.55228.4477-1 1-1z"/><path d="m2 12c0-.5523.44772-1 1-1h18c.5523 0 1 .4477 1 1s-.4477 1-1 1h-18c-.55228 0-1-.4477-1-1z"/><path d="m12 23c-.5523 0-1-.4477-1-1v-4.0858l-2.29289 2.2929c-.39053.3905-1.02369.3905-1.41422 0-.39052-.3905-.39052-1.0237 0-1.4142l4.00001-4c.3905-.3905 1.0237-.3905 1.4142 0l4 4c.3905.3905.3905 1.0237 0 1.4142s-1.0237.3905-1.4142 0l-2.2929-2.2929v4.0858c0 .5523-.4477 1-1 1z"/></g></svg>