<svg fill="none" height="24" viewBox="0 0 24 24" width="24" xmlns="http://www.w3.org/2000/svg"><g fill="#801ed7"><path d="m21 2c.5523 0 1 .44772 1 1v18c0 .5523-.4477 1-1 1s-1-.4477-1-1v-18c0-.55228.4477-1 1-1z"/><path d="m2 12c0-.5523.44772-1 1-1h11.5858l-5.29291-5.29289c-.39052-.39053-.39052-1.02369 0-1.41422.39053-.39052 1.02371-.39052 1.41421 0l7 7.00001c.1875.1875.2929.4419.2929.7071s-.1054.5196-.2929.7071l-7 7c-.3905.3905-1.02368.3905-1.41421 0-.39052-.3905-.39052-1.0237 0-1.4142l5.29291-5.2929h-11.5858c-.55228 0-1-.4477-1-1z"/></g></svg>