<svg fill="none" height="24" viewBox="0 0 24 24" width="24" xmlns="http://www.w3.org/2000/svg"><g fill="#801ed7"><path d="m12 2c.5523 0 1 .44772 1 1v11.5858l5.2929-5.29291c.3905-.39052 1.0237-.39052 1.4142 0 .3905.39053.3905 1.02371 0 1.41421l-7 7c-.3905.3905-1.0237.3905-1.4142 0l-7.00001-7c-.39052-.3905-.39052-1.02368 0-1.41421.39053-.39052 1.02369-.39052 1.41422 0l5.29289 5.29291v-11.5858c0-.55228.4477-1 1-1z"/><path d="m2 21c0-.5523.44772-1 1-1h18c.5523 0 1 .4477 1 1s-.4477 1-1 1h-18c-.55228 0-1-.4477-1-1z"/></g></svg>