<svg fill="none" height="24" viewBox="0 0 24 24" width="24" xmlns="http://www.w3.org/2000/svg"><g clip-rule="evenodd" fill="#801ed7" fill-rule="evenodd"><path d="m16.968 4h.064c.4386-.00001.8171-.00002 1.1304.02135.3298.02251.6597.07201.9857.20701.735.30448 1.3191.88851 1.6235 1.62359.135.32593.1845.65584.2071.98567.0213.31326.0213.69174.0213 1.13039v8.06399c0 .4386 0 .8171-.0213 1.1304-.0226.3298-.0721.6597-.2071.9857-.3044.735-.8885 1.3191-1.6235 1.6235-.326.135-.6559.1845-.9857.2071-.3133.0213-.6918.0213-1.1304.0213h-.064c-.4386 0-.8171 0-1.1304-.0213-.3298-.0226-.6597-.0721-.9856-.2071-.7351-.3044-1.3192-.8885-1.6236-1.6235-.135-.326-.1845-.6559-.207-.9857-.0214-.3133-.0214-.6918-.0214-1.1304v-8.06398c0-.43865 0-.81714.0214-1.1304.0225-.32983.072-.65974.207-.98567.3044-.73508.8885-1.31911 1.6236-1.62359.3259-.135.6558-.1845.9856-.20701.3133-.02137.6918-.02136 1.1304-.02135z"/><path d="m6.96802 2h.06396c.43866-.00001.81715-.00002 1.1304.02135.32983.02251.65974.07201.98567.20701.73509.30448 1.31915.88851 1.62355 1.62359.135.32593.1845.65584.2071.98567.0213.31326.0213.69174.0213 1.13039v12.06399c0 .4386 0 .8171-.0213 1.1304-.0226.3298-.0721.6597-.2071.9857-.3044.735-.88846 1.3191-1.62355 1.6235-.32593.135-.65584.1845-.98567.2071-.31325.0213-.69174.0213-1.13039.0213h-.06398c-.43865 0-.81713 0-1.13039-.0213-.32983-.0226-.65974-.0721-.98567-.2071-.73508-.3044-1.31911-.8885-1.62359-1.6235-.135-.326-.1845-.6559-.20701-.9857-.02137-.3133-.02136-.6918-.02135-1.1304v-12.06398c-.00001-.43865-.00002-.81714.02135-1.1304.02251-.32983.07201-.65974.20701-.98567.30448-.73508.88851-1.31911 1.62359-1.62359.32593-.135.65584-.1845.98567-.20701.31326-.02137.69175-.02136 1.1304-.02135z"/></g></svg>