<svg fill="none" height="24" viewBox="0 0 24 24" width="24" xmlns="http://www.w3.org/2000/svg"><g fill="#801ed7"><path d="m3 2c.55229 0 1 .44772 1 1v18c0 .5523-.44772 1-1 1s-1-.4477-1-1v-18c0-.55228.44772-1 1-1z"/><path d="m9.41421 11 5.29289-5.29289c.3905-.39053.3905-1.02369 0-1.41422-.3905-.39052-1.0237-.39052-1.4142 0l-7.00001 7.00001c-.39052.3905-.39052 1.0237 0 1.4142l7.00001 7c.3905.3905 1.0237.3905 1.4142 0s.3905-1.0237 0-1.4142l-5.29289-5.2929h11.58579c.5523 0 1-.4477 1-1s-.4477-1-1-1z"/></g></svg>