<svg fill="none" height="24" viewBox="0 0 24 24" width="24" xmlns="http://www.w3.org/2000/svg"><g fill="#801ed7"><path d="m3 5c-.55228 0-1 .44772-1 1s.44772 1 1 1h18c.5523 0 1-.44772 1-1s-.4477-1-1-1z"/><path d="m6 9c-.55228 0-1 .44772-1 1 0 .5523.44772 1 1 1h12c.5523 0 1-.4477 1-1 0-.55228-.4477-1-1-1z"/><path d="m2 14c0-.5523.44772-1 1-1h18c.5523 0 1 .4477 1 1s-.4477 1-1 1h-18c-.55228 0-1-.4477-1-1z"/><path d="m6 17c-.55228 0-1 .4477-1 1s.44772 1 1 1h12c.5523 0 1-.4477 1-1s-.4477-1-1-1z"/></g></svg>