<svg fill="none" height="24" viewBox="0 0 24 24" width="24" xmlns="http://www.w3.org/2000/svg"><path clip-rule="evenodd" d="m16 5c0 1.86384-1.2748 3.42994-3 3.87398v12.07032c2.019-.2257 3.9135-1.1299 5.364-2.5803 1.4504-1.4505 2.3546-3.345 2.5803-5.364h-1.9443c-.5523 0-1-.4477-1-1s.4477-1 1-1h3c.5523 0 1 .4477 1 1 0 2.9174-1.1589 5.7153-3.2218 7.7782s-4.8608 3.2218-7.7782 3.2218c-2.91738 0-5.71527-1.1589-7.77817-3.2218s-3.22183-4.8608-3.22183-7.7782c0-.2652.10536-.5196.29289-.7071.18754-.1875.44189-.2929.70711-.2929h3c.55228 0 1 .4477 1 1s-.44772 1-1 1h-1.9443c.22567 2.019 1.12991 3.9135 2.58034 5.364 1.45043 1.4504 3.34494 2.3546 5.36396 2.5803v-12.07032c-1.72523-.44404-3-2.01014-3-3.87398 0-2.20914 1.79086-4 4-4 2.2091 0 4 1.79086 4 4zm-4-2c-1.1046 0-2 .89543-2 2s.8954 2 2 2 2-.89543 2-2-.8954-2-2-2z" fill="#801ed7" fill-rule="evenodd"/></svg>