<svg fill="none" height="24" viewBox="0 0 24 24" width="24" xmlns="http://www.w3.org/2000/svg"><path clip-rule="evenodd" d="m16.2413 2h-8.4826c-.80496-.00001-1.46933-.00002-2.01052.04419-.5621.04593-1.07881.14449-1.56414.39179-.75265.38349-1.36457.99541-1.74806 1.74806-.2473.48533-.34586 1.00204-.39179 1.56414-.04421.54119-.0442 1.20554-.04419 2.01051v5.77561c-.00001.6698-.00001 1.2226.03087 1.6752.03202.4693.10055.9034.27361 1.3212.40598.9801 1.18468 1.7588 2.16479 2.1648.41781.1731.85191.2416 1.32119.2736.45261.0309 1.00548.0309 1.67527.0309h.03427c.53656 0 .64307.0063.72975.0268.1511.0356.29181.106.411.2054.06838.0571.13731.1386.45925.5678l1.4769 1.9692c.0934.1246.1989.2654.3005.3784.112.1245.2982.3079.5789.4171.3497.136.7377.136 1.0874 0 .2807-.1092.4669-.2926.5789-.4171.1016-.113.2071-.2538.3005-.3784l1.4769-1.9692c.3219-.4292.3909-.5107.4593-.5678.1191-.0994.2599-.1698.4109-.2054.0867-.0205.1932-.0268.7298-.0268h.0343c.6698 0 1.2226 0 1.6752-.0309.4693-.032.9034-.1005 1.3212-.2736.9801-.406 1.7588-1.1847 2.1648-2.1648.1731-.4178.2416-.8519.2736-1.3212.0309-.4526.0309-1.0054.0309-1.6752v-5.77562c0-.80496 0-1.46931-.0442-2.0105-.0459-.5621-.1445-1.07881-.3918-1.56414-.3835-.75265-.9954-1.36457-1.748-1.74806-.4854-.2473-1.0021-.34586-1.5642-.39179-.5412-.04421-1.2055-.0442-2.0105-.04419zm-4.7529 6.17211c.2542-.14937.553-.20397.8436-.15413.2905.04983.5541.2009.7439.42643.1899.22553.2938.51098.2934.80578v.00149c0 .21857-.1772.51974-.6789.85422-.2204.1469-.4479.2614-.6243.3398-.0868.0385-.1577.0668-.2045.0847-.0234.0089-.0405.0151-.0504.0186l-.0092.0032.0016-.0005c-.5232.1751-.8059.741-.6313 1.2645.1746.524.7409.8071 1.2649.6325l.0012-.0004c.0454-.0153.0904-.0319.1351-.0489.0761-.029.1809-.071.3049-.1261.2452-.109.5797-.2755.9214-.5033.6224-.415 1.5693-1.2378 1.5695-2.51788.0009-.76675-.2695-1.50911-.7633-2.09571-.494-.58687-1.1798-.97996-1.9359-1.10965-.7561-.12968-1.5337.0124-2.195.40109-.66138.38868-1.16384.99889-1.41841 1.72255-.18327.52098.09051 1.0919.6115 1.27517.52101.18328 1.09191-.0905 1.27521-.61149.0978-.2781.2909-.5126.545-.66197zm.6615 5.32789c-.5523 0-1 .4477-1 1s.4477 1 1 1h.01c.5523 0 1-.4477 1-1s-.4477-1-1-1z" fill="#801ed7" fill-rule="evenodd"/></svg>