<svg fill="none" height="24" viewBox="0 0 24 24" width="24" xmlns="http://www.w3.org/2000/svg"><path clip-rule="evenodd" d="m16.2413 2h-8.4826c-.80496-.00001-1.46933-.00002-2.01052.04419-.5621.04593-1.07881.14449-1.56414.39179-.75265.38349-1.36457.99541-1.74806 1.74806-.2473.48533-.34586 1.00204-.39179 1.56414-.04421.54119-.0442 1.20554-.04419 2.01051v5.77561c-.00001.6698-.00001 1.2226.03087 1.6752.03202.4693.10055.9034.27361 1.3212.40598.9801 1.18468 1.7588 2.16479 2.1648.41781.1731.85191.2416 1.32119.2736.45261.0309 1.00548.0309 1.67527.0309h.03427c.53656 0 .64307.0063.72975.0268.1511.0356.29181.106.411.2054.06838.0571.13731.1386.45925.5678l1.4769 1.9692c.0934.1246.1989.2654.3005.3784.112.1245.2982.3079.5789.4171.3497.136.7377.136 1.0874 0 .2807-.1092.4669-.2926.5789-.4171.1016-.113.2071-.2538.3005-.3784l1.4769-1.9692c.3219-.4292.3909-.5107.4593-.5678.1191-.0994.2599-.1698.4109-.2054.0867-.0205.1932-.0268.7298-.0268h.0343c.6698 0 1.2226 0 1.6752-.0309.4693-.032.9034-.1005 1.3212-.2736.9801-.406 1.7588-1.1847 2.1648-2.1648.1731-.4178.2416-.8519.2736-1.3212.0309-.4526.0309-1.0054.0309-1.6752v-5.77562c0-.80496 0-1.46931-.0442-2.0105-.0459-.5621-.1445-1.07881-.3918-1.56414-.3835-.75265-.9954-1.36457-1.748-1.74806-.4854-.2473-1.0021-.34586-1.5642-.39179-.5412-.04421-1.2055-.0442-2.0105-.04419zm-7.44841 5.29289c.39053-.39052 1.02369-.39052 1.41421 0l1.7929 1.7929 1.7929-1.7929c.3905-.39052 1.0237-.39052 1.4142 0 .3905.39053.3905 1.02369 0 1.41422l-1.7929 1.79289 1.7929 1.7929c.3905.3905.3905 1.0237 0 1.4142s-1.0237.3905-1.4142 0l-1.7929-1.7929-1.7929 1.7929c-.39052.3905-1.02368.3905-1.41421 0-.39052-.3905-.39052-1.0237 0-1.4142l1.79291-1.7929-1.79291-1.79289c-.39052-.39053-.39052-1.02369 0-1.41422z" fill="#801ed7" fill-rule="evenodd"/></svg>