<svg fill="none" height="24" viewBox="0 0 24 24" width="24" xmlns="http://www.w3.org/2000/svg"><path clip-rule="evenodd" d="m3.03762 14.2736c-1.24312-1.0084-2.03762-2.5482-2.03762-4.27361 0-3.03757 2.46243-5.5 5.5-5.5h3.75c1.8006 0 3.6077-.91157 5.1502-1.75252.4568-.24898.8491-.46287 1.1667-.60619.2924-.13193.7182-.30185 1.1762-.24575.5733.07021 1.0475.35181 1.3835.82153.264.369.3218.80683.3469 1.12256.0468.58822.0265 1.18213.0265 1.77189 2.004.45473 3.5 2.2469 3.5 4.38849 0 2.1416-1.496 3.9338-3.5 4.3885 0 .5897.0203 1.1836-.0265 1.7719-.0251.3157-.0829.7535-.3469 1.1225-.336.4697-.8102.7513-1.3835.8215-.458.0561-.8838-.1138-1.1762-.2457-.4113-.1856-.8054-.4092-1.2012-.6251-1.394-.7598-3.0028-1.4661-4.3657-1.6729 0 1.5589.1366 3.176-.014 4.7289-.1385 1.4279-1.26852 2.5579-2.6964 2.6964-.31726.0308-.65491.03-.97261.004-1.1925-.0975-2.21303-.8943-2.59687-2.0276-.03969-.1171-.07134-.2439-.1078-.39zm16.46238-1.9816c.883-.3858 1.5-1.2668 1.5-2.292 0-1.02516-.617-1.9062-1.5-2.29198z" fill="#801ed7" fill-rule="evenodd"/></svg>