<svg fill="none" height="24" viewBox="0 0 24 24" width="24" xmlns="http://www.w3.org/2000/svg"><path clip-rule="evenodd" d="m7.7587 2h8.4826c.805-.00001 1.4693-.00002 2.0105.04419.5621.04593 1.0788.14449 1.5642.39178.7526.3835 1.3645.99542 1.748 1.74807.2473.48533.3459 1.00204.3918 1.56413.0442.54119.0442 1.20555.0442 2.01051v5.77562c0 .6698 0 1.2226-.0309 1.6752-.032.4693-.1005.9034-.2736 1.3212-.406.9801-1.1847 1.7588-2.1648 2.1648-.4178.1731-.8519.2416-1.3212.2736-.4526.0309-1.0054.0309-1.6752.0309h-.0343c-.5366 0-.6431.0063-.7298.0268-.151.0356-.2918.106-.4109.2054-.0684.0571-.1374.1386-.4593.5678l-1.4769 1.9692c-.0934.1246-.1989.2654-.3005.3784-.112.1245-.2982.3079-.5789.4171-.3497.136-.7377.136-1.0874 0-.2807-.1092-.4669-.2926-.5789-.4171-.1016-.113-.2071-.2538-.3005-.3784l-1.4769-1.9692c-.32194-.4292-.39087-.5107-.45925-.5678-.11919-.0994-.2599-.1698-.411-.2054-.08668-.0205-.19319-.0268-.72975-.0268h-.03427c-.66979 0-1.22266 0-1.67527-.0309-.46928-.032-.90338-.1005-1.32119-.2736-.98012-.406-1.75881-1.1847-2.16479-2.1648-.17306-.4178-.2416-.8519-.27361-1.3212-.03089-.4526-.03088-1.0054-.03087-1.6752v-5.7756c-.00001-.80497-.00002-1.46933.04419-2.01053.04593-.56209.14449-1.0788.39178-1.56413.3835-.75265.99542-1.36457 1.74807-1.74807.48533-.24729 1.00204-.34585 1.56413-.39178.5412-.04421 1.20556-.0442 2.01053-.04419z" fill="#801ed7" fill-rule="evenodd"/></svg>