<svg fill="none" height="24" viewBox="0 0 24 24" width="24" xmlns="http://www.w3.org/2000/svg"><path clip-rule="evenodd" d="m18.5286 2.00024c1.4965.01404 2.627 1.12997 3.3268 2.42958.7262 1.34859 1.1447 3.143 1.1447 5.07029s-.4185 3.72169-1.1447 5.07029c-.7013 1.3023-1.8351 2.4202-3.3362 2.4297-2.4001.0434-5.0692-.9019-7.4262-1.3304l.2742 3.5644c.0999 1.2968-.2674 2.6179-1.80813 2.7476-1.06886.0899-2.19883.0873-3.2645.0029-1.27272-.1008-1.81213-1.1939-1.89591-2.3689l-.37525-5.2535c-.29061-.0731-.54908-.1588-.78694-.2756-1.01714-.4997-1.77462-1.4073-2.08424-2.4974-.334417-1.1774-.336174-2.99472 0-4.17831.30962-1.09011 1.0671-1.99773 2.08424-2.49736.50279-.24698 1.09768-.35479 1.89356-.49903 4.40113-.80018 11.86997-2.41435 13.39857-2.41426zm.0443 12.99666-.472-.0858c-.3652-.1572-.7923-.5405-1.1952-1.2889-.5406-1.0039-.9056-2.4595-.9056-4.12209 0-1.66256.365-3.11815.9056-4.12209.3336-.61964.6838-.98898 1.0017-1.18695.1239-.07717.2666-.11535.4102-.14146.1691-.03075.3448-.04745.5068.01012.3808.13535.8392.51813 1.2701 1.31829.5405 1.00394.9056 2.45953.9056 4.12209 0 1.66259-.3651 3.11819-.9056 4.12209-.531.986-1.1038 1.3383-1.5216 1.3747z" fill="#801ed7" fill-rule="evenodd"/></svg>