<svg fill="none" height="24" viewBox="0 0 24 24" width="24" xmlns="http://www.w3.org/2000/svg"><g clip-rule="evenodd" fill="#801ed7" fill-rule="evenodd"><path d="m22 6.99999c.5523 0 1 .44772 1 1v4.00001c0 .5523-.4477 1-1 1s-1-.4477-1-1v-4.00001c0-.55228.4477-1 1-1z"/><path d="m16.5669 2.14128c.2924-.13193.7182-.30185 1.1762-.24575.5733.07021 1.0475.35181 1.3835.82153.264.369.3218.80683.3469 1.12256.0265.33372.0265.75875.0265 1.2465v9.82768c0 .4878 0 .9128-.0265 1.2466-.0251.3157-.0829.7535-.3469 1.1225-.336.4697-.8102.7513-1.3835.8215-.458.0561-.8838-.1138-1.1762-.2457-.3176-.1433-.71-.3572-1.1667-.6062l-.0345-.0189c-1.5687-.8551-3.4096-1.6423-4.8657-1.7262 0 1.0948-.0004 2.1897 0 3.2845.0001.1903.0002.3539-.0144.5021-.1403 1.4244-1.26721 2.5513-2.69155 2.6915-.15899.0157-.33568.0145-.54405.0145-.20836 0-.38505.0012-.54405-.0145-1.42433-.1402-2.55122-1.2671-2.6915-2.6915-.0146-.1482-.01453-.3118-.01446-.5021.00044-1.1014.00001-2.2028.00001-3.3042-.05593-.0025-.11006-.0055-.16238-.0091-.32983-.0225-.65974-.072-.98567-.207-.73508-.3045-1.3191-.8885-1.62358-1.6236-.13501-.3259-.18451-.6558-.20702-.9856-.021372-.3133-.021361-.6918-.02135-1.1304v-1.2733c-.000013-.80498-.000024-1.46934.04419-2.01054.04593-.56209.14449-1.0788.39178-1.56413.3835-.75265.99542-1.36457 1.74807-1.74807.48533-.24729 1.00204-.34585 1.56413-.39178.5412-.04422 1.20556-.0442 2.01053-.04419h3.4913c1.4911 0 3.4558-.82881 5.1157-1.73366l.0345-.01886c.4568-.24898.8491-.46287 1.1667-.60619z"/></g></svg>