<svg fill="none" height="24" viewBox="0 0 24 24" width="24" xmlns="http://www.w3.org/2000/svg"><g fill="#801ed7"><path d="m11.7071 2.29289c-.3905-.39052-1.0237-.39052-1.4142 0-.39053.39053-.39053 1.02369 0 1.41422l2.2929 2.29289h-8.5858c-.55228 0-1 .44772-1 1s.44772 1 1 1h8.5858l-2.2929 2.2929c-.39053.3905-.39053 1.0237 0 1.4142.3905.3905 1.0237.3905 1.4142 0l4-3.99999c.3905-.39053.3905-1.02369 0-1.41422z"/><path d="m3 17c0-.5523.44772-1 1-1h13.5858l-2.2929-2.2929c-.3905-.3905-.3905-1.0237 0-1.4142s1.0237-.3905 1.4142 0l4 4c.3905.3905.3905 1.0237 0 1.4142l-4 4c-.3905.3905-1.0237.3905-1.4142 0s-.3905-1.0237 0-1.4142l2.2929-2.2929h-13.5858c-.55228 0-1-.4477-1-1z"/></g></svg>