<svg fill="none" height="24" viewBox="0 0 24 24" width="24" xmlns="http://www.w3.org/2000/svg"><path d="m14.7243 22.66c-.4992.1272-.7488.1908-1.0166.109-.2137-.0654-.4462-.246-.5623-.437-.1454-.2393-.1454-.5354-.1454-1.1275v-10.7903l2.2929 2.2929c.3905.3905 1.0237.3905 1.4142 0s.3905-1.0237 0-1.4142l-4-4.00001c-.3905-.39052-1.0237-.39052-1.4142 0l-4.00001 4.00001c-.39052.3905-.39052 1.0237 0 1.4142.39053.3905 1.02369.3905 1.41422 0l2.29289-2.2929v10.7903c0 .5921 0 .8882-.1454 1.1275-.1161.191-.3486.3716-.5623.437-.2678.0818-.51741.0182-1.01656-.109-4.75743-1.2121-8.27574-5.5252-8.27574-10.66 0-6.07513 4.92487-11.000001 11-11 6.0751 0 11 4.92487 11 11 0 5.1348-3.5183 9.4479-8.2757 10.66z" fill="#801ed7"/></svg>