<svg fill="none" height="24" viewBox="0 0 24 24" width="24" xmlns="http://www.w3.org/2000/svg"><g fill="#801ed7"><path d="m6 17.5858-2.29289-2.2929c-.39053-.3905-1.02369-.3905-1.41422 0-.39052.3905-.39052 1.0237 0 1.4142l4 4c.39053.3905 1.02369.3905 1.41422 0l3.99999-4c.3905-.3905.3905-1.0237 0-1.4142s-1.0237-.3905-1.4142 0l-2.2929 2.2929v-13.5858c0-.55229-.44771-1-1-1-.55228 0-1 .44771-1 1z"/><path d="m18 12.5858 2.2929-2.2929c.3905-.39053 1.0237-.39053 1.4142 0 .3905.3905.3905 1.0237 0 1.4142l-4 4c-.3905.3905-1.0237.3905-1.4142 0l-4-4c-.3905-.3905-.3905-1.0237 0-1.4142.3905-.39053 1.0237-.39053 1.4142 0l2.2929 2.2929v-8.5858c0-.55229.4477-1 1-1s1 .44771 1 1z"/></g></svg>