<svg fill="none" height="24" viewBox="0 0 24 24" width="24" xmlns="http://www.w3.org/2000/svg"><path clip-rule="evenodd" d="m1 12c0 6.0751 4.92487 11 11 11 6.0751 0 11-4.9249 11-11 0-6.07513-4.9249-11-11-11-6.07513 0-11 4.92487-11 11zm6 0c0-.5523.44772-1 1-1h5.5858l-2.2929-2.29289c-.3905-.39053-.3905-1.02369 0-1.41422.3905-.39052 1.0237-.39052 1.4142 0l4 4.00001c.3905.3905.3905 1.0237 0 1.4142l-4 4c-.3905.3905-1.0237.3905-1.4142 0s-.3905-1.0237 0-1.4142l2.2929-2.2929h-5.5858c-.55228 0-1-.4477-1-1z" fill="#801ed7" fill-rule="evenodd"/></svg>