<svg fill="none" height="24" viewBox="0 0 24 24" width="24" xmlns="http://www.w3.org/2000/svg"><path clip-rule="evenodd" d="m4.22183 19.7782c4.29576 4.2957 11.26057 4.2957 15.55637 0 4.2957-4.2958 4.2957-11.26061 0-15.55638-4.2958-4.2957622-11.26061-4.2957617-15.55638.00001-4.2957622 4.29576-4.2957617 11.26057.00001 15.55637zm4.24264-4.2427c-.39053-.3905-.39053-1.0237 0-1.4142l3.94973-3.9497h-3.24263c-.55228 0-1-.44774-1-1.00003 0-.55228.44772-1 1-1h5.65683c.5523 0 1 .44772 1 1v5.65683c0 .5523-.4477 1-1 1s-1-.4477-1-1v-3.2426l-3.94972 3.9497c-.39052.3906-1.02369.3906-1.41421 0z" fill="#801ed7" fill-rule="evenodd"/></svg>