<svg fill="none" height="24" viewBox="0 0 24 24" width="24" xmlns="http://www.w3.org/2000/svg"><g fill="#801ed7"><path d="m7.70711 3.29289c-.39053-.39052-1.02369-.39052-1.41422 0l-4 4c-.39052.39053-.39052 1.02369 0 1.41422.39053.39052 1.02369.39052 1.41422 0l2.29289-2.2929v13.58579c0 .5523.44772 1 1 1 .55229 0 1-.4477 1-1v-13.58579l2.2929 2.2929c.3905.39052 1.0237.39052 1.4142 0 .3905-.39053.3905-1.02369 0-1.41422z"/><path d="m17.7071 8.29289c-.3905-.39052-1.0237-.39052-1.4142 0l-4 4.00001c-.3905.3905-.3905 1.0237 0 1.4142s1.0237.3905 1.4142 0l2.2929-2.2929v8.5858c0 .5523.4477 1 1 1s1-.4477 1-1v-8.5858l2.2929 2.2929c.3905.3905 1.0237.3905 1.4142 0s.3905-1.0237 0-1.4142z"/></g></svg>