<svg fill="none" height="24" viewBox="0 0 24 24" width="24" xmlns="http://www.w3.org/2000/svg"><path clip-rule="evenodd" d="m19.7782 4.22183c-4.2958-4.2957719-11.26061-4.2957719-15.55637 0-4.2957719 4.29576-4.2957719 11.26057 0 15.55637 4.29576 4.2957 11.26057 4.2957 15.55637 0 4.2957-4.2958 4.2957-11.26061 0-15.55637zm-4.2427 4.24264c.3906.39052.3906 1.02369 0 1.41421l-3.9497 3.94972h3.2426c.5523 0 1 .4477 1 1s-.4477 1-1 1h-5.65683c-.55228 0-1-.4477-1-1v-5.65683c0-.55228.44772-1 1-1 .55229 0 1.00003.44772 1.00003 1v3.24263l3.9497-3.94973c.3905-.39053 1.0237-.39053 1.4142 0z" fill="#801ed7" fill-rule="evenodd"/></svg>