<svg fill="none" height="24" viewBox="0 0 24 24" width="24" xmlns="http://www.w3.org/2000/svg"><path clip-rule="evenodd" d="m4.22183 4.22183c-4.2957719 4.29576-4.2957719 11.26057 0 15.55637 4.29576 4.2957 11.26057 4.2957 15.55637 0 4.2957-4.2958 4.2957-11.26061 0-15.55637-4.2958-4.2957719-11.26061-4.2957719-15.55637 0zm4.24264 4.24264c.39052-.39053 1.02369-.39053 1.41421 0l3.94972 3.94973v-3.24263c0-.55228.4477-1 1-1s1 .44772 1 1v5.65683c0 .5523-.4477 1-1 1h-5.65683c-.55228 0-1-.4477-1-1s.44772-1 1-1h3.24263l-3.94973-3.94972c-.39053-.39052-.39053-1.02369 0-1.41421z" fill="#801ed7" fill-rule="evenodd"/></svg>