<svg fill="none" height="24" viewBox="0 0 24 24" width="24" xmlns="http://www.w3.org/2000/svg"><path d="m9.27574 1.33995c.49915-.12718.74876-.19077 1.01656-.10893.2137.06532.4462.24602.5623.437.1454.2393.1454.53536.1454 1.12748v10.7903l-2.29289-2.2929c-.39053-.3905-1.02369-.3905-1.41422 0-.39052.3905-.39052 1.0237 0 1.4142l4.00001 4c.3905.3905 1.0237.3905 1.4142 0l4-4c.3905-.3905.3905-1.0237 0-1.4142s-1.0237-.3905-1.4142 0l-2.2929 2.2929v-10.7903c0-.59212 0-.88818.1454-1.12748.1161-.19098.3486-.37168.5623-.437.2678-.08184.5174-.01825 1.0166.10893 4.7574 1.21214 8.2757 5.52522 8.2757 10.66005 0 6.0751-4.9249 11-11 11-6.07513 0-11-4.9249-11-11 0-5.13483 3.51831-9.44791 8.27574-10.66005z" fill="#801ed7"/></svg>