<svg fill="none" height="24" viewBox="0 0 24 24" width="24" xmlns="http://www.w3.org/2000/svg"><path clip-rule="evenodd" d="m13.6173 4.07615c.3737-.15478.8038-.06923 1.0898.21677l7 6.99998c.3905.3905.3905 1.0237 0 1.4142l-7 7c-.286.286-.7161.3716-1.0898.2168-.3736-.1548-.6173-.5194-.6173-.9239v-3c-3.07436 0-6.14874-.0011-9.22312 0-.11911.0001-.26138.0001-.3867-.0101-.14522-.0119-.35321-.0423-.57115-.1534-.28225-.1438-.51172-.3732-.65553-.6555-.11105-.2179-.14149-.4259-.15335-.5711-.01024-.1254-.01019-.2676-.01014-.3867.00056-1.4821.00056-2.9642 0-4.44631-.00005-.11912-.0001-.26137.01014-.38669.01186-.14522.0423-.35321.15335-.57116.14381-.28224.37328-.51171.65553-.65552.21794-.11105.42593-.14149.57115-.15336.12532-.01024.26758-.01018.38669-.01014 3.07438.00122 6.14876.00001 9.22313.00001v-3c0-.40446.2437-.7691.6173-.92388z" fill="#801ed7" fill-rule="evenodd"/></svg>