<svg fill="none" height="24" viewBox="0 0 24 24" width="24" xmlns="http://www.w3.org/2000/svg"><path clip-rule="evenodd" d="m9.77689 2.00001c1.48211.00056 2.96421.00056 4.44631 0 .1191-.00005.2613-.0001.3867.01014.1452.01186.3532.0423.5711.15335.2823.14381.5117.37328.6555.65553.1111.21794.1415.42593.1534.57115.0102.12532.0102.26759.0101.3867v.02313 9.19999h3c.4045 0 .7691.2437.9239.6173.1548.3737.0692.8038-.2168 1.0898l-7 7c-.3905.3905-1.0237.3905-1.4142 0l-6.99998-7c-.286-.286-.37155-.7161-.21677-1.0898.15478-.3736.51942-.6173.92388-.6173h3v-9.19999c0-.0076 0-.01532-.00001-.02314-.00004-.11911-.0001-.26137.01014-.38669.01187-.14522.04231-.35321.15336-.57115.14381-.28225.37328-.51172.65552-.65553.21795-.11105.42594-.14149.57116-.15335.12532-.01024.26757-.01019.38669-.01014z" fill="#801ed7" fill-rule="evenodd"/></svg>