<svg fill="none" height="24" viewBox="0 0 24 24" width="24" xmlns="http://www.w3.org/2000/svg"><path d="m2.53587 6.38856c.26302-.44289.39453-.66433.64178-.79582.19731-.10494.48949-.14158.7066-.0886.27205.06637.4814.27572.90009.69441l7.62986 7.62985h-3.24263c-.55228 0-1 .4477-1 1s.44772 1 1 1h5.65683c.5523 0 1-.4477 1-1v-5.65683c0-.55228-.4477-1-1-1s-1 .44772-1 1v3.24263l-7.62985-7.62986c-.41869-.41869-.62803-.62804-.69441-.90009-.05298-.21711-.01634-.50929.0886-.7066.13149-.24725.35293-.37876.79582-.64178 4.22114-2.5068988 9.75874-1.944912 13.38964 1.68596 4.2957 4.29576 4.2957 11.26057 0 15.55637-4.2958 4.2957-11.26061 4.2957-15.55637 0-3.630872-3.6309-4.1928584-9.1685-1.68596-13.38964z" fill="#801ed7"/></svg>