<svg fill="none" height="24" viewBox="0 0 24 24" width="24" xmlns="http://www.w3.org/2000/svg"><path d="m22.66 9.27574c.1272.49915.1908.74876.109 1.01656-.0654.2137-.246.4462-.437.5623-.2393.1454-.5354.1454-1.1275.1454h-10.7903l2.2929-2.29289c.3905-.39053.3905-1.02369 0-1.41422-.3905-.39052-1.0237-.39052-1.4142 0l-4.00001 4.00001c-.39052.3905-.39052 1.0237 0 1.4142l4.00001 4c.3905.3905 1.0237.3905 1.4142 0s.3905-1.0237 0-1.4142l-2.2929-2.2929h10.7903c.5921 0 .8882 0 1.1275.1454.191.1161.3716.3486.437.5623.0818.2678.0182.5174-.109 1.0166-1.2121 4.7574-5.5252 8.2757-10.66 8.2757-6.07513 0-11-4.9249-11-11 0-6.07513 4.92487-11 11-11 5.1348 0 9.4479 3.51831 10.66 8.27574z" fill="#801ed7"/></svg>