<svg fill="none" height="24" viewBox="0 0 24 24" width="24" xmlns="http://www.w3.org/2000/svg"><path clip-rule="evenodd" d="m10.3827 4.07615c.3737.15478.6173.51942.6173.92388v3l9.2231-.00001c.1192-.00004.2614-.0001.3867.01014.1452.01187.3532.04231.5712.15336.2822.14381.5117.37328.6555.65552.1111.21795.1415.42594.1534.57116.0102.12531.0102.26757.0101.38668-.0007 1.48212-.0007 2.96422 0 4.44632.0001.1191.0001.2613-.0101.3867-.0119.1452-.0423.3532-.1534.5711-.1438.2823-.3733.5117-.6555.6555-.218.1111-.426.1415-.5712.1534-.1253.0102-.2676.0102-.3867.0101h-9.2231v3c0 .4045-.2436.7691-.6173.9239s-.80381.0692-1.08981-.2168l-7-7c-.39052-.3905-.39052-1.0237 0-1.4142l7-6.99998c.286-.286.71611-.37155 1.08981-.21677z" fill="#801ed7" fill-rule="evenodd"/></svg>