<svg fill="none" height="24" viewBox="0 0 24 24" width="24" xmlns="http://www.w3.org/2000/svg"><path d="m17.6114 2.53587c.4429.26302.6644.39453.7959.64178.1049.19731.1415.48949.0886.7066-.0664.27205-.2758.4814-.6944.90009l-7.6299 7.62986v-3.24263c0-.55228-.44774-1-1.00003-1-.55228 0-1 .44772-1 1v5.65683c0 .5523.44772 1 1 1h5.65683c.5523 0 1-.4477 1-1s-.4477-1-1-1h-3.2426l7.6299-7.62985c.4187-.41869.628-.62803.9001-.69441.2171-.05298.5092-.01634.7066.0886.2472.13149.3787.35293.6417.79582 2.5069 4.22114 1.9449 9.75874-1.6859 13.38964-4.2958 4.2957-11.26061 4.2957-15.55637 0-4.2957717-4.2958-4.2957715-11.26061-.00001-15.55637 3.63087-3.630872 9.16848-4.1928584 13.38958-1.68596z" fill="#801ed7"/></svg>