<svg fill="none" height="24" viewBox="0 0 24 24" width="24" xmlns="http://www.w3.org/2000/svg"><path clip-rule="evenodd" d="m19.7782 19.7782c4.2957-4.2958 4.2957-11.26061 0-15.55637-4.2958-4.2957719-11.26061-4.2957719-15.55637 0-4.2957719 4.29576-4.2957719 11.26057 0 15.55637 4.29576 4.2957 11.26057 4.2957 15.55637 0zm-4.2427-4.2427c-.3905.3906-1.0237.3906-1.4142 0l-3.9497-3.9497v3.2426c0 .5523-.44774 1-1.00003 1-.55228 0-1-.4477-1-1v-5.65683c0-.55228.44772-1 1-1h5.65683c.5523 0 1 .44772 1 1 0 .55229-.4477 1.00003-1 1.00003h-3.2426l3.9497 3.9497c.3906.3905.3906 1.0237 0 1.4142z" fill="#801ed7" fill-rule="evenodd"/></svg>