<svg fill="none" height="24" viewBox="0 0 24 24" width="24" xmlns="http://www.w3.org/2000/svg"><path d="m6.38856 21.4641c-.44289-.263-.66433-.3945-.79582-.6417-.10494-.1974-.14158-.4895-.0886-.7066.06638-.2721.27572-.4814.69441-.9001l7.62985-7.6299v3.2426c0 .5523.4477 1 1 1s1-.4477 1-1v-5.65683c0-.55228-.4477-1-1-1h-5.65683c-.55228 0-1 .44772-1 1 0 .55229.44772 1.00003 1 1.00003h3.24263l-7.62986 7.6299c-.41869.4186-.62804.628-.90009.6944-.21711.0529-.50929.0163-.7066-.0886-.24725-.1315-.37876-.353-.64178-.7959-2.5068986-4.2211-1.944912-9.75871 1.68596-13.38957 4.29576-4.2957712 11.26057-4.2957719 15.55637-.00001 4.2957 4.29577 4.2957 11.26058 0 15.55638-3.6309 3.6308-9.1685 4.1928-13.38964 1.6859z" fill="#801ed7"/></svg>