<svg fill="none" height="24" viewBox="0 0 24 24" width="24" xmlns="http://www.w3.org/2000/svg"><g fill="#801ed7"><path d="m10.8072 2.08277c.761-.32976 1.6246-.32976 2.3856 0 .5339.23137.9206.65017 1.2516 1.09478.3258.43777.6843 1.02435 1.1143 1.72808l.995 1.62823.4804-1.79261c.1429-.53347.6912-.85005 1.2247-.70711s.8501.69128.7071 1.22474l-1.0981 4.09808c-.1429.53347-.6912.85004-1.2247.70714l-4.0981-1.09811c-.5334-.14294-.85-.69128-.7071-1.22474.143-.53347.6913-.85005 1.2248-.70711l1.7374.46554-.9229-1.51015c-.4616-.75532-.7727-1.26242-1.0372-1.61778-.2657-.35699-.3952-.43342-.4424-.45386-.2537-.10992-.5415-.10992-.7952 0-.0472.02044-.1767.09687-.4425.45386-.2645.35536-.5756.86246-1.0371 1.61779l-1.01986 1.6688c-.28799.47125-.90348.61982-1.37473.33183-.47126-.28799-.61983-.90348-.33184-1.37473l1.04489-1.70982c.43003-.70373.78848-1.2903 1.11433-1.72807.33095-.44461.71761-.86341 1.25161-1.09478z"/><path d="m3.09638 13.6519.95899-1.5693-1.79655.4814c-.53346.1429-1.0818-.1736-1.22474-.7071-.142944-.5335.17364-1.0818.70711-1.2247l4.09807-1.09812c.25618-.06865.52914-.03271.75882.0999s.39728.35102.46593.60722l.00596.0222c.01978.0545.03481.1106.04492.1677l1.04719 3.9082c.14294.5334-.17364 1.0818-.7071 1.2247-.53347.1429-1.08181-.1736-1.22475-.7071l-.46525-1.7364-.9364 1.5323c-.49662.8127-.83202 1.3635-1.04294 1.7923-.21402.4352-.21991.594-.2157.6421.025.2858.17154.5471.40237.7174.03885.0287.17739.1065.66031.1508.47594.0436 1.1208.0446 2.07318.0446h1.79422c.55228 0 1 .4477 1 1s-.44772 1-1 1h-1.84338c-.89076 0-1.6283.0001-2.20673-.053-.58206-.0534-1.17458-.1711-1.66525-.5332-.69249-.5111-1.13211-1.295-1.20712-2.1523-.05314-.6076.15544-1.1745.41339-1.699.25635-.5212.64095-1.1506 1.10545-1.9106z"/><path d="m19.8811 11.9786c-.288-.4713-.9035-.6198-1.3748-.3319-.4712.288-.6198.9035-.3318 1.3748l.9969 1.6313c.4967.8127.8321 1.3634 1.043 1.7923.214.4352.2199.594.2157.6421-.025.2858-.1716.5471-.4024.7174-.0388.0287-.1774.1064-.6603.1508-.4759.0436-1.1208.0446-2.0732.0446h-2.38l1.2929-1.2929c.3905-.3905.3905-1.0237 0-1.4142s-1.0237-.3905-1.4142 0l-3 3c-.3905.3905-.3905 1.0237 0 1.4142l3 3c.3905.3905 1.0237.3905 1.4142 0s.3905-1.0237 0-1.4142l-1.2929-1.2929h2.4292c.8907 0 1.6283.0001 2.2067-.053.5821-.0534 1.1746-.1711 1.6653-.5332.6924-.5111 1.1321-1.295 1.2071-2.1523.0531-.6076-.1555-1.1745-.4134-1.699-.2563-.5212-.6409-1.1504-1.1053-1.9103z"/></g></svg>