<svg fill="none" height="24" viewBox="0 0 24 24" width="24" xmlns="http://www.w3.org/2000/svg"><path clip-rule="evenodd" d="m11.2929 2.29289c.3905-.39052 1.0237-.39052 1.4142 0l7 7c.286.286.3716.71611.2168 1.08981s-.5194.6173-.9239.6173h-3v9.2231c.0001.1191.0001.2614-.0101.3867-.0119.1452-.0423.3532-.1534.5712-.1438.2822-.3732.5117-.6555.6555-.2179.1111-.4259.1415-.5711.1534-.1254.0102-.2676.0102-.3867.0101-1.4821-.0007-2.9642-.0007-4.44632 0-.11911.0001-.26137.0001-.38668-.0101-.14522-.0119-.35321-.0423-.57116-.1534-.28224-.1438-.51171-.3733-.65552-.6555-.11105-.218-.14149-.426-.15336-.5712-.01024-.1253-.01018-.2675-.01014-.3867l.00001-9.2231h-3c-.40446 0-.7691-.2436-.92388-.6173s-.06923-.80381.21677-1.08981z" fill="#801ed7" fill-rule="evenodd"/></svg>