<svg fill="none" height="24" viewBox="0 0 24 24" width="24" xmlns="http://www.w3.org/2000/svg"><path clip-rule="evenodd" d="m12 23c6.0751 0 11-4.9249 11-11 0-6.07513-4.9249-11-11-11-6.07513-.000001-11 4.92487-11 11-.000001 6.0751 4.92487 11 11 11zm0-6c-.5523 0-1-.4477-1-1v-5.5858l-2.29289 2.2929c-.39053.3905-1.02369.3905-1.41422 0-.39052-.3905-.39052-1.0237 0-1.4142l4.00001-4.00001c.3905-.39052 1.0237-.39052 1.4142 0l4 4.00001c.3905.3905.3905 1.0237 0 1.4142s-1.0237.3905-1.4142 0l-2.2929-2.2929v5.5858c0 .5523-.4477 1-1 1z" fill="#801ed7" fill-rule="evenodd"/></svg>