<svg fill="none" height="24" viewBox="0 0 24 24" width="24" xmlns="http://www.w3.org/2000/svg"><path d="m21.4641 17.6114c-.263.4429-.3945.6644-.6417.7959-.1974.1049-.4895.1415-.7066.0886-.2721-.0664-.4814-.2758-.9001-.6944l-7.6299-7.6299h3.2426c.5523 0 1-.44774 1-1.00003 0-.55228-.4477-1-1-1h-5.65683c-.55228 0-1 .44772-1 1v5.65683c0 .5523.44772 1 1 1 .55229 0 1.00003-.4477 1.00003-1v-3.2426l7.6299 7.6299c.4186.4187.628.628.6944.9001.0529.2171.0163.5092-.0886.7066-.1315.2472-.353.3787-.7959.6417-4.2211 2.5069-9.75871 1.9449-13.38958-1.6859-4.2957615-4.2958-4.2957617-11.26061.00001-15.55637 4.29576-4.2957717 11.26057-4.2957715 15.55637-.00001 3.6308 3.63087 4.1928 9.16848 1.6859 13.38958z" fill="#801ed7"/></svg>