<svg fill="none" height="24" viewBox="0 0 24 24" width="24" xmlns="http://www.w3.org/2000/svg"><path d="m13 2c0-.55228-.4477-1-1-1s-1 .44772-1 1v7.58582l-5.36397-5.36397c-.39052-.39053-1.02369-.39053-1.41421 0-.39053.39052-.39053 1.02369 0 1.41421l5.36394 5.36394h-7.58576c-.55228 0-1 .4477-1 1s.44772 1 1 1h7.5858l-5.36398 5.364c-.39053.3905-.39053 1.0237 0 1.4142.39052.3905 1.02369.3905 1.41421 0l5.36397-5.364v7.5858c0 .5523.4477 1 1 1s1-.4477 1-1v-7.5858l5.364 5.364c.3905.3905 1.0236.3905 1.4142 0 .3905-.3905.3905-1.0237 0-1.4142l-5.364-5.364h7.5858c.5523 0 1-.4477 1-1s-.4477-1-1-1h-7.5858l5.364-5.36394c.3905-.39052.3905-1.02369 0-1.41421-.3906-.39053-1.0237-.39053-1.4142 0l-5.364 5.36395z" fill="#801ed7"/></svg>