<svg fill="none" height="24" viewBox="0 0 24 24" width="24" xmlns="http://www.w3.org/2000/svg"><path d="m13 4c0-.55228-.4477-1-1-1s-1 .44772-1 1v5.58579l-4.29289-4.2929c-.39053-.39052-1.02369-.39052-1.41422 0-.39052.39053-.39052 1.02369 0 1.41422l4.2929 4.29289h-5.58579c-.55228 0-1 .4477-1 1s.44772 1 1 1h5.58579l-4.2929 4.2929c-.39052.3905-.39052 1.0237 0 1.4142.39053.3905 1.02369.3905 1.41422 0l4.29289-4.2929v5.5858c0 .5523.4477 1 1 1s1-.4477 1-1v-5.5858l4.2929 4.2929c.3905.3905 1.0237.3905 1.4142 0s.3905-1.0237 0-1.4142l-4.2929-4.2929h5.5858c.5523 0 1-.4477 1-1s-.4477-1-1-1h-5.5858l4.2929-4.29289c.3905-.39053.3905-1.02369 0-1.41422-.3905-.39052-1.0237-.39052-1.4142 0l-4.2929 4.2929z" fill="#801ed7"/></svg>