<svg fill="none" height="24" viewBox="0 0 24 24" width="24" xmlns="http://www.w3.org/2000/svg"><path clip-rule="evenodd" d="m14.4999 1.28845c-2.4177-.564216-4.95518-.293976-7.19982.76678-2.24465 1.06076-4.06445 2.84965-5.1635 5.07579-1.09906 2.22615-1.412722 4.75858-.89 7.18568.52272 2.427 1.85109 4.6058 3.76911 6.1821 1.91802 1.5764 4.31288 2.4575 6.79521 2.5002 2.4823.0427 4.906-.7556 6.8771-2.2651.4385-.3358.5217-.9634.1859-1.4019s-.9634-.5217-1.4019-.1859c-1.6127 1.235-3.5958 1.8881-5.6267 1.8532-2.03102-.0349-3.99045-.7559-5.55974-2.0456s-2.65613-3.0724-3.08381-5.0581c-.42769-1.9858-.17105-4.0578.72818-5.8792.89922-1.82139 2.38815-3.28502 4.22468-4.15292 1.83653-.86789 3.91269-1.08899 5.89079-.62736 1.9781.46164 3.7419 1.57886 5.0045 3.17001 1.2627 1.59114 1.95 3.56267 1.9501 5.59397v.9999c0 .5304-.2107 1.0391-.5858 1.4142s-.8838.5858-1.4142.5858-1.0391-.2107-1.4142-.5858-.5858-.8838-.5858-1.4142v-5.00001c0-.55228-.4477-1-1-1-.5522 0-.9998.44753-1 .99965-.8357-.62769-1.8744-.99964-3-.99964-2.76142 0-5 2.23858-5 5 0 2.7614 2.23858 5 5 5 1.4881 0 2.8244-.6501 3.7403-1.6817.1284.1806.2725.3513.4313.5101.7501.7502 1.7675 1.1716 2.8284 1.1716s2.0783-.4214 2.8284-1.1716c.7502-.7501 1.1716-1.7675 1.1716-2.8284v-1.0001c-.0002-2.48264-.8402-4.89225-2.3834-6.83699-1.5433-1.94474-3.699-3.31023-6.1167-3.87446zm.5001 10.70735v.0084c-.0023 1.6549-1.3445 2.9958-3 2.9958-1.6569 0-3-1.3431-3-3s1.3431-3 3-3c1.6555 0 2.9977 1.3409 3 2.9958z" fill="#801ed7" fill-rule="evenodd"/></svg>