<svg fill="none" height="24" viewBox="0 0 24 24" width="24" xmlns="http://www.w3.org/2000/svg"><g fill="#801ed7"><path d="m12 10c-1.1046 0-2 .8954-2 2s.8954 2 2 2 2-.8954 2-2-.8954-2-2-2z"/><path clip-rule="evenodd" d="m2.56138 9.80291c.21349.72589.50948 1.47009.88207 2.21789-.74972 1.5049-1.20125 3.0192-1.27397 4.4113-.08048 1.5408.3047 3.0126 1.36603 4.0739 1.55164 1.5517 3.944 1.6575 6.26745.9741.72584-.2135 1.47004-.5094 2.21784-.882.7477.3726 1.492.6685 2.2178.882 2.3234.6834 4.7158.5776 6.2674-.9741 1.5517-1.5516 1.6575-3.944.9741-6.2674-.2135-.7258-.5094-1.4701-.882-2.2178.7785-1.5626 1.2374-3.13973 1.281-4.5806.0446-1.47818-.351-2.88266-1.373-3.90473-1.5517-1.55164-3.944-1.65745-6.2675-.97409-.7258.21348-1.47.50946-2.2178.88204-.7478-.37258-1.4921-.66856-2.21789-.88204-2.32344-.68336-4.71581-.57755-6.26744.97409-1.55164 1.55163-1.65745 3.944-.97409 6.26744zm6.6772-5.3228c-2.02724-.59624-3.49739-.32194-4.2889.46957s-1.06581 2.26166-.46957 4.2889c.58409 1.98592 1.95222 4.26482 4.0051 6.31772 1.13851 1.1385 2.34659 2.0664 3.53559 2.7667 1.189-.7003 2.397-1.6282 3.5355-2.7667.2827-.2827.5527-.57.8099-.8608.3659-.4136.9978-.4524 1.4115-.0865s.4525.9979.0866 1.4116c-.2843.3213-.5823.6385-.8938.9499-.9035.9036-1.8585 1.6981-2.8315 2.3703.2244.0829.4459.1565.6639.2206 2.0272.5962 3.4974.3219 4.2889-.4696s1.0658-2.2617.4696-4.2889c-.5841-1.9859-1.9522-4.2648-4.0051-6.31769-1.1385-1.1385-2.3465-2.06639-3.5355-2.76674-1.189.70035-2.39705 1.62824-3.53555 2.76674-.29546.29547-.57719.59609-.84477.90033-.36473.41471-.9966.45522-1.41131.09049-.41471-.36474-.45523-.99661-.09049-1.41132.29584-.33638.60679-.66814.93236-.99371.90355-.90355 1.85855-1.69809 2.83152-2.37029-.2244-.0829-.44596-.15647-.66398-.2206zm-2.16758 12.49039c.90356.9036 1.85857 1.6981 2.83155 2.3703-.22439.0829-.44592.1565-.66393.2206-2.02723.5962-3.49739.3219-4.2889-.4696-.54507-.5451-.84364-1.3937-.78296-2.5554.03771-.722.21483-1.5334.53395-2.3974.6722.9729 1.46674 1.9279 2.37029 2.8315zm12.809-9.5907c-.0227.75159-.2008 1.60686-.5392 2.5228-.6722-.973-1.4667-1.92803-2.3703-2.8316-.9036-.90355-1.8586-1.69809-2.8315-2.37029.2244-.0829.4459-.15647.664-.2206 2.0272-.59624 3.4974-.32194 4.2889.46957.5256.52567.8213 1.33188.7881 2.43012z" fill-rule="evenodd"/></g></svg>