<svg fill="none" height="24" viewBox="0 0 24 24" width="24" xmlns="http://www.w3.org/2000/svg"><g fill="#801ed7"><path d="m12 10.5c-.8284 0-1.5.6716-1.5 1.5s.6716 1.5 1.5 1.5 1.5-.6716 1.5-1.5-.6716-1.5-1.5-1.5z"/><path clip-rule="evenodd" d="m15.1192 2.57528c-.998.41095-2.0512.97941-3.1193 1.68534-1.068-.7059-2.12118-1.27433-3.11918-1.68527-1.16012-.4777-2.29329-.76228-3.31553-.76995-1.02718-.0077-2.02313.26776-2.75761 1.00224s-1.00994 1.73043-1.00224 2.75761c.00767 1.02224.29226 2.15541.76995 3.31553.41094.998.97938 2.05122 1.68528 3.11922-.70591 1.068-1.27434 2.1212-1.68529 3.1192-.4777 1.1601-.76228 2.2933-.76995 3.3155-.0077 1.0272.26776 2.0232 1.00224 2.7576.73448.7345 1.73043 1.01 2.75761 1.0023 1.02224-.0077 2.15541-.2923 3.31553-.77.998-.4109 2.05119-.9793 3.11919-1.6852 1.0681.7059 2.1213 1.2744 3.1193 1.6853 1.1601.4777 2.2933.7623 3.3155.77 1.0272.0077 2.0232-.2678 2.7577-1.0023.7344-.7345 1.0099-1.7304 1.0022-2.7576-.0077-1.0222-.2923-2.1554-.77-3.3155-.4109-.998-.9794-2.0513-1.6853-3.1193.7059-1.068 1.2744-2.12127 1.6853-3.11929.4777-1.16012.7623-2.29329.77-3.31553.0077-1.02718-.2678-2.02313-1.0023-2.75761-.7344-.73448-1.7304-1.00994-2.7576-1.00224-1.0222.00767-2.1554.29225-3.3155.76995zm.7615 1.84936c-.677.27877-1.3969.64746-2.1402 1.09966.845.66897 1.6856 1.4166 2.5021 2.23309.8165.81646 1.5641 1.65706 2.233 2.50201.4522-.74329.8209-1.46317 1.0997-2.14019.418-1.01522.6142-1.88654.6193-2.56903.0051-.67754-.1746-1.08656-.4165-1.32839-.2418-.24184-.6508-.4216-1.3284-.41651-.6825.00512-1.5538.20133-2.569.61936zm-11.45605 3.69464c.27876.67699.64743 1.39685 1.0996 2.14012.66897-.84498 1.41659-1.6856 2.23307-2.50208.81646-.81646 1.65706-1.56406 2.50208-2.23301-.74334-.45217-1.46319-.82084-2.14018-1.0996-1.01522-.41803-1.88654-.61424-2.56903-.61936-.67754-.00509-1.08656.17467-1.32839.41651-.24184.24183-.42159.65085-.41651 1.32839.00512.68249.20133 1.55381.61936 2.56903zm4.74688 1.05225c-.93177.93177-1.75709 1.88657-2.46412 2.82847.70703.9419 1.53235 1.8967 2.46413 2.8285.93176.9317 1.88646 1.757 2.82836 2.464.9419-.707 1.8967-1.5323 2.8285-2.4641.9317-.9318 1.757-1.8865 2.4641-2.8284-.7071-.9419-1.5323-1.8966-2.4641-2.8284-.9318-.93178-1.8866-1.7571-2.8285-2.46413-.9419.70701-1.8966 1.53231-2.82837 2.46406zm-4.74689 6.70917c.27876-.677.64743-1.3969 1.09961-2.1402.66897.8451 1.4166 1.6857 2.23308 2.5022.81645.8164 1.65705 1.564 2.50207 2.233-.74334.4521-1.4632.8208-2.14019 1.0996-1.01522.418-1.88654.6142-2.56903.6193-.67754.0051-1.08656-.1746-1.32839-.4165-.24184-.2418-.42159-.6508-.41651-1.3284.00512-.6825.20133-1.5538.61936-2.569zm11.45606 3.6947c-.677-.2788-1.3969-.6475-2.1402-1.0997.845-.669 1.6856-1.4166 2.5021-2.2331s1.5641-1.6571 2.233-2.5021c.4522.7434.8209 1.4633 1.0997 2.1403.418 1.0152.6142 1.8865.6194 2.569.005.6775-.1747 1.0866-.4166 1.3284-.2418.2418-.6508.4216-1.3284.4165-.6824-.0051-1.5538-.2013-2.569-.6193z" fill-rule="evenodd"/></g></svg>