<svg fill="none" height="24" viewBox="0 0 24 24" width="24" xmlns="http://www.w3.org/2000/svg"><path clip-rule="evenodd" d="m17.9705 4.18194c-.9763-.97631-2.5592-.97631-3.5355 0l-9.01564 9.01566c-1.65973 1.6597-1.65973 4.3506 0 6.0104 1.65972 1.6597 4.35068 1.6597 6.01044 0l9.0156-9.0157c.3905-.39048 1.0237-.39048 1.4142 0 .3905.3906.3905 1.0237 0 1.4143l-9.0156 9.0156c-2.4408 2.4407-6.39808 2.4407-8.83886 0-2.44077-2.4408-2.44077-6.3981 0-8.8389l9.01566-9.01557c1.7573-1.75736 4.6066-1.75736 6.3639 0 1.7574 1.75736 1.7574 4.6066 0 6.36396l-8.662 8.66201c-1.07398 1.074-2.81519 1.074-3.88913 0-1.07394-1.0739-1.07394-2.8151 0-3.889l7.60143-7.60144c.3905-.39052 1.0237-.39052 1.4142 0s.3905 1.02369 0 1.41421l-7.60142 7.60143c-.29289.2929-.29289.7677 0 1.0606.2929.2929.76777.2929 1.06066 0l8.66206-8.66203c.9763-.97631.9763-2.55922 0-3.53553z" fill="#801ed7" fill-rule="evenodd"/></svg>