<svg fill="none" height="24" viewBox="0 0 24 24" width="24" xmlns="http://www.w3.org/2000/svg"><path clip-rule="evenodd" d="m10.1667 3c-1.47279 0-2.6667 1.19391-2.6667 2.66667v10.83333c0 2.4853 2.01472 4.5 4.5 4.5 2.4853 0 4.5-2.0147 4.5-4.5v-11.24419c0-.55228.4477-1 1-1s1 .44772 1 1v11.24419c0 3.5899-2.9101 6.5-6.5 6.5-3.58985 0-6.5-2.9101-6.5-6.5v-10.83333c0-2.57733 2.08934-4.66667 4.6667-4.66667 2.5773 0 4.6666 2.08934 4.6666 4.66667v10.77903c0 1.5648-1.2685 2.8334-2.8333 2.8334s-2.83333-1.2686-2.83333-2.8334v-9.79454c0-.55228.44771-1 1.00003-1 .5523 0 1 .44772 1 1v9.79454c0 .4603.3731.8334.8333.8334s.8333-.3731.8333-.8334v-10.77903c0-1.47276-1.1939-2.66667-2.6666-2.66667z" fill="#801ed7" fill-rule="evenodd"/></svg>