<svg fill="none" height="24" viewBox="0 0 24 24" width="24" xmlns="http://www.w3.org/2000/svg"><path clip-rule="evenodd" d="m7.16153 1h9.67707c.5271-.000016.9819-.000031 1.3565.03057.3953.0323.7886.10362 1.1669.29641.5645.28762 1.0235.74656 1.3111 1.31105.1928.37838.2641.7716.2964 1.16694.0306.37457.0306.82933.0306 1.35647v.7866c.0003.34661.0005.65236-.0613.95353-.0543.26479-.1442.52102-.2672.76173-.1399.27379-.3311.51239-.5478.78289l-3.647 4.55871c2.1062 2.356 2.0282 5.9754-.2342 8.2377-2.3431 2.3432-6.1421 2.3432-8.48524 0-2.26234-2.2623-2.34035-5.8818-.23405-8.2378l-3.64698-4.55863c-.21674-.27049-.40793-.50909-.5478-.78287-.12298-.24071-.21286-.49694-.2672-.76173-.06181-.30117-.06157-.60692-.06129-.95353l.00003-.78658c-.00002-.52715-.00003-.98191.03057-1.35649.0323-.39534.10362-.78856.29641-1.16694.28762-.56449.74657-1.02343 1.31105-1.31105.37838-.19279.7716-.26411 1.16695-.29641.37456-.030601.82935-.030586 1.35648-.03057zm4.83847 9.3712 4.7229-6.07224c.3223-.41432.4834-.62148.4819-.7954-.0013-.15131-.071-.29389-.1897-.3878-.1363-.10795-.3988-.10795-.9237-.10795h-8.18274c-.52489 0-.78733 0-.92371.10795-.11864.09391-.18838.23649-.18967.3878-.00148.17393.15965.38108.4819.7954z" fill="#801ed7" fill-rule="evenodd"/></svg>