<svg fill="none" height="24" viewBox="0 0 24 24" width="24" xmlns="http://www.w3.org/2000/svg"><path clip-rule="evenodd" d="m12 1c-4.41828 0-8 3.58172-8 8 0 2.4797 1.1282 4.6959 2.89929 6.1633l-.89056 6.705c-.05056.3806.12131.7566.44226.9675.32094.2108.73426.2192 1.06353.0217l4.48548-2.6914 4.4855 2.6914c.3293.1975.7426.1891 1.0635-.0217s.4928-.5867.4423-.9674l-.8897-6.7059c1.7706-1.4674 2.8984-3.6832 2.8984-6.1625 0-4.41828-3.5817-8-8-8zm-3.23654 15.3183c.98955.4382 2.08464.6817 3.23654.6817 1.1523 0 2.2476-.2436 3.2374-.6821l.4985 3.7574-2.8098-1.6859-.029-.0177c-.1054-.0646-.3238-.1985-.5753-.2537-.212-.0466-.4315-.0466-.6435 0-.2516.0552-.47.1891-.5753.2537l-.0291.0177-2.80943 1.6857z" fill="#801ed7" fill-rule="evenodd"/></svg>