<svg fill="none" height="24" viewBox="0 0 24 24" width="24" xmlns="http://www.w3.org/2000/svg"><path clip-rule="evenodd" d="m17.3345 3.83125c.0054.0117.0106.02355.0155.03553.0531.1284.1549.23047.2832.28383l1.3084.542c.6186.25623 1.11.74769 1.3662 1.36626.2563.61857.2563 1.31359 0 1.93216l-.5417 1.30799c-.0535.12908-.0532.27324-.0002.40041l.0009.00211.5405 1.30686c.127.3063.1924.6347.1924.9664.0001.3317-.0652.6601-.1921.9665s-.313.5848-.5475.8193c-.2345.2344-.5129.4203-.8192.5471l-1.3079.5418c-.1285.0532-.2313.1554-.2846.2838l-.1898.4584.8327 6.2768c.0505.3807-.1214.7566-.4423.9674s-.7342.2192-1.0635.0216l-4.4855-2.6913-4.48548 2.6913c-.32927.1976-.74259.1892-1.06353-.0217-.32095-.2108-.49282-.5868-.44226-.9674l.8333-6.2739-.19113-.4614c-.05306-.1283-.15509-.231-.28327-.2843l-1.30858-.5421c-.6183-.2561-1.10959-.7473-1.3659-1.3655-.2563-.6182-.25665-1.3129-.00096-1.9313l.54169-1.30785c.05299-.12846.05295-.27299-.0003-.40134l-.54111-1.31015c-.12685-.3062-.19242-.635-.19247-.96643-.00005-.33165.06524-.66006.19216-.96648.12691-.30641.31296-.58481.54751-.81929.23447-.23441.51283-.42033.81916-.54716l1.30795-.54179c.12823-.05302.2308-.15494.28422-.28302l.54175-1.30795c.25621-.61858.74765-1.11004 1.36622-1.36627.61857-.256227 1.31359-.256227 1.93213 0l1.3072.54146c.1284.05298.2729.05295.4012-.00031l1.3102-.54037.0009-.00038c.6183-.255701 1.3127-.255521 1.9309.00053.6184.25618 1.1098.7475 1.3661 1.36591zm-8.76922 13.97915-.30081 2.2648 2.80943-1.6857.0291-.0177c.1053-.0646.3237-.1985.5753-.2538.212-.0465.4315-.0465.6435 0 .2515.0553.4699.1892.5753.2538l.029.0177 2.8098 1.6859-.3006-2.2656c-.6173.2541-1.3102.2534-1.9271-.0021l-1.3071-.5415c-.1285-.053-.2729-.0529-.4013.0003l-1.3099.5419c-.61616.2548-1.30811.2554-1.92462.002z" fill="#801ed7" fill-rule="evenodd"/></svg>