<svg fill="none" height="24" viewBox="0 0 24 24" width="24" xmlns="http://www.w3.org/2000/svg"><path clip-rule="evenodd" d="m12 1c-4.69442 0-8.5 3.80558-8.5 8.5 0 2.3525.95569 4.4818 2.5 6.0208v6.4793c0 .3318.1646.642.43937.828.27477.1861.62393.2237.93202.1004l4.62861-1.8514 4.6286 1.8514c.3081.1233.6573.0857.932-.1004.2748-.186.4394-.4962.4394-.828v-6.4793c1.5443-1.539 2.5-3.6683 2.5-6.0208 0-4.69442-3.8056-8.5-8.5-8.5zm-4 16.0019c1.19215.637 2.5539.9981 4 .9981s2.8079-.3611 4-.9981v3.5211l-3.3315-1.3326-.0215-.0087c-.0788-.0321-.2415-.0985-.4196-.1258-.1507-.0231-.3041-.0231-.4548 0-.1781.0273-.3408.0937-.4196.1258l-.0215.0087-3.3315 1.3326z" fill="#801ed7" fill-rule="evenodd"/></svg>