<svg fill="none" height="24" viewBox="0 0 24 24" width="24" xmlns="http://www.w3.org/2000/svg"><path clip-rule="evenodd" d="m2.43695 4.83157 3.49645 6.25673c-2.13858 2.9333-1.88415 7.0676.7633 9.715 2.92894 2.9289 7.6777 2.9289 10.6066 0 2.6475-2.6475 2.9019-6.7817.7633-9.715l3.4964-6.25673c.2012-.35987.3844-.6877.508-.96593.1261-.28373.261-.6633.2114-1.09432-.0643-.55923-.3613-1.06546-.8181-1.39442-.3521-.25354-.7492-.32094-1.0584-.34929-.3032-.027811-.6788-.027782-1.091-.027751l-2.3469-.000166c-.2569-.000913-.58-.002061-.8858.096437-.2646.08518-.5085.22456-.7161.40925-.2401.21355-.4031.4925-.5327.7143l-2.8334 4.80991-2.83337-4.80992c-.1296-.2218-.29259-.50074-.53272-.71429-.20766-.18469-.45154-.32407-.71608-.40925-.30588-.098498-.62895-.09735-.88584-.096437l-2.34689.000166c-.41226-.000031-.78782-.00006-1.091.027751-.30919.02835-.70634.09575-1.05841.34929-.4568.32896-.75381.83519-.81814 1.39442-.04958.43102.08533.81059.2114 1.09432.12363.27823.30686.60606.508.96593zm2.66475-1.82986c-.44697-.00056-.67046-.00084-.80134.09297-.1142.08185-.18869.20798-.20523.3475-.01897.15992.08918.35549.30547.74665l2.98476 5.3979c.89518-.70039 1.9128-1.16891 2.97174-1.40557l-2.82311-4.78385c-.08451-.14319-.12676-.21479-.18533-.26686-.05182-.04607-.11266-.08086-.17865-.10216-.07457-.02407-.15771-.02417-.32398-.02438zm11.5129 6.58502c-.8952-.70039-1.9128-1.16891-2.9718-1.40557l2.8232-4.78385c.0845-.14319.1268-.21479.1853-.26686.0518-.04607.1127-.08086.1787-.10216.0745-.02407.1577-.02417.324-.02438l1.7443-.0022c.447-.00056.6704-.00084.8013.09297.1142.08185.1887.20798.2053.3475.0189.15992-.0892.35549-.3055.74665zm-4.1426 2.53157c.3251.174.5281.5129.5281.8817v4h.2499c.5523 0 1 .4477 1 1s-.4477 1-1 1h-2.5c-.5523 0-1-.4477-1-1s.4477-1 1-1h.2501v-2.1339c-.453.2621-1.03769.1301-1.33204-.3114-.30636-.4595-.18218-1.0804.27735-1.3867l1.49999-1c.3069-.2046.7014-.2237 1.0266-.0497z" fill="#801ed7" fill-rule="evenodd"/></svg>