<svg fill="none" height="24" viewBox="0 0 24 24" width="24" xmlns="http://www.w3.org/2000/svg"><path clip-rule="evenodd" d="m7.67501 2h8.64999c.7663-.00001 1.3987-.00002 1.9147.04016.5356.0417 1.029.13114 1.4958.35597.8165.39317 1.4752 1.05191 1.8684 1.86834.2248.46686.3142.96018.3559 1.49581.0402.51599.0402 1.14845.0402 1.91474v.07997c0 1.03169 0 1.86385-.0525 2.53871-.0541.6947-.1683 1.306-.4427 1.8757-.1417.2944-.3111.5723-.5048.8306v4.8386c0 .5271 0 .9819-.0306 1.3564-.0323.3954-.1036.7886-.2964 1.167-.2876.5645-.7465 1.0234-1.311 1.311-.3784.1928-.7716.2641-1.167.2964-.3745.0306-.8293.0306-1.3564.0306h-9.67716c-.52714 0-.9819 0-1.35647-.0306-.39534-.0323-.78856-.1036-1.16694-.2964-.56449-.2876-1.02343-.7465-1.31105-1.311-.19279-.3784-.26411-.7716-.29641-1.167-.0306-.3745-.03059-.8293-.03057-1.3565v-4.8385c-.19374-.2583-.3631-.5362-.50484-.8306-.27435-.5697-.38854-1.181-.44263-1.8756-.05254-.67495-.05254-1.50711-.05253-2.53879v-.08003c-.00001-.76626-.00002-1.39872.04016-1.9147.0417-.53563.13114-1.02895.35597-1.49581.39317-.81643 1.05191-1.47517 1.86834-1.86834.46686-.22483.96018-.31427 1.49581-.35597.51598-.04018 1.14846-.04017 1.91473-.04016zm9.61879 12.9475c.6262-.0488 1.1848-.1464 1.7062-.3662v3.2187c0 .5766-.0008.9488-.0239 1.2322-.0222.2716-.0599.3723-.0851.4218-.0959.1882-.2488.3411-.437.437-.0495.0252-.1502.0629-.4218.0851-.2834.0231-.6556.0239-1.2322.0239h-9.6c-.57655 0-.94882-.0008-1.23216-.0239-.27166-.0222-.37238-.0599-.42183-.0851-.18816-.0959-.34114-.2488-.43701-.437-.0252-.0495-.06287-.1502-.08507-.4218-.02315-.2834-.02393-.6556-.02393-1.2322v-3.2187c.52139.2198 1.07999.3174 1.70625.3662.67491.0525 1.50707.0525 2.53877.0525h5.50998c1.0317 0 1.8638 0 2.5388-.0525zm-8.2938-5.9475c-.55228 0-1 .44772-1 1 0 .5523.44772 1 1 1h6c.5523 0 1-.4477 1-1 0-.55228-.4477-1-1-1z" fill="#801ed7" fill-rule="evenodd"/></svg>