<svg fill="none" height="24" viewBox="0 0 24 24" width="24" xmlns="http://www.w3.org/2000/svg"><path clip-rule="evenodd" d="m11.8253 2.03206c.1162-.01019.2332-.01019.3494 0 .1337.01173.2613.04026.3625.06291l7.4535 1.65636c.2004.04451.3996.08876.568.13938.188.0565.402.1386.6104.28875.2943.21205.5255.50018.6686.83352.1014.23602.1351.46267.1495.65844.0129.1754.0128.37948.0128.58478v1.17585c0 .2523.0001.49811-.0169.7062-.0187.22859-.0628.49833-.2011.76975-.1917.37632-.4977.68229-.874.87403-.2714.1383-.5412.18237-.7698.20104-.0444.00364-.0906.00649-.1382.00874v6.01639c.0476.0023.0938.0051.1382.0088.2286.0186.4984.0627.7698.201.3763.1917.6823.4977.874.874.1383.2714.1824.5412.2011.7698.017.208.0169.4539.0169.7062v.8641c0 .2523.0001.4981-.0169.7061-.0187.2286-.0628.4984-.2011.7698-.1917.3763-.4977.6823-.874.874-.2714.1383-.5412.1824-.7698.2011-.2081.017-.4539.0169-.7063.0169h-14.86379c-.25239 0-.49818.0001-.70633-.0169-.2286-.0187-.49833-.0628-.76976-.2011-.37632-.1917-.68228-.4977-.87403-.874-.1383-.2714-.18236-.5412-.20104-.7698-.01701-.2081-.01698-.4539-.01695-.7063v-.8638c-.00003-.2524-.00006-.4982.01695-.7063.01868-.2286.06274-.4984.20104-.7698.19175-.3763.49771-.6823.87403-.874.27143-.1383.54116-.1824.76976-.201.04445-.0037.09063-.0065.13822-.0088v-6.01639c-.04759-.00225-.09377-.0051-.13822-.00874-.2286-.01867-.49833-.06274-.76976-.20104-.37632-.19174-.68228-.49771-.87403-.87403-.1383-.27142-.18236-.54116-.20104-.76975-.01701-.20816-.01698-.45396-.01695-.70634v-1.17572c-.00002-.20529-.00005-.40937.01284-.58478.01437-.19576.0481-.42241.14946-.65843.14316-.33334.37429-.62147.66863-.83353.20842-.15014.42235-.23224.61033-.28874.16844-.05063.36766-.09487.56808-.13938l7.45346-1.65636c.1013-.02265.2288-.05118.3625-.06291zm-5.8253 7.96794v6h2.5v-6zm4.5 0v6h3v-6zm5 0v6h2.5v-6z" fill="#801ed7" fill-rule="evenodd"/></svg>