<svg fill="none" height="24" viewBox="0 0 24 24" width="24" xmlns="http://www.w3.org/2000/svg"><g fill="#801ed7"><path d="m12 10.5c-.8284 0-1.5.6716-1.5 1.5s.6716 1.5 1.5 1.5 1.5-.6716 1.5-1.5-.6716-1.5-1.5-1.5z"/><path clip-rule="evenodd" d="m17 3c-2.163 0-4.0384.54246-5.6691 1.04422l-.3045.09391c-1.54056.47559-2.79182.86187-4.02639.86187-.88584 0-1.67721-.09417-2.34349-.22219l-.03145-.00604c-.4881-.09379-.89803-.17257-1.21659-.21468-.27948-.03694-.69363-.08085-1.07236.05242-.19849.06985-.41319.16948-.61617.33718-.20299.1677-.34134.35974-.44739.54149-.19479.33384-.23534.71222-.25332.98282-.01926.28988-.019248.65859-.01923 1.08406l-.00001 10.79564c-.00006.1971-.000134.4312.11895.7609.05914.1638.15653.3218.21276.4081s.16155.2392.2875.3594c.08143.0777.17429.1599.28548.2329.10905.0715.20837.115.25172.134l.00789.0035c.81975.3616 2.29017.7505 4.83571.7505 2.16297 0 4.03839-.5425 5.66909-1.0442l.3045-.0939c1.5406-.4756 2.7918-.8619 4.0264-.8619.8858 0 1.6772.0942 2.3435.2222l.0315.006c.4881.0938.898.1726 1.2165.2147.2795.0369.6937.0809 1.0724-.0524.1985-.0699.4132-.1695.6162-.3372s.3413-.3597.4473-.5415c.1948-.3338.2354-.7122.2534-.9828.0192-.2899.0192-.6586.0192-1.084v-10.79569c.0001-.19715.0001-.43125-.1189-.76093-.0592-.16374-.1566-.32182-.2128-.40808-.0562-.08625-.1615-.23916-.2875-.35936-.0814-.07772-.1743-.15993-.2855-.2329-.109-.07156-.2084-.11509-.2517-.13408l-.0079-.00346c-.8197-.36159-2.2902-.7505-4.8357-.7505zm2 6c0-.55228-.4477-1-1-1s-1 .44772-1 1v4c0 .5523.4477 1 1 1s1-.4477 1-1zm-10.5 3c0-1.933 1.567-3.5 3.5-3.5s3.5 1.567 3.5 3.5-1.567 3.5-3.5 3.5-3.5-1.567-3.5-3.5zm-2.5-2c.55228 0 1 .4477 1 1v4c0 .5523-.44772 1-1 1s-1-.4477-1-1v-4c0-.5523.44772-1 1-1z" fill-rule="evenodd"/></g></svg>