<svg fill="none" height="24" viewBox="0 0 24 24" width="24" xmlns="http://www.w3.org/2000/svg"><path clip-rule="evenodd" d="m5.16146 4h13.67704c.5272-.00001.982-.00003 1.3565.03057.3954.03231.7886.10362 1.167.29642.5645.28762 1.0234.74656 1.311 1.31104.1928.37838.2641.7716.2964 1.16695.0306.37456.0306.82932.0306 1.35646v7.67716c0 .5271 0 .9819-.0306 1.3564-.0323.3954-.1036.7886-.2964 1.167-.2876.5645-.7465 1.0234-1.311 1.311-.3784.1928-.7716.2641-1.167.2964-.3745.0306-.8293.0306-1.3564.0306h-13.67729c-.52707 0-.9818 0-1.35634-.0306-.39534-.0323-.78856-.1036-1.16694-.2964-.56448-.2876-1.02343-.7465-1.31105-1.311-.19279-.3784-.26411-.7716-.29641-1.167-.030599-.3745-.030585-.8293-.03057-1.3564v-7.67719c-.000015-.52711-.000029-.98188.03057-1.35644.0323-.39534.10362-.78856.29641-1.16694.28762-.56449.74657-1.02343 1.31105-1.31105.37838-.19279.7716-.26411 1.16695-.29641.37455-.0306.82936-.03059 1.35648-.03057zm6.83854 3c.5523 0 1 .44772 1 1h1c.5523 0 1 .44772 1 1 0 .55229-.4477 1-1 1h-2.5c-.2761 0-.5.2239-.5.5s.2239.5.5.5h1c1.3807 0 2.5 1.1193 2.5 2.5 0 1.2095-.8589 2.2184-2 2.45v.05c0 .5523-.4477 1-1 1s-1-.4477-1-1h-1c-.55228 0-1-.4477-1-1s.44772-1 1-1h2.5c.2761 0 .5-.2239.5-.5s-.2239-.5-.5-.5h-1c-1.3807 0-2.5-1.1193-2.5-2.5 0-1.20948.85888-2.21836 2-2.44999v-.05001c0-.55228.4477-1 1-1zm4.5 5c0-.8284.6716-1.5 1.5-1.5s1.5.6716 1.5 1.5-.6716 1.5-1.5 1.5-1.5-.6716-1.5-1.5zm-12 0c0-.8284.67157-1.5 1.5-1.5s1.5.6716 1.5 1.5-.67157 1.5-1.5 1.5-1.5-.6716-1.5-1.5z" fill="#801ed7" fill-rule="evenodd"/></svg>