<svg fill="none" height="24" viewBox="0 0 24 24" width="24" xmlns="http://www.w3.org/2000/svg"><g clip-rule="evenodd" fill="#801ed7" fill-rule="evenodd"><path d="m3 2c.55229 0 1 .44772 1 1v14.8c0 .5766.00078.9488.02393 1.2322.02219.2716.05987.3723.08507.4218.09587.1882.24885.3411.43701.437.04945.0252.15016.0629.42183.0851.28333.0231.65561.0239 1.23216.0239h14.8c.5523 0 1 .4477 1 1s-.4477 1-1 1h-14.83848c-.52717 0-.98196 0-1.35655-.0306-.39534-.0323-.78856-.1036-1.16694-.2964-.56449-.2876-1.02343-.7465-1.31105-1.311-.19279-.3784-.26411-.7716-.29641-1.167-.0306-.3745-.03059-.8293-.03057-1.3565v-14.8385c0-.55228.44772-1 1-1z"/><path d="m7 4.5c.55229 0 1 .44772 1 1v12c0 .5523-.44771 1-1 1-.55228 0-1-.4477-1-1v-12c0-.55228.44772-1 1-1z"/><path d="m11.5 7.5c.5523 0 1 .44772 1 1v9c0 .5523-.4477 1-1 1s-1-.4477-1-1v-9c0-.55228.4477-1 1-1z"/><path d="m16 10.5c.5523 0 1 .4477 1 1v6c0 .5523-.4477 1-1 1s-1-.4477-1-1v-6c0-.5523.4477-1 1-1z"/><path d="m20.5 13.5c.5523 0 1 .4477 1 1v3c0 .5523-.4477 1-1 1s-1-.4477-1-1v-3c0-.5523.4477-1 1-1z"/></g></svg>