<svg fill="none" height="24" viewBox="0 0 24 24" width="24" xmlns="http://www.w3.org/2000/svg"><g fill="#801ed7"><path d="m6 2c0-.55228-.44772-1-1-1s-1 .44772-1 1v3.58579l-1.29289-1.2929c-.39053-.39052-1.02369-.39052-1.41422 0-.390521.39053-.390521 1.02369 0 1.41422l3 3c.18754.18753.44189.29289.70711.29289s.51957-.10536.70711-.29289l3-3c.39052-.39053.39052-1.02369 0-1.41422-.39053-.39052-1.02369-.39052-1.41422 0l-1.29289 1.2929z"/><path clip-rule="evenodd" d="m10.1213 7.12132-2.99948 2.99948c-.56261.5626-1.32617.8792-2.12182.8792-.04973 0-.09933-.0012-.14876-.0037-.74149-.0368-1.44511-.3475-1.97256-.875-.02084-.0208-.03126-.0312-.0376-.0371-.31362-.29264-.82591-.0805-.84078.3482-.0003.0087-.0003.0234-.0003.0529v7.3533c-.00002.5271-.00003.9819.03057 1.3564.0323.3954.10362.7886.29641 1.167.28762.5645.74657 1.0234 1.31105 1.311.37838.1928.7716.2641 1.16695.2964.37456.0306.82932.0306 1.35646.0306h7.67716c.5271 0 4.9819 0 5.3564-.0306.3954-.0323.7886-.1036 1.167-.2964.5645-.2876 1.0234-.7465 1.311-1.311.1928-.3784.2641-.7716.2964-1.167.0306-.3745.0306-.8293.0306-1.3564v-11.67716c0-.52714 0-.9819-.0306-1.35646-.0323-.39535-.1036-.78857-.2964-1.16695-.2876-.56448-.7465-1.02343-1.311-1.31105-.3784-.19279-.7716-.26411-1.167-.29641-.3745-.0306-.8293-.03059-1.3564-.03057h-8.08428c-.14046 0-.25432.11386-.25432.25432 0 .09081.0489.17402.12519.22328.17574.11347.34222.24717.49611.40108 1.1716 1.17157 1.1716 3.07107 0 4.24264zm6.8787-1.12132c.5523 0 1 .44772 1 1v10c0 .5523-.4477 1-1 1s-1-.4477-1-1v-10c0-.55228.4477-1 1-1zm-3 5c0-.5523-.4477-1-1-1s-1 .4477-1 1v6c0 .5523.4477 1 1 1s1-.4477 1-1zm-4 2c0-.5523-.44771-1-1-1-.55228 0-1 .4477-1 1v4c0 .5523.44772 1 1 1 .55229 0 1-.4477 1-1z" fill-rule="evenodd"/></g></svg>