<svg fill="none" height="24" viewBox="0 0 24 24" width="24" xmlns="http://www.w3.org/2000/svg"><g fill="#801ed7"><path clip-rule="evenodd" d="m2 17.8385v-8.08397c0-.14057.11396-.25453.25453-.25453.09086 0 .17413.04892.22342.12525.53415.82715 1.46415 1.37475 2.52205 1.37475 1.65685 0 3-1.34315 3-3 1.65685 0 3-1.34315 3-3 0-1.0579-.5476-1.9879-1.37475-2.52205-.07633-.04929-.12525-.13256-.12525-.22342 0-.14057.11396-.25453.25453-.25453h8.08397c.5272-.00002.982-.00003 1.3565.03057.3954.0323.7886.10362 1.167.29641.5645.28762 1.0234.74656 1.311 1.31105.1928.37838.2641.7716.2964 1.16694.0306.37457.0306.82933.0306 1.35647v11.67716c0 .5271 0 .9819-.0306 1.3564-.0323.3954-.1036.7886-.2964 1.167-.2876.5645-.7465 1.0234-1.311 1.311-.3784.1928-.7716.2641-1.167.2964-.3745.0306-.8293.0306-1.3564.0306h-11.67716c-.52714 0-.9819 0-1.35647-.0306-.39534-.0323-.78856-.1036-1.16694-.2964-.56449-.2876-1.02343-.7465-1.31105-1.311-.19279-.3784-.26411-.7716-.29641-1.167-.0306-.3745-.03059-.8293-.03057-1.3565zm16-10.8385c0-.55228-.4477-1-1-1s-1 .44772-1 1v10c0 .5523.4477 1 1 1s1-.4477 1-1zm-5 3c.5523 0 1 .4477 1 1v6c0 .5523-.4477 1-1 1s-1-.4477-1-1v-6c0-.5523.4477-1 1-1zm-4 2c.55229 0 1 .4477 1 1v4c0 .5523-.44771 1-1 1-.55228 0-1-.4477-1-1v-4c0-.5523.44772-1 1-1z" fill-rule="evenodd"/><path d="m6 2c0-.55228-.44772-1-1-1s-1 .44772-1 1v2h-2c-.55228 0-1 .44772-1 1s.44772 1 1 1h2v2c0 .55228.44772 1 1 1s1-.44772 1-1v-2h2c.55228 0 1-.44772 1-1s-.44772-1-1-1h-2z"/></g></svg>