<svg fill="none" height="24" viewBox="0 0 24 24" width="24" xmlns="http://www.w3.org/2000/svg"><g clip-rule="evenodd" fill="#801ed7" fill-rule="evenodd"><path d="m3 10c.55228 0 1 .4477 1 1v10c0 .5523-.44771 1-1 1-.55228 0-1-.4477-1-1v-10c0-.5523.44772-1 1-1z"/><path d="m15 10c.5523 0 1 .4477 1 1v10c0 .5523-.4477 1-1 1s-1-.4477-1-1v-10c0-.5523.4477-1 1-1z"/><path d="m9 2c.55228 0 1 .44772 1 1v18c0 .5523-.44771 1-1 1-.55228 0-1-.4477-1-1v-18c0-.55228.44772-1 1-1z"/><path d="m21 2c.5523 0 1 .44772 1 1v18c0 .5523-.4477 1-1 1s-1-.4477-1-1v-18c0-.55228.4477-1 1-1z"/></g></svg>