<svg fill="none" height="24" viewBox="0 0 24 24" width="24" xmlns="http://www.w3.org/2000/svg"><g fill="#801ed7"><path clip-rule="evenodd" d="m10.2322 2.73223c.9763-.97631 2.5593-.97631 3.5356 0 .4546.45462.6975 1.04075.7287 1.63593l3.7092 1.39095.0265-.02688c.9763-.97631 2.5593-.97631 3.5356 0s.9763 2.55923 0 3.53554c-.9763.97633-2.5593.97633-3.5356 0-.4546-.45464-.6975-1.04081-.7287-1.63602l-3.7092-1.39093c-.0088.00904-.0176.01802-.0265.02695-.8133.81327-2.0475.94908-3.0014.40743l-4.33306 3.24983c.19173.81487-.03013 1.70727-.66557 2.34277-.97631.9763-2.55923.9763-3.53554 0s-.97631-2.55926 0-3.53557c.81329-.81329 2.04752-.94909 3.00138-.4074l4.33307-3.2498c-.19176-.8149.03009-1.70734.66552-2.3428z" fill-rule="evenodd"/><path d="m20 12c.5523 0 1 .4477 1 1v7c0 .5523-.4477 1-1 1s-1-.4477-1-1v-7c0-.5523.4477-1 1-1z"/><path d="m13 10c0-.55228-.4477-1-1-1s-1 .44772-1 1v10c0 .5523.4477 1 1 1s1-.4477 1-1z"/><path d="m4 15c.55228 0 1 .4477 1 1v4c0 .5523-.44772 1-1 1s-1-.4477-1-1v-4c0-.5523.44772-1 1-1z"/></g></svg>