<svg fill="none" height="24" viewBox="0 0 24 24" width="24" xmlns="http://www.w3.org/2000/svg"><g clip-rule="evenodd" fill="#801ed7" fill-rule="evenodd"><path d="m3.56811 6c.01062 0 .02125.00001.0319.00001h.79999c.01065 0 .02128-.00001.0319-.00001.25238-.00003.49818-.00006.70634.01695.22859.01868.49832.06274.76975.20104.37632.19175.68228.49771.87403.87403.1383.27143.18236.54116.20104.76976.01701.20815.01698.45395.01695.70633v.0319 10.83189c.00003.2524.00006.4982-.01695.7063-.01868.2286-.06274.4984-.20104.7698-.19175.3763-.49771.6823-.87403.874-.27143.1383-.54116.1824-.76976.2011-.20816.017-.45396.0169-.70634.0169h-.86377c-.25238 0-.49818.0001-.70634-.0169-.2286-.0187-.49833-.0628-.76976-.2011-.37632-.1917-.68228-.4977-.87403-.874-.1383-.2714-.18236-.5412-.20104-.7698-.017007-.2081-.016977-.4539-.01695-.7063l.00001-10.83189c0-.01065-.00001-.02128-.00001-.0319-.000027-.25238-.000057-.49818.01695-.70633.01868-.2286.06274-.49833.20104-.76976.19175-.37632.49771-.68228.87403-.87403.27143-.1383.54116-.18236.76976-.20104.20815-.01701.45394-.01698.70633-.01695z"/><path d="m11.5681 2c.0106 0 .0213.00001.0319.00001h.8c.0106 0 .0213-.00001.0319-.00001.2524-.00003.4982-.00006.7063.01695.2286.01868.4984.06274.7698.20104.3763.19175.6823.49771.874.87403.1383.27143.1824.54116.2011.76976.017.20815.0169.45395.0169.70633v.0319 14.83189c0 .2524.0001.4982-.0169.7063-.0187.2286-.0628.4984-.2011.7698-.1917.3763-.4977.6823-.874.874-.2714.1383-.5412.1824-.7698.2011-.2081.017-.4539.0169-.7063.0169h-.8638c-.2524 0-.4982.0001-.7063-.0169-.2286-.0187-.4984-.0628-.7698-.2011-.3763-.1917-.68226-.4977-.87401-.874-.1383-.2714-.18236-.5412-.20104-.7698-.01701-.2081-.01698-.4539-.01695-.7063v-14.83189c0-.01065 0-.02128 0-.0319-.00003-.25239-.00006-.49818.01695-.70633.01868-.2286.06274-.49833.20104-.76976.19175-.37632.49771-.68228.87401-.87403.2714-.1383.5412-.18236.7698-.20104.2081-.01701.4539-.01698.7063-.01695z"/><path d="m19.5681 10h.0319.8.0319c.2524-.00003.4982-.00006.7063.017.2286.0186.4984.0627.7698.201.3763.1917.6823.4977.874.874.1383.2714.1824.5412.2011.7698.017.2081.0169.4539.0169.7063v.0319 6.8319c0 .2524.0001.4982-.0169.7063-.0187.2286-.0628.4984-.2011.7698-.1917.3763-.4977.6823-.874.874-.2714.1383-.5412.1824-.7698.2011-.2081.017-.4539.0169-.7063.0169h-.8638c-.2524 0-.4982.0001-.7063-.0169-.2286-.0187-.4984-.0628-.7698-.2011-.3763-.1917-.6823-.4977-.874-.874-.1383-.2714-.1824-.5412-.201-.7698-.0171-.2081-.017-.4539-.017-.7063v-6.8319c0-.0106 0-.0213 0-.0319 0-.2524-.0001-.4982.017-.7063.0186-.2286.0627-.4984.201-.7698.1917-.3763.4977-.6823.874-.874.2714-.1383.5412-.1824.7698-.201.2081-.01706.4539-.01703.7063-.017z"/></g></svg>