<svg fill="none" height="24" viewBox="0 0 24 24" width="24" xmlns="http://www.w3.org/2000/svg"><g fill="#801ed7"><path clip-rule="evenodd" d="m2.25453 9.5c-.14057 0-.25453.11396-.25453.25453v8.08397c-.00002.5272-.00003.982.03057 1.3565.0323.3954.10362.7886.29641 1.167.28762.5645.74656 1.0234 1.31105 1.311.37838.1928.7716.2641 1.16694.2964.37457.0306.82933.0306 1.35647.0306h11.67716c.5271 0 .9819 0 1.3564-.0306.3954-.0323.7886-.1036 1.167-.2964.5645-.2876 1.0234-.7465 1.311-1.311.1928-.3784.2641-.7716.2964-1.167.0306-.3745.0306-.8293.0306-1.3564v-11.67716c0-.52714 0-.9819-.0306-1.35647-.0323-.39534-.1036-.78856-.2964-1.16694-.2876-.56449-.7465-1.02343-1.311-1.31105-.3784-.19279-.7716-.26411-1.167-.29641-.3745-.0306-.8293-.03059-1.3564-.03057h-7.3533c-.4586 0-.68823.55442-.364.87868 1.1716 1.17157 1.1716 3.07107 0 4.24264-.58577.58579-1.35353.87868-2.1213.87868 0 1.65685-1.34315 3-3 3-1.0579 0-1.9879-.5476-2.52205-1.37475-.04929-.07633-.13256-.12525-.22342-.12525zm15.74547-2.5c0-.55228-.4477-1-1-1s-1 .44772-1 1v10c0 .5523.4477 1 1 1s1-.4477 1-1zm-5 3c.5523 0 1 .4477 1 1v6c0 .5523-.4477 1-1 1s-1-.4477-1-1v-6c0-.5523.4477-1 1-1zm-4 2c.55229 0 1 .4477 1 1v4c0 .5523-.44771 1-1 1-.55228 0-1-.4477-1-1v-4c0-.5523.44772-1 1-1z" fill-rule="evenodd"/><path d="m5.70711 1.29289c-.18754-.18753-.44189-.29289-.70711-.29289s-.51957.10536-.70711.29289l-3 3c-.390521.39053-.390521 1.02369 0 1.41422.39053.39052 1.02369.39052 1.41422 0l1.29289-1.2929v3.58579c0 .55228.44772 1 1 1 .55229 0 1-.44772 1-1v-3.58579l1.29289 1.2929c.39053.39052 1.02369.39052 1.41422 0 .39052-.39053.39052-1.02369 0-1.41422z"/></g></svg>