<svg fill="none" height="24" viewBox="0 0 24 24" width="24" xmlns="http://www.w3.org/2000/svg"><g clip-rule="evenodd" fill="#801ed7" fill-rule="evenodd"><path d="m3.56811 10h.0319.79999.0319c.25238-.00003.49818-.00005.70634.017.22859.0186.49832.0627.76975.201.37632.1917.68228.4977.87403.874.1383.2714.18236.5412.20104.7698.01701.2081.01698.4539.01695.7063v.0319 6.8319c.00003.2524.00006.4982-.01695.7063-.01868.2286-.06274.4984-.20104.7698-.19175.3763-.49771.6823-.87403.874-.27143.1383-.54116.1824-.76976.2011-.20816.017-.45396.0169-.70634.0169h-.86377c-.25238 0-.49818.0001-.70634-.0169-.2286-.0187-.49833-.0628-.76976-.2011-.37632-.1917-.68228-.4977-.87403-.874-.1383-.2714-.18236-.5412-.20104-.7698-.017007-.2081-.016977-.4539-.01695-.7063l.00001-6.8319c0-.0106-.00001-.0213-.00001-.0319-.000027-.2524-.000057-.4982.01695-.7063.01868-.2286.06274-.4984.20104-.7698.19175-.3763.49771-.6823.87403-.874.27143-.1383.54116-.1824.76976-.201.20815-.01705.45394-.01703.70633-.017z"/><path d="m11.5681 6c.0106.00001.0213.00001.0319.00001h.8c.0107 0 .0213 0 .0319-.00001.2524-.00003.4982-.00006.7063.01695.2286.01868.4984.06275.7698.20104.3763.19175.6823.49771.874.87404.1383.27142.1824.54115.2011.76975.017.20816.0169.45395.0169.70633v.0319 10.83189c0 .2524.0001.4982-.0169.7063-.0187.2286-.0628.4984-.2011.7698-.1917.3763-.4977.6823-.874.874-.2714.1383-.5412.1824-.7698.2011-.2081.017-.4539.0169-.7063.0169h-.8638c-.2524 0-.4982.0001-.7063-.0169-.2286-.0187-.4983-.0628-.7698-.2011-.37629-.1917-.68225-.4977-.874-.874-.13829-.2714-.18236-.5412-.20104-.7698-.01701-.2081-.01698-.4539-.01695-.7063l.00001-10.83189c0-.01064-.00001-.02128-.00001-.0319-.00003-.25238-.00006-.49817.01695-.70633.01868-.2286.06275-.49833.20104-.76975.19175-.37633.49771-.68229.874-.87404.2715-.13829.5412-.18236.7698-.20104.2081-.017.4539-.01698.7063-.01695z"/><path d="m19.5681 2c.0107 0 .0213.00001.0319.00001h.8c.0107 0 .0213-.00001.0319-.00001.2524-.00003.4982-.00006.7064.01695.2285.01868.4983.06274.7697.20104.3763.19175.6823.49771.874.87403.1383.27143.1824.54116.2011.76976.017.20815.017.45395.0169.70633v.0319 14.83189c.0001.2524.0001.4982-.0169.7063-.0187.2286-.0628.4984-.2011.7698-.1917.3763-.4977.6823-.874.874-.2714.1383-.5412.1824-.7697.2011-.2082.017-.454.0169-.7064.0169h-.8638c-.2524 0-.4981.0001-.7063-.0169-.2286-.0187-.4983-.0628-.7698-.2011-.3763-.1917-.6822-.4977-.874-.874-.1383-.2714-.1824-.5412-.201-.7698-.017-.2081-.017-.4539-.017-.7063v-14.83189c0-.01065 0-.02128 0-.0319 0-.25239 0-.49818.017-.70633.0186-.2286.0627-.49833.201-.76976.1918-.37632.4977-.68228.874-.87403.2715-.1383.5412-.18236.7698-.20104.2082-.01701.4539-.01698.7063-.01695z"/></g></svg>