<svg fill="none" height="24" viewBox="0 0 24 24" width="24" xmlns="http://www.w3.org/2000/svg"><g clip-rule="evenodd" fill="#801ed7" fill-rule="evenodd"><path d="m9.5 2.25453c0-.14057.11396-.25453.25453-.25453h8.08397c.5272-.00002.982-.00003 1.3565.03057.3954.0323.7886.10362 1.167.29641.5645.28762 1.0234.74657 1.311 1.31105.1928.37838.2641.7716.2964 1.16695.0306.37456.0306.82932.0306 1.35646v11.67716c0 .5271 0 .9819-.0306 1.3564-.0323.3954-.1036.7886-.2964 1.167-.2876.5645-.7465 1.0234-1.311 1.311-.3784.1928-.7716.2641-1.167.2964-.3745.0306-.8293.0306-1.3564.0306h-11.67716c-.52714 0-.9819 0-1.35647-.0306-.39534-.0323-.78856-.1036-1.16694-.2964-.56449-.2876-1.02343-.7465-1.31105-1.311-.19279-.3784-.26411-.7716-.29641-1.167-.0306-.3745-.03059-.8293-.03057-1.3564v-8.2386c0-.56005 0-.84008.10899-1.05399.09588-.18816.24886-.34114.43702-.43702.21391-.10899.49394-.10899 1.05399-.10899h4.4c1.65685 0 3-1.34315 3-3 0-1.05789-.5476-1.9879-1.37475-2.52205-.07633-.04929-.12525-.13256-.12525-.22342zm7.5 3.74547c.5523 0 1 .44772 1 1v10c0 .5523-.4477 1-1 1s-1-.4477-1-1v-10c0-.55228.4477-1 1-1zm-3 5c0-.5523-.4477-1-1-1s-1 .4477-1 1v6c0 .5523.4477 1 1 1s1-.4477 1-1zm-4 2c0-.5523-.44771-1-1-1-.55228 0-1 .4477-1 1v4c0 .5523.44772 1 1 1 .55229 0 1-.4477 1-1z"/><path d="m1 5c0-.55228.44772-1 1-1h6c.55228 0 1 .44772 1 1 0 .55229-.44772 1-1 1h-6c-.55228 0-1-.44771-1-1z"/></g></svg>