<svg fill="none" height="24" viewBox="0 0 24 24" width="24" xmlns="http://www.w3.org/2000/svg"><g fill="#801ed7"><path d="m10.0541 6.23599c.2615-.40226.3922-.60339.3809-.76985-.0098-.14505-.0823-.27864-.1986-.36594-.1334-.1002-.37327-.1002-.85304-.1002h-2.62466c-.80495-.00001-1.46934-.00002-2.01052.0442-.5621.04592-1.0788.14448-1.56414.39178-.75265.38349-1.36457.99541-1.74806 1.74806-.2473.48534-.34586 1.00204-.39178 1.56414-.044221.54118-.044212 1.20553-.0442 2.01052v2.4826c-.000012.805-.000021 1.4693.0442 2.0105.04592.5621.14448 1.0788.39178 1.5642.38349.7526.99541 1.3645 1.74806 1.748.48534.2473 1.00204.3459 1.56414.3918.5412.0442 1.20556.0442 2.01055.0442h.13048c.31726 0 .47589 0 .61953-.0442.12715-.0391.24523-.1031.34731-.1884.11531-.0964.20177-.2294.37467-.4954l3.42668-5.2719h-4.15728c-.36671 0-.70401-.2007-.87892-.523s-.15938-.7145.04047-1.022z"/><path d="m10.9463 17.764c-.2615.4023-.3922.6034-.3809.7699.0098.145.0823.2786.1986.3659.1334.1002.3733.1002.853.1002h2.6243c.805 0 1.4693 0 2.0105-.0442.5621-.0459 1.0788-.1445 1.5642-.3918.7526-.3835 1.3645-.9954 1.748-1.748.2473-.4854.3459-1.0021.3918-1.5642.0442-.5412.0442-1.2055.0442-2.0105v-2.4826c0-.80498 0-1.46933-.0442-2.01052-.0459-.5621-.1445-1.0788-.3918-1.56414-.3835-.75265-.9954-1.36457-1.748-1.74806-.4854-.2473-1.0021-.34586-1.5642-.39178-.5412-.04422-1.2055-.04421-2.0105-.0442h-.1301c-.3173 0-.4759 0-.6196.04417-.1271.0391-.2452.10318-.3473.18848-.1153.09636-.2017.22936-.3746.49537l-3.4269 5.27208h4.1573c.3667 0 .704.2007.8789.523s.1594.7145-.0404 1.022z"/><path d="m22 10c.5523 0 1 .4477 1 1v2c0 .5523-.4477 1-1 1s-1-.4477-1-1v-2c0-.5523.4477-1 1-1z"/></g></svg>