<svg fill="none" height="24" viewBox="0 0 24 24" width="24" xmlns="http://www.w3.org/2000/svg"><path clip-rule="evenodd" d="m8.27687 1.00001h7.44633c.1191-.000049.2613-.000104.3866.01014.1453.01186.3533.0423.5712.15335.2822.14381.5117.37328.6555.65553.1111.21794.1415.42593.1534.57115.0102.12532.0102.26759.0101.3867v2.44626c.0001.11912.0001.26138-.0101.3867-.0119.14522-.0423.35321-.1534.57116-.1438.28224-.3733.51171-.6555.65552-.2179.11105-.4259.14149-.5712.15336-.0355.00291-.0725.00498-.1099.00647v3.50485c0 .605.008.7241.0343.8219.0304.113.0805.2199.1479.3157.0583.0828.1446.1651.6094.5525l3.7696 3.1412c.3518.2926.6618.5504.8921.8777.2022.2873.3524.6079.4437.9471.1039.3865.1035.7897.103 1.2473 0 .3931.0002.7862.0002 1.1794.0003.3806.0006.7085-.0577 1.0014-.2367 1.19-1.167 2.1203-2.357 2.357-.2929.0583-.6207.058-1.0014.0577h-13.1678c-.3807.0003-.70853.0006-1.00138-.0577-.4456-.0886-.85478-.2745-1.20476-.5348-.35323-.2626-.64589-.6009-.85525-.9921-.1372-.2564-.23843-.5353-.29708-.8301-.05825-.2929-.05799-.6207-.05769-1.0014 0-.3932-.00016-.7863-.00022-1.1794-.00048-.4576-.0009-.8608.10308-1.2473.09127-.3392.24143-.6598.44362-.9471.23033-.3273.54036-.5851.89217-.8777l3.7696-3.1412c.46481-.3874.55112-.4697.60938-.5525.0674-.0958.11745-.2027.14788-.3157.0263-.0978.03433-.2169.03433-.8219v-3.50486c-.03732-.00149-.07419-.00356-.1097-.00646-.14522-.01187-.35321-.04231-.57115-.15336-.28225-.14381-.51172-.37328-.65553-.65552-.11105-.21795-.14149-.42594-.15335-.57116-.01024-.12532-.01019-.26757-.01014-.38669v-2.44628c-.00005-.11911-.0001-.26137.01014-.38669.01186-.14522.0423-.35321.15335-.57115.14381-.28225.37328-.51172.65553-.65553.21794-.11105.42593-.14149.57115-.15335.12532-.010244.26758-.010189.38669-.01014zm9.96103 15.00009h-12.47607l2.79925-2.3326c.35181-.2926.66184-.5504.89217-.8777.20219-.2873.35235-.6079.44362-.9471.10393-.3865.10353-.7897.10308-1.2473l-.00007-3.59539h4.00002l-.0001 3.59539c-.0005.4576-.0009.8608.1031 1.2473.0913.3392.2414.6598.4436.9471.2303.3273.5404.5851.8922.8777z" fill="#801ed7" fill-rule="evenodd"/></svg>