<svg fill="none" height="24" viewBox="0 0 24 24" width="24" xmlns="http://www.w3.org/2000/svg"><g clip-rule="evenodd" fill="#801ed7" fill-rule="evenodd"><path d="m15.874 20h3.6208l.8408.7474c.4128.3669 1.0449.3298 1.4118-.083s.3298-1.0449-.083-1.4118l-18.00003-16c-.41278-.36692-1.04485-.32974-1.41177.08305-.36692.41278-.32974 1.04485.08305 1.41177l3.66382 3.25673c-.64283.94819-.99946 2.04975-.99946 3.19585 0 2.1076-.52026 3.5999-1.13272 4.6357l-.01016.0172c-.39379.6659-.7014 1.1862-.90769 1.5596-.10311.1866-.19385.3596-.25981.5077-.03272.0735-.0688.1617-.09692.2554-.02096.0698-.07254.2508-.05109.4703.01178.1205.0388.3598.17814.6041.13933.2442.33156.3893.42928.4607.15925.1165.3186.1664.39796.1884.09366.026.18468.0413.26014.0514.15088.0202.32656.0305.50967.0368.36502.0127.87538.0127 1.51845.0127h2.29075c.44404 1.7252 2.01019 3 3.87399 3s3.43-1.2748 3.874-3zm-3.874 1c-.7403 0-1.3866-.4022-1.7324-1h3.4648c-.3458.5978-.9921 1-1.7324 1z"/><path d="m8.52206 4.89464 11.08504 9.85336c-.3573-.9224-.6071-2.0874-.6071-3.548 0-1.69429-.7778-3.28463-2.1024-4.43264-.4855-.42078-1.031-.77111-1.6169-1.04589.1417-.38041.2193-.79209.2193-1.22147 0-1.933-1.567-3.5-3.5-3.5s-3.5 1.567-3.5 3.5c0 .13339.00749.26507.02206.39464zm3.47794-1.89464c-.8284 0-1.5.67157-1.5 1.5 0 .22109.0474.43048.133.61912.4481-.07885.9059-.11912 1.367-.11912s.9189.04027 1.367.11911c.0856-.18863.133-.39803.133-.61911 0-.82843-.6716-1.5-1.5-1.5z"/></g></svg>