<svg fill="none" height="24" viewBox="0 0 24 24" width="24" xmlns="http://www.w3.org/2000/svg"><path clip-rule="evenodd" d="m12.1912 4.85754c.0384-.40414.0069-.82189-.1043-1.23666-.5003-1.86713-2.41946-2.975169-4.28659-2.47487-1.86713.50029-2.97517 2.41947-2.47488 4.2866.11114.41478.29266.79238.52804 1.12316-.49482.41705-.93103.89662-1.29109 1.42871-.98238 1.45174-1.32206 3.18922-.88354 4.82572.5455 2.0359.42919 3.6119.10569 4.7709l-.00537.0193c-.20802.7452-.37049 1.3273-.47311 1.7414-.05129.2069-.09416.3975-.11954.5577-.01259.0794-.02461.1739-.02753.2717-.00217.0729-.00514.2611.07238.4675.04256.1134.1306.3375.32841.5374s.42103.2902.53392.334c.18396.0712.35081.0782.43315.0789.09719.0008.18906-.0079.26457-.0177.15096-.0195.32333-.0551.50184-.0963.35584-.0823.84878-.2143 1.46989-.3808l1.24681-.3341c.87543 1.5516 2.71815 2.3776 4.51845 1.8952 1.8004-.4824 2.9832-2.1191 2.9655-3.9005l3.1785-.8516c.6213-.1665 1.1143-.2986 1.4637-.4053.1752-.0536.3422-.109.4827-.1675.0703-.0293.1542-.0677.238-.117.071-.0417.212-.1312.3356-.2849.0759-.0943.2241-.2842.2954-.5562.0714-.272.0356-.5102.0158-.6296-.0361-.2175-.1328-.3791-.1711-.4411-.0514-.0832-.1091-.159-.1597-.2215-.1021-.126-.2345-.2697-.3824-.4233-.2959-.3072-.7276-.73-1.2803-1.2714l-.0144-.0141c-.8596-.8419-1.7484-2.1487-2.2939-4.18453-.4385-1.63656-1.6014-2.9714-3.178-3.73746-.5779-.28079-1.1955-.478-1.8326-.59177zm-3.87325-1.77968c-.8002.21441-1.27508 1.03692-1.06066 1.83712.05722.21357.15726.40358.28879.56364.41241-.19214.8442-.34952 1.28956-.46886.44533-.11932.89794-.19892 1.35116-.23873.0339-.20438.0255-.41894-.0317-.63251-.21445-.8002-1.03696-1.27507-1.83715-1.06066zm5.10745 16.23124-3.3469.8968c.4888.4879 1.2172.7092 1.9323.5176s1.2353-.7475 1.4146-1.4144z" fill="#801ed7" fill-rule="evenodd"/></svg>