<svg fill="none" height="24" viewBox="0 0 24 24" width="24" xmlns="http://www.w3.org/2000/svg"><g fill="#801ed7"><path clip-rule="evenodd" d="m3.70711 2.29289c-.39053-.39052-1.02369-.39052-1.41422 0-.39052.39053-.39052 1.02369 0 1.41422l2.85613 2.85612c-.09839.46906-.14904.95038-.14904 1.43688 0 2.91269-.732 4.84389-1.49938 6.07709l-.01184.019c-.3573.5742-.63977 1.0282-.83019 1.3586-.09542.1655-.18235.325-.24671.4668-.03213.0707-.06807.1575-.09617.2518-.0233.0782-.0677.2454-.05106.449.01119.1368.03909.3705.17324.612s.31788.3887.42812.4704c.25029.1857.53772.2282.63365.2423l.00443.0007c.14741.0218.31468.0327.48344.0392.33521.0131.79928.0131 1.3764.0131h11.22199l3.707 3.707c.3905.3905 1.0237.3905 1.4142 0s.3905-1.0237 0-1.4142l-14.70918-14.70919c-.02115-.02326-.04345-.04557-.06684-.06684z" fill-rule="evenodd"/><path d="m8.6044 20.3383c.36546-.4141.9974-.4535 1.4115-.088.5294.4673 1.2225.7497 1.9841.7497.7615 0 1.4546-.2824 1.9841-.7497.414-.3655 1.046-.3261 1.4114.088.3655.414.3261 1.046-.088 1.4115-.8808.7774-2.0402 1.2502-3.3075 1.2502-1.2674 0-2.42678-.4728-3.3076-1.2502-.41406-.3655-.45347-.9975-.088-1.4115z"/><path d="m21.5306 17.2879c.1248-.2011.1856-.4312.2047-.6656.0167-.2036-.0277-.3708-.051-.449-.0281-.0943-.0641-.1811-.0962-.2518-.0644-.1418-.1513-.3013-.2467-.4668-.1904-.3304-.4728-.7842-.83-1.3582l-.012-.0194c-.7674-1.2332-1.4994-3.1644-1.4994-6.0771 0-1.85651-.7375-3.63699-2.0503-4.94975-1.3127-1.31275-3.0932-2.05025-4.9497-2.05025-1.7993 0-3.52709.6927-4.82695 1.93041z"/></g></svg>