<svg fill="none" height="24" viewBox="0 0 24 24" width="24" xmlns="http://www.w3.org/2000/svg"><g clip-rule="evenodd" fill="#801ed7" fill-rule="evenodd"><path d="m9.00005 21c0-.5523.44772-1 1.00005-1h4c.5522 0 1 .4477 1 1s-.4478 1-1 1h-4c-.55233 0-1.00005-.4477-1.00005-1z"/><path d="m5.19703 1.80858c.2714.481.10149 1.09094-.37951 1.36234-.94676.53421-1.53442 1.55206-1.52367 2.63909.00546.55226-.43781 1.00437-.99007 1.00983s-1.00438-.4378-1.00984-.99006c-.01794-1.81567.95936-3.50842 2.54075-4.40071.481-.2714 1.09094-.10149 1.36234.37951z"/><path d="m18.7991 1.80859c.2714-.481.8814-.65091 1.3624-.37951 1.5814.89229 2.5587 2.58504 2.5407 4.4007-.0054.55226-.4576.99553-1.0098.99007-.5523-.00546-.9955-.45758-.9901-1.00984.0108-1.08702-.5769-2.10487-1.5237-2.63908-.481-.2714-.6509-.88134-.3795-1.36234z"/><path d="m7.05031 3.05025c1.31275-1.31275 3.09319-2.05025 4.94979-2.05025 1.8565 0 3.6369.7375 4.9497 2.05025 1.3128 1.31276 2.0503 3.09324 2.0503 4.94975 0 2.9127.732 4.8439 1.4993 6.0771l.0119.0191c.3573.5742.6397 1.0281.8302 1.3585.0954.1655.1823.325.2467.4668.0321.0707.068.1575.0961.2518.0233.0782.0677.2454.0511.449-.0112.1368-.0391.3705-.1732.612-.1342.2415-.3179.3887-.4282.4704-.2502.1857-.5377.2282-.6336.2423l-.0044.0007c-.1474.0218-.3147.0327-.4835.0392-.3352.0131-.7994.0131-1.3766.0131h-13.2717c-.57722 0-1.04136 0-1.37662-.0131-.16875-.0065-.33603-.0174-.48344-.0392l-.00443-.0007c-.09593-.0141-.38336-.0566-.63365-.2423-.11024-.0817-.29397-.2289-.42812-.4704s-.16204-.4752-.17323-.612c-.01665-.2036.02775-.3708.05106-.449.02809-.0943.06403-.1811.09616-.2518.06436-.1418.1513-.3013.24672-.4668.19042-.3304.4729-.7844.83023-1.3586l.01179-.019c.76738-1.2332 1.49938-3.1644 1.49938-6.0771 0-1.85652.7375-3.63699 2.05026-4.94975z"/></g></svg>