<svg fill="none" height="24" viewBox="0 0 24 24" width="24" xmlns="http://www.w3.org/2000/svg"><g fill="#801ed7"><path d="m19 2c0-.55228-.4477-1-1-1s-1 .44772-1 1v2h-2c-.5523 0-1 .44772-1 1s.4477 1 1 1h2v2c0 .55228.4477 1 1 1s1-.44772 1-1v-2h2c.5523 0 1-.44772 1-1s-.4477-1-1-1h-2z"/><path d="m15.0057 1.81334c.0048-.07858-.0366-.15292-.1082-.1855-.9014-.40987-1.8882-.62784-2.8975-.62784-1.8565 0-3.63701.7375-4.94977 2.05025-1.31275 1.31276-2.05025 3.09323-2.05025 4.94975 0 2.9127-.732 4.8439-1.49938 6.0771l-.0118.019c-.35732.5742-.6398 1.0282-.83023 1.3586-.09542.1655-.18235.325-.24671.4668-.03213.0707-.06807.1575-.09617.2518-.0233.0782-.0677.2454-.05106.449.01119.1368.03909.3705.17324.612s.31788.3887.42812.4704c.25029.1857.53772.2282.63365.2423l.00443.0007c.14741.0218.31468.0327.48344.0392.33517.0131.79916.0131 1.37617.0131h13.27212c.577 0 1.0415 0 1.3767-.0131.1687-.0065.336-.0174.4834-.0392l.0044-.0007c.096-.0141.3834-.0566.6337-.2423.1102-.0817.2939-.2289.4281-.4704.1341-.2415.162-.4752.1732-.612.0167-.2036-.0277-.3708-.051-.449-.0281-.0943-.0641-.1811-.0962-.2518-.0644-.1418-.1513-.3013-.2467-.4668-.1904-.3304-.4728-.7842-.83-1.3582l-.012-.0194c-.3768-.6055-.745-1.3792-1.0223-2.3548-.099-.3485-.1486-.5227-.2155-.6037-.0778-.094-.1089-.1155-.2244-.1547-.0995-.0338-.3245-.0143-.7744.0248-.0866.0075-.1743.0113-.2628.0113-1.6569 0-3-1.34315-3-3-1.6569 0-3-1.34315-3-3 0-1.5944 1.2438-2.89829 2.814-2.99433.1025-.00627.1854-.08983.1917-.19233z"/><path d="m8.60442 20.3383c.36546-.4141.9974-.4535 1.41148-.088.5294.4673 1.2226.7497 1.9841.7497s1.4546-.2824 1.9841-.7497c.414-.3655 1.046-.3261 1.4114.088.3655.414.3261 1.046-.088 1.4114-.8808.7775-2.0401 1.2503-3.3075 1.2503s-2.42677-.4728-3.30758-1.2503c-.41407-.3654-.45347-.9974-.088-1.4114z"/></g></svg>