<svg fill="none" height="24" viewBox="0 0 24 24" width="24" xmlns="http://www.w3.org/2000/svg"><g fill="#801ed7"><path clip-rule="evenodd" d="m15.2806 5.72147c.1417-.38041.2193-.79209.2193-1.22147 0-1.933-1.567-3.5-3.5-3.5s-3.49996 1.567-3.49996 3.5c0 .42938.07759.84107.21932 1.22148-.5859.27478-1.13137.6251-1.61688 1.04588-1.32464 1.14801-2.10243 2.73835-2.10243 4.43264 0 2.1077-.52026 3.5999-1.13272 4.6357l-.01015.0172c-.39379.6659-.70141 1.1862-.9077 1.5596-.10311.1866-.19385.3596-.25981.5078-.03272.0734-.0688.1616-.09692.2553-.02096.0698-.07254.2509-.05109.4703.01178.1205.0388.3598.17814.6041.13933.2442.33156.3893.42928.4608.15925.1164.3186.1664.39796.1883.09366.026.18468.0413.26014.0514.15088.0202.32656.0305.50967.0368.36505.0127.87547.0127 1.51863.0127h2.29058c.44404 1.7252 2.01014 3 3.87394 3 1.8639 0 3.43-1.2748 3.874-3h2.2906c.6431 0 1.1536 0 1.5186-.0127.1832-.0063.3588-.0166.5097-.0368.0755-.0101.1665-.0254.2602-.0514.0793-.0219.2387-.0719.3979-.1883.0977-.0715.29-.2166.4293-.4608.1393-.2443.1664-.4836.1781-.6041.0215-.2194-.0301-.4005-.0511-.4703-.0281-.0937-.0642-.1819-.0969-.2553-.0659-.1482-.1567-.3212-.2598-.5078-.2063-.3734-.5138-.8935-.9076-1.5595l-.0102-.0173c-.6125-1.0358-1.1327-2.528-1.1327-4.6357 0-1.69429-.7778-3.28463-2.1025-4.43264-.4855-.42078-1.031-.77111-1.6169-1.04589zm-3.2807-2.72147c-.8284 0-1.5.67157-1.5 1.5 0 .22109.0475.43048.1331.61912.4481-.07885.9059-.11912 1.367-.11912.461 0 .9188.04027 1.3669.11911.0856-.18863.133-.39803.133-.61911 0-.82843-.6715-1.5-1.5-1.5zm-1.7324 17c.3458.5978.9922 1 1.7324 1 .7403 0 1.3867-.4022 1.7325-1z" fill-rule="evenodd"/><path d="m5.07033 5.67396c.481-.2714.65091-.88134.37951-1.36234s-.88134-.65091-1.36234-.37951c-1.58139.89229-2.5587 2.58504-2.54075 4.40071.00546.55225.45758.99552 1.00984.99006s.99552-.45758.99006-1.00983c-.01074-1.08703.57691-2.10488 1.52368-2.63909z"/><path d="m18.55 4.31174c.2714-.481.8813-.65091 1.3623-.37951 1.5814.89229 2.5587 2.58504 2.5408 4.4007-.0055.55226-.4576.99553-1.0099.99007-.5522-.00546-.9955-.45758-.99-1.00983.0107-1.08703-.577-2.10488-1.5237-2.63909-.481-.2714-.6509-.88134-.3795-1.36234z"/></g></svg>