<svg fill="none" height="24" viewBox="0 0 24 24" width="24" xmlns="http://www.w3.org/2000/svg"><g fill="#801ed7"><path clip-rule="evenodd" d="m7.10827 6.5557c-.23536-.33076-.41686-.70833-.52799-1.12309-.5003-1.86713.60774-3.78631 2.47487-4.2866 1.86715-.500299 3.78635.60774 4.28665 2.47487.1111.41477.1427.83253.1042 1.23668.6371.11378 1.2546.31098 1.8325.59175 1.5766.76606 2.7395 2.1009 3.178 3.73746.5455 2.03583 1.4343 3.34263 2.2939 4.18453l.0144.0141c.5527.5414.9844.9642 1.2803 1.2714.1479.1536.2804.2973.3824.4233.0506.0625.1083.1383.1597.2215.0383.062.135.2236.1711.4411.0198.1194.0556.3576-.0157.6296-.0714.272-.2195.4619-.2954.5562-.1237.1537-.2647.2432-.3357.2849-.0837.0493-.1677.0877-.238.117-.1405.0585-.3075.1139-.4827.1675-.3494.1067-.8424.2388-1.4637.4053l-3.1782.8516c.0176 1.7813-1.1652 3.4179-2.9655 3.9003-1.8003.4823-3.6429-.3436-4.51839-1.895l-1.24682.334c-.6211.1665-1.11439.2986-1.47022.3809-.17851.0412-.35088.0768-.50184.0963-.07551.0098-.16738.0185-.26457.0177-.08234-.0007-.24919-.0077-.43315-.0789-.11288-.0438-.33611-.1341-.53392-.334-.1978-.1999-.28584-.424-.32841-.5374-.07752-.2064-.07455-.3946-.07238-.4675.00292-.0978.01494-.1923.02753-.2717.02538-.1602.06825-.3508.11954-.5577.10262-.4141.26509-.9962.47311-1.7414l.00537-.0193c.3235-1.159.43981-2.735-.10569-4.7709-.43851-1.6365-.09883-3.37398.88354-4.82572.36008-.53212.79632-1.0117 1.29117-1.42878zm1.40386-1.64072c-.21441-.8002.26046-1.62271 1.06066-1.83712.80021-.21441 1.62271.26046 1.83711 1.06066.0572.21357.0656.42812.0317.6325-.4532.03981-.9059.11941-1.3512.23874-.44537.11933-.87712.2767-1.28951.46882-.13152-.16006-.23154-.35004-.28876-.5636zm2.82147 15.29082c.4888.4878 1.2171.709 1.9321.5174.7151-.1916 1.2353-.7473 1.4146-1.4142z" fill-rule="evenodd"/><path d="m3.82287 6.98746c.38665.39436.38039 1.0275-.01398 1.41414-.77624.76105-1.08043 1.8963-.78871 2.9435.14821.532-.16294 1.0835-.69497 1.2317-.53202.1482-1.08346-.1629-1.23167-.695-.487268-1.7491.01862-3.63714 1.31519-4.90832.39436-.38665 1.0275-.38039 1.41414.01398z"/><path d="m16.4766 3.59701c.1376-.53486.6828-.85685 1.2177-.71918 1.7584.45259 3.1406 1.83471 3.5931 3.59316.1377.53485-.1843 1.08003-.7191 1.21769-.5349.13766-1.0801-.18432-1.2177-.71918-.271-1.05276-1.1021-1.88384-2.1548-2.1548-.5349-.13766-.8569-.68284-.7192-1.21769z"/></g></svg>