<svg fill="none" height="24" viewBox="0 0 24 24" width="24" xmlns="http://www.w3.org/2000/svg"><g fill="#801ed7"><path clip-rule="evenodd" d="m14 5c0-.55228.4477-1 1-1h6c.5523 0 1 .44772 1 1s-.4477 1-1 1h-6c-.5523 0-1-.44772-1-1z" fill-rule="evenodd"/><path d="m12 1c-1.8565 0-3.63701.7375-4.94977 2.05025-1.31275 1.31276-2.05025 3.09323-2.05025 4.94975 0 2.9127-.732 4.8439-1.49938 6.0771l-.0118.019c-.35732.5742-.6398 1.0282-.83023 1.3586-.09542.1655-.18235.325-.24671.4668-.03213.0707-.06807.1575-.09617.2518-.0233.0782-.0677.2454-.05106.449.01119.1368.03909.3705.17324.612s.31788.3887.42812.4704c.25029.1857.53772.2282.63365.2423l.00443.0007c.14741.0218.31468.0327.48344.0392.33518.0131.79918.0131 1.37622.0131h13.27207c.5771 0 1.0415 0 1.3767-.0131.1687-.0065.336-.0174.4834-.0392l.0044-.0007c.096-.0141.3834-.0566.6337-.2423.1102-.0817.2939-.2289.4281-.4704.1341-.2415.162-.4752.1732-.612.0167-.2036-.0277-.3708-.051-.449-.0281-.0943-.0641-.1811-.0962-.2518-.0644-.1418-.1513-.3013-.2467-.4668-.1904-.3304-.4728-.7842-.83-1.3582l-.012-.0194c-.7674-1.2332-1.4994-3.1644-1.4994-6.0771h-4c-1.6569 0-3-1.34315-3-3s1.3431-3 3-3c.1703 0 .2266-.21432.0737-.28908-.9483-.46344-1.9983-.71092-3.0737-.71092z"/><path d="m10.0159 20.2503c-.41408-.3655-1.04602-.3261-1.41148.088-.36547.414-.32607 1.046.088 1.4114.88081.7775 2.04018 1.2503 3.30758 1.2503s2.4267-.4728 3.3075-1.2503c.4141-.3654.4535-.9974.088-1.4114-.3654-.4141-.9974-.4535-1.4114-.088-.5295.4673-1.2226.7497-1.9841.7497s-1.4547-.2824-1.9841-.7497z"/></g></svg>