<svg fill="none" height="24" viewBox="0 0 24 24" width="24" xmlns="http://www.w3.org/2000/svg"><path clip-rule="evenodd" d="m8.71932 5.72148c-.14173-.38041-.21932-.7921-.21932-1.22148 0-1.933 1.567-3.5 3.5-3.5s3.5 1.567 3.5 3.5c0 .42938-.0776.84106-.2193 1.22147.5859.27478 1.1314.62511 1.6169 1.04589 1.3246 1.14801 2.1024 2.73835 2.1024 4.43264 0 2.1077.5203 3.5999 1.1327 4.6357l.0103.0173c.3937.6659.7013 1.1861.9076 1.5595.1031.1866.1938.3596.2598.5078.0327.0734.0688.1616.0969.2553.021.0698.0726.2509.0511.4703-.0118.1205-.0388.3598-.1781.6041-.1394.2442-.3316.3893-.4293.4608-.1593.1164-.3186.1664-.398.1883-.0936.026-.1847.0413-.2601.0514-.1509.0202-.3266.0305-.5097.0368-.365.0127-.8754.0127-1.5186.0127h-2.2906c-.4441 1.7252-2.0102 3-3.874 3s-3.42994-1.2748-3.87398-3h-2.29052c-.64313 0-1.15365 0-1.51869-.0127-.18311-.0063-.35879-.0166-.50967-.0368-.07546-.0101-.16648-.0254-.26014-.0514-.07936-.0219-.23871-.0719-.39796-.1883-.09772-.0715-.28995-.2166-.42928-.4608-.13934-.2443-.16636-.4836-.17814-.6041-.02145-.2194.03013-.4005.05109-.4703.02812-.0937.0642-.1819.09692-.2553.06596-.1482.1567-.3212.25981-.5078.20629-.3734.51384-.8935.90763-1.5595l.01022-.0173c.61246-1.0358 1.13272-2.528 1.13272-4.6357 0-1.69429.77779-3.28463 2.10243-4.43264.48551-.42078 1.03098-.7711 1.61688-1.04588zm1.78068-1.22148c0-.82843.6716-1.5 1.5-1.5s1.5.67157 1.5 1.5c0 .22108-.0474.43048-.133.61911-.4481-.07884-.9059-.11911-1.367-.11911s-.9189.04027-1.367.11912c-.0856-.18864-.133-.39803-.133-.61912zm1.5 16.5c.7403 0 1.3866-.4022 1.7324-1h-3.4648c.3458.5978.9921 1 1.7324 1z" fill="#801ed7" fill-rule="evenodd"/></svg>