<svg fill="none" height="24" viewBox="0 0 24 24" width="24" xmlns="http://www.w3.org/2000/svg"><g clip-rule="evenodd" fill="#801ed7" fill-rule="evenodd"><path d="m8.99998 21c0-.5523.44772-1 1-1h4.00002c.5523 0 1 .4477 1 1s-.4477 1-1 1h-4.00002c-.55228 0-1-.4477-1-1z"/><path d="m7.05023 3.05025c1.31276-1.31275 3.09327-2.05025 4.94977-2.05025s3.637.7375 4.9497 2.05025c1.3128 1.31276 2.0503 3.09324 2.0503 4.94975 0 2.9127.732 4.8439 1.4994 6.0771l.0118.0191c.3573.5742.6398 1.0281.8302 1.3585.0954.1655.1823.325.2467.4668.0321.0707.0681.1575.0962.2518.0233.0782.0677.2454.051.449-.0112.1368-.0391.3705-.1732.612-.1342.2415-.3179.3887-.4281.4704-.2503.1857-.5377.2282-.6337.2423l-.0044.0007c-.1474.0218-.3147.0327-.4834.0392-.3353.0131-.7994.0131-1.3767.0131h-13.27167c-.57722 0-1.04137 0-1.37662-.0131-.16876-.0065-.33603-.0174-.48344-.0392l-.00443-.0007c-.09593-.0141-.38336-.0566-.63365-.2423-.11024-.0817-.29397-.2289-.42812-.4704s-.16205-.4752-.17324-.612c-.01664-.2036.02776-.3708.05106-.449.0281-.0943.06404-.1811.09617-.2518.06436-.1418.15129-.3013.24671-.4668.19043-.3304.47291-.7844.83023-1.3586l.0118-.019c.76738-1.2332 1.49938-3.1644 1.49938-6.0771 0-1.85652.7375-3.63699 2.05025-4.94975z"/></g></svg>