<svg fill="none" height="24" viewBox="0 0 24 24" width="24" xmlns="http://www.w3.org/2000/svg"><g clip-rule="evenodd" fill="#801ed7" fill-rule="evenodd"><path d="m8.60442 20.3383c.36546-.4141.9974-.4535 1.41148-.088.5294.4673 1.2226.7497 1.9841.7497s1.4546-.2824 1.9841-.7497c.414-.3655 1.046-.3261 1.4114.088.3655.414.3261 1.046-.088 1.4114-.8808.7775-2.0401 1.2503-3.3075 1.2503s-2.42677-.4728-3.30758-1.2503c-.41407-.3654-.45347-.9974-.088-1.4114z"/><path d="m7.05023 3.05025c1.31276-1.31275 3.09327-2.05025 4.94977-2.05025s3.637.7375 4.9497 2.05025c1.3128 1.31276 2.0503 3.09324 2.0503 4.94975 0 2.9127.732 4.8439 1.4994 6.0771l.0118.0191c.3573.5742.6398 1.0281.8302 1.3585.0954.1655.1823.325.2467.4668.0321.0707.0681.1575.0962.2518.0233.0782.0677.2454.051.449-.0112.1368-.0391.3705-.1732.612-.1342.2415-.3179.3887-.4281.4704-.2503.1857-.5377.2282-.6337.2423l-.0044.0007c-.1474.0218-.3147.0327-.4834.0392-.3353.0131-.7994.0131-1.3767.0131h-13.27167c-.57722 0-1.04137 0-1.37662-.0131-.16876-.0065-.33603-.0174-.48344-.0392l-.00443-.0007c-.09593-.0141-.38336-.0566-.63365-.2423-.11024-.0817-.29397-.2289-.42812-.4704s-.16205-.4752-.17324-.612c-.01664-.2036.02776-.3708.05106-.449.0281-.0943.06404-.1811.09617-.2518.06436-.1418.15129-.3013.24671-.4668.19043-.3304.47291-.7844.83023-1.3586l.0118-.019c.76738-1.2332 1.49938-3.1644 1.49938-6.0771 0-1.85652.7375-3.63699 2.05025-4.94975z"/></g></svg>