<svg fill="none" height="24" viewBox="0 0 24 24" width="24" xmlns="http://www.w3.org/2000/svg"><g clip-rule="evenodd" fill="#801ed7" fill-rule="evenodd"><path d="m8.60444 20.3383c.36547-.4141.9974-.4535 1.41146-.088.5295.4673 1.2226.7497 1.9841.7497s1.4546-.2824 1.9841-.7497c.4141-.3655 1.046-.3261 1.4115.088.3654.414.326 1.046-.088 1.4114-.8808.7775-2.0402 1.2503-3.3076 1.2503s-2.42674-.4728-3.30755-1.2503c-.41407-.3654-.45347-.9974-.08801-1.4114z"/><path d="m5.19703 1.80858c.2714.481.10149 1.09094-.37951 1.36234-.94676.53421-1.53442 1.55206-1.52367 2.63909.00546.55226-.43781 1.00437-.99007 1.00983s-1.00438-.4378-1.00984-.99006c-.01794-1.81567.95936-3.50842 2.54075-4.40071.481-.2714 1.09094-.10149 1.36234.37951z"/><path d="m18.799 1.80859c.2714-.481.8813-.65091 1.3623-.37951 1.5814.89229 2.5587 2.58504 2.5408 4.4007-.0055.55226-.4576.99553-1.0098.99007-.5523-.00546-.9956-.45758-.9901-1.00984.0107-1.08702-.5769-2.10487-1.5237-2.63908-.481-.2714-.6509-.88134-.3795-1.36234z"/><path d="m7.05026 3.05025c1.31275-1.31275 3.09324-2.05025 4.94974-2.05025s3.637.7375 4.9498 2.05025c1.3127 1.31276 2.0502 3.09324 2.0502 4.94975 0 2.9127.732 4.8439 1.4994 6.0771l.0119.0191c.3572.5742.6397 1.0281.8301 1.3585.0954.1655.1824.325.2467.4668.0322.0707.0681.1575.0962.2518.0233.0782.0677.2454.0511.449-.0112.1368-.0391.3705-.1733.612-.1341.2415-.3179.3887-.4281.4704-.2503.1857-.5377.2282-.6337.2423l-.0044.0007c-.1474.0218-.3147.0327-.4834.0392-.3353.0131-.7994.0131-1.3766.0131h-13.27175c-.57722 0-1.04136 0-1.37662-.0131-.16875-.0065-.33603-.0174-.48344-.0392l-.00443-.0007c-.09593-.0141-.38336-.0566-.63365-.2423-.11024-.0817-.29397-.2289-.42812-.4704s-.16204-.4752-.17323-.612c-.01665-.2036.02775-.3708.05106-.449.02809-.0943.06403-.1811.09616-.2518.06436-.1418.1513-.3013.24672-.4668.19043-.3304.4729-.7844.83023-1.3586l.01179-.019c.76738-1.2332 1.49939-3.1644 1.49939-6.0771 0-1.85652.73749-3.63699 2.05025-4.94975z"/></g></svg>