<svg fill="none" height="24" viewBox="0 0 24 24" width="24" xmlns="http://www.w3.org/2000/svg"><path d="m11.5681 4c-.2524-.00003-.4982-.00006-.7063.01695-.2286.01868-.4984.06274-.7698.20104-.3763.19175-.68226.49771-.87401.87403-.1383.27143-.18236.54116-.20104.76976-.00363.04445-.00649.09063-.00873.13822h-4.27578c-.34581-.5978-.99216-1-1.73244-1-1.10457 0-2 .89543-2 2s.89543 2 2 2c.74028 0 1.38663-.4022 1.73244-1h1.61073c-1.79684 1.45362-3.0229 3.5849-3.28889 6.0059-.0669.0025-.13132.0061-.1925.0111-.2286.0186-.49833.0627-.76976.201-.37632.1917-.68228.4977-.87403.874-.1383.2714-.18236.5412-.20104.7698-.017007.2081-.016977.4539-.01695.7063v.8638c-.000027.2524-.000057.4982.01695.7063.01868.2286.06274.4984.20104.7698.19175.3763.49771.6823.87403.874.27143.1383.54116.1824.76976.2011.20815.017.45394.0169.70633.0169h.86379c.25239 0 .49818.0001.70634-.0169.22859-.0187.49832-.0628.76975-.2011.37632-.1917.68228-.4977.87403-.874.1383-.2714.18236-.5412.20104-.7698.01701-.2081.01698-.4539.01695-.7063v-.8638c.00003-.2524.00006-.4982-.01695-.7063-.01868-.2286-.06274-.4984-.20104-.7698-.19175-.3763-.49771-.6823-.87403-.874-.27143-.1383-.54116-.1824-.76975-.201-.02258-.0019-.0456-.0035-.06901-.005.33969-2.4036 1.90042-4.41591 4.03512-5.38705.02828.093.06518.18792.11364.28304.19175.37632.49771.68228.87401.87403.2714.1383.5412.18236.7698.20104.2081.01704.4539.01694.7063.01694h.8638c.2524 0 .4982.0001.7063-.01694.2286-.01868.4984-.06274.7698-.20104.3763-.19175.6823-.49771.874-.87403.0485-.09512.0854-.19003.1137-.28304 2.1347.97115 3.6954 2.98345 4.0351 5.38705-.0234.0015-.0465.0031-.069.005-.2286.0186-.4984.0627-.7698.201-.3763.1917-.6823.4977-.874.874-.1383.2714-.1824.5412-.201.7698-.0171.2081-.017.4539-.017.7063v.8638c0 .2524-.0001.4982.017.7063.0186.2286.0627.4984.201.7698.1917.3763.4977.6823.874.874.2714.1383.5412.1824.7698.2011.2081.017.4539.0169.7063.0169h.8638c.2524 0 .4982.0001.7063-.0169.2286-.0187.4984-.0628.7698-.2011.3763-.1917.6823-.4977.874-.874.1383-.2714.1824-.5412.2011-.7698.017-.2081.0169-.4539.0169-.7063v-.8638c0-.2524.0001-.4982-.0169-.7063-.0187-.2286-.0628-.4984-.2011-.7698-.1917-.3763-.4977-.6823-.874-.874-.2714-.1383-.5412-.1824-.7698-.201-.0611-.005-.1256-.0086-.1925-.0111-.266-2.421-1.492-4.55228-3.2889-6.0059h1.6108c.3458.5978.9921 1 1.7324 1 1.1046 0 2-.89543 2-2s-.8954-2-2-2c-.7403 0-1.3866.4022-1.7324 1h-4.2758c-.0023-.04759-.0051-.09377-.0087-.13822-.0187-.2286-.0628-.49833-.2011-.76976-.1917-.37632-.4977-.68228-.874-.87403-.2714-.1383-.5412-.18236-.7698-.20104-.2081-.01701-.4539-.01698-.7063-.01695z" fill="#801ed7"/></svg>