<svg fill="none" height="24" viewBox="0 0 24 24" width="24" xmlns="http://www.w3.org/2000/svg"><path clip-rule="evenodd" d="m11.5681 1c-.2524-.000027-.4982-.000057-.7063.01695-.2286.01868-.4984.06274-.7698.20104-.3763.19175-.68226.49771-.87401.87403-.1383.27143-.18236.54116-.20104.76976-.00314.0384-.00569.07808-.00778.11885-2.84146.94179-5.08666 3.18704-6.02837 6.02853-.04083.00209-.08057.00465-.11902.00779-.2286.01868-.49833.06274-.76976.20104-.37632.19175-.68228.49771-.87403.87401-.1383.2714-.18236.5412-.20104.7698-.017007.2081-.016977.4539-.01695.7063v.8638c-.000027.2524-.000057.4982.01695.7063.01868.2286.06274.4984.20104.7698.19175.3763.49771.6823.87403.874.27143.1383.54116.1824.76976.2011.0384.0031.07809.0057.11887.0077.94179 2.8415 3.18703 5.0867 6.02851 6.0284.00209.0408.00465.0806.00779.119.01868.2286.06274.4984.20104.7698.19175.3763.49771.6823.87401.874.2714.1383.5412.1824.7698.2011.2081.017.4539.0169.7063.0169h.8638c.2524 0 .4982.0001.7063-.0169.2286-.0187.4984-.0628.7698-.2011.3763-.1917.6823-.4977.874-.874.1383-.2714.1824-.5412.2011-.7698.0031-.0383.0056-.0779.0077-.1186 2.8417-.9417 5.0872-3.1871 6.0289-6.0288.0407-.0021.0802-.0046.1185-.0077.2286-.0187.4984-.0628.7698-.2011.3763-.1917.6823-.4977.874-.874.1383-.2714.1824-.5412.2011-.7698.017-.2081.0169-.4539.0169-.7063v-.8638c0-.2524.0001-.4982-.0169-.7063-.0187-.2286-.0628-.4984-.2011-.7698-.1917-.3763-.4977-.68226-.874-.87401-.2714-.1383-.5412-.18236-.7698-.20104-.0383-.00313-.0779-.00568-.1186-.00777-.9417-2.84164-3.1871-5.08698-6.0288-6.02869-.0021-.04072-.0046-.08036-.0077-.11871-.0187-.2286-.0628-.49833-.2011-.76976-.1917-.37632-.4977-.68228-.874-.87403-.2714-.1383-.5412-.18236-.7698-.20104-.2081-.017007-.4539-.016977-.7063-.01695zm3.4166 17.8831c1.7422-.7566 3.1418-2.1562 3.8985-3.8984l-.0214-.0016c-.2286-.0187-.4984-.0628-.7698-.2011-.3763-.1917-.6823-.4977-.874-.874-.1383-.2714-.1824-.5412-.201-.7698-.0171-.2081-.017-.4539-.017-.7063v-.8638c0-.2524-.0001-.4982.017-.7063.0186-.2286.0627-.4984.201-.7698.1917-.3763.4977-.68226.874-.87401.2714-.1383.5412-.18236.7698-.20104l.0213-.00167c-.7567-1.74214-2.1562-3.14166-3.8984-3.89828l-.0016.02124c-.0187.22859-.0628.49832-.2011.76975-.1917.37632-.4977.68228-.874.87403-.2714.1383-.5412.18236-.7698.20104-.2081.01701-.4539.01698-.7063.01695h-.8638c-.2524.00003-.4982.00006-.7063-.01695-.2286-.01868-.4984-.06274-.7698-.20104-.3763-.19175-.68226-.49771-.87401-.87403-.1383-.27143-.18236-.54116-.20104-.76975l-.00165-.02107c-1.74199.75667-3.14139 2.15612-3.89799 3.89814l.02093.00164c.22859.01868.49832.06274.76975.20104.37632.19175.68228.49771.87403.87401.1383.2714.18236.5412.20104.7698.01701.2081.01698.4539.01695.7063v.8638c.00003.2524.00006.4982-.01695.7063-.01868.2286-.06274.4984-.20104.7698-.19175.3763-.49771.6823-.87403.874-.27143.1383-.54116.1824-.76975.2011l-.02105.0016c.75667 1.742 2.15611 3.1414 3.89812 3.898.00053-.007.00108-.014.00164-.0209.01868-.2286.06274-.4984.20104-.7698.19175-.3763.49771-.6823.87401-.874.2714-.1383.5412-.1824.7698-.201.2081-.0171.4539-.017.7063-.017h.8638c.2524 0 .4982-.0001.7063.017.2286.0186.4984.0627.7698.201.3763.1917.6823.4977.874.874.1383.2714.1824.5412.2011.7698.0005.007.0011.0142.0016.0213z" fill="#801ed7" fill-rule="evenodd"/></svg>