<svg fill="none" height="24" viewBox="0 0 24 24" width="24" xmlns="http://www.w3.org/2000/svg"><path clip-rule="evenodd" d="m11.5681 2c-.2524-.00003-.4982-.00006-.7063.01695-.2286.01868-.4984.06274-.7698.20104-.3763.19175-.68226.49771-.87401.87403-.1383.27143-.18236.54116-.20104.76976-.01701.20815-.01698.45394-.01695.70631v.86381c-.00003.25238-.00006.49818.01695.70634.01868.22859.06274.49832.20104.76975.07961.15623.17889.30033.29473.42917l-4.95024 8.66294-.99437-.0001c-.25239 0-.49818-.0001-.70633.017-.2286.0186-.49833.0627-.76976.201-.37632.1917-.68228.4977-.87403.874-.1383.2714-.18236.5412-.20104.7698-.017007.2081-.016977.4539-.01695.7063v.8638c-.000027.2524-.000057.4982.01695.7063.01868.2286.06274.4984.20104.7698.19175.3763.49771.6823.87403.874.27143.1383.54116.1824.76976.2011.20815.017.45394.0169.70633.0169h.86379c.25239 0 .49818.0001.70634-.0169.22859-.0187.49832-.0628.76975-.2011.37632-.1917.68228-.4977.87403-.874.1383-.2714.18236-.5412.20104-.7698.00363-.0444.00648-.0905.00872-.138h10.01642c.0023.0475.0051.0936.0088.138.0186.2286.0627.4984.201.7698.1917.3763.4977.6823.874.874.2714.1383.5412.1824.7698.2011.2081.017.4539.0169.7063.0169h.8638c.2524 0 .4982.0001.7063-.0169.2286-.0187.4984-.0628.7698-.2011.3763-.1917.6823-.4977.874-.874.1383-.2714.1824-.5412.2011-.7698.017-.2081.0169-.4539.0169-.7063v-.8638c0-.2524.0001-.4982-.0169-.7063-.0187-.2286-.0628-.4984-.2011-.7698-.1917-.3763-.4977-.6823-.874-.874-.2714-.1383-.5412-.1824-.7698-.201-.2081-.0171-.4539-.017-.7063-.017l-.9946.0001-4.9501-8.66279c.1158-.12887.2152-.27303.2948-.42932.1383-.27143.1824-.54116.2011-.76975.017-.20816.0169-.45395.0169-.70634v-.86379c0-.25239.0001-.49818-.0169-.70633-.0187-.2286-.0628-.49833-.2011-.76976-.1917-.37632-.4977-.68228-.874-.87403-.2714-.1383-.5412-.18236-.7698-.20104-.2081-.01701-.4539-.01698-.7063-.01695zm-.1306 5.99993c.0432.00009.0868.00008.1306.00008h.8638c.0437 0 .0872.00001.1304-.00007l4.9503 8.66306c-.1158.1288-.215.2728-.2946.429-.1383.2714-.1824.5412-.201.7698-.0037.0445-.0065.0907-.0088.1384h-10.0164c-.00225-.0477-.0051-.0939-.00874-.1384-.01868-.2286-.06274-.4984-.20104-.7698-.07961-.1562-.17891-.3003-.29475-.4292z" fill="#801ed7" fill-rule="evenodd"/></svg>