<svg fill="none" height="24" viewBox="0 0 24 24" width="24" xmlns="http://www.w3.org/2000/svg"><path clip-rule="evenodd" d="m11.5759 1.09442c.3514-.164577.7662-.111032 1.0643.13737l6 5c.228.18999.3598.47144.3598.76822s-.1318.57823-.3598.76822l-5.0781 4.23177 5.0781 4.2318c.228.19.3598.4714.3598.7682s-.1318.5782-.3598.7682l-6 5c-.2981.2484-.7129.302-1.0643.1374s-.5759-.5176-.5759-.9056v-7.8649l-4.35979 3.6331c-.42428.3536-1.05484.2963-1.40841-.128-.35356-.4243-.29624-1.0548.12804-1.4084l5.07816-4.2318-5.07816-4.23177c-.42428-.35356-.4816-.98413-.12804-1.4084.35357-.42428.98413-.4816 1.40841-.12804l4.35979 3.63318v-7.86496c0-.38802.2245-.74101.5759-.90559zm1.4241 13.04068 3.438 2.8649-3.438 2.865zm0-4.27013v-5.72992l3.438 2.86496z" fill="#801ed7" fill-rule="evenodd"/></svg>