<svg fill="none" height="24" viewBox="0 0 24 24" width="24" xmlns="http://www.w3.org/2000/svg"><g clip-rule="evenodd" fill="#801ed7" fill-rule="evenodd"><path d="m17 12c0-.5523.4477-1 1-1h.01c.5523 0 1 .4477 1 1s-.4477 1-1 1h-.01c-.5523 0-1-.4477-1-1z"/><path d="m14 12c0-.5523.4477-1 1-1h.01c.5523 0 1 .4477 1 1s-.4477 1-1 1h-.01c-.5523 0-1-.4477-1-1z"/><path d="m20 12c0-.5523.4477-1 1-1h.01c.5523 0 1 .4477 1 1s-.4477 1-1 1h-.01c-.5523 0-1-.4477-1-1z"/><path d="m8.57587 1.09442c.35138-.164577.76626-.111032 1.06434.13737l5.99999 5c.228.18999.3598.47144.3598.76822s-.1318.57823-.3598.76822l-5.0781 4.23177 5.0781 4.2318c.228.19.3598.4714.3598.7682s-.1318.5782-.3598.7682l-5.99999 5c-.29808.2484-.71296.302-1.06434.1374s-.57584-.5176-.57584-.9056v-7.8649l-4.35982 3.6331c-.42428.3536-1.05484.2963-1.40841-.128-.35356-.4243-.29624-1.0548.12804-1.4084l5.07814-4.2318-5.07814-4.23177c-.42428-.35356-.4816-.98413-.12804-1.4084.35357-.42428.98413-.4816 1.40841-.12804l4.35982 3.63318v-7.86496c0-.38802.22446-.74101.57584-.90559zm1.42413 13.04068 3.438 2.8649-3.438 2.865zm0-4.27013v-5.72992l3.438 2.86496z"/></g></svg>