<svg fill="none" height="24" viewBox="0 0 24 24" width="24" xmlns="http://www.w3.org/2000/svg"><g fill="#801ed7"><path d="m11.5758 1.09442c.3514-.164577.7663-.111032 1.0644.13737l6 5c.228.18999.3598.47144.3598.76822s-.1318.57823-.3598.76822l-2.9183 2.43197c-.4243.3535-1.0549.2962-1.4084-.1281-.3536-.42424-.2963-1.0548.128-1.40837l1.9965-1.66372-3.438-2.86496v2.86496c0 .55229-.4477 1-1 1s-1-.44771-1-1v-5c0-.38802.2245-.74101.5758-.90559z"/><path clip-rule="evenodd" d="m12.7009 11.2867-8.99379-8.99381c-.39053-.39052-1.02369-.39052-1.41422 0-.39052.39053-.39052 1.02369 0 1.41422l8.22571 8.22569-5.15876 4.299c-.42428.3536-.4816.9841-.12804 1.4084.35357.4243.98413.4816 1.40841.128l4.35979-3.6331v7.8649c0 .388.2245.741.5759.9056s.7662.111 1.0643-.1374l4.753-3.9608 2.8997 2.8997c.3905.3905 1.0237.3905 1.4142 0s.3905-1.0237 0-1.4142l-8.994-8.994c-.004-.0041-.0081-.0082-.0122-.0122zm3.2723 6.1007-2.9732 2.4776v-5.4508z" fill-rule="evenodd"/></g></svg>