<svg fill="none" height="24" viewBox="0 0 24 24" width="24" xmlns="http://www.w3.org/2000/svg"><g clip-rule="evenodd" fill="#801ed7" fill-rule="evenodd"><path d="m19.5606 5.68824c.4483-.32252 1.0732-.22053 1.3957.2278 1.232 1.71251 1.9578 3.81496 1.9578 6.08396s-.7258 4.3715-1.9578 6.084c-.3225.4483-.9474.5503-1.3957.2278s-.5503-.9474-.2278-1.3958c.9953-1.3835 1.5813-3.0799 1.5813-4.916s-.586-3.53244-1.5813-4.91602c-.3225-.44833-.2205-1.07323.2278-1.39574z"/><path d="m16.4279 8.03707c.453-.31597 1.0763-.20489 1.3923.24808.7347 1.05325 1.1657 2.33525 1.1657 3.71495s-.431 2.6617-1.1657 3.715c-.316.4529-.9393.564-1.3923.2481-.4529-.316-.564-.9394-.2481-1.3923.5082-.7285.8061-1.6134.8061-2.5708s-.2979-1.8423-.8061-2.57075c-.3159-.45298-.2048-1.07632.2481-1.39228z"/><path d="m7.57587 1.09442c.35138-.164577.76626-.111032 1.06434.13737l5.99999 5c.228.18999.3598.47144.3598.76822s-.1318.57823-.3598.76822l-5.07813 4.23177 5.07813 4.2318c.228.19.3598.4714.3598.7682s-.1318.5782-.3598.7682l-5.99999 5c-.29808.2484-.71296.302-1.06434.1374s-.57584-.5176-.57584-.9056v-7.8649l-4.35982 3.6331c-.42428.3536-1.05484.2963-1.40841-.128-.35356-.4243-.296236-1.0548.12804-1.4084l5.07814-4.2318-5.07814-4.23177c-.424276-.35356-.4816-.98413-.12804-1.4084.35357-.42428.98413-.4816 1.40841-.12804l4.35982 3.63318v-7.86496c0-.38802.22446-.74101.57584-.90559zm1.42415 13.04068 3.43798 2.8649-3.43798 2.865zm0-4.27013v-5.72992l3.43798 2.86496z"/></g></svg>