<svg fill="none" height="24" viewBox="0 0 24 24" width="24" xmlns="http://www.w3.org/2000/svg"><g fill="#801ed7"><path d="m14.5 9.5c0 .8284-.6716 1.5-1.5 1.5h-3.5v-3h3.5c.8284 0 1.5.67157 1.5 1.5z"/><path d="m9.5 16v-3h4.5c.8284 0 1.5.6716 1.5 1.5s-.6716 1.5-1.5 1.5z"/><path clip-rule="evenodd" d="m7.7587 2h8.4826c.805-.00001 1.4693-.00002 2.0105.0442.5621.04592 1.0788.14448 1.5642.39178.7526.38349 1.3645.99541 1.748 1.74806.2473.48534.3459 1.00204.3918 1.56414.0442.54119.0442 1.20554.0442 2.0105v8.48262c0 .805 0 1.4693-.0442 2.0105-.0459.5621-.1445 1.0788-.3918 1.5642-.3835.7526-.9954 1.3645-1.748 1.748-.4854.2473-1.0021.3459-1.5642.3918-.5412.0442-1.2055.0442-2.0105.0442h-8.48262c-.80496 0-1.46931 0-2.0105-.0442-.5621-.0459-1.0788-.1445-1.56414-.3918-.75265-.3835-1.36457-.9954-1.74806-1.748-.2473-.4854-.34586-1.0021-.39178-1.5642-.04422-.5412-.04421-1.2055-.0442-2.0105v-8.48261c-.00001-.80496-.00002-1.46933.0442-2.01051.04592-.5621.14448-1.0788.39178-1.56414.38349-.75265.99541-1.36457 1.74806-1.74806.48534-.2473 1.00204-.34586 1.56414-.39178.54118-.04422 1.20557-.04421 2.01052-.0442zm-.2587 5c0-.55228.44772-1 1-1h4.5c1.933 0 3.5 1.567 3.5 3.5 0 .7566-.2401 1.4571-.6481 2.0295.9897.6183 1.6481 1.7175 1.6481 2.9705 0 1.933-1.567 3.5-3.5 3.5h-5.5c-.55228 0-1-.4477-1-1z" fill-rule="evenodd"/></g></svg>