<svg fill="none" height="24" viewBox="0 0 24 24" width="24" xmlns="http://www.w3.org/2000/svg"><path d="m18.2211 1.99773c.206.00107.4118.00213.6174.00213.5272-.00002.982-.00004 1.3565.03057.3954.0323.7886.10361 1.167.29641.5645.28762 1.0234.74656 1.311 1.31105.1928.37838.2641.7716.2964 1.16694.0306.37457.0306.82932.0306 1.35646v8.67711c0 .5271 0 .9819-.0306 1.3565-.0323.3953-.1036.7886-.2964 1.1669-.2876.5645-.7465 1.0235-1.311 1.3111-.3784.1928-.7716.2641-1.167.2964-.669.0547-1.3464.0458-2.0208.0371-.2503-.0033-.5001-.0065-.749-.0065-1.3146 0-1.7635.0101-2.1562.1294-.3774.1146-.7285.3025-1.0331.5529-.4599.378-.7972.9151-1.1212 1.4311-.0937.1492-.1863.2967-.2805.438-.1255.1899-.3153.3363-.5444.4057-.4218.1277-.8774-.0358-1.1218-.4024-.0949-.1424-.1882-.291-.2827-.4413-.324-.516-.6613-1.0531-1.12116-1.4311-.30468-.2504-.65575-.4383-1.03312-.5529-.39272-.1193-.84164-.1294-2.15619-.1294-.24889 0-.49875.0032-.74902.0065-.67445.0087-1.35183.0176-2.02084-.0371-.39534-.0323-.78856-.1036-1.16694-.2964-.56449-.2876-1.02343-.7466-1.31105-1.3111-.19279-.3783-.26411-.7716-.29641-1.1669-.030601-.3746-.030586-.8293-.03057-1.3565v-8.67709c-.000016-.52713-.000031-.98192.03057-1.35648.0323-.39534.10362-.78856.29641-1.16694.28762-.56449.74656-1.02343 1.31105-1.31105.37838-.1928.7716-.26411 1.16694-.29641.37458-.03061.82934-.03059 1.35648-.03057.20563 0 .41148-.00106.61742-.00213.8438-.00435 1.6894-.00871 2.52976.05995.72885.05955 1.36903.18536 1.96137.48715.6835.34829 1.2742.84731 1.73 1.45502.4558-.60771 1.0465-1.10673 1.73-1.45502.5923-.30179 1.2325-.4276 1.9614-.48715.8403-.06866 1.6859-.0643 2.5297-.05995z" fill="#801ed7"/></svg>