<svg fill="none" height="24" viewBox="0 0 24 24" width="24" xmlns="http://www.w3.org/2000/svg"><path clip-rule="evenodd" d="m3.04426 19.2518c.04593.5621.14449 1.0788.39178 1.5642.38349.7526.99542 1.3645 1.74806 1.748.48534.2473 1.00204.3459 1.56414.3918.54119.0442 1.20554.0442 2.0105.0442h8.07986c.5272 0 .9819 0 1.3565-.0306.3953-.0323.7886-.1036 1.1669-.2964.5645-.2876 1.0235-.7465 1.3111-1.311.1928-.3784.2641-.7716.2964-1.167.0274-.3357.0306-.7357.0306-1.195 0-4.6129 0-9.22571 0-13.83856 0-.52714 0-.9819-.0306-1.35647-.0323-.39534-.1036-.78856-.2964-1.16694-.2876-.56449-.7466-1.02343-1.3111-1.31105-.3783-.19279-.7716-.26411-1.1669-.29641-.3746-.030601-.8293-.030586-1.3564-.03057h-8.07993c-.80495-.000011-1.46935-.00002-2.01053.0442-.5621.04592-1.0788.14449-1.56414.39178-.75264.38349-1.36457.99541-1.74806 1.74806-.24729.48534-.34585 1.00204-.39178 1.56414-.04422.54119-.04421 1.20554-.04419 2.01051v10.48261c-.00001.671-.01042 1.3422.04419 2.0105zm15.93184.7804c-.0222.2716-.0598.3723-.085.4218-.0959.1882-.2489.3411-.437.437-.0495.0252-.1502.0629-.4219.0851-.2833.0231-.6556.0239-1.2321.0239h-8.00003c-.85658 0-1.43888-.0008-1.88897-.0375-.43841-.0359-.66261-.1008-.81901-.1805-.37633-.1917-.68229-.4977-.87404-.874-.17917-.3517-.26777-.6562-.20119-1.1683.1276-.9816.96687-1.7397 1.98321-1.7397h12.00003c0 1.005.058 2.0295-.024 3.0322z" fill="#801ed7" fill-rule="evenodd"/></svg>