<svg fill="none" height="24" viewBox="0 0 24 24" width="24" xmlns="http://www.w3.org/2000/svg"><path clip-rule="evenodd" d="m14.2413 2h-4.4826c-.80496-.00001-1.46933-.00002-2.01052.04419-.5621.04593-1.07881.14449-1.56414.39179-.75265.38349-1.36457.99541-1.74806 1.74806-.2473.48533-.34586 1.00204-.39179 1.56414-.04421.54119-.0442 1.20554-.04419 2.01051v13.24131c0 .3565.18976.686.49807.8649.30832.1789.68857.1802.99807.0033l6.50386-3.7164 6.5039 3.7164c.3095.1769.6897.1756.998-.0033s.4981-.5084.4981-.8649v-13.24127c0-.80497 0-1.46936-.0442-2.01055-.0459-.5621-.1445-1.07881-.3918-1.56414-.3835-.75265-.9954-1.36457-1.748-1.74806-.4854-.2473-1.0021-.34586-1.5642-.39179-.5412-.04421-1.2055-.0442-2.0105-.04419zm1.9658 6.70711c.3905-.39053.3905-1.02369 0-1.41422-.3905-.39052-1.0237-.39052-1.4142 0l-3.7929 3.79291-1.29289-1.29291c-.39053-.39052-1.02369-.39052-1.41422 0-.39052.39051-.39052 1.02371 0 1.41421l2.00001 2c.3905.3905 1.0237.3905 1.4142 0z" fill="#801ed7" fill-rule="evenodd"/></svg>