<svg fill="none" height="24" viewBox="0 0 24 24" width="24" xmlns="http://www.w3.org/2000/svg"><g fill="#801ed7"><path d="m5.429 3c-1.81528 0-3.286 1.47071-3.286 3.286v4.1568l-.85011.8501c-.18753.1875-.29289.4419-.29289.7071s.10536.5196.29289.7071l.85011.8501v4.1568c0 1.8153 1.47072 3.286 3.286 3.286.55228 0 1-.4477 1-1s-.44772-1-1-1c-.71072 0-1.286-.5753-1.286-1.286v-4.571c0-.2652-.10536-.5196-.29289-.7071l-.4359-.4359.4359-.4359c.18753-.1875.29289-.4419.29289-.7071v-4.571c0-.71072.57528-1.286 1.286-1.286.55228 0 1-.44772 1-1s-.44772-1-1-1z"/><path d="m18.5708 3c-.5523 0-1 .44772-1 1s.4477 1 1 1c.7107 0 1.286.57529 1.286 1.286v4.571c0 .2652.1054.5196.2929.7071l.4359.4359-.4359.4359c-.1875.1875-.2929.4419-.2929.7071v4.571c0 .7104-.576 1.286-1.286 1.286-.5523 0-1 .4477-1 1s.4477 1 1 1c1.814 0 3.286-1.4704 3.286-3.286v-4.1568l.8501-.8501c.3905-.3905.3905-1.0237 0-1.4142l-.8501-.8501v-4.1568c0-1.81529-1.4707-3.286-3.286-3.286z"/><path d="m12 7c.5523 0 1 .44772 1 1v3h3c.5523 0 1 .4477 1 1s-.4477 1-1 1h-3v3c0 .5523-.4477 1-1 1s-1-.4477-1-1v-3h-3c-.55228 0-1-.4477-1-1s.44772-1 1-1h3v-3c0-.55228.4477-1 1-1z"/></g></svg>