<svg fill="none" height="24" viewBox="0 0 24 24" width="24" xmlns="http://www.w3.org/2000/svg"><g clip-rule="evenodd" fill="#801ed7" fill-rule="evenodd"><path d="m17.5708 4c0-.55228.4477-1 1-1 1.8153 0 3.286 1.47071 3.286 3.286v4.1568l.8501.8501c.3905.3905.3905 1.0237 0 1.4142l-.8501.8501v4.1568c0 1.8156-1.472 3.286-3.286 3.286-.5523 0-1-.4477-1-1s.4477-1 1-1c.71 0 1.286-.5756 1.286-1.286v-4.571c0-.2652.1054-.5196.2929-.7071l.4359-.4359-.4359-.4359c-.1875-.1875-.2929-.4419-.2929-.7071v-4.571c0-.71071-.5753-1.286-1.286-1.286-.5523 0-1-.44772-1-1z"/><path d="m2.143 6.286c0-1.81529 1.47072-3.286 3.286-3.286.55228 0 1 .44772 1 1s-.44772 1-1 1c-.71072 0-1.286.57528-1.286 1.286v4.571c0 .2652-.10536.5196-.29289.7071l-.4359.4359.4359.4359c.18753.1875.29289.4419.29289.7071v4.571c0 .7107.57528 1.286 1.286 1.286.55228 0 1 .4477 1 1s-.44772 1-1 1c-1.81528 0-3.286-1.4707-3.286-3.286v-4.1568l-.85011-.8501c-.18753-.1875-.29289-.4419-.29289-.7071s.10536-.5196.29289-.7071l.85011-.8501z"/><path d="m17.2071 8.29289c.3905.39053.3905 1.02369 0 1.41422l-5.4343 5.43429c-.0054.0054-.0108.0109-.0164.0164-.0842.0842-.1847.1849-.2806.2663-.111.0942-.2796.2198-.5123.2954-.3012.0979-.6258.0979-.927 0-.23266-.0756-.40126-.2012-.51233-.2954-.09585-.0814-.1964-.182-.28059-.2663-.00553-.0055-.01099-.011-.01637-.0164l-2.43432-2.4343c-.39052-.3905-.39052-1.0237 0-1.4142.39053-.3905 1.02369-.3905 1.41422 0l2.29289 2.2929 5.2929-5.29291c.3905-.39052 1.0237-.39052 1.4142 0z"/></g></svg>