<svg fill="none" height="24" viewBox="0 0 24 24" width="24" xmlns="http://www.w3.org/2000/svg"><path clip-rule="evenodd" d="m11.8625 2.00005h.2752c.7954-.00043 1.386-.00075 1.8977.13634 1.3803.36987 2.4585 1.44806 2.8284 2.82843.0824.30744.1151.64341.1281 1.03518h1.8466c.5272-.00002.982-.00003 1.3565.03057.3954.0323.7886.10362 1.167.29641.5645.28762 1.0234.74656 1.311 1.31105.1928.37838.2641.7716.2964 1.16694.0306.37457.0306.82933.0306 1.35643v7.6772c0 .5271 0 .9819-.0306 1.3564-.0323.3954-.1036.7886-.2964 1.167-.2876.5645-.7465 1.0234-1.311 1.311-.3784.1928-.7716.2641-1.167.2964-.3745.0306-.8292.0306-1.3564.0306h-13.67712c-.52711 0-.98196 0-1.35651-.0306-.39534-.0323-.78856-.1036-1.16694-.2964-.56449-.2876-1.02343-.7465-1.31105-1.311-.19279-.3784-.26411-.7716-.29641-1.167-.030601-.3745-.030586-.8293-.03057-1.3564v-7.6771c-.000016-.52717-.000031-.98196.03057-1.35653.0323-.39534.10362-.78856.29641-1.16694.28762-.56449.74656-1.02343 1.31105-1.31105.37838-.19279.7716-.26411 1.16694-.29641.37458-.0306.82934-.03059 1.35648-.03057h1.84687c.01293-.39177.0457-.72774.12807-1.03518.36987-1.38037 1.44806-2.45856 2.82843-2.82843.51168-.13709 1.10228-.13677 1.89768-.13634zm3.1277 3.99995h-5.98024c.00919-.25751.02646-.39877.05829-.51754.18493-.69019.72403-1.22928 1.41425-1.41422.2222-.05955.5232-.06814 1.5176-.06814s1.2954.00859 1.5176.06814c.6902.18494 1.2293.72403 1.4142 1.41422.0319.11877.0491.26003.0583.51754z" fill="#801ed7" fill-rule="evenodd"/></svg>