<svg fill="none" height="24" viewBox="0 0 24 24" width="24" xmlns="http://www.w3.org/2000/svg"><g fill="#801ed7"><path d="m17.264 2.20765c1.2634-1.16985 3.2255-1.13213 4.443.08542 1.2176 1.21754 1.2553 3.17961.0854 4.44305l-6.3905 6.90188c-.3939.4254-.5909.6381-.8229.7205-.2039.0724-.4259.0767-.6325.0122-.235-.0734-.44-.2784-.85-.6884l-2.7787-2.7787c-.41-.41-.615-.615-.68837-.85-.0645-.20661-.06023-.42856.01217-.63253.08235-.23201.29507-.42897.7205-.8229z"/><path d="m8.76212 12.1763c-.41047-.4104-.61571-.6157-.86082-.6875-.1976-.058-.46272-.0452-.65383.0315-.23706.0951-.38521.275-.68152.6348-.09768.1186-.18731.2429-.26529.3749-.27065.4583-.40986.9713-.41661 1.4863-1.27605-.1086-2.5896.3253-3.56606 1.3017-1.03117 1.0312-.97328 2.4822-.93382 3.4713l.00504.1261c.0446 1.1116.07754 1.9326-.27912 2.6285-.158899.31-.145014.6803.03664.9776.18166.2972.50492.4785.85327.4785.27235 0 .58299.0081.91511.0167.75144.0195 1.61294.0419 2.38913-.0199 1.14452-.0911 2.43756-.3747 3.37771-1.3148.97643-.9764 1.41035-2.2899 1.30171-3.5659.51504-.0068 1.02814-.146 1.48644-.4167.132-.0779.2563-.1676.3749-.2653.3598-.2963.5397-.4444.6348-.6815.0767-.1911.0895-.4562.0315-.6538-.0718-.2451-.2771-.4504-.6875-.8608z"/></g></svg>