<svg fill="none" height="24" viewBox="0 0 24 24" width="24" xmlns="http://www.w3.org/2000/svg"><g fill="#801ed7"><path d="m18.4319 1h-12.86379c-.25238-.000027-.49818-.000057-.70633.01695-.2286.01868-.49833.06274-.76976.20104-.37632.19175-.68228.49771-.87403.87403-.1383.27143-.18236.54116-.20104.76976-.01701.20815-.01698.45395-.01695.70633v3.83189c0 .56005 0 .84008.109 1.05399.09587.18816.24885.34114.43701.43702.21392.10899.49394.10899 1.05399.10899h14.8c.5601 0 .8401 0 1.054-.10899.1882-.09588.3411-.24886.437-.43702.109-.21391.109-.49394.109-1.05399v-3.83206c0-.25231.0001-.49806-.0169-.70616-.0187-.2286-.0628-.49833-.2011-.76976-.1917-.37632-.4977-.68228-.874-.87403-.2714-.1383-.5412-.18236-.7698-.20104-.2081-.017007-.4539-.016977-.7063-.01695z"/><path d="m20.9558 12.2518c.0148-.1808.0222-.2713.01-.3718-.0491-.4067-.391-.7776-.7923-.8597-.0992-.0203-.2088-.0203-.428-.0203h-15.49104c-.21917 0-.32875 0-.42793.0203-.40134.0821-.74321.453-.79236.8597-.01214.1005-.00475.191.01002.3718.04593.5621.14449 1.0788.39178 1.5642.3835.7526.99542 1.3645 1.74807 1.748.48533.2473 1.00204.3459 1.56413.3918.4821.0394 1.06193.0437 1.75183.0441v3.5001c0 1.933 1.567 3.5 3.5 3.5s3.5-1.567 3.5-3.5v-3.5001c.6899-.0004 1.2697-.0047 1.7518-.0441.5621-.0459 1.0788-.1445 1.5642-.3918.7526-.3835 1.3645-.9954 1.748-1.748.2473-.4854.3459-1.0021.3918-1.5642z"/></g></svg>