<svg fill="none" height="24" viewBox="0 0 24 24" width="24" xmlns="http://www.w3.org/2000/svg"><g fill="#801ed7"><path d="m6.86178 1.01695c.20815-.017007.45395-.016977.70633-.01695h8.86379c.2524-.000027.4982-.000057.7063.01695.2286.01868.4984.06274.7698.20104.3763.19175.6823.49771.874.87404.1383.27142.1824.54115.2011.76975.017.20816.0169.45396.0169.70634v3.83188c0 .56005 0 .84008-.109 1.05399-.0959.18816-.2488.34114-.437.43702-.2139.10899-.4939.10899-1.054.10899h-10.8c-.56005 0-.84007 0-1.05399-.10899-.18816-.09588-.34114-.24886-.43701-.43702-.109-.21391-.109-.49394-.109-1.05399v-3.83191c-.00003-.25237-.00006-.49816.01695-.70631.01868-.2286.06274-.49833.20104-.76976.19175-.37632.49771-.68228.87403-.87403.27143-.1383.54116-.18236.76976-.20104z"/><path d="m6.25446 11c-.21916 0-.32875 0-.42793.0203-.40134.0821-.74321.453-.79236.8597-.01214.1005-.00475.191.01002.3718.04593.5621.14449 1.0788.39178 1.5642.3835.7526.99542 1.3645 1.74807 1.748.41305.2105.84882.3132 1.31596.3675v3.5685c0 1.933 1.567 3.5 3.5 3.5s3.5-1.567 3.5-3.5v-3.5685c.4671-.0543.9029-.157 1.316-.3675.7526-.3835 1.3645-.9954 1.748-1.748.2473-.4854.3459-1.0021.3918-1.5642.0148-.1808.0222-.2713.01-.3718-.0491-.4067-.391-.7776-.7923-.8597-.0992-.0203-.2088-.0203-.428-.0203z"/></g></svg>