<svg fill="none" height="24" viewBox="0 0 24 24" width="24" xmlns="http://www.w3.org/2000/svg"><path clip-rule="evenodd" d="m14.1615 2h3.677c.5272-.00002.982-.00003 1.3565.03057.3954.0323.7886.10362 1.167.29641.5645.28762 1.0234.74657 1.311 1.31105.1928.37838.2641.7716.2964 1.16695.0306.37457.0306.82933.0306 1.35648v13.83854c.5523 0 1 .4477 1 1s-.4477 1-1 1h-20c-.55229 0-1-.4477-1-1s.44771-1 1-1v-5.8385c-.00002-.5272-.00003-.9819.03057-1.3565.0323-.3954.10362-.7886.29641-1.167.28762-.5645.74656-1.0234 1.31105-1.311.37838-.1928.7716-.2641 1.16694-.2964.37457-.03063.82934-.03062 1.35649-.0306h3.83854v-3.83855c-.00002-.52714-.00004-.9819.0306-1.35647.0323-.39535.1036-.78857.2964-1.16695.2876-.56448.7465-1.02343 1.311-1.31105.3784-.19279.7716-.26411 1.167-.29641.3745-.0306.8293-.03059 1.3565-.03057zm4.8385 5c0-.55228-.4477-1-1-1h-4c-.5523 0-1 .44772-1 1 0 .55229.4477 1 1 1h4c.5523 0 1-.44771 1-1zm0 4c0-.5523-.4477-1-1-1h-4c-.5523 0-1 .4477-1 1s.4477 1 1 1h4c.5523 0 1-.4477 1-1zm-1 3c.5523 0 1 .4477 1 1s-.4477 1-1 1h-4c-.5523 0-1-.4477-1-1s.4477-1 1-1z" fill="#801ed7" fill-rule="evenodd"/></svg>