<svg fill="none" height="24" viewBox="0 0 24 24" width="24" xmlns="http://www.w3.org/2000/svg"><path clip-rule="evenodd" d="m13.3385 2h-2.677c-.5272-.00002-.98197-.00003-1.35653.03057-.39534.0323-.78856.10362-1.16694.29641-.56449.28762-1.02343.74657-1.31105 1.31105-.19279.37838-.26411.7716-.29641 1.16695-.0306.37457-.03059.82933-.03057 1.35648v3.83854h-1.93191c-.25237-.00003-.49816-.00005-.70631.017-.2286.0186-.49833.0627-.76976.201-.37632.1917-.68228.4977-.87403.874-.1383.2715-.18236.5412-.20104.7698-.01701.2081-.01698.4539-.01695.7063v7.4319c-.55228 0-1 .4477-1 1s.44772 1 1 1h.99721.0028.00279 17.9944.0028.0028.9972c.5523 0 1-.4477 1-1s-.4477-1-1-1v-7.432c0-.2523.0001-.4981-.0169-.7062-.0187-.2286-.0628-.4983-.2011-.7698-.1917-.3763-.4977-.6823-.874-.874-.2714-.1383-.5412-.1824-.7698-.201-.2081-.01705-.4539-.01703-.7063-.017h-1.9319v-3.83866c0-.52709 0-.98183-.0306-1.35636-.0323-.39535-.1036-.78857-.2964-1.16695-.2876-.56448-.7465-1.02343-1.311-1.31105-.3784-.19279-.7716-.26411-1.167-.29641-.3745-.0306-.8293-.03059-1.3565-.03057zm-3.3385 5c0-.55228.4477-1 1-1h2c.5523 0 1 .44772 1 1 0 .55229-.4477 1-1 1h-2c-.5523 0-1-.44771-1-1zm0 4c0-.5523.4477-1 1-1h2c.5523 0 1 .4477 1 1s-.4477 1-1 1h-2c-.5523 0-1-.4477-1-1zm1 3c-.5523 0-1 .4477-1 1s.4477 1 1 1h2c.5523 0 1-.4477 1-1s-.4477-1-1-1z" fill="#801ed7" fill-rule="evenodd"/></svg>