<svg fill="none" height="24" viewBox="0 0 24 24" width="24" xmlns="http://www.w3.org/2000/svg"><g clip-rule="evenodd" fill="#801ed7" fill-rule="evenodd"><path d="m2 21c0-.5523.44772-1 1-1h18c.5523 0 1 .4477 1 1s-.4477 1-1 1h-18c-.55228 0-1-.4477-1-1z"/><path d="m6 8.99998c.55228 0 1 .44771 1 1v8.00002c0 .5523-.44772 1-1 1s-1-.4477-1-1v-8.00002c0-.55229.44772-1 1-1z"/><path d="m10 8.99998c.5523 0 1 .44771 1 1v8.00002c0 .5523-.4477 1-1 1-.55228 0-1-.4477-1-1v-8.00002c0-.55229.44772-1 1-1z"/><path d="m14 8.99998c.5523 0 1 .44771 1 1v8.00002c0 .5523-.4477 1-1 1s-1-.4477-1-1v-8.00002c0-.55229.4477-1 1-1z"/><path d="m18 8.99998c.5523 0 1 .44771 1 1v8.00002c0 .5523-.4477 1-1 1s-1-.4477-1-1v-8.00002c0-.55229.4477-1 1-1z"/><path d="m11.6676 1.12689c.2188-.04972.446-.04972.6648 0 .2598.05904.4838.20215.5918.27114.0112.00718.0212.01355.0298.01895l7.576 4.735c.3783.23643.5542.69486.4312 1.12368-.1229.42882-.5151.72432-.9612.72432h-16c-.44611 0-.83826-.2955-.96125-.72432-.12298-.42882.05295-.88725.43125-1.12368l7.576-4.735c.0086-.0054.0186-.01177.0298-.01895.108-.06899.332-.2121.5918-.27114z"/></g></svg>