<svg fill="none" height="24" viewBox="0 0 24 24" width="24" xmlns="http://www.w3.org/2000/svg"><g fill="#801ed7"><path d="m6.16146 2h11.67704c.5272-.00002.982-.00003 1.3565.03057.3954.0323.7886.10362 1.167.29641.5645.28762 1.0234.74657 1.311 1.31105.1928.37838.2641.7716.2964 1.16695.0306.37456.0306.82932.0306 1.35646v.83856c0 .9263-.9969 2-2.6667 2-1.6697 0-2.6666-1.0737-2.6666-2 0-.55228-.4477-1-1-1s-1 .44772-1 1c0 .9263-.997 2-2.6667 2s-2.66667-1.0737-2.66667-2c0-.55228-.44771-1-1-1-.55228 0-1 .44772-1 1 0 .9263-.99692 2-2.66666 2-1.66975 0-2.66667-1.0737-2.66667-2v-.83858c-.00002-.52711-.00003-.98189.03057-1.35644.0323-.39535.10362-.78857.29641-1.16695.28762-.56448.74657-1.02343 1.31105-1.31105.37838-.19279.7716-.26411 1.16695-.29641.37455-.0306.82936-.03059 1.35648-.03057z"/><path clip-rule="evenodd" d="m19.3333 11c.9504 0 1.8858-.2571 2.6667-.7179v7.5565c0 .5271 0 .9819-.0306 1.3564-.0323.3954-.1036.7886-.2964 1.167-.2876.5645-.7465 1.0234-1.311 1.311-.3784.1928-.7716.2641-1.167.2964-.3745.0306-.8293.0306-1.3564.0306h-11.67716c-.52714 0-.9819 0-1.35646-.0306-.39535-.0323-.78857-.1036-1.16695-.2964-.56448-.2876-1.02343-.7465-1.31105-1.311-.19279-.3784-.26411-.7716-.29641-1.167-.0306-.3745-.03059-.8293-.03057-1.3564v-7.5565c.78088.4608 1.71628.7179 2.66667.7179 1.4054 0 2.77803-.5621 3.66666-1.514.88864.9519 2.26127 1.514 3.66667 1.514s2.778-.5621 3.6667-1.514c.8886.9519 2.2612 1.514 3.6666 1.514zm-8.7333 3h2.8c.5601 0 .8401 0 1.054.109.1882.0959.3411.2488.437.437.109.2139.109.4939.109 1.054v4.4h-6v-4.4c0-.5601 0-.8401.10899-1.054.09588-.1882.24886-.3411.43702-.437.21391-.109.49389-.109 1.05399-.109z" fill-rule="evenodd"/></g></svg>