<svg fill="none" height="24" viewBox="0 0 24 24" width="24" xmlns="http://www.w3.org/2000/svg"><g fill="#801ed7"><path d="m7.7587 1h8.4826c.8049-.000012 1.4693-.000021 2.0105.0442.5621.04592 1.0788.14448 1.5642.39178.7526.38349 1.3645.99541 1.748 1.74806.073.14332.1331.28938.1827.43853.0793.23875.119.35813.0834.49952-.0278.11007-.1204.23853-.2161.29954-.123.07837-.2756.07837-.5808.07837h-18.0664c-.30521 0-.45781 0-.58076-.07837-.09572-.06101-.1884-.18947-.21611-.29954-.03561-.14139.00406-.26077.0834-.49952.04956-.14915.10961-.29521.18264-.43853.38349-.75265.99541-1.36457 1.74806-1.74806.48534-.2473 1.00204-.34586 1.56414-.39178.54119-.044221 1.20557-.044212 2.01053-.0442z"/><path d="m2.79951 6.5c-.27984 0-.41977 0-.52671.05448-.09404.04791-.17057.12441-.2185.21844-.05451.10693-.05454.2468-.05462.52655-.00026.96684.00008 1.93369.00024 2.90053.00004.2801.00007.4201.05457.527.04795.0941.12442.1706.2185.2185.10695.0545.24697.0545.527.0545h18.40001c.28 0 .42 0 .527-.0545.0941-.0479.1705-.1244.2185-.2185.0545-.1069.0545-.2469.0546-.527.0001-.96684.0005-1.93368.0002-2.90052-.0001-.27975-.0001-.41963-.0546-.52656-.048-.09403-.1245-.17053-.2185-.21844-.107-.05448-.2469-.05448-.5267-.05448z"/><path clip-rule="evenodd" d="m22 13.8c0-.28 0-.42-.0545-.527-.0479-.0941-.1244-.1706-.2185-.2185-.107-.0545-.247-.0545-.527-.0545h-18.40001c-.28002 0-.42004 0-.52699.0545-.09408.0479-.17057.1244-.21851.2185-.0545.107-.0545.247-.0545.527v.4413c-.00001.805-.00002 1.4693.0442 2.0105.04592.5621.14449 1.0788.39178 1.5642.35173.6903.89563 1.2622 1.56402 1.6481l-.00001 1.759c-.00004.1192-.0001.2614.01014.3867.01187.1452.04231.3532.15336.5712.14381.2822.37328.5117.65552.6555.21795.1111.42594.1415.57116.1534.12529.0102.2675.0102.3866.0101h1.94637c.1191.0001.2614.0001.38669-.0101.14522-.0119.35321-.0423.57116-.1534.28224-.1438.51171-.3733.65552-.6555.11105-.218.14149-.426.15336-.5712.01024-.1253.01018-.2675.01014-.3867l-.00001-1.2231h5.00001v1.2231c-.0001.1191-.0001.2614.0101.3867.0119.1452.0423.3532.1534.5712.1438.2822.3733.5117.6555.6555.2179.1111.4259.1415.5712.1534.1252.0102.2675.0102.3866.0101h1.9463c.1191.0001.2614.0001.3867-.0101.1452-.0119.3532-.0423.5712-.1534.2822-.1438.5117-.3733.6555-.6555.111-.218.1415-.426.1534-.5712.0102-.1253.0101-.2675.0101-.3866v-1.7591c.6684-.3859 1.2123-.9578 1.564-1.6481.2473-.4854.3459-1.0021.3918-1.5642.0442-.5412.0442-1.2055.0442-2.0105zm-16.50001 1.7c0-.5523.44772-1 1-1h1.5c.55229 0 1 .4477 1 1s-.44771 1-1 1h-1.5c-.55228 0-1-.4477-1-1zm10.50001-1c-.5523 0-1 .4477-1 1s.4477 1 1 1h1.5c.5523 0 1-.4477 1-1s-.4477-1-1-1z" fill-rule="evenodd"/></g></svg>