<svg fill="none" height="24" viewBox="0 0 24 24" width="24" xmlns="http://www.w3.org/2000/svg"><path clip-rule="evenodd" d="m17 2c0-.55228-.4477-1-1-1s-1 .44772-1 1v1h-6v-1c0-.55228-.44771-1-1-1-.55228 0-1 .44772-1 1v1.00163c-.47546.00326-.89102.01309-1.25182.04256-.5621.04593-1.0788.14449-1.56414.39178-.75265.3835-1.36457.99542-1.74806 1.74807-.2473.48533-.34586 1.00204-.39178 1.56413-.04422.54119-.04421 1.20556-.0442 2.01052v8.48261c-.00001.805-.00002 1.4693.0442 2.0105.04592.5621.14448 1.0788.39178 1.5642.38349.7526.99541 1.3645 1.74806 1.748.48534.2473 1.00204.3459 1.56414.3918.54119.0442 1.20554.0442 2.0105.0442h8.48262c.805 0 1.4693 0 2.0105-.0442.5621-.0459 1.0788-.1445 1.5642-.3918.7526-.3835 1.3645-.9954 1.748-1.748.2473-.4854.3459-1.0021.3918-1.5642.0442-.5412.0442-1.2055.0442-2.0105v-8.48262c0-.80496 0-1.46932-.0442-2.01051-.0459-.56209-.1445-1.0788-.3918-1.56413-.3835-.75265-.9954-1.36457-1.748-1.74807-.4854-.24729-1.0021-.34585-1.5642-.39178-.3608-.02947-.7763-.0393-1.2518-.04256zm-10 4v-.99824c-.44553.00313-.79537.01181-1.08896.03579-.43842.03582-.66262.10075-.81902.18044-.37632.19174-.68228.49771-.87403.87403-.07969.1564-.14462.3806-.18044.81902-.03677.45009-.03755 1.03238-.03755 1.88896v.2h16v-.2c0-.85658-.0008-1.43887-.0376-1.88896-.0358-.43842-.1007-.66262-.1804-.81902-.1917-.37632-.4977-.68229-.874-.87403-.1564-.07969-.3806-.14462-.819-.18044-.2936-.02398-.6435-.03266-1.089-.03579v.99824c0 .55228-.4477 1-1 1s-1-.44772-1-1v-1h-6v1c0 .55228-.44771 1-1 1-.55228 0-1-.44772-1-1zm5.4718 6.1183c.3252.174.5282.5129.5282.8817v4h.25c.5523 0 1 .4477 1 1s-.4477 1-1 1h-2.5c-.5523 0-1-.4477-1-1s.4477-1 1-1h.25v-2.1339c-.453.2621-1.03771.1301-1.33207-.3114-.30635-.4595-.18217-1.0804.27735-1.3867l1.50002-1c.3068-.2046.7014-.2237 1.0265-.0497z" fill="#801ed7" fill-rule="evenodd"/></svg>