<svg fill="none" height="24" viewBox="0 0 24 24" width="24" xmlns="http://www.w3.org/2000/svg"><g clip-rule="evenodd" fill="#801ed7" fill-rule="evenodd"><path d="m18.9973 16.8306c-.7998-.909-2.1334-1.1535-3.1354-.3212-1.002.8324-1.1431 2.2241-.3562 3.2085.4679.5854 1.614 1.6352 2.4662 2.39.3518.3116.5277.4674.7395.5306.1811.0541.3906.0541.5718 0 .2117-.0632.3876-.219.7394-.5306.8522-.7548 1.9983-1.8046 2.4662-2.39.7869-.9844.6631-2.3848-.3562-3.2085-1.0192-.8236-2.3356-.5878-3.1353.3212z"/><path d="m16 1c.5523 0 1 .44772 1 1v1.00163c.4755.00326.891.01309 1.2518.04256.5621.04593 1.0788.14449 1.5642.39178.7526.3835 1.3645.99542 1.748 1.74807.2473.48533.3459 1.00204.3918 1.56413.0442.54119.0442 1.20555.0442 2.01051v4.33792c0 .3681 0 .5521-.0571.6612-.059.1124-.1133.1647-.2279.2193-.1111.0529-.3382.0442-.7924.0268-.6685-.0255-1.3274.1151-1.9263.3895-1.3559-.6223-3.0285-.572-4.4123.5776-1.823 1.5143-2.1219 4.1423-.6405 5.9956.1438.1799.3278.3843.5356.601.4592.4788.6887.7182.7004.9005.0104.163-.0517.3088-.1766.4141-.1397.1178-.4599.1178-1.1003.1178h-6.14392c-.80496 0-1.46931 0-2.0105-.0442-.5621-.0459-1.0788-.1445-1.56414-.3918-.75265-.3835-1.36457-.9954-1.74806-1.748-.2473-.4854-.34586-1.0021-.39178-1.5642-.04422-.5412-.04421-1.2055-.0442-2.0105v-8.4826c-.00001-.80495-.00002-1.46934.0442-2.01053.04592-.56209.14448-1.0788.39178-1.56413.38349-.75265.99541-1.36457 1.74806-1.74807.48534-.24729 1.00204-.34585 1.56414-.39178.3608-.02947.77636-.0393 1.25182-.04256v-1.00163c0-.55228.44772-1 1-1 .55229 0 1 .44772 1 1v1h6v-1c0-.55228.4477-1 1-1zm-9 4.00176v.99824c0 .55228.44772 1 1 1 .55229 0 1-.44772 1-1v-1h6v1c0 .55228.4477 1 1 1s1-.44772 1-1v-.99824c.4455.00313.7954.01181 1.089.03579.4384.03582.6626.10075.819.18044.3763.19174.6823.49771.874.87403.0797.1564.1446.3806.1804.81902.0368.45009.0376 1.03238.0376 1.88896v.2h-16v-.2c0-.85658.00078-1.43887.03755-1.88896.03582-.43842.10075-.66262.18044-.81902.19175-.37632.49771-.68229.87403-.87403.1564-.07969.3806-.14462.81902-.18044.29359-.02398.64343-.03266 1.08896-.03579z"/></g></svg>