<svg fill="none" height="24" viewBox="0 0 24 24" width="24" xmlns="http://www.w3.org/2000/svg"><g fill="#801ed7"><path d="m20 15c0-.5523-.4477-1-1-1s-1 .4477-1 1v2h-2c-.5523 0-1 .4477-1 1s.4477 1 1 1h2v2c0 .5523.4477 1 1 1s1-.4477 1-1v-2h2c.5523 0 1-.4477 1-1s-.4477-1-1-1h-2z"/><path clip-rule="evenodd" d="m16 1c.5523 0 1 .44772 1 1v1.00163c.4755.00326.891.01309 1.2518.04256.5621.04593 1.0788.14449 1.5642.39178.7526.3835 1.3645.99542 1.748 1.74807.2473.48533.3459 1.00204.3918 1.56413.0442.54119.0442 1.20555.0442 2.01051v4.48682c0 .1405-.114.2545-.2545.2545-.0909 0-.1742-.0489-.2235-.1253-.5341-.8271-1.4641-1.3747-2.522-1.3747-1.6569 0-3 1.3431-3 3-1.6569 0-3 1.3431-3 3s1.3431 3 3 3c0 .1376.0093.273.0272.4057.1045.7727.1567 1.1591.1086 1.2806-.0574.145-.0839.1754-.2198.2518-.1139.064-.3874.0643-.9345.0649-2.4076.0025-4.8152-.003-7.22282-.003-.80496 0-1.46931 0-2.0105-.0442-.5621-.0459-1.0788-.1445-1.56414-.3918-.75265-.3835-1.36457-.9954-1.74806-1.748-.2473-.4854-.34586-1.0021-.39178-1.5642-.04422-.5412-.04421-1.2055-.0442-2.0105v-8.4826c-.00001-.80495-.00002-1.46934.0442-2.01053.04592-.56209.14448-1.0788.39178-1.56413.38349-.75265.99541-1.36457 1.74806-1.74807.48534-.24729 1.00204-.34585 1.56414-.39178.3608-.02947.77636-.0393 1.25182-.04256v-1.00163c0-.55228.44772-1 1-1 .55229 0 1 .44772 1 1v1h6v-1c0-.55228.4477-1 1-1zm-9 4.00176v.99824c0 .55228.44772 1 1 1 .55229 0 1-.44772 1-1v-1h6v1c0 .55228.4477 1 1 1s1-.44772 1-1v-.99824c.4455.00313.7954.01181 1.089.03579.4384.03582.6626.10075.819.18044.3763.19174.6823.49771.874.87403.0797.1564.1446.3806.1804.81902.0368.45009.0376 1.03238.0376 1.88896v.2h-16v-.2c0-.85658.00078-1.43887.03755-1.88896.03582-.43842.10075-.66262.18044-.81902.19175-.37632.49771-.68229.87403-.87403.1564-.07969.3806-.14462.81902-.18044.29359-.02398.64343-.03266 1.08896-.03579z" fill-rule="evenodd"/></g></svg>