<svg fill="none" height="24" viewBox="0 0 24 24" width="24" xmlns="http://www.w3.org/2000/svg"><path clip-rule="evenodd" d="m8.55772 1c-.1102-.000023-.20607-.000047-.29756.00549-1.15683.07007-2.16985.8002-2.60214 1.87552-.03418.08504-.06448.176-.0993.28054l-.09687.29063c-.10905.32716-.41522.54783-.76007.54783-2.04444 0-3.70178 1.65734-3.70178 3.70178v8.53951c-.000012.805-.000022 1.4693.04419 2.0105.04593.5621.14449 1.0788.39179 1.5642.38349.7526.99541 1.3645 1.74806 1.748.48533.2473 1.00204.3459 1.56414.3918.54119.0442 1.20554.0442 2.0105.0442h10.48262c.805 0 1.4693 0 2.0105-.0442.5621-.0459 1.0788-.1445 1.5642-.3918.7526-.3835 1.3645-.9954 1.748-1.748.2473-.4854.3459-1.0021.3918-1.5642.0442-.5412.0442-1.2055.0442-2.0105v-8.53951c0-2.04444-1.6573-3.70178-3.7018-3.70178-.3448 0-.651-.22067-.7601-.54783l-.0968-.2907c-.0349-.1045-.0651-.19546-.0993-.28047-.4323-1.07532-1.4453-1.80545-2.6022-1.87552-.0914-.005537-.1873-.005513-.2975-.00549zm7.94228 11c0 2.4853-2.0147 4.5-4.5 4.5-2.48528 0-4.5-2.0147-4.5-4.5 0-2.48528 2.01472-4.5 4.5-4.5 2.4853 0 4.5 2.01472 4.5 4.5z" fill="#801ed7" fill-rule="evenodd"/></svg>