<svg fill="none" height="24" viewBox="0 0 24 24" width="24" xmlns="http://www.w3.org/2000/svg"><path clip-rule="evenodd" d="m19.7782 4.22183c4.2957 4.29577 4.2957 11.26057 0 15.55637-4.2958 4.2957-11.26063 4.2957-15.55637 0-4.295771-4.2958-4.2957739-11.26063 0-15.55637 4.29577-4.2957712 11.26057-4.2957741 15.55637 0zm-1.4143 1.41421c-1.4182-1.41821-3.1919-2.26416-5.0343-2.53786 1.8607 1.75033 3.0173 4.16224 3.1835 6.74641.2282.47781.3761.98431.4439 1.49941 1.1661-1.52381 1.7866-3.44542 1.6719-5.43175-.086-.09347-.1743-.18557-.265-.27621zm-4.4531 1.74209c-.7365-1.77155-2.0904-3.26976-3.8679-4.16392-1.61502.35816-3.15046 1.16544-4.40686 2.42183-.24435.24435-.47171.49925-.68208.76324 2.44727-.73745 5.11594-.53336 7.43844.61605.518.04053 1.0309.16146 1.5184.3628zm-4.95763.65672c-1.9034-.24784-3.8786.17632-5.54207 1.26997-.61221 1.95678-.54064 4.08128.21472 5.99878.58466-2.4879 2.09554-4.6969 4.2512-6.13378.17085-.24829.36667-.48458.58744-.70536.15561-.1556.31892-.2988.48871-.42961zm-1.91021 4.62115c-1.16612 1.5237-1.78674 3.4452-1.67211 5.4314.08605.0936.17445.1858.26519.2765 1.41814 1.4182 3.19181 2.2641 5.03406 2.5379-1.86068-1.7505-3.01728-4.1625-3.18334-6.7467-.2281-.4777-.37603-.9842-.4438-1.4991zm3.04604 3.9658c.7365 1.7716 2.0904 3.2698 3.8679 4.164 1.6151-.3581 3.1506-1.1654 4.407-2.4219.2445-.2444.4719-.4993.6823-.7634-2.4472.7375-5.1159.5335-7.4383-.6158-.5182-.0405-1.0313-.1615-1.5189-.3629zm4.958-.6568c.1697-.1307.333-.2739.4885-.4295.2208-.2207.4165-.4569.5873-.7051 2.1558-1.437 3.6667-3.6462 4.2513-6.13434.7554 1.91754.827 4.04204.2149 5.99884-1.6635 1.0937-3.6386 1.5179-5.542 1.2701z" fill="#801ed7" fill-rule="evenodd"/></svg>