<svg fill="none" height="24" viewBox="0 0 24 24" width="24" xmlns="http://www.w3.org/2000/svg"><g fill="#801ed7"><path d="m20 2c0-.55228-.4477-1-1-1s-1 .44772-1 1v2h-2c-.5523 0-1 .44772-1 1s.4477 1 1 1h2v2c0 .55228.4477 1 1 1s1-.44772 1-1v-2h2c.5523 0 1-.44772 1-1s-.4477-1-1-1h-2z"/><path clip-rule="evenodd" d="m14.5 2.25453c0-.14057-.114-.25453-.2545-.25453h-7.4868c-.80495-.00001-1.46934-.00002-2.01052.0442-.5621.04592-1.0788.14448-1.56414.39178-.75265.38349-1.36457.99541-1.74806 1.74806-.24729.48534-.34586 1.00204-.39178 1.56414-.044221.54118-.044211 1.20554-.0442 2.01049v8.48263c-.000011.805-.000021 1.4693.0442 2.0105.04592.5621.14449 1.0788.39178 1.5642.38349.7526.99541 1.3645 1.74806 1.748.48534.2473 1.00204.3459 1.56414.3918.54119.0442 1.20554.0442 2.0105.0442h10.48262c.805 0 1.4693 0 2.0105-.0442.5621-.0459 1.0788-.1445 1.5642-.3918.7526-.3835 1.3645-.9954 1.748-1.748.2473-.4854.3459-1.0021.3918-1.5642.0442-.5412.0442-1.2055.0442-2.0105v-7.39264c0-.29085 0-.43628-.0298-.51867-.0619-.17125-.1289-.23828-.3002-.3002-.0824-.02979-.2783-.02979-.67-.02979 0 1.65685-1.3431 3-3 3s-3-1.34315-3-3c-1.6569 0-3-1.34315-3-3 0-1.0579.5476-1.9879 1.3747-2.52205.0764-.04929.1253-.13256.1253-.22342zm-2.5 13.74547c2.2091 0 4-1.7909 4-4 0-2.20914-1.7909-4-4-4-2.20914 0-4 1.79086-4 4 0 2.2091 1.79086 4 4 4z" fill-rule="evenodd"/></g></svg>