<svg fill="none" height="24" viewBox="0 0 24 24" width="24" xmlns="http://www.w3.org/2000/svg"><g fill="#801ed7"><path clip-rule="evenodd" d="m2.70711 1.29289c-.39053-.390521-1.02369-.390521-1.41422 0-.390521.39053-.390521 1.02369 0 1.41422l20.00001 19.99999c.3905.3905 1.0237.3905 1.4142 0s.3905-1.0237 0-1.4142l-.6791-.6792c.6048-.7004.972-1.6146.972-2.6137v-9.67467c.0001-.29977.0001-.52187-.0195-.71971-.188-1.89725-1.6889-3.39814-3.5861-3.58612-.1979-.01961-.4293-.01956-.7441-.0195l-.0559.00001c-.1568 0-.1907-.00046-.2133-.00183-.3856-.02336-.7233-.26673-.8674-.62517-.0086-.02127-.0186-.05006-.065-.18923l-.0074-.02222c-.0348-.10455-.0651-.19551-.0993-.28055-.4323-1.07532-1.4453-1.80545-2.6022-1.87552-.0915-.005537-.1873-.005513-.2975-.00549h-4.88458c-.1102-.000023-.20607-.000047-.29756.00549-1.15684.07007-2.16985.8002-2.60214 1.87552-.03418.08502-.06447.17596-.09928.28048l-.03308.09926c-.01943.05829-.02355.07039-.02681.07942-.1401.38729-.50331.64908-.91503.65952-.00792.0002-.018.00029-.05576.00031h-.11385zm13.79289 10.70711c0 .8805-.2529 1.702-.6901 2.3957l-6.20565-6.20565c.69375-.43714 1.51515-.69005 2.39575-.69005 2.4853 0 4.5 2.01472 4.5 4.5z" fill-rule="evenodd"/><path d="m1.6191 5.86174c-.32496.5133-.53642 1.10615-.5996 1.74377-.0196.19787-.019555.41991-.01949.71974v7.91595c-.00001.805-.00002 1.4693.0442 2.0105.04592.5621.14449 1.0788.39178 1.5642.38349.7526.99541 1.3645 1.74806 1.748.48534.2473 1.00204.3459 1.56414.3918.54119.0442 1.20554.0442 2.0105.0442h10.48261c.1787 0 .3505 0 .5155-.0005l-5.5072-5.5072c-.0826.0051-.1658.0077-.2496.0077-2.20914 0-4-1.7909-4-4 0-.0838.00258-.1671.00766-.2496z"/></g></svg>