<svg fill="none" height="24" viewBox="0 0 24 24" width="24" xmlns="http://www.w3.org/2000/svg"><path clip-rule="evenodd" d="m9.55773 1c-.1102-.000023-.20607-.000047-.29755.00549-1.15684.07007-2.16985.8002-2.60214 1.87552-.03419.08504-.06449.176-.09931.28056l-.0074.02221c-.04639.13917-.05645.16796-.065.18923-.1441.35844-.48177.60181-.86738.62517-.02261.00137-.05654.00183-.21335.00183l-.05586-.00001c-.31485-.00006-.5462-.00011-.74411.0195-1.89726.18798-3.39815 1.68887-3.58613 3.58612-.0196.19787-.019555.41992-.01949.71974v7.91594c-.00001.805-.00002 1.4693.0442 2.0105.04592.5621.14449 1.0788.39178 1.5642.38349.7526.99541 1.3645 1.74806 1.748.48534.2473 1.00204.3459 1.56414.3918.54119.0442 1.20554.0442 2.0105.0442h10.48261c.805 0 1.4693 0 2.0105-.0442.5621-.0459 1.0788-.1445 1.5642-.3918.7526-.3835 1.3645-.9954 1.748-1.748.2473-.4854.3459-1.0021.3918-1.5642.0442-.5412.0442-1.2055.0442-2.0105v-7.91595c.0001-.29981.0001-.52187-.0195-.71973-.188-1.89725-1.6888-3.39814-3.5861-3.58612-.1979-.01961-.4293-.01956-.7441-.0195l-.0559.00001c-.1568 0-.1907-.00046-.2133-.00183-.3856-.02336-.7233-.26673-.8674-.62517-.0086-.02127-.0186-.05006-.065-.18923l-.0074-.02222c-.0348-.10452-.0651-.19553-.0993-.28055-.4323-1.07532-1.4453-1.80545-2.6021-1.87552-.0915-.005537-.1874-.005513-.2976-.00549zm6.44227 11.5c0 2.2091-1.7909 4-4 4-2.20914 0-4-1.7909-4-4s1.79086-4 4-4c2.2091 0 4 1.7909 4 4z" fill="#801ed7" fill-rule="evenodd"/></svg>