<svg fill="none" height="24" viewBox="0 0 24 24" width="24" xmlns="http://www.w3.org/2000/svg"><path clip-rule="evenodd" d="m8.16137 2.99965c2.55903.00383 5.11823.00383 7.67723 0 .6835-.00102 1.2834-.00191 1.8179.20831.4674.18382.8811.48204 1.2033.86731.3685.44061.5573 1.00999.7725 1.65871.2142.64578.4296 1.29114.6451 1.9365l.3067.91925.9687-.48436c.494-.24699 1.0946-.04677 1.3416.44721s.0468 1.09465-.4472 1.34164l-.5974.29868c.2857.29.5271.6237.7142.9909.2473.4854.3459 1.0021.3918 1.5642.0442.5412.0442 1.2055.0442 2.0105l-.0002.9278c-.0001.6324-.0003 1.2649.0003 1.8974.0003.3807.0005.7085-.0577 1.0014-.2368 1.19-1.1671 2.1203-2.3571 2.3571-.3958.0787-.8093.0705-1.2171.0625-.1235-.0025-.2464-.0049-.3682-.0049-1.4865 0-2.7205-1.0811-2.9585-2.5h-8.08297c-.23804 1.4189-1.47203 2.5-2.95852 2.5-.12178 0-.24473.0024-.36822.0049-.40775.008-.8213.0162-1.21706-.0625-1.19007-.2368-2.12036-1.1671-2.35708-2.3571-.058253-.2929-.057992-.6207-.057689-1.0014.000509-.6343.000349-1.2685.000199-1.9028l-.00016-.9224c-.000008-.805-.000018-1.4693.0442-2.0105.04592-.5621.14449-1.0788.39178-1.5642.18709-.3672.42856-.7009.71421-.9909l-.5974-.29868c-.49398-.24699-.694201-.84766-.44721-1.34164.24699-.49398.84766-.6942 1.34164-.44721l.96872.48436.30671-.91925c.21537-.64518.43093-1.29092.64505-1.93651.21517-.64872.40401-1.21809.77248-1.6587.32219-.38527.73594-.68349 1.20332-.86731.53452-.21022 1.1344-.20933 1.81787-.20831zm-2.77777 6.01165c.40401-.01152.86087-.01151 1.37511-.0115h10.48259c.5142-.00001.9711-.00002 1.3751.0115l-.8357-2.50721c-.2893-.86776-.3629-1.0356-.4551-1.1458-.1074-.12843-.2453-.22783-.4011-.28911-.1337-.05258-.3162-.06938-1.2309-.06938h-7.38717c-.9147 0-1.09722.0168-1.23091.06938-.1558.06128-.29372.16068-.40111.28911-.09216.1102-.16582.27804-.45508 1.1458zm-1.3836 3.9887c0-.5523.44772-1 1-1h3c.55228 0 1 .4477 1 1s-.44772 1-1 1h-3c-.55228 0-1-.4477-1-1zm12-1c-.5523 0-1 .4477-1 1s.4477 1 1 1h3c.5523 0 1-.4477 1-1s-.4477-1-1-1z" fill="#801ed7" fill-rule="evenodd"/></svg>