<svg fill="none" height="24" viewBox="0 0 24 24" width="24" xmlns="http://www.w3.org/2000/svg"><path clip-rule="evenodd" d="m8.16146 2h7.67704c.5272-.00002.982-.00003 1.3565.03057.3954.0323.7886.10362 1.167.29641.5645.28762 1.0234.74657 1.311 1.31105.1928.37838.2641.7716.2964 1.16694.0306.37457.0306.82933.0306 1.35647v1.83856h1c0-.55228.4477-1 1-1s1 .44772 1 1v1c0 .55229-.4477 1-1 1h-.3542c.3757.3314.6881.7324.9182 1.184.2473.4854.3459 1.0021.3918 1.5642.0442.5412.0442 1.2055.0442 2.0105v3.2733c0 .4386 0 .8171-.0213 1.1304-.0226.3298-.0721.6597-.2071.9857-.3044.735-.8885 1.3191-1.6235 1.6235-.326.135-.6559.1845-.9857.2071-.3133.0213-.6918.0213-1.1304.0213-.1261 0-.2535.0026-.3815.0053-.3746.0078-.7545.0156-1.1198-.0422-1.2837-.2033-2.2904-1.2101-2.4938-2.4938-.023-.1452-.0317-.3003-.035-.4693h-6.00378c-.00329.169-.01206.3241-.03505.4693-.20332 1.2837-1.21009 2.2905-2.49376 2.4938-.36534.0578-.74506.05-1.11971.0422-.128-.0027-.25554-.0053-.38159-.0053-.43865 0-.81713 0-1.13039-.0213-.32983-.0226-.65974-.0721-.98567-.2071-.73508-.3044-1.31911-.8885-1.62359-1.6235-.135-.326-.1845-.6559-.20701-.9857-.021371-.3133-.021361-.6917-.02135-1.1304v-3.2733c-.000011-.805-.000021-1.4693.0442-2.0105.04592-.5621.14448-1.0788.39178-1.5642.23014-.4516.54255-.8526.91827-1.184h-.35425c-.55228 0-1-.44771-1-1v-1c0-.55228.44772-1 1-1 .55229 0 1 .44772 1 1h1v-1.83854c-.00002-.52714-.00003-.98192.03057-1.35649.0323-.39534.10362-.78856.29641-1.16694.28762-.56449.74656-1.02343 1.31105-1.31105.37838-.19279.7716-.26411 1.16694-.29641.37457-.0306.82936-.03059 1.35649-.03057zm-2.16146 7.00163c.21673-.00149.44591-.00162.68803-.00163h-.68803v-2.8c0-.57655.00078-.94882.02393-1.23216.02219-.27166.05987-.37238.08507-.42183.09587-.18816.24885-.34114.43701-.43701.04945-.0252.15016-.06287.42183-.08507.28333-.02315.65561-.02393 1.23216-.02393h7.6c.5766 0 .9488.00078 1.2322.02393.2716.0222.3723.05987.4218.08507.1882.09587.3411.24885.437.43701.0252.04945.0629.15017.0851.42183.0231.28334.0239.65561.0239 1.23216v2.8h-.688l.2048.00007zm11.5168-.00156.4832-.00007v.00163c-.1547-.00106-.3157-.00143-.4832-.00156zm-13.0168 4.49993c0-.8284.67157-1.5 1.5-1.5s1.5.6716 1.5 1.5-.67157 1.5-1.5 1.5-1.5-.6716-1.5-1.5zm13.5-1.5c-.8284 0-1.5.6716-1.5 1.5s.6716 1.5 1.5 1.5 1.5-.6716 1.5-1.5-.6716-1.5-1.5-1.5z" fill="#801ed7" fill-rule="evenodd"/></svg>