<svg fill="none" height="24" viewBox="0 0 24 24" width="24" xmlns="http://www.w3.org/2000/svg"><path clip-rule="evenodd" d="m5 1c-1.75335 0-3 1.54435-3 3.22222v15.55558c0 1.6779 1.24665 3.2222 3 3.2222h14c1.7534 0 3-1.5443 3-3.2222v-15.55558c0-1.67787-1.2466-3.22222-3-3.22222zm2 13c-.55228 0-1 .4477-1 1s.44772 1 1 1h10c.5523 0 1-.4477 1-1s-.4477-1-1-1zm2 3.5c-.55228 0-1 .4477-1 1s.44772 1 1 1h6c.5523 0 1-.4477 1-1s-.4477-1-1-1zm.25414-11.56333c.87676-.71346 2.04366-.50387 2.74346.27527.6998-.77914 1.8516-.98122 2.7435-.27527.8918.70595 1.0002 1.90632.3116 2.75013-.3887.47639-1.3123 1.31153-2.0429 1.9485-.3465.3021-.5197.4532-.7293.515-.1787.0527-.3871.0527-.5658 0-.2096-.0618-.3828-.2129-.7293-.515-.7306-.63697-1.65421-1.47211-2.04293-1.9485-.68853-.84381-.56509-2.03667.31167-2.75013z" fill="#801ed7" fill-rule="evenodd"/></svg>