<svg fill="none" height="24" viewBox="0 0 24 24" width="24" xmlns="http://www.w3.org/2000/svg"><path clip-rule="evenodd" d="m5 1c-1.65685 0-3 1.34315-3 3v13c0 1.6569 1.34315 3 3 3h.098l3.03846 2.9143c.39272.3767 1.01454.3702 1.39932-.0145l2.47492-2.475 2.475 2.475c.3857.3857 1.0093.3912 1.4017.0123l3.0165-2.9121h.0961c1.6569 0 3-1.3431 3-3v-13c0-1.65685-1.3431-3-3-3zm10.875 16.7892c-.449.7584-1.1142 1.3736-1.9108 1.7606l1.241 1.241 1.868-1.8034zm-3.868.2107h.0074.0102c1.3694-.0132 2.4754-1.1274 2.4754-2.4999 0-1.3807-1.1193-2.5-2.5-2.5s-2.5 1.1193-2.5 2.5c0 1.3769 1.1132 2.4939 2.4887 2.5l.0173-.0001zm-3.19292 2.7931 1.23622-1.2362c-.80304-.3866-1.47363-1.0046-1.92533-1.7676l-1.19585 1.1959zm-.81408-14.793c0-.55228.44772-1 1-1h6c.5523 0 1 .44772 1 1s-.4477 1-1 1h-6c-.55228 0-1-.44772-1-1zm-1 2.5c-.55228 0-1 .44772-1 1 0 .5523.44772 1 1 1h10c.5523 0 1-.4477 1-1 0-.55228-.4477-1-1-1z" fill="#801ed7" fill-rule="evenodd"/></svg>