<svg fill="none" height="24" viewBox="0 0 24 24" width="24" xmlns="http://www.w3.org/2000/svg"><g fill="#801ed7"><path d="m15.4789 8.44434h3.2333v.85333h-2.2266v1.00663h2.0266v.8067h-2.0266v1.1467h2.3v.8533h-3.3067z"/><path d="m10.6073 8.44434h1.0333l1.9733 2.94666v-2.94666h.96v4.66666h-.8933l-2.12-3.18v3.18h-.9533z"/><path d="m8.69136 8.44434h1.00667v4.66666h-1.00667z"/><path d="m5.19345 8.44434h1.00667v3.81336h2v.8533h-3.00667z"/></g><path d="m21.8659 11.5517c-1.0478 5.0316-6.9492 8.7816-8.9883 9.7866-2.3014 1.1342-2.652.7336-2.1361-.525.7945-1.9383 0-2.1466-1.86112-2.7063-3.16695-.9523-5.95172-2.5259-6.73517-6.3052-.80493-3.88286 1.65658-9.28781 9.39079-9.77427 7.4444-.46823 11.2446 5.13162 10.3299 9.52417z" stroke="#801ed7" stroke-width="2"/></svg>