<svg fill="none" height="24" viewBox="0 0 24 24" width="24" xmlns="http://www.w3.org/2000/svg"><g fill="#801ed7"><path d="m21.1213 1.87868c1.1716 1.17157 1.1716 3.07107 0 4.24264s-3.071 1.17157-4.2426 0-1.1716-3.07107 0-4.24264c1.1716-1.171573 3.071-1.171573 4.2426 0z"/><path clip-rule="evenodd" d="m20 10.8572c0-.6385 0-.95781-.0847-1.15025-.0961-.21846-.1511-.28503-.3476-.42053-.173-.11936-.6197-.20494-1.5131-.3761-.949-.18182-1.8554-.64008-2.5901-1.37478-.9796-.97953-1.4677-2.26435-1.4645-3.54817.0037-1.48356.0056-2.22533-.1032-2.43979-.1359-.26783-.1696-.3017-.4371-.43824-.2142-.10934-.6979-.10934-1.6651-.10934h-3.63314c-.52712-.000015-.98193-.000029-1.35648.03057-.39535.0323-.78857.10362-1.16695.29641-.56448.28762-1.02343.74657-1.31105 1.31105-.19279.37838-.26411.7716-.29641 1.16695-.0306.37455-.03059.82929-.03057 1.35641v13.67711c-.00002.5272-.00003.982.03057 1.3565.0323.3954.10362.7886.29641 1.167.28762.5645.74657 1.0234 1.31105 1.311.37838.1928.7716.2641 1.16695.2964.37456.0306.82932.0306 1.35646.0306h7.67716c.5271 0 .9819 0 1.3564-.0306.3954-.0323.7886-.1036 1.167-.2964.5645-.2876 1.0234-.7465 1.311-1.311.1928-.3784.2641-.7716.2964-1.167.0306-.3745.0306-.8292.0306-1.3563zm-9.5 6.6428c0-.8284.6716-1.5 1.5-1.5s1.5.6716 1.5 1.5-.6716 1.5-1.5 1.5-1.5-.6716-1.5-1.5z" fill-rule="evenodd"/></g></svg>