<svg fill="none" height="24" viewBox="0 0 24 24" width="24" xmlns="http://www.w3.org/2000/svg"><g fill="#801ed7"><path d="m12.6856.964631c-.4509-.105836-.9202-.105836-1.3711 0-.515.120899-.9729.419379-1.49376.758989-2.24841 1.46151-4.49922 2.91941-6.74632 4.38295-.34147.2224-.51221.33361-.57169.47491-.05197.12345-.05221.26276-.00067.38639.05899.14151.22943.25336.57032.47706l7.72072 5.06667c.6997.4592.8466.5384.9768.5692.1514.0358.309.0358.4604 0 .1302-.0308.2771-.11.9769-.5692l7.7206-5.06663c.3409-.22371.5113-.33556.5703-.47708.0516-.12362.0513-.26293-.0006-.38638-.0595-.14131-.2303-.25251-.5717-.47491-2.2471-1.46355-4.4979-2.9215-6.7464-4.38297-.5209-.33961-.9787-.6381-1.4938-.758999z"/><path d="m22.9966 9.95954c-.0004-.48074-.0006-.7211-.1012-.85457-.0877-.11628-.2217-.18857-.367-.19795-.1668-.01077-.3681.12132-.7706.38548l-4.6385 3.044c-.2956.194-.4435.291-.5036.4183-.0526.1115-.0622.2386-.0269.3568.0403.1348.1719.2529.4351.4891l5.402 4.848c.1983.178.5083.0686.53-.197.0442-.5412.0442-1.2055.0442-2.0105 0-1.7054-.0021-4.5509-.0035-6.28166z"/><path d="m21.3425 21.2423c.1829-.1321.2743-.1982.3289-.324.0424-.0975.0503-.2474.0185-.3489-.0411-.1308-.1427-.222-.3459-.4044l-6.5322-5.8622c-.0041-.0037-.0062-.0056-.0081-.0073-.1676-.1474-.4126-.1658-.6004-.0452-.0022.0014-.0045.0029-.0092.006-.524.3449-.9845.648-1.5033.7708-.4542.1074-.9272.1074-1.3813 0-.5189-.1228-.9794-.4259-1.5034-.7708-.00478-.0031-.00717-.0047-.00933-.0061-.18776-.1206-.43269-.1021-.60028.0452-.00193.0017-.00405.0036-.00831.0074l-6.53205 5.8621c-.20325.1824-.30487.2736-.34593.4045-.03184.1015-.02391.2513.01847.3489.05463.1258.14606.1918.32891.3239.16621.1201.34215.2278.52653.3217.48534.2473 1.00204.3459 1.56414.3918.54119.0442 1.20554.0442 2.0105.0442h10.48265c.805 0 1.4693 0 2.0105-.0442.5621-.0459 1.0788-.1445 1.5641-.3918.1844-.0939.3603-.2016.5265-.3216z"/><path d="m1.04427 18.2517c.0217.2655.3316.3749.52988.1969l5.40204-4.848c.26319-.2362.39479-.3542.43511-.4891.03534-.1182.02575-.2452-.02692-.3568-.06011-.1273-.20793-.2243-.50359-.4183l-4.63842-3.04395c-.40254-.26416-.6038-.39625-.7706-.38548-.14533.00939-.27936.08167-.36703.19795-.10063.13347-.10082.37383-.10121.85457-.00139 1.73081-.00345 4.57631-.00345 6.28171-.00002.805-.00003 1.4693.04419 2.0105z"/></g></svg>