<svg fill="none" height="24" viewBox="0 0 24 24" width="24" xmlns="http://www.w3.org/2000/svg"><path clip-rule="evenodd" d="m17.2413 2h-10.4826-.00001c-.80496-.00001-1.46933-.00002-2.01051.0442-.5621.04592-1.0788.14448-1.56414.39178-.75265.38349-1.36457.99541-1.74806 1.74806-.2473.48534-.34586 1.00204-.39178 1.56414-.044221.54118-.044212 1.20553-.0442 2.01049v.00002 3.64131c0 .5601 0 .8401.10899 1.054.09588.1882.24886.3411.43702.437.21391.109.49394.109 1.05399.109h18.8c.5601 0 .8401 0 1.054-.109.1882-.0959.3411-.2488.437-.437.109-.2139.109-.4939.109-1.054v-3.64132c0-.80496 0-1.46931-.0442-2.0105-.0459-.5621-.1445-1.0788-.3918-1.56414-.3835-.75265-.9954-1.36457-1.748-1.74806-.4854-.2473-1.0021-.34586-1.5642-.39178-.5412-.04422-1.2055-.04421-2.0105-.0442zm5.6392 13.8398c.0465-.2549.0697-.3823.0243-.5089-.037-.1029-.1252-.2086-.2198-.2635-.1163-.0674-.2634-.0674-.5575-.0674h-20.25497c-.29414 0-.44121 0-.55752.0674-.09462.0549-.18281.1606-.21979.2635-.04546.1266-.02222.254.02427.5089.06158.3376.15905.6672.31649.9762.38349.7526.99541 1.3645 1.74806 1.748.48534.2473 1.00204.3459 1.56414.3918.54119.0442 1.20554.0442 2.0105.0442h10.48262c.805 0 1.4693 0 2.0105-.0442.5621-.0459 1.0788-.1445 1.5642-.3918.7526-.3835 1.3645-.9954 1.748-1.748.1575-.309.2549-.6386.3165-.9762zm-15.8805 5.1602c0-.5523.44772-1 1-1h8c.5523 0 1 .4477 1 1s-.4477 1-1 1h-8c-.55228 0-1-.4477-1-1zm5-16c-.5523 0-1 .44772-1 1v2c0 .55229.4477 1 1 1h7c.5523 0 1-.44771 1-1v-2c0-.55228-.4477-1-1-1z" fill="#801ed7" fill-rule="evenodd"/></svg>