<svg fill="none" height="24" viewBox="0 0 24 24" width="24" xmlns="http://www.w3.org/2000/svg"><path clip-rule="evenodd" d="m16.2413 2h-8.48259-.00002c-.80496-.00001-1.46931-.00002-2.01051.04419-.56209.04593-1.0788.14449-1.56413.39178-.75265.3835-1.36457.99542-1.74807 1.74807-.24729.48533-.34585 1.00204-.39178 1.56414-.04421.54119-.0442 1.20555-.04419 2.01052l-.00001 12.6123c-.00004.2352-.00009.475.01776.6715.01707.188.06228.5427.30993.853.28499.357.71713.5647 1.17394.5642.39698-.0004.70222-.1867.85965-.2908.1646-.1088.35182-.2587.5355-.4057l2.41314-1.9305c.51858-.4149.67254-.532.83253-.6137.16047-.082.33129-.1419.50782-.1782.17598-.0361.36938-.0408 1.03349-.0408h6.55754c.805 0 1.4693 0 2.0105-.0442.5621-.0459 1.0788-.1445 1.5642-.3918.7526-.3835 1.3645-.9954 1.748-1.748.2473-.4854.3459-1.0021.3918-1.5642.0442-.5412.0442-1.2055.0442-2.0105v-5.48262c0-.80496 0-1.46932-.0442-2.01051-.0459-.56209-.1445-1.0788-.3918-1.56413-.3835-.75265-.9954-1.36457-1.748-1.74807-.4854-.24729-1.0021-.34585-1.5642-.39178-.5412-.04421-1.2055-.0442-2.0105-.04419zm-2.896 11.0283.8701-.6208v.0008c.2371-.169.5615-.1379.7622.0733l1.8598 1.955c.2474.259.207.6782-.0841.8862-1.6433 1.1723-3.9203.7842-5.087-.8671l-2.99235-4.2351c-1.16666-1.65128-.78042-3.93936.8629-5.11169.29107-.208.69795-.10759.86055.212l1.2237 2.40921c.1325.26061.0548.57859-.1824.74755l-.87.62083z" fill="#801ed7" fill-rule="evenodd"/></svg>