<svg fill="none" height="24" viewBox="0 0 24 24" width="24" xmlns="http://www.w3.org/2000/svg"><path clip-rule="evenodd" d="m9.17157 2.17157c1.56213-1.562094 4.09473-1.562094 5.65683 0 1.5621 1.5621 1.5621 4.09476 0 5.65686-.0511.05115-.1033.10063-.1565.14843l2.206 4.04424-1.7558.9578-2.2255-4.08014c-1.2975.29709-2.7144-.05969-3.72503-1.07033-1.56209-1.5621-1.56209-4.09476 0-5.65686zm-3.31165 11.92143 2.26592-4.0786 1.74832.9712-2.22954 4.0132c.06262.0553.12393.1129.18381.1728 1.56209 1.5621 1.56209 4.0947 0 5.6568-1.5621 1.5621-4.09476 1.5621-5.65686 0-1.562094-1.5621-1.562094-4.0947 0-5.6568 1.00113-1.0012 2.4009-1.3607 3.68835-1.0786zm10.31168 1.0786c1.5621-1.5621 4.0947-1.5621 5.6568 0s1.5621 4.0947 0 5.6568-4.0947 1.5621-5.6568 0c-.5246-.5245-.873-1.1585-1.0452-1.8284h-4.1264v-2h4.1264c.1722-.6699.5206-1.3039 1.0452-1.8284z" fill="#801ed7" fill-rule="evenodd"/></svg>