<svg fill="none" height="24" viewBox="0 0 24 24" width="24" xmlns="http://www.w3.org/2000/svg"><g fill="#801ed7"><path clip-rule="evenodd" d="m13.1615 10h5.677c.5272-.00002.982-.00003 1.3565.0306.3954.0323.7886.1036 1.167.2964.5645.2876 1.0234.7465 1.311 1.311.1928.3784.2641.7716.2964 1.167.0306.3745.0306.8293.0306 1.3565v2.7848c0 .4386 0 .8171-.0213 1.1304-.0226.3298-.0721.6597-.2071.9856-.3044.7351-.8885 1.3191-1.6235 1.6236-.326.135-.6559.1845-.9857.207-.0523.0036-.1065.0066-.1624.0091v1.098c0 .3723-.2068.7138-.5368.8862-.3299.1725-.7284.1474-1.034-.0651l-2.1764-1.5132c-.3353-.233-.4031-.2755-.4672-.3045-.0738-.0335-.1515-.0579-.2313-.0726-.0692-.0127-.1491-.0165-.5574-.0165h-1.8354c-.5272 0-.982 0-1.3565-.0306-.3954-.0323-.7886-.1036-1.167-.2964-.5645-.2876-1.0234-.7466-1.31102-1.311-.19279-.3784-.26411-.7716-.29641-1.167-.0306-.3746-.03059-.8293-.03057-1.3565v-2.5913c-.00002-.5272-.00003-.982.03057-1.3565.0323-.3954.10362-.7886.29641-1.167.28762-.5645.74652-1.0234 1.31102-1.311.3784-.1928.7716-.2641 1.167-.2964.3745-.03063.8293-.03062 1.3565-.0306z" fill-rule="evenodd"/><path d="m14.2413 1h-7.48257c-.80496-.000012-1.46933-.000022-2.01053.04419-.56209.04593-1.0788.14449-1.56413.39179-.75265.38349-1.36457.99541-1.74807 1.74806-.24729.48533-.34585 1.00204-.39178 1.56414-.04421.54119-.0442 1.20555-.04419 2.01052l-.00002 4.7621c-.000129.4417-.000228.7689.04225 1.0589.25614 1.7486 1.62943 3.1219 3.37804 3.3781.07149.0104.11606.0373.13529.0533l-.00001 1.5778c-.00004.2726-.00008.54.01894.755.0169.191.06115.5867.34228.9146.31336.3655.78315.5584 1.26298.5186.43043-.0358.73994-.2862.88618-.4102.04166-.0354.08481-.0739.12912-.115-.09257-.3607-.1346-.6952-.15784-.9797-.03747-.4586-.03734-.9884-.03723-1.477v-2.676c-.00011-.4887-.00024-1.0185.03723-1.4771.0424-.519.14736-1.2047.50775-1.912.47937-.94084 1.24427-1.70574 2.18508-2.18511.70733-.36039 1.39303-.46535 1.91203-.50775.4586-.03747.9884-.03734 1.477-.03723h5.7618c.3657-.00008.7544-.00018 1.1191.01549v-1.25682c0-.80496.0001-1.46931-.0442-2.0105-.0459-.5621-.1445-1.07881-.3917-1.56414-.3835-.75265-.9955-1.36457-1.7481-1.74806-.4853-.2473-1.002-.34586-1.5641-.39179-.5412-.044212-1.2056-.044202-2.0106-.04419z"/></g></svg>