<svg fill="none" height="24" viewBox="0 0 24 24" width="24" xmlns="http://www.w3.org/2000/svg"><path clip-rule="evenodd" d="m15.8385 1h-7.67704c-.52712-.000015-.98193-.000029-1.35648.03057-.39535.0323-.78857.10362-1.16695.29641-.56448.28762-1.02343.74657-1.31105 1.31105-.19279.37838-.26411.7716-.29641 1.16695-.0306.37455-.03059.82929-.03057 1.35641v13.67711c-.00002.5272-.00003.982.03057 1.3565.0323.3954.10362.7886.29641 1.167.28762.5645.74657 1.0234 1.31105 1.311.37838.1928.7716.2641 1.16695.2964.37456.0306.82932.0306 1.35646.0306h7.67716c.5271 0 .9819 0 1.3564-.0306.3954-.0323.7886-.1036 1.167-.2964.5645-.2876 1.0234-.7465 1.311-1.311.1928-.3784.2641-.7716.2964-1.167.0306-.3745.0306-.8292.0306-1.3563v-13.67722c0-.52709 0-.98197-.0306-1.3565-.0323-.39535-.1036-.78857-.2964-1.16695-.2876-.56448-.7465-1.02343-1.311-1.31105-.3784-.19279-.7716-.26411-1.167-.29641-.3745-.030599-.8293-.030585-1.3565-.03057zm-3.8385 15c-.8284 0-1.5.6716-1.5 1.5s.6716 1.5 1.5 1.5 1.5-.6716 1.5-1.5-.6716-1.5-1.5-1.5zm-5.45399-12.89101c.04944-.02519.15016-.06287.42183-.08506.28333-.02315.65561-.02393 1.23216-.02393h7.6c.5766 0 .9488.00078 1.2322.02393.2716.02219.3723.05987.4218.08506.1882.09588.3411.24886.437.43702.0252.04944.0629.15016.0851.42183.0231.28333.0239.65561.0239 1.23216v.8h-12v-.8c0-.57655.00078-.94883.02393-1.23216.02219-.27167.05987-.37239.08506-.42183.09588-.18816.24886-.34114.43702-.43702zm11.45399 4.89101h-12v3h12z" fill="#801ed7" fill-rule="evenodd"/></svg>