<svg fill="none" height="24" viewBox="0 0 24 24" width="24" xmlns="http://www.w3.org/2000/svg"><g fill="#801ed7"><path d="m15.6 3c1.1366 0 1.9289.00078 2.5458.05118.6051.04944.9528.14162 1.2162.2758.5645.28762 1.0234.74656 1.311 1.31105.1342.26335.2264.61104.2758 1.21621.0504.61684.0512 1.40916.0512 2.54576v7.6c0 .5523.4477 1 1 1s1-.4477 1-1v-7.64283c0-1.08373 0-1.95794-.0578-2.66579-.0596-.72885-.1854-1.36904-.4872-1.96133-.4793-.94081-1.2442-1.70571-2.185-2.18508-.5923-.30179-1.2325-.4276-1.9614-.48715-.7079-.057837-1.582-.057829-2.6658-.05782h-7.6428c-.55228 0-1 .44772-1 1 0 .55229.44772 1 1 1z"/><path clip-rule="evenodd" d="m14.8385 4h-8.67704c-.52715-.00002-.98191-.00003-1.35649.03057-.39534.0323-.78856.10362-1.16694.29641-.56449.28762-1.02343.74656-1.31105 1.31105-.19279.37838-.26411.7716-.29641 1.16694-.0306.37457-.03059.82932-.03057 1.35645v8.67708c-.00002.5272-.00003.982.03057 1.3565.0323.3954.10362.7886.29641 1.167.28762.5645.74657 1.0234 1.31105 1.311.37838.1928.7716.2641 1.16694.2964.37457.0306.82933.0306 1.35647.0306h8.67716c.5271 0 .9819 0 1.3564-.0306.3954-.0323.7886-.1036 1.167-.2964.5645-.2876 1.0234-.7465 1.311-1.311.1928-.3784.2641-.7716.2964-1.167.0306-.3745.0306-.8293.0306-1.3564v-8.67716c0-.52715 0-.9819-.0306-1.35647-.0323-.39534-.1036-.78856-.2964-1.16694-.2876-.56449-.7465-1.02343-1.311-1.31105-.3784-.19279-.7716-.26411-1.167-.29641-.3745-.0306-.8293-.03059-1.3565-.03057zm-9.8385 5c0-.55228.44772-1 1-1h2c.55229 0 1 .44772 1 1v2c0 .5523-.44771 1-1 1h-2c-.55228 0-1-.4477-1-1zm0 5c0-.5523.44772-1 1-1h2c.55229 0 1 .4477 1 1v2c0 .5523-.44771 1-1 1h-2c-.55228 0-1-.4477-1-1zm6-5c-.5523 0-1 .44771-1 1 0 .5523.4477 1 1 1h4c.5523 0 1-.4477 1-1 0-.55229-.4477-1-1-1zm0 5c-.5523 0-1 .4477-1 1s.4477 1 1 1h4c.5523 0 1-.4477 1-1s-.4477-1-1-1z" fill-rule="evenodd"/></g></svg>