<svg fill="none" height="24" viewBox="0 0 24 24" width="24" xmlns="http://www.w3.org/2000/svg"><path clip-rule="evenodd" d="m6.75871 1h10.48259c.805-.000011 1.4693-.000021 2.0105.0442.5621.04592 1.0788.14449 1.5642.39178.7526.38349 1.3645.99541 1.748 1.74806.2473.48534.3459 1.00204.3918 1.56414.0442.54119.0442 1.20554.0442 2.0105v9.48262c0 .805 0 1.4693-.0442 2.0105-.0459.5621-.1445 1.0788-.3918 1.5642-.3835.7526-.9954 1.3645-1.748 1.748-.4854.2473-1.0021.3459-1.5642.3918-.5412.0442-1.2055.0442-2.0105.0442h-10.48263c-.80495 0-1.46931 0-2.0105-.0442-.56209-.0459-1.0788-.1445-1.56413-.3918-.75265-.3835-1.36457-.9954-1.74807-1.748-.24729-.4854-.34585-1.0021-.39178-1.5642-.044213-.5412-.044202-1.2055-.04419-2.0105v-9.4826c-.000012-.80497-.000023-1.46933.04419-2.01053.04593-.56209.14449-1.0788.39179-1.56413.38349-.75265.99541-1.36457 1.74806-1.74807.48533-.24729 1.00204-.34585 1.56414-.39178.54119-.044213 1.20555-.044202 2.01053-.04419zm-1.84767 2.03755c-.43842.03582-.66262.10075-.81902.18044-.37632.19174-.68229.49771-.87403.87403-.07969.1564-.14462.3806-.18044.81902-.03677.45009-.03755 1.03238-.03755 1.88896v9.4c0 .8566.00078 1.4389.03755 1.889.03582.4384.10075.6626.18044.819.19174.3763.49771.6823.87403.874.1564.0797.3806.1446.81902.1804.45009.0368 1.03238.0376 1.88896.0376h10.4c.8566 0 1.4389-.0008 1.889-.0376.4384-.0358.6626-.1007.819-.1804.3763-.1917.6823-.4977.874-.874.0797-.1564.1446-.3806.1805-.819.0367-.4501.0375-1.0324.0375-1.889v-9.4c0-.85658-.0008-1.43887-.0375-1.88896-.0359-.43842-.1008-.66262-.1805-.81902-.1917-.37632-.4977-.68228-.874-.87403-.1564-.07969-.3806-.14462-.819-.18044-.4501-.03677-1.0324-.03755-1.889-.03755h-10.4c-.85658 0-1.43887.00078-1.88896.03755zm2.65706 1.96245h.0319 8.8319c.2524-.00003.4982-.00006.7063.01695.2286.01867.4984.06274.7698.20104.3763.19175.6823.49771.874.87403.1383.27142.1824.54116.2011.76975.017.20816.0169.45394.0169.70632v7.86381c0 .2524.0001.4982-.0169.7063-.0187.2286-.0628.4984-.2011.7698-.1917.3763-.4977.6823-.874.874-.2714.1383-.5412.1824-.7698.2011-.2081.017-.4539.0169-.7063.0169h-8.86382c-.25237 0-.49816.0001-.70631-.0169-.22859-.0187-.49833-.0628-.76975-.2011-.37633-.1917-.68229-.4977-.87403-.874-.1383-.2714-.18237-.5412-.20104-.7698-.01701-.2081-.01698-.4539-.01695-.7063v-7.8319-.0319c-.00003-.25238-.00006-.49817.01695-.70633.01867-.22859.06274-.49833.20104-.76975.19174-.37632.49771-.68229.87403-.87403.27142-.1383.54116-.18237.76975-.20104.20816-.01701.45395-.01698.70633-.01695zm6.4319 5c0 .5523-.4477 1-1 1s-1-.4477-1-1c0-.55228.4477-1 1-1s1 .44772 1 1zm1.0148 4h-6.47605c-.72365 0-1.20771-.7449-.91381-1.4061l.94438-2.1249c.30089-.67698 1.20776-.80316 1.68208-.234l1.6391 1.967c.3631.4357 1.0156.4825 1.4372.1031l.6324-.5692c.4384-.3946 1.1214-.3259 1.4725.1481l.3857.5208c.4889.6599.0178 1.5952-.8035 1.5952z" fill="#801ed7" fill-rule="evenodd"/></svg>