<svg fill="none" height="24" viewBox="0 0 24 24" width="24" xmlns="http://www.w3.org/2000/svg"><path d="m17.8385 2h-11.67704c-.52713-.00002-.98192-.00003-1.35649.03057-.39534.0323-.78856.10362-1.16694.29641-.56449.28762-1.02343.74656-1.31105 1.31105-.19279.37838-.26411.7716-.29641 1.16694-.0306.37457-.03059.82932-.03057 1.35645v5.72978c0 .4332 0 .6498.08933.8467.07232.1594.21838.3294.3651.4249.1812.118.36815.1465.74206.2034.59646.0909 1.20055.1338 1.80347.1338 3.30568 0 6.29934-1.336 8.47064-3.5h-1.4706c-.5523 0-1-.44771-1-1 0-.55228.4477-1 1-1h4c.5523 0 1 .44772 1 1v4c0 .5523-.4477 1-1 1s-1-.4477-1-1v-1.7022c-2.5402 2.5921-6.08204 4.2022-10.00004 4.2022-.34799 0-.69314-.0128-1.035-.0378-.76202-.0557-1.14303-.0836-1.37283.0191-.21975.0981-.35904.2276-.47298.4396-.11915.2217-.11915.5624-.11915 1.2438v.6738c-.00002.5272-.00003.982.03057 1.3565.0323.3954.10362.7886.29641 1.167.28762.5645.74656 1.0234 1.31105 1.311.37838.1928.7716.2641 1.16694.2964.37457.0306.82933.0306 1.35647.0306h11.67716c.5271 0 .9819 0 1.3564-.0306.3954-.0323.7886-.1036 1.167-.2964.5645-.2876 1.0234-.7465 1.311-1.311.1928-.3784.2641-.7716.2964-1.167.0306-.3745.0306-.8293.0306-1.3564v-11.67716c0-.52714 0-.9819-.0306-1.35647-.0323-.39534-.1036-.78856-.2964-1.16694-.2876-.56449-.7465-1.02343-1.311-1.31105-.3784-.19279-.7716-.26411-1.167-.29641-.3745-.0306-.8293-.03059-1.3565-.03057z" fill="#801ed7"/></svg>