<svg fill="none" height="24" viewBox="0 0 24 24" width="24" xmlns="http://www.w3.org/2000/svg"><path d="m12 1c-6.07513 0-11 4.92487-11 11 0 .0992 0 .1488.01014.2195.04545.3167.29625.6461.58942.7743.06541.0285.12331.0445.2391.0765.18151.0501.34515.094.48176.1296.86064.1962 1.75735.3001 2.67954.3001 3.30568 0 6.29934-1.336 8.47064-3.5h-1.4706c-.5523 0-1-.44772-1-1s.4477-1 1-1h4c.5523 0 1 .44772 1 1v4c0 .5523-.4477 1-1 1s-1-.4477-1-1v-1.7022c-2.5402 2.5921-6.08204 4.2022-10.00004 4.2022-.2601 0-.5191-.0069-.77704-.0209-1.01216-.0547-1.51824-.082-1.7968.1065-.2372.1605-.40181.4331-.43345.7177-.03715.3343.16048.6653.55572 1.3274 1.91985 3.2157 5.43423 5.3693 9.45161 5.3693 6.0751 0 11-4.9249 11-11 0-6.07513-4.9249-11-11-11z" fill="#801ed7"/></svg>