<svg fill="none" height="24" viewBox="0 0 24 24" width="24" xmlns="http://www.w3.org/2000/svg"><path clip-rule="evenodd" d="m10.596 1.47749c.414-.31865.909-.477611 1.404-.47749.495-.000121.99.15884 1.404.47749l1.1736.90115 1.4708-.19354c1.0351-.1364 2.0309.44037 2.4302 1.40289l.565 1.36867 1.3666.56423.002.00081c.9625.39935 1.5391 1.39563 1.4027 2.43064l-.1934 1.46954.9017 1.17442c.2382.3102.3873.6662.447 1.0337.0435.2679.0394.542-.0123.8088-.0664.343-.2114.6741-.4347.9649l-.9017 1.1744.1934 1.4696c.1364 1.035-.4402 2.0313-1.4027 2.4306l-.002.0008-1.3666.5642-.565 1.3687c-.3993.9625-1.3951 1.5393-2.4302 1.4029l-1.4708-.1935-1.1736.9011c-.414.3187-.909.4776-1.404.4775-.495.0001-.99-.1588-1.404-.4775l-1.17364-.9011-1.4708.1935c-1.03508.1364-2.03083-.4404-2.43012-1.4029l-.56502-1.3687-1.36663-.5642-.00195-.0008c-.96253-.3993-1.53912-1.3956-1.40274-2.4306l.19335-1.4696-.90163-1.1744c-.25935-.3377-.41303-.7296-.46073-1.1315-.069175-.5828.08474-1.1863.46073-1.6759l.90163-1.17442-.19335-1.46954c-.13638-1.03501.44021-2.03129 1.40274-2.43064l.00195-.00081 1.36663-.56423.56502-1.36867c.39929-.96252 1.39504-1.53929 2.43012-1.40289l1.4708.19354zm5.6111 8.72961c.3905-.39052.3905-1.02368 0-1.41421-.3905-.39052-1.0237-.39052-1.4142 0l-3.7929 3.79291-1.29289-1.2929c-.39053-.3905-1.02369-.3905-1.41422 0-.39052.3905-.39052 1.0237 0 1.4142l2.00001 2c.3905.3905 1.0237.3905 1.4142 0z" fill="#801ed7" fill-rule="evenodd"/></svg>