<svg fill="none" height="24" viewBox="0 0 24 24" width="24" xmlns="http://www.w3.org/2000/svg"><path clip-rule="evenodd" d="m2.0315 12c-.0003-.1338-.02658-.2675-.07885-.3935l-.72144-1.74675c-.15242-.36787-.23115-.76276-.23121-1.16096-.000064-.39841.07838-.79294.23084-1.16103s.37596-.70253.65772-.98421c.28169-.28161.61609-.50497.98411-.65732l1.74393-.72239c.25256-.10443.454-.30497.55915-.55725l.72255-1.74445c.30778-.74309.89815-1.33348 1.64123-1.64129.74308-.307801 1.578-.307802 2.32108 0l1.74309.72205c.253.10443.5373.1043.7901-.00059l.002-.00082 1.7446-.71957c.7428-.307391 1.5779-.307491 2.3207.00017.7429.30775 1.3332.89797 1.641 1.64086l.7052 1.70257c.0063.01344.0123.02707.018.04089.1045.25283.3051.45383.5577.55889l1.7449.7228c.7431.30781 1.3335.8982 1.6413 1.64129.3077.74308.3077 1.578 0 2.32109l-.7224 1.74402c-.0525.1266-.0787.2616-.0787.3958s.0262.2686.0787.3952l.7224 1.744c.3077.7431.3077 1.578 0 2.3211-.3078.7431-.8982 1.3335-1.6413 1.6413l-1.7449.7228c-.2526.1051-.4532.3061-.5577.5589-.0057.0138-.0117.0274-.018.0409l-.7052 1.7025c-.3078.7429-.8981 1.3332-1.641 1.6409-.7428.3077-1.5779.3076-2.3207.0002l-1.7446-.7196-.002-.0008c-.2528-.1049-.5371-.105-.7901-.0006l-1.74309.722c-.74308.3079-1.578.3079-2.32108 0-.74308-.3078-1.33345-.8982-1.64123-1.6412l-.72255-1.7445c-.10515-.2523-.30659-.4528-.55915-.5572l-1.74393-.7224c-.36802-.1524-.70242-.3757-.98411-.6573-.28176-.2817-.50526-.6162-.65772-.9843s-.230904-.7626-.23084-1.161c.00006-.3982.07879-.7931.23121-1.161l.72144-1.7467c.05227-.126.07855-.2597.07885-.3935zm14.1756-1.7929c.3905-.39052.3905-1.02368 0-1.41421-.3905-.39052-1.0237-.39052-1.4142 0l-3.7929 3.79291-1.29289-1.2929c-.39053-.3905-1.02369-.3905-1.41422 0-.39052.3905-.39052 1.0237 0 1.4142l2.00001 2c.3905.3905 1.0237.3905 1.4142 0z" fill="#801ed7" fill-rule="evenodd"/></svg>