<svg fill="none" height="24" viewBox="0 0 24 24" width="24" xmlns="http://www.w3.org/2000/svg"><path clip-rule="evenodd" d="m15.1341 2.1543c-1.806-1.539068-4.4622-1.539068-6.26825 0-.45359.38655-1.01756.62016-1.61163.66756-2.36533.18876-4.2436 2.06703-4.43236 4.43236-.0474.59407-.28101 1.15804-.66756 1.61163-1.539068 1.80605-1.539068 4.46225 0 6.26825.38655.4536.62016 1.0176.66756 1.6117.18876 2.3653 2.06703 4.2436 4.43236 4.4323.59407.0474 1.15804.281 1.61163.6676 1.80605 1.5391 4.46225 1.5391 6.26825 0 .4536-.3866 1.0176-.6202 1.6117-.6676 2.3653-.1887 4.2436-2.067 4.4323-4.4323.0474-.5941.281-1.1581.6676-1.6117 1.5391-1.806 1.5391-4.4622 0-6.26825-.3866-.45359-.6202-1.01756-.6676-1.61163-.1887-2.36533-2.067-4.2436-4.4323-4.43236-.5941-.0474-1.1581-.28101-1.6117-.66756zm1.073 8.0528c.3905-.39052.3905-1.02368 0-1.41421-.3905-.39052-1.0237-.39052-1.4142 0l-3.7929 3.79291-1.29289-1.2929c-.39053-.3905-1.02369-.3905-1.41422 0-.39052.3905-.39052 1.0237 0 1.4142l2.00001 2c.3905.3905 1.0237.3905 1.4142 0z" fill="#801ed7" fill-rule="evenodd"/></svg>