<svg fill="none" height="24" viewBox="0 0 24 24" width="24" xmlns="http://www.w3.org/2000/svg"><path d="m12 1c-6.07513 0-11 4.92487-11 11 0 6.0751 4.92487 11 11 11 6.0751 0 11-4.9249 11-11 0-1.4512-.281-2.8368-.7916-4.10529-.2134-.52998-.32-.79498-.5725-.9662-.1999-.13554-.5168-.20014-.7538-.15366-.2993.05872-.5321.29177-.9978.75788l-7.1768 7.18407c-.1875.1876-.4419.2931-.7073.2932-.2653.0001-.5197-.1053-.7073-.2929l-3.00001-3c-.39052-.3905-.39052-1.0237 0-1.4142.39053-.39053 1.02369-.39053 1.41422 0l2.29249 2.2925 6.978-6.98486c.3757-.37609.5635-.56414.6352-.81012.0575-.19778.0439-.46468-.0336-.65555-.0963-.23739-.2761-.38388-.6357-.67687-1.8935-1.5429-4.3105-2.468-6.9435-2.468z" fill="#801ed7"/></svg>