<svg fill="none" height="24" viewBox="0 0 24 24" width="24" xmlns="http://www.w3.org/2000/svg"><g fill="#801ed7"><path clip-rule="evenodd" d="m18.8385 7h-7.677c-.5272-.00002-.982-.00003-1.35652.03057-.39535.0323-.78857.10362-1.16695.29641-.56448.28762-1.02342.74656-1.31104 1.31105-.1928.37838-.26411.7716-.29642 1.16694-.0306.37453-.03058.82933-.03057 1.35643v7.6771c-.00001.5272-.00003.982.03057 1.3565.03231.3954.10362.7886.29642 1.167.28762.5645.74656 1.0234 1.31104 1.311.37838.1928.7716.2641 1.16695.2964.37452.0306.82932.0306 1.35642.0306h7.6771c.5271 0 .982 0 1.3565-.0306.3954-.0323.7886-.1036 1.167-.2964.5645-.2876 1.0234-.7465 1.311-1.311.1928-.3784.2641-.7716.2964-1.167.0306-.3745.0306-.8293.0306-1.3565v-7.677c0-.5272 0-.9819-.0306-1.35653-.0323-.39534-.1036-.78856-.2964-1.16694-.2876-.56449-.7465-1.02343-1.311-1.31105-.3784-.19279-.7716-.26411-1.167-.29641-.3745-.0306-.8293-.03059-1.3565-.03057zm.3686 6.2071c.3905-.3905.3905-1.0237 0-1.4142s-1.0237-.3905-1.4142 0l-3.7929 3.7929-1.2929-1.2929c-.3905-.3905-1.0237-.3905-1.4142 0s-.3905 1.0237 0 1.4142l2 2c.3905.3905 1.0237.3905 1.4142 0z" fill-rule="evenodd"/><path d="m5.16146 1h7.67704c.5272-.000016.982-.000031 1.3565.03057.3954.0323.7886.10362 1.167.29641.5645.28762 1.0234.74656 1.311 1.31105.1928.37838.2641.7716.2964 1.16694.0275.33579.0303.73601.0306 1.19506l-5.8809-.00002c-.4886-.00011-1.0184-.00024-1.47699.03723-.51902.0424-1.20474.14736-1.91206.50775-.94081.47937-1.70571 1.24427-2.18508 2.18508-.36039.70732-.46535 1.39304-.50775 1.91206-.03747.45857-.03734.98837-.03723 1.47707l.00002 5.8808c-.45904-.0003-.85926-.0031-1.19504-.0306-.39534-.0323-.78856-.1036-1.16694-.2964-.56449-.2876-1.02343-.7465-1.31105-1.311-.19279-.3784-.26411-.7716-.29641-1.167-.030603-.3745-.030586-.8292-.03057-1.3564v-7.67712c-.000016-.52711-.000033-.98196.03057-1.35651.0323-.39534.10362-.78856.29641-1.16694.28762-.56449.74656-1.02343 1.31105-1.31105.37838-.19279.7716-.26411 1.16694-.29641.37456-.030601.82936-.030586 1.35649-.03057z"/></g></svg>