<svg fill="none" height="24" viewBox="0 0 24 24" width="24" xmlns="http://www.w3.org/2000/svg"><path clip-rule="evenodd" d="m3.50509 3.54978c2.6873-2.29609 6.14776-1.87764 8.48771.16725 2.3372-2.04567 5.7608-2.43445 8.478-.17602 2.9736 2.47149 3.3307 6.68659 1.0409 9.63309-.7951 1.023-2.2744 2.5087-3.7573 3.9228-1.4995 1.43-3.0582 2.8388-4.0503 3.7242l-.022.0195c-.1625.1452-.3251.2903-.475.4039-.1685.1278-.3754.2593-.6393.3385-.3721.1116-.7772.1116-1.1493 0-.2639-.0792-.4708-.2107-.6393-.3385-.1499-.1136-.3124-.2587-.475-.4038l-.022-.0196c-.99213-.8854-2.55078-2.2942-4.05029-3.7242-1.48288-1.4141-2.96226-2.8998-3.75732-3.9228-2.298619-2.9579-1.876289-7.1407 1.0305-9.62432zm12.70201 5.65733c.3905-.39053.3905-1.02369 0-1.41422-.3905-.39052-1.0237-.39052-1.4142 0l-3.7929 3.79291-1.29289-1.2929c-.39053-.39053-1.02369-.39053-1.41422 0-.39052.3905-.39052 1.0237 0 1.4142l2.00001 2c.3905.3905 1.0237.3905 1.4142 0z" fill="#801ed7" fill-rule="evenodd"/></svg>