<svg fill="none" height="24" viewBox="0 0 24 24" width="24" xmlns="http://www.w3.org/2000/svg"><path d="m17.8385 2h-11.67704c-.52713-.00002-.98192-.00003-1.35649.03057-.39534.0323-.78856.10362-1.16694.29641-.56449.28762-1.02343.74656-1.31105 1.31105-.19279.37838-.26411.7716-.29641 1.16694-.0306.37457-.03059.82932-.03057 1.35645v11.67708c-.00002.5272-.00003.982.03057 1.3565.0323.3954.10362.7886.29641 1.167.28762.5645.74656 1.0234 1.31105 1.311.37838.1928.7716.2641 1.16694.2964.37457.0306.82933.0306 1.35647.0306h11.67716c.5271 0 .9819 0 1.3564-.0306.3954-.0323.7886-.1036 1.167-.2964.5645-.2876 1.0234-.7465 1.311-1.311.1928-.3784.2641-.7716.2964-1.167.0306-.3745.0306-.8293.0306-1.3564v-7.6772c0-.1521 0-1.60026-.0007-2.85851-.0004-.57677-.0005-.86516-.1203-1.00533-.1032-.12074-.2611-.18607-.4194-.17358-.1839.0145-.3881.21871-.7965.62713l-7.956 7.95599c-.3905.3905-1.0237.3905-1.4142 0l-3.00001-3c-.39052-.3905-.39052-1.0237 0-1.4142.39053-.39053 1.02369-.39053 1.41422 0l2.29289 2.2929 8.4319-8.41928c.279-.2786.4185-.41789.4855-.68818.049-.1976-.014-.59585-.1215-.76872-.147-.23646-.2427-.28519-.4339-.38264-.3784-.19279-.7716-.26411-1.167-.29641-.3745-.0306-.8293-.03059-1.3565-.03057z" fill="#801ed7"/></svg>