<svg fill="none" height="24" viewBox="0 0 24 24" width="24" xmlns="http://www.w3.org/2000/svg"><g clip-rule="evenodd" fill="#801ed7" fill-rule="evenodd"><path d="m5.29289 6.29289c.39053-.39052 1.02369-.39052 1.41422 0l4.99999 5.00001c.3905.3905.3905 1.0237 0 1.4142l-4.99999 5c-.39053.3905-1.02369.3905-1.41422 0-.39052-.3905-.39052-1.0237 0-1.4142l4.2929-4.2929-4.2929-4.29289c-.39052-.39053-.39052-1.02369 0-1.41422z"/><path d="m12.2929 6.29289c.3905-.39052 1.0237-.39052 1.4142 0l5 5.00001c.3905.3905.3905 1.0237 0 1.4142l-5 5c-.3905.3905-1.0237.3905-1.4142 0s-.3905-1.0237 0-1.4142l4.2929-4.2929-4.2929-4.29289c-.3905-.39053-.3905-1.02369 0-1.41422z"/></g></svg>