<svg fill="none" height="24" viewBox="0 0 24 24" width="24" xmlns="http://www.w3.org/2000/svg"><g clip-rule="evenodd" fill="#801ed7" fill-rule="evenodd"><path d="m6.29289 14.2929c.39053-.3905 1.02369-.3905 1.41422 0l4.29289 4.2929 4.2929-4.2929c.3905-.3905 1.0237-.3905 1.4142 0s.3905 1.0237 0 1.4142l-5 5c-.3905.3905-1.0237.3905-1.4142 0l-5.00001-5c-.39052-.3905-.39052-1.0237 0-1.4142z"/><path d="m6.29289 9.70711c.39053.39049 1.02369.39049 1.41422 0l4.29289-4.2929 4.2929 4.2929c.3905.39049 1.0237.39049 1.4142 0 .3905-.39053.3905-1.02369 0-1.41422l-5-5c-.3905-.39052-1.0237-.39052-1.4142 0l-5.00001 5c-.39052.39053-.39052 1.02369 0 1.41422z"/></g></svg>