<svg fill="none" height="24" viewBox="0 0 24 24" width="24" xmlns="http://www.w3.org/2000/svg"><path clip-rule="evenodd" d="m17.2413 2h-10.4826c-.80496-.00001-1.46933-.00002-2.01052.04419-.5621.04593-1.07881.14449-1.56414.39179-.75265.38349-1.36457.99541-1.74806 1.74806-.2473.48533-.34586 1.00204-.39179 1.56414-.044212.54119-.044202 1.20554-.04419 2.01051v8.48261c-.000012.805-.000022 1.4693.04419 2.0105.04593.5621.14449 1.0788.39179 1.5642.38349.7526.99541 1.3645 1.74806 1.748.48533.2473 1.00204.3459 1.56414.3918.54119.0442 1.20554.0442 2.0105.0442h10.48262c.805 0 1.4693 0 2.0105-.0442.5621-.0459 1.0788-.1445 1.5642-.3918.7526-.3835 1.3645-.9954 1.748-1.748.2473-.4854.3459-1.0021.3918-1.5642.0442-.5412.0442-1.2055.0442-2.0105v-8.48262c0-.80496 0-1.46931-.0442-2.0105-.0459-.5621-.1445-1.07881-.3918-1.56414-.3835-.75265-.9954-1.36457-1.748-1.74806-.4854-.2473-1.0021-.34586-1.5642-.39179-.5412-.04421-1.2055-.0442-2.0105-.04419zm-13.23522 7.93935c.06105-.5489.55551-.94438 1.10441-.88333 2.25643.25096 4.36031 1.26228 5.96571 2.86768 1.6054 1.6053 2.6167 3.7092 2.8676 5.9657.0611.5489-.3344 1.0433-.8833 1.1044-.5489.061-1.0434-.3345-1.1044-.8834-.2008-1.8051-1.0098-3.4882-2.29414-4.7725-1.2843-1.2843-2.9674-2.0934-4.77255-2.2941-.5489-.0611-.94438-.5555-.88333-1.10445zm.01404 3.96075c.11037-.5412.63852-.8904 1.17966-.78 1.15307.2351 2.21153.8042 3.04366 1.6363s1.40118 1.8906 1.63634 3.0436c.11037.5412-.23885 1.0693-.78 1.1797-.54114.1104-1.06929-.2388-1.17966-.78-.15677-.7687-.53614-1.4743-1.09089-2.0291-.55475-.5547-1.26039-.9341-2.02911-1.0909-.54114-.1104-.89036-.6385-.78-1.1796zm.97983 3.0998c-.55228 0-1 .4477-1 1s.44772 1 1 1h.01c.55229 0 1-.4477 1-1s-.44771-1-1-1z" fill="#801ed7" fill-rule="evenodd"/></svg>