<svg fill="none" height="24" viewBox="0 0 24 24" width="24" xmlns="http://www.w3.org/2000/svg"><g fill="#801ed7"><path d="m5.83902 3.85751c-.25123-.11865-.37684-.17798-.56031-.19219-.13741-.01064-.34746.02441-.47397.07909-.16891.07301-.27157.17294-.47689.37281-2.05282 1.9983-3.32785 4.79164-3.32785 7.88278 0 3.0911 1.27503 5.8845 3.32785 7.8828.20532.1998.30798.2998.47689.3728.12651.0547.33656.0897.47397.0791.18347-.0142.30908-.0736.56031-.1922 3.05042-1.4408 5.16098-4.5451 5.16098-8.1425 0-3.59735-2.11057-6.70175-5.16098-8.14249z"/><path d="m8.43955 1.58899c-.4387.15-.65805.22499-.75209.36785-.08184.12432-.10403.2788-.06052.42112.05002.16356.27042.31921.71124.63052 2.82012 1.99158 4.66182 5.27648 4.66182 8.99152 0 3.715-1.8417 6.9999-4.66182 8.9915-.44081.3113-.66122.467-.71123.6305-.04352.1424-.02132.2968.06051.4212.09404.1428.31339.2178.75209.3678 1.11671.3818 2.31435.589 3.56045.589 6.0751 0 11-4.9249 11-11 0-6.07513-4.9249-11-11-11-1.2461 0-2.44374.20719-3.56045.58899z"/></g></svg>