<svg fill="none" height="24" viewBox="0 0 24 24" width="24" xmlns="http://www.w3.org/2000/svg"><g fill="#801ed7"><path d="m7.78874 2.95696c.06561-.32801.09841-.49201.054-.62036-.03894-.11258-.1168-.20755-.21955-.26782-.11715-.06871-.28441-.06871-.61891-.06871h-.24558c-.80495-.00001-1.46934-.00002-2.01052.04419-.5621.04593-1.0788.14449-1.56414.39178-.75265.3835-1.36457.99542-1.74806 1.74807-.2473.48533-.34586 1.00204-.39178 1.56413-.01478.18087-.02217.2713-.01002.3718.04914.40669.39102.77764.79235.85974.09919.02029.20877.02029.42793.02029h4.06982c.23362 0 .35043 0 .44617-.04184.08443-.0369.15702-.09641.20976-.17197.05981-.08567.08272-.20022.12853-.4293z"/><path d="m9.21111 6.04318c-.0656.328-.0984.49201-.054.62036.03895.11258.11681.20755.21956.26782.11715.06871.2844.06871.6189.06871h3.32873c.2336 0 .3504 0 .4462-.04184.0844-.0369.157-.09641.2097-.17197.0598-.08567.0827-.20022.1285-.4293l.68-3.4c.0656-.32801.0984-.49201.054-.62036-.0389-.11258-.1168-.20755-.2195-.26782-.1172-.06871-.2844-.06871-.6189-.06871h-3.3287c-.2336 0-.3505 0-.4462.04184-.0844.0369-.157.09641-.2098.17196-.05977.08568-.08267.20022-.12849.42931z"/><path d="m17.6756 1.99819c-.2341.0005-.3511.00074-.4466.04266-.0844.03703-.1566.09634-.2093.17193-.0596.08558-.0826.20052-.1286.4304l-.68 3.39999c-.0656.32801-.0984.49202-.054.62037.039.11258.1168.20755.2196.26782.1171.06871.2844.06871.6189.06871h4.7499c.2192 0 .3288 0 .428-.02029.4013-.0821.7432-.45304.7923-.85973.0122-.1005.0048-.19093-.01-.37177-.0459-.56209-.1445-1.07884-.3918-1.56417-.3835-.75265-.9954-1.36457-1.748-1.74807-.4854-.24729-1.0021-.34585-1.5642-.39178-.5237-.04279-1.0502-.04718-1.5762-.04607z"/><path d="m22.891 9.54608c.109.21391.109.49392.109 1.05402v5.6413c0 .805 0 1.4693-.0442 2.0105-.0459.5621-.1445 1.0788-.3918 1.5641-.3835.7527-.9954 1.3646-1.748 1.7481-.4854.2473-1.0021.3459-1.5642.3918-.5412.0442-1.2055.0442-2.0105.0442h-10.48262c-.80496 0-1.46931 0-2.0105-.0442-.5621-.0459-1.0788-.1445-1.56414-.3918-.75265-.3835-1.36457-.9954-1.74806-1.7481-.2473-.4853-.34586-1.002-.39178-1.5641-.044221-.5412-.044212-1.2056-.0442-2.0105v-5.6413c0-.5601 0-.84011.10899-1.05402.09588-.18816.24886-.34114.43702-.43702.21391-.10899.49394-.10899 1.05399-.10899h18.8c.5601 0 .8401 0 1.054.10899.1882.09588.3411.24886.437.43702z"/></g></svg>