<svg fill="none" height="24" viewBox="0 0 24 24" width="24" xmlns="http://www.w3.org/2000/svg"><path clip-rule="evenodd" d="m9.56811 1c-.25238-.000027-.49818-.000057-.70633.01695-.2286.01868-.49833.06274-.76976.20104-.37632.19175-.68228.49771-.87403.87403-.1383.27143-.18236.54116-.20104.76976-.00384.04696-.00681.09584-.00911.14628-.39513.01276-.73353.04541-1.04302.12833-1.38037.36987-2.45856 1.44806-2.82843 2.82843-.13709.51165-.13677 1.10231-.13634 1.8977l.00005 9.37888c-.00002.805-.00003 1.4693.04419 2.0105.04593.5621.14449 1.0788.39178 1.5642.38349.7526.99542 1.3645 1.74806 1.748.48534.2473 1.00204.3459 1.56414.3918.54119.0442 1.20554.0442 2.0105.0442h6.48263c.805 0 1.4693 0 2.0105-.0442.5621-.0459 1.0788-.1445 1.5642-.3918.7526-.3835 1.3645-.9954 1.748-1.748.2473-.4854.3459-1.0021.3918-1.5642.0442-.5412.0442-1.2055.0442-2.0105v-9.37888c.0005-.79539.0008-1.38605-.1363-1.8977-.3699-1.38037-1.4481-2.45856-2.8284-2.82843-.3096-.08294-.648-.11558-1.0432-.12834-.0023-.05043-.0053-.09931-.0091-.14627-.0187-.2286-.0628-.49833-.2011-.76976-.1917-.37632-.4977-.68228-.874-.87403-.2714-.1383-.5412-.18236-.7698-.20104-.2081-.017007-.4539-.016977-.7063-.01695zm-.56811 3.6c0-.56005 0-.84008.10899-1.05399.09588-.18816.24886-.34114.43702-.43702.21391-.10899.49389-.10899 1.05399-.10899h2.8c.5601 0 .8401 0 1.054.10899.1882.09588.3411.24886.437.43702.109.21391.109.49394.109 1.05399v.4h-6z" fill="#801ed7" fill-rule="evenodd"/></svg>