<svg fill="none" height="24" viewBox="0 0 24 24" width="24" xmlns="http://www.w3.org/2000/svg"><g fill="#801ed7"><path clip-rule="evenodd" d="m10 1c-.55228 0-1 .44772-1 1s.44772 1 1 1h1v1.052c-4.77666.4997-8.5 4.53903-8.5 9.448 0 5.2467 4.25329 9.5 9.5 9.5 5.2467 0 9.5-4.2533 9.5-9.5 0-4.90897-3.7233-8.9483-8.5-9.448v-1.052h1c.5523 0 1-.44772 1-1s-.4477-1-1-1zm3 8.5c0-.55228-.4477-1-1-1s-1 .44772-1 1v4c0 .3513.1843.6768.4855.8575l2.5 1.5c.4736.2841 1.0878.1306 1.372-.343.2841-.4736.1306-1.0878-.343-1.372l-2.0145-1.2087z" fill-rule="evenodd"/><path d="m18.122 3.38469c.3905-.39052 1.0237-.39052 1.4142 0l1.5 1.5c.3905.39052.3905 1.02369 0 1.41421-.3905.39053-1.0237.39053-1.4142 0l-1.5-1.5c-.3905-.39052-.3905-1.02369 0-1.41421z"/><path d="m5.87801 3.38469c.39052.39052.39052 1.02369 0 1.41421l-1.5 1.5c-.39053.39053-1.02369.39053-1.41422 0-.39052-.39052-.39052-1.02369 0-1.41421l1.5-1.5c.39053-.39052 1.02369-.39052 1.41422 0z"/></g></svg>