<svg fill="none" height="24" viewBox="0 0 24 24" width="24" xmlns="http://www.w3.org/2000/svg"><g clip-rule="evenodd" fill="#801ed7" fill-rule="evenodd"><path d="m22.7071 16.7929c.3905.3905.3905 1.0237 0 1.4142l-4.5 4.5c-.3905.3905-1.0237.3905-1.4142 0l-2-2c-.3905-.3905-.3905-1.0237 0-1.4142s1.0237-.3905 1.4142 0l1.2929 1.2929 3.7929-3.7929c.3905-.3905 1.0237-.3905 1.4142 0z"/><path d="m12 1c-6.07513 0-11 4.92487-11 11 0 6.0751 4.92487 11 11 11 .373 0 .7416-.0186 1.1051-.0548.0301-.003-.0453.0045-.0382.0036.3861-.0497.567-.5563.2997-.8393-.0049-.0051.0234.0231.0121.0118-1.1716-1.1716-1.1716-3.071 0-4.2426 1.1308-1.1309 2.9399-1.1702 4.1179-.1179l2.3821-2.3821c.5614-.5614 1.29-.8538 2.0255-.8772.3547-.0112.5321-.0169.6266-.0619.0951-.0453.1469-.0907.2043-.1791.057-.0878.0775-.2121.1184-.4608.0964-.5856.1465-1.1868.1465-1.7997 0-6.07513-4.9249-11-11-11zm0 4c.5523 0 1 .44772 1 1v5.382l3.4472 1.7236c.494.247.6942.8476.4472 1.3416s-.8476.6942-1.3416.4472l-4-2c-.3388-.1694-.5528-.5156-.5528-.8944v-6c0-.55228.4477-1 1-1z"/></g></svg>