<svg fill="none" height="24" viewBox="0 0 24 24" width="24" xmlns="http://www.w3.org/2000/svg"><g fill="#801ed7"><path d="m19.5407 5.67501-.1087.40553c-2.879-3.62375-8.0532-4.69136-12.18189-2.30766-2.73551 1.57934-4.38779 4.31451-4.69796 7.22862-.05846.5491.33935 1.0417.88853 1.1002.54919.0584 1.04177-.3394 1.10023-.8886.24543-2.30569 1.55072-4.46197 3.7092-5.70817 3.15589-1.82204 7.08549-1.08986 9.39509 1.55512l-.3439-.09215c-.5335-.14294-1.0818.17364-1.2247.70711-.143.53346.1736 1.0818.7071 1.22474l2.732.73205c.5335.14295 1.0818-.17364 1.2248-.7071l.732-2.73205c.143-.53347-.1736-1.08181-.7071-1.22475s-1.0818.17364-1.2247.70711z"/><path d="m20.5594 11.8984c.5492.0585.947.5511.8885 1.1002-.3101 2.9141-1.9624 5.6493-4.6979 7.2286-4.1288 2.3838-9.30312 1.3161-12.18208-2.3078l-.10858.4052c-.14294.5335-.69128.85-1.22475.7071-.53346-.1429-.85005-.6913-.7071-1.2247l.73205-2.7321c.14294-.5335.69128-.85 1.22474-.7071l2.73205.7321c.53347.1429.85005.6912.70711 1.2247s-.69128.85-1.22474.7071l-.34436-.0923c2.30953 2.6455 6.23956 3.3779 9.39566 1.5558 2.1584-1.2462 3.4637-3.4025 3.7092-5.7082.0584-.5492.551-.947 1.1002-.8886z"/><path d="m13.0001 7.49993c0-.55228-.4478-1-1-1-.5523 0-1 .44772-1 1v4.49997c0 .3513.1843.6768.4855.8575l2.5 1.5c.4735.2842 1.0878.1306 1.3719-.343.2842-.4736.1306-1.0878-.343-1.372l-2.0144-1.2087z"/></g></svg>