<svg fill="none" height="24" viewBox="0 0 24 24" width="24" xmlns="http://www.w3.org/2000/svg"><g fill="#801ed7"><path d="m12 4c-4.41828 0-8 3.58172-8 8 0 4.4183 3.58172 8 8 8 2.5127 0 4.7544-1.1573 6.2226-2.9717.3474-.4293.9771-.4957 1.4064-.1483.4294.3474.4958.9771.1484 1.4064-1.8317 2.2635-4.6356 3.7136-7.7774 3.7136-5.52285 0-10-4.4772-10-10 0-5.52285 4.47715-10 10-10 5.1343 0 9.3648 3.86933 9.9347 8.851l.058-.058c.3905-.3906 1.0237-.3907 1.4143-.0002.3905.3905.3906 1.0236.0002 1.4142l-1.9994 2c-.1876.1876-.4419.293-.7071.293s-.5196-.1053-.7072-.2928l-2.0006-2c-.3905-.3905-.3906-1.0236-.0002-1.4142.3905-.3906 1.0237-.3907 1.4143-.0002l.5678.5677c-.3258-4.11929-3.7718-7.3605-7.9748-7.3605z"/><path d="m13 7c0-.55228-.4477-1-1-1s-1 .44772-1 1v5c0 .3344.1671.6466.4453.8321l3 2c.4595.3063 1.0804.1821 1.3868-.2774.3063-.4595.1821-1.0804-.2774-1.3868l-2.5547-1.7031z"/></g></svg>