<svg fill="none" height="24" viewBox="0 0 24 24" width="24" xmlns="http://www.w3.org/2000/svg"><g clip-rule="evenodd" fill="#801ed7" fill-rule="evenodd"><path d="m18 19c-.5523 0-1-.4477-1-1s.4477-1 1-1h4c.4045 0 .7691.2436.9239.6173s.0692.8038-.2168 1.0898l-2.2929 2.2929h1.5858c.5523 0 1 .4477 1 1s-.4477 1-1 1h-4c-.4045 0-.7691-.2436-.9239-.6173s-.0692-.8038.2168-1.0898l2.2929-2.2929z"/><path d="m12 1c-6.07513 0-11 4.92487-11 11 0 6.0751 4.92487 11 11 11 .805 0 1.5897-.0865 2.3455-.2506.2277-.0495.3415-.0742.423-.1305.0819-.0566.1244-.1066.1671-.1965.0426-.0895.0512-.253.0685-.58.0355-.6718.2964-1.3246.7598-1.8424-.475-.5308-.7639-1.2316-.7639-2 0-1.6569 1.3431-3 3-3h4c.1629 0 .2443 0 .2867-.0073.1858-.0322.3018-.1244.3752-.2981.0167-.0396.0288-.0915.0529-.1953.1866-.8029.2852-1.6396.2852-2.4993 0-6.07513-4.9249-11-11-11zm0 4c.5523 0 1 .44772 1 1v5.382l3.4472 1.7236c.494.247.6942.8476.4472 1.3416s-.8476.6942-1.3416.4472l-4-2c-.3388-.1694-.5528-.5156-.5528-.8944v-6c0-.55228.4477-1 1-1z"/></g></svg>