<svg fill="none" height="24" viewBox="0 0 24 24" width="24" xmlns="http://www.w3.org/2000/svg"><g fill="#801ed7"><path d="m12 4c-4.41828 0-8 3.58172-8 8 0 4.4183 3.58172 8 8 8 3.7912 0 6.9664-2.6371 7.7914-6.1771l-.3844.3843c-.3906.3905-1.0238.3904-1.4143-.0002-.3904-.3906-.3903-1.0237.0002-1.4142l2.0006-2c.1876-.1875.442-.2928.7072-.2928s.5195.1054.7071.293l1.9994 2c.3904.3906.3903 1.0237-.0002 1.4142-.3906.3905-1.0238.3904-1.4143-.0002l-.1951-.1952c-.9311 4.5586-4.9638 7.9882-9.7976 7.9882-5.52285 0-10-4.4772-10-10 0-5.52285 4.47715-10 10-10 3.67 0 6.8771 1.97759 8.6155 4.92048.2809.47551.1231 1.08871-.3524 1.36961-.4755.28089-1.0887.12313-1.3696-.35239-1.3935-2.35901-3.9597-3.9377-6.8935-3.9377z"/><path d="m13 7c0-.55228-.4477-1-1-1s-1 .44772-1 1v5c0 .3344.1671.6466.4453.8321l3 2c.4595.3063 1.0804.1821 1.3868-.2774.3063-.4595.1821-1.0804-.2774-1.3868l-2.5547-1.7031z"/></g></svg>