<svg fill="none" height="24" viewBox="0 0 24 24" width="24" xmlns="http://www.w3.org/2000/svg"><g fill="#801ed7"><path clip-rule="evenodd" d="m1 12c0-6.07513 4.92487-11 11-11 6.0751 0 11 4.92487 11 11 0 .583-.0454 1.1555-.1327 1.714-.0728.4649-.1092.6974-.2014.8051-.0988.1155-.1663.1519-.3171.1709-.1407.0178-.4631-.1288-1.108-.4222-.3781-.172-.7983-.2678-1.2408-.2678-1.6569 0-3 1.3431-3 3-1.6569 0-3 1.3431-3 3 0 .4425.0958.8627.2678 1.2408.2934.6449.44.9673.4222 1.108-.019.1508-.0554.2183-.1709.3171-.1077.0922-.3402.1286-.8051.2014-.5585.0873-1.131.1327-1.714.1327-6.07513 0-11-4.9249-11-11zm12-6c0-.55228-.4477-1-1-1s-1 .44772-1 1v6c0 .3788.214.725.5528.8944l4 2c.494.247 1.0946.0468 1.3416-.4472s.0468-1.0946-.4472-1.3416l-3.4472-1.7236z" fill-rule="evenodd"/><path d="m21 17c0-.5523-.4477-1-1-1s-1 .4477-1 1v2h-2c-.5523 0-1 .4477-1 1s.4477 1 1 1h2v2c0 .5523.4477 1 1 1s1-.4477 1-1v-2h2c.5523 0 1-.4477 1-1s-.4477-1-1-1h-2z"/></g></svg>