<svg fill="none" height="24" viewBox="0 0 24 24" width="24" xmlns="http://www.w3.org/2000/svg"><g fill="#801ed7"><path d="m11.5 1.5c0-.552285-.4477-1-1-1-.55229 0-1 .447715-1 1v1.6c0 .55229.44771 1 1 1 .5523 0 1-.44771 1-1z"/><path d="m2 9c-.55228 0-1 .44771-1 1 0 .5523.44772 1 1 1h1.6c.55229 0 1-.4477 1-1 0-.55228-.44771-1-1-1z"/><path d="m3.61272 3.11272c.39052-.39053 1.02369-.39053 1.41421 0l1.13137 1.13137c.39053.39052.39053 1.02369 0 1.41421-.39052.39053-1.02369.39053-1.41421 0l-1.13137-1.13137c-.39053-.39052-.39053-1.02369 0-1.41421z"/><path d="m17.3883 4.52693c.3905-.39052.3905-1.02369 0-1.41421-.3905-.39053-1.0237-.39053-1.4142 0l-1.1314 1.13137c-.3905.39052-.3905 1.02369 0 1.41421.3905.39053 1.0237.39053 1.4142 0z"/><path d="m16.4 10c0-.55229.4477-1 1-1h1.6c.5523 0 1 .44772 1 1 0 .5523-.4477 1-1 1h-1.6c-.5523 0-1-.4477-1-1z"/><path d="m7.50012 10c0-1.65685 1.34315-3 2.99998-3 1.1282 0 2.1124.62233 2.6256 1.54719.268.48292.8767.65717 1.3596.3892.4829-.26798.6572-.87669.3892-1.35961-.8515-1.53454-2.4905-2.57678-4.3744-2.57678-2.7614 0-4.99998 2.23858-4.99998 5 0 .5523.44772 1 1 1 .55229 0 1-.4477 1-1z"/><path d="m12 10c-2.24632 0-4.20249 1.2341-5.23069 3.059-.25111-.0389-.50808-.059-.76931-.059-2.76142 0-5 2.2386-5 5s2.23858 5 5 5h12c2.7614 0 5-2.2386 5-5s-2.2386-5-5-5c-.2612 0-.5182.0201-.7693.059-1.0282-1.8249-2.9844-3.059-5.2307-3.059z"/></g></svg>