<svg fill="none" height="24" viewBox="0 0 24 24" width="24" xmlns="http://www.w3.org/2000/svg"><g fill="#801ed7"><path d="m10.5 3c-3.58985 0-6.5 2.91015-6.5 6.5 0 .44651.04487.8815.13004 1.3011.10987.5412-.23983 1.069-.78108 1.1789s-1.06908-.2398-1.17895-.7811c-.11159-.5497-.17001-1.118-.17001-1.6989 0-4.69442 3.80558-8.5 8.5-8.5 4.311 0 7.8709 3.20834 8.4252 7.36793.0729.54745-.3118 1.05037-.8592 1.12331-.5475.07294-1.0504-.31172-1.1233-.85917-.4236-3.17912-3.1475-5.63207-6.4427-5.63207z"/><path d="m12 9c-2.79792 0-5.21039 1.641-6.33119 4.0108-2.60702.1705-4.66881 2.3391-4.66881 4.9892 0 2.7614 2.23858 5 5 5h11.5c3.0376 0 5.5-2.4624 5.5-5.5 0-2.9541-2.329-5.3643-5.251-5.4945-1.2633-1.8149-3.3666-3.0055-5.749-3.0055z"/></g></svg>