<svg fill="none" height="24" viewBox="0 0 24 24" width="24" xmlns="http://www.w3.org/2000/svg"><path d="m5.24923 6.14303c.81397-2.96487 3.52717-5.14303 6.75077-5.14303s5.9368 2.17816 6.7508 5.14303c2.4353.56658 4.2492 2.74947 4.2492 5.35697 0 3.0376-2.4624 5.5-5.5 5.5h-.973l-1.3485 3.3712c-.2051.5128-.7871.7622-1.2999.5571-.5128-.2052-.7622-.7871-.5571-1.2999l1.0514-2.6284h-1.846l-2.1485 5.3712c-.2051.5128-.78703.7622-1.29982.5571-.51278-.2052-.7622-.7871-.55708-1.2999l1.8514-4.6284h-1.84593l-1.34847 3.3712c-.20512.5128-.78709.7622-1.29987.5571-.51278-.2052-.7622-.7871-.55708-1.2999l1.05192-2.6298c-2.97912-.0673-5.37347-2.5033-5.37347-5.4986 0-2.6075 1.8139-4.79039 4.24923-5.35697z" fill="#801ed7"/></svg>