<svg fill="none" height="24" viewBox="0 0 24 24" width="24" xmlns="http://www.w3.org/2000/svg"><path clip-rule="evenodd" d="m11.0723 7.06571c.4487-2.86997 2.9318-5.06571 5.9277-5.06571 3.3137 0 6 2.68629 6 6 0 1.71848-.7227 3.2673-1.8786 4.3604 1.1514 1.0081 1.8786 2.4889 1.8786 4.1396 0 3.0376-2.4624 5.5-5.5 5.5h-10.5c-3.31371 0-6-2.6863-6-6 0-3.1485 2.42516-5.7306 5.50941-5.9802.99485-1.56643 2.64312-2.6797 4.56289-2.95409zm8.2007 4.22629c-.4017-.1367-.8243-.2282-1.2618-.2686-.8388-2.03362-2.6792-3.54919-4.908-3.93018.4108-1.77233 1.9995-3.09322 3.8968-3.09322 2.2091 0 4 1.79086 4 4 0 1.3636-.682 2.5691-1.727 3.292z" fill="#801ed7" fill-rule="evenodd"/></svg>