<svg fill="none" height="24" viewBox="0 0 24 24" width="24" xmlns="http://www.w3.org/2000/svg"><g fill="#801ed7"><path clip-rule="evenodd" d="m16.1336 2.40571c.0851-.34068-.0148-.70099-.2631-.94926s-.6087-.34813-.9493-.26307c-2.8264.70563-4.9212 3.26027-4.9212 6.30667 0 .53245.0642 1.05061.1854 1.54683-2.51929.29192-4.62934 1.92122-5.60463 4.15772-2.07025.6119-3.58077 2.5264-3.58077 4.7954 0 2.7614 2.23858 5 5 5h11.5c3.0376 0 5.5-2.4624 5.5-5.5 0-2.0122-1.0806-3.772-2.6931-4.7308 1.2219-.8846 2.1238-2.1838 2.5-3.69102.085-.34069-.0149-.701-.2632-.94927s-.6086-.34812-.9493-.26307c-.3493.08721-.7157.13376-1.0944.13376-2.4853 0-4.5-2.01472-4.5-4.5 0-.3785.0465-.74473.1336-1.09389zm.6072 9.58799c1.4619-.0771 2.74-.8523 3.5053-1.99897-3.3877-.13013-6.1107-2.85289-6.2412-6.24048-1.2089.80709-2.0049 2.18418-2.0049 3.7458 0 .57258.1065 1.11858.3003 1.62053 1.8325.34432 3.4124 1.40272 4.4405 2.87312z" fill-rule="evenodd"/><path d="m6 3c0-.55228-.44772-1-1-1s-1 .44772-1 1v1h-1c-.55228 0-1 .44772-1 1s.44772 1 1 1h1v1c0 .55228.44772 1 1 1s1-.44772 1-1v-1h1c.55228 0 1-.44772 1-1s-.44772-1-1-1h-1z"/></g></svg>