<svg fill="none" height="24" viewBox="0 0 24 24" width="24" xmlns="http://www.w3.org/2000/svg"><path clip-rule="evenodd" d="m19.4914 8.18681c2.5922.66306 4.5086 3.01429 4.5086 5.81319 0 3.3137-2.6863 6-6 6h-11.5c-3.58985 0-6.5-2.9101-6.5-6.5 0-3.0623 2.11764-5.62996 4.96841-6.31852 1.35557-2.49093 3.99615-4.18148 7.03159-4.18148 3.4283 0 6.3528 2.15641 7.4914 5.18681zm-5.8545.40842c.3287-.44379.2355-1.07005-.2083-1.39879-.4438-.32873-1.0701-.23546-1.3988.20833l-3.33336 4.50003c-.22481.3035-.25945.7078-.08953 1.0451.16991.3373.51539.5501.89309.5501h3.0148l-2.1517 2.9048c-.3287.4438-.2355 1.07.2083 1.3988.4438.3287 1.0701.2354 1.3988-.2084l3.3334-4.5c.2248-.3035.2594-.7078.0895-1.0451s-.5154-.5501-.8931-.5501h-3.0148z" fill="#801ed7" fill-rule="evenodd"/></svg>