<svg fill="none" height="24" viewBox="0 0 24 24" width="24" xmlns="http://www.w3.org/2000/svg"><g fill="#801ed7"><path clip-rule="evenodd" d="m3.70711 2.29289c-.39053-.39052-1.02369-.39052-1.41422 0-.39052.39053-.39052 1.02369 0 1.41422l3.69899 3.69898c-.32134.53625-.57315 1.1194-.74265 1.73681-2.43533.56658-4.24923 2.7495-4.24923 5.357 0 3.0375 2.46243 5.5 5.5 5.5h11c.3372 0 .6681-.0305.9899-.089l.0057-.0011 1.7973 1.7973c.3905.3905 1.0237.3905 1.4142 0s.3905-1.0237 0-1.4142z" fill-rule="evenodd"/><path d="m21.9607 17.7181c.6539-.9048 1.0393-2.0164 1.0393-3.2181 0-2.6075-1.8139-4.79039-4.2492-5.35697-.814-2.96487-3.5272-5.14303-6.7508-5.14303-1.0961 0-2.13314.25182-3.0566.70076z"/></g></svg>