<svg fill="none" height="24" viewBox="0 0 24 24" width="24" xmlns="http://www.w3.org/2000/svg"><g fill="#801ed7"><g clip-rule="evenodd" fill-rule="evenodd"><path d="m8 18c.55228 0 1 .4477 1 1v2c0 .5523-.44772 1-1 1s-1-.4477-1-1v-2c0-.5523.44772-1 1-1z"/><path d="m16 18c.5523 0 1 .4477 1 1v2c0 .5523-.4477 1-1 1s-1-.4477-1-1v-2c0-.5523.4477-1 1-1z"/><path d="m12 19c.5523 0 1 .4477 1 1v2c0 .5523-.4477 1-1 1s-1-.4477-1-1v-2c0-.5523.4477-1 1-1z"/></g><path d="m12 1c-3.2236 0-5.9368 2.17816-6.75077 5.14303-2.43533.56658-4.24923 2.74947-4.24923 5.35697 0 3.0376 2.46243 5.5 5.5 5.5h11c3.0376 0 5.5-2.4624 5.5-5.5 0-2.6075-1.8139-4.79039-4.2492-5.35697-.814-2.96487-3.5272-5.14303-6.7508-5.14303z"/></g></svg>