<svg fill="none" height="24" viewBox="0 0 24 24" width="24" xmlns="http://www.w3.org/2000/svg"><g fill="#801ed7"><path d="m12 1c-2.31095 0-4.33874 1.20617-5.49059 3.01977-3.08425.24959-5.50941 2.8317-5.50941 5.98023 0 3.3137 2.68629 6 6 6h10.5c3.0376 0 5.5-2.4624 5.5-5.5 0-2.86519-2.1909-5.21866-4.9888-5.47655-.9737-2.36082-3.2972-4.02345-6.0112-4.02345z"/><path d="m8.37141 17.5713c.51279.2051.7622.7871.55709 1.2999l-1 2.5c-.20512.5128-.78709.7622-1.29987.5571-.51278-.2052-.7622-.7871-.55708-1.2999l1-2.5c.20511-.5128.78708-.7622 1.29986-.5571z"/><path d="m16.3714 17.5713c.5128.2051.7622.7871.5571 1.2999l-1 2.5c-.2051.5128-.7871.7622-1.2999.5571-.5128-.2052-.7622-.7871-.5571-1.2999l1-2.5c.2052-.5128.7871-.7622 1.2999-.5571z"/><path d="m12.9285 18.8712c.2051-.5128-.0443-1.0948-.5571-1.2999s-1.0947.0443-1.2999.5571l-1 2.5c-.20507.5128.0443 1.0947.5571 1.2999.5128.2051 1.0948-.0443 1.2999-.5571z"/></g></svg>