<svg fill="none" height="24" viewBox="0 0 24 24" width="24" xmlns="http://www.w3.org/2000/svg"><g fill="#801ed7"><path d="m5.24923 6.14303c.81397-2.96487 3.52717-5.14303 6.75077-5.14303s5.9368 2.17816 6.7508 5.14303c2.4353.56658 4.2492 2.74947 4.2492 5.35697 0 3.0376-2.4624 5.5-5.5 5.5h-11c-3.03757 0-5.5-2.4624-5.5-5.5 0-2.6075 1.8139-4.79039 4.24923-5.35697z"/><path d="m8 18.5c-.55228 0-1 .4477-1 1s.44772 1 1 1h.01c.55228 0 1-.4477 1-1s-.44772-1-1-1z"/><path d="m11 22c0-.5523.4477-1 1-1h.01c.5523 0 1 .4477 1 1s-.4477 1-1 1h-.01c-.5523 0-1-.4477-1-1z"/><path d="m15 19.5c0-.5523.4477-1 1-1h.01c.5523 0 1 .4477 1 1s-.4477 1-1 1h-.01c-.5523 0-1-.4477-1-1z"/></g></svg>