<svg fill="none" height="24" viewBox="0 0 24 24" width="24" xmlns="http://www.w3.org/2000/svg"><g fill="#801ed7"><path d="m17.2413 2h-10.4826c-.80495-.00001-1.46933-.00002-2.01052.0442-.5621.04592-1.0788.14448-1.56414.39178-.75265.38349-1.36457.99541-1.74806 1.74806-.24729.48533-.34586 1.00204-.39178 1.56414-.01773.21691-.02889.4343-.0358.65193-.017223.54209-.025835.81314.08057 1.03396.09166.19025.25118.35491.43842.45257.21733.11336.50243.11336 1.07261.11336h18.8c.5702 0 .8553 0 1.0726-.11336.1873-.09766.3468-.26232.4384-.45257.1064-.22082.0978-.49187.0806-1.03395-.0069-.21763-.0181-.43503-.0358-.65194-.0459-.5621-.1445-1.0788-.3918-1.56414-.3835-.75265-.9954-1.36457-1.748-1.74806-.4854-.24729-1.0021-.34586-1.5642-.39178-.5411-.04422-1.2056-.04421-2.0105-.0442z"/><path clip-rule="evenodd" d="m23 11.6c0-.5601 0-.8401-.109-1.054-.0959-.1882-.2488-.3411-.437-.437-.2139-.109-.4939-.109-1.054-.109h-18.8c-.56005 0-.84008 0-1.05399.109-.18816.0959-.34114.2488-.43701.437-.109.2139-.109.4939-.109 1.054v4.6413c-.00001.805-.00002 1.4693.0442 2.0105.04592.5621.14449 1.0788.39178 1.5642.38349.7526.99541 1.3645 1.74806 1.748.48534.2473 1.00204.3459 1.56414.3918.54121.0442 1.20559.0442 2.01059.0442h10.48243c.805 0 1.4694 0 2.0106-.0442.5621-.0459 1.0788-.1445 1.5642-.3918.7526-.3835 1.3645-.9954 1.748-1.748.2473-.4854.3459-1.0021.3918-1.5642.0442-.5412.0442-1.2055.0442-2.0105zm-9.7071.6929c.3905-.3905 1.0237-.3905 1.4142 0l2.5 2.5c.3905.3905.3905 1.0237 0 1.4142l-2.5 2.5c-.3905.3905-1.0237.3905-1.4142 0s-.3905-1.0237 0-1.4142l1.7929-1.7929-1.7929-1.7929c-.3905-.3905-.3905-1.0237 0-1.4142zm-2.5858 1.4142c.3905-.3905.3905-1.0237 0-1.4142s-1.02368-.3905-1.41421 0l-2.5 2.5c-.39052.3905-.39052 1.0237 0 1.4142l2.5 2.5c.39053.3905 1.02371.3905 1.41421 0s.3905-1.0237 0-1.4142l-1.79289-1.7929z" fill-rule="evenodd"/></g></svg>