<svg fill="none" height="24" viewBox="0 0 24 24" width="24" xmlns="http://www.w3.org/2000/svg"><g clip-rule="evenodd" fill="#801ed7" fill-rule="evenodd"><path d="m15.2929 5.29289c.3905-.39052 1.0237-.39052 1.4142 0l6 6.00001c.3905.3905.3905 1.0237 0 1.4142l-6 6c-.3905.3905-1.0237.3905-1.4142 0s-.3905-1.0237 0-1.4142l5.2929-5.2929-5.2929-5.29289c-.3905-.39053-.3905-1.02369 0-1.41422z"/><path d="m8.70711 5.29289c.39052.39053.39052 1.02369 0 1.41422l-5.2929 5.29289 5.2929 5.2929c.39052.3905.39052 1.0237 0 1.4142-.39053.3905-1.02369.3905-1.41422 0l-6-6c-.390521-.3905-.390521-1.0237 0-1.4142l6-6.00001c.39053-.39052 1.02369-.39052 1.41422 0z"/></g></svg>