<svg fill="none" height="24" viewBox="0 0 24 24" width="24" xmlns="http://www.w3.org/2000/svg"><path clip-rule="evenodd" d="m12 1c-6.07513 0-11 4.92487-11 11 0 6.0751 4.92487 11 11 11 6.0751 0 11-4.9249 11-11 0-6.07513-4.9249-11-11-11zm1.9806 6.19631c.1083-.54156-.2429-1.06839-.7845-1.1767-.5415-.10831-1.0684.24291-1.1767.78447l-2 10.00002c-.10829.5415.2429 1.0684.7845 1.1767.5415.1083 1.0684-.2429 1.1767-.7845zm-4.77349 1.09678c.39052.39052.39052 1.02369 0 1.41421l-2.2929 2.2929 2.2929 2.2929c.39052.3905.39052 1.0237 0 1.4142-.39053.3905-1.02369.3905-1.41422 0l-3-3c-.39052-.3905-.39052-1.0237 0-1.4142l3-3.00001c.39053-.39053 1.02369-.39053 1.41422 0zm5.58579 0c.3905-.39053 1.0237-.39053 1.4142 0l3 3.00001c.3905.3905.3905 1.0237 0 1.4142l-3 3c-.3905.3905-1.0237.3905-1.4142 0s-.3905-1.0237 0-1.4142l2.2929-2.2929-2.2929-2.2929c-.3905-.39052-.3905-1.02369 0-1.41421z" fill="#801ed7" fill-rule="evenodd"/></svg>