<svg fill="none" height="24" viewBox="0 0 24 24" width="24" xmlns="http://www.w3.org/2000/svg"><path clip-rule="evenodd" d="m12.457 1.2453c-.3006-.07056-.6134-.07056-.914 0-.3481.08171-.6517.28077-.8934.43922l-8.5225 5.5397c-.20577.13276-.46463.29977-.66179.53571-.1706.20416-.29876.44031-.37696.69461-.09037.2939-.089323.60196-.08849.84683v5.39663c-.000833.2449-.00188.553.08849.8469.0782.2543.20636.4904.37696.6946.19716.2359.45602.4029.66179.5357l8.5225 5.5397c.2417.1584.5453.3575.8934.4392.3006.0705.6134.0705.914 0 .3481-.0817.6517-.2808.8934-.4392l8.5225-5.5397c.2058-.1328.4647-.2998.6618-.5357.1706-.2042.2988-.4403.377-.6946.0903-.2939.0893-.602.0885-.8469v-5.39662c.0008-.24488.0018-.55294-.0885-.84684-.0782-.2543-.2064-.49045-.377-.69461-.1971-.23594-.456-.40296-.6618-.53571l-8.5225-5.5397c-.2417-.15845-.5453-.35751-.8934-.43922zm-9.45699 9.0972.00422 4.6122 7.99577 5.2023v-4.6244zm9.99999 9.8145 7.9961-5.2074.0039-4.6071-8 5.19z" fill="#801ed7" fill-rule="evenodd"/></svg>