<svg fill="none" height="24" viewBox="0 0 24 24" width="24" xmlns="http://www.w3.org/2000/svg"><path clip-rule="evenodd" d="m12 1c-6.07513 0-11 4.92487-11 11 0 6.0751 4.92487 11 11 11 6.0751 0 11-4.9249 11-11 0-6.07513-4.9249-11-11-11zm-1.7929 8.70711c.3905-.39053.3905-1.02369 0-1.41422-.39052-.39052-1.02368-.39052-1.41421 0l-3 3.00001c-.39052.3905-.39052 1.0237 0 1.4142l3 3c.39053.3905 1.02369.3905 1.41421 0 .3905-.3905.3905-1.0237 0-1.4142l-2.29289-2.2929zm5-1.41422c-.3905-.39052-1.0237-.39052-1.4142 0-.3905.39053-.3905 1.02369 0 1.41422l2.2929 2.29289-2.2929 2.2929c-.3905.3905-.3905 1.0237 0 1.4142s1.0237.3905 1.4142 0l3-3c.3905-.3905.3905-1.0237 0-1.4142z" fill="#801ed7" fill-rule="evenodd"/></svg>