<svg fill="none" height="24" viewBox="0 0 24 24" width="24" xmlns="http://www.w3.org/2000/svg"><g clip-rule="evenodd" fill="#801ed7" fill-rule="evenodd"><path d="m16.2929 6.29311c.3905-.39053 1.0237-.39053 1.4142 0l5 4.99999c.3905.3905.3905 1.0237 0 1.4142l-5 5c-.3905.3905-1.0237.3905-1.4142 0s-.3905-1.0237 0-1.4142l4.2929-4.2929-4.2929-4.29288c-.3905-.39052-.3905-1.02369 0-1.41421z"/><path d="m7.70711 6.29311c.39052.39052.39052 1.02369 0 1.41421l-4.2929 4.29288 4.2929 4.2929c.39052.3905.39052 1.0237 0 1.4142-.39053.3905-1.02369.3905-1.41422 0l-5-5c-.390521-.3905-.390521-1.0237 0-1.4142l5-4.99999c.39053-.39053 1.02369-.39053 1.41422 0z"/><path d="m14.2169 2.02403c.5392.1198.8791.65398.7593 1.19311l-4 17.99996c-.1198.5392-.654.8791-1.19313.7593s-.87906-.654-.75926-1.1931l3.99999-18.00002c.1198-.53913.654-.87906 1.1931-.75925z"/></g></svg>