<svg fill="none" height="24" viewBox="0 0 24 24" width="24" xmlns="http://www.w3.org/2000/svg"><g fill="#801ed7"><path d="m9 5c-.32233 0-.6411.01525-.95562.04507 1.37671-2.41604 3.97592-4.04507 6.95562-4.04507 4.4183 0 8 3.58172 8 8 0 2.9797-1.629 5.5789-4.0451 6.9556.0298-.3145.0451-.6333.0451-.9556 0-5.52285-4.4772-10-10-10z"/><path clip-rule="evenodd" d="m1 15c0-3.8003 2.64986-6.9817 6.20269-7.7973.57773-.13263 1.17934-.2027 1.79731-.2027 4.4183 0 8 3.5817 8 8 0 .618-.0701 1.2196-.2027 1.7973-.8156 3.5528-3.997 6.2027-7.7973 6.2027-4.41828 0-8-3.5817-8-8zm8.47186-3.8817c.32516.174.52814.5129.52814.8817v4.5h.5c.5523 0 1 .4477 1 1s-.4477 1-1 1h-3c-.55228 0-1-.4477-1-1s.44772-1 1-1h.5v-2.6339c-.45297.2621-1.0377.1301-1.33205-.3114-.30635-.4595-.18218-1.0804.27735-1.3867l1.5-1c.30686-.2046.7014-.2237 1.02656-.0497z" fill-rule="evenodd"/></g></svg>