<svg fill="none" height="24" viewBox="0 0 24 24" width="24" xmlns="http://www.w3.org/2000/svg"><g fill="#801ed7"><path clip-rule="evenodd" d="m7.5 2c-1.60403 0-3.1.23478-4.23083.64599-.03508.01276-.07002.02576-.10479.03901-.52161.19875-1.0063.45343-1.38409.77822-.39972.34366-.78029.85953-.78029 1.53678v1.5c0 .67725.38057 1.19312.78029 1.53678.40297.34644.92758.61312 1.48888.81723 1.13083.41121 2.6268.64599 4.23083.64599s3.1-.23478 4.2308-.64599c.5613-.20411 1.0859-.47079 1.4889-.81723.3997-.34366.7803-.85953.7803-1.53678v-1.5c0-.67725-.3806-1.19312-.7803-1.53678-.403-.34644-.9276-.61312-1.4889-.81723-1.1308-.41121-2.62677-.64599-4.2308-.64599z" fill-rule="evenodd"/><path clip-rule="evenodd" d="m14 8.20236c-.6356.10836-1.2204.25802-1.7308.44363-.5613.20411-1.0859.47079-1.4889.81723-.3997.34366-.7803.85958-.7803 1.53678 0 .1014.0085.1993.0244.2935-.77904.1343-1.63511.2065-2.5244.2065-1.60403 0-3.1-.2348-4.23083-.646-.58082-.2112-1.11571-.4829-1.53083-.854-.15573-.13921-.2813-.28238-.38226-.41823-.03757-.05054-.09613-.08177-.1591-.08177-.10786 0-.19435.08908-.19238.19693.01097.60047-.0046 1.20287-.0046 1.80307 0 .6772.38057 1.1931.78029 1.5368.40297.3464.92758.6131 1.48888.8172 1.13083.4112 2.6268.646 4.23083.646.8548 0 1.67891-.0667 2.43343-.1912.02352-.0039.03528-.0058.04421-.0117.00784-.0052.01412-.0126.01797-.0212.00439-.0098.00439-.0218.00439-.0458v-.3785c0-.0561.0455-.1016.1016-.1016.0396 0 .0754.0231.0933.0585.1482.2944.3639.5378.5854.7283.403.3464.9276.6131 1.4889.8172 1.1308.4112 2.6268.646 4.2308.646s3.1-.2348 4.2308-.646c.5613-.2041 1.0859-.4708 1.4889-.8172.3997-.3437.7803-.8596.7803-1.5368v-2c0-.6772-.3806-1.19312-.7803-1.53678-.403-.34644-.9276-.61312-1.4889-.81723-1.1308-.41121-2.6268-.64599-4.2308-.64599-.88 0-1.7275.07067-2.5.20236z" fill-rule="evenodd"/><path d="m22.8026 16c-.067 0-.1289.0343-.1679.0887-.1238.1723-.2681.3218-.415.4481-.403.3464-.9276.6131-1.4889.8172-1.1308.4112-2.6268.646-4.2308.646s-3.1-.2348-4.2308-.646c-.5613-.2041-1.0859-.4708-1.4889-.8172-.1469-.1263-.2912-.2758-.415-.4481-.039-.0544-.1009-.0887-.1679-.0887-.109 0-.1974.0884-.1974.1974v.1002c-.77251.1317-1.61999.2024-2.5.2024-1.60403 0-3.1-.2348-4.23083-.646-.5613-.2041-1.08591-.4708-1.48888-.8172-.14688-.1263-.29118-.2758-.41496-.4481-.03908-.0544-.10097-.0887-.16793-.0887-.10902 0-.1974.0884-.1974.1974v2.3026c0 .6772.38057 1.1931.78029 1.5368.40297.3464.92758.6131 1.48888.8172 1.13083.4112 2.6268.646 4.23083.646.94931 0 1.85799-.0822 2.6744-.2334.1484.3133.3739.5708.6059.7702.403.3464.9276.6131 1.4889.8172 1.1308.4112 2.6268.646 4.2308.646s3.1-.2348 4.2308-.646c.5613-.2041 1.0859-.4708 1.4889-.8172.3997-.3437.7803-.8596.7803-1.5368v-2.8026c0-.109-.0884-.1974-.1974-.1974z"/></g></svg>