<svg fill="none" height="24" viewBox="0 0 24 24" width="24" xmlns="http://www.w3.org/2000/svg"><g fill="#801ed7"><path d="m5.29289 1.29289c.39053-.390521 1.02369-.390521 1.41422 0l2 2c.39052.39053.39052 1.02369 0 1.41422l-2 2c-.39053.39052-1.02369.39052-1.41422 0-.39052-.39053-.39052-1.02369 0-1.41422l.25977-.25976c-1.44468.21598-2.55266 1.46203-2.55266 2.96687 0 .55228-.44772 1-1 1s-1-.44772-1-1c0-2.62727 2.02635-4.78126 4.60144-4.98435l-.30855-.30854c-.39052-.39053-.39052-1.02369 0-1.41422z"/><path d="m18.7071 17.2929c.3905.3905.3905 1.0237 0 1.4142l-.2598.2598c1.4447-.216 2.5527-1.4621 2.5527-2.9669 0-.5523.4477-1 1-1s1 .4477 1 1c0 2.6273-2.0264 4.7813-4.6014 4.9843l.3085.3086c.3905.3905.3905 1.0237 0 1.4142s-1.0237.3905-1.4142 0l-2-2c-.1875-.1875-.2929-.4419-.2929-.7071s.1054-.5196.2929-.7071l2-2c.3905-.3905 1.0237-.3905 1.4142 0z"/><path d="m9.0623 7.06204c.45832-3.42249 3.3898-6.06204 6.9377-6.06204 3.866 0 7 3.13401 7 7 0 3.5479-2.6395 6.4794-6.062 6.9377-.4847-4.1215-3.7542-7.39103-7.8757-7.87566z"/><path d="m8 9c-3.86599 0-7 3.134-7 7s3.13401 7 7 7c3.866 0 7-3.134 7-7s-3.134-7-7-7z"/></g></svg>