<svg fill="none" height="24" viewBox="0 0 24 24" width="24" xmlns="http://www.w3.org/2000/svg"><g fill="#801ed7"><path d="m10.7979 21.1334c.5102-.1245 1.0009-.2848 1.4377-.4859 1.0967 1.4303 2.8228 2.3525 4.7644 2.3525 3.3137 0 6-2.6863 6-6s-2.6863-6-6-6c-1.0929 0-2.1175.2922-3 .8027v-1.1053c0-.109-.0884-.1974-.1974-.1974-.067 0-.1289.0343-.1679.0887-.1238.1723-.2681.3218-.415.4481-.403.3464-.9276.6131-1.4889.8172-1.1308.4112-2.62677.646-4.2308.646s-3.1-.2348-4.23083-.646c-.5613-.2041-1.08591-.4708-1.48888-.8172-.14688-.1263-.29118-.2758-.41496-.4481-.03908-.0544-.10097-.0887-.16793-.0887-.10902 0-.1974.0884-.1974.1974v2.3026c0 .6772.38057 1.1931.78029 1.5368.40297.3464.92758.6131 1.48888.8172 1.13083.4112 2.6268.646 4.23083.646s3.1-.2348 4.2308-.646c.5613-.2041 1.0859-.4708 1.4889-.8172.1469-.1263.2912-.2758.415-.4481.039-.0544.1009-.0887.1679-.0887.109 0 .1974.0884.1974.1974v.8026c0 .6772-.3806 1.1931-.7803 1.5368-.403.3464-.9276.6131-1.4889.8172-1.1308.4112-2.62677.646-4.2308.646s-3.1-.2348-4.23083-.646c-.5613-.2041-1.08591-.4708-1.48888-.8172-.15134-.1301-.30203-.2952-.41987-.4529-.03868-.0517-.09874-.0839-.16336-.0839-.10945 0-.197577.0898-.19614.1992.01007.7667-.00092 1.5342-.00092 2.3008 0 .6772.38057 1.1931.78029 1.5368.40297.3464.92758.6131 1.48888.8172 1.13083.4112 2.6268.646 4.23083.646 1.20215 0 2.3356-.1318 3.2979-.3666z"/><path clip-rule="evenodd" d="m1 7.5v-2.5c0-.67725.38057-1.19312.78029-1.53678.37779-.32479.86248-.57947 1.38409-.77822.03477-.01325.06971-.02625.10479-.03901 1.13083-.41121 2.6268-.64599 4.23083-.64599s3.1.23478 4.2308.64599c.5613.20411 1.0859.47079 1.4889.81723.3997.34366.7803.85953.7803 1.53678v2.5c0 .67725-.3806 1.19312-.7803 1.53678-.403.34644-.9276.61312-1.4889.81723-1.1308.41119-2.62677.64599-4.2308.64599s-3.1-.2348-4.23083-.64599c-.5613-.20411-1.08591-.47079-1.48888-.81723-.39972-.34366-.78029-.85953-.78029-1.53678z" fill-rule="evenodd"/></g></svg>