<svg fill="none" height="24" viewBox="0 0 24 24" width="24" xmlns="http://www.w3.org/2000/svg"><g fill="#801ed7"><path clip-rule="evenodd" d="m7.5 2c-1.60403 0-3.1.23478-4.23083.64599-.03508.01276-.07002.02576-.10479.03901-.52161.19875-1.0063.45343-1.38409.77822-.39972.34366-.78029.85953-.78029 1.53678v1.5c0 .67725.38057 1.19312.78029 1.53678.40297.34644.92758.61312 1.48888.81723 1.13083.41121 2.6268.64599 4.23083.64599.23211 0 .46196-.00492.68877-.01457.13993-.00596.2099-.00894.27261-.02861.05999-.01882.104-.04164.15395-.07981.05223-.03991.10551-.10902.21207-.24723.21324-.27656.44116-.5044.64905-.68313.65225-.56078 1.42065-.92984 2.10925-1.18024.5324-.19363 1.1182-.35073 1.7338-.47112.2529-.04946.3793-.07419.4655-.13394.0785-.05447.1345-.12249.1729-.21002.0421-.096.0421-.2183.0421-.46292 0-.33768 0-.72671 0-.98841 0-.67725-.3806-1.19312-.7803-1.53678-.403-.34644-.9276-.61312-1.4889-.81723-1.1308-.41121-2.62677-.64599-4.2308-.64599z" fill-rule="evenodd"/><path d="m7.99936 11.9924c.00021-.2735-.22585-.4924-.49936-.4924-1.60403 0-3.1-.2348-4.23083-.646-.5613-.2041-1.08591-.4708-1.48888-.8172-.14688-.12631-.29118-.27585-.41496-.4481-.03908-.05438-.10097-.0887-.16793-.0887-.10902 0-.1974.08838-.1974.1974v1.8026c0 .6772.38057 1.1931.78029 1.5368.40297.3464.92758.6131 1.48888.8172 1.13083.4112 2.6268.646 4.23083.646.00402 0 .00604 0 .0122-.0002.26075-.0064.48122-.227.48753-.4877.00015-.0062.00015-.0107.00014-.0198-.00031-.6666-.00103-1.3333-.00051-1.9999z"/><path d="m8 16.9924c0-.2736-.22634-.4924-.5-.4924-1.60403 0-3.1-.2348-4.23083-.646-.5613-.2041-1.08591-.4708-1.48888-.8172-.14688-.1263-.29118-.2758-.41496-.4481-.03908-.0544-.10097-.0887-.16793-.0887-.10902 0-.1974.0884-.1974.1974v2.3026c0 .6772.38057 1.1931.78029 1.5368.40297.3464.92758.6131 1.48888.8172 1.13083.4112 2.6268.646 4.23083.646h.02947c.32005-.001.52589-.2276.49628-.5463 0 0-.00279-.029-.00822-.0855-.01148-.1194-.01753-.2421-.01753-.3682z"/><path clip-rule="evenodd" d="m14.2071 8.16879c.7159-.11009 1.4909-.16879 2.2929-.16879 1.604 0 3.1.23478 4.2308.64599.0351.01276.07.02576.1048.03901.5216.19875 1.0063.45343 1.3841.77822.3997.34366.7803.85958.7803 1.53678v2c0 .6772-.3806 1.1931-.7803 1.5368-.403.3464-.9276.6131-1.4889.8172-1.1308.4112-2.6268.646-4.2308.646s-3.1-.2348-4.2308-.646c-.5613-.2041-1.0859-.4708-1.4889-.8172-.3997-.3437-.7803-.8596-.7803-1.5368 0-.6696 0-1.3408 0-2 0-.6772.3806-1.19312.7803-1.53678.403-.34644.9276-.61312 1.4889-.81723.0706-.0257.1427-.05071.2162-.07502.4571-.15124.967-.27526 1.5146-.36861.0685-.01167.1375-.02286.2071-.03357z" fill-rule="evenodd"/><path d="m10.1974 16c-.109 0-.1974.0884-.1974.1974v2.3026c0 .6772.3806 1.1931.7803 1.5368.403.3464.9276.6131 1.4889.8172 1.1308.4112 2.6268.646 4.2308.646s3.1-.2348 4.2308-.646c.5613-.2041 1.0859-.4708 1.4889-.8172.3997-.3437.7803-.8596.7803-1.5368v-2.3026c0-.109-.0884-.1974-.1974-.1974-.067 0-.1289.0343-.1679.0887-.1238.1723-.2681.3218-.415.4481-.403.3464-.9276.6131-1.4889.8172-1.1308.4112-2.6268.646-4.2308.646s-3.1-.2348-4.2308-.646c-.5613-.2041-1.0859-.4708-1.4889-.8172-.1469-.1263-.2912-.2758-.415-.4481-.039-.0544-.1009-.0887-.1679-.0887z"/></g></svg>