<svg fill="none" height="24" viewBox="0 0 24 24" width="24" xmlns="http://www.w3.org/2000/svg"><g fill="#801ed7"><path d="m7.20269 7.2027c-3.55283.8156-6.20269 3.997-6.20269 7.7973 0 4.4183 3.58172 8 8 8 3.8003 0 6.9817-2.6499 7.7973-6.2027.1326-.5777.2027-1.1793.2027-1.7973 0-4.4183-3.5817-8-8-8-.61797 0-1.21958.07007-1.79731.2027z"/><path d="m8.04438 5.04507c.31452-.02982.63329-.04507.95562-.04507 5.5228 0 10 4.47715 10 10 0 .3223-.0153.6411-.0451.9556 2.4161-1.3767 4.0451-3.9759 4.0451-6.9556 0-4.41828-3.5817-8-8-8-2.9797 0-5.57891 1.62903-6.95562 4.04507z"/></g></svg>