<svg fill="none" height="24" viewBox="0 0 24 24" width="24" xmlns="http://www.w3.org/2000/svg"><g fill="#801ed7"><path clip-rule="evenodd" d="m3.96527 3.08401c-.52778.46793-.96527 1.1131-.96527 1.91599v2c0 .80289.43749 1.44806.96527 1.91599.52895.46897 1.23729.84561 2.02675 1.14161 1.58631.5949 3.71067.9424 6.00798.9424 2.2973 0 4.4217-.3475 6.008-.9424.7894-.296 1.4978-.67264 2.0267-1.14161.5278-.46793.9653-1.1131.9653-1.91599v-2c0-.80289-.4375-1.44806-.9653-1.91599-.5289-.46897-1.2373-.84561-2.0267-1.14166-1.5863-.59486-3.7107-.94235-6.008-.94235-2.29731 0-4.42167.34749-6.00798.94235-.78946.29605-1.4978.67269-2.02675 1.14166z" fill-rule="evenodd"/><path d="m20.7528 10.25c-.0844 0-.1624.0436-.2111.1126-.5903.8365-1.6047 1.3467-2.5337 1.695-1.5863.5949-3.7107.9424-6.008.9424-2.29731 0-4.42167-.3475-6.00798-.9424-.92899-.3483-1.94344-.8585-2.53371-1.695-.04868-.069-.12667-.1126-.21111-.1126-.13653 0-.2472.1107-.2472.2472v2.5028c0 .8029.43749 1.4481.96527 1.916.52895.469 1.23729.8456 2.02675 1.1416 1.58631.5949 3.71067.9424 6.00798.9424 2.2973 0 4.4217-.3475 6.008-.9424.7894-.296 1.4978-.6726 2.0267-1.1416.5278-.4679.9653-1.1131.9653-1.916v-2.5028c0-.1365-.1107-.2472-.2472-.2472z"/><path d="m20.7528 16.25c-.0844 0-.1624.0436-.2111.1126-.5903.8365-1.6047 1.3467-2.5337 1.695-1.5863.5949-3.7107.9424-6.008.9424-2.29731 0-4.42167-.3475-6.00798-.9424-.92899-.3483-1.94344-.8585-2.53371-1.695-.04868-.069-.12667-.1126-.21111-.1126-.13653 0-.2472.1107-.2472.2472v2.5028c0 .8029.43749 1.4481.96527 1.916.52895.469 1.23729.8456 2.02675 1.1416 1.58631.5949 3.71067.9424 6.00798.9424 2.2973 0 4.4217-.3475 6.008-.9424.7894-.296 1.4978-.6726 2.0267-1.1416.5278-.4679.9653-1.1131.9653-1.916v-2.5028c0-.1365-.1107-.2472-.2472-.2472z"/></g></svg>