<svg fill="none" height="24" viewBox="0 0 24 24" width="24" xmlns="http://www.w3.org/2000/svg"><g fill="#801ed7"><path d="m16.5 2c-2.4853 0-4.5 2.01472-4.5 4.5s2.0147 4.5 4.5 4.5 4.5-2.01472 4.5-4.5-2.0147-4.5-4.5-4.5z"/><path d="m12.0318 1.77926c-1.2513 1.18473-2.0318 2.86158-2.0318 4.72074 0 1.19709.3236 2.31861.8881 3.28183-.4372.14163-.90371.21817-1.3881.21817-2.48528 0-4.5-2.01472-4.5-4.5s2.01472-4.5 4.5-4.5c.9388 0 1.8105.2875 2.5318.77926z"/><path d="m17.7089 15.8933c0 .7913-.5234 1.4605-1.2449 1.6842l.4639-.0215c.507 0 1-.1594 1.4051-.4556l2.8289-2.0638c.706-.5149 1.6942-.4465 2.3183.1606.6932.6743.6932 1.7666 0 2.4397l-2.4272 2.3612c-.6534.6355-1.4871 1.0695-2.3933 1.246l-3.4307.6675c-.6803.1321-1.3817.1162-2.0549-.0479l-3.1029-.754c-.37118-.0911-.75172-.1367-1.1346-.1367-.4065 0-.60975 0-.77282-.0582-.28245-.1008-.50472-.3231-.60556-.6055-.05822-.1631-.05822-.3664-.05822-.7728v-3.4292c0-.2858 0-.4287.0367-.5604.03251-.1167.08595-.2265.15771-.3241.081-.1101.19347-.1983.4184-.3746l1.18559-.9296s1.9648-.9186 3.0502-.9186c.4496 0 .8969.0547 1.3336.163l2.6837.6671c.7892.1957 1.343.9012 1.343 1.7104z"/><path clip-rule="evenodd" d="m3.47354 13h.02646.02648c.21004 0 .41467-.0001.58875.0118.19037.013.4161.0435.65014.1404.49006.203.8794.5924 1.08239 1.0824.09695.2341.12742.4598.14041.6502.01188.174.01186.3787.01184.5887-.00001.0088-.00001.0177-.00001.0265l.00001 5.0265c.00002.21.00004.4146-.01184.5887-.01299.1904-.04346.4161-.14041.6502-.20299.49-.59233.8794-1.08239 1.0823-.23404.097-.45977.1275-.65014.1405-.17408.0118-.3787.0118-.58875.0118h-.05296c-.21004 0-.41466 0-.58874-.0118-.19038-.013-.4161-.0435-.65014-.1405-.49006-.2029-.87941-.5923-1.0824-1.0823-.09694-.2341-.12741-.4598-.1404-.6502-.01188-.1741-.011859-.3787-.01184-.5887v-5.0265c0-.0088 0-.0177 0-.0265-.000019-.21-.00004-.4147.01184-.5887.01299-.1904.04346-.4161.1404-.6502.20299-.49.59234-.8794 1.0824-1.0824.23404-.0969.45977-.1274.65014-.1404.17408-.0119.37871-.0118.58876-.0118z" fill-rule="evenodd"/></g></svg>