<svg fill="none" height="24" viewBox="0 0 24 24" width="24" xmlns="http://www.w3.org/2000/svg"><g fill="#801ed7"><path d="m13.4494 13.2298c-.464.1111-.9492.1701-1.4494.1701-1.7196 0-3.27674-.7002-4.40047-1.8322-1.11233-1.1206-1.79953-2.66388-1.79953-4.36763 0-3.42421 2.77584-6.20007 6.2-6.20007 3.4241 0 6.2 2.77586 6.2 6.20007 0 1.24562-.3673 2.40544-.9995 3.37703-.834 1.2817-2.129 2.236-3.6499 2.6276-.0336.0086-.0673.017-.1012.0251z"/><path d="m15.1476 14.7743c1.517-.6312 2.8037-1.7048 3.6989-3.0597.1539-.2329.2308-.3494.3297-.408.0853-.0505.1897-.0754.2886-.0687.1147.0078.2125.0636.408.1754 1.8685 1.0684 3.1272 3.0813 3.1272 5.3866 0 3.4242-2.7758 6.2001-6.2 6.2001-.8877 0-1.7311-.1861-2.4941-.5218-.251-.1104-.3765-.1656-.4557-.2733-.068-.0923-.1034-.2127-.0963-.3272.0083-.1333.1026-.2759.2911-.561.7923-1.1983 1.2784-2.617 1.3467-4.1444.0052-.1157.0079-.2321.0083-.349v-.0234c0-.6111-.067-1.2073-.1943-1.7814-.0181-.0819-.0375-.1633-.0581-.2442z"/><path d="m4.12723 11.4133c.1955-.1118.29326-.1676.40793-.1754.09898-.0067.20332.0182.28866.0687.09887.0586.17582.1751.32973.408 1.46719 2.2206 3.98574 3.6855 6.84645 3.6855.4146 0 .822-.0307 1.2201-.0901l.0062.0257c.1135.4688.1737.959.1737 1.4642v.0215c-.0003.0842-.0023.1681-.0059.2514-.1428 3.2976-2.8614 5.9272-6.1941 5.9272-3.42416 0-6.2-2.7759-6.2-6.2001 0-2.3053 1.25869-4.3182 3.12723-5.3866z"/></g></svg>