<svg fill="none" height="24" viewBox="0 0 24 24" width="24" xmlns="http://www.w3.org/2000/svg"><g fill="#801ed7"><path d="m7 3.59999c0-.57416 0-.86124-.11276-1.07811-.09743-.18737-.26049-.34602-.45047-.43826-.21989-.10676-.49215-.09928-1.03669-.08432-.19882.00546-.3973.0151-.59511.03126-.39534.0323-.78856.10362-1.16694.29641-.56449.28762-1.02343.74656-1.31105 1.31105-.19279.37838-.26411.7716-.29641 1.16694-.0306.37457-.03059.82932-.03057 1.35645v11.67709c-.00002.5272-.00003.982.03057 1.3565.0323.3954.10362.7886.29641 1.167.28762.5645.74656 1.0234 1.31105 1.311.37838.1928.7716.2641 1.16694.2964.19781.0162.39629.0258.59511.0313.54454.0149.8168.0224 1.0367-.0843.18997-.0923.35303-.2509.45046-.4383.11276-.2169.11276-.5039.11276-1.0781z"/><path d="m9 20.4c0 .56 0 .8401.10899 1.054.09588.1881.24886.3411.43702.437.21391.109.49389.109 1.05399.109h2.8c.5601 0 .8401 0 1.054-.109.1882-.0959.3411-.2489.437-.437.109-.2139.109-.494.109-1.054v-16.80001c0-.56005 0-.84008-.109-1.05399-.0959-.18816-.2488-.34114-.437-.43702-.2139-.10899-.4939-.10899-1.054-.10899h-2.8c-.5601 0-.84008 0-1.05399.10899-.18816.09588-.34114.24886-.43702.43702-.10899.21391-.10899.49394-.10899 1.05399z"/><path d="m18.5999 1.9993c-.5445-.01496-.8168-.02244-1.0367.08432-.1899.09224-.353.25089-.4504.43826-.1128.21687-.1128.50395-.1128 1.07811v16.80001c0 .5741 0 .8612.1128 1.0781.0974.1874.2605.346.4504.4383.2199.1067.4922.0992 1.0367.0843.1988-.0055.3973-.0151.5951-.0313.3954-.0323.7886-.1036 1.167-.2964.5645-.2876 1.0234-.7465 1.311-1.311.1928-.3784.2641-.7716.2964-1.167.0306-.3745.0306-.8293.0306-1.3564v-11.67717c0-.52714 0-.9819-.0306-1.35647-.0323-.39534-.1036-.78856-.2964-1.16694-.2876-.56449-.7465-1.02343-1.311-1.31105-.3784-.19279-.7716-.26411-1.167-.29641-.1978-.01616-.3963-.0258-.5951-.03126z"/></g></svg>