<svg fill="none" height="24" viewBox="0 0 24 24" width="24" xmlns="http://www.w3.org/2000/svg"><path clip-rule="evenodd" d="m2 6c0-2.20914 1.79086-4 4-4s4 1.79086 4 4v2h4v-2c0-2.20914 1.7909-4 4-4s4 1.79086 4 4-1.7909 4-4 4h-2v4h2c2.2091 0 4 1.7909 4 4s-1.7909 4-4 4-4-1.7909-4-4v-2h-4v2c0 2.2091-1.79086 4-4 4s-4-1.7909-4-4 1.79086-4 4-4h2v-4h-2c-2.20914 0-4-1.79086-4-4zm6 2v-2c0-1.10457-.89543-2-2-2s-2 .89543-2 2 .89543 2 2 2zm2 2v4h4v-4zm-2 6h-2c-1.10457 0-2 .8954-2 2s.89543 2 2 2 2-.8954 2-2zm8 0v2c0 1.1046.8954 2 2 2s2-.8954 2-2-.8954-2-2-2zm0-8h2c1.1046 0 2-.89543 2-2s-.8954-2-2-2-2 .89543-2 2z" fill="#801ed7" fill-rule="evenodd"/></svg>