<svg fill="none" height="24" viewBox="0 0 24 24" width="24" xmlns="http://www.w3.org/2000/svg"><path clip-rule="evenodd" d="m12 1c-6.07513 0-11 4.92487-11 11 0 6.0751 4.92487 11 11 11 6.0751 0 11-4.9249 11-11 0-6.07513-4.9249-11-11-11zm0 2.2002c.4418 0 .8.35817.8.8v1.6c0 .44182-.3582.8-.8.8s-.8-.35818-.8-.8v-1.6c0-.44183.3582-.8.8-.8zm-5.09118 2.57708c-.31242-.31242-.81895-.31242-1.13137 0s-.31242.81895 0 1.13137l1.13137 1.13137c.31242.31242.81895.31242 1.13137 0 .31242-.31241.31242-.81895 0-1.13137zm-2.90882 5.42292c-.44183 0-.8.3582-.8.8s.35817.8.8.8h1.6c.44182 0 .8-.3582.8-.8s-.35818-.8-.8-.8zm14.4 0c-.4418 0-.8.3582-.8.8s.3582.8.8.8h1.6c.4418 0 .8-.3582.8-.8s-.3582-.8-.8-.8zm-2.4402 4.7597c.3124-.3124.8189-.3124 1.1314 0l1.1313 1.1314c.3125.3124.3125.8189 0 1.1313-.3124.3125-.8189.3125-1.1313 0l-1.1314-1.1313c-.3124-.3124-.3124-.819 0-1.1314zm2.2627-9.05125c.3125-.31242.3125-.81895 0-1.13137-.3124-.31242-.8189-.31242-1.1313 0l-1.1314 1.13137c-.3124.31242-.3124.81896 0 1.13137.3124.31242.8189.31242 1.1314 0zm-5.4225 11.49145c0-.4418-.3582-.8-.8-.8s-.8.3582-.8.8v1.6c0 .4418.3582.8.8.8s.8-.3582.8-.8zm-4.75981-1.3088c.31242-.3124.31242-.819 0-1.1314s-.81895-.3124-1.13137 0l-1.13137 1.1314c-.31242.3124-.31242.8189 0 1.1313.31242.3125.81895.3125 1.13137 0zm3.25271-7.79841c.3905-.39052 1.0237-.39052 1.4142 0l2 2.00001c.3905.3905.3905 1.0237 0 1.4142l-2 2c-.3905.3905-1.0237.3905-1.4142 0l-2.00001-2c-.39052-.3905-.39052-1.0237 0-1.4142z" fill="#801ed7" fill-rule="evenodd"/></svg>