<svg fill="none" height="24" viewBox="0 0 24 24" width="24" xmlns="http://www.w3.org/2000/svg"><path clip-rule="evenodd" d="m12 1c-6.07513 0-11 4.92487-11 11 0 6.0751 4.92487 11 11 11 6.0751 0 11-4.9249 11-11 0-6.07513-4.9249-11-11-11zm.8 3.0002c0-.44183-.3582-.8-.8-.8s-.8.35817-.8.8v1.6c0 .44182.3582.8.8.8s.8-.35818.8-.8zm-7.02255 1.77708c.31242-.31242.81895-.31242 1.13137 0l1.13137 1.13137c.31242.31242.31242.81896 0 1.13137-.31242.31242-.81895.31242-1.13137 0l-1.13137-1.13137c-.31242-.31242-.31242-.81895 0-1.13137zm-2.57745 6.22292c0-.4418.35817-.8.8-.8h1.6c.44182 0 .8.3582.8.8s-.35818.8-.8.8h-1.6c-.44183 0-.8-.3582-.8-.8zm14.4 0c0-.4418.3582-.8.8-.8h1.6c.4418 0 .8.3582.8.8s-.3582.8-.8.8h-1.6c-.4418 0-.8-.3582-.8-.8zm-.5088 3.9597c-.3124-.3124-.819-.3124-1.1314 0s-.3124.819 0 1.1314l1.1314 1.1313c.3124.3125.8189.3125 1.1313 0 .3125-.3124.3125-.8189 0-1.1313zm1.1313-10.18262c.3125.31242.3125.81895 0 1.13137l-1.1313 1.13137c-.3124.31242-.819.31242-1.1314 0-.3124-.31241-.3124-.81895 0-1.13137l1.1314-1.13137c.3124-.31242.8189-.31242 1.1313 0zm-6.2225 11.82282c.4418 0 .8.3582.8.8v1.6c0 .4418-.3582.8-.8.8s-.8-.3582-.8-.8v-1.6c0-.4418.3582-.8.8-.8zm-3.95981-1.6402c.31242.3124.31242.819 0 1.1314l-1.13137 1.1313c-.31242.3125-.81895.3125-1.13137 0-.31242-.3124-.31242-.8189 0-1.1313l1.13137-1.1314c.31242-.3124.81895-.3124 1.13137 0zm3.95981-6.9599c.3513 0 .6768.1843.8575.4855l.6214 1.0356 1.0356.6214c.3012.1807.4855.5062.4855.8575s-.1843.6768-.4855.8575l-1.0356.6214-.6214 1.0356c-.1807.3012-.5062.4855-.8575.4855s-.6768-.1843-.8575-.4855l-.6214-1.0356-1.0356-.6214c-.3012-.1807-.4855-.5062-.4855-.8575s.1843-.6768.4855-.8575l1.0356-.6214.6214-1.0356c.1807-.3012.5062-.4855.8575-.4855z" fill="#801ed7" fill-rule="evenodd"/></svg>