<svg fill="none" height="24" viewBox="0 0 24 24" width="24" xmlns="http://www.w3.org/2000/svg"><path clip-rule="evenodd" d="m12 1c-6.07513 0-11 4.92487-11 11 0 6.0751 4.92487 11 11 11 6.0751 0 11-4.9249 11-11 0-6.07513-4.9249-11-11-11zm3.6174 7.07938c-.1625-.05792-.4068.0235-.8953.18635l-4.4626 1.48754c-.1392.04638-.2087.06957-.26652.10909-.05117.03501-.09538.07922-.13039.13039-.03952.05775-.06271.12735-.10909.26645l-1.48754 4.4627c-.16285.4885-.24427.7328-.18635.8952.05041.1414.16165.2526.30301.303.16245.058.40672-.0235.89527-.1863l4.46261-1.4875c.1392-.0464.2087-.0696.2665-.1091.0512-.035.0954-.0793.1304-.1304.0395-.0578.0627-.1274.1091-.2665l1.4875-4.46264c.1629-.48855.2443-.73282.1864-.89526-.0504-.14137-.1617-.25261-.303-.30302z" fill="#801ed7" fill-rule="evenodd"/></svg>