<svg fill="none" height="24" viewBox="0 0 24 24" width="24" xmlns="http://www.w3.org/2000/svg"><path clip-rule="evenodd" d="m13 2c0-.55228-.4477-1-1-1s-1 .44772-1 1v1.14494c-1.44574.43027-2.5 1.76955-2.5 3.35506 0 .9282.36132 1.77201.95098 2.39845l-4.02097 6.92505c-.6122-.4567-1.17539-.9757-1.68026-1.5477-.36546-.4141-.9974-.4535-1.41147-.088-.41407.3654-.45347.9974-.08801 1.4114.6465.7325 1.37453 1.3917 2.1699 1.9634l-2.28504 3.9354c-.27732.4776-.11495 1.0896.36266 1.3669.4776.2773 1.0896.1149 1.36692-.3627l2.26472-3.9003c1.76339.894 3.75829 1.3981 5.87057 1.3981 2.1122 0 4.1071-.5041 5.8705-1.398l2.2646 3.9002c.2774.4776.8893.64 1.367.3627.4776-.2773.6399-.8893.3626-1.3669l-2.285-3.9353c.7954-.5717 1.5235-1.2309 2.1701-1.9635.3654-.414.326-1.046-.0881-1.4114-.414-.3655-1.046-.3261-1.4114.088-.5049.572-1.0682 1.0911-1.6804 1.5477l-4.021-6.92495c.5897-.62645.9511-1.4703.9511-2.39855 0-1.58551-1.0543-2.92479-2.5-3.35506zm-1 8c.2823 0 .5568-.03342.8197-.09652l4.0446 6.96562c-1.4667.7243-3.1178 1.1309-4.8643 1.1309s-3.39772-.4066-4.86439-1.131l4.04449-6.96555c.263.06312.5376.09655.8199.09655z" fill="#801ed7" fill-rule="evenodd"/></svg>