<svg fill="none" height="24" viewBox="0 0 24 24" width="24" xmlns="http://www.w3.org/2000/svg"><g fill="#801ed7"><path d="m12.4029 1.18505c-.2658-.05467-.54-.05467-.8058 0-.3073.06319-.5819.21702-.8003.33931l-.0595.03325c-1.7629.9794-4.74521 2.63706-6.4266 3.57167-.40825.22692-.61237.34039-.68058.49034-.05947.13073-.05985.28072-.00105.41175.06746.1503.27118.2649.67862.49408l7.30011 4.10635c.143.0804.2146.1207.2904.1365.0671.0139.1364.0139.2035 0 .0759-.0158.1474-.0561.2905-.1365l7.3001-4.10636c.4074-.22919.6112-.34378.6786-.49408.0588-.13103.0584-.28102-.001-.41175-.0682-.14996-.2724-.26342-.6806-.49035-1.6814-.93461-4.6637-2.59225-6.4266-3.57165l-.0595-.03325c-.2184-.12229-.493-.27612-.8003-.33931z"/><path d="m21.9959 8.89015c-.0004-.44834-.0006-.67251-.0951-.8034-.0825-.11419-.2093-.1883-.3493-.20408-.1604-.0181-.3562.09202-.7477.31226l-7.396 4.16027c-.1485.0835-.2227.1253-.2767.1843-.0478.0523-.084.1141-.1061.1814-.025.076-.025.1612-.025.3315v8.1753c0 .4472 0 .6708.094.8016.0821.1141.2083.1884.3479.2047.16.0187.3549-.0895.7446-.3059 1.6663-.9253 4.695-2.6071 6.4762-3.5967l.0631-.0348c.2311-.1273.5218-.2874.7449-.5296.193-.2094.339-.4575.4283-.7279.1034-.3127.1021-.6445.1012-.9083l-.0002-.0722c0-1.963-.0025-5.3023-.0041-7.16845z"/><path d="m9.81351 21.9281c.38969.2164.58459.3246.74459.3059.1396-.0163.2658-.0906.3479-.2047.094-.1308.094-.3544.094-.8016v-8.1752c0-.1704 0-.2555-.025-.3316-.0221-.0673-.0583-.1291-.1061-.1813-.054-.0591-.1282-.1009-.2767-.1844l-7.39596-4.16024c-.39154-.22024-.5873-.33036-.74775-.31227-.13997.01579-.26681.0899-.34928.20408-.09455.13089-.09473.35506-.09511.8034-.00156 1.86613-.0041 5.20543-.0041 7.16843l-.00018.0722c-.00096.2638-.00217.5956.10115.9083.08933.2704.23535.5185.4283.7279.22316.2422.51376.4022.74489.5296l.06317.0348c1.78119.9896 4.80982 2.6714 6.47618 3.5967z"/></g></svg>