<svg fill="none" height="24" viewBox="0 0 24 24" width="24" xmlns="http://www.w3.org/2000/svg"><path clip-rule="evenodd" d="m1 12c0-6.07513 4.92487-11 11-11 6.0751 0 11 4.92487 11 11 0 6.0751-4.9249 11-11 11-6.07513 0-11-4.9249-11-11zm5.57337 5.3933c5.97573 0 10.81993-4.8442 10.81993-10.81993 0-.88675-.1066-1.74858-.3078-2.57337 2.3704 1.70179 3.9145 4.48192 3.9145 7.6227 0 5.1789-4.1984 9.3773-9.3773 9.3773-3.14078 0-5.92091-1.5441-7.6227-3.9145.82479.2012 1.68662.3078 2.57337.3078z" fill="#801ed7" fill-rule="evenodd"/></svg>