<svg fill="none" height="24" viewBox="0 0 24 24" width="24" xmlns="http://www.w3.org/2000/svg"><g fill="#801ed7"><path clip-rule="evenodd" d="m13 3.05484c.1894.02091.377.04769.5625.08014.544.09516 1.0622-.26873 1.1573-.81275.0952-.54403-.2687-1.06218-.8127-1.15734-.6201-.10846-1.2574-.16489-1.9071-.16489-6.07513 0-11 4.92487-11 11 0 6.0751 4.92487 11 11 11 .6489 0 1.2855-.0563 1.9049-.1645.544-.0951.908-.6131.813-1.1572-.0951-.544-.6131-.908-1.1572-.813-.1849.0323-.3719.059-.5607.0799z" fill-rule="evenodd"/><path d="m16.9195 3.23454c.3172-.45206.9409-.56134 1.393-.24407 1.0492.73637 1.9637 1.65127 2.6997 2.70081.317.4522.2075 1.07581-.2447 1.39289s-1.0758.20755-1.3929-.24464c-.6027-.85948-1.3518-1.60898-2.2111-2.212-.452-.31726-.5613-.94093-.244-1.39299z"/><path d="m21.6779 9.28058c.544-.09513 1.0622.26877 1.1573.81282.1084.6199.1648 1.2571.1648 1.9066s-.0564 1.2867-.1648 1.9066c-.0951.544-.6133.908-1.1573.8128-.544-.0951-.9079-.6133-.8128-1.1573.0886-.5067.1349-1.0286.1349-1.5621s-.0463-1.0554-.1349-1.5621c-.0951-.54405.2688-1.06219.8128-1.15732z"/><path d="m20.7639 16.9223c.4519.3174.561.9411.2436 1.393-.7354 1.0472-1.6487 1.9601-2.6962 2.695-.4521.3173-1.0758.2079-1.393-.2442s-.2078-1.0758.2443-1.393c.8578-.6018 1.606-1.3497 2.2082-2.2072.3174-.452.9411-.561 1.3931-.2436z"/></g></svg>