<svg fill="none" height="24" viewBox="0 0 24 24" width="24" xmlns="http://www.w3.org/2000/svg"><path clip-rule="evenodd" d="m1 12c0-6.07513 4.92487-11 11-11 6.0751 0 11 4.92487 11 11 0 6.0751-4.9249 11-11 11-6.07513 0-11-4.9249-11-11zm20 0c0 4.4272-3.1966 8.1078-7.4076 8.8596-.4539.081-.6808.1215-.933.0301-.1986-.0719-.4194-.2568-.5251-.4396-.1343-.2323-.1343-.5049-.1343-1.0501v-14.8c0-.5452 0-.81781.1343-1.05007.1057-.18282.3265-.36772.5251-.43965.2522-.09138.4791-.05087.933.03015 4.211.7518 7.4076 4.43238 7.4076 8.85957z" fill="#801ed7" fill-rule="evenodd"/></svg>