<svg fill="none" height="24" viewBox="0 0 24 24" width="24" xmlns="http://www.w3.org/2000/svg"><g fill="#801ed7"><path clip-rule="evenodd" d="m5.16146 17h7.67704c.5272 0 .982 0 1.3565-.0306.3954-.0323.7886-.1036 1.167-.2964.5645-.2876 1.0234-.7465 1.311-1.311.1928-.3784.2641-.7716.2964-1.167.0306-.3745.0306-.8293.0306-1.3564v-7.67714c0-.52713 0-.98193-.0306-1.35649-.0323-.39534-.1036-.78856-.2964-1.16694-.2876-.56449-.7465-1.02343-1.311-1.31105-.3784-.19279-.7716-.26411-1.167-.29641-.3745-.030602-.8292-.030586-1.3564-.03057h-7.67712c-.52711-.000016-.98196-.000032-1.35651.03057-.39534.0323-.78856.10362-1.16694.29641-.56449.28762-1.02343.74656-1.31105 1.31105-.19279.37838-.26411.7716-.29641 1.16694-.030605.37458-.030588.82935-.03057 1.35651v7.67702c-.000018.5272-.000035.982.03057 1.3565.0323.3954.10362.7886.29641 1.167.28762.5645.74656 1.0234 1.31105 1.311.37838.1928.7716.2641 1.16694.2964.37456.0306.82935.0306 1.35649.0306z" fill-rule="evenodd"/><path d="m18.8385 23h-7.677c-.5272 0-.982 0-1.35652-.0306-.39535-.0323-.78857-.1036-1.16695-.2964-.56448-.2876-1.02342-.7465-1.31104-1.311-.1928-.3784-.26412-.7716-.29642-1.167-.02743-.3358-.03026-.736-.03054-1.195h5.88087c.4886.0001 1.0184.0002 1.477-.0372.519-.0424 1.2047-.1474 1.9121-.5078.9408-.4794 1.7057-1.2443 2.185-2.1851.3604-.7073.4654-1.393.5078-1.912.0375-.4586.0373-.9884.0372-1.4771v-5.88077c.459.00028.8593.00311 1.195.03054.3954.0323.7886.10362 1.167.29641.5645.28762 1.0234.74656 1.311 1.31105.1928.37838.2641.7716.2964 1.16694.0306.37453.0306.82923.0306 1.35643v7.6771c0 .5271 0 .982-.0306 1.3565-.0323.3954-.1036.7886-.2964 1.167-.2876.5645-.7465 1.0234-1.311 1.311-.3784.1928-.7716.2641-1.167.2964-.3745.0306-.8293.0306-1.3565.0306z"/></g></svg>