<svg fill="none" height="24" viewBox="0 0 24 24" width="24" xmlns="http://www.w3.org/2000/svg"><g clip-rule="evenodd" fill="#801ed7" fill-rule="evenodd"><path d="m17.1458 4.05118c-.6169-.0504-1.4092-.05118-2.5458-.05118h-7.1c-.55228 0-1-.44771-1-1 0-.55228.44772-1 1-1h7.1428c1.0838-.00001 1.9579-.00002 2.6658.05782.7289.05955 1.3691.18536 1.9614.48715.9408.47936 1.7057 1.24427 2.185 2.18508.3018.59229.4276 1.23248.4872 1.96133.0578.70788.0578 1.58204.0578 2.66584v7.14278c0 .5523-.4477 1-1 1s-1-.4477-1-1v-7.1c0-1.13661-.0008-1.92892-.0512-2.54576-.0494-.60517-.1416-.95286-.2758-1.21621-.2876-.56449-.7465-1.02343-1.311-1.31105-.2634-.13419-.6111-.22636-1.2162-.2758z"/><path d="m6.16146 5.5h8.17704c.5272-.00002.982-.00003 1.3565.03057.3954.0323.7886.10362 1.167.29641.5645.28762 1.0234.74656 1.311 1.31105.1928.37838.2641.7716.2964 1.16694.0306.37458.0306.82935.0306 1.35651v8.17702c0 .5272 0 .9819-.0306 1.3565-.0323.3954-.1036.7886-.2964 1.167-.2876.5645-.7465 1.0234-1.311 1.311-.3784.1928-.7716.2641-1.167.2964-.3745.0306-.8293.0306-1.3565.0306h-8.17702c-.52716 0-.98193 0-1.35651-.0306-.39534-.0323-.78856-.1036-1.16694-.2964-.56449-.2876-1.02343-.7465-1.31105-1.311-.19279-.3784-.26411-.7716-.29641-1.167-.0306-.3745-.03059-.8293-.03057-1.3565v-8.17704c-.00002-.52715-.00003-.98192.03057-1.35649.0323-.39534.10362-.78856.29641-1.16694.28762-.56449.74656-1.02343 1.31105-1.31105.37838-.19279.7716-.26411 1.16694-.29641.37458-.0306.82934-.03059 1.35649-.03057z"/></g></svg>