<svg fill="none" height="24" viewBox="0 0 24 24" width="24" xmlns="http://www.w3.org/2000/svg"><g fill="#801ed7"><path clip-rule="evenodd" d="m5.16146 7h7.67704c.5272-.00002.982-.00003 1.3565.03057.3954.0323.7886.10362 1.167.29641.5645.28762 1.0234.74656 1.311 1.31105.1928.37838.2641.7716.2964 1.16694.0306.37453.0306.82933.0306 1.35643v7.6771c0 .5272 0 .982-.0306 1.3565-.0323.3954-.1036.7886-.2964 1.167-.2876.5645-.7465 1.0234-1.311 1.311-.3784.1928-.7716.2641-1.167.2964-.3745.0306-.8292.0306-1.3564.0306h-7.67712c-.52711 0-.98196 0-1.35651-.0306-.39534-.0323-.78856-.1036-1.16694-.2964-.56449-.2876-1.02343-.7465-1.31105-1.311-.19279-.3784-.26411-.7716-.29641-1.167-.030605-.3745-.030588-.8293-.03057-1.3565v-7.677c-.000018-.5272-.000035-.9819.03057-1.35653.0323-.39534.10362-.78856.29641-1.16694.28762-.56449.74656-1.02343 1.31105-1.31105.37838-.19279.7716-.26411 1.16694-.29641.37456-.0306.82935-.03059 1.35649-.03057z" fill-rule="evenodd"/><path d="m18.8385 1h-7.677c-.5272-.000016-.982-.000031-1.35652.03057-.39535.0323-.78857.10362-1.16695.29641-.56448.28762-1.02342.74656-1.31104 1.31105-.1928.37838-.26412.7716-.29642 1.16694-.02743.33579-.03026.73601-.03054 1.19506l5.88087-.00002c.4886-.00011 1.0184-.00024 1.477.03723.519.0424 1.2047.14736 1.9121.50775.9408.47937 1.7057 1.24427 2.185 2.18508.3604.70732.4654 1.39304.5078 1.91206.0375.45857.0373.98837.0372 1.47707v5.8808c.459-.0003.8593-.0031 1.195-.0306.3954-.0323.7886-.1036 1.167-.2964.5645-.2876 1.0234-.7465 1.311-1.311.1928-.3784.2641-.7716.2964-1.167.0306-.3745.0306-.8292.0306-1.3564v-7.67712c0-.52711 0-.98196-.0306-1.35651-.0323-.39534-.1036-.78856-.2964-1.16694-.2876-.56449-.7465-1.02343-1.311-1.31105-.3784-.19279-.7716-.26411-1.167-.29641-.3745-.030601-.8293-.030586-1.3565-.03057z"/></g></svg>