<svg fill="none" height="24" viewBox="0 0 24 24" width="24" xmlns="http://www.w3.org/2000/svg"><g fill="#801ed7"><path clip-rule="evenodd" d="m12.1615 8h6.677c.5272-.00002.982-.00003 1.3565.03057.3954.0323.7886.10362 1.167.29641.5645.28762 1.0234.74656 1.311 1.31105.1928.37837.2641.77157.2964 1.16697.0306.3746.0306.8293.0306 1.3565v6.677c0 .5272 0 .982-.0306 1.3565-.0323.3954-.1036.7886-.2964 1.167-.2876.5645-.7465 1.0234-1.311 1.311-.3784.1928-.7716.2641-1.167.2964-.3746.0306-.8293.0306-1.3565.0306h-6.677c-.5272 0-.9819 0-1.3565-.0306-.3954-.0323-.7886-.1036-1.16697-.2964-.56449-.2876-1.02343-.7465-1.31105-1.311-.19279-.3784-.26411-.7716-.29641-1.167-.0306-.3745-.03059-.8293-.03057-1.3565v-6.677c-.00002-.5272-.00003-.982.03057-1.3565.0323-.3954.10362-.7886.29641-1.16697.28762-.56449.74656-1.02343 1.31105-1.31105.37837-.19279.77157-.26411 1.16697-.29641.3745-.0306.8293-.03059 1.3565-.03057z" fill-rule="evenodd"/><path d="m11.8385 1h-6.67704c-.52712-.000016-.98193-.000031-1.35649.03057-.39534.0323-.78856.10362-1.16694.29641-.56449.28762-1.02343.74656-1.31105 1.31105-.19279.37838-.26411.7716-.29641 1.16694-.030601.37456-.030586.8293-.03057 1.35643v6.6771c-.000016.5272-.000031.982.03057 1.3565.0323.3954.10362.7886.29641 1.167.28762.5645.74656 1.0234 1.31105 1.311.37838.1928.7716.2641 1.16694.2964.37457.0306.82933.0306 1.35648.0306h.83855l-.00002-3.8808c-.00011-.4887-.00024-1.0185.03723-1.4771.0424-.519.14736-1.20471.50775-1.91203.47937-.94081 1.24427-1.70571 2.18508-2.18508.70732-.36039 1.39306-.46535 1.91206-.50775.4586-.03747.9884-.03734 1.477-.03723l3.8809.00002v-.83855c0-.52715 0-.98194-.0306-1.35651-.0323-.39534-.1036-.78856-.2964-1.16694-.2876-.56449-.7465-1.02343-1.311-1.31105-.3784-.19279-.7716-.26411-1.167-.29641-.3745-.030601-.8293-.030586-1.3565-.03057z"/></g></svg>