<svg fill="none" height="24" viewBox="0 0 24 24" width="24" xmlns="http://www.w3.org/2000/svg"><g clip-rule="evenodd" fill="#801ed7" fill-rule="evenodd"><path d="m5.16146 7h7.67704c.5272-.00002.982-.00003 1.3565.03057.3954.0323.7886.10362 1.167.29641.5645.28762 1.0234.74656 1.311 1.31105.1928.37838.2641.7716.2964 1.16694.0306.37453.0306.82933.0306 1.35643v7.6771c0 .5272 0 .982-.0306 1.3565-.0323.3954-.1036.7886-.2964 1.167-.2876.5645-.7465 1.0234-1.311 1.311-.3784.1928-.7716.2641-1.167.2964-.3745.0306-.8292.0306-1.3564.0306h-7.67712c-.52711 0-.98196 0-1.35651-.0306-.39534-.0323-.78856-.1036-1.16694-.2964-.56449-.2876-1.02343-.7465-1.31105-1.311-.19279-.3784-.26411-.7716-.29641-1.167-.030605-.3745-.030588-.8293-.03057-1.3565v-7.677c-.000018-.5272-.000035-.9819.03057-1.35653.0323-.39534.10362-.78856.29641-1.16694.28762-.56449.74656-1.02343 1.31105-1.31105.37838-.19279.7716-.26411 1.16694-.29641.37456-.0306.82935-.03059 1.35649-.03057z"/><path d="m13.0001 2c0-.55228.4477-1 1-1h1.9999c.5522 0 1 .44772 1 1s-.4478 1-1 1h-1.9999c-.5523 0-1-.44772-1-1zm-1.5002-.01075c.0075.55223-.4341 1.00597-.9863 1.01345-.69391.00941-.87415.05868-.96759.10629-.18816.09588-.34114.24886-.43701.43702-.04761.09344-.09689.27367-.10629.96754-.00748.55223-.46123.99384-1.01346.98636-.55223-.00749-.99384-.46123-.98636-1.01346.0089-.65623.03778-1.2865.3241-1.84842.28762-.56449.74656-1.02343 1.31104-1.31105.56193-.28631 1.19219-.3152 1.84847-.32409.5522-.007486 1.0059.43412 1.0134.98636zm7.0002 0c.0075-.55224.4612-.993846 1.0135-.98636.6562.00889 1.2865.03778 1.8484.32409.5645.28762 1.0234.74656 1.311 1.31105.2863.56192.3152 1.19218.3241 1.84841.0075.55223-.4341 1.00597-.9863 1.01346-.5523.00748-1.006-.43413-1.0135-.98636-.0094-.69386-.0587-.87409-.1063-.96753-.0959-.18816-.2488-.34114-.437-.43702-.0934-.0476-.2737-.09688-.9675-.10629-.5523-.00748-.9939-.46122-.9864-1.01345zm3.4999 5.01074c.5523 0 1 .44772 1 1v2c0 .55231-.4477 1.00001-1 1.00001s-1-.4477-1-1.00001v-2c0-.55228.4477-1 1-1zm.0108 5.50011c.5522.0075.9938.4612.9863 1.0134-.0089.6563-.0378 1.2865-.3241 1.8485-.2876.5645-.7465 1.0234-1.311 1.311-.5619.2863-1.1922.3152-1.8484.3241-.5523.0075-1.006-.4341-1.0135-.9863-.0075-.5523.4341-1.006.9864-1.0135.6938-.0094.8741-.0587.9675-.1063.1882-.0959.3411-.2488.437-.437.0476-.0934.0969-.2737.1063-.9676.0075-.5522.4612-.9938 1.0135-.9863z"/></g></svg>