<svg fill="none" height="24" viewBox="0 0 24 24" width="24" xmlns="http://www.w3.org/2000/svg"><g fill="#801ed7"><path clip-rule="evenodd" d="m18.8385 17h-7.677c-.5272 0-.982 0-1.35652-.0306-.39535-.0323-.78857-.1036-1.16695-.2964-.56448-.2876-1.02342-.7465-1.31104-1.311-.1928-.3784-.26411-.7716-.29642-1.167-.0306-.3745-.03058-.8293-.03057-1.3564v-7.67714c-.00001-.52713-.00003-.98193.03057-1.35649.03231-.39534.10362-.78856.29642-1.16694.28762-.56449.74656-1.02343 1.31104-1.31105.37838-.19279.7716-.26411 1.16695-.29641.37452-.030602.82932-.030586 1.35642-.03057h7.6771c.5271-.000016.982-.000032 1.3565.03057.3954.0323.7886.10362 1.167.29641.5645.28762 1.0234.74656 1.311 1.31105.1928.37838.2641.7716.2964 1.16694.0306.37458.0306.82935.0306 1.35651v7.67702c0 .5272 0 .982-.0306 1.3565-.0323.3954-.1036.7886-.2964 1.167-.2876.5645-.7465 1.0234-1.311 1.311-.3784.1928-.7716.2641-1.167.2964-.3745.0306-.8293.0306-1.3565.0306z" fill-rule="evenodd"/><path d="m5.16146 23h7.67704c.5272 0 .982 0 1.3565-.0306.3954-.0323.7886-.1036 1.167-.2964.5645-.2876 1.0234-.7465 1.311-1.311.1928-.3784.2641-.7716.2964-1.167.0275-.3358.0303-.736.0306-1.195h-5.8809c-.4886.0001-1.0184.0002-1.47699-.0372-.51902-.0424-1.20474-.1474-1.91206-.5078-.94081-.4794-1.70571-1.2443-2.18508-2.1851-.36039-.7073-.46534-1.393-.50775-1.912-.03747-.4586-.03735-.9884-.03723-1.4771l.00002-5.88077c-.45904.00028-.85926.00311-1.19504.03054-.39534.0323-.78856.10362-1.16694.29641-.56449.28762-1.02343.74656-1.31105 1.31105-.19279.37838-.26411.7716-.29641 1.16694-.030604.37453-.030586.82923-.03057 1.35643v7.6771c-.000016.5271-.000034.982.03057 1.3565.0323.3954.10362.7886.29641 1.167.28762.5645.74656 1.0234 1.31105 1.311.37838.1928.7716.2641 1.16694.2964.37456.0306.82936.0306 1.35649.0306z"/></g></svg>