<svg fill="none" height="24" viewBox="0 0 24 24" width="24" xmlns="http://www.w3.org/2000/svg"><path d="m21 3h-3.4444c-1.6426-.00001-2.9365-.00001-3.9778.08507-1.0624.08679-1.9495.2671-2.7557.67788-1.31717.67112-2.38803 1.74198-3.05914 3.05912-.41079.8062-.59109 1.69336-.67789 2.75571-.08508 1.04132-.08508 2.33522-.08507 3.97782v4.0302l-3.29289-3.2929c-.39053-.3905-1.02369-.3905-1.41422 0-.39052.3905-.39052 1.0237 0 1.4142l5 5c.39053.3905 1.02369.3905 1.41422 0l4.99999-5c.3905-.3905.3905-1.0237 0-1.4142s-1.0237-.3905-1.4142 0l-3.2929 3.2929v-3.9858c0-1.6967.00078-2.909.07843-3.85936.07669-.93867.22336-1.53333.46654-2.01059.47933-.94081 1.24423-1.70572 2.18503-2.18508.4773-.24318 1.072-.38985 2.0106-.46655.9504-.07764 2.1627-.07842 3.8594-.07842h3.4c.5523 0 1-.44771 1-1 0-.55228-.4477-1-1-1z" fill="#801ed7"/></svg>