<svg fill="none" height="24" viewBox="0 0 24 24" width="24" xmlns="http://www.w3.org/2000/svg"><path d="m16.7071 3.29289c-.3905-.39052-1.0237-.39052-1.4142 0l-5 5c-.39053.39053-.39053 1.02369 0 1.41422.3905.39049 1.0237.39049 1.4142 0l3.2929-3.2929v3.98579c0 1.6967-.0008 2.909-.0784 3.8594-.0767.9386-.2234 1.5333-.4666 2.0106-.4793.9408-1.2442 1.7057-2.185 2.185-.4773.2432-1.072.3899-2.0106.4666-.95039.0776-2.16274.0784-3.8594.0784h-3.4c-.55228 0-1 .4477-1 1s.44772 1 1 1h3.44449c1.64251 0 2.93643 0 3.97771-.0851 1.0624-.0868 1.9495-.2671 2.7557-.6779 1.3172-.6711 2.388-1.7419 3.0591-3.0591.4108-.8062.5911-1.6933.6779-2.7557.0851-1.0413.0851-2.3352.0851-3.9778v-4.03019l3.2929 3.2929c.3905.39049 1.0237.39049 1.4142 0 .3905-.39053.3905-1.02369 0-1.41422z" fill="#801ed7"/></svg>