<svg fill="none" height="24" viewBox="0 0 24 24" width="24" xmlns="http://www.w3.org/2000/svg"><path d="m9.70711 4.70711c.39049-.39053.39049-1.02369 0-1.41422-.39053-.39052-1.02369-.39052-1.41422 0l-5 5c-.39052.39053-.39052 1.02369 0 1.41422l5 4.99999c.39053.3905 1.02369.3905 1.41422 0 .39049-.3905.39049-1.0237 0-1.4142l-3.2929-3.2929h3.98579c1.6967 0 2.909.0008 3.8594.0784.9386.0767 1.5333.2234 2.0106.4666.9408.4793 1.7057 1.2442 2.185 2.185.2432.4773.3899 1.072.4666 2.0106.0776.9504.0784 2.1627.0784 3.8594v1.4c0 .5523.4477 1 1 1s1-.4477 1-1v-1.4444c0-1.6426 0-2.9365-.0851-3.9778-.0868-1.0624-.2671-1.9495-.6779-2.7557-.6711-1.3172-1.7419-2.38803-3.0591-3.05915-.8062-.41078-1.6933-.59109-2.7557-.67788-1.0413-.08508-2.3352-.08508-3.9778-.08507h-4.03019z" fill="#801ed7"/></svg>