<svg fill="none" height="24" viewBox="0 0 24 24" width="24" xmlns="http://www.w3.org/2000/svg"><path d="m5 4c0-.55228-.44771-1-1-1-.55228 0-1 .44772-1 1v1.44441c-.00001 1.64253-.00001 2.9365.08507 3.97781.08679 1.06238.2671 1.94948.67788 2.75568.67112 1.3172 1.74198 2.388 3.05912 3.0591.8062.4108 1.69336.5911 2.75571.6779 1.04132.0851 2.33522.0851 3.97782.0851h4.0302l-3.2929 3.2929c-.3905.3905-.3905 1.0237 0 1.4142s1.0237.3905 1.4142 0l5-5c.3905-.3905.3905-1.0237 0-1.4142l-5-5.00001c-.3905-.39052-1.0237-.39052-1.4142 0-.3905.39053-.3905 1.02371 0 1.41421l3.2929 3.2929h-3.9858c-1.6967 0-2.909-.0008-3.85936-.0784-.93867-.0767-1.53332-.2234-2.01059-.4666-.94081-.4793-1.70572-1.2442-2.18508-2.185-.24318-.4773-.38985-1.072-.46655-2.01064-.07764-.95035-.07842-2.1627-.07842-3.85936z" fill="#801ed7"/></svg>