<svg fill="none" height="24" viewBox="0 0 24 24" width="24" xmlns="http://www.w3.org/2000/svg"><path d="m8.70711 3.29289c-.39053-.39052-1.02369-.39052-1.41422 0l-5 5c-.39052.39053-.39052 1.02369 0 1.41422.39053.39049 1.02369.39049 1.41422 0l3.29289-3.2929v4.03019c-.00001 1.6426-.00001 2.9365.08507 3.9778.0868 1.0624.2671 1.9495.67789 2.7557.67111 1.3172 1.74197 2.388 3.05914 3.0591.8062.4108 1.6933.5911 2.7557.6779 1.0413.0851 2.3352.0851 3.9776.0851h3.4446c.5523 0 1-.4477 1-1s-.4477-1-1-1h-3.4c-1.6967 0-2.909-.0008-3.8594-.0784-.9386-.0767-1.5333-.2234-2.0106-.4666-.9408-.4793-1.7057-1.2442-2.18503-2.185-.24318-.4773-.38985-1.072-.46654-2.0106-.07765-.9504-.07843-2.1627-.07843-3.8594v-3.98579l3.2929 3.2929c.3905.39049 1.0237.39049 1.4142 0 .3905-.39053.3905-1.02369 0-1.41422z" fill="#801ed7"/></svg>