<svg fill="none" height="24" viewBox="0 0 24 24" width="24" xmlns="http://www.w3.org/2000/svg"><path d="m21 4c0-.55228-.4477-1-1-1s-1 .44772-1 1v1.4c0 1.69666-.0008 2.90901-.0784 3.85936-.0767.93864-.2234 1.53334-.4666 2.01064-.4793.9408-1.2442 1.7057-2.185 2.185-.4773.2432-1.072.3899-2.0106.4666-.9504.0776-2.1627.0784-3.8594.0784h-3.98579l3.2929-3.2929c.39049-.3905.39049-1.02368 0-1.41421-.39053-.39052-1.02369-.39052-1.41422 0l-5 5.00001c-.39052.3905-.39052 1.0237 0 1.4142l5 5c.39053.3905 1.02369.3905 1.41422 0 .39049-.3905.39049-1.0237 0-1.4142l-3.2929-3.2929h4.03019c1.6425 0 2.9365 0 3.9778-.0851 1.0624-.0868 1.9495-.2671 2.7557-.6779 1.3172-.6711 2.388-1.7419 3.0591-3.0591.4108-.8062.5911-1.6933.6779-2.75568.0851-1.04131.0851-2.33525.0851-3.97778z" fill="#801ed7"/></svg>