<svg fill="none" height="24" viewBox="0 0 24 24" width="24" xmlns="http://www.w3.org/2000/svg"><path d="m15.7071 3.29289c-.3905-.39052-1.0237-.39052-1.4142 0-.3905.39053-.3905 1.02369 0 1.41422l3.2929 3.29289h-4.0302c-1.6426-.00001-2.9365-.00001-3.97782.08507-1.06235.08679-1.94951.2671-2.75571.67788-1.31714.67112-2.388 1.74195-3.05912 3.05915-.41078.8062-.59109 1.6933-.67788 2.7557-.08508 1.0413-.08508 2.3352-.08507 3.9778v1.4444c0 .5523.44772 1 1 1 .55229 0 1-.4477 1-1v-1.4c0-1.6967.00078-2.909.07842-3.8594.0767-.9386.22337-1.5333.46655-2.0106.47936-.9408 1.24427-1.7057 2.18508-2.185.47727-.2432 1.07192-.3899 2.01059-.4666.95036-.0776 2.16266-.0784 3.85936-.0784h3.9858l-3.2929 3.2929c-.3905.3905-.3905 1.0237 0 1.4142s1.0237.3905 1.4142 0l5-4.99999c.3905-.39053.3905-1.02369 0-1.41422z" fill="#801ed7"/></svg>