<svg fill="none" height="24" viewBox="0 0 24 24" width="24" xmlns="http://www.w3.org/2000/svg"><path d="m6.4 5c1.69666 0 2.90901.00078 3.8594.07842.9386.0767 1.5333.22337 2.0106.46655.9408.47936 1.7057 1.24427 2.185 2.18508.2432.47726.3899 1.07192.4666 2.01059.0776.95036.0784 2.16266.0784 3.85936v3.9858l-3.2929-3.2929c-.3905-.3905-1.0237-.3905-1.4142 0-.39053.3905-.39053 1.0237 0 1.4142l5 5c.3905.3905 1.0237.3905 1.4142 0l5-5c.3905-.3905.3905-1.0237 0-1.4142s-1.0237-.3905-1.4142 0l-3.2929 3.2929v-4.0302c0-1.6426 0-2.9365-.0851-3.97782-.0868-1.06235-.2671-1.94951-.6779-2.75571-.6711-1.31714-1.7419-2.388-3.0591-3.05912-.8062-.41078-1.6933-.59109-2.7557-.67788-1.04129-.08508-2.33524-.08508-3.97779-.08507h-3.44441c-.55228 0-1 .44772-1 1 0 .55229.44772 1 1 1z" fill="#801ed7"/></svg>