<svg fill="none" height="24" viewBox="0 0 24 24" width="24" xmlns="http://www.w3.org/2000/svg"><path clip-rule="evenodd" d="m9 1c.55229 0 1 .44772 1 1v2h4v-2c0-.55228.4477-1 1-1s1 .44772 1 1v2.02714c.0868.00479.1707.01042.2518.01705.5621.04593 1.0788.14449 1.5642.39178.7526.3835 1.3645.99542 1.748 1.74807.2473.48533.3459 1.00204.3918 1.56413.0066.08116.0123.16508.0171.25183h2.0271c.5523 0 1 .44772 1 1 0 .55229-.4477 1-1 1h-2v3h2c.5523 0 1 .4477 1 1s-.4477 1-1 1h-2.0016c-.0033.4755-.0131.891-.0426 1.2518-.0459.5621-.1445 1.0788-.3918 1.5642-.3835.7526-.9954 1.3645-1.748 1.748-.4854.2473-1.0021.3459-1.5642.3918-.0811.0066-.165.0123-.2518.0171v2.0271c0 .5523-.4477 1-1 1s-1-.4477-1-1v-2h-4v2c0 .5523-.44771 1-1 1-.55228 0-1-.4477-1-1v-2.0271c-.08675-.0048-.17067-.0105-.25182-.0171-.5621-.0459-1.07881-.1445-1.56414-.3918-.75265-.3835-1.36457-.9954-1.74807-1.748-.24729-.4854-.34585-1.0021-.39178-1.5642-.02947-.3608-.0393-.7763-.04256-1.2518h-2.00163c-.55228 0-1-.4477-1-1s.44772-1 1-1h2v-3h-2c-.55228 0-1-.44771-1-1 0-.55228.44772-1 1-1h2.02714c.00479-.08675.01042-.17067.01705-.25182.04593-.5621.14449-1.07881.39178-1.56414.3835-.75265.99542-1.36457 1.74807-1.74807.48533-.24729 1.00204-.34585 1.56413-.39178.08116-.00663.16508-.01226.25183-.01705v-2.02714c0-.55228.44772-1 1-1z" fill="#801ed7" fill-rule="evenodd"/></svg>