<svg fill="none" height="24" viewBox="0 0 24 24" width="24" xmlns="http://www.w3.org/2000/svg"><g fill="#801ed7"><path d="m10 10.8c0-.28 0-.42.0545-.527.0479-.0941.1244-.1706.2185-.2185.107-.0545.247-.0545.527-.0545h2.4c.28 0 .42 0 .527.0545.0941.0479.1706.1244.2185.2185.0545.107.0545.247.0545.527v2.4c0 .28 0 .42-.0545.527-.0479.0941-.1244.1706-.2185.2185-.107.0545-.247.0545-.527.0545h-2.4c-.28 0-.42 0-.527-.0545-.0941-.0479-.1706-.1244-.2185-.2185-.0545-.107-.0545-.247-.0545-.527z"/><path clip-rule="evenodd" d="m10 2c0-.55228-.44771-1-1-1-.55228 0-1 .44772-1 1v1.00163c-.47546.00326-.89102.01309-1.25183.04256-.56209.04593-1.0788.14449-1.56413.39178-.75265.3835-1.36457.99542-1.74807 1.74807-.24729.48533-.34585 1.00204-.39178 1.56413-.02947.36081-.0393.77637-.04256 1.25183h-1.00163c-.55228 0-1 .44772-1 1 0 .55229.44772 1 1 1h1v3h-1c-.55228 0-1 .4477-1 1s.44772 1 1 1h1v.2413c-.00001.805-.00002 1.4693.04419 2.0105.04593.5621.14449 1.0788.39178 1.5642.3835.7526.99542 1.3645 1.74807 1.748.48533.2473 1.00204.3459 1.56413.3918.36081.0295.77637.0393 1.25183.0426v1.0016c0 .5523.44772 1 1 1 .55229 0 1-.4477 1-1v-1h4v1c0 .5523.4477 1 1 1s1-.4477 1-1v-1.0016c.4755-.0033.891-.0131 1.2518-.0426.5621-.0459 1.0788-.1445 1.5642-.3918.7526-.3835 1.3645-.9954 1.748-1.748.2473-.4854.3459-1.0021.3918-1.5642.0442-.5412.0442-1.2055.0442-2.0105v-.2413h1c.5523 0 1-.4477 1-1s-.4477-1-1-1h-1v-3h1c.5523 0 1-.44771 1-1 0-.55228-.4477-1-1-1h-1.0016c-.0033-.47546-.0131-.89102-.0426-1.25183-.0459-.56209-.1445-1.0788-.3918-1.56413-.3835-.75265-.9954-1.36457-1.748-1.74807-.4854-.24729-1.0021-.34585-1.5642-.39178-.3608-.02947-.7763-.0393-1.2518-.04256v-1.00163c0-.55228-.4477-1-1-1s-1 .44772-1 1v1h-4zm.5681 6c-.2524-.00003-.4982-.00006-.70632.01695-.2286.01868-.49833.06274-.76976.20104-.37632.19175-.68228.49771-.87403.87403-.1383.27143-.18236.54116-.20104.76976-.01701.20812-.01698.45392-.01695.70632v2.8638c-.00003.2524-.00006.4982.01695.7063.01868.2286.06274.4984.20104.7698.19175.3763.49771.6823.87403.874.27143.1383.54116.1824.76976.2011.20812.017.45392.0169.70632.0169h2.8638c.2524 0 .4982.0001.7063-.0169.2286-.0187.4984-.0628.7698-.2011.3763-.1917.6823-.4977.874-.874.1383-.2714.1824-.5412.2011-.7698.017-.2081.0169-.4539.0169-.7063v-2.8638c0-.2524.0001-.4982-.0169-.70632-.0187-.2286-.0628-.49833-.2011-.76976-.1917-.37632-.4977-.68228-.874-.87403-.2714-.1383-.5412-.18236-.7698-.20104-.2081-.01701-.4539-.01698-.7063-.01695z" fill-rule="evenodd"/></g></svg>