<svg fill="none" height="24" viewBox="0 0 24 24" width="24" xmlns="http://www.w3.org/2000/svg"><g fill="#801ed7"><path d="m20.1496 13.1998 2.1869.7814c.3979.1422.6635.5191.6635.9417v2.5023c0 1.5391-1.0564 2.6899-1.8595 3.3597-.4264.3556-.8476.6312-1.1599.8172-.1573.0937-.2897.1664-.385.2167-.0538.0284-.1081.0558-.1627.0827l-.0015.0006-.0011.0006c-.2722.1297-.5889.1295-.8611-.0003-.0553-.0271-.1103-.0549-.1648-.0836-.0953-.0503-.2277-.123-.385-.2167-.3123-.186-.7335-.4616-1.1599-.8172-.803-.6698-1.8595-1.8206-1.8595-3.3597v-2.5023c0-.4225.2655-.7994.6633-.9416l2.1859-.7815c.7432-.2661 1.5572-.2661 2.3004 0z"/><path d="m18.8385 3h-13.67704c-.5271-.00002-.98193-.00003-1.35648.03057-.39535.0323-.78857.10362-1.16695.29641-.56448.28762-1.02343.74657-1.31105 1.31105-.19279.37838-.26411.7716-.29641 1.16695-.030598.37454-.030585.8293-.03057 1.3564 0 .46314.37545.83862.83859.83862h20.32281c.4632 0 .8386-.37544.8386-.83856 0-.52714 0-.9819-.0306-1.35646-.0323-.39535-.1036-.78857-.2964-1.16695-.2876-.56448-.7465-1.02342-1.311-1.31104-.3784-.1928-.7716-.26411-1.167-.29642-.3745-.0306-.8293-.03058-1.3565-.03057z"/><path d="m1.54601 10.109c.21391-.109.49394-.109 1.05399-.109h18.8c.5601 0 .8401 0 1.054.109.1882.0959.3411.2488.437.437.109.2139.109.494.109 1.054 0 .2408-.2385.4088-.4653.3278l-1.7121-.6118c-1.1784-.4215-2.4689-.4213-3.6475.0004l-2.1851.7812c-1.1934.4267-1.99 1.5574-1.99 2.8249v2.5024c0 .1766.0085.3491.0247.5174.0407.4247.0611.637.0109.7544-.0495.1157-.1095.1817-.22.2421-.112.0612-.295.0612-.6608.0612h-6.99351c-.527 0-.98182 0-1.35631-.0306-.39535-.0323-.78857-.1036-1.16695-.2964-.56448-.2876-1.02343-.7465-1.31105-1.311-.19279-.3784-.26411-.7716-.29641-1.167-.030598-.3745-.030585-.8293-.03057-1.3564v-3.2386c0-.5601 0-.8401.10899-1.054.09588-.1882.24886-.3411.43702-.437z"/></g></svg>