<svg fill="none" height="24" viewBox="0 0 24 24" width="24" xmlns="http://www.w3.org/2000/svg"><g fill="#801ed7"><path clip-rule="evenodd" d="m18.5 13c-1.5188 0-2.75 1.2312-2.75 2.75v.778c-.2025.024-.4296.0736-.658.19-.3763.1917-.6823.4977-.874.874-.1383.2714-.1824.5412-.201.7698-.0171.2081-.017.4539-.017.7063v.8638c0 .2524-.0001.4982.017.7063.0186.2286.0627.4984.201.7698.1917.3763.4977.6823.874.874.2714.1383.5412.1824.7698.2011.2081.017.4539.0169.7063.0169h3.8638c.2524 0 .4982.0001.7063-.0169.2286-.0187.4984-.0628.7698-.2011.3763-.1917.6823-.4977.874-.874.1383-.2714.1824-.5412.2011-.7698.017-.2081.0169-.4539.0169-.7063v-.8638c0-.2524.0001-.4982-.0169-.7063-.0187-.2286-.0628-.4984-.2011-.7698-.1917-.3763-.4977-.6823-.874-.874-.2284-.1164-.4555-.166-.658-.19v-.778c0-1.5188-1.2312-2.75-2.75-2.75zm.75 3.5v-.75c0-.4142-.3358-.75-.75-.75s-.75.3358-.75.75v.75z" fill-rule="evenodd"/><path d="m5.16146 2h13.67704c.5272-.00001.982-.00003 1.3565.03057.3954.03231.7886.10362 1.167.29642.5645.28762 1.0234.74656 1.311 1.31104.1928.37838.2641.7716.2964 1.16695.0306.37456.0306.82932.0306 1.35646 0 .46312-.3754.83856-.8386.83856h-20.32281c-.46314 0-.83859-.37545-.83859-.83859-.000015-.5271-.000028-.98189.03057-1.35643.0323-.39535.10362-.78857.29641-1.16695.28762-.56448.74657-1.02343 1.31105-1.31105.37838-.19279.7716-.26411 1.16695-.29641.37455-.0306.82938-.03059 1.35648-.03057z"/><path d="m2.6 9c-.56005 0-.84008 0-1.05399.10899-.18816.09588-.34114.24886-.43702.43702-.10899.21391-.10899.49389-.10899 1.05399v3.2385c-.000015.5271-.000028.982.03057 1.3565.0323.3954.10362.7886.29641 1.167.28762.5645.74657 1.0234 1.31105 1.311.37838.1928.7716.2641 1.16695.2964.37448.0306.82912.0306 1.35612.0306h6.1737c.2461 0 .3691 0 .4592-.0364.0902-.0364.1421-.075.203-.151.0607-.0758.1038-.2192.1898-.5059.0593-.1974.1396-.4075.2492-.6226.3132-.6148.7789-1.1357 1.3492-1.5149.2864-2.3494 2.2881-4.1692 4.7148-4.1692 1.5776 0 2.9756.7691 3.8395 1.9529.2842.3894.4262.5841.4845.5951.0568.0107.0979-.0027.1373-.0448.0406-.0433.0406-.2678.0405-.7169-.0002-.7288-.0018-1.4575-.0018-2.1863 0-.56 0-.84008-.109-1.05399-.0959-.18816-.2488-.34114-.437-.43702-.2139-.10899-.4939-.10899-1.054-.10899z"/></g></svg>