<svg fill="none" height="24" viewBox="0 0 24 24" width="24" xmlns="http://www.w3.org/2000/svg"><g fill="#801ed7"><path d="m17.2071 15.2929c-.3905-.3905-1.0237-.3905-1.4142 0s-.3905 1.0237 0 1.4142l1.7929 1.7929-1.7929 1.7929c-.3905.3905-.3905 1.0237 0 1.4142s1.0237.3905 1.4142 0l1.7929-1.7929 1.7929 1.7929c.3905.3905 1.0237.3905 1.4142 0s.3905-1.0237 0-1.4142l-1.7929-1.7929 1.7929-1.7929c.3905-.3905.3905-1.0237 0-1.4142s-1.0237-.3905-1.4142 0l-1.7929 1.7929z"/><path d="m5.16146 4h13.67704c.5272-.00001.982-.00003 1.3565.03057.3954.03231.7886.10362 1.167.29642.5645.28762 1.0234.74656 1.311 1.31104.1928.37838.2641.7716.2964 1.16695.0306.37456.0306.82932.0306 1.35646 0 .46312-.3754.83856-.8386.83856h-20.32281c-.46314 0-.83859-.37545-.83859-.83859-.000015-.5271-.000028-.98189.03057-1.35643.0323-.39535.10362-.78857.29641-1.16695.28762-.56448.74657-1.02343 1.31105-1.31105.37838-.19279.7716-.26411 1.16695-.29641.37455-.0306.82937-.03059 1.35648-.03057z"/><path d="m2.6 11c-.56005 0-.84008 0-1.05399.109-.18816.0959-.34114.2488-.43702.437-.10899.2139-.10899.4939-.10899 1.054v3.2385c-.000015.5271-.000028.982.03057 1.3565.0323.3954.10362.7886.29641 1.167.28762.5645.74657 1.0234 1.31105 1.311.37838.1928.7716.2641 1.16695.2964.37451.0306.82918.0306 1.35622.0306h7.9435c.1973 0 .2959 0 .3708-.0242.0786-.0254.1179-.048.1795-.1029.0587-.0525.1237-.1636.2536-.3858.127-.2173.2837-.4221.4701-.6084l.3787-.3787-.3787-.3787c-1.1716-1.1716-1.1716-3.071 0-4.2426s3.071-1.1716 4.2426 0l.3787.3787.3787-.3787c.7811-.7811 1.8857-1.0414 2.8824-.781.3444.0899.7389-.1418.7389-.4977 0-.56 0-.8401-.109-1.054-.0959-.1882-.2488-.3411-.437-.437-.2139-.109-.4939-.109-1.054-.109z"/></g></svg>