<svg fill="none" height="24" viewBox="0 0 24 24" width="24" xmlns="http://www.w3.org/2000/svg"><g fill="#801ed7"><path clip-rule="evenodd" d="m19.2929 13.2929c.9428-.9428 2.4714-.9428 3.4142 0s.9428 2.4714 0 3.4142l-4.1574 4.1575c-.0086.0085-.0174.0174-.0265.0264-.099.0995-.2239.2248-.3721.3282-.1288.0898-.2677.1642-.4138.2215-.1683.066-.3418.1003-.4795.1276-.0126.0025-.0248.0049-.0367.0073l-2.025.405c-.3278.0656-.6668-.0371-.9032-.2735s-.3391-.5754-.2735-.9032l.405-2.025c.0024-.0119.0048-.0241.0073-.0367.0273-.1377.0616-.3112.1276-.4795.0573-.1461.1317-.285.2215-.4138.1034-.1482.2287-.273.3282-.3721.009-.0091.0179-.0179.0264-.0265z" fill-rule="evenodd"/><path d="m18.8385 4h-13.67704c-.52711-.00002-.98193-.00003-1.35648.03057-.39535.0323-.78857.10362-1.16695.29641-.56448.28762-1.02343.74657-1.31105 1.31105-.19279.37838-.26411.7716-.29641 1.16695-.030598.37454-.030585.8293-.03057 1.3564 0 .46314.37545.83862.83859.83862h20.32281c.4632 0 .8386-.37544.8386-.83856 0-.52714 0-.9819-.0306-1.35646-.0323-.39535-.1036-.78857-.2964-1.16695-.2876-.56448-.7465-1.02342-1.311-1.31104-.3784-.1928-.7716-.26411-1.167-.29642-.3745-.0306-.8293-.03058-1.3565-.03057z"/><path d="m1.54601 11.109c.21391-.109.49394-.109 1.05399-.109h14.9932c.3653 0 .5437.6206.2855.8788l-4.1575 4.1575-.019.0188c-.0847.0832-.3451.339-.5619.6499-.1796.2575-.3283.5353-.4429.8276-.1384.3528-.2068.7113-.2291.8279l-.0051.0263-.194.9701c-.0458.2291-.0687.3436-.1285.4293-.0527.0755-.1253.1351-.2098.172-.0957.0418-.2125.0418-.4461.0418h-6.32351c-.52705 0-.9818 0-1.35631-.0306-.39535-.0323-.78857-.1036-1.16695-.2964-.56448-.2876-1.02343-.7465-1.31105-1.311-.19279-.3784-.26411-.7716-.29641-1.167-.030598-.3745-.030585-.8293-.03057-1.3564v-3.2386c0-.5601 0-.8401.10899-1.054.09588-.1882.24886-.3411.43702-.437z"/></g></svg>