<svg fill="none" height="24" viewBox="0 0 24 24" width="24" xmlns="http://www.w3.org/2000/svg"><g fill="#801ed7"><path clip-rule="evenodd" d="m18 14.5c-2.4853 0-4.5 2.0147-4.5 4.5s2.0147 4.5 4.5 4.5c.8805 0 1.702-.2529 2.3957-.69l.8972.8971c.3905.3905 1.0237.3905 1.4142 0s.3905-1.0237 0-1.4142l-.8971-.8972c.4371-.6937.69-1.5152.69-2.3957 0-2.4853-2.0147-4.5-4.5-4.5zm-2.5 4.5c0-1.3807 1.1193-2.5 2.5-2.5s2.5 1.1193 2.5 2.5-1.1193 2.5-2.5 2.5-2.5-1.1193-2.5-2.5z" fill-rule="evenodd"/><path d="m5.16146 3h13.67704c.5272-.00001.982-.00003 1.3565.03057.3954.03231.7886.10362 1.167.29642.5645.28762 1.0234.74656 1.311 1.31104.1928.37838.2641.7716.2964 1.16695.0306.37456.0306.82932.0306 1.35646 0 .46312-.3754.83856-.8386.83856h-20.32281c-.46314 0-.83859-.37545-.83859-.83859-.000015-.5271-.000028-.98189.03057-1.35644.0323-.39534.10362-.78856.29641-1.16694.28762-.56449.74657-1.02343 1.31105-1.31105.37838-.19279.7716-.26411 1.16695-.29641.37455-.0306.82936-.03059 1.35648-.03057z"/><path d="m2.6 10c-.56005 0-.84008 0-1.05399.109-.18816.0959-.34114.2488-.43702.437-.10899.2139-.10899.4939-.10899 1.054v3.2385c-.000015.5271-.000028.982.03057 1.3565.0323.3954.10362.7886.29641 1.167.28762.5645.74657 1.0234 1.31105 1.311.37838.1928.7716.2641 1.16695.2964.37449.0306.82915.0306 1.35617.0306h5.53885c.2791 0 .4187 0 .5188-.0465.0958-.0445.1582-.0997.214-.1894.0583-.0937.0775-.25.1158-.5626.3935-3.2131 3.1319-5.7015 6.4514-5.7015 1.6125 0 3.0879.5872 4.224 1.5594.2873.2459.431.3689.5199.371.0833.002.1473-.0274.1999-.092.0562-.069.0562-.2455.0562-.5985v-2.1399c0-.5601 0-.8401-.109-1.054-.0959-.1882-.2488-.3411-.437-.437-.2139-.109-.4939-.109-1.054-.109z"/></g></svg>