<svg fill="none" height="24" viewBox="0 0 24 24" width="24" xmlns="http://www.w3.org/2000/svg"><path clip-rule="evenodd" d="m10.2929 1.29289c.3905-.390521 1.0237-.390521 1.4142 0l2 2c.1953.19527.2929.45119.2929.70711h-2.4142l-1.2929-1.29289c-.39053-.39053-.39053-1.02369 0-1.41422zm1.2929 2.70711-1.2929 1.29289c-.39053.39053-.39053 1.02369 0 1.41422.3905.39052 1.0237.39052 1.4142 0l2-2c.1953-.19526.2929-.45119.2929-.70711h4.8385c.5272-.00001.982-.00003 1.3565.03057.3954.03231.7886.10362 1.167.29642.5645.28762 1.0234.74656 1.311 1.31104.1928.37838.2641.7716.2964 1.16695.0306.37456.0306.82932.0306 1.35646 0 .46312-.3754.83856-.8386.83856h-20.32281c-.46314 0-.83859-.37545-.83859-.83859-.000015-.5271-.000028-.98189.03057-1.35644.0323-.39534.10362-.78856.29641-1.16694.28762-.56448.74657-1.02343 1.31105-1.31105.37838-.19279.7716-.26411 1.16695-.29641.37455-.0306.82936-.03059 1.35648-.03057zm2.1213 13.2929c.3905.3905.3905 1.0237 0 1.4142l-1.2929 1.2929h-2.4142c0-.2559.0976-.5118.2929-.7071l2-2c.3905-.3905 1.0237-.3905 1.4142 0zm-3.7071 2.7071h-4.83871c-.527 0-.98182 0-1.35631-.0306-.39535-.0323-.78857-.1036-1.16695-.2964-.56448-.2876-1.02343-.7465-1.31105-1.311-.19279-.3784-.26411-.7716-.29641-1.167-.030598-.3745-.030585-.8293-.03057-1.3564v-3.2386c0-.5601 0-.8401.10899-1.054.09588-.1882.24886-.3411.43702-.437.21391-.109.49394-.109 1.05399-.109h18.8c.5601 0 .8401 0 1.054.109.1882.0959.3411.2488.437.437.109.2139.109.4939.109 1.054v3.2386c0 .5271 0 .9819-.0306 1.3564-.0323.3954-.1036.7886-.2964 1.167-.2876.5645-.7465 1.0234-1.311 1.311-.3784.1928-.7716.2641-1.167.2964-.3745.0306-.8293.0306-1.3564.0306h-6.4244l1.2929 1.2929c.3905.3905.3905 1.0237 0 1.4142s-1.0237.3905-1.4142 0l-2-2c-.1953-.1953-.2929-.4512-.2929-.7071z" fill="#801ed7" fill-rule="evenodd"/></svg>