<svg fill="none" height="24" viewBox="0 0 24 24" width="24" xmlns="http://www.w3.org/2000/svg"><g fill="#801ed7"><path d="m7 2c0-.55228-.44771-1-1-1-.55228 0-1 .44772-1 1v3h-3c-.55228 0-1 .44772-1 1s.44772 1 1 1h3v7.8385c-.00002.5272-.00003.982.03057 1.3565.0323.3954.10362.7886.29641 1.167.28762.5645.74656 1.0234 1.31105 1.311.37838.1928.7716.2641 1.16694.2964.37457.0306.82933.0306 1.35647.0306h7.83856v3c0 .5523.4477 1 1 1s1-.4477 1-1v-3h3c.5523 0 1-.4477 1-1s-.4477-1-1-1h-12.8c-.57655 0-.94883-.0008-1.23216-.0239-.27167-.0222-.37238-.0599-.42183-.0851-.18816-.0959-.34114-.2488-.43701-.437-.0252-.0495-.06288-.1502-.08507-.4218-.02315-.2834-.02393-.6556-.02393-1.2322z"/><path d="m14.8 7c.5766 0 .9488.00078 1.2322.02393.2716.02219.3723.05987.4218.08507.1882.09587.3411.24885.437.43701.0252.04945.0629.15016.0851.42183.0231.28333.0239.65561.0239 1.23216v4.8c0 .5523.4477 1 1 1s1-.4477 1-1v-4.83852c0-.52716 0-.98193-.0306-1.35651-.0323-.39534-.1036-.78856-.2964-1.16694-.2876-.56449-.7465-1.02343-1.311-1.31105-.3784-.19279-.7716-.26411-1.167-.29641-.3745-.0306-.8293-.03059-1.3565-.03057h-4.8385c-.55229 0-1 .44772-1 1 0 .55229.44771 1 1 1z"/></g></svg>