<svg fill="none" height="24" viewBox="0 0 24 24" width="24" xmlns="http://www.w3.org/2000/svg"><path clip-rule="evenodd" d="m7 2c0-.55228-.44771-1-1-1-.55228 0-1 .44772-1 1v3h-3c-.55228 0-1 .44772-1 1 0 .55229.44772 1 1 1h3v7.8385c-.00002.5272-.00003.982.03057 1.3565.0323.3954.10362.7886.29641 1.167.28762.5645.74656 1.0234 1.31105 1.311.37838.1928.7716.2641 1.16694.2964.37457.0306.82933.0306 1.35647.0306h7.83856v3c0 .5523.4477 1 1 1s1-.4477 1-1v-3h3c.5523 0 1-.4477 1-1s-.4477-1-1-1h-3v-7.83856c0-.52714 0-.9819-.0306-1.35647-.0323-.39534-.1036-.78856-.2964-1.16694-.2876-.56449-.7465-1.02343-1.311-1.31105-.3784-.19279-.7716-.26411-1.167-.29641-.3745-.0306-.8293-.03059-1.3565-.03057h-7.8385zm0 5v7.8c0 .5766.00078.9488.02393 1.2322.02219.2716.05987.3723.08507.4218.09587.1882.24885.3411.43701.437.04945.0252.15016.0629.42183.0851.28333.0231.65561.0239 1.23216.0239h7.8v-7.8c0-.57655-.0008-.94883-.0239-1.23216-.0222-.27167-.0599-.37238-.0851-.42183-.0959-.18816-.2488-.34114-.437-.43701-.0495-.0252-.1502-.06288-.4218-.08507-.2834-.02315-.6556-.02393-1.2322-.02393z" fill="#801ed7" fill-rule="evenodd"/></svg>