<svg fill="none" height="24" viewBox="0 0 24 24" width="24" xmlns="http://www.w3.org/2000/svg"><g fill="#801ed7"><path d="m2.70711 1.29289c-.39053-.390521-1.02369-.390521-1.41422 0-.390521.39053-.390521 1.02369 0 1.41422l2 2c.39053.39052 1.02369.39052 1.41422 0 .39052-.39053.39052-1.02369 0-1.41422z"/><path d="m9 2c0-.55228-.44772-1-1-1s-1 .44772-1 1v1.5c0 .55228.44772 1 1 1s1-.44772 1-1z"/><path d="m22.7071 1.29289c-.3905-.390521-1.0237-.390521-1.4142 0l-2 2c-.3905.39053-.3905 1.02369 0 1.41422.3905.39052 1.0237.39052 1.4142 0l2-2c.3905-.39053.3905-1.02369 0-1.41422z"/><path d="m20.5 7c-.5523 0-1 .44772-1 1s.4477 1 1 1h1.5c.5523 0 1-.44772 1-1s-.4477-1-1-1z"/><path d="m2 17h1.5c.55228 0 1-.4477 1-1s-.44772-1-1-1h-1.5c-.55228 0-1 .4477-1 1s.44772 1 1 1z"/><path d="m4.70711 20.7071c.39052-.3905.39052-1.0237 0-1.4142-.39053-.3905-1.02369-.3905-1.41422 0l-2 2c-.390521.3905-.390521 1.0237 0 1.4142.39053.3905 1.02369.3905 1.41422 0z"/><path d="m20.7071 19.2929c-.3905-.3905-1.0237-.3905-1.4142 0s-.3905 1.0237 0 1.4142l2 2c.3905.3905 1.0237.3905 1.4142 0s.3905-1.0237 0-1.4142z"/><path d="m17 20.5c0-.5523-.4477-1-1-1s-1 .4477-1 1v1.5c0 .5523.4477 1 1 1s1-.4477 1-1z"/><path d="m18 15c-.5523 0-1 .4477-1 1s.4477 1 1 1h3.5c.5523 0 1-.4477 1-1s-.4477-1-1-1z"/><path d="m17 2v4c0 .55228-.4477 1-1 1s-1-.44772-1-1v-4c0-.55228.4477-1 1-1s1 .44772 1 1z"/><path d="m2 7c-.55228 0-1 .44772-1 1s.44772 1 1 1h4c.55228 0 1-.44772 1-1s-.44772-1-1-1z"/><path d="m8 17c.55228 0 1 .4477 1 1v4c0 .5523-.44772 1-1 1s-1-.4477-1-1v-4c0-.5523.44772-1 1-1z"/><path d="m12.4635 6.28045c-.3013-.09789-.6258-.09789-.927 0-.2327.07558-.4013.20113-.5123.29542-.0959.08137-.1964.18199-.2806.26625l-3.90141 3.90138c-.08425.0842-.18488.1847-.26626.2806-.09429.1111-.21984.2797-.29542.5123-.09789.3013-.09789.6258 0 .927.07558.2327.20113.4013.29543.5124.08137.0958.18199.1964.26625.2806l3.90131 3.9013c.0842.0843.1848.1849.2807.2663.111.0943.2796.2198.5123.2954.3012.0979.6257.0979.927 0 .2326-.0756.4012-.2011.5123-.2954.0959-.0814.1964-.182.2806-.2663l3.9014-3.9013c.0842-.0842.1849-.1848.2662-.2806.0943-.1111.2199-.2797.2955-.5124.0979-.3012.0979-.6257 0-.927-.0756-.2326-.2012-.4012-.2955-.5123-.0813-.0959-.182-.1964-.2662-.2806l-3.9014-3.90136c-.0842-.08426-.1847-.18489-.2806-.26627-.1111-.09429-.2797-.21984-.5123-.29542z"/></g></svg>