<svg fill="none" height="24" viewBox="0 0 24 24" width="24" xmlns="http://www.w3.org/2000/svg"><g fill="#801ed7"><path d="m8.05476 3.91074c.49639-.24211.70253-.84078.46043-1.33717-.24211-.49639-.84078-.70252-1.33717-.46042-2.08787 1.01832-3.79977 2.67149-4.89034 4.72255s-1.50382 4.3947-1.18052 6.6951c.07686.5469.58253.9279 1.12944.8511.54691-.0769.92795-.5825.85109-1.1295-.26451-1.8821.0736-3.79962.96589-5.47776.89228-1.67814 2.29292-3.03073 4.00118-3.8639z"/><path d="m15.4849 2.57357c.2421-.49639.8408-.70252 1.3372-.46042 2.0879 1.01832 3.7998 2.67149 4.8903 4.72255 1.0906 2.05106 1.5038 4.3947 1.1805 6.6951-.0768.5469-.5825.9279-1.1294.8511-.5469-.0769-.9279-.5825-.8511-1.1295.2645-1.8821-.0736-3.79962-.9659-5.47776s-2.2929-3.03073-4.0012-3.8639c-.4964-.24211-.7025-.84078-.4604-1.33717z"/><path d="m5.31312 19.5026c.32463-.4468.95-.5458 1.39681-.2212 1.53762 1.1171 3.38947 1.7188 5.29007 1.7188s3.7524-.6017 5.2901-1.7188c.4468-.3246 1.0721-.2256 1.3968.2212.3246.4468.2255 1.0722-.2213 1.3968-1.8793 1.3654-4.1426 2.1008-6.4656 2.1008-2.32298 0-4.58632-.7354-6.46564-2.1008-.44681-.3246-.54586-.95-.22124-1.3968z"/><path d="m12 5.5c-3.58985 0-6.5 2.91015-6.5 6.5 0 3.5899 2.91015 6.5 6.5 6.5 3.5899 0 6.5-2.9101 6.5-6.5 0-3.58985-2.9101-6.5-6.5-6.5z"/></g></svg>