<svg fill="none" height="24" viewBox="0 0 24 24" width="24" xmlns="http://www.w3.org/2000/svg"><g fill="#801ed7"><path d="m1.29289 1.29289c.39053-.390521 1.02369-.390521 1.41422 0l2 2c.39052.39053.39052 1.02369 0 1.41422-.39053.39052-1.02369.39052-1.41422 0l-2-2c-.390521-.39053-.390521-1.02369 0-1.41422z"/><path d="m8 1c.55228 0 1 .44772 1 1v1.5c0 .55228-.44772 1-1 1s-1-.44772-1-1v-1.5c0-.55228.44772-1 1-1z"/><path d="m21.2929 1.29289c.3905-.390521 1.0237-.390521 1.4142 0 .3905.39053.3905 1.02369 0 1.41422l-2 2c-.3905.39052-1.0237.39052-1.4142 0-.3905-.39053-.3905-1.02369 0-1.41422z"/><path d="m19.5 8c0-.55228.4477-1 1-1h1.5c.5523 0 1 .44772 1 1s-.4477 1-1 1h-1.5c-.5523 0-1-.44772-1-1z"/><path d="m3.5 17h-1.5c-.55228 0-1-.4477-1-1s.44772-1 1-1h1.5c.55228 0 1 .4477 1 1s-.44772 1-1 1z"/><path d="m4.70711 19.2929c.39052.3905.39052 1.0237 0 1.4142l-2 2c-.39053.3905-1.02369.3905-1.41422 0-.390521-.3905-.390521-1.0237 0-1.4142l2-2c.39053-.3905 1.02369-.3905 1.41422 0z"/><path d="m19.2929 19.2929c.3905-.3905 1.0237-.3905 1.4142 0l2 2c.3905.3905.3905 1.0237 0 1.4142s-1.0237.3905-1.4142 0l-2-2c-.3905-.3905-.3905-1.0237 0-1.4142z"/><path d="m16 19.5c.5523 0 1 .4477 1 1v1.5c0 .5523-.4477 1-1 1s-1-.4477-1-1v-1.5c0-.5523.4477-1 1-1z"/><path d="m17 16c0-.5523.4477-1 1-1h3.5c.5523 0 1 .4477 1 1s-.4477 1-1 1h-3.5c-.5523 0-1-.4477-1-1z"/><path d="m17 6v-4c0-.55228-.4477-1-1-1s-1 .44772-1 1v4c0 .55228.4477 1 1 1s1-.44772 1-1z"/><path d="m1 8c0-.55228.44772-1 1-1h4c.55228 0 1 .44772 1 1s-.44772 1-1 1h-4c-.55228 0-1-.44772-1-1z"/><path d="m9 18c0-.5523-.44772-1-1-1s-1 .4477-1 1v4c0 .5523.44772 1 1 1s1-.4477 1-1z"/><path d="m12 7c-2.76142 0-5 2.23858-5 5 0 2.7614 2.23858 5 5 5 2.7614 0 5-2.2386 5-5 0-2.76142-2.2386-5-5-5z"/></g></svg>