<svg fill="none" height="24" viewBox="0 0 24 24" width="24" xmlns="http://www.w3.org/2000/svg"><g fill="#801ed7"><path d="m12.4029 1.18505c-.2658-.05467-.54-.05467-.8058 0-.3073.06319-.5819.21702-.8003.33931l-.0595.03325-1.47294.81832c-.48278.26821-.65673.87701-.38851 1.3598.26821.48278.87701.65672 1.35975.38851l1.473-.81832c.1516-.08419.2289-.12672.2866-.15456l.0048-.00229.0048.00229c.0577.02784.135.07037.2866.15456l1.473.81832c.4827.26821 1.0915.09427 1.3598-.38851.2682-.48279.0942-1.09159-.3886-1.3598l-1.4729-.81832-.0595-.03325c-.2184-.12229-.493-.27612-.8003-.33931z"/><path d="m19.2356 4.87593c-.4827-.26822-1.0915-.09427-1.3598.38851-.2682.48279-.0942 1.09159.3886 1.3598l.6764.37579-.6764.37575c-.4828.26821-.6567.87702-.3885 1.3598s.877.65673 1.3598.38851l.7643-.42461v.8006c0 .55232.4477 1.00002 1 1.00002s1-.4477 1-1.00002v-1.55855l.0002-.07213c.0006-.18278.0014-.39814-.0325-.61718.0627-.24015.0366-.50384-.0935-.73792-.1387-.24971-.3685-.41679-.6249-.48281-.1749-.13592-.3635-.23976-.5235-.32789l-.0631-.03488z"/><path d="m5.73565 6.62424c.48278-.26821.65672-.87701.38851-1.3598-.26821-.48278-.87702-.65672-1.3598-.38851l-1.42703.79279-.06314.03488c-.16003.08814-.34858.19199-.52351.32793-.25632.06605-.48608.23312-.62478.48277-.12999.23399-.15612.49758-.09356.73765-.03397.21913-.03318.4346-.03252.61745l.00018.07213v1.55856c0 .55231.44772 1.00001 1 1.00001.55229 0 1-.4477 1-1.00001v-.80067l.76442.42467c.48278.26822 1.09158.09427 1.3598-.38851.26821-.48278.09427-1.09159-.38852-1.3598l-.67641-.37578z"/><path d="m4 14.5001c0-.5523-.44771-1-1-1-.55228 0-1 .4477-1 1v1.5585l-.00018.0722c-.00096.2638-.00217.5956.10115.9083.08933.2704.23535.5185.4283.7279.22316.2422.51376.4022.74489.5296l.06317.0348 1.42703.7928c.48278.2683 1.09159.0943 1.3598-.3885s.09427-1.0916-.38851-1.3598l-1.42703-.7928c-.15996-.0888-.24162-.1347-.29892-.1712l-.00483-.0031-.00037-.0057c-.00408-.0678-.0045-.1615-.0045-.3445z"/><path d="m22 14.5001c0-.5523-.4477-1-1-1s-1 .4477-1 1v1.5585c0 .183-.0004.2767-.0045.3445l-.0004.0057-.0048.0031c-.0573.0365-.139.0824-.2989.1712l-1.427.7928c-.4828.2682-.6568.877-.3886 1.3598.2683.4828.8771.6568 1.3598.3885l1.4271-.7928.0631-.0348c.2311-.1273.5218-.2874.7449-.5296.193-.2094.339-.4575.4283-.7279.1034-.3127.1021-.6445.1012-.9083l-.0002-.0722z"/><path d="m10.2356 19.8759c-.48274-.2682-1.09154-.0942-1.35975.3885-.26822.4828-.09427 1.0916.38851 1.3598l1.47294.8184.0595.0332c.1504.0842.3275.1834.5236.2577.1784.1653.4172.2664.6797.2664.2624 0 .5013-.1011.6797-.2665.196-.0742.373-.1734.5234-.2576l.0595-.0332 1.4729-.8184c.4828-.2682.6568-.877.3886-1.3598-.2683-.4827-.8771-.6567-1.3598-.3885l-.7643.4246v-.8006c0-.5522-.4478-1-1-1-.5523 0-1 .4478-1 1v.8007z"/><path d="m10.2357 9.87578c-.48278-.26821-1.09158-.09427-1.3598.38852-.26821.4828-.09427 1.0916.38852 1.3598l1.73568.9642v1.9116c0 .5523.4477 1 1 1 .5522 0 1-.4477 1-1v-1.9116l1.7356-.9642c.4828-.2682.6567-.877.3885-1.3598-.2682-.48279-.877-.65673-1.3598-.38852l-1.7643.98022z"/></g></svg>