<svg fill="none" height="24" viewBox="0 0 24 24" width="24" xmlns="http://www.w3.org/2000/svg"><g fill="#801ed7"><path d="m19.7302 2.85561c.3149-.31495.0919-.85347-.3535-.85355l-10.96249-.00206c-.53043 0-1.03914.21071-1.41421.58579l-3.56066 3.56066c-.31498.31498-.0919.85355.35355.85355h11.58581c.1326 0 .2598-.05268.3535-.14645z"/><path d="m2.5 9c-.27614 0-.5.22386-.5.5v11c0 .8284.67157 1.5 1.5 1.5h11c.2761 0 .5-.2239.5-.5v-12c0-.27614-.2239-.5-.5-.5z"/><path d="m17 20.2071c0 .4455.5386.6685.8536.3536l3.5606-3.5607c.3751-.3751.5858-.8838.5858-1.4142l-.0021-10.96251c0-.44541-.5386-.66842-.8535-.35346l-3.998 3.99794c-.0937.09377-.1464.22094-.1464.35355z"/></g></svg>