<svg fill="none" height="24" viewBox="0 0 24 24" width="24" xmlns="http://www.w3.org/2000/svg"><g fill="#801ed7"><path d="m7 2.58568-3.56066 3.56066c-.31498.31498-.0919.85355.35355.85355h3.20711z"/><path d="m9 6.99989v-4.99989l10.3767.00195c.4454.00008.6684.5386.3535.85355l-3.998 3.99794c-.0937.09377-.2209.14645-.3535.14645z"/><path d="m7 8.99989h-4.5c-.27614 0-.5.22386-.5.5l.00204 9.87671c.00009.4454.5386.6684.85355.3535l3.99796-3.998c.09377-.0937.14645-.2209.14645-.3535z"/><path d="m4.2698 21.1443c-.31494.3149-.09195.8535.35346.8536l9.87674.002c.2761 0 .5-.2239.5-.5v-4.5h-6.37868c-.13261 0-.25978.0527-.35355.1464z"/><path d="m15 14.9999h-5.5c-.27614 0-.5-.2239-.5-.5v-5.50001h5.5c.2761 0 .5.22386.5.5z"/><path d="m17 16.9999v3.2071c0 .4454.5386.6685.8536.3535l2.7071-2.7071c.3149-.3149.0919-.8535-.3536-.8535z"/><path d="m21.9998 14.4998c0 .2762-.2238.5001-.5.5001h-4.4998v-6.37869c0-.13261.0527-.25978.1464-.35355l3.998-3.99794c.3149-.31495.8535-.09195.8535.35346z"/></g></svg>