<svg fill="none" height="24" viewBox="0 0 24 24" width="24" xmlns="http://www.w3.org/2000/svg"><g fill="#801ed7"><path d="m11 2.26195c0-.38137-.4098-.62234-.743-.43693l-6.57098 3.65576c-.34267.19064-.34252.68357.00026.874l6.57092 3.65062c.3333.1851.7428-.05588.7428-.43712z"/><path d="m2.74319 8.11876c-.33334-.18519-.74297.05594-.74282.43727l.00269 7.12187c.00015.3812.40963.622.74282.4369l6.40832-3.5602c.3429-.1905.3429-.6836 0-.8741z"/><path d="m3.89259 17.7657c-.3429.1905-.3429.6836 0 .8741l6.36461 3.5359c.3333.1852.7428-.0558.7428-.437v-7.0719c0-.3812-.4095-.6222-.7428-.437z"/><path d="m13 21.7387c0 .3812.4096.6222.7429.437l6.3646-3.5359c.3429-.1905.3429-.6836 0-.8741l-6.3646-3.5359c-.3333-.1852-.7429.0558-.7429.437z"/><path d="m21.2542 16.1148c.3332.1851.7427-.0557.7428-.4369l.0027-7.12187c.0002-.38133-.4095-.62246-.7428-.43727l-6.411 3.56174c-.3429.1905-.3429.6836 0 .8741z"/><path d="m20.3138 6.35478c.3428-.19043.3429-.68336.0003-.87401l-6.571-3.65575c-.3332-.18542-.7431.05555-.7431.43693v7.30633c0 .38124.4096.62222.7429.43712z"/></g></svg>