<svg fill="none" height="24" viewBox="0 0 24 24" width="24" xmlns="http://www.w3.org/2000/svg"><path clip-rule="evenodd" d="m12 1c-6.07513 0-11 4.92487-11 11 0 6.0751 4.92487 11 11 11 6.0751 0 11-4.9249 11-11 0-6.07513-4.9249-11-11-11zm-4.5 5.5c0-.55228.44772-1 1-1h7c.5523 0 1 .44772 1 1s-.4477 1-1 1h-1.8407c.2805.4653.4703.97659.5753 1.5h1.2654c.5523 0 1 .44772 1 1 0 .5523-.4477 1-1 1h-1.2654c-.1485.7403-.4667 1.4564-.9713 2.0524-.5331.6297-1.2515 1.0965-2.1262 1.3132l3.4962 2.8605c.4274.3497.4904.9797.1407 1.4072-.3497.4274-.9798.4904-1.4072.1407l-5.49405-4.4951c-.01056-.0086-.02094-.0173-.03114-.0262-.10369-.0906-.18432-.1983-.24115-.3153-.06435-.1322-.10046-.2806-.10046-.4374v-.0012c.00002-.0334.00171-.0669.00509-.1003.02282-.2263.1211-.4304.26931-.5866.08052-.0851.17305-.1532.27277-.2037.13596-.0692.28993-.1082.45292-.1082h1.49991c.8223 0 1.3747-.312 1.7369-.7399.1828-.2159.3276-.4747.4288-.7601h-3.6657c-.55228 0-1-.4477-1-1 0-.55228.44772-1 1-1h3.6657c-.1012-.28539-.246-.54417-.4288-.76011-.3622-.42787-.9146-.73989-1.7369-.73989h-1.5c-.55228 0-1-.44772-1-1z" fill="#801ed7" fill-rule="evenodd"/></svg>