<svg fill="none" height="24" viewBox="0 0 24 24" width="24" xmlns="http://www.w3.org/2000/svg"><g fill="#801ed7"><path d="m15.5 14.25c0 .6904-.5596 1.25-1.25 1.25h-3.75v-2.5h3.75c.6904 0 1.25.5596 1.25 1.25z"/><path d="m13.75 8.5h-3.25v2.5h3.25c.6904 0 1.25-.5596 1.25-1.25 0-.69036-.5596-1.25-1.25-1.25z"/><path clip-rule="evenodd" d="m12 1c-6.07513 0-11 4.92487-11 11 0 6.0751 4.92487 11 11 11 6.0751 0 11-4.9249 11-11 0-6.07513-4.9249-11-11-11zm-2 4c.5523 0 1 .44772 1 1v.5h1v-.5c0-.55228.4477-1 1-1s1 .44772 1 1v.50947c1.6781.12766 3 1.52972 3 3.24053 0 .7509-.2546 1.4422-.6822 1.9925.722.5961 1.1822 1.4981 1.1822 2.5075 0 1.7949-1.4551 3.25-3.25 3.25h-.25v.5c0 .5523-.4477 1-1 1s-1-.4477-1-1v-.5h-1v.5c0 .5523-.4477 1-1 1-.55228 0-1-.4477-1-1v-.5h-1c-.55228 0-1-.4477-1-1s.44772-1 1-1h.5v-7h-.5c-.55228 0-1-.44772-1-1s.44772-1 1-1h1v-.5c0-.55228.44772-1 1-1z" fill-rule="evenodd"/></g></svg>