<svg fill="none" height="24" viewBox="0 0 24 24" width="24" xmlns="http://www.w3.org/2000/svg"><path d="m4.86956 2.72392c.42864-.34827 1.05844-.28312 1.40671.14552l5.72393 7.04478 5.7238-7.04478c.3483-.42864.9781-.49379 1.4067-.14552.4287.34826.4938.97807.1456 1.4067l-5.1751 6.36938h3.8988c.5523 0 1 .4477 1 1s-.4477 1-1 1h-5v2h4c.5523 0 1 .4477 1 1s-.4477 1-1 1h-4v4c0 .5523-.4477 1-1 1s-1-.4477-1-1v-4h-4c-.55228 0-1-.4477-1-1s.44772-1 1-1h4v-2h-5c-.55228 0-1-.4477-1-1s.44772-1 1-1h3.89916l-5.17512-6.36938c-.34827-.42863-.28311-1.05844.14552-1.4067z" fill="#801ed7"/></svg>