<svg fill="none" height="24" viewBox="0 0 24 24" width="24" xmlns="http://www.w3.org/2000/svg"><g fill="#801ed7"><path d="m12.7474 1.33564c-.1898-.21349-.4618-.33564-.7474-.33564-.2857 0-.5577.12215-.7474.33564l-8.00003 9.00016c-.23238.2614-.31127.6253-.20804.9595.10324.3342.37359.5902.71294.675l8.00003 1.9998c.1592.0399.3258.0399.485 0l8-2c.3394-.0848.6097-.3408.7129-.675.1033-.3342.0244-.698-.208-.9595z"/><path d="m5.72484 14.0257c-.42801-.0988-.87036.0933-1.09038.4735-.22001.3802-.16616.8594.13274 1.1813l6.5001 7c.1892.2038.4547.3196.7328.3196s.5436-.1158.7328-.3196l6.4999-7c.2989-.3219.3527-.8011.1327-1.1813s-.6624-.5723-1.0904-.4735l-6.2751 1.4481z"/></g></svg>