<svg fill="none" height="24" viewBox="0 0 24 24" width="24" xmlns="http://www.w3.org/2000/svg"><path d="m6.62407 9c1.15733-2.64886 3.80043-4.5 6.87593-4.5 1.8515 0 3.5441.66965 4.8526 1.78117.4209.35756 1.052.3062 1.4095-.11472.3576-.42092.3062-1.052-.1147-1.40955-1.6564-1.40708-3.8039-2.2569-6.1474-2.2569-4.19838 0-7.76067 2.72342-9.01659 6.5h-1.48341c-.55228 0-1 .44772-1 1 0 .5523.44772 1 1 1h1.052c-.03438.3286-.052.6623-.052 1s.01762.6714.052 1h-1.052c-.55228 0-1 .4477-1 1s.44772 1 1 1h1.48341c1.25592 3.7766 4.81821 6.5 9.01659 6.5 2.3435 0 4.491-.8498 6.1474-2.2569.4209-.3576.4723-.9886.1147-1.4095-.3575-.421-.9886-.4723-1.4095-.1148-1.3085 1.1116-3.0011 1.7812-4.8526 1.7812-3.0755 0-5.7186-1.8511-6.87593-4.5h6.37593c.5523 0 1-.4477 1-1s-.4477-1-1-1h-6.93391c-.04359-.3271-.06609-.6609-.06609-1s.0225-.6729.06609-1h6.93391c.5523 0 1-.4477 1-1 0-.55228-.4477-1-1-1z" fill="#801ed7"/></svg>