<svg fill="none" height="24" viewBox="0 0 24 24" width="24" xmlns="http://www.w3.org/2000/svg"><path clip-rule="evenodd" d="m12 1c-6.07513 0-11 4.92487-11 11 0 6.0751 4.92487 11 11 11 6.0751 0 11-4.9249 11-11 0-6.07513-4.9249-11-11-11zm-4 11c0-.1693.01052-.3362.03095-.5h2.96905c.5523 0 1-.4477 1-1 0-.55228-.4477-1-1-1h-2.12269c.73306-.91446 1.85949-1.5 3.12269-1.5 1.0251 0 1.9581.38431 2.6664 1.01829.4115.36833 1.0437.33331 1.4121-.07822.3683-.41153.3333-1.04372-.0783-1.41205-1.0608-.94948-2.4641-1.52802-4.0002-1.52802-2.42149 0-4.50795 1.43447-5.45596 3.5h-.54404c-.55228 0-1 .44772-1 1 0 .5523.44772 1 1 1h.02054c-.0136.1649-.02054.3316-.02054.5s.00694.3351.02054.5h-.02054c-.55228 0-1 .4477-1 1s.44772 1 1 1h.54404c.94801 2.0655 3.03447 3.5 5.45596 3.5 1.5361 0 2.9394-.5785 4.0002-1.528.4116-.3683.4466-1.0005.0783-1.4121-.3684-.4115-1.0006-.4465-1.4121-.0782-.7083.634-1.6413 1.0183-2.6664 1.0183-1.2632 0-2.38963-.5855-3.12269-1.5h2.12269c.5523 0 1-.4477 1-1s-.4477-1-1-1h-2.96905c-.02043-.1638-.03095-.3307-.03095-.5z" fill="#801ed7" fill-rule="evenodd"/></svg>