<svg fill="none" height="24" viewBox="0 0 24 24" width="24" xmlns="http://www.w3.org/2000/svg"><path clip-rule="evenodd" d="m12 1c-6.07513 0-11 4.92487-11 11 0 6.0751 4.92487 11 11 11 6.0751 0 11-4.9249 11-11 0-6.07513-4.9249-11-11-11zm-1.1046 7.95579c.0015-.53776.158-.83779.323-1.01648.1773-.19218.452-.33734.8254-.4029.8078-.14181 1.6953.14618 2.0601.49267.4004.38036 1.0334.36409 1.4137-.03634.3804-.40043.3641-1.03338-.0363-1.41374-.8981-.85303-2.4586-1.24504-3.7833-1.01246-.6929.12163-1.4057.42726-1.94936 1.01632-.55544.60182-.85297 1.41174-.85337 2.37877l.00017.01318c.01286 1.00821.38769 1.70099.66214 2.20829l.01769.0327c.055.1017.10515.1955.15015.2842h-.72542c-.55228 0-1 .4477-1 1s.44772 1 1 1h.8979c-.15173.7615-.45342 1.4655-.77362 2.0463-.22484.4079-.44975.7385-.61669.965-.08318.1128-.15119.1987-.1965.2543-.02264.0277-.03954.0478-.04976.0598l-.01034.0121-.0008.0009c-.25977.2943-.32328.7136-.16216 1.0718.16145.3589.51842.5898.91199.5898h5.99998c.5523 0 1-.4477 1-1s-.4477-1-1-1h-4.1177c.4255-.774.8724-1.8141 1.0444-3h2.0733c.5523 0 1-.4477 1-1s-.4477-1-1-1h-2.1315c-.1338-.4958-.3455-.8872-.5179-1.2058l-.0159-.0294c-.2706-.50056-.4317-.81812-.4393-1.30901z" fill="#801ed7" fill-rule="evenodd"/></svg>