<svg fill="none" height="24" viewBox="0 0 24 24" width="24" xmlns="http://www.w3.org/2000/svg"><path clip-rule="evenodd" d="m12 1c-6.07513 0-11 4.92487-11 11 0 6.0751 4.92487 11 11 11 6.0751 0 11-4.9249 11-11 0-6.07513-4.9249-11-11-11zm1 4.5c0-.55228-.4477-1-1-1s-1 .44772-1 1v.5c-1.933 0-3.5 1.567-3.5 3.5s1.567 3.5 3.5 3.5h2c.8284 0 1.5.6716 1.5 1.5s-.6716 1.5-1.5 1.5h-2.1667c-.7363 0-1.3333-.597-1.3333-1.3333 0-.5523-.44771-1-1-1-.55228 0-1 .4477-1 1 0 1.8409 1.49238 3.3333 3.3333 3.3333h.1667v.5c0 .5523.4477 1 1 1s1-.4477 1-1v-.5c1.933 0 3.5-1.567 3.5-3.5s-1.567-3.5-3.5-3.5h-2c-.8284 0-1.5-.6716-1.5-1.5 0-.82843.6716-1.5 1.5-1.5h2.1667c.7363 0 1.3333.59695 1.3333 1.33333 0 .55229.4477.99997 1 .99997s1-.44768 1-.99997c0-1.84095-1.4924-3.33333-3.3333-3.33333h-.1667z" fill="#801ed7" fill-rule="evenodd"/></svg>