<svg fill="none" height="24" viewBox="0 0 24 24" width="24" xmlns="http://www.w3.org/2000/svg"><path d="m9.5275 5.35442c-.36139.39157-.64207.99461-.64379 1.94424.01252.8454.36476 1.44905.89328 2.35482l.03997.06852c.42714.7325.91764 1.6074 1.10484 2.778h4.0782c.5523 0 1 .4477 1 1s-.4477 1-1 1h-4.0575c-.2242 1.9448-1.06735 3.5405-1.87993 4.6733-.08113.1131-.16225.222-.24279.3267h8.68022c.5523 0 1 .4477 1 1s-.4477 1-1 1h-11c-.42602 0-.80526-.2699-.94482-.6724-.1393-.4018-.00929-.8476.32389-1.1115l.0019-.0015.02031-.0167c.01909-.0158.04988-.0417.09071-.0774.08174-.0715.20323-.1818.35128-.3284.29699-.2941.69577-.7291 1.09416-1.2845.65229-.9094 1.27703-2.1033 1.48766-3.5076h-2.42509c-.55228 0-1-.4477-1-1s.44772-1 1-1h2.38392c-.15483-.6385-.44981-1.1792-.79464-1.7705-.03193-.0547-.06464-.1104-.0979-.1669-.48605-.82683-1.08985-1.85392-1.1076-3.24487l-.00016-.01318c.00057-1.37858.42209-2.49169 1.17417-3.30657.74031-.80213 1.7224-1.2307 2.70611-1.40339 1.9064-.33467 4.1345.24278 5.3769 1.42295.4005.38036.4167 1.01332.0364 1.41375-.3804.40043-1.0133.4167-1.4138.03634-.7092-.67364-2.2643-1.14708-3.6537-.90316-.6642.11661-1.20819.38471-1.5822.78995z" fill="#801ed7"/></svg>