<svg fill="none" height="24" viewBox="0 0 24 24" width="24" xmlns="http://www.w3.org/2000/svg"><path clip-rule="evenodd" d="m12 1c-6.07513 0-11 4.92487-11 11 0 6.0751 4.92487 11 11 11 6.0751 0 11-4.9249 11-11 0-6.07513-4.9249-11-11-11zm-4.62472 5.21917c.43126-.34501 1.06055-.27509 1.40556.15617l3.21916 4.02396 3.2191-4.02396c.345-.43126.9743-.50118 1.4056-.15617.4312.34501.5012.9743.1561 1.40556l-2.7002 3.37527h1.9194c.5523 0 1 .4477 1 1s-.4477 1-1 1h-3v1h2.5c.5523 0 1 .4477 1 1s-.4477 1-1 1h-2.5v2c0 .5523-.4477 1-1 1s-1-.4477-1-1v-2h-2.5c-.55228 0-1-.4477-1-1s.44772-1 1-1h2.5v-1h-3c-.55228 0-1-.4477-1-1s.44772-1 1-1h1.91932l-2.70021-3.37527c-.34501-.43126-.27509-1.06055.15617-1.40556z" fill="#801ed7" fill-rule="evenodd"/></svg>