<svg fill="none" height="24" viewBox="0 0 24 24" width="24" xmlns="http://www.w3.org/2000/svg"><g fill="#801ed7"><path d="m10.5 10.5v-3h3.5c.8284 0 1.5.67157 1.5 1.5s-.6716 1.5-1.5 1.5z"/><path clip-rule="evenodd" d="m12 1c-6.07513 0-11 4.92487-11 11 0 6.0751 4.92487 11 11 11 6.0751 0 11-4.9249 11-11 0-6.07513-4.9249-11-11-11zm-3.5 5.5c0-.55228.44772-1 1-1h4.5c1.933 0 3.5 1.567 3.5 3.5s-1.567 3.5-3.5 3.5h-3.5v1.25h2.5c.5523 0 1 .4477 1 1s-.4477 1-1 1h-2.5v1.75c0 .5523-.4477 1-1 1-.55228 0-1-.4477-1-1v-1.75h-.5c-.55228 0-1-.4477-1-1s.44772-1 1-1h.5v-1.25h-.5c-.55228 0-1-.4477-1-1s.44772-1 1-1h.5z" fill-rule="evenodd"/></g></svg>