<svg fill="none" height="24" viewBox="0 0 24 24" width="24" xmlns="http://www.w3.org/2000/svg"><path d="m6 2c-.55228 0-1 .44772-1 1s.44772 1 1 1h3c1.3954 0 2.3685.51331 3.0028 1.22688.4375.49221.7377 1.10753.8873 1.77312h-6.8901c-.55228 0-1 .44772-1 1s.44772 1 1 1h6.8901c-.1496.66559-.4498 1.2809-.8873 1.7731-.6343.7136-1.6074 1.2269-3.0028 1.2269h-3c-.14204 0-.27716.0296-.39952.083-.11433.0497-.22108.1218-.31354.2159-.09144.093-.16483.2038-.21449.3267-.04672.1156-.07245.242-.07245.3744 0 .141.02916.2751.08179.3967.05134.119.12676.2299.22604.325l.00871.0083 8.49806 7.9982c.4022.3785 1.0351.3593 1.4136-.0428.3785-.4022.3593-1.0351-.0428-1.4136l-6.66382-6.2718h.47842c1.9381 0 3.4651-.7367 4.4976-1.8981.7847-.8828 1.2536-1.9759 1.4265-3.1019h3.0759c.5523 0 1-.44772 1-1s-.4477-1-1-1h-3.0759c-.1663-1.08306-.6065-2.13572-1.3381-3h4.414c.5523 0 1-.44772 1-1s-.4477-1-1-1z" fill="#801ed7"/></svg>