<svg fill="none" height="24" viewBox="0 0 24 24" width="24" xmlns="http://www.w3.org/2000/svg"><path clip-rule="evenodd" d="m13 2c0-.55228-.4477-1-1-1s-1 .44772-1 1v1h-1c-2.76142 0-5 2.23858-5 5 0 2.7614 2.23858 5 5 5h1v6h-1c-1.65685 0-3-1.3431-3-3 0-.5523-.44772-1-1-1s-1 .4477-1 1c0 2.7614 2.23858 5 5 5h1v1c0 .5523.4477 1 1 1s1-.4477 1-1v-1h1c2.7614 0 5-2.2386 5-5s-2.2386-5-5-5h-1v-6h1c1.6569 0 3 1.34315 3 3 0 .55228.4477 1 1 1s1-.44772 1-1c0-2.76142-2.2386-5-5-5h-1zm-2 3h-1c-1.65685 0-3 1.34315-3 3s1.34315 3 3 3h1zm2 8v6h1c1.6569 0 3-1.3431 3-3s-1.3431-3-3-3z" fill="#801ed7" fill-rule="evenodd"/></svg>