<svg fill="none" height="24" viewBox="0 0 24 24" width="24" xmlns="http://www.w3.org/2000/svg"><g fill="#801ed7"><path d="m8.1174 11.1367 3.8828 1.7648 3.8825-1.7648-3.8825-4.58857z"/><path clip-rule="evenodd" d="m12 1c-6.07513 0-11 4.92487-11 11 0 6.0751 4.92487 11 11 11 6.0751 0 11-4.9249 11-11 0-6.07513-4.9249-11-11-11zm.0002 3c.2942.00001.5734.12952.7634.35407l5.4998 6.50003c.2024.2392.281.5594.2123.8651s-.2766.5615-.5619.6912l-5.4998 2.5c-.2629.1195-.5647.1195-.8276 0l-5.50018-2.5c-.28524-.1297-.49323-.3855-.5619-.6912s.00992-.626.21232-.8652l5.50016-6.49996c.19-.22454.4693-.35405.7634-.35404zm-6.41057 11.086c.22853-.5028.82138-.7251 1.32416-.4966l5.08641 2.3119 5.086-2.3119c.5028-.2285 1.0956-.0062 1.3242.4965.2285.5028.0062 1.0957-.4966 1.3242l-5.4998 2.5c-.2629.1195-.5647.1195-.8276 0l-5.50019-2.5c-.50278-.2285-.72511-.8214-.49658-1.3241z" fill-rule="evenodd"/></g></svg>