<svg fill="none" height="24" viewBox="0 0 24 24" width="24" xmlns="http://www.w3.org/2000/svg"><path clip-rule="evenodd" d="m9.5 1c.5523 0 1 .44772 1 1v1h2v-1c0-.55228.4477-1 1-1s1 .44772 1 1v1.02469c2.5267.25086 4.5 2.38264 4.5 4.97531 0 1.43071-.6009 2.7211-1.5641 3.6325 1.5298.855 2.5641 2.4905 2.5641 4.3675 0 2.7614-2.2386 5-5 5h-.5v1c0 .5523-.4477 1-1 1s-1-.4477-1-1v-1h-2v1c0 .5523-.4477 1-1 1-.55228 0-1-.4477-1-1v-1h-3c-.55228 0-1-.4477-1-1s.44772-1 1-1h1v-14h-1c-.55228 0-1-.44772-1-1s.44772-1 1-1h3v-1c0-.55228.44772-1 1-1zm-1 4v6h5.5c1.6569 0 3-1.34315 3-3s-1.3431-3-3-3zm0 8v6h6.5c1.6569 0 3-1.3431 3-3s-1.3431-3-3-3z" fill="#801ed7" fill-rule="evenodd"/></svg>