<svg fill="none" height="24" viewBox="0 0 24 24" width="24" xmlns="http://www.w3.org/2000/svg"><path clip-rule="evenodd" d="m13 14.9826c2.1847-.0767 4.1683-.403 5.6917-.9116.8712-.2908 1.6474-.6595 2.2262-1.1182.5689-.4508 1.0821-1.1034 1.0821-1.9528v-6c0-.85195-.5189-1.50441-1.0883-1.95315-.5807-.45762-1.3589-.826-2.2315-1.11685-1.7556-.5852-4.1173-.93-6.6802-.93-2.56285 0-4.92459.3448-6.68019.93-.87257.29085-1.65085.65923-2.23152 1.11685-.5694.44874-1.08829 1.1012-1.08829 1.95315v6c0 .8494.51319 1.502 1.08206 1.9528.57885.4587 1.35506.8274 2.22627 1.1182 1.52332.5086 3.50692.8349 5.69167.9116v2.1881c-.8524.3013-1.52801.9769-1.82929 1.8293h-6.17071c-.55228 0-1 .4477-1 1s.44772 1 1 1h6.17071c.41183 1.1652 1.52309 2 2.82929 2s2.4175-.8348 2.8293-2h6.1707c.5523 0 1-.4477 1-1s-.4477-1-1-1h-6.1707c-.3013-.8524-.9769-1.528-1.8293-1.8293zm-9-9.98266s-.00002-.00515.00305-.01523c.0034-.01115.01178-.03316.03202-.06614.04245-.06914.12901-.1731.29117-.30089.33018-.26021.86992-.53828 1.62603-.79032 1.50175-.50058 3.64002-.82736 6.04773-.82736 2.4077 0 4.546.32678 6.0477.82736.7561.25204 1.2959.53011 1.6261.79032.1621.12779.2487.23175.2911.30089.0203.03298.0286.05499.032.06614.0031.01008.0031.01523.0031.01523s-.0001.00577-.0031.01535c-.0034.01115-.0117.03316-.032.06614-.0424.06914-.129.1731-.2911.30089-.3302.26021-.87.53828-1.6261.79032-1.5017.50058-3.64.82736-6.0477.82736-2.40771 0-4.54598-.32678-6.04773-.82736-.75611-.25204-1.29585-.53011-1.62603-.79032-.16216-.12779-.24872-.23175-.29117-.30089-.02024-.03298-.02862-.05499-.03202-.06614-.00287-.00945-.00305-.01535-.00305-.01535z" fill="#801ed7" fill-rule="evenodd"/></svg>