<svg fill="none" height="24" viewBox="0 0 24 24" width="24" xmlns="http://www.w3.org/2000/svg"><path clip-rule="evenodd" d="m14.911 5.03755c.3302-.02697.7315-.03458 1.26-.03672.4121 1.16476 1.5231 1.99917 2.829 1.99917 1.6569 0 3-1.34315 3-3s-1.3431-3-3-3c-1.3065 0-2.4179.83515-2.8295 2.00072-.5473.00213-1.019.01052-1.4223.04347-.5621.04593-1.0788.14449-1.5642.39178-.7526.3835-1.3645.99542-1.748 1.74807-.2473.48533-.3459 1.00204-.3918 1.56414-.0442.54117-.0442 1.20551-.0442 2.01045v2.24137h-3.17071c-.41183-1.16519-1.52307-2-2.82929-2-1.65685 0-3 1.3431-3 3s1.34315 3 3 3c1.30622 0 2.41746-.8348 2.82929-2h3.17071v2.2413c0 .8049 0 1.4693.0442 2.0105.0459.5621.1445 1.0788.3918 1.5642.3835.7526.9954 1.3645 1.748 1.748.4854.2473 1.0021.3459 1.5642.3918.4033.033.875.0413 1.4223.0435.4116 1.1655 1.523 2.0007 2.8295 2.0007 1.6569 0 3-1.3431 3-3s-1.3431-3-3-3c-1.3059 0-2.4169.8344-2.829 1.9992-.5285-.0022-.9298-.0098-1.26-.0367-.4384-.0359-.6626-.1008-.819-.1805-.3763-.1917-.6823-.4977-.874-.874-.0797-.1564-.1446-.3806-.1804-.819-.0368-.4501-.0376-1.0324-.0376-1.889v-2.2h3.1707c.4118 1.1652 1.5231 2 2.8293 2 1.6569 0 3-1.3431 3-3s-1.3431-3-3-3c-1.3062 0-2.4175.83481-2.8293 2h-3.1707v-2.2c0-.85658.0008-1.43887.0376-1.88896.0358-.43842.1007-.66262.1804-.81902.1917-.37632.4977-.68229.874-.87403.1564-.07969.3806-.14462.819-.18044z" fill="#801ed7" fill-rule="evenodd"/></svg>