<svg fill="none" height="24" viewBox="0 0 24 24" width="24" xmlns="http://www.w3.org/2000/svg"><g clip-rule="evenodd" fill="#801ed7" fill-rule="evenodd"><path d="m19.5322 5.52394c-.2834-.02315-.6556-.02393-1.2322-.02393h-7.3c-.5523 0-1-.44771-1-1 0-.55228.4477-1 1-1h7.3386c.5271-.00002.9819-.00003 1.3564.03057.3954.0323.7886.10362 1.167.29641.5645.28762 1.0234.74657 1.311 1.31105.1928.37838.2641.7716.2964 1.16694.0306.37457.0306.82933.0306 1.35647v1.37055c0 .43865 0 .81714-.0213 1.1304-.0225.3298-.072.6597-.207.9857-.3045.735-.8886 1.3191-1.6236 1.6236-.326.135-.6559.1845-.9857.207-.3133.0213-.6918.0213-1.1304.0213h-.032c-.5523 0-1-.4477-1-1s.4477-1 1-1c.4796 0 .7893-.0005 1.0263-.0167.2279-.0156.3148-.0422.3564-.0594.245-.1015.4397-.2962.5412-.5412.0172-.0416.0438-.1284.0594-.3564.0162-.23703.0167-.54666.0167-1.02629v-1.3c0-.57655-.0008-.94882-.0239-1.23216-.0222-.27167-.0599-.37238-.0851-.42183-.0959-.18816-.2488-.34114-.437-.43701-.0494-.0252-.1502-.06288-.4218-.08507zm-14.06418 5.47606h.03199c.55229 0 1 .4477 1 1s-.44771 1-1 1c-.47962 0-.78926.0006-1.02624.0167-.228.0156-.31483.0422-.35644.0594-.24503.1015-.4397.2962-.5412.5412-.01723.0416-.04385.1285-.05941.3565-.01617.237-.01671.5466-.01671 1.0262v1.3c0 .5766.00078.9488.02393 1.2322.02219.2716.05987.3724.08507.4218.09587.1882.24885.3411.43701.437.04945.0252.15016.0629.42183.0851.28334.0231.65561.0239 1.23216.0239h7.29999c.5523 0 1 .4477 1 1s-.4477 1-1 1h-7.33855c-.52714 0-.9819 0-1.35647-.0306-.39534-.0323-.78856-.1036-1.16694-.2964-.56449-.2876-1.02343-.7465-1.31105-1.311-.19279-.3784-.26411-.7716-.29641-1.167-.0306-.3745-.03059-.8293-.03057-1.3564v-1.3706c-.00001-.4386-.00002-.8171.02135-1.1304.02251-.3298.07201-.6597.20701-.9856.30449-.7351.88851-1.3191 1.62359-1.6236.32593-.135.65584-.1845.98567-.207.31326-.0214.69174-.0214 1.13039-.0214z"/><path d="m10.2769 8.50001h.0231 3.4.0232c.1191-.00005.2613-.0001.3866.01014.1453.01186.3533.0423.5712.15335.2822.14381.5117.37328.6555.65553.1111.21794.1415.42593.1534.57115.0102.12532.0102.26762.0101.38672v.0231 3.4.0232c.0001.1191.0001.2613-.0101.3866-.0119.1453-.0423.3533-.1534.5712-.1438.2822-.3733.5117-.6555.6555-.2179.1111-.4259.1415-.5712.1534-.1253.0102-.2675.0102-.3866.0101-.0079 0-.0156 0-.0232 0h-3.4c-.0076 0-.0153 0-.0231 0-.1191.0001-.2614.0001-.38672-.0101-.14522-.0119-.35321-.0423-.57115-.1534-.28225-.1438-.51172-.3733-.65553-.6555-.11105-.2179-.14149-.4259-.15335-.5712-.01024-.1253-.01019-.2675-.01014-.3866 0-.0079 0-.0156 0-.0232v-3.4c0-.0076 0-.0153 0-.0231-.00005-.1191-.0001-.2614.01014-.38672.01186-.14522.0423-.35321.15335-.57115.14381-.28225.37328-.51172.65553-.65553.21794-.11105.42593-.14149.57115-.15335.12532-.01024.26762-.01019.38672-.01014z"/><path d="m17.7769 16h.0231 3.4.0232c.1191 0 .2613-.0001.3866.0101.1453.0119.3533.0424.5712.1534.2822.1438.5117.3733.6555.6555.1111.218.1415.426.1534.5712.0102.1253.0102.2676.0101.3867v.0231 3.4.0232c.0001.1191.0001.2613-.0101.3866-.0119.1453-.0423.3533-.1534.5712-.1438.2822-.3733.5117-.6555.6555-.2179.1111-.4259.1415-.5712.1534-.1253.0102-.2675.0102-.3866.0101-.0079 0-.0156 0-.0232 0h-3.4c-.0076 0-.0153 0-.0231 0-.1191.0001-.2614.0001-.3867-.0101-.1452-.0119-.3532-.0423-.5712-.1534-.2822-.1438-.5117-.3733-.6555-.6555-.111-.2179-.1415-.4259-.1534-.5712-.0102-.1253-.0101-.2675-.0101-.3866 0-.0079 0-.0156 0-.0232v-3.4c0-.0076 0-.0153 0-.0231 0-.1191-.0001-.2614.0101-.3867.0119-.1452.0424-.3532.1534-.5712.1438-.2822.3733-.5117.6555-.6555.218-.111.426-.1415.5712-.1534.1253-.0102.2676-.0101.3867-.0101z"/><path d="m2.77687 1.00001h.02314 3.4.02314c.11912-.000049.26137-.000104.38669.01014.14522.01186.35321.0423.57116.15335.28224.14381.51171.37328.65552.65553.11105.21794.14149.42593.15336.57115.01024.12532.01018.26758.01014.38669-.00001.00782-.00001.01554-.00001.02314v3.4c0 .00761 0 .01532.00001.02314.00004.11912.0001.26137-.01014.38669-.01187.14522-.04231.35321-.15336.57116-.14381.28224-.37328.51171-.65552.65552-.21795.11105-.42594.14149-.57116.15336-.12532.01024-.26757.01018-.38669.01014-.00782-.00001-.01553-.00001-.02314-.00001h-3.4c-.0076 0-.01532 0-.02314.00001-.11911.00004-.26137.0001-.38669-.01014-.14522-.01187-.35321-.04231-.57115-.15336-.28225-.14381-.51172-.37328-.65553-.65552-.11105-.21795-.14149-.42594-.15335-.57116-.010244-.12532-.010189-.26757-.01014-.38669 0-.00782 0-.01553 0-.02314v-3.4c0-.0076 0-.01532 0-.02314-.000049-.11911-.000104-.26137.01014-.38669.01186-.14522.0423-.35321.15335-.57115.14381-.28225.37328-.51172.65553-.65553.21794-.11105.42593-.14149.57115-.15335.12532-.010244.26758-.010189.38669-.01014z"/></g></svg>