<svg fill="none" height="24" viewBox="0 0 24 24" width="24" xmlns="http://www.w3.org/2000/svg"><g fill="#801ed7"><path d="m2.41485 13.5c.12001 0 .23314.053.31706.1387.1113.1138.22947.2185.35015.3141.57885.4587 1.35506.8274 2.22627 1.1182 1.75276.5852 4.11491.929 6.69167.929 2.5768 0 4.9389-.3438 6.6917-.929.8712-.2908 1.6474-.6595 2.2262-1.1182.1207-.0956.2389-.2003.3502-.3141.0839-.0857.197-.1387.317-.1387.2292 0 .4149.1857.4149.4149v5.0851c0 .8494-.5132 1.502-1.0821 1.9528-.5788.4587-1.355.8274-2.2262 1.1182-1.7528.5852-4.1149.929-6.6917.929-2.57676 0-4.93891-.3438-6.69167-.929-.87121-.2908-1.64742-.6595-2.22627-1.1182-.56887-.4508-1.08206-1.1034-1.08206-1.9528v-5.0851c0-.2292.18574-.4149.41485-.4149z"/><path clip-rule="evenodd" d="m20.9117 3.04685c.5694.44874 1.0883 1.1012 1.0883 1.95315v5c0 .8494-.5132 1.502-1.0821 1.9528-.5788.4587-1.355.8274-2.2262 1.1182-1.7528.5852-4.1149.929-6.6917.929-2.57676 0-4.93891-.3438-6.69167-.929-.87121-.2908-1.64742-.6595-2.22627-1.1182-.56887-.4508-1.08206-1.1034-1.08206-1.9528v-5c0-.85195.51889-1.50441 1.08829-1.95315.58067-.45762 1.35895-.826 2.23152-1.11685 1.7556-.5852 4.11734-.93 6.68019-.93 2.5629 0 4.9246.3448 6.6802.93.8726.29085 1.6508.65923 2.2315 1.11685zm-16.9117 1.95309s-.00002-.00515.00305-.01523c.0034-.01115.01178-.03316.03202-.06614.04245-.06914.12901-.1731.29117-.30089.33018-.26021.86992-.53828 1.62603-.79032 1.50175-.50058 3.64002-.82736 6.04773-.82736 2.4077 0 4.546.32678 6.0477.82736.7561.25204 1.2959.53011 1.6261.79032.1621.12779.2487.23175.2911.30089.0203.03298.0286.05499.032.06614.0031.01008.0031.01551.0031.01551s-.0001.00549-.0031.01507c-.0034.01115-.0117.03316-.032.06614-.0424.06914-.129.1731-.2911.30089-.3302.26021-.87.53828-1.6261.79032-1.5017.50058-3.64.82736-6.0477.82736-2.40771 0-4.54598-.32678-6.04773-.82736-.75611-.25204-1.29585-.53011-1.62603-.79032-.16216-.12779-.24872-.23175-.29117-.30089-.02024-.03298-.02862-.05499-.03202-.06614-.00287-.00945-.00305-.01535-.00305-.01535z" fill-rule="evenodd"/></g></svg>