<svg fill="none" height="24" viewBox="0 0 24 24" width="24" xmlns="http://www.w3.org/2000/svg"><g clip-rule="evenodd" fill="#801ed7" fill-rule="evenodd"><path d="m18.7769 9.00001h.0231 2.4.0232c.1191-.00005.2613-.0001.3866.01014.1453.01186.3533.0423.5712.15335.2822.14381.5117.37329.6555.65553.1111.21797.1415.42597.1534.57117.0102.1253.0102.2676.0101.3867v.0231 10.4.0231c.0001.1192.0001.2614-.0101.3867-.0119.1453-.0423.3533-.1534.5712-.1438.2822-.3733.5117-.6555.6555-.2179.1111-.4259.1415-.5712.1534-.1253.0102-.2675.0102-.3867.0101-.0078 0-.0155 0-.0231 0h-10.4c-.0076 0-.0153 0-.0231 0-.1192.0001-.2614.0001-.3867-.0101-.1452-.0119-.3532-.0423-.57117-.1534-.28225-.1438-.51172-.3733-.65553-.6555-.11105-.2179-.14149-.4259-.15335-.5712-.01024-.1253-.01019-.2675-.01014-.3867 0-.0078 0-.0155 0-.0231v-2.4c0-.0076 0-.0153 0-.0231-.00005-.1191-.0001-.2614.01014-.3867.01186-.1452.0423-.3532.15335-.5712.14381-.2822.37328-.5117.65553-.6555.21797-.111.42597-.1415.57117-.1534.1253-.0102.2676-.0101.3867-.0101h.0231 2.2v-2.2c0-.0076 0-.0153 0-.0231 0-.1191-.0001-.2614.0101-.3867.0119-.1452.0424-.3532.1534-.5712.1438-.2822.3733-.5117.6555-.6555.218-.111.426-.1415.5712-.1534.1253-.0102.2676-.0101.3867-.0101h.0231 2.2v-2.2c0-.0076 0-.0153 0-.0231 0-.1191-.0001-.2614.0101-.3867.0119-.1452.0424-.3532.1534-.57117.1438-.28225.3733-.51172.6555-.65553.218-.11105.426-.14149.5712-.15335.1253-.01024.2676-.01019.3867-.01014z"/><path d="m10.7769 5.00001h.0231 2.4.0232c.1191-.00005.2613-.0001.3866.01014.1453.01186.3533.0423.5712.15335.2822.14381.5117.37328.6555.65553.1111.21794.1415.42593.1534.57115.0102.12532.0102.26758.0101.38669v.02314 2.4.02314c.0001.11912.0001.26137-.0101.38669-.0119.14522-.0423.35321-.1534.57116-.1438.2822-.3733.5117-.6555.6555-.2179.1111-.4259.1415-.5712.1534-.1253.0102-.2675.0102-.3866.0101-.0079 0-.0156 0-.0232 0h-2.4c-.0076 0-.0153 0-.0231 0-.1191.0001-.2614.0001-.3867-.0101-.1452-.0119-.3532-.0423-.57117-.1534-.28225-.1438-.51172-.3733-.65553-.6555-.11105-.21795-.14149-.42594-.15335-.57116-.01024-.12532-.01019-.26757-.01014-.38669 0-.00782 0-.01553 0-.02314v-2.4c0-.0076 0-.01532 0-.02314-.00005-.11911-.0001-.26137.01014-.38669.01186-.14522.0423-.35321.15335-.57115.14381-.28225.37328-.51172.65553-.65553.21797-.11105.42597-.14149.57117-.15335.1253-.01024.2676-.01019.3867-.01014z"/><path d="m3.77687 11h.02314 2.4.02314c.11912 0 .26137-.0001.38669.0101.14522.0119.35321.0424.57116.1534.28224.1438.51171.3733.65552.6555.11105.218.14149.426.15336.5712.01024.1253.01018.2676.01014.3867-.00001.0078-.00001.0155-.00001.0231v2.4c0 .0076 0 .0153.00001.0232.00004.1191.0001.2613-.01014.3866-.01187.1453-.04231.3533-.15336.5712-.14381.2822-.37328.5117-.65552.6555-.21795.1111-.42594.1415-.57116.1534-.12532.0102-.26757.0102-.38669.0101-.00782 0-.01553 0-.02314 0h-2.4c-.0076 0-.01532 0-.02314 0-.11911.0001-.26137.0001-.38669-.0101-.14522-.0119-.35321-.0423-.57115-.1534-.28225-.1438-.51172-.3733-.65553-.6555-.11105-.2179-.14149-.4259-.15335-.5712-.01024-.1253-.01019-.2675-.01014-.3866 0-.0079 0-.0156 0-.0232v-2.4c0-.0076 0-.0153 0-.0231-.00005-.1191-.0001-.2614.01014-.3867.01186-.1452.0423-.3532.15335-.5712.14381-.2822.37328-.5117.65553-.6555.21794-.111.42593-.1415.57115-.1534.12532-.0102.26758-.0101.38669-.0101z"/><path d="m2.77687 1.00001h.02314 2.4.02314c.11912-.000049.26137-.000104.38669.01014.14522.01186.35321.0423.57116.15335.28224.14381.51171.37328.65552.65553.11105.21794.14149.42593.15336.57115.01024.12532.01018.26758.01014.38669-.00001.00782-.00001.01554-.00001.02314v2.4c0 .00761 0 .01532.00001.02314.00004.11912.0001.26137-.01014.38669-.01187.14522-.04231.35321-.15336.57116-.14381.28224-.37328.51171-.65552.65552-.21795.11105-.42594.14149-.57116.15336-.12532.01024-.26757.01018-.38669.01014-.00782-.00001-.01553-.00001-.02314-.00001h-2.4c-.0076 0-.01532 0-.02314.00001-.11911.00004-.26137.0001-.38669-.01014-.14522-.01187-.35321-.04231-.57115-.15336-.28225-.14381-.51172-.37328-.65553-.65552-.11105-.21795-.14149-.42594-.15335-.57116-.010244-.12532-.010189-.26757-.01014-.38669 0-.00782 0-.01553 0-.02314v-2.4c0-.0076 0-.01532 0-.02314-.000049-.11911-.000104-.26137.01014-.38669.01186-.14522.0423-.35321.15335-.57115.14381-.28225.37328-.51172.65553-.65553.21794-.11105.42593-.14149.57115-.15335.12532-.010244.26758-.010189.38669-.01014z"/></g></svg>