<svg fill="none" height="24" viewBox="0 0 24 24" width="24" xmlns="http://www.w3.org/2000/svg"><g fill="#801ed7"><path clip-rule="evenodd" d="m22 7v-2c0-.85195-.5189-1.50441-1.0883-1.95315-.5807-.45762-1.3589-.826-2.2315-1.11685-1.7556-.5852-4.1173-.93-6.6802-.93-2.56285 0-4.92459.3448-6.68019.93-.87257.29085-1.65085.65923-2.23152 1.11685-.5694.44874-1.08829 1.1012-1.08829 1.95315v2c0 .84938.51319 1.50204 1.08206 1.95282.57885.45869 1.35506.82737 2.22627 1.11818 1.75276.5852 4.11491.929 6.69167.929 2.5768 0 4.9389-.3438 6.6917-.929.8712-.29081 1.6474-.65949 2.2262-1.11818.5689-.45078 1.0821-1.10344 1.0821-1.95282zm-18-1.99973s.00018.00557.00305.01502c.0034.01115.01178.03316.03202.06614.04245.06914.12901.1731.29117.30089.33018.26021.86992.53828 1.62603.79032 1.50175.50058 3.64002.82736 6.04773.82736 2.4077 0 4.546-.32678 6.0477-.82736.7561-.25204 1.2959-.53011 1.6261-.79032.1621-.12779.2487-.23175.2911-.30089.0203-.03298.0286-.05499.032-.06614.003-.00958.0031-.01529.0031-.01529s.0001-.00494-.0031-.01529c-.0034-.01115-.0117-.03316-.032-.06614-.0424-.06914-.129-.1731-.2911-.30089-.3302-.26021-.87-.53828-1.6261-.79032-1.5017-.50058-3.64-.82736-6.0477-.82736-2.40771 0-4.54598.32678-6.04773.82736-.75611.25204-1.29585.53011-1.62603.79032-.16216.12779-.24872.23175-.29117.30089-.02024.03298-.02862.05499-.03202.06614-.00307.01008-.00305.01556-.00305.01556z" fill-rule="evenodd"/><path d="m21.5917 10.5c-.1181 0-.2294.0521-.3119.1365-.1121.1147-.2313.2202-.353.3166-.5794.4586-1.3564.8273-2.2285 1.1182-1.7545.5851-4.119.9289-6.6983.9289-2.57935 0-4.94386-.3438-6.69837-.9289-.87208-.2909-1.64907-.6596-2.2285-1.1182-.12167-.0964-.2408-.2019-.35292-.3166-.08252-.0844-.19383-.1365-.31189-.1365-.22551 0-.40832.1828-.40832.4083v2.0917c0 .8494.51319 1.502 1.08206 1.9528.57885.4587 1.35506.8274 2.22627 1.1182 1.75276.5852 4.11491.929 6.69167.929 2.5768 0 4.9389-.3438 6.6917-.929.8712-.2908 1.6474-.6595 2.2262-1.1182.5689-.4508 1.0821-1.1034 1.0821-1.9528v-2.0917c0-.2255-.1828-.4083-.4083-.4083z"/><path d="m21.5917 16.5c-.1181 0-.2294.0521-.3119.1365-.1121.1147-.2313.2202-.353.3166-.5794.4586-1.3564.8273-2.2285 1.1182-1.7545.5851-4.119.9289-6.6983.9289-2.57935 0-4.94386-.3438-6.69837-.9289-.87208-.2909-1.64907-.6596-2.2285-1.1182-.12167-.0964-.2408-.2019-.35292-.3166-.08252-.0844-.19383-.1365-.31189-.1365-.22551 0-.40832.1828-.40832.4083v2.0917c0 .8494.51319 1.502 1.08206 1.9528.57885.4587 1.35506.8274 2.22627 1.1182 1.75276.5852 4.11491.929 6.69167.929 2.5768 0 4.9389-.3438 6.6917-.929.8712-.2908 1.6474-.6595 2.2262-1.1182.5689-.4508 1.0821-1.1034 1.0821-1.9528v-2.0917c0-.2255-.1828-.4083-.4083-.4083z"/></g></svg>