<svg fill="none" height="24" viewBox="0 0 24 24" width="24" xmlns="http://www.w3.org/2000/svg"><path clip-rule="evenodd" d="m7.82929 3c-.41183-1.16519-1.52307-2-2.82929-2-1.65685 0-3 1.34315-3 3s1.34315 3 3 3c1.30622 0 2.41746-.83481 2.82929-2h3.17071v10.2413c0 .8049 0 1.4693.0442 2.0105.0459.5621.1445 1.0788.3918 1.5642.3835.7526.9954 1.3645 1.748 1.748.4854.2473 1.0021.3459 1.5642.3918.4033.033.875.0413 1.4223.0435.4116 1.1655 1.523 2.0007 2.8295 2.0007 1.6569 0 3-1.3431 3-3s-1.3431-3-3-3c-1.3059 0-2.4169.8344-2.829 1.9992-.5285-.0022-.9298-.0098-1.26-.0368-.4384-.0358-.6626-.1007-.819-.1804-.3763-.1917-.6823-.4977-.874-.874-.0797-.1564-.1446-.3806-.1804-.819-.0368-.4501-.0376-1.0324-.0376-1.889v-2.2h3.1707c.4118 1.1652 1.5231 2 2.8293 2 1.6569 0 3-1.3431 3-3s-1.3431-3-3-3c-1.3062 0-2.4175.83481-2.8293 2h-3.1707v-6h3.1707c.4118 1.16519 1.5231 2 2.8293 2 1.6569 0 3-1.34315 3-3s-1.3431-3-3-3c-1.3062 0-2.4175.83481-2.8293 2z" fill="#801ed7" fill-rule="evenodd"/></svg>