<svg fill="none" height="24" viewBox="0 0 24 24" width="24" xmlns="http://www.w3.org/2000/svg"><path clip-rule="evenodd" d="m18.032 1h-12.06398c-.43863-.000011-.81715-.000021-1.1304.02135-.32983.02251-.65974.07201-.98567.20701-.73508.30449-1.31911.88851-1.62359 1.62359-.135.32593-.18451.65584-.20701.98567-.02137.31325-.02136.69174-.02135 1.13038v.06398c-.00001.43865-.00002.81715.02135 1.1304.0225.32983.07201.65974.20701.98567.30448.73509.88851 1.31911 1.62359 1.62359.32593.135.65584.18451.98567.20701.31326.02137.69174.02137 1.13039.02135h5.03199v3h-2.2413c-.80494 0-1.46935 0-2.01053.0442-.56209.0459-1.0788.1445-1.56413.3918-.75265.3835-1.36457.9954-1.74807 1.748-.24729.4854-.34585 1.0021-.39178 1.5642-.03295.4033-.04134.875-.04347 1.4223-1.16557.4116-2.00072 1.523-2.00072 2.8295 0 1.6569 1.34315 3 3 3s3-1.3431 3-3c0-1.3059-.83441-2.4169-1.99917-2.829.00214-.5285.00975-.9298.03672-1.26.03582-.4384.10075-.6626.18044-.819.19174-.3763.49771-.6823.87403-.874.1564-.0797.3806-.1446.81902-.1804.45009-.0368 1.03238-.0376 1.88896-.0376h2.2v3.1707c-1.16519.4118-2 1.5231-2 2.8293 0 1.6569 1.3431 3 3 3s3-1.3431 3-3c0-1.3062-.8348-2.4175-2-2.8293v-3.1707h2.2c.8566 0 1.4389.0008 1.889.0376.4384.0358.6626.1007.819.1804.3763.1917.6823.4977.874.874.0797.1564.1446.3806.1804.819.027.3302.0346.7315.0368 1.26-1.1648.4121-1.9992 1.5231-1.9992 2.829 0 1.6569 1.3431 3 3 3s3-1.3431 3-3c0-1.3065-.8352-2.4179-2.0007-2.8295-.0022-.5473-.0105-1.019-.0435-1.4223-.0459-.5621-.1445-1.0788-.3918-1.5642-.3835-.7526-.9954-1.3645-1.748-1.748-.4854-.2473-1.0021-.3459-1.5642-.3918-.5412-.0442-1.2055-.0442-2.0104-.0442h-2.2414v-3h5.032c.4386.00002.8171.00002 1.1304-.02135.3298-.0225.6597-.07201.9857-.20701.735-.30448 1.3191-.8885 1.6235-1.62359.135-.32593.1845-.65584.2071-.98567.0213-.31325.0213-.69174.0213-1.13039v-.06398c0-.43865 0-.81713-.0213-1.13039-.0226-.32983-.0721-.65974-.2071-.98567-.3044-.73508-.8885-1.3191-1.6235-1.62359-.326-.135-.6559-.1845-.9857-.20701-.3133-.021371-.6918-.021361-1.1304-.02135z" fill="#801ed7" fill-rule="evenodd"/></svg>