<svg fill="none" height="24" viewBox="0 0 24 24" width="24" xmlns="http://www.w3.org/2000/svg"><path clip-rule="evenodd" d="m8.17616 3.11548c.40764-.11642.83646-.11594 1.32326-.11541l7.74188.00007c.805-.00001 1.4693-.00002 2.0105.0442.5621.04592 1.0788.14449 1.5642.39178.7526.38349 1.3645.99542 1.748 1.74806.2473.48534.3459 1.00204.3918 1.56414.0442.54119.0442 1.20554.0442 2.0105v6.48268c0 .8049 0 1.4693-.0442 2.0105-.0459.5621-.1445 1.0788-.3918 1.5641-.3835.7527-.9954 1.3646-1.748 1.7481-.4854.2473-1.0021.3458-1.5642.3918-.5412.0442-1.2055.0442-2.0105.0441l-7.74188.0001c-.4868.0006-.91562.001-1.32326-.1154-.35769-.1021-.69325-.2699-.98959-.4948-.33771-.2562-.59463-.5996-.88628-.9893l-4.38029-5.8406-.0551-.073c-.19837-.262-.44708-.5906-.54901-.9778-.08785-.3338-.08785-.6846 0-1.0183.10193-.3872.35064-.7158.54901-.9778l.0551-.0731 4.38029-5.84047c.29165-.38976.54857-.7331.88628-.98936.29634-.22485.6319-.39264.98959-.49479zm9.53094 5.17741c.3905.39053.3905 1.02369 0 1.41422l-2.2929 2.29289 2.2929 2.2929c.3905.3905.3905 1.0237 0 1.4142s-1.0237.3905-1.4142 0l-2.2929-2.2929-2.2929 2.2929c-.3905.3905-1.0237.3905-1.4142 0-.39053-.3905-.39053-1.0237 0-1.4142l2.2929-2.2929-2.2929-2.29289c-.39053-.39053-.39053-1.02369 0-1.41422.3905-.39052 1.0237-.39052 1.4142 0l2.2929 2.29291 2.2929-2.29291c.3905-.39052 1.0237-.39052 1.4142 0z" fill="#801ed7" fill-rule="evenodd"/></svg>