<svg fill="none" height="24" viewBox="0 0 24 24" width="24" xmlns="http://www.w3.org/2000/svg"><g fill="#801ed7"><path d="m12.6127 2h-1.2254l-1.99996 6h5.22536z"/><path d="m14.6125 10h-5.22501l2.61251 7.8375z"/><path d="m7.27916 8 2-6h-2.04496c-.44517 0-.86734.19773-1.15233.53972l-3.86682 4.64019c-.27139.32566-.03981.82009.38411.82009z"/><path d="m2.21505 10.8201c-.27138-.3257-.03981-.8201.38411-.8201h4.68014l3.5117 10.535c.0766.2299-.1754.3848-.3247.194-.0518-.0662-.1034-.1314-.1555-.194z"/><path d="m16.7207 10h4.6802c.4239 0 .6555.4944.3841.8201l-8.0958 9.7149c-.0521.0626-.1037.1278-.1555.194-.1493.1908-.4013.0358-.3247-.194z"/><path d="m21.785 7.17991c.2714.32566.0398.82009-.3841.82009h-4.6801l-2-6h2.045c.4452 0 .8674.19773 1.1524.53972z"/></g></svg>