<svg fill="none" height="24" viewBox="0 0 24 24" width="24" xmlns="http://www.w3.org/2000/svg"><g fill="#801ed7"><path clip-rule="evenodd" d="m3.99999 22c0-.5523.44771-1 1-1h14.00001c.5523 0 1 .4477 1 1s-.4477 1-1 1h-14.00001c-.55229 0-1-.4477-1-1z" fill-rule="evenodd"/><path d="m12.6127 1h-1.2254l-1.99996 6h5.22536z"/><path d="m14.7208 1 2 6h4.68c.4239 0 .6555-.49443.3841-.82009l-3.8668-4.64019c-.285-.34199-.7072-.53972-1.1523-.53972z"/><path d="m21.682 9.83634c.292-.32119.0641-.83634-.37-.83634h-4.6011l-3.2303 9.2871c-.0715.2056.1904.3613.3369.2002z"/><path d="m10.1826 18.4875c.1464.1611.4084.0054.3369-.2002l-3.23038-9.2873h-4.60126c-.43407 0-.66195.51515-.36997.83634z"/><path d="m2.21499 6.17991c-.27139.32566-.03981.82009.38411.82009h4.68005l2-6h-2.04501c-.44517 0-.86734.19773-1.15233.53972z"/><path d="m9.40665 9h5.18665l-2.5933 7.4559z"/></g></svg>