<svg fill="none" height="24" viewBox="0 0 24 24" width="24" xmlns="http://www.w3.org/2000/svg"><path clip-rule="evenodd" d="m17.8385 2h-11.67704c-.52713-.00002-.98192-.00003-1.35649.03057-.39534.0323-.78856.10362-1.16694.29641-.56449.28762-1.02343.74656-1.31105 1.31105-.19279.37838-.26411.7716-.29641 1.16694-.0306.37457-.03059.82932-.03057 1.35645v11.67708c-.00002.5272-.00003.982.03057 1.3565.0323.3954.10362.7886.29641 1.167.28762.5645.74656 1.0234 1.31105 1.311.37838.1928.7716.2641 1.16694.2964.37457.0306.82933.0306 1.35647.0306h11.67716c.5271 0 .9819 0 1.3564-.0306.3954-.0323.7886-.1036 1.167-.2964.5645-.2876 1.0234-.7465 1.311-1.311.1928-.3784.2641-.7716.2964-1.167.0306-.3745.0306-.8293.0306-1.3564v-11.67716c0-.52714 0-.9819-.0306-1.35647-.0323-.39534-.1036-.78856-.2964-1.16694-.2876-.56449-.7465-1.02343-1.311-1.31105-.3784-.19279-.7716-.26411-1.167-.29641-.3745-.0306-.8293-.03059-1.3565-.03057zm-2.8385 5.5c0-.82843.6716-1.5 1.5-1.5s1.5.67157 1.5 1.5-.6716 1.5-1.5 1.5-1.5-.67157-1.5-1.5zm-4.5 4.5c0-.8284.6716-1.5 1.5-1.5s1.5.6716 1.5 1.5-.6716 1.5-1.5 1.5-1.5-.6716-1.5-1.5zm-3 3c-.82843 0-1.5.6716-1.5 1.5s.67157 1.5 1.5 1.5 1.5-.6716 1.5-1.5-.67157-1.5-1.5-1.5zm9 0c.8284 0 1.5.6716 1.5 1.5s-.6716 1.5-1.5 1.5-1.5-.6716-1.5-1.5.6716-1.5 1.5-1.5zm-7.5-7.5c0-.82843-.67157-1.5-1.5-1.5s-1.5.67157-1.5 1.5.67157 1.5 1.5 1.5 1.5-.67157 1.5-1.5z" fill="#801ed7" fill-rule="evenodd"/></svg>