<svg fill="none" height="24" viewBox="0 0 24 24" width="24" xmlns="http://www.w3.org/2000/svg"><path clip-rule="evenodd" d="m1 12c0-6.07513 4.92487-11 11-11 6.0751 0 11 4.92487 11 11 0 6.0751-4.9249 11-11 11-6.07513 0-11-4.9249-11-11zm11 3c1.6569 0 3-1.3431 3-3s-1.3431-3-3-3-3 1.3431-3 3 1.3431 3 3 3zm3.4291-10.22969c-.4989-.23698-1.0954-.02469-1.3324.47417-.2369.49886-.0246 1.09537.4742 1.33235 2.0294.96408 3.4291 3.03113 3.4291 5.42307 0 .5523.4477 1 1 1s1-.4477 1-1c0-3.19277-1.8704-5.94673-4.5709-7.22959zm-9.4291 7.22959c0-.5523-.44772-1-1-1s-1 .4477-1 1c0 2.9113 1.55568 5.4582 3.87631 6.8565.47304.2851 1.08759.1326 1.37263-.3404s.13263-1.0876-.34042-1.3726c-1.74504-1.0515-2.90852-2.9621-2.90852-5.1435z" fill="#801ed7" fill-rule="evenodd"/></svg>