<svg fill="none" height="24" viewBox="0 0 24 24" width="24" xmlns="http://www.w3.org/2000/svg"><g clip-rule="evenodd" fill="#801ed7" fill-rule="evenodd"><path d="m2 3c0-.55228.44772-1 1-1h18c.5523 0 1 .44772 1 1s-.4477 1-1 1h-18c-.55228 0-1-.44772-1-1z"/><path d="m2 21c0-.5523.44772-1 1-1h18c.5523 0 1 .4477 1 1s-.4477 1-1 1h-18c-.55228 0-1-.4477-1-1z"/><path d="m7.96802 8h8.06398c.4386-.00001.8171-.00002 1.1304.02135.3298.0225.6597.07201.9857.20701.735.30448 1.3191.88851 1.6235 1.62359.135.32595.1845.65585.2071.98565.0213.3133.0213.6918.0213 1.1304v.064c0 .4386 0 .8171-.0213 1.1304-.0226.3298-.0721.6597-.2071.9857-.3044.735-.8885 1.3191-1.6235 1.6235-.326.135-.6559.1845-.9857.2071-.3133.0213-.6918.0213-1.1304.0213h-8.06396c-.43866 0-.81716 0-1.13042-.0214-.32983-.0225-.65974-.072-.98567-.207-.73508-.3044-1.31911-.8885-1.62359-1.6236-.135-.3259-.18451-.6558-.20701-.9856-.02137-.3133-.02136-.6918-.02135-1.1304v-.064c-.00001-.4386-.00002-.8171.02135-1.1304.0225-.3298.07201-.6597.20701-.98565.30448-.73508.88851-1.31911 1.62359-1.62359.32593-.135.65584-.18451.98567-.20701.31326-.02137.69175-.02136 1.1304-.02135z"/></g></svg>