<svg fill="none" height="24" viewBox="0 0 24 24" width="24" xmlns="http://www.w3.org/2000/svg"><g clip-rule="evenodd" fill="#801ed7" fill-rule="evenodd"><path d="m21 2c.5523 0 1 .44772 1 1v18c0 .5523-.4477 1-1 1s-1-.4477-1-1v-18c0-.55228.4477-1 1-1z"/><path d="m3 2c.55229 0 1 .44772 1 1v18c0 .5523-.44772 1-1 1s-1-.4477-1-1v-18c0-.55228.44772-1 1-1z"/><path d="m11.968 4h.064c.4386-.00001.8171-.00002 1.1304.02135.3298.0225.6597.07201.9857.20701.735.30448 1.3191.88851 1.6235 1.62359.135.32593.1845.65584.2071.98567.0213.31326.0213.69174.0213 1.13039v8.06399c0 .4386 0 .8171-.0213 1.1304-.0226.3298-.0721.6597-.2071.9857-.3044.735-.8885 1.3191-1.6235 1.6235-.326.135-.6559.1845-.9857.207-.3133.0214-.6918.0214-1.1304.0214h-.064c-.4386 0-.8171 0-1.1304-.0214-.3298-.0225-.6597-.072-.98565-.207-.73508-.3044-1.31911-.8885-1.62359-1.6236-.135-.3259-.18451-.6558-.20701-.9856-.02137-.3133-.02136-.6918-.02135-1.1304v-8.06398c-.00001-.43865-.00002-.81714.02135-1.1304.0225-.32983.07201-.65974.20701-.98567.30448-.73508.88851-1.31911 1.62359-1.62359.32595-.135.65585-.18451.98565-.20701.3133-.02137.6918-.02136 1.1304-.02135z"/></g></svg>