<svg fill="none" height="24" viewBox="0 0 24 24" width="24" xmlns="http://www.w3.org/2000/svg"><g clip-rule="evenodd" fill="#801ed7" fill-rule="evenodd"><path d="m2 12c0-.5522.44772-1 1-1h.01c.55228 0 1 .4478 1 1 0 .5523-.44772 1-1 1h-.01c-.55228 0-1-.4477-1-1z"/><path d="m6.5 12c0-.5522.44772-1 1-1h.01c.55228 0 1 .4478 1 1 0 .5523-.44772 1-1 1h-.01c-.55228 0-1-.4477-1-1z"/><path d="m15.5 12c0-.5522.4477-1 1-1h.01c.5523 0 1 .4478 1 1 0 .5523-.4477 1-1 1h-.01c-.5523 0-1-.4477-1-1z"/><path d="m11 12c0-.5522.4477-1 1-1h.01c.5523 0 1 .4478 1 1 0 .5523-.4477 1-1 1h-.01c-.5523 0-1-.4477-1-1z"/><path d="m20 12c0-.5522.4477-1 1-1h.01c.5523 0 1 .4478 1 1 0 .5523-.4477 1-1 1h-.01c-.5523 0-1-.4477-1-1z"/><path d="m19.7342 1.9999c.2348-.00071.5226-.00159.7834.06829.6902.18494 1.2293.72403 1.4143 1.41422.0698.26079.069.5486.0682.78342-.0015.50241.0289 1.02093-.1023 1.51067-.2774 1.03528-1.0861 1.84392-2.1213 2.12132-.3856.1033-.8236.10284-1.3313.1023-4.2968-.00455-8.59361-.00455-12.89038 0-.50772.00054-.94575.001-1.33128-.1023-1.03527-.2774-1.84392-1.08604-2.12132-2.12132-.13122-.48974-.10083-1.00826-.10236-1.51067-.00071-.23482-.00159-.52263.06829-.78342.18493-.69019.72403-1.22928 1.41421-1.41422.26079-.06988.5486-.069.78343-.06828 5.15597.0157 10.31241.0157 15.46841-.00001z"/><path d="m19.7342 22.0001c.2348.0008.5226.0016.7834-.0682.6902-.185 1.2293-.7241 1.4142-1.4143.0699-.2608.069-.5486.0683-.7834-.0015-.5024.0289-1.0209-.1023-1.5107-.2774-1.0352-1.0861-1.8439-2.1214-2.1213-.3855-.1033-.8235-.1028-1.3312-.1023-4.2968.0046-8.59362.0046-12.89039 0-.50772-.0005-.94575-.001-1.33128.1023-1.03527.2774-1.84392 1.0861-2.12132 2.1213-.13122.4898-.10083 1.0083-.10236 1.5107-.00071.2348-.00159.5226.06829.7834.18493.6902.72403 1.2293 1.41421 1.4143.26079.0698.5486.069.78343.0682 5.15597-.0157 10.31242-.0157 15.46842 0z"/></g></svg>