<svg fill="none" height="24" viewBox="0 0 24 24" width="24" xmlns="http://www.w3.org/2000/svg"><g fill="#801ed7"><path d="m4.5 2.5c-1.38071 0-2.5 1.11929-2.5 2.5s1.11929 2.5 2.5 2.5 2.5-1.11929 2.5-2.5-1.11929-2.5-2.5-2.5z"/><path d="m10 4h11c.5523 0 1 .44772 1 1 0 .55229-.4477 1-1 1h-11c-.55228 0-1-.44771-1-1 0-.55228.44772-1 1-1z"/><path d="m10 18h11c.5523 0 1 .4477 1 1s-.4477 1-1 1h-11c-.55228 0-1-.4477-1-1s.44772-1 1-1z"/><path d="m21 11h-11c-.55228 0-1 .4477-1 1s.44772 1 1 1h11c.5523 0 1-.4477 1-1s-.4477-1-1-1z"/><path d="m4.5 16.5c-1.38071 0-2.5 1.1193-2.5 2.5s1.11929 2.5 2.5 2.5 2.5-1.1193 2.5-2.5-1.11929-2.5-2.5-2.5z"/><path d="m4.5 9.5c-1.38071 0-2.5 1.1193-2.5 2.5s1.11929 2.5 2.5 2.5 2.5-1.1193 2.5-2.5-1.11929-2.5-2.5-2.5z"/></g></svg>