<svg fill="none" height="24" viewBox="0 0 24 24" width="24" xmlns="http://www.w3.org/2000/svg"><path d="m7.62116 1.90608c.76238-.33119 1.14357-.49678 1.7455-.38453.43938.08195 1.04034.47609 1.29054.84645.3428.50735.3428 1.06429.3428 2.17817v9.03963l-2.29289-2.2929c-.39053-.3905-1.02369-.3905-1.41422 0-.39052.3905-.39052 1.0237 0 1.4142l4.00001 4c.3905.3905 1.0237.3905 1.4142 0l4-4c.3905-.3905.3905-1.0237 0-1.4142s-1.0237-.3905-1.4142 0l-2.2929 2.2929.0001-8.93037c.001-1.26101.0018-2.25658-.7341-3.29739-.0877-.12399-.1918-.24384-.3062-.35797.0134-.00005.0268-.00007.0402-.00007 6.0751 0 11 4.92487 11 11 0 6.0751-4.9249 11-11 11-6.07513 0-11-4.9249-11-11 0-4.51889 2.72487-8.40135 6.62116-10.09392z" fill="#801ed7"/></svg>