<svg fill="none" height="24" viewBox="0 0 24 24" width="24" xmlns="http://www.w3.org/2000/svg"><g fill="#801ed7"><path d="m7.22602 14.4687c-.17296-.173-.25943-.2595-.36035-.3213-.08947-.0548-.18701-.0952-.28905-.1197-.11509-.0277-.23738-.0277-.48197-.0277h-.76176c-.30453-.0002-.56654-.0003-.8022.037-1.28368.2033-2.29045 1.2101-2.49376 2.4938-.03732.2356-.03716.4976-.03696.8021l.00001.1497c-.00016.4769-.00027.8304.04926 1.1432.27109 1.7116 1.61345 3.0539 3.32502 3.325.31275.0495.66624.0494 1.14322.0493h10.96502c.477.0001.8305.0002 1.1432-.0493 1.7116-.2711 3.054-1.6134 3.325-3.325.0496-.3127.0495-.6662.0493-1.1431v-.1497c.0002-.3046.0004-.5666-.0369-.8022-.2034-1.2837-1.2101-2.2905-2.4938-2.4938-.2357-.0373-.4977-.0372-.8022-.037h-.7617c-.2446 0-.3669 0-.482.0277-.1021.0245-.1996.0649-.2891.1197-.1009.0618-.1874.1483-.3603.3213l-2.6527 2.6526c-1.1716 1.1716-3.071 1.1716-4.24262 0z"/><path d="m13 3c0-.55228-.4477-1-1-1s-1 .44772-1 1v9.5858l-3.29289-3.29291c-.39053-.39052-1.02369-.39052-1.41422 0-.39052.39053-.39052 1.02371 0 1.41421l5.00001 5c.3905.3905 1.0237.3905 1.4142 0l5-5c.3905-.3905.3905-1.02368 0-1.41421-.3905-.39052-1.0237-.39052-1.4142 0l-3.2929 3.29291z"/></g></svg>