<svg fill="none" height="24" viewBox="0 0 24 24" width="24" xmlns="http://www.w3.org/2000/svg"><path clip-rule="evenodd" d="m0 12c0 4.9706 4.02944 9 9 9h7.5c4.1421 0 7.5-3.3579 7.5-7.5 0-4.14214-3.3579-7.5-7.5-7.5-.2559 0-.5087.01281-.758.03783-1.6489-1.86319-4.0583-3.03783-6.742-3.03783-4.97056 0-9 4.02944-9 9zm12-4c.5523 0 1 .44772 1 1v5.5858l2.2929-2.2929c.3905-.3905 1.0237-.3905 1.4142 0s.3905 1.0237 0 1.4142l-4 4c-.3905.3905-1.0237.3905-1.4142 0l-4.00001-4c-.39052-.3905-.39052-1.0237 0-1.4142.39053-.3905 1.02369-.3905 1.41422 0l2.29289 2.2929v-5.5858c0-.55228.4477-1 1-1z" fill="#801ed7" fill-rule="evenodd"/></svg>