<svg fill="none" height="24" viewBox="0 0 24 24" width="24" xmlns="http://www.w3.org/2000/svg"><path clip-rule="evenodd" d="m24 14c0-2.7989-1.9164-5.15013-4.5086-5.81319-1.1386-3.0304-4.0631-5.18681-7.4914-5.18681-3.03544 0-5.67602 1.69055-7.03159 4.18148-2.85077.68856-4.96841 3.25622-4.96841 6.31852 0 3.5899 2.91015 6.5 6.5 6.5h11.5c3.3137 0 6-2.6863 6-6zm-12-7c.5523 0 1 .44772 1 1v5.5858l2.2929-2.2929c.3905-.3905 1.0237-.3905 1.4142 0s.3905 1.0237 0 1.4142l-4 4c-.3905.3905-1.0237.3905-1.4142 0l-4.00001-4c-.39052-.3905-.39052-1.0237 0-1.4142.39053-.3905 1.02369-.3905 1.41422 0l2.29289 2.2929v-5.5858c0-.55228.4477-1 1-1z" fill="#801ed7" fill-rule="evenodd"/></svg>