<svg fill="none" height="24" viewBox="0 0 24 24" width="24" xmlns="http://www.w3.org/2000/svg"><g fill="#801ed7"><path d="m7.98058 4.58367c-.09348-.46742-.5039-.80388-.98058-.80388s-.8871.33646-.98058.80388c-.24363 1.21817-.96695 2.40152-1.93412 3.17525-1.34316 1.07453-2.0853 2.46478-2.0853 3.97088 0 2.7593 2.23484 5.05 5 5.05s5-2.2907 5-5.05c0-1.524-.7593-2.88919-2.07787-3.96488-.96895-.79046-1.69921-1.96954-1.94155-3.18125z"/><path d="m14 1.5c.4767 0 .8871.33646.9806.80388.452 2.2599 1.8202 4.45614 3.6441 5.91525 2.179 1.74319 3.3746 3.90907 3.3753 6.27877.0061 1.5796-.4567 3.1256-1.3298 4.4419-.8736 1.317-2.1185 2.345-3.5769 2.9536-.9846.4108-2.0366.6181-3.0932.6154-1.0567.0027-2.1087-.2046-3.0933-.6154-1.08671-.4535-2.05641-1.1423-2.84043-2.0071-.27284-.3009-.40927-.4514-.42759-.6111-.01619-.1412.02614-.2777.11936-.385.10548-.1214.35263-.18.84691-.2973 3.10955-.738 5.39495-3.5702 5.39495-6.8631 0-1.96443-.8657-3.65751-2.1991-4.96527-.2058-.20192-.3088-.30288-.3478-.3984-.0384-.09394-.0469-.16597-.0312-.26624.0159-.10196.0915-.22211.2428-.4624.6509-1.03405 1.1231-2.17547 1.3547-3.33361.0935-.46742.5039-.80388.9806-.80388z"/></g></svg>