<svg fill="none" height="24" viewBox="0 0 24 24" width="24" xmlns="http://www.w3.org/2000/svg"><path d="m11.2943 1.29131c-.3372.33043-.67.66532-1.0006 1.00241-.60895.62106-1.43457 1.48112-2.29902 2.43537-.86289.95253-1.77313 2.00841-2.5474 3.01984-.76002.99282-1.4426 2.01085-1.7927 2.87577-.42245 1.0436-.65458 2.1835-.65458 3.3752 0 4.9706 4.02944 9 9 9 4.9706 0 9-4.0294 9-9 0-1.1917-.2321-2.3316-.6546-3.3752-.3501-.86492-1.0327-1.88295-1.7927-2.87577-.7742-1.01143-1.6845-2.06731-2.5474-3.01984-.8644-.95425-1.69-1.81431-2.299-2.43537-.3306-.33709-.6634-.67198-1.0006-1.00241-.0893-.08897-.1962-.16181-.3169-.21273-.1255-.05296-.2577-.078664-.3888-.07858-.1311-.000084-.2633.02562-.3888.07858-.1207.05092-.2276.12376-.3169.21273z" fill="#801ed7"/></svg>