<svg fill="none" height="24" viewBox="0 0 24 24" width="24" xmlns="http://www.w3.org/2000/svg"><g fill="#801ed7"><path d="m5 1c-.34622 0-.6678.17908-.85012.47341-.04573.07452-.09115.14923-.13615.2242-.08467.14103-.20487.34373-.34878.5933-.28732.49828-.67156 1.18753-1.057 1.94834-.38402.758-.77722 1.60266-1.07665 2.40895-.28978.78034-.5313 1.62632-.5313 2.3518 0 2.2091 1.79086 4 4 4s4-1.7909 4-4c0-.72548-.24152-1.57146-.5313-2.3518-.29943-.80629-.69263-1.65095-1.07665-2.40895-.38544-.76081-.76968-1.45006-1.05701-1.94834-.1439-.24957-.2641-.45227-.34877-.5933-.045-.07497-.09042-.14968-.13615-.2242-.18232-.29433-.5039-.47341-.85012-.47341z"/><path d="m9 16c0 3.866 3.134 7 7 7s7-3.134 7-7c0-1.2647-.429-2.8178-1.0001-4.3555-.5806-1.5636-1.3488-3.21588-2.1078-4.71407-.7605-1.501-1.5197-2.86305-2.0883-3.84908-.2845-.49344-.5219-.89375-.6886-1.17142-.0834-.13886-.1491-.24712-.1943-.32109l-.0708-.11543c-.1823-.29433-.5039-.47341-.8501-.47341s-.6678.17908-.8501.47341l-.0708.11543c-.0452.07397-.1109.18223-.1943.32109-.1667.27767-.4041.67798-.6886 1.17142-.5686.98603-1.3278 2.34808-2.0883 3.84908-.759 1.49819-1.5272 3.15047-2.1078 4.71407-.57108 1.5377-1.0001 3.0908-1.0001 4.3555z"/></g></svg>