<svg fill="none" height="24" viewBox="0 0 24 24" width="24" xmlns="http://www.w3.org/2000/svg"><g fill="#801ed7"><path d="m1.88976 22.9937c-.23247-.0258-.43881-.1329-.59406-.2894-.15652-.1552-.26355-.3616-.28938-.594-.029682-.2671.03116-.5613.08778-.8351.01417-.0685.02807-.1357.04022-.2009.09114-.4888.23991-1.1665.4717-1.9281.45606-1.4985 1.26628-3.4327 2.68707-4.8535l6.29271-6.2927-.79291-.79289c-.39052-.39053-.39052-1.02369 0-1.41422.39051-.39052 1.02371-.39052 1.41421 0l7 7.00001c.3905.3905.3905 1.0237 0 1.4142s-1.0237.3905-1.4142 0l-.7929-.7929-6.2927 6.2927c-1.42078 1.4208-3.35496 2.231-4.85344 2.6871-.7616.2318-1.43934.3805-1.92819.4717-.06519.0121-.13239.026-.20087.0402-.27378.0566-.56794.1175-.83504.0878z"/><path d="m14.5456 4.04021c-.396.39601-.594.59402-.6682.82235-.0653.20084-.0653.41719 0 .61803.0742.22833.2722.42634.6682.82236l3.1515 3.15147c.396.39602.594.59408.8223.66818.2009.0653.4172.0653.6181 0 .2283-.0741.4263-.27216.8223-.66817l1.7475-1.74751c1.4951-1.49509 1.4951-3.91911 0-5.41421l-.0023-.00228c-1.4953-1.492814-3.9176-1.492058-5.4119.00228z"/></g></svg>