<svg fill="none" height="24" viewBox="0 0 24 24" width="24" xmlns="http://www.w3.org/2000/svg"><path d="m12.9806 2.30388c-.0935-.46742-.5039-.80388-.9806-.80388s-.8871.33646-.9806.80388c-.452 2.2599-1.82021 4.45614-3.6441 5.91525-2.17962 1.7437-3.3753 3.91027-3.3753 6.28087 0 2.1217.84285 4.1566 2.34315 5.6569 1.50029 1.5002 3.53512 2.3431 5.65685 2.3431 2.1217 0 4.1566-.8429 5.6569-2.3431 1.5002-1.5003 2.3431-3.5352 2.3431-5.6569 0-2.3706-1.1957-4.53717-3.3753-6.28087-1.8239-1.45911-3.1921-3.65535-3.6441-5.91525z" fill="#801ed7"/></svg>