<svg fill="none" height="24" viewBox="0 0 24 24" width="24" xmlns="http://www.w3.org/2000/svg"><g clip-rule="evenodd" fill="#801ed7" fill-rule="evenodd"><path d="m21.6747 17.2619c.4077.3726.436 1.0052.0634 1.4128l-1.0001 1.094c-.7096.7761-1.6922 1.2313-2.7378 1.2313-1.0453 0-2.0276-.4548-2.7371-1.2304-.3519-.3833-.8082-.5795-1.2629-.5795-.4548 0-.9113.1963-1.2633.58-.3734.4069-1.006.4342-1.4129.0608-.407-.3734-.4342-1.006-.0608-1.4129.7103-.7742 1.6923-1.2279 2.737-1.2279 1.0448 0 2.0267.4537 2.7371 1.2279l.0011.0012c.3513.3842.8074.5808 1.2618.5808.4543 0 .9104-.1966 1.2616-.5807l1.0001-1.094c.3727-.4076 1.0052-.436 1.4128-.0634z"/><path d="m15.793 2.79287c1.2189-1.21894 3.1952-1.21895 4.4142 0 1.2189 1.21896 1.2189 3.19527 0 4.41422l-12.56277 12.56271c-.0198.0198-.03941.0395-.05887.059-.28745.288-.54089.5419-.84642.7291-.26842.1645-.56105.2857-.86716.3592-.34845.0836-.7072.0833-1.1141.0829-.02754 0-.0553 0-.0833 0h-1.67454c-.55228 0-1-.4477-1-1v-1.6745c0-.028-.00003-.0558-.00005-.0833-.00038-.4069-.00071-.7657.08294-1.1141.07349-.3061.1947-.5988.35919-.8672.18724-.3055.44115-.559.72913-.8464.0195-.0195.03915-.0391.05894-.0589z"/></g></svg>