<svg fill="none" height="24" viewBox="0 0 24 24" width="24" xmlns="http://www.w3.org/2000/svg"><g fill="#801ed7"><path d="m21.7071 2.29289c-1.4951-1.495092-3.9191-1.495094-5.4142 0l-1.1615 1.16152c-.396.39602-.5941.59403-.6682.82236-.0653.20084-.0653.41719 0 .61803.0741.22833.2722.42634.6682.82236l3.1514 3.15147c.3961.39601.5941.59402.8224.66821.2008.06526.4172.06526.618 0 .2284-.07419.4264-.2722.8224-.66821l1.1615-1.16152c1.4951-1.4951 1.4951-3.91912 0-5.41422z"/><path d="m16.8686 12.5456c.396-.396.5941-.594.6682-.8224.0653-.2008.0653-.4172 0-.618-.0741-.2283-.2722-.4263-.6682-.8224l-3.1514-3.15144c-.3961-.39601-.5941-.59402-.8224-.66821-.2008-.06526-.4172-.06526-.618 0-.2284.07419-.4264.27219-.8224.66821l-8.4177 8.41764c-.24529.2449-.46166.4609-.63091.7176-.14881.2257-.26644.4704-.34969.7276-.09469.2925-.12821.5964-.16621.9409l-.3838 3.4545c-.03354.3019.07197.6027.28678.8175s.51561.3203.81754.2868l3.4545-.3838c.34451-.038.64841-.0715.9409-.1662.25717-.0833.5019-.2009.72756-.3497.25668-.1693.4727-.3856.7176-.6309z"/></g></svg>