<svg fill="none" height="24" viewBox="0 0 24 24" width="24" xmlns="http://www.w3.org/2000/svg"><g clip-rule="evenodd" fill="#801ed7" fill-rule="evenodd"><path d="m11 20c0-.5523.4477-1 1-1h9c.5523 0 1 .4477 1 1s-.4477 1-1 1h-9c-.5523 0-1-.4477-1-1z"/><path d="m15.793 2.79287c1.2189-1.21894 3.1952-1.21895 4.4142 0 1.2189 1.21896 1.2189 3.19527 0 4.41422l-12.56277 12.56271c-.0198.0198-.03941.0395-.05887.059-.28745.288-.54089.5419-.84642.7291-.26842.1645-.56105.2857-.86716.3592-.34845.0836-.7072.0833-1.1141.0829-.02754 0-.0553 0-.0833 0h-1.67454c-.55228 0-1-.4477-1-1v-1.6745c0-.028-.00003-.0558-.00005-.0833-.00038-.4069-.00071-.7657.08294-1.1141.07349-.3061.1947-.5988.35919-.8672.18724-.3055.44115-.559.72913-.8464.0195-.0195.03915-.0391.05894-.0589z"/></g></svg>