<svg fill="none" height="24" viewBox="0 0 24 24" width="24" xmlns="http://www.w3.org/2000/svg"><path clip-rule="evenodd" d="m16.2929 2.29289c1.4951-1.495094 3.9191-1.495092 5.4142 0 1.4951 1.4951 1.4951 3.91912 0 5.41422l-13.20629 13.20629c-.01676.0167-.03336.0334-.04984.0499-.2449.2453-.46092.4616-.7176.6309-.22566.1488-.47039.2664-.72756.3497-.29249.0947-.59639.1282-.9409.1662-.02319.0025-.04657.0051-.07013.0077l-3.38437.3761c-.30193.0335-.60273-.072-.81754-.2868s-.32032-.5156-.28678-.8175l.37604-3.3844c.00262-.0236.0052-.0469.00776-.0701.038-.3445.07152-.6484.16621-.9409.08325-.2572.20088-.5019.34969-.7276.16925-.2567.38562-.4727.63091-.7176.0165-.0165.03314-.0331.0499-.0498z" fill="#801ed7" fill-rule="evenodd"/></svg>