<svg fill="none" height="24" viewBox="0 0 24 24" width="24" xmlns="http://www.w3.org/2000/svg"><g clip-rule="evenodd" fill="#801ed7" fill-rule="evenodd"><path d="m6.7587 2.99998h4.2413c.5523 0 1 .44772 1 1 0 .55229-.4477 1-1 1h-4.2c-.85658 0-1.43887.00078-1.88896.03756-.43842.03582-.66262.10074-.81902.18043-.37632.19175-.68229.49771-.87403.87403-.07969.1564-.14462.38061-.18044.81902-.03677.45009-.03755 1.03238-.03755 1.88896v8.40002c0 .8566.00078 1.4389.03755 1.8889.03582.4385.10075.6627.18044.8191.19174.3763.49771.6823.87403.874.1564.0797.3806.1446.81902.1804.45009.0368 1.03238.0376 1.88896.0376h8.4c.8566 0 1.4389-.0008 1.889-.0376.4384-.0358.6626-.1007.819-.1804.3763-.1917.6823-.4977.874-.874.0797-.1564.1446-.3806.1804-.8191.0368-.45.0376-1.0323.0376-1.8889v-4.2c0-.5523.4477-1 1-1s1 .4477 1 1v4.2413c0 .805 0 1.4693-.0442 2.0105-.0459.5621-.1445 1.0788-.3918 1.5641-.3835.7527-.9954 1.3646-1.748 1.7481-.4854.2473-1.0021.3459-1.5642.3918-.5412.0442-1.2055.0442-2.0105.0442h-8.48262c-.80496 0-1.46932 0-2.01051-.0442-.56209-.0459-1.0788-.1445-1.56413-.3918-.75265-.3835-1.36457-.9954-1.74807-1.7481-.24729-.4853-.34585-1.002-.39178-1.5641-.044213-.5412-.044202-1.2055-.04419-2.0105v-8.48262c-.000012-.80497-.000023-1.46933.04419-2.01052.04593-.5621.14449-1.0788.39178-1.56414.3835-.75265.99542-1.36457 1.74807-1.74806.48533-.24729 1.00204-.34586 1.56413-.39178.5412-.04422 1.20556-.04421 2.01053-.0442z"/><path d="m17.7929 1.79287c1.2189-1.218946 3.1953-1.218944 4.4142.00001 1.219 1.21895 1.219 3.19526 0 4.41421l-9.5627 9.56271c-.0198.0198-.0394.0395-.0589.059-.2875.288-.5409.5419-.8464.7291-.2684.1645-.5611.2857-.8672.3592-.3484.0836-.7072.0833-1.11409.0829-.02754 0-.0553 0-.08329 0h-1.67455c-.55228 0-1-.4477-1-1v-1.6745c0-.028-.00002-.0558-.00005-.0833-.00038-.4069-.00071-.7657.08294-1.1141.0735-.3061.19471-.5988.3592-.8672.18723-.3055.44114-.559.72913-.8464.01949-.0195.03914-.0391.05894-.0589z"/></g></svg>