<svg fill="none" height="24" viewBox="0 0 24 24" width="24" xmlns="http://www.w3.org/2000/svg"><path d="m19.7071 5.70711c.3905-.39053.3905-1.02369 0-1.41422-.3905-.39052-1.0237-.39052-1.4142 0l-3.7071 3.70711h-9.5858c-.55228 0-1 .44772-1 1s.44772 1 1 1h7.5858l-4.00001 4h-3.58579c-.55228 0-1 .4477-1 1s.44772 1 1 1h1.58579l-2.2929 2.2929c-.39052.3905-.39052 1.0237 0 1.4142.39053.3905 1.02369.3905 1.41422 0l3.7071-3.7071h9.58579c.5523 0 1-.4477 1-1s-.4477-1-1-1h-7.5858l4-4h3.5858c.5523 0 1-.44772 1-1s-.4477-1-1-1h-1.5858z" fill="#801ed7"/></svg>