<svg fill="none" height="24" viewBox="0 0 24 24" width="24" xmlns="http://www.w3.org/2000/svg"><g fill="#801ed7"><path d="m14.764 1.43845c.8033-.26103 1.6687-.26103 2.4721 0 .518.16832.9531.46399 1.383.82898.414.35139.8837.82113 1.4528 1.39027l.2704.27043c.5692.56911 1.039 1.03889 1.3903 1.4528.365.42993.6607.86499.829 1.38304.2611.80337.2611 1.66876 0 2.47213-.1683.51805-.464.9531-.829 1.383-.3514.414-.8212.8838-1.3904 1.4529-.2053.2054-.308.3081-.4138.3715-.3165.1898-.7118.1898-1.0283 0-.1058-.0634-.2085-.1661-.4139-.3715l-6.5582-6.55823c-.2054-.20534-.308-.308-.3714-.41373-.1898-.31654-.1898-.71189 0-1.02844.0634-.10572.166-.20839.3714-.41373.5692-.56922 1.039-1.03902 1.4529-1.39044.43-.36499.865-.66066 1.3831-.82898z"/><path d="m10.7172 7.1314c-.396-.39601-.594-.59402-.82236-.66821-.20085-.06526-.41719-.06526-.61804 0-.22832.07419-.42633.2722-.82235.66822l-4.79661 4.79659c-.56921.5692-1.03899 1.039-1.39041 1.4529-.36499.43-.66066.865-.82898 1.3831-.26103.8033-.26103 1.6687 0 2.4721.16832.518.46399.9531.82898 1.383.35139.414.82114.8837 1.3903 1.4528l.75682.7569c.28744.288.54088.5419.84642.7292.26841.1644.56105.2857.86716.3591.34844.0837.70719.0834 1.11409.083h1.51563c.05823 0 .11547.0001.17184-.0001h12.07031c.5523 0 1-.4477 1-1s-.4477-1-1-1h-8.5857l4.4544-4.4544c.396-.396.594-.594.6682-.8223.0652-.2009.0652-.4172 0-.6181-.0742-.2283-.2722-.4263-.6682-.8223z"/></g></svg>