<svg fill="none" height="24" viewBox="0 0 24 24" width="24" xmlns="http://www.w3.org/2000/svg"><g fill="#801ed7"><path d="m14 3c0-.55228.4477-1 1-1h6c.5523 0 1 .44772 1 1v6c0 .55229-.4477 1-1 1s-1-.44771-1-1v-3.58579l-4.2929 4.2929c-.3905.39049-1.0237.39049-1.4142 0-.3905-.39053-.3905-1.02369 0-1.41422l4.2929-4.29289h-3.5858c-.5523 0-1-.44772-1-1z"/><path d="m10 3h-2.83854c-.52715-.00002-.98192-.00003-1.35649.03057-.39534.0323-.78856.10362-1.16694.29641-.56449.28762-1.02343.74656-1.31105 1.31105-.19279.37838-.26411.7716-.29641 1.16694-.0306.37457-.03059.82934-.03057 1.35648v2.83855c0 .5523.44772 1 1 1 .55229 0 1-.4477 1-1v-2.8c0-.57655.00078-.94883.02393-1.23216.02219-.27167.05987-.37238.08507-.42183.09587-.18816.24885-.34114.43701-.43701.04945-.0252.15016-.06288.42183-.08507.28333-.02315.65561-.02393 1.23216-.02393h2.8c.5523 0 1-.44771 1-1 0-.55228-.4477-1-1-1z"/><path d="m19 14v2.8c0 .5766-.0008.9488-.0239 1.2322-.0222.2716-.0599.3723-.0851.4218-.0959.1882-.2488.3411-.437.437-.0495.0252-.1502.0629-.4218.0851-.2834.0231-.6556.0239-1.2322.0239h-2.8c-.5523 0-1 .4477-1 1s.4477 1 1 1h2.8385c.5272 0 .982 0 1.3565-.0306.3954-.0323.7886-.1036 1.167-.2964.5645-.2876 1.0234-.7465 1.311-1.311.1928-.3784.2641-.7716.2964-1.167.0306-.3745.0306-.8293.0306-1.3565v-2.8385c0-.5523-.4477-1-1-1s-1 .4477-1 1z"/><path d="m9.70711 15.7071c.39049-.3905.39049-1.0237 0-1.4142-.39053-.3905-1.02369-.3905-1.41422 0l-4.29289 4.2929v-3.5858c0-.5523-.44771-1-1-1-.55228 0-1 .4477-1 1v6c0 .5523.44772 1 1 1h6c.55228 0 1-.4477 1-1s-.44772-1-1-1h-3.58579z"/></g></svg>