<svg fill="none" height="24" viewBox="0 0 24 24" width="24" xmlns="http://www.w3.org/2000/svg"><g fill="#801ed7"><path d="m10 2h-2.2413c-.80496-.00001-1.46933-.00002-2.01052.04419-.5621.04593-1.07881.14449-1.56414.39179-.75265.38349-1.36457.99541-1.74806 1.74806-.2473.48533-.34586 1.00204-.39179 1.56414-.04421.54119-.0442 1.20554-.04419 2.01051v2.24131c0 .5523.44772 1 1 1 .55229 0 1-.4477 1-1v-2.2c0-.85658.00078-1.43887.03755-1.88896.03582-.43842.10075-.66262.18044-.81902.19174-.37632.49771-.68229.87403-.87403.1564-.07969.3806-.14462.81902-.18044.45009-.03677 1.03238-.03755 1.88896-.03755h2.2c.5523 0 1-.44771 1-1 0-.55228-.4477-1-1-1z"/><path d="m22 14c0-.5523-.4477-1-1-1s-1 .4477-1 1v2.2c0 .8566-.0008 1.4389-.0376 1.889-.0358.4384-.1007.6626-.1804.819-.1917.3763-.4977.6823-.874.874-.1564.0797-.3806.1446-.819.1804-.4501.0368-1.0324.0376-1.889.0376h-2.2c-.5523 0-1 .4477-1 1s.4477 1 1 1h2.2413c.8049 0 1.4693 0 2.0105-.0442.5621-.0459 1.0788-.1445 1.5642-.3918.7526-.3835 1.3645-.9954 1.748-1.748.2473-.4854.3459-1.0021.3918-1.5642.0442-.5412.0442-1.2055.0442-2.0104z"/><path d="m15 4h3.5858l-4.2929 4.29289c-.3905.39053-.3905 1.02369 0 1.41422.3905.39049 1.0237.39049 1.4142 0l4.2929-4.2929v3.58579c0 .55229.4477 1 1 1s1-.44771 1-1v-6c0-.55228-.4477-1-1-1h-6c-.5523 0-1 .44772-1 1 0 .55229.4477 1 1 1z"/><path d="m5.41421 20 4.2929-4.2929c.39049-.3905.39049-1.0237 0-1.4142-.39053-.3905-1.02369-.3905-1.41422 0l-4.29289 4.2929v-3.5858c0-.5523-.44771-1-1-1-.55228 0-1 .4477-1 1v6c0 .5523.44772 1 1 1h6c.55229 0 1-.4477 1-1s-.44771-1-1-1z"/></g></svg>