<svg fill="none" height="24" viewBox="0 0 24 24" width="24" xmlns="http://www.w3.org/2000/svg"><g fill="#801ed7"><path d="m9 4h-3.58579l4.2929 4.29289c.39049.39053.39049 1.02369 0 1.41422-.39053.39049-1.02369.39049-1.41422 0l-4.29289-4.2929v3.58579c0 .55229-.44771 1-1 1-.55228 0-1-.44771-1-1v-6c0-.55228.44772-1 1-1h6c.55228 0 1 .44772 1 1s-.44772 1-1 1z"/><path d="m14 3c0-.55228.4477-1 1-1h6c.5523 0 1 .44772 1 1v6c0 .55229-.4477 1-1 1s-1-.44771-1-1v-3.58579l-4.2929 4.2929c-.3905.39049-1.0237.39049-1.4142 0-.3905-.39053-.3905-1.02369 0-1.41422l4.2929-4.29289h-3.5858c-.5523 0-1-.44772-1-1z"/><path d="m9.70711 15.7071-4.2929 4.2929h3.58579c.55228 0 1 .4477 1 1s-.44772 1-1 1h-6c-.55228 0-1-.4477-1-1v-6c0-.5523.44772-1 1-1 .55229 0 1 .4477 1 1v3.5858l4.29289-4.2929c.39053-.3905 1.02369-.3905 1.41422 0 .39049.3905.39049 1.0237 0 1.4142z"/><path d="m20 18.5858v-3.5858c0-.5523.4477-1 1-1s1 .4477 1 1v6c0 .5523-.4477 1-1 1h-6c-.5523 0-1-.4477-1-1s.4477-1 1-1h3.5858l-4.2929-4.2929c-.3905-.3905-.3905-1.0237 0-1.4142s1.0237-.3905 1.4142 0z"/></g></svg>