<svg fill="none" height="24" viewBox="0 0 24 24" width="24" xmlns="http://www.w3.org/2000/svg"><g fill="#801ed7"><path d="m14 3c0-.55228.4477-1 1-1h6c.5523 0 1 .44772 1 1v6c0 .55229-.4477 1-1 1s-1-.44771-1-1v-3.58579l-5.2929 5.29289c-.3905.3905-1.0237.3905-1.4142 0s-.3905-1.02368 0-1.41421l5.2929-5.29289h-3.5858c-.5523 0-1-.44772-1-1z"/><path d="m5.41421 20 5.29289-5.2929c.3905-.3905.3905-1.0237 0-1.4142s-1.02368-.3905-1.41421 0l-5.29289 5.2929v-3.5858c0-.5523-.44771-1-1-1-.55228 0-1 .4477-1 1v6c0 .5523.44772 1 1 1h6c.55228 0 1-.4477 1-1s-.44772-1-1-1z"/></g></svg>