<svg fill="none" height="24" viewBox="0 0 24 24" width="24" xmlns="http://www.w3.org/2000/svg"><g fill="#801ed7"><path d="m8 4h-2.58579l3.2929 3.29289c.39052.39053.39052 1.02369 0 1.41422-.39053.39052-1.02369.39052-1.41422 0l-3.29289-3.2929v2.58579c0 .55228-.44772 1-1 1s-1-.44772-1-1v-5c0-.26522.10536-.51957.29289-.70711.18754-.18753.44189-.29289.70711-.29289h5c.55228 0 1 .44772 1 1s-.44772 1-1 1z"/><path d="m15 3c0-.55228.4477-1 1-1h5c.5523 0 1 .44772 1 1v5c0 .55228-.4477 1-1 1s-1-.44772-1-1v-2.58579l-3.2929 3.2929c-.3905.39052-1.0237.39052-1.4142 0-.3905-.39053-.3905-1.02369 0-1.41422l3.2929-3.29289h-2.5858c-.5523 0-1-.44772-1-1z"/><path d="m8.70711 16.7071-3.2929 3.2929h2.58579c.55228 0 1 .4477 1 1s-.44772 1-1 1h-5c-.55228 0-1-.4477-1-1v-5c0-.5523.44772-1 1-1 .55229 0 1 .4477 1 1v2.5858l3.29289-3.2929c.39053-.3905 1.02369-.3905 1.41422 0 .39052.3905.39052 1.0237 0 1.4142z"/><path d="m20 18.5858v-2.5858c0-.5523.4477-1 1-1s1 .4477 1 1v5c0 .2652-.1054.5196-.2929.7071s-.4419.2929-.7071.2929h-5c-.5523 0-1-.4477-1-1s.4477-1 1-1h2.5858l-3.2929-3.2929c-.3905-.3905-.3905-1.0237 0-1.4142s1.0237-.3905 1.4142 0z"/></g></svg>