<svg fill="none" height="24" viewBox="0 0 24 24" width="24" xmlns="http://www.w3.org/2000/svg"><g fill="#801ed7"><path clip-rule="evenodd" d="m2.29289 2.29289c.39053-.39052 1.02369-.39052 1.41422 0 6.009 6.00901 11.99649 11.99651 17.99999 18.00001.3905.3905.3905 1.0237 0 1.4142s-1.0237.3905-1.4142 0l-3.1537-3.1537c-1.4449.8454-3.1676 1.4466-5.1392 1.4466-2.86168 0-5.19467-1.2647-6.92326-2.7074-1.72625-1.4408-2.90979-3.1069-3.50253-4.0454l-.02409-.038c-.11763-.1852-.27037-.4256-.34757-.7624-.06232-.272-.0623-.6218.00006-.8938.07724-.3369.23041-.5779.34835-.7635l.02428-.0383c.60237-.95352 1.82566-2.67593 3.62011-4.14164l-2.90246-2.90245c-.39052-.39053-.39052-1.02369 0-1.41422zm6.26103 7.67525c-.35176.59566-.55392 1.29096-.55392 2.03176 0 2.2092 1.79086 4 4 4 .7409 0 1.4361-.2022 2.0318-.5539l-1.5136-1.5136c-.1651.0441-.3387.0675-.5182.0675-1.1046 0-2-.8954-2-2 0-.1795.0235-.3531.0675-.5181z" fill-rule="evenodd"/><path d="m15.9923 11.7496c-.1241-2.00968-1.7322-3.61778-3.7419-3.74189l-3.45878-3.45874c.9796-.342 2.05078-.54897 3.20838-.54897 2.8617 0 5.1947 1.26472 6.9233 2.70743 1.7262 1.44075 2.9097 3.10686 3.5025 4.04537l.0241.038c.1176.1852.2703.4255.3475.7624.0623.2719.0623.6217 0 .8936-.0772.3369-.2299.5772-.3475.7624l-.0241.038c-.4235.6705-1.1486 1.7125-2.1577 2.7783z"/></g></svg>