<svg fill="none" height="24" viewBox="0 0 24 24" width="24" xmlns="http://www.w3.org/2000/svg"><g fill="#801ed7"><path d="m10 12c0-1.1046.8954-2 2-2s2 .8954 2 2-.8954 2-2 2-2-.8954-2-2z"/><path clip-rule="evenodd" d="m12 4c-2.86167 0-5.19465 1.26472-6.92325 2.70743-1.72625 1.44075-2.90978 3.10686-3.50253 4.04537l-.02408.038c-.11762.1852-.27033.4256-.34754.7624-.06233.2719-.06233.6217 0 .8936.0772.3368.22992.5772.34754.7624l.02409.038c.59274.9385 1.77627 2.6046 3.50252 4.0454 1.7286 1.4427 4.06158 2.7074 6.92325 2.7074 2.8617 0 5.1947-1.2647 6.9233-2.7074 1.7262-1.4408 2.9097-3.1069 3.5025-4.0454l.0241-.038c.1176-.1852.2703-.4255.3475-.7624.0623-.2719.0623-.6217 0-.8936-.0772-.3369-.2299-.5772-.3475-.7624l-.0241-.038c-.5928-.93851-1.7763-2.60462-3.5025-4.04537-1.7286-1.44271-4.0616-2.70743-6.9233-2.70743zm0 4c-2.20914 0-4 1.79086-4 4 0 2.2091 1.79086 4 4 4 2.2091 0 4-1.7909 4-4 0-2.20914-1.7909-4-4-4z" fill-rule="evenodd"/></g></svg>