<svg fill="none" height="24" viewBox="0 0 24 24" width="24" xmlns="http://www.w3.org/2000/svg"><path clip-rule="evenodd" d="m17.8385 2h-11.67704c-.52713-.00002-.98192-.00003-1.35649.03057-.39534.0323-.78856.10362-1.16694.29641-.56449.28762-1.02343.74656-1.31105 1.31105-.19279.37838-.26411.7716-.29641 1.16694-.0306.37457-.03059.82932-.03057 1.35645v11.67708c-.00002.5272-.00003.982.03057 1.3565.0323.3954.10362.7886.29641 1.167.28762.5645.74656 1.0234 1.31105 1.311.37838.1928.7716.2641 1.16694.2964.37457.0306.82933.0306 1.35647.0306h11.67716c.5271 0 .9819 0 1.3564-.0306.3954-.0323.7886-.1036 1.167-.2964.5645-.2876 1.0234-.7465 1.311-1.311.1928-.3784.2641-.7716.2964-1.167.0306-.3745.0306-.8293.0306-1.3564v-11.67716c0-.52714 0-.9819-.0306-1.35647-.0323-.39534-.1036-.78856-.2964-1.16694-.2876-.56449-.7465-1.02343-1.311-1.31105-.3784-.19279-.7716-.26411-1.167-.29641-.3745-.0306-.8293-.03059-1.3565-.03057zm-9.3385 6c0-.55228-.44771-1-1-1-.55228 0-1 .44772-1 1v1.5c0 .5523.44772 1 1 1 .55229 0 1-.4477 1-1zm9 0c0-.55228-.4477-1-1-1s-1 .44772-1 1v1.5c0 .5523.4477 1 1 1s1-.4477 1-1zm-5-1c.5523 0 1 .44772 1 1v3.1001c0 1.3523-1.1477 2.5-2.5 2.5-.5523 0-1-.4477-1-1s.4477-1 1-1c.2477 0 .5-.2523.5-.5v-3.1001c0-.55228.4477-1 1-1zm-3.0927 7.4928c-.39052-.3905-1.02369-.3905-1.41421 0-.39052.3906-.39052 1.0237 0 1.4143 2.19051 2.1905 5.72371 2.1905 7.91421 0 .3905-.3906.3905-1.0237 0-1.4143-.3905-.3905-1.0237-.3905-1.4142 0-1.4095 1.4095-3.6763 1.4095-5.0858 0z" fill="#801ed7" fill-rule="evenodd"/></svg>