<svg fill="none" height="24" viewBox="0 0 24 24" width="24" xmlns="http://www.w3.org/2000/svg"><path clip-rule="evenodd" d="m12 1c-6.07513 0-11 4.92487-11 11 0 6.0751 4.92487 11 11 11 6.0751 0 11-4.9249 11-11 0-6.07513-4.9249-11-11-11zm-4.5 8c0-.82843.67157-1.5 1.5-1.5s1.5.67157 1.5 1.5-.67157 1.5-1.5 1.5-1.5-.67157-1.5-1.5zm6 0c0-.82843.6716-1.5 1.5-1.5s1.5.67157 1.5 1.5-.6716 1.5-1.5 1.5-1.5-.67157-1.5-1.5zm-6.09994 4.2001c.44043-.3304 1.06468-.2424 1.39686.1958l.00464.0059c.00595.0075.01727.0216.03381.0413.03315.0395.08688.1011.16011.1776.1473.1537.36865.3622.65525.5706.57707.4197 1.37487.8088 2.34937.8088.9744 0 1.7722-.3891 2.3493-.8088.2866-.2084.5079-.4169.6552-.5706.0733-.0765.127-.1381.1601-.1776.0166-.0197.0279-.0338.0339-.0413l.0046-.0059c.3322-.4382.9564-.5262 1.3969-.1958.4418.3313.5313.9581.2 1.4l-.1034.1288c-.0586.0698-.1416.1645-.2481.2756-.2121.2213-.522.5127-.9229.8043-.7979.5803-2.0001 1.1913-3.5256 1.1913-1.5256 0-2.72777-.611-3.52571-1.1913-.4009-.2916-.71081-.583-.92288-.8043-.10645-.1111-.18944-.2058-.24809-.2756-.03541-.0422-.06965-.0853-.10336-.1288-.33137-.4419-.24183-1.0687.2-1.4z" fill="#801ed7" fill-rule="evenodd"/></svg>