<svg fill="none" height="24" viewBox="0 0 24 24" width="24" xmlns="http://www.w3.org/2000/svg"><g fill="#801ed7"><path d="m9.44663 15.6021c-.23782-.1952-.4269-.3997-.57157-.6021h6.24984c-.1446.2024-.3337.4069-.5715.6021-.6428.5273-1.546.8979-2.5534.8979s-1.9106-.3706-2.55337-.8979z"/><path clip-rule="evenodd" d="m1 12c0-6.07513 4.92487-11 11-11 6.0751 0 11 4.92487 11 11 0 6.0751-4.9249 11-11 11-6.07513 0-11-4.9249-11-11zm8.00001-4.5c-.82843 0-1.5.67157-1.5 1.5s.67157 1.5 1.5 1.5c.82842 0 1.49999-.67157 1.49999-1.5s-.67157-1.5-1.49999-1.5zm5.99999 0c-.8284 0-1.5.67157-1.5 1.5s.6716 1.5 1.5 1.5 1.5-.67157 1.5-1.5-.6716-1.5-1.5-1.5zm-7.5 5.5c-.55228 0-1 .4477-1 1 0 1.2245.71556 2.3585 1.67799 3.1482.98213.8059 2.32891 1.3518 3.82201 1.3518s2.8399-.5459 3.822-1.3518c.9624-.7897 1.678-1.9237 1.678-3.1482 0-.5523-.4477-1-1-1z" fill-rule="evenodd"/></g></svg>