<svg fill="none" height="24" viewBox="0 0 24 24" width="24" xmlns="http://www.w3.org/2000/svg"><path clip-rule="evenodd" d="m12 1c-6.07513 0-11 4.92487-11 11 0 6.0751 4.92487 11 11 11 6.0751 0 11-4.9249 11-11 0-6.07513-4.9249-11-11-11zm1.5 8c0-.82843.6716-1.5 1.5-1.5s1.5.67157 1.5 1.5-.6716 1.5-1.5 1.5-1.5-.67157-1.5-1.5zm-6.5 6c0-.5523.44772-1 1-1h8c.5523 0 1 .4477 1 1s-.4477 1-1 1h-8c-.55228 0-1-.4477-1-1zm.5-6c0-.82843.67157-1.5 1.5-1.5s1.5.67157 1.5 1.5-.67157 1.5-1.5 1.5-1.5-.67157-1.5-1.5z" fill="#801ed7" fill-rule="evenodd"/></svg>