<svg fill="none" height="24" viewBox="0 0 24 24" width="24" xmlns="http://www.w3.org/2000/svg"><path clip-rule="evenodd" d="m12 1c-6.07513 0-11 4.92487-11 11 0 6.0751 4.92487 11 11 11 6.0751 0 11-4.9249 11-11 0-6.07513-4.9249-11-11-11zm-1.2246 8.87152c.3488-.42823.2843-1.05811-.1439-1.40688-.4282-.34876-1.05809-.28434-1.40686.14389-.22985.28222-.49747.39149-.72462.39149-.21713 0-.47879-.10096-.73631-.40559-.35655-.42177-.98751-.47464-1.40928-.11809s-.47464.9875-.11809 1.40927c.56248.66539 1.35082 1.11439 2.26368 1.11439.90285 0 1.71528-.4407 2.27538-1.12848zm6.8561-1.40688c.4282.34877.4927.97865.1439 1.40688-.5601.68778-1.3725 1.12848-2.2754 1.12848-.9128 0-1.7012-.449-2.2637-1.11439-.3565-.42177-.3036-1.05272.1181-1.40927.4218-.35655 1.0528-.30368 1.4093.11809.2575.30463.5192.40559.7363.40559.2272 0 .4948-.10927.7246-.39149.3488-.42823.9787-.49265 1.4069-.14389zm-8.83462 4.93126c-.33218-.4383-.95642-.5262-1.39686-.1959-.44183.3314-.53137.9582-.2 1.4.03371.0436.06795.0866.10336.1288.05865.0699.14164.1646.24809.2756.21208.2213.52198.5128.92288.8044.79794.5803 2.00015 1.1912 3.52565 1.1912 1.5256 0 2.7278-.6109 3.5257-1.1912.4009-.2916.7108-.5831.9229-.8044.1064-.111.1894-.2057.2481-.2756l.1033-.1288c.3314-.4418.2419-1.0686-.2-1.4-.4404-.3303-1.0647-.2424-1.3968.1959l-.0047.0059c-.0059.0075-.0172.0216-.0338.0413-.0331.0395-.0869.1011-.1601.1775-.1473.1537-.3686.3622-.6553.5707-.577.4197-1.3748.8087-2.3493.8087-.9744 0-1.7722-.389-2.34931-.8087-.2866-.2085-.50794-.417-.65524-.5707-.07324-.0764-.12697-.138-.16012-.1775-.01654-.0197-.02785-.0338-.03381-.0413z" fill="#801ed7" fill-rule="evenodd"/></svg>