<svg fill="none" height="24" viewBox="0 0 24 24" width="24" xmlns="http://www.w3.org/2000/svg"><path clip-rule="evenodd" d="m12 1c-6.07513 0-11 4.92487-11 11 0 6.0751 4.92487 11 11 11 6.0751 0 11-4.9249 11-11 0-6.07513-4.9249-11-11-11zm-4.49996 8c0-.82843.67157-1.5 1.5-1.5.82842 0 1.49996.67157 1.49996 1.5s-.67154 1.5-1.49996 1.5c-.82843 0-1.5-.67157-1.5-1.5zm5.99996 0c0-.82843.6716-1.5 1.5-1.5.8285 0 1.5.67157 1.5 1.5s-.6715 1.5-1.5 1.5c-.8284 0-1.5-.67157-1.5-1.5zm-6.09994 7.7999c.44043.3303 1.06468.2424 1.39686-.1958l.00464-.006c.00595-.0075.01727-.0215.03381-.0413.03315-.0395.08688-.1011.16011-.1775.1473-.1537.36865-.3622.65525-.5707.57707-.4196 1.37487-.8087 2.34937-.8087.9744 0 1.7722.3891 2.3493.8087.2866.2085.5079.417.6552.5707.0733.0764.127.138.1601.1775.0166.0198.0279.0338.0339.0413l.0046.006c.3322.4382.9564.5261 1.3969.1958.4418-.3314.5313-.9582.2-1.4l-.1034-.1288c-.0586-.0699-.1416-.1645-.2481-.2756-.2121-.2213-.522-.5128-.9229-.8043-.7979-.5803-2.0001-1.1913-3.5256-1.1913-1.5256 0-2.72777.611-3.52571 1.1913-.4009.2915-.71081.583-.92288.8043-.10645.1111-.18944.2057-.24809.2756-.03541.0422-.06965.0853-.10336.1288-.33137.4418-.24183 1.0686.2 1.4z" fill="#801ed7" fill-rule="evenodd"/></svg>