<svg fill="none" height="24" viewBox="0 0 24 24" width="24" xmlns="http://www.w3.org/2000/svg"><path clip-rule="evenodd" d="m12 1c-6.07513 0-11 4.92487-11 11 0 6.0751 4.92487 11 11 11 6.0751 0 11-4.9249 11-11 0-6.07513-4.9249-11-11-11zm-1.3685 7.46464c.4282.34877.4927.97865.1439 1.40688-.5601.68778-1.37253 1.12848-2.27538 1.12848-.91286 0-1.7012-.449-2.26368-1.11439-.35655-.42177-.30368-1.05272.11809-1.40927s1.05273-.30368 1.40928.11809c.25752.30463.51918.40559.73631.40559.22715 0 .49477-.10927.72462-.39149.34877-.42823.97866-.49265 1.40686-.14389zm7 0c.4282.34877.4927.97865.1439 1.40688-.5601.68778-1.3725 1.12848-2.2754 1.12848-.9128 0-1.7012-.449-2.2637-1.11439-.3565-.42177-.3036-1.05272.1181-1.40927.4218-.35655 1.0528-.30368 1.4093.11809.2575.30463.5192.40559.7363.40559.2272 0 .4948-.10927.7246-.39149.3488-.42823.9787-.49265 1.4069-.14389zm-10.23142 8.33536c.44044.3304 1.06468.2424 1.39686-.1958l.00464-.0059c.00595-.0076.01727-.0216.03381-.0413.03315-.0395.08688-.1011.16012-.1776.1473-.1537.36864-.3622.65524-.5706.57705-.4197 1.37485-.8088 2.34935-.8088.9744 0 1.7722.3891 2.3493.8088.2866.2084.508.4169.6553.5706.0732.0765.1269.1381.1601.1776.0165.0197.0278.0337.0338.0413l.0046.0059c.3322.4382.9564.5262 1.3969.1958.4418-.3313.5314-.9581.2-1.4l-.1034-.1288c-.0586-.0699-.1416-.1645-.2481-.2756-.212-.2213-.522-.5128-.9228-.8043-.798-.5803-2.0002-1.1913-3.5257-1.1913-1.5256 0-2.72775.611-3.52569 1.1913-.4009.2915-.7108.583-.92288.8043-.10645.1111-.18944.2057-.24809.2756-.03541.0422-.06965.0853-.10336.1288-.33137.4419-.24183 1.0687.2 1.4z" fill="#801ed7" fill-rule="evenodd"/></svg>