<svg fill="none" height="24" viewBox="0 0 24 24" width="24" xmlns="http://www.w3.org/2000/svg"><g clip-rule="evenodd" fill="#801ed7" fill-rule="evenodd"><path d="m9.92512 4.22821c.62318-.02333 1.22168.24541 1.61828.72671.3191.38723.3927.86437.424 1.21248.0326.36241.0326.82406.0325 1.35043v8.96427c.0001.5264.0001.988-.0325 1.3504-.0313.3481-.1049.8253-.424 1.2125-.3966.4813-.9951.75-1.61828.7267-.50142-.0187-.9069-.2808-1.18788-.4886-.29254-.2164-.63758-.5232-1.03098-.8729l-5.051-4.4898c-.21045-.187-.41278-.3668-.56966-.5322-.17029-.1795-.35762-.4126-.46754-.7257-.15058-.4288-.15058-.8962 0-1.3251.10992-.3131.29725-.5462.46754-.7257.15687-.1654.35919-.3452.56963-.5322.00855-.0076.0171-.0152.02567-.0228l5.02538-4.467c.3934-.34972.73842-.65645 1.03096-.87285.28098-.20786.68646-.46987 1.18788-.48864z"/><path d="m20.9251 4.22821c.6232-.02333 1.2217.24541 1.6183.72671.3191.38723.3927.86437.424 1.21248.0326.36241.0326.82406.0325 1.35043v8.96427c.0001.5264.0001.988-.0325 1.3504-.0313.3481-.1049.8253-.424 1.2125-.3966.4813-.9951.75-1.6183.7267-.5014-.0187-.9069-.2808-1.1879-.4886-.2925-.2164-.6375-.5232-1.0309-.8729l-5.051-4.4898c-.2105-.187-.4128-.3668-.5697-.5322-.1703-.1795-.3576-.4126-.4675-.7257-.1506-.4288-.1506-.8962 0-1.3251.1099-.3131.2972-.5462.4675-.7257.1569-.1654.3592-.3452.5696-.5322.0086-.0076.0171-.0152.0257-.0228l5.0254-4.467c.3934-.34972.7384-.65645 1.0309-.87285.281-.20786.6865-.46987 1.1879-.48864z"/></g></svg>