<svg fill="none" height="24" viewBox="0 0 24 24" width="24" xmlns="http://www.w3.org/2000/svg"><g clip-rule="evenodd" fill="#801ed7" fill-rule="evenodd"><path d="m14.0748 4.22821c-.6232-.02333-1.2217.24541-1.6183.72671-.3191.38723-.3926.86437-.4239 1.21248-.0326.36241-.0326.82406-.0326 1.35043v8.96427c0 .5264 0 .988.0326 1.3504.0313.3481.1048.8253.4239 1.2125.3966.4813.9951.75 1.6183.7267.5014-.0187.9069-.2808 1.1879-.4886.2925-.2164.6376-.5232 1.031-.8729l5.051-4.4898c.2104-.187.4128-.3668.5696-.5322.1703-.1795.3576-.4126.4676-.7257.1505-.4288.1505-.8962 0-1.3251-.11-.3131-.2973-.5462-.4676-.7257-.1568-.1654-.3592-.3452-.5696-.5322-.0085-.0076-.0171-.0152-.0257-.0228l-5.0253-4.467c-.3934-.34972-.7385-.65645-1.031-.87285-.281-.20786-.6865-.46987-1.1879-.48864z"/><path d="m3.07481 4.22821c-.62323-.02333-1.22166.24541-1.61828.72671-.3191.38723-.39265.86437-.42397 1.21248-.032607.36241-.032584.82406-.03256 1.35043v8.96427c-.000024.5264-.000047.988.03256 1.3504.03132.3481.10487.8253.42397 1.2125.39662.4813.99505.75 1.61828.7267.50142-.0187.9069-.2808 1.18788-.4886.29254-.2164.63758-.5232 1.03098-.8729l5.05103-4.4898c.2104-.187.4128-.3668.5696-.5322.1703-.1795.3576-.4126.4676-.7257.1505-.4288.1505-.8962 0-1.3251-.11-.3131-.2973-.5462-.4676-.7257-.1568-.1654-.3592-.3452-.5696-.5322-.0085-.0076-.0171-.0152-.0257-.0228l-5.02535-4.467c-.39339-.34972-.73842-.65645-1.03096-.87285-.28098-.20786-.68646-.46987-1.18788-.48864z"/></g></svg>