<svg fill="none" height="24" viewBox="0 0 24 24" width="24" xmlns="http://www.w3.org/2000/svg"><path d="m10.2915 3.30549c2.6699-2.426851 6.747-2.426851 9.4168 0 .1237.11239.2588.24746.4762.46497l.0451.045c.2175.21752.3525.35256.4649.47621 2.4269 2.66986 2.4269 6.74693 0 9.41683-.1742.1916-.4263.2915-.6853.2915h-9.0092c-.5523 0-1 .4477-1 1s.4477 1 1 1h5.4829c.6058 0 .9087 0 1.0489.1198.1218.1039.1863.2599.1738.4194-.0145.1839-.2287.3981-.6571.8265l-1.8728 1.8728-.036.0362c-.134.1346-.3026.3042-.509.4307-.1789.1096-.374.1904-.5781.2394-.2353.0565-.4744.0559-.6644.0554l-.051-.0001h-6.76929c-.25232 0-.49808 0-.70619-.017-.11576-.0094-.24206-.0254-.37379-.0568l-2.78082 2.7808c-.39053.3905-1.02369.3905-1.41422 0-.390521-.3905-.390521-1.0237 0-1.4142l2.78084-2.7808c-.03141-.1318-.04738-.2581-.05684-.3738-.017-.2082-.01698-.454-.01695-.7063l.00001-6.7692-.0001-.051c-.0005-.1899-.00114-.4291.05536-.66441.04899-.20407.1298-.39916.23946-.5781.12645-.20636.296-.375.43064-.50893l.03616-.03603 5.05386-5.05386c.21757-.21754.35257-.35258.47617-.46498z" fill="#801ed7"/></svg>