<svg fill="none" height="24" viewBox="0 0 24 24" width="24" xmlns="http://www.w3.org/2000/svg"><path clip-rule="evenodd" d="m4 5c0-2.48528 2.01472-4.5 4.5-4.5h7c2.4853 0 4.5 2.01472 4.5 4.5 0 1.41363-.6518 2.67502-1.6713 3.5 1.0195.82498 1.6713 2.0864 1.6713 3.5 0 2.4853-2.0147 4.5-4.5 4.5-.9251 0-1.785-.2791-2.5-.7578v3.2578c0 2.4853-2.0147 4.5-4.5 4.5-2.48528 0-4.5-2.0147-4.5-4.5 0-1.4136.65183-2.675 1.67134-3.5-1.01951-.825-1.67134-2.0864-1.67134-3.5s.65183-2.67502 1.67134-3.5c-1.01951-.82498-1.67134-2.08637-1.67134-3.5zm7 9.5h-2.5c-1.38071 0-2.5-1.1193-2.5-2.5s1.11929-2.5 2.5-2.5h2.5zm2-2.5c0 1.3807 1.1193 2.5 2.5 2.5s2.5-1.1193 2.5-2.5-1.1193-2.5-2.5-2.5-2.5 1.1193-2.5 2.5zm2.5-4.5c1.3807 0 2.5-1.11929 2.5-2.5s-1.1193-2.5-2.5-2.5h-2.5v5zm-7-5h2.5v5h-2.5c-1.38071 0-2.5-1.11929-2.5-2.5s1.11929-2.5 2.5-2.5zm2.5 14h-2.5c-1.38071 0-2.5 1.1193-2.5 2.5s1.11929 2.5 2.5 2.5 2.5-1.1193 2.5-2.5z" fill="#801ed7" fill-rule="evenodd"/></svg>