<svg fill="none" height="24" viewBox="0 0 24 24" width="24" xmlns="http://www.w3.org/2000/svg"><g fill="#801ed7"><path clip-rule="evenodd" d="m17.9966 15.0382c-.9997-1.1362-2.6667-1.4418-3.9193-.4014-1.2525 1.0405-1.4288 2.7801-.4452 4.0106.7451.9322 2.8657 2.8062 3.8504 3.6603.1791.1553.2687.233.3731.2637.0907.0266.1913.0266.2819 0 .1045-.0307.194-.1084.3731-.2637.9847-.8541 3.1054-2.7281 3.8505-3.6603.9836-1.2305.8288-2.9811-.4453-4.0106s-2.9195-.7348-3.9192.4014z" fill-rule="evenodd"/><path d="m8.7587 1h6.4826c.805-.000012 1.4693-.000022 2.0105.04419.5621.04593 1.0788.14449 1.5642.39179.7526.38349 1.3645.99541 1.748 1.74806.2473.48533.3459 1.00204.3918 1.56414.0442.54119.0442 1.20554.0442 2.0105v4.35872c0 .3261 0 .4891-.0522.5942-.0524.1054-.1069.1618-.2104.2176-.1033.0557-.2981.0622-.6876.0753-.718.024-1.4192.2149-2.0543.5418-1.5739-.8106-3.5652-.8027-5.1961.552-2.0734 1.7224-2.4076 4.6984-.7295 6.7978.4791.5994 1.3029 1.3961 2.0381 2.0775.1387.1286.2081.1929.2368.2324.217.2984.0543.7132-.3077.7846-.0479.0094-.1403.0094-.3252.0094h-4.95322c-.80496 0-1.46931 0-2.0105-.0442-.5621-.0459-1.07881-.1445-1.56414-.3918-.75265-.3835-1.36457-.9954-1.74806-1.748-.2473-.4854-.34586-1.0021-.39179-1.5642-.04421-.5412-.0442-1.2055-.04419-2.0105v-10.4826c-.00001-.80496-.00002-1.46933.04419-2.01052.04593-.5621.14449-1.07881.39179-1.56414.38349-.75265.99541-1.36457 1.74806-1.74806.48533-.2473 1.00204-.34586 1.56414-.39179.54119-.044212 1.20556-.044202 2.01052-.04419z"/></g></svg>