<svg fill="none" height="24" viewBox="0 0 24 24" width="24" xmlns="http://www.w3.org/2000/svg"><g fill="#801ed7"><path clip-rule="evenodd" d="m19.1496 14.1995 2.1869.7815c.3979.1421.6635.5191.6635.9417v2.5023c0 1.539-1.0564 2.6898-1.8595 3.3596-.4264.3557-.8476.6313-1.1599.8173-.236.1406-.4154.2335-.4994.2755-.1684.0828-.7536.1004-.912.0248-.1875-.0921-.3703-.1934-.5498-.3003-.3123-.186-.7335-.4616-1.1599-.8173-.803-.6698-1.8595-1.8206-1.8595-3.3596v-2.5023c0-.4225.2655-.7994.6633-.9417l2.1859-.7815c.7432-.266 1.5572-.266 2.3004 0z" fill-rule="evenodd"/><path d="m15.2413 1h-6.4826c-.80496-.000012-1.46933-.000022-2.01052.04419-.5621.04593-1.07881.14449-1.56414.39179-.75265.38349-1.36457.99541-1.74806 1.74806-.2473.48533-.34586 1.00204-.39179 1.56414-.04421.54119-.0442 1.20554-.04419 2.01051v10.48261c-.00001.805-.00002 1.4693.04419 2.0105.04593.5621.14449 1.0788.39179 1.5642.38349.7526.99541 1.3645 1.74806 1.748.48533.2473 1.00204.3459 1.56414.3918.54119.0442 1.20554.0442 2.0105.0442h3.41132c.6478 0 .9718 0 1.1046-.0989.1307-.0971.1873-.1997.2-.3621.013-.1651-.1825-.4758-.5735-1.0973-.5083-.808-.9011-1.8173-.9011-3.0166v-2.5023c0-1.2675.7966-2.3982 1.99-2.8249l2.1859-.7815c1.1785-.4217 2.4674-.4219 3.646-.0004l.001.0004.0012.0004.1067.0382c.36.1286.54.1929.6837.1591.1257-.0296.2351-.1067.3053-.2151.0802-.124.0802-.3151.0802-.6974v-4.84292c0-.80496 0-1.46931-.0442-2.0105-.0459-.5621-.1445-1.07881-.3918-1.56414-.3835-.75265-.9954-1.36457-1.748-1.74806-.4854-.2473-1.0021-.34586-1.5642-.39179-.5412-.044212-1.2055-.044202-2.0105-.04419z"/></g></svg>