<svg fill="none" height="24" viewBox="0 0 24 24" width="24" xmlns="http://www.w3.org/2000/svg"><g fill="#801ed7"><path clip-rule="evenodd" d="m8.7587 1h6.4826c.8049-.000011 1.4693-.000021 2.0105.0442.5621.04592 1.0788.14449 1.5642.39178.7526.38349 1.3645.99541 1.748 1.74806.2473.48534.3459 1.00204.3918 1.56414.0442.54119.0442 1.20554.0442 2.0105v4.35872c0 .3261 0 .4891-.0522.5942-.0524.1054-.1069.1618-.2104.2176-.1033.0557-.2981.0622-.6876.0753-.718.024-1.4192.2149-2.0543.5418-1.5739-.8106-3.5652-.8027-5.1961.552-2.0734 1.7224-2.4076 4.6984-.7295 6.7978.4791.5994 1.3029 1.3961 2.0381 2.0775.1387.1286.2081.1929.2368.2324.217.2984.0543.7132-.3077.7846-.0479.0094-.1403.0094-.3252.0094h-4.95322c-.80496 0-1.46931 0-2.0105-.0442-.5621-.0459-1.0788-.1445-1.56414-.3918-.75265-.3835-1.36457-.9954-1.74806-1.748-.24729-.4854-.34586-1.0021-.39178-1.5642-.04422-.5412-.04421-1.2055-.0442-2.0105v-10.48261c-.00001-.80495-.00002-1.46933.0442-2.01051.04592-.5621.14449-1.0788.39178-1.56414.38349-.75265.99541-1.36457 1.74806-1.74806.48534-.24729 1.00204-.34586 1.56414-.39178.54118-.044221 1.20558-.044211 2.01052-.0442zm-1.7587 7c-.55228 0-1 .44772-1 1 0 .55229.44772 1 1 1h6c.5523 0 1-.44771 1-1 0-.55228-.4477-1-1-1zm-1 5c0-.5523.44772-1 1-1h2c.55229 0 1 .4477 1 1s-.44771 1-1 1h-2c-.55228 0-1-.4477-1-1zm1-9c-.55228 0-1 .44772-1 1 0 .55229.44772 1 1 1h9c.5523 0 1-.44771 1-1 0-.55228-.4477-1-1-1z" fill-rule="evenodd"/><path d="m17.9966 15.0382c-.9997-1.1362-2.6667-1.4418-3.9193-.4014-1.2525 1.0405-1.4288 2.7801-.4452 4.0106.7451.9322 2.8657 2.8062 3.8504 3.6603.1791.1553.2687.233.3731.2637.0907.0266.1913.0266.2819 0 .1044-.0307.194-.1084.3731-.2637.9847-.8541 3.1054-2.7281 3.8505-3.6603.9836-1.2305.8288-2.9811-.4453-4.0106s-2.9195-.7348-3.9192.4014z"/></g></svg>