<svg fill="none" height="24" viewBox="0 0 24 24" width="24" xmlns="http://www.w3.org/2000/svg"><g fill="#801ed7"><path clip-rule="evenodd" d="m6.5 3c-.27614 0-.5.22386-.5.5v5.5c0 .55228-.44772 1-1 1s-1-.44772-1-1v-5.5c0-1.38071 1.11929-2.5 2.5-2.5s2.5 1.11929 2.5 2.5v5.5c0 2.2091-1.79086 4-4 4s-4-1.7909-4-4v-4c0-.55228.44772-1 1-1s1 .44772 1 1v4c0 1.1046.89543 2 2 2s2-.8954 2-2v-5.5c0-.27614-.22386-.5-.5-.5z" fill-rule="evenodd"/><path d="m4.09589 14.9323c-.43446-.0656-.65169-.0985-.77494-.0512-.12039.0462-.19214.1079-.25579.22-.06516.1148-.06516.3061-.06516.6887v1.4515c-.00001.805-.00002 1.4693.04419 2.0105.04593.5621.14449 1.0788.39179 1.5642.38349.7526.99541 1.3645 1.74806 1.748.48533.2473 1.00204.3459 1.56414.3918.54119.0442 1.20554.0442 2.0105.0442h6.48262c.805 0 1.4693 0 2.0105-.0442.5621-.0459 1.0788-.1445 1.5642-.3918.7526-.3835 1.3645-.9954 1.748-1.748.2473-.4854.3459-1.0021.3918-1.5642.0442-.5412.0442-1.2055.0442-2.0105v-10.48262c0-.80496 0-1.46931-.0442-2.0105-.0459-.5621-.1445-1.07881-.3918-1.56414-.3835-.75265-.9954-1.36457-1.748-1.74806-.4854-.2473-1.0021-.34586-1.5642-.39179-.5412-.044212-1.2055-.044202-2.0105-.04419h-3.5009c-.4896 0-.7344 0-.8543.07318-.1249.07622-.1762.14256-.2183.28268-.0405.13453.0351.42434.1865 1.00395.0951.36414.1457.74625.1457 1.14019v5.5c0 3.3137-2.68629 6-6 6-.30731 0-.60923-.0231-.90411-.0677z"/></g></svg>