<svg fill="none" height="24" viewBox="0 0 24 24" width="24" xmlns="http://www.w3.org/2000/svg"><g clip-rule="evenodd" fill="#801ed7" fill-rule="evenodd"><path d="m8.7587 1h6.4826c.805-.000012 1.4693-.000021 2.0105.0442.5621.04592 1.0788.14448 1.5642.39178.7526.38349 1.3645.99541 1.748 1.74806.2473.48534.3459 1.00204.3918 1.56414.0442.54119.0442 1.20554.0442 2.0105v4.01422c0 .4726 0 .709-.0728.8287-.0748.1229-.1439.1765-.2815.2184-.1341.0409-.4103-.0299-.9628-.1715-.3782-.097-.7745-.1485-1.1829-.1485-2.4268 0-4.4285 1.8198-4.7149 4.1693-.5702.3792-1.0358.9-1.3491 1.5148-.3059.6004-.3836 1.1626-.4124 1.5149-.024.2938-.0237.6187-.0236.8482v.9057c-.0001.2295-.0004.5544.0236.8482.011.1343.0278.2678.0506.4001.0973.5636.146.8455.1.971-.0488.133-.0971.1904-.2199.2611-.1159.0667-.3452.0667-.804.0667h-2.39162c-.80496 0-1.46931 0-2.0105-.0442-.5621-.0459-1.0788-.1445-1.56414-.3918-.75265-.3835-1.36457-.9954-1.74806-1.748-.2473-.4854-.34586-1.0021-.39178-1.5642-.04422-.5412-.04421-1.2055-.0442-2.0105v-10.48261c-.00001-.80496-.00002-1.46933.0442-2.01051.04592-.5621.14448-1.0788.39178-1.56414.38349-.75265.99541-1.36457 1.74806-1.74806.48534-.2473 1.00204-.34586 1.56414-.39178.54118-.044221 1.20557-.044212 2.01052-.0442zm-1.7587 4c-.55228 0-1 .44772-1 1 0 .55229.44772 1 1 1h8c.5523 0 1-.44771 1-1 0-.55228-.4477-1-1-1zm-1 5c0-.55229.44772-1 1-1h5c.5523 0 1 .44771 1 1 0 .5523-.4477 1-1 1h-5c-.55228 0-1-.4477-1-1zm0 4c0-.5523.44772-1 1-1h3c.5523 0 1 .4477 1 1s-.4477 1-1 1h-3c-.55228 0-1-.4477-1-1z"/><path d="m15.75 16.25c0-1.5188 1.2312-2.75 2.75-2.75s2.75 1.2312 2.75 2.75v.778c.2025.024.4296.0736.658.19.3763.1917.6823.4977.874.874.1383.2714.1824.5412.2011.7698.017.2081.0169.4539.0169.7063v.8638c0 .2524.0001.4982-.0169.7063-.0187.2286-.0628.4984-.2011.7698-.1917.3763-.4977.6823-.874.874-.2714.1383-.5412.1824-.7698.2011-.2081.017-.4538.0169-.7062.0169h-3.8639c-.2523 0-.4982.0001-.7063-.0169-.2286-.0187-.4984-.0628-.7698-.2011-.3763-.1917-.6823-.4977-.874-.874-.1383-.2714-.1824-.5412-.201-.7698-.0171-.2081-.017-.4539-.017-.7063v-.8638c0-.2524-.0001-.4982.017-.7063.0186-.2286.0627-.4984.201-.7698.1917-.3763.4977-.6823.874-.874.2284-.1164.4555-.166.658-.19zm3.5 0v.75h-1.5v-.75c0-.4142.3358-.75.75-.75s.75.3358.75.75z"/></g></svg>