<svg fill="none" height="24" viewBox="0 0 24 24" width="24" xmlns="http://www.w3.org/2000/svg"><g fill="#801ed7"><path clip-rule="evenodd" d="m18 13.5c-2.4853 0-4.5 2.0147-4.5 4.5s2.0147 4.5 4.5 4.5c.8805 0 1.702-.2529 2.3957-.69l.8972.8971c.3905.3905 1.0237.3905 1.4142 0s.3905-1.0237 0-1.4142l-.8971-.8972c.4371-.6937.69-1.5152.69-2.3957 0-2.4853-2.0147-4.5-4.5-4.5zm-2.5 4.5c0-1.3807 1.1193-2.5 2.5-2.5s2.5 1.1193 2.5 2.5-1.1193 2.5-2.5 2.5-2.5-1.1193-2.5-2.5z" fill-rule="evenodd"/><path d="m8.7587 1h6.4826c.805-.000012 1.4693-.000022 2.0105.04419.5621.04593 1.0788.14449 1.5642.39179.7526.38349 1.3645.99541 1.748 1.74806.2473.48533.3459 1.00204.3918 1.56414.0442.54119.0442 1.20554.0442 2.0105v4.15442c0 .4402 0 .6602-.0748.7811-.073.118-.1547.1797-.288.2178-.1368.039-.3781-.0295-.8608-.1663-.5646-.16-1.1605-.2457-1.7764-.2457-3.5899 0-6.5 2.9101-6.5 6.5 0 1.2156.3337 2.3533.9145 3.3264.4209.7053.6314 1.0579.6159 1.2208-.0157.1658-.0678.2576-.2021.356-.132.0968-.4863.0968-1.195.0968h-2.87462c-.80496 0-1.46931 0-2.0105-.0442-.5621-.0459-1.07881-.1445-1.56414-.3918-.75265-.3835-1.36457-.9954-1.74806-1.748-.2473-.4854-.34586-1.0021-.39179-1.5642-.04421-.5412-.0442-1.2055-.04419-2.0105v-10.4826c-.00001-.80496-.00002-1.46933.04419-2.01052.04593-.5621.14449-1.07881.39179-1.56414.38349-.75265.99541-1.36457 1.74806-1.74806.48533-.2473 1.00204-.34586 1.56414-.39179.54119-.044212 1.20556-.044202 2.01052-.04419z"/></g></svg>