<svg fill="none" height="24" viewBox="0 0 24 24" width="24" xmlns="http://www.w3.org/2000/svg"><g fill="#801ed7"><path d="m12.8595 17.2488c-.3054.2547-.6153.4613-.8595.6091-.2442-.1478-.5541-.3544-.8595-.6091-.697-.5814-1.1405-1.218-1.1405-1.8238v-1.7979l1.5236-.5447c.3076-.1102.6447-.1099.9523.0003l1.5241.5446v1.7977c0 .6058-.4435 1.2424-1.1405 1.8238z"/><path clip-rule="evenodd" d="m12.9989 1.95227c.0011.02386.0011.03701.0011.06331v4.41633c0 .25238-.0001.49817.017.70633.0186.2286.0627.49833.201.76975.1917.37633.4977.68229.874.87404.2714.13829.5412.18236.7698.20104.2081.017.4539.01697.7063.01694h4.4164c.0262 0 .0393 0 .0632.00114.4938.02357.9279.45784.9512.95167.0011.02382.0011.03159.0011.04712v7.24136c0 .805 0 1.4693-.0442 2.0105-.0459.5621-.1445 1.0788-.3918 1.5642-.3835.7526-.9954 1.3645-1.748 1.748-.4854.2473-1.0021.3459-1.5642.3918-.5412.0442-1.2055.0442-2.0105.0442h-6.48262c-.80496 0-1.46931 0-2.0105-.0442-.5621-.0459-1.0788-.1445-1.56414-.3918-.75265-.3835-1.36457-.9954-1.74806-1.748-.24729-.4854-.34586-1.0021-.39178-1.5642-.04422-.5412-.04421-1.2055-.0442-2.0105v-10.48263c-.00001-.80494-.00002-1.46931.0442-2.01049.04592-.5621.14449-1.0788.39178-1.56414.38349-.75265.99541-1.36457 1.74806-1.74806.48534-.24729 1.00204-.34586 1.56414-.39178.54117-.044218 1.20553-.044209 2.01044-.0442h3.24138c.0156-.000004.0234-.000007.0473.00112.4937.02336.928.45738.9516.95115zm2.3376 10.02873-2.1869-.7815c-.7432-.266-1.5572-.266-2.3004 0l-2.18585.7815c-.39783.1423-.66335.5192-.66335.9417v2.5023c0 1.539 1.05645 2.6898 1.85946 3.3596.42644.3557.84764.6313 1.15994.8173.1795.1069.3623.2082.5498.3003.2722.1297.5889.13.8611.0003.1866-.0947.3704-.1934.5503-.3006.3123-.186.7335-.4616 1.1599-.8173.803-.6698 1.8595-1.8206 1.8595-3.3596v-2.5023c0-.4226-.2656-.7995-.6635-.9417z" fill-rule="evenodd"/><path d="m19.4686 6.92627c-.1202.07373-.267.07373-.5606.07372l-3.108-.00004c-.28 0-.42 0-.527-.0545-.0941-.04794-.1706-.12443-.2185-.21851-.0545-.10695-.0545-.24696-.0545-.52698v-3.10792c0-.29362 0-.44043.0737-.5607.1042-.16984.3495-.27138.5432-.22482.1371.03297.2328.12872.4241.3202l3.3323 3.33232c.1915.19129.2872.28694.3202.4241.0465.1937-.055.43901-.2249.54313z"/></g></svg>