<svg fill="none" height="24" viewBox="0 0 24 24" width="24" xmlns="http://www.w3.org/2000/svg"><g fill="#801ed7"><path clip-rule="evenodd" d="m4.09589 14.9323c.29488.0446.5968.0677.90411.0677 3.31371 0 6-2.6863 6-6v-5.5c0-.39394-.0506-.77605-.1457-1.14019-.1514-.57958-.227-.86942-.1865-1.00395.0421-.14012.0934-.20646.2183-.28268.1199-.07318.3647-.07318.8543-.07318h3.5009c.805-.000012 1.4693-.000021 2.0105.0442.5621.04592 1.0788.14448 1.5642.39178.7526.38349 1.3645.99541 1.748 1.74806.2473.48534.3459 1.00204.3918 1.56414.0442.54119.0442 1.20554.0442 2.0105v10.48262c0 .805 0 1.4693-.0442 2.0105-.0459.5621-.1445 1.0788-.3918 1.5642-.3835.7526-.9954 1.3645-1.748 1.748-.4854.2473-1.0021.3459-1.5642.3918-.5412.0442-1.2055.0442-2.0105.0442h-6.48262c-.80496 0-1.46931 0-2.0105-.0442-.5621-.0459-1.07881-.1445-1.56414-.3918-.75265-.3835-1.36457-.9954-1.74806-1.748-.2473-.4854-.34586-1.0021-.39179-1.5642-.04421-.5412-.0442-1.2055-.04419-2.0105v-1.4515c0-.3826 0-.5739.06516-.6887.06365-.1121.1354-.1738.25579-.22.12325-.0473.34049-.0144.77494.0512zm8.40411-4.9323c0-.55229.4477-1 1-1h3.5c.5523 0 1 .44771 1 1 0 .5523-.4477 1-1 1h-3.5c-.5523 0-1-.4477-1-1zm-1 4c0-.5523.4477-1 1-1h4.5c.5523 0 1 .4477 1 1s-.4477 1-1 1h-4.5c-.5523 0-1-.4477-1-1zm-2.5 3c-.55228 0-1 .4477-1 1s.44772 1 1 1h8c.5523 0 1-.4477 1-1s-.4477-1-1-1z" fill-rule="evenodd"/><path d="m6 3.5c0-.27614.22386-.5.5-.5s.5.22386.5.5v5.5c0 1.1046-.89543 2-2 2s-2-.8954-2-2v-4c0-.55228-.44772-1-1-1s-1 .44772-1 1v4c0 2.2091 1.79086 4 4 4s4-1.7909 4-4v-5.5c0-1.38071-1.11929-2.5-2.5-2.5s-2.5 1.11929-2.5 2.5v5.5c0 .55229.44772 1 1 1s1-.44771 1-1z"/></g></svg>