<svg fill="none" height="24" viewBox="0 0 24 24" width="24" xmlns="http://www.w3.org/2000/svg"><g fill="#801ed7"><path clip-rule="evenodd" d="m15.2413 1h-6.4826c-.80495-.000012-1.46934-.000021-2.01052.0442-.5621.04592-1.0788.14448-1.56414.39178-.75265.38349-1.36457.99541-1.74806 1.74806-.2473.48534-.34586 1.00204-.39178 1.56414-.04422.54118-.04421 1.20555-.0442 2.01051v10.48261c-.00001.805-.00002 1.4693.0442 2.0105.04592.5621.14448 1.0788.39178 1.5642.38349.7526.99541 1.3645 1.74806 1.748.48534.2473 1.00204.3459 1.56414.3918.54119.0442 1.20554.0442 2.0105.0442h3.97942c.5809 0 .8714 0 .9992-.0876.1288-.0883.184-.1745.2102-.3284.026-.1527-.1156-.4599-.3989-1.0741-.3522-.7636-.5486-1.6138-.5486-2.5099v-4c0-1.6569 1.3431-3 3-3 .085 0 .1692.0035.2524.0105.6148-1.7533 2.2844-3.0105 4.2476-3.0105.2673 0 .5-.20623.5-.47354v-1.76778c0-.80496 0-1.46931-.0442-2.0105-.0459-.5621-.1445-1.0788-.3918-1.56414-.3835-.75265-.9954-1.36457-1.748-1.74806-.4854-.2473-1.0021-.34586-1.5642-.39178-.5412-.044221-1.2055-.044212-2.0105-.0442zm-8.2413 8c-.55228 0-1 .44771-1 1 0 .5523.44772 1 1 1h4.5c.5523 0 1-.4477 1-1 0-.55229-.4477-1-1-1zm-1 5c0-.5523.44772-1 1-1h3.5c.5523 0 1 .4477 1 1s-.4477 1-1 1h-3.5c-.55228 0-1-.4477-1-1zm1-9c-.55228 0-1 .44772-1 1 0 .55229.44772 1 1 1h8c.5523 0 1-.44771 1-1 0-.55228-.4477-1-1-1z" fill-rule="evenodd"/><path d="m20 13.5c0-.2761.2239-.5.5-.5s.5.2239.5.5v5.5c0 1.1046-.8954 2-2 2s-2-.8954-2-2v-4c0-.5523-.4477-1-1-1s-1 .4477-1 1v4c0 2.2091 1.7909 4 4 4s4-1.7909 4-4v-5.5c0-1.3807-1.1193-2.5-2.5-2.5s-2.5 1.1193-2.5 2.5v5.5c0 .5523.4477 1 1 1s1-.4477 1-1z"/></g></svg>