<svg fill="none" height="24" viewBox="0 0 24 24" width="24" xmlns="http://www.w3.org/2000/svg"><g fill="#801ed7"><path clip-rule="evenodd" d="m12.9989 1.95227c.0011.02385.0011.037.0011.06331v4.41633c0 .25238-.0001.49817.017.70633.0186.22859.0627.49833.201.76975.1917.37633.4977.68229.874.87403.2714.1383.5412.18237.7698.20105.2081.017.4539.01697.7063.01694h4.4164c.0262 0 .0393 0 .0632.00114.4938.02356.9279.45784.9512.95167.0011.02382.0011.03159.0011.04712v7.24136c0 .805 0 1.4693-.0442 2.0105-.0459.5621-.1445 1.0788-.3918 1.5642-.3835.7526-.9954 1.3645-1.748 1.748-.4854.2473-1.0021.3459-1.5642.3918-.5412.0442-1.2055.0442-2.0105.0442h-6.48262c-.80496 0-1.46931 0-2.0105-.0442-.5621-.0459-1.0788-.1445-1.56414-.3918-.75265-.3835-1.36457-.9954-1.74806-1.748-.2473-.4854-.34586-1.0021-.39178-1.5642-.04422-.5412-.04421-1.2055-.0442-2.0105v-10.48261c-.00001-.80496-.00002-1.46932.0442-2.01051.04592-.5621.14448-1.0788.39178-1.56414.38349-.75265.99541-1.36457 1.74806-1.74806.48534-.24729 1.00204-.34586 1.56414-.39178.54118-.04422 1.20553-.044211 2.01048-.0442h3.24134c.0156-.000005.0234-.000009.0473.00112.4937.02336.928.45738.9516.95115z" fill-rule="evenodd"/><path d="m19.4686 6.92627c-.1202.07373-.267.07373-.5606.07372l-3.108-.00004c-.28 0-.42-.00001-.527-.0545-.0941-.04794-.1706-.12443-.2185-.21851-.0545-.10695-.0545-.24696-.0545-.52698v-3.10792c0-.29362 0-.44043.0737-.5607.1042-.16984.3495-.27138.5432-.22482.1371.03297.2328.12871.4241.3202l3.3323 3.33232c.1915.19129.2872.28694.3202.42409.0465.19371-.055.43902-.2249.54314z"/></g></svg>