<svg fill="none" height="24" viewBox="0 0 24 24" width="24" xmlns="http://www.w3.org/2000/svg"><path clip-rule="evenodd" d="m14.6911 1.11058c-.4627-.11108-.9424-.110851-1.5774-.11055l-3.355.00003c-.80497-.00001-1.46933-.00002-2.01052.0442-.5621.04592-1.07881.14449-1.56414.39178-.75265.38349-1.36457.99541-1.74806 1.74806-.2473.48534-.34586 1.00204-.39179 1.56414-.04421.54119-.0442 1.20554-.04419 2.01051v10.48265c-.00001.8049-.00002 1.4693.04419 2.0105.04593.5621.14449 1.0788.39179 1.5641.38349.7527.99541 1.3646 1.74806 1.7481.48533.2473 1.00204.3458 1.56414.3918.54119.0442 1.20554.0442 2.0105.0442h6.48262c.805 0 1.4693 0 2.0105-.0442.5621-.046 1.0788-.1445 1.5642-.3918.7526-.3835 1.3645-.9954 1.748-1.7481.2473-.4853.3459-1.002.3918-1.5641.0442-.5412.0442-1.2056.0442-2.0105v-7.35498c.0003-.635.0006-1.1148-.1105-1.5775-.098-.40814-.2596-.79832-.4789-1.15621-.2487-.40572-.5881-.74482-1.0373-1.19361l-3.3323-3.33232c-.4488-.44922-.7879-.78865-1.1936-1.03728-.3579-.21931-.7481-.38093-1.1563-.47892zm-2.984 9.09652c.3905-.39052.3905-1.02368 0-1.41421-.3905-.39052-1.0237-.39052-1.4142 0l-2.50001 2.50001c-.39052.3905-.39052 1.0237 0 1.4142l2.50001 2.5c.3905.3905 1.0237.3905 1.4142 0s.3905-1.0237 0-1.4142l-1.79289-1.7929zm4-1.41421c-.3905-.39052-1.0237-.39052-1.4142 0-.3905.39053-.3905 1.02369 0 1.41421l1.7929 1.7929-1.7929 1.7929c-.3905.3905-.3905 1.0237 0 1.4142s1.0237.3905 1.4142 0l2.5-2.5c.3905-.3905.3905-1.0237 0-1.4142z" fill="#801ed7" fill-rule="evenodd"/></svg>