<svg fill="none" height="24" viewBox="0 0 24 24" width="24" xmlns="http://www.w3.org/2000/svg"><g fill="#801ed7"><path clip-rule="evenodd" d="m13 2.01558c0-.0263 0-.03946-.0011-.06331-.0236-.49377-.4579-.92779-.9516-.95115-.0239-.001128-.0317-.001125-.0473-.00112h-3.24134c-.80494-.00001-1.46931-.000019-2.01048.0442-.5621.04592-1.0788.14449-1.56414.39178-.75265.38349-1.36457.99541-1.74806 1.74806-.24729.48534-.34586 1.00204-.39178 1.56414-.04422.54118-.04421 1.20554-.0442 2.01049v10.48263c-.00001.805-.00002 1.4693.0442 2.0105.04592.5621.14449 1.0788.39178 1.5642.38349.7526.99541 1.3645 1.74806 1.748.48534.2473 1.00204.3459 1.56414.3918.54119.0442 1.20554.0442 2.0105.0442h6.48262c.805 0 1.4693 0 2.0105-.0442.5621-.0459 1.0788-.1445 1.5642-.3918.7526-.3835 1.3645-.9954 1.748-1.748.2473-.4854.3459-1.0021.3918-1.5642.0442-.5412.0442-1.2055.0442-2.0105v-7.24136c0-.01553 0-.0233-.0011-.04712-.0233-.49383-.4574-.92811-.9512-.95167-.0239-.00114-.037-.00114-.0632-.00114h-4.4164c-.2524.00003-.4982.00006-.7063-.01694-.2286-.01868-.4984-.06275-.7698-.20105-.3763-.19174-.6823-.4977-.874-.87403-.1383-.27142-.1824-.54116-.201-.76975-.0171-.20816-.017-.45395-.017-.70633zm-.818 10.50242c-.2906-.0499-.5894.0047-.8436.1541-.2541.1494-.4472.3839-.5451.662-.1832.521-.7541.7947-1.27514.6115-.52099-.1833-.79476-.7542-.61149-1.2752.25456-.7237.75702-1.3339 1.41843-1.7226.6613-.3886 1.4389-.5307 2.195-.401s1.4418.5227 1.9359 1.1096c.4938.5866.7641 1.329.7632 2.0957-.0002 1.2801-.947 2.1029-1.5694 2.5179-.3417.2278-.6762.3943-.9214.5033-.1241.0551-.2288.0971-.3049.1261l-.1364.0493c-.5239.1746-1.0902-.1085-1.2649-.6325-.1744-.5234.108-1.0891.6309-1.2643l-.0011.0003.0092-.0032c.0098-.0035.027-.0097.0503-.0186.0469-.0179.1178-.0462.2046-.0847.1763-.0784.4039-.1929.6243-.3398.5017-.3345.6788-.6356.6788-.8542v-.0015c.0005-.2948-.1034-.5803-.2933-.8058-.1898-.2255-.4534-.3766-.7439-.4264zm-1.182 6.482c0-.5523.4477-1 1-1h.01c.5523 0 1 .4477 1 1s-.4477 1-1 1h-.01c-.5523 0-1-.4477-1-1z" fill-rule="evenodd"/><path d="m18.908 6.99999c.2936.00001.4404.00001.5606-.07372.1699-.10412.2714-.34943.2249-.54314-.033-.13715-.1287-.2328-.3202-.42409l-3.3323-3.33232c-.1913-.19149-.287-.28723-.4241-.3202-.1937-.04656-.439.05498-.5432.22482-.0737.12027-.0737.26708-.0737.5607v3.10792c0 .28002 0 .42003.0545.52698.0479.09408.1244.17057.2185.21851.107.0545.247.0545.527.0545z"/></g></svg>