<svg fill="none" height="24" viewBox="0 0 24 24" width="24" xmlns="http://www.w3.org/2000/svg"><g clip-rule="evenodd" fill="#801ed7" fill-rule="evenodd"><path d="m15.2413 1h-6.4826c-.80495-.000012-1.46934-.000021-2.01052.0442-.5621.04592-1.0788.14448-1.56414.39178-.75265.38349-1.36457.99541-1.74806 1.74806-.2473.48534-.34586 1.00204-.39178 1.56414-.04422.54118-.04421 1.20555-.0442 2.01051v10.48261c-.00001.805-.00002 1.4693.0442 2.0105.04592.5621.14448 1.0788.39178 1.5642.38349.7526.99541 1.3645 1.74806 1.748.48534.2473 1.00204.3459 1.56414.3918.54119.0442 1.20554.0442 2.0105.0442h2.87462c.7087 0 1.063 0 1.195-.0968.1343-.0984.1864-.1902.2021-.356.0155-.1629-.195-.5155-.6159-1.2208-.5808-.9731-.9145-2.1108-.9145-3.3264 0-3.5899 2.9101-6.5 6.5-6.5.6159 0 1.2118.0857 1.7764.2457.4827.1368.724.2053.8608.1663.1333-.0381.215-.0998.288-.2178.0748-.1209.0748-.3409.0748-.7811v-4.15442c0-.80496 0-1.46931-.0442-2.0105-.0459-.5621-.1445-1.0788-.3918-1.56414-.3835-.75265-.9954-1.36457-1.748-1.74806-.4854-.2473-1.0021-.34586-1.5642-.39178-.5412-.044221-1.2055-.044212-2.0105-.0442zm-8.2413 4c-.55228 0-1 .44772-1 1 0 .55229.44772 1 1 1h9c.5523 0 1-.44771 1-1 0-.55228-.4477-1-1-1zm-1 5c0-.55229.44772-1 1-1h6c.5523 0 1 .44771 1 1 0 .5523-.4477 1-1 1h-6c-.55228 0-1-.4477-1-1zm0 4c0-.5523.44772-1 1-1h2c.55229 0 1 .4477 1 1s-.44771 1-1 1h-2c-.55228 0-1-.4477-1-1z"/><path d="m13.5 18c0-2.4853 2.0147-4.5 4.5-4.5s4.5 2.0147 4.5 4.5c0 .8805-.2529 1.702-.69 2.3957l.8971.8972c.3905.3905.3905 1.0237 0 1.4142s-1.0237.3905-1.4142 0l-.8972-.8971c-.6937.4371-1.5152.69-2.3957.69-2.4853 0-4.5-2.0147-4.5-4.5zm4.5-2.5c-1.3807 0-2.5 1.1193-2.5 2.5s1.1193 2.5 2.5 2.5 2.5-1.1193 2.5-2.5-1.1193-2.5-2.5-2.5z"/></g></svg>