<svg fill="none" height="24" viewBox="0 0 24 24" width="24" xmlns="http://www.w3.org/2000/svg"><g fill="#801ed7"><path clip-rule="evenodd" d="m8.7587 1h6.4826c.805-.000012 1.4693-.000021 2.0105.0442.5621.04592 1.0788.14448 1.5642.39178.7526.38349 1.3645.99541 1.748 1.74806.2473.48534.3459 1.00204.3918 1.56414.0442.54119.0442 1.20554.0442 2.0105v5.21552c0 .5497 0 .8245-.0638.9384-.0764.1362-.1062.1623-.2513.2201-.1213.0482-.5096-.0033-1.2862-.1064-.1305-.0174-.2635-.0263-.3987-.0263-1.6569 0-3 1.3431-3 3-.7678 0-1.5355.2929-2.1213.8787-1.1716 1.1716-1.1716 3.071 0 4.2426l.5181.5181c.4264.4265.6396.6397.6541.8235.0126.1594-.0521.3156-.1736.4194-.1402.1198-.4414.12-1.0439.1203-.9331.0004-1.8662-.0004-2.7993-.0013-.7585-.0006-1.51694-.0013-2.27542-.0013-.80496 0-1.46931 0-2.0105-.0442-.5621-.0459-1.0788-.1445-1.56414-.3918-.75265-.3835-1.36457-.9954-1.74806-1.748-.2473-.4854-.34586-1.0021-.39178-1.5642-.04422-.5412-.04421-1.2055-.0442-2.0105v-10.48261c-.00001-.80496-.00002-1.46933.0442-2.01051.04592-.5621.14448-1.0788.39178-1.56414.38349-.75265.99541-1.36457 1.74806-1.74806.48534-.2473 1.00204-.34586 1.56414-.39178.54118-.044221 1.20557-.044212 2.01052-.0442zm-1.7587 4c-.55228 0-1 .44772-1 1 0 .55229.44772 1 1 1h9c.5523 0 1-.44771 1-1 0-.55228-.4477-1-1-1zm-1 5c0-.55229.44772-1 1-1h6c.5523 0 1 .44771 1 1 0 .5523-.4477 1-1 1h-6c-.55228 0-1-.4477-1-1zm0 4c0-.5523.44772-1 1-1h2c.55229 0 1 .4477 1 1s-.44771 1-1 1h-2c-.55228 0-1-.4477-1-1z" fill-rule="evenodd"/><path d="m19 15c.5523 0 1 .4477 1 1v3.5858l1.2929-1.2929c.3905-.3905 1.0237-.3905 1.4142 0s.3905 1.0237 0 1.4142l-3 3c-.1875.1875-.4419.2929-.7071.2929s-.5196-.1054-.7071-.2929l-3-3c-.3905-.3905-.3905-1.0237 0-1.4142s1.0237-.3905 1.4142 0l1.2929 1.2929v-3.5858c0-.5523.4477-1 1-1z"/></g></svg>