<svg fill="none" height="24" viewBox="0 0 24 24" width="24" xmlns="http://www.w3.org/2000/svg"><g fill="#801ed7"><path d="m17.9884 14.6721c.2542-.1494.553-.204.8436-.1541.2905.0498.5541.2009.7439.4264.1899.2255.2938.511.2934.8058v.0015c0 .2186-.1772.5197-.6789.8542-.2204.1469-.4479.2614-.6243.3398-.0868.0385-.1577.0668-.2045.0847-.0234.0089-.0405.0151-.0504.0186l-.0092.0032.0011-.0003c-.5229.1752-.8053.7409-.6308 1.2643.1746.524.7409.8071 1.2649.6325l.0012-.0004.0428-.0149c.0231-.0082.0542-.0195.0923-.034.0761-.029.1809-.071.3049-.1261.2452-.109.5797-.2755.9214-.5033.6223-.4149 1.569-1.2376 1.5695-2.5174.001-.7669-.2694-1.5095-.7633-2.0962-.494-.5869-1.1798-.9799-1.9359-1.1096s-1.5337.0124-2.195.401c-.6614.3887-1.1638.9989-1.4184 1.7226-.1833.521.0905 1.0919.6115 1.2752.521.1832 1.0919-.0905 1.2752-.6115.0978-.2781.2909-.5126.545-.662z"/><path d="m18.65 20c-.5523 0-1 .4477-1 1s.4477 1 1 1h.01c.5523 0 1-.4477 1-1s-.4477-1-1-1z"/><path d="m15.2413 1h-6.4826c-.80496-.000012-1.46933-.000022-2.01052.04419-.5621.04593-1.07881.14449-1.56414.39179-.75265.38349-1.36457.99541-1.74806 1.74806-.2473.48533-.34586 1.00204-.39179 1.56414-.04421.54119-.0442 1.20554-.04419 2.01051v10.48261c-.00001.805-.00002 1.4693.04419 2.0105.04593.5621.14449 1.0788.39179 1.5642.38349.7526.99541 1.3645 1.74806 1.748.48533.2473 1.00204.3459 1.56414.3918.54119.0442 1.20554.0442 2.0105.0442h6.48262c.1618 0 .2428 0 .2603-.0012.3876-.0274.5498-.2562.4471-.6309-.0047-.017-.0464-.1357-.1298-.3731-.1094-.3113-.1689-.6461-.1689-.9948 0-.536.1406-1.0392.3869-1.4747-.1054-.1789-.1937-.3716-.2621-.5766-.1192-.3577-.1673-.722-.152-1.0775-.0395-.0121-.079-.0251-.1184-.039-1.5629-.5498-2.3843-2.2625-1.8344-3.8255.4113-1.1692 1.2231-2.1551 2.2916-2.7831 1.0686-.628 2.325-.8576 3.5466-.648.0899.0154.1793.0331.268.0531.4988.1126.7482.1689.8791.1261.1312-.0429.2034-.1007.2741-.2192.0706-.1183.0706-.3355.0706-.76976v-3.00716c0-.80496 0-1.46931-.0442-2.0105-.0459-.5621-.1445-1.07881-.3918-1.56414-.3835-.75265-.9954-1.36457-1.748-1.74806-.4854-.2473-1.0021-.34586-1.5642-.39179-.5412-.044212-1.2055-.044202-2.0105-.04419z"/></g></svg>