<svg fill="none" height="24" viewBox="0 0 24 24" width="24" xmlns="http://www.w3.org/2000/svg"><g fill="#801ed7"><path clip-rule="evenodd" d="m18.5 13.5c-1.5188 0-2.75 1.2312-2.75 2.75v.778c-.2025.024-.4296.0736-.658.19-.3763.1917-.6823.4977-.874.874-.1383.2714-.1824.5412-.201.7698-.0171.2081-.017.4539-.017.7063v.8638c0 .2524-.0001.4982.017.7063.0186.2286.0627.4984.201.7698.1917.3763.4977.6823.874.874.2714.1383.5412.1824.7698.2011.2081.017.4539.0169.7063.0169h3.8638c.2524 0 .4982.0001.7063-.0169.2286-.0187.4984-.0628.7698-.2011.3763-.1917.6823-.4977.874-.874.1383-.2714.1824-.5412.2011-.7698.017-.2081.0169-.4539.0169-.7063v-.8638c0-.2524.0001-.4982-.0169-.7063-.0187-.2286-.0628-.4984-.2011-.7698-.1917-.3763-.4977-.6823-.874-.874-.2284-.1164-.4555-.166-.658-.19v-.778c0-1.5188-1.2312-2.75-2.75-2.75zm.75 3.5v-.75c0-.4142-.3358-.75-.75-.75s-.75.3358-.75.75v.75z" fill-rule="evenodd"/><path clip-rule="evenodd" d="m18.5 13.5c-1.5188 0-2.75 1.2312-2.75 2.75v.778c-.2025.024-.4296.0736-.658.19-.3763.1917-.6823.4977-.874.874-.1383.2714-.1824.5412-.201.7698-.0171.2081-.017.4539-.017.7063v.8638c0 .2524-.0001.4982.017.7063.0186.2286.0627.4984.201.7698.1917.3763.4977.6823.874.874.2714.1383.5412.1824.7698.2011.2081.017.4539.0169.7063.0169h3.8638c.2524 0 .4982.0001.7063-.0169.2286-.0187.4984-.0628.7698-.2011.3763-.1917.6823-.4977.874-.874.1383-.2714.1824-.5412.2011-.7698.017-.2081.0169-.4539.0169-.7063v-.8638c0-.2524.0001-.4982-.0169-.7063-.0187-.2286-.0628-.4984-.2011-.7698-.1917-.3763-.4977-.6823-.874-.874-.2284-.1164-.4555-.166-.658-.19v-.778c0-1.5188-1.2312-2.75-2.75-2.75zm.75 3.5v-.75c0-.4142-.3358-.75-.75-.75s-.75.3358-.75.75v.75z" fill-rule="evenodd"/><path d="m15.2413 1h-6.4826c-.80496-.000012-1.46933-.000022-2.01052.04419-.5621.04593-1.07881.14449-1.56414.39179-.75265.38349-1.36457.99541-1.74806 1.74806-.2473.48533-.34586 1.00204-.39179 1.56414-.04421.54119-.0442 1.20554-.04419 2.01051v10.48261c-.00001.805-.00002 1.4693.04419 2.0105.04593.5621.14449 1.0788.39179 1.5642.38349.7526.99541 1.3645 1.74806 1.748.48533.2473 1.00204.3459 1.56414.3918.54119.0442 1.20554.0442 2.0105.0442h2.39162c.4588 0 .6881 0 .804-.0667.1228-.0707.1711-.1281.2199-.2611.046-.1255-.0027-.4074-.1-.971-.0228-.1323-.0396-.2658-.0506-.4001-.024-.2938-.0237-.6187-.0236-.8482v-.9057c-.0001-.2295-.0004-.5544.0236-.8482.0288-.3523.1065-.9145.4124-1.5149.3133-.6148.7789-1.1356 1.3491-1.5148.2864-2.3495 2.2881-4.1693 4.7149-4.1693.4084 0 .8047.0515 1.1829.1485.5525.1416.8287.2124.9628.1715.1376-.0419.2067-.0955.2815-.2184.0728-.1197.0728-.3561.0728-.8287v-4.01422c0-.80496 0-1.46931-.0442-2.0105-.0459-.5621-.1445-1.07881-.3918-1.56414-.3835-.75265-.9954-1.36457-1.748-1.74806-.4854-.2473-1.0021-.34586-1.5642-.39179-.5412-.044212-1.2055-.044202-2.0105-.04419z"/></g></svg>