<svg fill="none" height="24" viewBox="0 0 24 24" width="24" xmlns="http://www.w3.org/2000/svg"><g fill="#801ed7"><path clip-rule="evenodd" d="m8.7587 1h6.4826c.805-.000012 1.4693-.000021 2.0105.0442.5621.04592 1.0788.14448 1.5642.39178.7526.38349 1.3645.99541 1.748 1.74806.2473.48534.3459 1.00204.3918 1.56414.0442.54119.0442 1.20554.0442 2.0105v3.00716c0 .43426 0 .65146-.0706.76976-.0707.1185-.1429.1763-.2741.2192-.1309.0428-.3803-.0135-.8791-.1261-.0887-.02-.1781-.0377-.268-.0531-1.2216-.2096-2.478.02-3.5466.648-1.0685.628-1.8803 1.6139-2.2916 2.7831-.5499 1.563.2715 3.2757 1.8344 3.8255.0394.0139.0789.0269.1184.039-.0153.3555.0328.7198.152 1.0775.0684.205.1567.3977.2621.5766-.2463.4355-.3869.9387-.3869 1.4747 0 .3487.0595.6835.1689.9948.0834.2374.1251.3561.1298.3731.1027.3747-.0595.6035-.4471.6309-.0175.0012-.0985.0012-.2603.0012h-6.48262c-.80496 0-1.46931 0-2.0105-.0442-.5621-.0459-1.0788-.1445-1.56414-.3918-.75265-.3835-1.36457-.9954-1.74806-1.748-.2473-.4854-.34586-1.0021-.39178-1.5642-.04422-.5412-.04421-1.2055-.0442-2.0105v-10.48261c-.00001-.80496-.00002-1.46933.0442-2.01051.04592-.5621.14448-1.0788.39178-1.56414.38349-.75265.99541-1.36457 1.74806-1.74806.48534-.2473 1.00204-.34586 1.56414-.39178.54118-.044221 1.20557-.044212 2.01052-.0442zm-1.7587 4c-.55228 0-1 .44772-1 1 0 .55229.44772 1 1 1h9c.5523 0 1-.44771 1-1 0-.55228-.4477-1-1-1zm-1 5c0-.55229.44772-1 1-1h6c.5523 0 1 .44771 1 1 0 .5523-.4477 1-1 1h-6c-.55228 0-1-.4477-1-1zm0 4c0-.5523.44772-1 1-1h2c.55229 0 1 .4477 1 1s-.44771 1-1 1h-2c-.55228 0-1-.4477-1-1z" fill-rule="evenodd"/><path d="m17.9884 14.6721c.2542-.1494.553-.204.8436-.1541.2905.0498.5541.2009.7439.4264.1899.2255.2938.511.2934.8058v.0015c0 .2186-.1772.5197-.6789.8542-.2204.1469-.4479.2614-.6243.3398-.0868.0385-.1577.0668-.2045.0847-.0234.0089-.0405.0151-.0504.0186l-.0081.0029c-.5229.1752-.8053.7409-.6308 1.2643.1746.524.7409.8071 1.2649.6325l.0012-.0004.0428-.0149c.0231-.0082.0542-.0195.0923-.034.0761-.029.1809-.071.3049-.1261.2452-.109.5797-.2755.9214-.5033.6223-.4149 1.569-1.2376 1.5695-2.5174.001-.7669-.2694-1.5095-.7633-2.0962-.494-.5869-1.1798-.9799-1.9359-1.1096s-1.5337.0124-2.195.401c-.6614.3887-1.1638.9989-1.4184 1.7226-.1833.521.0905 1.0919.6115 1.2752.521.1832 1.0919-.0905 1.2752-.6115.0978-.2781.2909-.5126.545-.662z"/><path d="m18.65 20c-.5523 0-1 .4477-1 1s.4477 1 1 1h.01c.5523 0 1-.4477 1-1s-.4477-1-1-1z"/></g></svg>