<svg fill="none" height="24" viewBox="0 0 24 24" width="24" xmlns="http://www.w3.org/2000/svg"><g fill="#801ed7"><path clip-rule="evenodd" d="m22.7071 16.7929c.3905.3905.3905 1.0237 0 1.4142l-4.5 4.5c-.3905.3905-1.0237.3905-1.4142 0l-2-2c-.3905-.3905-.3905-1.0237 0-1.4142s1.0237-.3905 1.4142 0l1.2929 1.2929 3.7929-3.7929c.3905-.3905 1.0237-.3905 1.4142 0z" fill-rule="evenodd"/><path d="m8.7587 1h6.4826c.805-.000012 1.4693-.000022 2.0105.04419.5621.04593 1.0788.14449 1.5642.39179.7526.38349 1.3645.99541 1.748 1.74806.2473.48533.3459 1.00204.3918 1.56414.0442.54119.0442 1.20554.0442 2.0105v7.34602c0 .1973 0 .2959-.0242.3708-.0254.0786-.048.1179-.1029.1795-.0525.0587-.1636.1237-.3858.2536-.2173.127-.4221.2837-.6084.4701l-2.3821 2.3821c-1.178-1.0523-2.9871-1.013-4.1179.1179-1.1716 1.1716-1.1716 3.071 0 4.2426.0208.0209.0312.0313.0372.0376.2925.3136.0804.8259-.3483.8408-.0087.0003-.0234.0003-.0529.0003h-4.25602c-.80496 0-1.46931 0-2.0105-.0442-.5621-.0459-1.07881-.1445-1.56414-.3918-.75265-.3835-1.36457-.9954-1.74806-1.748-.2473-.4854-.34586-1.0021-.39179-1.5642-.04421-.5412-.0442-1.2055-.04419-2.0105v-10.4826c-.00001-.80496-.00002-1.46933.04419-2.01052.04593-.5621.14449-1.07881.39179-1.56414.38349-.75265.99541-1.36457 1.74806-1.74806.48533-.2473 1.00204-.34586 1.56414-.39179.54119-.044212 1.20556-.044202 2.01052-.04419z"/></g></svg>