<svg fill="none" height="24" viewBox="0 0 24 24" width="24" xmlns="http://www.w3.org/2000/svg"><g fill="#801ed7"><path clip-rule="evenodd" d="m20.5 13c-.2761 0-.5.2239-.5.5v5.5c0 .5523-.4477 1-1 1s-1-.4477-1-1v-5.5c0-1.3807 1.1193-2.5 2.5-2.5s2.5 1.1193 2.5 2.5v5.5c0 2.2091-1.7909 4-4 4s-4-1.7909-4-4v-4c0-.5523.4477-1 1-1s1 .4477 1 1v4c0 1.1046.8954 2 2 2s2-.8954 2-2v-5.5c0-.2761-.2239-.5-.5-.5z" fill-rule="evenodd"/><path d="m8.7587 1h6.4826c.805-.000012 1.4693-.000022 2.0105.04419.5621.04593 1.0788.14449 1.5642.39179.7526.38349 1.3645.99541 1.748 1.74806.2473.48533.3459 1.00204.3918 1.56414.0442.54119.0442 1.20554.0442 2.0105v1.76778c0 .26731-.2327.47354-.5.47354-1.9632 0-3.6328 1.2572-4.2476 3.0105-.0832-.007-.1674-.0105-.2524-.0105-1.6569 0-3 1.3431-3 3v4c0 .8961.1964 1.7463.5486 2.5099.2833.6142.4249.9214.3989 1.0741-.0262.1539-.0814.2401-.2102.3284-.1278.0876-.4183.0876-.9992.0876h-3.97942c-.80496 0-1.46931 0-2.0105-.0442-.5621-.0459-1.07881-.1445-1.56414-.3918-.75265-.3835-1.36457-.9954-1.74806-1.748-.2473-.4854-.34586-1.0021-.39179-1.5642-.04421-.5412-.0442-1.2055-.04419-2.0105v-10.4826c-.00001-.80496-.00002-1.46933.04419-2.01052.04593-.5621.14449-1.07881.39179-1.56414.38349-.75265.99541-1.36457 1.74806-1.74806.48533-.2473 1.00204-.34586 1.56414-.39179.54119-.044212 1.20556-.044202 2.01052-.04419z"/></g></svg>