<svg fill="none" height="24" viewBox="0 0 24 24" width="24" xmlns="http://www.w3.org/2000/svg"><g fill="#801ed7"><path clip-rule="evenodd" d="m8.7587 1h6.4826c.805-.000012 1.4693-.000021 2.0105.0442.5621.04592 1.0788.14448 1.5642.39178.7526.38349 1.3645.99541 1.748 1.74806.2473.48534.3459 1.00204.3918 1.56414.0442.54119.0442 1.20554.0442 2.0105v4.84292c0 .3823 0 .5734-.0802.6974-.0702.1084-.1796.1855-.3053.2151-.1437.0338-.3237-.0305-.6837-.1591l-.1067-.0382-.0012-.0004-.001-.0004c-1.1786-.4215-2.4675-.4213-3.646.0004l-2.1859.7815c-1.1934.4267-1.99 1.5574-1.99 2.8249v2.5023c0 1.1993.3928 2.2086.9011 3.0166.391.6215.5865.9322.5735 1.0973-.0127.1624-.0693.265-.2.3621-.1328.0989-.4568.0989-1.1046.0989h-3.41132c-.80496 0-1.46931 0-2.0105-.0442-.5621-.0459-1.0788-.1445-1.56414-.3918-.75265-.3835-1.36457-.9954-1.74806-1.748-.2473-.4854-.34586-1.0021-.39178-1.5642-.04422-.5412-.04421-1.2055-.0442-2.0105v-10.48261c-.00001-.80496-.00002-1.46933.0442-2.01051.04592-.5621.14448-1.0788.39178-1.56414.38349-.75265.99541-1.36457 1.74806-1.74806.48534-.2473 1.00204-.34586 1.56414-.39178.54118-.044221 1.20557-.044212 2.01052-.0442zm-1.7587 8c-.55228 0-1 .44771-1 1 0 .5523.44772 1 1 1h6c.5523 0 1-.4477 1-1 0-.55229-.4477-1-1-1zm-1 5c0-.5523.44772-1 1-1h2c.55229 0 1 .4477 1 1s-.44771 1-1 1h-2c-.55228 0-1-.4477-1-1zm1-9c-.55228 0-1 .44772-1 1 0 .55229.44772 1 1 1h8c.5523 0 1-.44771 1-1 0-.55228-.4477-1-1-1z" fill-rule="evenodd"/><path d="m21.3365 14.981-2.1869-.7815c-.7432-.266-1.5572-.266-2.3004 0l-2.1859.7815c-.3978.1423-.6633.5192-.6633.9417v2.5023c0 1.539 1.0565 2.6898 1.8595 3.3596.4264.3557.8476.6313 1.1599.8173.1795.1069.3623.2082.5498.3003.1584.0756.7436.058.912-.0248.084-.042.2634-.1349.4994-.2755.3123-.186.7335-.4616 1.1599-.8173.8031-.6698 1.8595-1.8206 1.8595-3.3596v-2.5023c0-.4226-.2656-.7996-.6635-.9417z"/></g></svg>