<svg fill="none" height="24" viewBox="0 0 24 24" width="24" xmlns="http://www.w3.org/2000/svg"><path clip-rule="evenodd" d="m11.1382 1.01695c.2286.01868.4984.06274.7698.20104.3763.19175.6823.49771.874.87403.1383.27143.1824.54116.2011.76976.0036.04445.0064.09063.0087.13822h4.2495c.805-.00001 1.4693-.00002 2.0105.04419.5621.04593 1.0788.14449 1.5642.39178.7526.3835 1.3645.99542 1.748 1.74807.2473.48533.3459 1.00204.3918 1.56413.0442.54121.0442 1.20557.0442 2.01056v8.48257c0 .805 0 1.4693-.0442 2.0105-.0459.5621-.1445 1.0788-.3918 1.5642-.3835.7526-.9954 1.3645-1.748 1.748-.4854.2473-1.0021.3459-1.5642.3918-.5412.0442-1.2055.0442-2.0105.0442h-3.6732c-.2523 0-.4982.0001-.7063-.0169-.2286-.0187-.4984-.0628-.7698-.2011-.3763-.1917-.6823-.4977-.874-.874-.1383-.2714-.1824-.5412-.201-.7698-.0037-.0444-.0065-.0906-.0088-.1382h-4.24952c-.80496 0-1.46931 0-2.0105-.0442-.5621-.0459-1.07881-.1445-1.56414-.3918-.75265-.3835-1.36457-.9954-1.74806-1.748-.2473-.4854-.34586-1.0021-.39179-1.5642-.044212-.5412-.044202-1.2055-.04419-2.0105v-8.48259c-.000012-.80497-.000022-1.46934.04419-2.01053.04593-.5621.14449-1.0788.39179-1.56414.38349-.75265.99541-1.36457 1.74806-1.74806.48533-.24729 1.00204-.34586 1.56414-.39178.54119-.044219 1.20555-.044208 2.01052-.0442h3.6732c.2524-.000027.4982-.000057.7063.01695zm-3.1382 1.98306v1.99999h3v-2zm-3.08896.03755c.29359-.02399.64343-.03266 1.08896-.03579v1.99823h-2.96914c.00209-.03023.00432-.05987.00669-.08896.03582-.43841.10075-.66262.18044-.81902.19174-.37632.49771-.68228.87403-.87403.1564-.07969.3806-.14461.81902-.18043zm3.08896 13.96244h3v2h-3zm-2 0v1.9982c-.44553-.0031-.79537-.0118-1.08896-.0357-.43842-.0359-.66262-.1008-.81902-.1805-.37632-.1917-.68229-.4977-.87403-.874-.07969-.1564-.14462-.3806-.18044-.819-.00237-.0291-.0046-.0588-.00669-.089zm7 2v2h3v-2zm5 1.9982c.4455-.0031.7954-.0118 1.089-.0358.4384-.0358.6626-.1007.819-.1804.3763-.1917.6823-.4977.874-.874.0797-.1564.1446-.3806.1805-.819.0023-.0291.0046-.0588.0066-.089h-2.9691zm-5-13.9982h3v-2h-3zm5-1.99824v1.99824h2.9691c-.002-.03023-.0043-.05987-.0066-.08896-.0359-.43842-.1008-.66262-.1805-.81902-.1917-.37632-.4977-.68229-.874-.87403-.1564-.07969-.3806-.14462-.819-.18044-.2936-.02398-.6435-.03266-1.089-.03579z" fill="#801ed7" fill-rule="evenodd"/></svg>