<svg fill="none" height="24" viewBox="0 0 24 24" width="24" xmlns="http://www.w3.org/2000/svg"><path clip-rule="evenodd" d="m6.7587 1c-.80496-.000012-1.46933-.000022-2.01052.04419-.5621.04593-1.07881.14449-1.56414.39179-.75265.38349-1.36457.99541-1.74806 1.74806-.2473.48533-.34586 1.00204-.39179 1.56414-.044212.54119-.044202 1.20554-.04419 2.01051v10.48261c-.000012.805-.000022 1.4693.04419 2.0105.04593.5621.14449 1.0788.39179 1.5642.38349.7526.99541 1.3645 1.74806 1.748.48533.2473 1.00204.3459 1.56414.3918.54119.0442 1.20554.0442 2.0105.0442h10.48262c.805 0 1.4693 0 2.0105-.0442.5621-.0459 1.0788-.1445 1.5642-.3918.7526-.3835 1.3645-.9954 1.748-1.748.2473-.4854.3459-1.0021.3918-1.5642.0442-.5412.0442-1.2055.0442-2.0105v-10.48262c0-.80496 0-1.46931-.0442-2.0105-.0459-.5621-.1445-1.07881-.3918-1.56414-.3835-.75265-.9954-1.36457-1.748-1.74806-.4854-.2473-1.0021-.34586-1.5642-.39179-.5412-.044212-1.2055-.044202-2.0105-.04419zm11.2413 5v-2.99824c.4455.00313.7954.01181 1.089.03579.4384.03582.6626.10075.819.18044.3763.19174.6823.49771.874.87403.0797.1564.1446.3806.1804.81902.024.29359.0327.64343.0358 1.08896zm0 2v3h3v-3zm0 8v-3h3v3zm0 2v2.9982c.4455-.0031.7954-.0118 1.089-.0358.4384-.0358.6626-.1007.819-.1804.3763-.1917.6823-.4977.874-.874.0797-.1564.1446-.3806.1804-.819.024-.2936.0327-.6435.0358-1.089zm-13.08896-14.96245c.29359-.02398.64343-.03266 1.08896-.03579v2.99824h-2.99824c.00313-.44553.01181-.79537.03579-1.08896.03582-.43842.10075-.66262.18044-.81902.19174-.37632.49771-.68229.87403-.87403.1564-.07969.3806-.14462.81902-.18044zm-1.91104 4.96245h3v3h-3zm0 5h3v3h-3zm.00176 5h2.99824v2.9982c-.44553-.0031-.79537-.0118-1.08896-.0358-.43842-.0358-.66262-.1007-.81902-.1804-.37632-.1917-.68229-.4977-.87403-.874-.07969-.1564-.14462-.3806-.18044-.819-.02398-.2936-.03266-.6435-.03579-1.089z" fill="#801ed7" fill-rule="evenodd"/></svg>