<svg fill="none" height="24" viewBox="0 0 24 24" width="24" xmlns="http://www.w3.org/2000/svg"><path clip-rule="evenodd" d="m23 6.7587c0-.80496 0-1.46933-.0442-2.01052-.0459-.5621-.1445-1.0788-.3918-1.56414-.3835-.75265-.9954-1.36457-1.748-1.74806-.4854-.24729-1.0021-.34586-1.5642-.39178-.5412-.044222-1.2055-.044211-2.0105-.0442h-10.4826c-.80496-.000012-1.46933-.000022-2.01052.04419-.5621.04593-1.07881.14449-1.56414.39179-.75265.38349-1.36457.99541-1.74806 1.74806-.2473.48533-.34586 1.00204-.39179 1.56414-.044212.54118-.044202 1.20554-.04419 2.0105v10.48262c-.000013.805-.000022 1.4693.04419 2.0105.04593.5621.14449 1.0788.39178 1.5642.3835.7526.99542 1.3645 1.74807 1.748.48533.2473 1.00204.3459 1.56413.3918.54119.0442 1.20555.0442 2.0105.0442h10.48263c.805 0 1.4693 0 2.0105-.0442.5621-.0459 1.0788-.1445 1.5642-.3918.7526-.3835 1.3645-.9954 1.748-1.748.2473-.4854.3459-1.0021.3918-1.5642.0442-.5412.0442-1.2055.0442-2.0105zm-5 11.2413h2.9982c-.0031.4455-.0118.7954-.0358 1.089-.0358.4384-.1007.6626-.1804.819-.1917.3763-.4977.6823-.874.874-.1564.0797-.3806.1446-.819.1804-.2936.024-.6435.0327-1.089.0358zm-2 0h-3v3h3zm-8 0h3v3h-3zm-2 0h-2.99824c.00313.4455.01181.7954.03579 1.089.03582.4384.10075.6626.18044.819.19174.3763.4977.6823.87403.874.1564.0797.3806.1446.81902.1804.29359.024.64343.0327 1.08896.0358zm14.9624-13.08896c.024.29359.0327.64343.0358 1.08896h-2.9982v-2.99824c.4455.00313.7954.01181 1.089.03579.4384.03582.6626.10075.819.18044.3763.19175.6823.49771.874.87403.0797.1564.1446.3806.1804.81902zm-4.9624-1.91104v3h-3v-3zm-5 0v3h-3v-3zm-5 .00176v2.99824h-2.99824c.00313-.44553.01181-.79537.03579-1.08896.03582-.43842.10075-.66262.18044-.81902.19174-.37632.49771-.68229.87403-.87403.1564-.07969.3806-.14462.81902-.18044.29359-.02398.64343-.03266 1.08896-.03579z" fill="#801ed7" fill-rule="evenodd"/></svg>