<svg fill="none" height="24" viewBox="0 0 24 24" width="24" xmlns="http://www.w3.org/2000/svg"><path clip-rule="evenodd" d="m4.53342 2h.04511 14.88807c.5284-.00002.9917-.00005 1.3551.03263.3488.03136.8273.10497 1.2151.42515.4816.39766.7498.9975.725 1.62158-.0199.50248-.2842.9082-.4933 1.18901-.218.29265-.5269.63784-.8793 1.03166l-5.7364 6.41117c-.0807.0903-.1207.1353-.1485.1692l-.0021.0025-.0001.0033c-.0019.0437-.0021.1039-.0021.2251v5.3471c0 .0109.0001.0237.0003.038.0014.1375.0045.4229-.0949.6894-.0836.2241-.2196.425-.3966.5858-.2105.1913-.4767.2945-.6049.3442-.0134.0052-.0252.0098-.0354.0138l-3.4279 1.3712c-.1589.0636-.3345.1339-.4895.1802-.1667.0497-.4405.1147-.75629.0491-.38702-.0804-.72666-.3104-.94506-.6398-.17823-.2689-.21954-.5473-.23526-.7205-.01461-.161-.01456-.3502-.0145-.5214v-6.7371c0-.1212-.00021-.1814-.00207-.2251l-.00015-.0033-.00205-.0025c-.02779-.0339-.0678-.0789-.14858-.1692l-5.70624-6.37753c-.01007-.01125-.0201-.02246-.03009-.03363-.3524-.39382-.66129-.73901-.87929-1.03167-.20918-.28081-.47341-.68653-.49337-1.18901-.02478-.62408.24341-1.22392.72503-1.62158.38777-.32018.86632-.39379 1.21507-.42515.36347-.03268.82668-.03265 1.35517-.03263z" fill="#801ed7" fill-rule="evenodd"/></svg>