<svg fill="none" height="24" viewBox="0 0 24 24" width="24" xmlns="http://www.w3.org/2000/svg"><path clip-rule="evenodd" d="m3.56809 2c.01062 0 .02125.00001.0319.00001l16.83191-.00001c.2524-.00003.4982-.00006.7063.01695.2286.01868.4983.06274.7698.20104.3763.19175.6823.49771.874.87403.1383.27143.1824.54116.201.76976.017.20815.017.45393.017.70631v.70131c0 .01824 0 .03699.0001.05619.0006.20832.0014.47057-.0658.72617-.0582.22149-.154.43134-.2833.6204-.1491.21815-.3478.38933-.5056.5253-.0146.01254-.0288.02478-.0426.03673l-6.3958 5.54301c-.1087.0942-.1631.1417-.201.178l-.0029.0028-.0002.0041c-.0026.0524-.0029.1246-.0029.2685v5.2278c0 .0109.0001.0237.0003.038.0014.1375.0045.4229-.0949.6894-.0836.2241-.2196.425-.3967.5858-.2104.1913-.4766.2945-.6048.3442-.0134.0052-.0252.0098-.0354.0138l-3.4279 1.3712c-.1589.0636-.3346.1339-.4895.1802-.1667.0497-.4405.1147-.75629.0491-.38703-.0804-.72666-.3103-.94507-.6398-.17822-.2689-.21953-.5473-.23525-.7205-.01462-.161-.01456-.3502-.01451-.5214l.00001-6.6178c0-.1439-.00029-.2161-.00288-.2685l-.00021-.0041-.00294-.0028c-.0379-.0363-.09229-.0838-.20102-.178l-6.39577-5.54301c-.01379-.01195-.02799-.02419-.04255-.03672-.15782-.13598-.3565-.30715-.50565-.52531-.12925-.18906-.22508-.39891-.28329-.6204-.067178-.25559-.066413-.51785-.065805-.72616.000056-.01921.000111-.03796.000111-.0562v-.66939c0-.01065-.000001-.02128-.000003-.0319-.00003-.25239-.000059-.49818.016947-.70633.01868-.2286.06275-.49833.20104-.76976.19175-.37632.49771-.68228.87403-.87403.27143-.1383.54116-.18236.76976-.20104.20815-.01701.45395-.01698.70633-.01695z" fill="#801ed7" fill-rule="evenodd"/></svg>