<svg fill="none" height="24" viewBox="0 0 24 24" width="24" xmlns="http://www.w3.org/2000/svg"><g clip-rule="evenodd" fill="#801ed7" fill-rule="evenodd"><path d="m1.8418 14.2187c0-5.61354 4.54875-10.16403 10.1599-10.16403 5.6112 0 10.1599 4.55049 10.1599 10.16403 0 2.2392-1.8149 4.0546-4.0536 4.0546s-4.0537-1.8154-4.0537-4.0546c0-1.1352-.9199-2.0547-2.0536-2.0547s-2.05365.9195-2.05365 2.0547c0 2.9241 1.53745 5.4896 3.85155 6.9327.4686.2922.6116.909.3193 1.3777-.2922.4686-.909.6116-1.3777.3193-2.87471-1.7927-4.79315-4.9863-4.79315-8.6297 0-2.2393 1.81498-4.0547 4.05365-4.0547 2.2387 0 4.0536 1.8154 4.0536 4.0547 0 1.1351.92 2.0546 2.0537 2.0546s2.0536-.9195 2.0536-2.0546c0-4.5097-3.654-8.16403-8.1599-8.16403-4.50586 0-8.1599 3.65433-8.1599 8.16403 0 1.0532.11784 2.0801.33521 3.0716.11827.5395-.22318 1.0727-.76265 1.191-.53948.1182-1.07268-.2232-1.19095-.7627-.24694-1.1264-.38161-2.2968-.38161-3.4999z"/><path d="m11.9988 9.10933c-2.81967 0-5.10632 2.28677-5.10632 5.10937 0 2.3929.75016 4.607 2.02646 6.4284.31694.4523.2072 1.0759-.24509 1.3928-.4523.317-1.07588.2072-1.39282-.2451-1.50344-2.1455-2.38855-4.7579-2.38855-7.5761 0-3.9263 3.18121-7.10937 7.10632-7.10937 3.925 0 7.1062 3.18307 7.1062 7.10937 0 .5522-.4477 1-1 1s-1-.4478-1-1c0-2.8226-2.2866-5.10937-5.1062-5.10937z"/><path d="m12.0008 13.2187c.5523 0 1 .4477 1 1 0 2.8225 2.2867 5.1093 5.1063 5.1093.0457 0 .0776-.0022.1324-.0059.0347-.0024.0786-.0054.141-.0089.5514-.0306 1.0233.3916 1.0539.943.0307.5515-.3915 1.0233-.943 1.054-.0122.0006-.0297.0018-.0509.0032-.0808.0055-.2167.0146-.3334.0146-3.9251 0-7.1063-3.1831-7.1063-7.1093 0-.5523.4477-1 1-1z"/><path d="m2.72362 5.20237c2.26291-2.57054 5.57638-4.20237 9.27618-4.20237s7.0132 1.63183 9.2761 4.20237c.365.41454.3248 1.04642-.0898 1.41136-.4145.36493-1.0464.32471-1.4113-.08983-1.9017-2.16013-4.6771-3.5239-7.775-3.5239s-5.87338 1.36377-7.775 3.5239c-.36493.41454-.99682.45476-1.41136.08983-.41454-.36494-.45476-.99682-.08982-1.41136z"/></g></svg>