<svg fill="none" height="24" viewBox="0 0 24 24" width="24" xmlns="http://www.w3.org/2000/svg"><g clip-rule="evenodd" fill="#801ed7" fill-rule="evenodd"><path d="m12 7c-2.76142 0-5 2.23858-5 5 0 .6174.11145 1.2066.31446 1.7499.19332.5173-.06937 1.0934-.58672 1.2867s-1.09345-.0693-1.28676-.5867c-.28541-.7638-.44098-1.5898-.44098-2.4499 0-3.86599 3.13401-7 7-7 .8554 0 1.6771.15389 2.4375.43637.5177.19233.7815.76793.5892 1.28565-.1923.51771-.7679.78149-1.2856.58916-.5409-.20092-1.127-.31118-1.7411-.31118zm5.2763 1.97045c.5177-.19261 1.0934.07086 1.286.58847.2833.76138.4377 1.58438.4377 2.44108 0 3.866-3.134 7-7 7-.8497 0-1.6662-.1518-2.42232-.4307-.51816-.1912-.78328-.7661-.59216-1.2843s.76611-.7833 1.28428-.5922c.5378.1984 1.1202.3072 1.7302.3072 2.7614 0 5-2.2386 5-5 0-.6151-.1106-1.202-.3121-1.7436-.1926-.51759.0708-1.09334.5884-1.28595z"/><path d="m12 3c-1.6714 0-3.23355.45467-4.57287 1.24647-.47542.28106-1.08867.12351-1.36973-.35191s-.12351-1.08867.35191-1.36973c1.63908-.96901 3.5515-1.52483 5.59069-1.52483 6.0751 0 11 4.92487 11 11 0 .0364-.0002.0727-.0005.109-.0054.5523-.4575.9956-1.0097.9902-.5523-.0053-.9956-.4574-.9902-1.0096.0003-.0299.0004-.0597.0004-.0896 0-4.97056-4.0294-9-9-9zm-8.11071 3.06458c.47566.28064.63376.89375.35312 1.36942-.78929 1.33778-1.24241 2.8975-1.24241 4.566 0 4.1923 2.86728 7.7174 6.74926 8.7165.53484.1377.85684.6829.71914 1.2177-.1376.5349-.68281.8569-1.21766.7192-4.74416-1.2211-8.25074-5.5265-8.25074-10.6534 0-2.0357.55392-3.94508 1.51987-5.5823.28064-.47566.89375-.63376 1.36942-.35312zm17.31111 9.98582c.4806.2722.6496.8824.3774 1.3629-1.4516 2.5633-3.9031 4.4871-6.8285 5.2401-.5349.1377-1.0801-.1843-1.2177-.7192-.1377-.5348.1843-1.08.7191-1.2177 2.3893-.6149 4.3975-2.1887 5.5868-4.2887.2721-.4806.8823-.6495 1.3629-.3774z"/><path d="m12 9c.5523 0 1 .44771 1 1v4c0 .5523-.4477 1-1 1s-1-.4477-1-1v-4c0-.55229.4477-1 1-1z"/></g></svg>