<svg fill="none" height="24" viewBox="0 0 24 24" width="24" xmlns="http://www.w3.org/2000/svg"><g clip-rule="evenodd" fill="#801ed7" fill-rule="evenodd"><path d="m6.5 10c0-3.03757 2.46243-5.5 5.5-5.5 1.0382 0 2.0121.28864 2.8423.7906.4727.28575.6241.90052.3384 1.37314s-.9005.62411-1.3731.33836c-.5269-.31854-1.1443-.5021-1.8076-.5021-1.933 0-3.5 1.567-3.5 3.5v2.95c0 .5523-.44772 1-1 1s-1-.4477-1-1zm10 .04c.5523 0 1 .4477 1 1v2.96c0 3.0376-2.4624 5.5-5.5 5.5-1.0356 0-2.00725-.2872-2.83612-.7868-.473-.2852-.62529-.8997-.34017-1.3727s.8997-.6253 1.37269-.3402c.526.3171 1.1419.4997 1.8036.4997 1.933 0 3.5-1.567 3.5-3.5v-2.96c0-.5523.4477-1 1-1z"/><path d="m12 9c.5523 0 1 .44771 1 1v4c0 .5523-.4477 1-1 1s-1-.4477-1-1v-4c0-.55229.4477-1 1-1z"/><path d="m6.87734 2.59924c1.45424-1.00829 3.22096-1.59924 5.12266-1.59924 4.9706 0 9 4.02944 9 9v1.2367c0 .5522-.4477 1-1 1s-1-.4478-1-1v-1.2367c0-3.86599-3.134-7-7-7-1.4815 0-2.85276.45912-3.98309 1.24282-.45387.31469-1.0769.20186-1.39158-.25201-.31469-.45386-.20186-1.07689.25201-1.39157zm-2.14198 3.89909c.52342.1762.8049.74336.6287 1.26679-.23583.70053-.36406 1.45171-.36406 2.23488v4c0 3.179 2.11999 5.8655 5.0255 6.7179.5299.1555.8335.7111.678 1.2411-.1555.5299-.71111.8335-1.24105.678-3.73412-1.0955-6.46245-4.5463-6.46245-8.637v-4c0-1.00291.16443-1.96947.46858-2.87297.1762-.52342.74336-.8049 1.26678-.6287zm15.21284 8.86317c.5287.1599.8277.718.6678 1.2466-.821 2.7156-2.8882 4.8869-5.5372 5.8512-.5189.1889-1.0928-.0786-1.2817-.5976-.1889-.5189.0786-1.0928.5976-1.2817 2.0597-.7498 3.669-2.441 4.3069-4.5507.1598-.5286.718-.8276 1.2466-.6678z"/></g></svg>