<svg fill="none" height="24" viewBox="0 0 24 24" width="24" xmlns="http://www.w3.org/2000/svg"><g clip-rule="evenodd" fill="#801ed7" fill-rule="evenodd"><path d="m6.99989 11c0-2.76142 2.23858-5 5.00001-5 2.7614 0 5 2.23858 5 5 0 1.0625-.0723 2.1092-.2125 3.1353-.0747.5472-.5789.9302-1.1261.8555s-.9302-.5789-.8555-1.1261c.1279-.9368.1941-1.8931.1941-2.8647 0-1.65685-1.3432-3-3-3-1.6569 0-3.00001 1.34315-3.00001 3 0 2.9356-.84026 5.6658-2.29215 7.9738-.01403.0223-.02772.0447-.04108.0672-.28201.4749-.89557.6312-1.37043.3492-.47485-.2821-.63118-.8956-.34916-1.3705.02206-.0371.04465-.0741.06776-.1108 1.2571-1.9984 1.98506-4.361 1.98506-6.9089zm8.44311 5.0378c.5314.1504.8403.7031.6899 1.2345-.3956 1.3981-.92 2.7426-1.5596 4.0192-.2474.4938-.8482.6936-1.342.4462s-.6936-.8482-.4462-1.342c.5838-1.1653 1.0624-2.3923 1.4234-3.668.1504-.5314.7031-.8403 1.2345-.6899z"/><path d="m7.49926 3.20465c1.3248-.76635 2.86314-1.20465 4.50074-1.20465 4.9705 0 9 4.02944 9 9 0 2.5667-.3584 5.0513-1.0286 7.4057-.1512.5312-.7043.8392-1.2355.6881-.5312-.1512-.8393-.7044-.6881-1.2356.62-2.1781.9522-4.4785.9522-6.8582 0-3.86599-3.134-7-7-7-1.2767 0-2.4707.34086-3.49929.93586-.47806.27655-1.08979.11318-1.36633-.36488-.27655-.47806-.11318-1.08979.36488-1.36633zm-1.92829 2.92974c.47806.27655.64142.88828.36488 1.36634-.59501 1.02858-.93587 2.2226-.93587 3.49927 0 1.7193-.39515 3.3491-1.10052 4.8011-.24133.4968-.83968.7038-1.33644.4625-.49677-.2413-.70384-.8397-.46251-1.3364.57594-1.1856.89947-2.5172.89947-3.9272 0-1.63763.4383-3.17593 1.20466-4.50073.27654-.47806.88827-.64142 1.36633-.36488z"/><path d="m11.9999 10c.5522 0 1 .4477 1 1 0 3.7111-1.065 7.1765-2.9064 10.1037-.29407.4675-.91143.608-1.37891.314-.46748-.2941-.60806-.9115-.31399-1.379 1.6466-2.6176 2.5993-5.7154 2.5993-9.0387 0-.5523.4477-1 1-1z"/></g></svg>