<svg fill="none" height="24" viewBox="0 0 24 24" width="24" xmlns="http://www.w3.org/2000/svg"><path d="m5 2c0-.55228-.44772-1-1-1s-1 .44772-1 1v13.0002c0-.0001 0 0 0 0v6.9998c0 .5523.44772 1 1 1 .55229 0 1-.4477 1-1v-6.4619c.06941-.0345.15123-.0716.24639-.1096.49412-.1977 1.36633-.4285 2.75361-.4285 1.28069 0 2.3605.4212 3.6286.9285l.0557.0223c1.219.4877 2.6223 1.0492 4.3157 1.0492 1.6127 0 2.7405-.2692 3.4964-.5715.377-.1508.6572-.3082.8552-.4402.0988-.0659.1766-.1251.2353-.1734.0412-.0339.0813-.0691.1192-.1067l.001-.0011c.1955-.1955.2931-.4518.2929-.7081v-10.999c0-.25592-.0976-.51184-.2929-.70711-.3832-.38317-.9999-.39038-1.3919-.02163-.008.00654-.0317.02537-.073.05294-.0833.05552-.2406.14814-.4886.24732-.4941.19765-1.3663.42848-2.7536.42848-1.2807 0-2.3605-.42124-3.6286-.92848l-.0557-.02229c-1.219-.48775-2.62225-1.04923-4.3157-1.04923-1.29175 0-2.2724.17269-3 .3968z" fill="#801ed7"/></svg>