<svg fill="none" height="24" viewBox="0 0 24 24" width="24" xmlns="http://www.w3.org/2000/svg"><path clip-rule="evenodd" d="m4.5123 1.5h8.0307c.2524-.00003.4982-.00006.7064.01695.2286.01868.4983.06274.7697.20104.3764.19175.6823.49771.8741.87403.1383.27143.1823.54116.201.76976.017.20815.017.45393.0169.70631v1.65409l5.0617-.00001c.1949-.00005.4036-.0001.5785.01594.1806.01657.4884.06036.7746.26619.3424.24616.5653.62505.6142 1.04387.041.35022-.0702.64051-.1434.80641-.071.16073-.1724.34309-.2671.51344l-1.4313 2.57638 1.4313 2.5764c.0947.1703.1961.3527.2671.5134.0732.1659.1844.4562.1434.8064-.0489.4189-.2718.7977-.6142 1.0439-.2862.2058-.594.2496-.7746.2662-.1749.016-.3835.016-.5784.0159h-7.6603c-.2524.0001-.4982.0001-.7064-.0169-.2285-.0187-.4983-.0628-.7697-.2011-.3763-.1917-.6823-.4977-.874-.874-.1383-.2714-.1824-.5412-.20108-.7697-.017-.2082-.01697-.454-.01694-.7064v-1.654l-4.05255-.0001 2.32824 9.313c.13395.5358-.19181 1.0788-.7276 1.2127-.5358.134-1.07873-.1918-1.21268-.7276l-4.26196-17.04774c-.07699-.30781-.14987-.59918-.18892-.84631-.04174-.26409-.06617-.59237.04096-.939.14457-.46777.4557-.86627.87444-1.11997.3103-.18801.6347-.24393.90103-.26749.24922-.02205.54956-.02202.86686-.02199z" fill="#801ed7" fill-rule="evenodd"/></svg>