<svg fill="none" height="24" viewBox="0 0 24 24" width="24" xmlns="http://www.w3.org/2000/svg"><path clip-rule="evenodd" d="m4.56811 1.5c-.25238-.00003-.49818-.00006-.70633.01695-.2286.01868-.49833.06274-.76975.20104-.37633.19175-.68229.49771-.87404.87403-.12152.23851-.17029.47571-.193.68484-.05537.24296-.02499.50833-.02499.75517v.00903 16.95894c0 .5523.44772 1 1 1 .55229 0 1-.4477 1-1v-9h5.50001l-.00001 1.4319c-.00002.2524-.00005.4982.01695.7063.01868.2286.06275.4984.20104.7698.19175.3763.49771.6823.87401.874.2715.1383.5412.1824.7698.2011.2081.017.4539.0169.7063.0169h7.7317c.1777.0001.3724.0001.5374-.0149.1756-.016.4623-.0582.7363-.2443.3335-.2265.5617-.5778.6333-.9745.0588-.326-.0191-.6051-.0758-.772-.0533-.1569-.1324-.3348-.2046-.4972l-1.3209-2.972 1.2242-2.4484c.0833-.16653.1735-.34685.2356-.50584.0652-.1667.1596-.45177.1096-.79009-.0603-.40816-.2861-.77347-.6242-1.00994-.2802-.19601-.5774-.23906-.7557-.25537-.1699-.01556-.3716-.01551-.5578-.01545h-5.2372v-1.43189c0-.25238.0001-.49818-.0169-.70634-.0187-.2286-.0628-.49833-.2011-.76976-.1917-.37632-.4977-.68228-.874-.87403-.2714-.1383-.5412-.18236-.7698-.20104-.2081-.01701-.4539-.01698-.7063-.01695z" fill="#801ed7" fill-rule="evenodd"/></svg>