<svg fill="none" height="24" viewBox="0 0 24 24" width="24" xmlns="http://www.w3.org/2000/svg"><path d="m3 2.99683c.00081-.25487.09844-.50948.29289-.70394 0 0-.04395.03808.0464-.04406.01997-.01815.04449-.03957.07383-.06373.05871-.04835.1365-.10753.2353-.1734.19798-.13198.47814-.28936.85519-.44018.75588-.30235 1.88367-.57152 3.49639-.57152 1.69345 0 3.0967.56148 4.3157 1.04923l.0557.02229c1.2681.50724 2.3479.92848 3.6286.92848 1.3873 0 2.2595-.23083 2.7536-.42848.248-.09918.4053-.1918.4886-.24732.0413-.02757.065-.0464.073-.05294.392-.36875 1.0087-.36154 1.3919.02163.1953.19527.2929.45119.2929.70711v11.999c.0002.2563-.0974.5126-.2929.7081l-.001.0011c-.0379.0376-.078.0728-.1192.1067-.0587.0483-.1365.1075-.2353.1734-.198.132-.4782.2894-.8552.4402-.7559.3023-1.8837.5715-3.4964.5715-1.6934 0-3.0967-.5615-4.3157-1.0492l-.0557-.0223c-1.2681-.5073-2.34791-.9285-3.6286-.9285-1.38728 0-2.25949.2308-2.75361.4285-.09516.038-.17698.0751-.24639.1096v6.4619c0 .5523-.44771 1-1 1-.55228 0-1-.4477-1-1v-6.9998s0 .0001 0 0v-12.0002c0-.001 0-.00217 0-.00317z" fill="#801ed7"/></svg>