<svg fill="none" height="24" viewBox="0 0 24 24" width="24" xmlns="http://www.w3.org/2000/svg"><path d="m21.0047 2.29095c-.291-.21364-.6072-.25791-.7895-.27463-.1789-.01642-.3931-.01636-.5951-.01631h-15.61537c-.00158-.00001-.00315-.00001-.00473-.00001-.55228 0-1 .44772-1 1v18c0 .5523.44772 1 1 1 .55229 0 1-.4477 1-1v-7h14.6201c.202.0001.4162.0001.5951-.0163.1823-.0167.4985-.061.7895-.2746.3455-.2537.5659-.6431.6057-1.0699.0335-.3594-.0912-.6533-.1707-.8183-.0779-.1618-.1882-.3455-.2921-.5186l-1.9814-3.30229 1.9813-3.30219c.104-.17319.2143-.35689.2922-.51875.0795-.16492.2042-.45887.1707-.81828-.0398-.42678-.2602-.81615-.6057-1.06984z" fill="#801ed7"/></svg>