<svg fill="none" height="24" viewBox="0 0 24 24" width="24" xmlns="http://www.w3.org/2000/svg"><path clip-rule="evenodd" d="m5.56811 2h5.86379c.2524-.00003.4982-.00006.7063.01695.2286.01868.4984.06274.7698.20104.3763.19175.6823.49771.874.87403.1383.27143.1824.54116.2011.76976.0036.04446.0064.09063.0087.13823l5.4401-.00001c.2524-.00003.4982-.00006.7063.01695.2286.01868.4984.06274.7698.20104.3763.19175.6823.49771.874.87403.1383.27143.1824.54116.2011.76975.017.20817.0169.45397.0169.70635v6.86378c0 .2524.0001.4982-.0169.7063-.0187.2286-.0628.4984-.2011.7698-.1917.3763-.4977.6823-.874.874-.2714.1383-.5412.1824-.7698.2011-.2081.017-.4539.0169-.7063.0169h-4.8638c-.2524 0-.4982.0001-.7063-.0169-.2286-.0187-.4984-.0628-.7698-.2011-.3763-.1917-.6823-.4977-.874-.874-.1383-.2714-.1824-.5412-.201-.7698-.0039-.0471-.0069-.0962-.0092-.1468-.1772.0087-.3745.0086-.5759.0086h-6.4319v7c0 .5523-.44771 1-1 1-.55228 0-1-.4477-1-1v-17c0-.07671.00864-.15139.02499-.22314.02271-.20913.07148-.44633.193-.68484.19175-.37632.49771-.68228.87403-.87403.27143-.1383.54116-.18236.76976-.20104.20815-.01701.45395-.01698.70633-.01695z" fill="#801ed7" fill-rule="evenodd"/></svg>