<svg fill="none" height="24" viewBox="0 0 24 24" width="24" xmlns="http://www.w3.org/2000/svg"><path d="m7.70711 5.70711c.39052-.39053.39052-1.02369 0-1.41422-.39053-.39052-1.02369-.39052-1.41422 0l-4 4c-.39052.39053-.39052 1.02369 0 1.41422l4 3.99999c.39053.3905 1.02369.3905 1.41422 0 .39052-.3905.39052-1.0237 0-1.4142l-2.2929-2.2929h11.08579c1.933 0 3.5 1.567 3.5 3.5s-1.567 3.5-3.5 3.5h-4.5c-.5523 0-1 .4477-1 1s.4477 1 1 1h4.5c3.0376 0 5.5-2.4624 5.5-5.5s-2.4624-5.5-5.5-5.5h-11.08579z" fill="#801ed7"/></svg>