<svg fill="none" height="24" viewBox="0 0 24 24" width="24" xmlns="http://www.w3.org/2000/svg"><path d="m17.7071 4.29289c-.3905-.39052-1.0237-.39052-1.4142 0-.3905.39053-.3905 1.02369 0 1.41422l2.2929 2.29289h-11.0858c-3.03757 0-5.5 2.4624-5.5 5.5s2.46243 5.5 5.5 5.5h4.5c.5523 0 1-.4477 1-1s-.4477-1-1-1h-4.5c-1.933 0-3.5-1.567-3.5-3.5s1.567-3.5 3.5-3.5h11.0858l-2.2929 2.2929c-.3905.3905-.3905 1.0237 0 1.4142s1.0237.3905 1.4142 0l4-3.99999c.3905-.39053.3905-1.02369 0-1.41422z" fill="#801ed7"/></svg>