<svg fill="none" height="24" viewBox="0 0 24 24" width="24" xmlns="http://www.w3.org/2000/svg"><path clip-rule="evenodd" d="m1 6.16167v10.07963c-.000011.805-.00002 1.4693.0442 2.0105.04592.5621.14449 1.0788.39178 1.5642.38349.7526.99541 1.3645 1.74806 1.748.48534.2473 1.00204.3459 1.56414.3918.54119.0442 1.20556.0442 2.01052.0442h10.4826c.805 0 1.4693 0 2.0105-.0442.5621-.0459 1.0788-.1445 1.5642-.3918.7526-.3835 1.3645-.9954 1.748-1.748.2473-.4854.3459-1.0021.3918-1.5642.0442-.5412.0442-1.2055.0442-2.0105v-4.4826c0-.805 0-1.4693-.0442-2.01053-.0459-.56209-.1445-1.0788-.3918-1.56413-.3835-.75265-.9954-1.36457-1.748-1.74806-.4854-.2473-1.0021-.34586-1.5642-.39179-.5412-.04421-1.2055-.0442-2.0105-.04419h-3.6234l-.8945-1.78936c-.2648-.53125-.4976-.99843-.8603-1.35368-.3177-.31115-.7006-.54778-1.121-.69278-.4799-.16555-1.00188-.16486-1.59544-.16407l-3.9852.0001c-.52715-.00001-.98191-.00003-1.35648.03057-.39535.03231-.78857.10362-1.16695.29642-.56448.28762-1.02343.74656-1.31105 1.31104-.19279.37838-.26411.7716-.29641 1.16695-.030599.37455-.030585.82937-.03057 1.35648zm9.09-2.1068c-.12062-.04161-.27729-.05465-1.06771-.05465h-3.82229c-.57655 0-.94882.00077-1.23216.02392-.27166.0222-.37238.05988-.42183.08507-.18816.09587-.34114.24885-.43701.43701-.0252.04945-.06287.15017-.08507.42183-.02035.24911-.02341.56696-.02385 1.03195h8.38182l-.3919-.78365c-.3534-.70697-.4352-.84127-.5263-.93055-.1059-.10372-.2336-.1826-.3737-.23093zm1.2485 7.36723c.2542-.1494.553-.204.8436-.1541.2905.0498.5541.2009.7439.4264.1899.2255.2938.511.2934.8058v.0015c0 .2186-.1772.5197-.6789.8542-.2204.1469-.4479.2614-.6243.3398-.0868.0385-.1577.0668-.2045.0847-.0234.0089-.0405.0151-.0504.0186l-.0089.0031c-.5223.1757-.8044.7411-.63 1.2641.1746.524.7409.8071 1.2649.6325l.1363-.0493c.0761-.029.1809-.071.3049-.1261.2452-.109.5797-.2755.9214-.5033.6224-.415 1.5693-1.2378 1.5695-2.5179.0009-.7667-.2695-1.5091-.7633-2.0957-.494-.58686-1.1798-.97995-1.9359-1.10964s-1.5337.0124-2.195.40108c-.66138.38866-1.16384.99886-1.41841 1.72256-.18327.521.0905 1.0919.61149 1.2752.52102.1832 1.09192-.0905 1.27522-.6115.0978-.2781.2909-.5126.545-.662zm.6615 5.3279c-.5523 0-1 .4477-1 1s.4477 1 1 1h.01c.5523 0 1-.4477 1-1s-.4477-1-1-1z" fill="#801ed7" fill-rule="evenodd"/></svg>