<svg fill="none" height="24" viewBox="0 0 24 24" width="24" xmlns="http://www.w3.org/2000/svg"><g fill="#801ed7"><path d="m12.8595 15.7488c-.3054.2547-.6153.4613-.8595.6091-.2442-.1478-.5541-.3544-.8595-.6091-.6969-.5814-1.1405-1.218-1.1405-1.8238v-1.7979l1.5236-.5447c.3076-.1102.6447-.1099.9523.0003l1.5241.5446v1.7977c0 .6058-.4435 1.2424-1.1405 1.8238z"/><path clip-rule="evenodd" d="m1 6.16167v10.07963c-.000011.805-.00002 1.4693.0442 2.0105.04592.5621.14449 1.0788.39178 1.5642.38349.7526.99541 1.3645 1.74806 1.748.48534.2473 1.00204.3459 1.56414.3918.54119.0442 1.20556.0442 2.01052.0442h10.4826c.805 0 1.4693 0 2.0105-.0442.5621-.0459 1.0788-.1445 1.5642-.3918.7526-.3835 1.3645-.9954 1.748-1.748.2473-.4854.3459-1.0021.3918-1.5642.0442-.5412.0442-1.2055.0442-2.0105v-4.4826c0-.805 0-1.4693-.0442-2.01053-.0459-.56209-.1445-1.0788-.3918-1.56413-.3835-.75265-.9954-1.36457-1.748-1.74806-.4854-.2473-1.0021-.34586-1.5642-.39179-.5412-.04421-1.2055-.0442-2.0105-.04419h-3.6234l-.8945-1.78936c-.2648-.53125-.4976-.99843-.8603-1.35368-.3177-.31115-.7006-.54778-1.121-.69278-.4799-.16555-1.00188-.16486-1.59544-.16407l-3.9852.0001c-.52715-.00001-.98191-.00003-1.35648.03057-.39535.03231-.78857.10362-1.16695.29642-.56448.28762-1.02343.74656-1.31105 1.31104-.19279.37838-.26411.7716-.29641 1.16695-.030599.37455-.030585.82937-.03057 1.35648zm9.09-2.1068c-.12062-.04161-.27729-.05465-1.06771-.05465h-3.82229c-.57655 0-.94882.00077-1.23216.02392-.27166.0222-.37238.05988-.42183.08507-.18816.09587-.34114.24885-.43701.43701-.0252.04945-.06287.15017-.08507.42183-.02035.24911-.02341.56696-.02385 1.03195h8.38182l-.3919-.78365c-.3534-.70697-.4352-.84127-.5263-.93055-.1059-.10372-.2336-.1826-.3737-.23093zm5.2465 6.42613-2.1869-.78146c-.7432-.26604-1.5572-.26607-2.3004 0l-2.18585.78146c-.39783.1423-.66335.5192-.66335.9417v2.5023c0 1.539 1.05645 2.6898 1.85946 3.3596.42644.3557.84764.6313 1.15994.8173.1794.1069.3614.2101.5498.3003.2722.1297.5889.13.8611.0003 0 0 .1527-.0637.5503-.3006.3123-.186.7335-.4616 1.1599-.8173.8031-.6698 1.8595-1.8206 1.8595-3.3596v-2.5023c0-.4226-.2656-.7996-.6635-.9417z" fill-rule="evenodd"/></g></svg>