<svg fill="none" height="24" viewBox="0 0 24 24" width="24" xmlns="http://www.w3.org/2000/svg"><path clip-rule="evenodd" d="m1 6.16167v10.07993c-.000011.8049-.00002 1.4693.0442 2.0105.04592.5621.14449 1.0788.39178 1.5641.38349.7527.99541 1.3646 1.74806 1.7481.48534.2473 1.00204.3458 1.56414.3918.54119.0442 1.20556.0442 2.01052.0441h10.4826c.805.0001 1.4693.0001 2.0105-.0441.5621-.046 1.0788-.1445 1.5642-.3918.7526-.3835 1.3645-.9954 1.748-1.7481.2473-.4853.3459-1.002.3918-1.5641.0442-.5412.0442-1.2056.0442-2.0105v-4.4827c0-.8049 0-1.4693-.0442-2.01048-.0459-.5621-.1445-1.0788-.3918-1.56414-.3835-.75265-.9954-1.36457-1.748-1.74806-.4854-.24729-1.0021-.34586-1.5642-.39178-.5412-.04422-1.2055-.04421-2.0105-.0442h-3.6232l-.8947-1.7896c-.2648-.53125-.4976-.99843-.8603-1.35368-.3177-.31115-.7006-.54778-1.121-.69278-.4799-.16555-1.00188-.16486-1.59544-.16407l-3.9852.0001c-.52715-.00001-.98191-.00003-1.35648.03057-.39535.03231-.78857.10362-1.16695.29642-.56448.28762-1.02343.74656-1.31105 1.31104-.19279.37838-.26411.7716-.29641 1.16695-.030599.37455-.030585.82937-.03057 1.35648zm9.7071 6.04573c.3905-.3906.3905-1.0237 0-1.4143-.3905-.3905-1.02368-.3905-1.41421 0l-2.5 2.5c-.39052.3906-.39052 1.0237 0 1.4143l2.5 2.5c.39053.3905 1.02371.3905 1.41421 0 .3905-.3906.3905-1.0237 0-1.4143l-1.79289-1.7929zm4-1.4143c-.3905-.3905-1.0237-.3905-1.4142 0-.3905.3906-.3905 1.0237 0 1.4143l1.7929 1.7928-1.7929 1.7929c-.3905.3906-.3905 1.0237 0 1.4143.3905.3905 1.0237.3905 1.4142 0l2.5-2.5c.3905-.3906.3905-1.0237 0-1.4143z" fill="#801ed7" fill-rule="evenodd"/></svg>