<svg fill="none" height="24" viewBox="0 0 24 24" width="24" xmlns="http://www.w3.org/2000/svg"><path clip-rule="evenodd" d="m1 6.16167c-.000016-.52713-.000031-.98192.03057-1.35648.0323-.39535.10362-.78857.29641-1.16695.28762-.56448.74656-1.02342 1.31105-1.31104.37838-.1928.7716-.26411 1.16694-.29642.37458-.0306.82934-.03058 1.35648-.03057l3.98521-.0001c.59356-.00079 1.11554-.00148 1.59544.16407.4204.145.8033.38163 1.121.69278.3627.35525.5955.82243.8603 1.35368l.8945 1.78936h3.6234c.805-.00001 1.4693-.00002 2.0105.04419.5621.04593 1.0788.14449 1.5642.39179.7526.38349 1.3645.99541 1.748 1.74806.2473.48533.3459 1.00204.3918 1.56413.0442.54123.0442 1.20553.0442 2.01053v4.4826c0 .805 0 1.4693-.0442 2.0105-.0459.5621-.1445 1.0788-.3918 1.5642-.3835.7526-.9954 1.3645-1.748 1.748-.4854.2473-1.0021.3459-1.5642.3918-.5412.0442-1.2055.0442-2.0105.0442h-10.48257c-.80497 0-1.46936 0-2.01055-.0442-.5621-.0459-1.0788-.1445-1.56414-.3918-.75265-.3835-1.36457-.9954-1.74806-1.748-.2473-.4854-.34586-1.0021-.39178-1.5642-.044222-.5412-.044212-1.2055-.0442-2.0105zm8.02229-2.16145c.79042 0 .94709.01304 1.06771.05465.1401.04833.2678.12721.3737.23093.0911.08928.1729.22358.5263.93055l.3919.78365h-8.38183c.00045-.46499.00351-.78284.02386-1.03195.0222-.27166.05987-.37238.08507-.42183.09587-.18816.24885-.34114.43701-.43701.04945-.02519.15017-.06287.42183-.08507.28334-.02315.65561-.02392 1.23216-.02392z" fill="#801ed7" fill-rule="evenodd"/></svg>