<svg fill="none" height="24" viewBox="0 0 24 24" width="24" xmlns="http://www.w3.org/2000/svg"><path clip-rule="evenodd" d="m5.00003.5c-.40446 0-.7691.243642-.92388.61732-.15478.37367-.06923.80379.21677 1.08979l5.2929 5.29289h-4.58579c-.55229 0-1 .44772-1 1v7c0 .2694.10656.514.27983.6938.00421.0045.00856.009.01305.0135l6.99999 7c.286.286.7161.3716 1.0898.2168s.6173-.5194.6173-.9239v-6l6-.0002c.4045 0 .7691-.2436.9239-.6173s.0692-.8038-.2168-1.0898l-5.2929-5.2929h4.5858c.5523 0 1-.44772 1-1v-7c0-.552285-.4477-1-1-1zm5.99997 16h-3.58596l3.58596 3.586zm7-9h-5.5858l-4.99996-5h10.58576zm-11.99997 2h5.58577l5 5h-10.58577z" fill="#801ed7" fill-rule="evenodd"/></svg>