<svg fill="none" height="24" viewBox="0 0 24 24" width="24" xmlns="http://www.w3.org/2000/svg"><path clip-rule="evenodd" d="m13.593 4h-3.1861c-1.27685-.00001-2.29415-.00001-3.11873.0653-.84581.067-1.56956.20712-2.2416.53162-1.08841.52556-1.99273 1.36759-2.5945 2.41579-.37156.64721-.56289 1.35913-.68997 2.19802-.1239.81787-.19638 1.83257-.28734 3.10617l-.24903 3.4864c-.16198 2.2677 1.63411 4.1967 3.90767 4.1967 1.16267 0 2.26528-.5164 3.0096-1.4096l.37516-.4502c.36541-.4385.47523-.565.59023-.6629.27305-.2325.60359-.3873.95701-.4482.1489-.0257.3163-.0291.8871-.0291h2.0949c.5708 0 .7382.0034.8871.0291.3534.0609.6839.2157.957.4482.115.0979.2248.2244.5902.6629l.3752.4502c.7443.8932 1.8469 1.4096 3.0096 1.4096 2.2735 0 4.0696-1.929 3.9077-4.1967l-.2491-3.4865c-.0909-1.2735-.1634-2.2882-.2873-3.10607-.1271-.83889-.3184-1.55081-.69-2.19802-.6018-1.0482-1.5061-1.89023-2.5945-2.41579-.672-.3245-1.3958-.46462-2.2416-.53162-.8246-.06531-1.8419-.06531-3.1187-.0653zm-4.593 5c0-.55228-.44772-1-1-1s-1 .44772-1 1v1h-1c-.55228 0-1 .4477-1 1s.44772 1 1 1h1v1c0 .5523.44772 1 1 1s1-.4477 1-1v-1h1c.5523 0 1-.4477 1-1s-.4477-1-1-1h-1zm5 3c0-.5523.4477-1 1-1h.01c.5523 0 1 .4477 1 1s-.4477 1-1 1h-.01c-.5523 0-1-.4477-1-1zm3-2c0-.55228.4477-1 1-1h.01c.5523 0 1 .44772 1 1 0 .5523-.4477 1-1 1h-.01c-.5523 0-1-.4477-1-1z" fill="#801ed7" fill-rule="evenodd"/></svg>