<svg fill="none" height="24" viewBox="0 0 24 24" width="24" xmlns="http://www.w3.org/2000/svg"><g fill="#801ed7"><path clip-rule="evenodd" d="m12 4.13142c-.0201-.03773-.0405-.07552-.0613-.11334-.746-1.35642-2.1326-3.01808-4.4387-3.01808-.92826 0-1.8185.36875-2.47487 1.02513-.65638.65637-1.02513 1.54661-1.02513 2.47487 0 .52589.11836 1.03959.34032 1.50546-.19328.00424-.37195.01176-.53534.02511-.39535.0323-.78857.10362-1.16695.29641-.56448.28762-1.02343.74656-1.31105 1.31105-.19279.37838-.26411.7716-.29641 1.16694-.030598.37455-.030585.82931-.03057 1.35643v2.0386c0 .28 0 .42.0545.527.04793.0941.12442.1706.21851.2185.10695.0545.24696.0545.52699.0545h9.2v-4.2c0-.28003 0-.42004.0545-.527.0479-.09408.1244-.17057.2185-.2185.107-.0545.247-.0545.527-.0545h.4c.28 0 .42 0 .527.0545.0941.04793.1706.12442.2185.2185.0545.10696.0545.24697.0545.527v4.2h9.2c.28 0 .42 0 .527-.0545.0941-.0479.1706-.1244.2185-.2185.0545-.107.0545-.247.0545-.527v-2.0386c0-.5271 0-.98186-.0306-1.35642-.0323-.39535-.1036-.78857-.2964-1.16695-.2876-.56448-.7465-1.02342-1.311-1.31104-.3784-.1928-.7716-.26411-1.167-.29642-.1634-.01335-.342-.02087-.5353-.02511.222-.46587.3403-.97957.3403-1.50546 0-.92826-.3687-1.8185-1.0251-2.47487-.6564-.65638-1.5466-1.02513-2.4749-1.02513-2.3061 0-3.6927 1.66166-4.4387 3.01808-.0208.03782-.0412.07561-.0613.11334zm-5.56066-.69208c.2813-.2813.66284-.43934 1.06066-.43934 1.1939 0 2.05732.83834 2.6863 1.98192.1911.3475.3456.69869.4677 1.01808h-3.154c-.39782 0-.77936-.15804-1.06066-.43934s-.43934-.66284-.43934-1.06066.15804-.77936.43934-1.06066zm10.06066 2.56066h-3.154c.1221-.31939.2766-.67058.4677-1.01808.629-1.14358 1.4924-1.98192 2.6863-1.98192.3978 0 .7794.15804 1.0607.43934s.4393.66284.4393 1.06066-.158.77936-.4393 1.06066-.6629.43934-1.0607.43934z" fill-rule="evenodd"/><path d="m1.8 15c-.28003 0-.42004 0-.52699.0545-.09409.0479-.17058.1244-.21851.2185-.0545.107-.0545.247-.0545.527v3.0385c-.000015.5271-.000028.982.03057 1.3565.0323.3954.10362.7886.29641 1.167.28762.5645.74657 1.0234 1.31105 1.311.37838.1928.7716.2641 1.16695.2964.37456.0306.82932.0306 1.35646.0306h13.67716c.5271 0 .9819 0 1.3564-.0306.3954-.0323.7886-.1036 1.167-.2964.5645-.2876 1.0234-.7465 1.311-1.311.1928-.3784.2641-.7716.2964-1.167.0306-.3745.0306-.8293.0306-1.3564v-3.0386c0-.28 0-.42-.0545-.527-.0479-.0941-.1244-.1706-.2185-.2185-.107-.0545-.247-.0545-.527-.0545h-9.2v5.2c0 .28 0 .42-.0545.527-.0479.0941-.1244.1706-.2185.2185-.107.0545-.247.0545-.527.0545h-.4c-.28 0-.42 0-.527-.0545-.0941-.0479-.1706-.1244-.2185-.2185-.0545-.107-.0545-.247-.0545-.527v-5.2z"/></g></svg>