<svg fill="none" height="24" viewBox="0 0 24 24" width="24" xmlns="http://www.w3.org/2000/svg"><g fill="#801ed7"><path clip-rule="evenodd" d="m5.66953 5c-.11132-.31867-.16953-.65661-.16953-1 0-.78989.30801-1.55098.86188-2.11492.55447-.56455 1.31036-.88508 2.10241-.88508 1.79471 0 2.90821 1.21846 3.53571 2.27224.6275-1.05378 1.741-2.27224 3.5357-2.27224.7921 0 1.548.32053 2.1024.88508.5539.56394.8619 1.32503.8619 2.11492 0 .34339-.0582.68133-.1695 1h2.196c.21-.00002.4147-.00004.5887.01184.1904.01299.4161.04346.6502.14041.49.20299.8794.59233 1.0824 1.08239.0969.23404.1274.45977.1404.65014.0119.17398.0118.37864.0118.58855v.05335c0 .2099.0001.41458-.0118.58855-.013.19037-.0435.4161-.1404.65014-.203.49006-.5924.87941-1.0824 1.08239-.2341.09695-.4598.12742-.6502.14041-.174.01183-.3786.01183-.5887.01183h-17.05297c-.21005 0-.41467 0-.58875-.01183-.19037-.01299-.4161-.04346-.65014-.14041-.49006-.20298-.8794-.59233-1.08239-1.08239-.09695-.23404-.12742-.45977-.14041-.65014-.011871-.17402-.011855-.37864-.01184-.5886v-.05319c-.000015-.20996-.000031-.41464.01184-.58866.01299-.19037.04346-.4161.14041-.65014.20299-.49006.59233-.8794 1.08239-1.08239.23404-.09695.45977-.12742.65014-.14041.17404-.01187.37877-.01186.58876-.01184zm2.79476-2c-.24987 0-.49323.1009-.67551.28649-.18289.18621-.28878.44254-.28878.71351s.10589.5273.28878.71351c.18228.18559.42564.28649.67551.28649h2.17001c-.0724-.17135-.1557-.34884-.2507-.52473-.48591-.89946-1.10963-1.47527-1.91931-1.47527zm4.90151 2c.0723-.17135.1556-.34884.2507-.52473.4858-.89946 1.1095-1.47527 1.9192-1.47527.2499 0 .4933.1009.6755.28649.1829.18621.2888.44254.2888.71351s-.1059.5273-.2888.71351c-.1822.18559-.4256.28649-.6755.28649z" fill-rule="evenodd"/><path d="m3.00001 13c0-.5523.44771-1 1-1h6.19999c.28 0 .42 0 .527.0545.0941.0479.1706.1244.2185.2185.0545.107.0545.247.0545.527v9.4c0 .28 0 .42-.0545.527-.0479.0941-.1244.1706-.2185.2185-.107.0545-.247.0545-.527.0545h-3.03864c-.52704 0-.98187 0-1.35638-.0306-.39535-.0323-.78857-.1036-1.16695-.2964-.56448-.2876-1.02342-.7465-1.31104-1.311-.1928-.3784-.26411-.7716-.29641-1.167-.03061-.3745-.03059-.8293-.03057-1.3565z"/><path d="m18.195 22.9694c-.3745.0306-.8293.0306-1.3565.0306h-3.0385c-.28 0-.42 0-.527-.0545-.0941-.0479-.1706-.1244-.2185-.2185-.0545-.107-.0545-.247-.0545-.527v-9.4c0-.28 0-.42.0545-.527.0479-.0941.1244-.1706.2185-.2185.107-.0545.247-.0545.527-.0545h6.2c.5523 0 1 .4477 1 1v5.8386c0 .5271 0 .9819-.0306 1.3564-.0323.3954-.1036.7886-.2964 1.167-.2876.5645-.7465 1.0234-1.311 1.311-.3784.1928-.7716.2641-1.167.2964z"/></g></svg>