<svg fill="none" height="24" viewBox="0 0 24 24" width="24" xmlns="http://www.w3.org/2000/svg"><path clip-rule="evenodd" d="m4 3c0-.55228-.44771-1-1-1-.55228 0-1 .44772-1 1v10.2413c-.00001.805-.00002 1.4693.0442 2.0105.04592.5621.14448 1.0788.39178 1.5642.38349.7526.99541 1.3645 1.74806 1.748.48533.2473 1.00204.3459 1.56414.3918.54119.0442 1.20554.0442 2.0105.0442h6.36732c.4441 1.7252 2.0102 3 3.874 3 2.2091 0 4-1.7909 4-4s-1.7909-4-4-4c-1.8638 0-3.4299 1.2748-3.874 3h-6.326c-.85658 0-1.43887-.0008-1.88896-.0376-.43842-.0358-.66262-.1007-.81902-.1804-.37632-.1917-.68228-.4977-.87403-.874-.07969-.1564-.14462-.3806-.18044-.819-.03677-.4501-.03755-1.0324-.03755-1.889v-4.2h10.126c.4441 1.7252 2.0102 3 3.874 3 2.2091 0 4-1.7909 4-4 0-2.20914-1.7909-4-4-4-1.8638 0-3.4299 1.27477-3.874 3h-10.126z" fill="#801ed7" fill-rule="evenodd"/></svg>