<svg fill="none" height="24" viewBox="0 0 24 24" width="24" xmlns="http://www.w3.org/2000/svg"><g clip-rule="evenodd" fill="#801ed7" fill-rule="evenodd"><path d="m7 9.87398c1.72523-.44404 3-2.01014 3-3.87398 0-2.20914-1.79086-4-4-4s-4 1.79086-4 4c0 1.86384 1.27477 3.42994 3 3.87398v11.12602c0 .5523.44772 1 1 1s1-.4477 1-1z"/><path d="m14 18c0-1.8638 1.2748-3.4299 3-3.874v-6.126c0-.26522-.1054-.51957-.2929-.70711-.1875-.18753-.4419-.29289-.7071-.29289h-3c-.5523 0-1-.44772-1-1s.4477-1 1-1h3c.7956 0 1.5587.31607 2.1213.87868s.8787 1.32567.8787 2.12132v6.126c1.7252.4441 3 2.0102 3 3.874 0 2.2091-1.7909 4-4 4s-4-1.7909-4-4z"/></g></svg>