<svg fill="none" height="24" viewBox="0 0 24 24" width="24" xmlns="http://www.w3.org/2000/svg"><path clip-rule="evenodd" d="m7 3c0-.55228-.44772-1-1-1s-1 .44772-1 1v11.126c-1.72523.4441-3 2.0102-3 3.874 0 2.2091 1.79086 4 4 4 1.8779 0 3.45354-1.2941 3.88383-3.0391 2.32817-.2065 4.52137-1.2239 6.18727-2.8898s2.6833-3.8591 2.8898-6.18727c1.745-.43029 3.0391-2.00593 3.0391-3.88383 0-2.20914-1.7909-4-4-4s-4 1.79086-4 4c0 1.84705 1.2519 3.4017 2.9535 3.86171-.1955 1.80489-1.0009 3.49939-2.2966 4.79519-1.2958 1.2957-2.9903 2.1011-4.79519 2.2966-.37402-1.3835-1.47165-2.4697-2.86171-2.8275z" fill="#801ed7" fill-rule="evenodd"/></svg>