<svg fill="none" height="24" viewBox="0 0 24 24" width="24" xmlns="http://www.w3.org/2000/svg"><path clip-rule="evenodd" d="m7.04652 9.86171c1.70157-.46001 2.95348-2.01466 2.95348-3.86171 0-2.20914-1.79086-4-4-4s-4 1.79086-4 4c0 1.86384 1.27477 3.42994 3 3.87398v11.12602c0 .5523.44772 1 1 1s1-.4477 1-1v-5.9999c.28228.3763.59237.7344.92893 1.071 1.6659 1.6659 3.85907 2.6833 6.18727 2.8898.4303 1.745 2.0059 3.0391 3.8838 3.0391 2.2091 0 4-1.7909 4-4s-1.7909-4-4-4c-1.847 0-3.4017 1.2519-3.8617 2.9535-1.8049-.1955-3.4994-1.0009-4.79515-2.2966-1.29578-1.2958-2.10114-2.9903-2.29663-4.79519z" fill="#801ed7" fill-rule="evenodd"/></svg>