<svg fill="none" height="24" viewBox="0 0 24 24" width="24" xmlns="http://www.w3.org/2000/svg"><path d="m2.46446 8.46446c1.95262-1.95262 5.11845-1.95261 7.07107 0 .50537.50538.87997 1.09202 1.12377 1.71784.8762-.2431 1.8052-.24307 2.6814.0001.2438-.62588.6184-1.21254 1.1238-1.71794 1.9526-1.95262 5.1184-1.95261 7.071 0 1.9527 1.95264 1.9526 5.11844 0 7.07104-1.9526 1.9527-5.1184 1.9527-7.071 0-.9327-.9326-1.4198-2.142-1.4616-3.3638-.6473-.2289-1.3585-.2289-2.0058-.0001-.0417 1.2218-.5289 2.4313-1.46156 3.3639-1.95262 1.9527-5.11845 1.9527-7.07108 0-1.952616-1.9526-1.952613-5.1184 0-7.07104z" fill="#801ed7"/></svg>