<svg fill="none" height="24" viewBox="0 0 24 24" width="24" xmlns="http://www.w3.org/2000/svg"><path clip-rule="evenodd" d="m5.96091 4c.01287.00001.02592.00001.03916.00001.55229 0 1 .44771 1 1 0 .55228-.44771 1-1 1-.28538 0-.37188.00074-.43933.00596-.90821.07028-1.65419.74538-1.81449 1.64209-.01191.0666-.02125.1526-.04965.43656l-.26225 2.62248c1.92057-1.1498 4.44654-.89734 6.10126.7574.50539.5053.87999 1.092 1.12369 1.7179.8763-.2432 1.8053-.2432 2.6815 0 .2438-.6259.6184-1.2125 1.1237-1.7179 1.6548-1.65474 4.1807-1.9072 6.1013-.7574l-.2623-2.62248c-.0283-.28395-.0377-.36996-.0496-.43656-.1603-.89671-.9063-1.57181-1.8145-1.64209-.0674-.00522-.1539-.00596-.4393-.00596-.5523 0-1-.44772-1-1 0-.55229.4477-1 1-1l.0391-.00001c.2292-.00003.3996-.00006.5545.01193 1.8164.14055 3.3084 1.49077 3.629 3.28419.0273.15299.0443.32249.067.55058l.621 6.2094c.0588.3076.0886.6196.0894.9317.0001.0092.0001.0183 0 .0274-.0039 1.2745-.492 2.5479-1.4645 3.5203-1.9526 1.9527-5.1184 1.9527-7.0711 0-.9326-.9326-1.4198-2.142-1.4615-3.3638-.6474-.2289-1.3585-.2289-2.0059-.0001-.0417 1.2218-.5288 2.4313-1.46149 3.3639-1.95262 1.9527-5.11844 1.9527-7.07107 0-.97244-.9724-1.46059-2.2457-1.46444-3.5203-.00013-.0091-.000133-.0182-.00001-.0274.00076-.3121.03056-.6241.08939-.9317l.61705-6.17048c.00131-.01318.00261-.02617.00389-.03897.02277-.22806.03969-.39754.06704-.55053.32059-1.79342 1.81256-3.14364 3.62898-3.28419.15495-.01199.32527-.01196.55447-.01193z" fill="#801ed7" fill-rule="evenodd"/></svg>