<svg fill="none" height="24" viewBox="0 0 24 24" width="24" xmlns="http://www.w3.org/2000/svg"><g clip-rule="evenodd" fill="#801ed7" fill-rule="evenodd"><path d="m9.59235 3.32566c.76635-.21225 1.57375-.32566 2.40765-.32566 1.962 0 3.7773.62779 5.2561 1.69345-.7868.52004-1.3737 1.08474-1.7805 1.68848-.6216.92252-.7809 1.87651-.6522 2.74694.125.84529.5132 1.56713.9212 2.10123.3956.5178.881.9509 1.3085 1.1645 1.0763.5381 2.3183.8076 3.2468.9464.84.1257 2.6207.5461 2.6866-.7918.009-.182.0135-.3651.0135-.5492 0-6.07513-4.9249-11-11-11-6.07513 0-11 4.92487-11 11 0 6.0751 4.92487 11 11 11 .1841 0 .3672-.0045.5492-.0135.5516-.0272.9768-.4963.9496-1.048-.0272-.5516-.4964-.9767-1.048-.9496-.1493.0074-.2996.0111-.4508.0111-3.50937 0-6.54962-2.0086-8.03381-4.9389l.96855-.5591 3.57271.6686c.92564.1733 1.78015-.5393 1.77595-1.481l-.014-3.1531 1.8258-3.12599c.2959-.50647.2694-1.1389-.0678-1.61884z"/><path d="m13.9456 12.6561c-.3679-.1396-.7835-.0504-1.0617.2279-.2783.2783-.3675.6938-.2279 1.0618l3.1668 8.3487c.1462.3855.5139.6417.9261.6454.4122.0036.7844-.2461.9374-.6288l1.3207-3.304 3.304-1.3206c.3827-.1531.6324-.5253.6287-.9375-.0036-.4122-.2598-.7799-.6453-.9261z"/></g></svg>