<svg fill="none" height="24" viewBox="0 0 24 24" width="24" xmlns="http://www.w3.org/2000/svg"><path clip-rule="evenodd" d="m12 1c1.0396 0 2.047.14449 3.0024.415.6118-.26694 1.2874-.415 1.9976-.415 2.7614 0 5 2.23858 5 5 0 .39056-.0488.76545-.1365 1.12564.7278 1.47009 1.1365 3.12576 1.1365 4.87436 0 6.0751-4.9249 11-11 11-6.07513 0-11-4.9249-11-11 0-.4179.02331-.8304.06869-1.2362.00109-.0114.00238-.0227.00385-.034.62971-5.47681 5.28192-9.7298 10.92746-9.7298zm-8.71593 8.74793c.99982-3.88071 4.52304-6.74793 8.71593-6.74793.3252 0 .6461.01721.962.05073-.6049.8268-.962 1.84633-.962 2.94927 0 1.42161.6468 2.63566 1.4577 3.68859.6746.87591 1.5379 1.73151 2.3711 2.55721.1562.1548.3114.3086.4641.4613.3905.3905 1.0237.3905 1.4142 0 .1527-.1527.3079-.3065.4641-.4613.8332-.8257 1.6965-1.6813 2.3711-2.55721.0391-.05083.0779-.10204.1162-.15363.2224.78284.3415 1.60954.3415 2.46504 0 4.9706-4.0294 9-9 9-.1677 0-.3344-.0046-.4999-.0136v-1.1167l2.3655-2.7597c.6128-.715.4229-1.8113-.3947-2.2786l-2.7377-1.5644-1.79421-3.1442c-.2907-.50943-.85165-.80269-1.43588-.75065zm13.71593-5.24793c-.6904 0-1.25.55964-1.25 1.25s.5596 1.25 1.25 1.25 1.25-.55964 1.25-1.25-.5596-1.25-1.25-1.25z" fill="#801ed7" fill-rule="evenodd"/></svg>