<svg fill="none" height="24" viewBox="0 0 24 24" width="24" xmlns="http://www.w3.org/2000/svg"><path clip-rule="evenodd" d="m12 1c6.0751 0 11 4.92487 11 11 0 6.0751-4.9249 11-11 11-6.07513 0-11-4.9249-11-11 0-6.07513 4.92487-11 11-11zm-8.94507 10c.41308-3.73676 3.11388-6.78403 6.67078-7.71017-1.52661 2.29459-2.45141 4.94698-2.67562 7.71017zm0 2c.41308 3.7368 3.11388 6.784 6.67078 7.7102-1.52661-2.2946-2.45141-4.947-2.67562-7.7102zm11.21937 7.7102c3.5569-.9262 6.2577-3.9734 6.6708-7.7102h-3.9952c-.2242 2.7632-1.149 5.4156-2.6756 7.7102zm6.6708-9.7102h-3.9952c-.2242-2.76319-1.149-5.41558-2.6756-7.71017 3.5569.92614 6.2577 3.97341 6.6708 7.71017zm-8.9451-7.4492c1.6697 2.15113 2.6912 4.73603 2.9424 7.4492h-5.88481c.2512-2.71317 1.27271-5.29807 2.94241-7.4492zm0 16.8984c-1.6697-2.1511-2.69121-4.736-2.94241-7.4492h5.88481c-.2512 2.7132-1.2727 5.2981-2.9424 7.4492z" fill="#801ed7" fill-rule="evenodd"/></svg>