<svg fill="none" height="24" viewBox="0 0 24 24" width="24" xmlns="http://www.w3.org/2000/svg"><path clip-rule="evenodd" d="m17.5104 2.07561c.3905-.39053 1.0237-.39053 1.4142 0 4.1005 4.1005 4.1005 10.74869 0 14.84919-1.6677 1.6678-3.7568 2.6572-5.9246 2.9684v1.1068h4c.5523 0 1 .4477 1 1s-.4477 1-1 1h-10c-.55228 0-1-.4477-1-1s.44772-1 1-1h4v-1.0116c-2.20589-.1045-4.38511-.9011-6.18435-2.3897l-1.44741 1.4474c-.39052.3905-1.02369.3905-1.41421 0-.39053-.3905-.39053-1.0237 0-1.4142l3.93963-3.9397c-.87524-1.1686-1.39366-2.6198-1.39366-4.1922 0-3.86599 3.13401-7 7-7 3.866 0 7 3.13401 7 7 0 3.866-3.134 7-7 7-1.57231 0-3.02354-.5184-4.19211-1.3936l-1.07011 1.0701c3.3362 2.6364 8.19232 2.4144 11.27262-.6659 3.3194-3.3194 3.3194-8.70132 0-12.02078-.3905-.39052-.3905-1.02369 0-1.41421z" fill="#801ed7" fill-rule="evenodd"/></svg>