<svg fill="none" height="24" viewBox="0 0 24 24" width="24" xmlns="http://www.w3.org/2000/svg"><path clip-rule="evenodd" d="m12 23c6.0751 0 11-4.9249 11-11 0-6.07513-4.9249-11-11-11-6.07513 0-11 4.92487-11 11 0 6.0751 4.92487 11 11 11zm2.2743-19.71017c.9635 1.44823 1.6873 3.03898 2.1465 4.71017h3.6437c-1.1453-2.30456-3.2493-4.04858-5.7902-4.71017zm-2.2743.26097c1.0397 1.33947 1.828 2.84712 2.3356 4.4492h-4.67121c.50761-1.60208 1.29591-3.10973 2.33561-4.4492zm2.9998 8.4492c-.015-.6737-.0775-1.3419-.1857-2h-5.62822c-.10815.6581-.17063 1.3263-.18565 2 .01502.6737.0775 1.3419.18565 2h5.62822c.1082-.6581.1707-1.3263.1857-2zm-.6642 4h-4.67121c.50761 1.6021 1.29591 3.1097 2.33561 4.4492 1.0397-1.3395 1.828-2.8471 2.3356-4.4492zm-7.1732-2c-.09381-.6528-.14832-1.3137-.16218-1.9792-.00029-.0139-.00029-.0277 0-.0416.01386-.6655.06837-1.3264.16218-1.9792h-3.93938c-.14596.6432-.22302 1.3126-.22302 2s.07706 1.3568.22302 2zm-3.22688 2h3.64366c.45923 1.6712 1.18301 3.2619 2.14653 4.7102-2.5409-.6616-4.64492-2.4056-5.79019-4.7102zm12.48528 0h3.6437c-1.1453 2.3046-3.2493 4.0486-5.7902 4.7102.9635-1.4483 1.6873-3.039 2.1465-4.7102zm4.3562-2h-3.9394c.0938-.6528.1483-1.3137.1622-1.9792.0003-.0139.0003-.0277 0-.0416-.0139-.6655-.0684-1.3264-.1622-1.9792h3.9394c.1459.6432.223 1.3126.223 2s-.0771 1.3568-.223 2zm-11.05129-10.71017c-.96352 1.44823-1.68731 3.03898-2.14653 4.71017h-3.64366c1.14527-2.30456 3.24929-4.04858 5.79019-4.71017z" fill="#801ed7" fill-rule="evenodd"/></svg>