<svg fill="none" height="24" viewBox="0 0 24 24" width="24" xmlns="http://www.w3.org/2000/svg"><path clip-rule="evenodd" d="m23 12c0-6.07464-4.9241-10.9992-10.9985-11h-.0038c-6.07406.00123-10.9977 4.92562-10.9977 11 0 6.0751 4.92487 11 11 11 6.0751 0 11-4.9249 11-11zm-19.56062-2.7856c.88773-2.73 3.04502-4.88729 5.77501-5.77501-.53172.80048-.94214 1.6835-1.25591 2.59446-.16807.48797-.31011.9886-.42912 1.49551-.50691.11901-1.00754.26105-1.49551.42912-.91096.31377-1.79398.72419-2.59447 1.25592zm0 5.5712c.88773 2.73 3.04502 4.8873 5.77502 5.775-.53173-.8005-.94214-1.6835-1.25591-2.5944-.16808-.488-.31012-.9887-.42913-1.4956-.50691-.119-1.00754-.261-1.49551-.4291-.91096-.3138-1.79398-.7242-2.59447-1.2559zm6.25901 2.0603c.04757.1581.09789.3145.15107.4689.48334 1.4033 1.18424 2.5893 2.15054 3.4294.9663-.8401 1.6672-2.0261 2.1505-3.4294.0532-.1544.1035-.3108.1511-.4689-.7739.0907-1.5415.1385-2.2808.1539-.0139.0003-.0277.0003-.0416 0-.7393-.0154-1.5069-.0632-2.28081-.1539zm5.06661-2.0809c-.9182.1422-1.8545.215-2.765.2348-.9105-.0198-1.8468-.0926-2.76498-.2348-.14226-.9182-.21502-1.8545-.23479-2.765.01977-.9105.09253-1.8468.23479-2.76498.91818-.14226 1.85448-.21503 2.76498-.23479.9105.01976 1.8468.09253 2.765.23479.1422.91818.215 1.85448.2348 2.76498-.0198.9105-.0926 1.8468-.2348 2.765zm1.7056 1.7056c-.119.5069-.261 1.0076-.4291 1.4955-.3138.911-.7242 1.794-1.2559 2.5945 2.73-.8877 4.8873-3.045 5.775-5.775-.8005.5317-1.6835.9421-2.5944 1.2559-.488.1681-.9886.3101-1.4956.4291zm4.09-7.2562c-.8877-2.73-3.045-4.88728-5.775-5.77501.5317.80048.9421 1.6835 1.2559 2.59446.1681.48797.3101.9886.4291 1.49551.507.11901 1.0076.26105 1.4956.42912.9109.31377 1.7939.72419 2.5944 1.25592zm-3.7147.48399c.1581.04757.3145.09789.4689.15106 1.4033.48335 2.5893 1.18425 3.4294 2.15055-.8401.9663-2.0261 1.6672-3.4294 2.1505-.1544.0532-.3108.1035-.4689.1511.0907-.7739.1385-1.5415.1539-2.2808.0003-.0139.0003-.0277 0-.0416-.0154-.7393-.0632-1.5069-.1539-2.28081zm-2.5443-2.54427c-.0476-.15815-.0979-.31455-.1511-.46895-.4833-1.40328-1.1842-2.5893-2.1505-3.42934-.9663.84004-1.6672 2.02607-2.15055 3.42935-.05317.15439-.1035.31079-.15106.46894.77391-.09068 1.54151-.1385 2.28081-.1539.0139-.00029.0277-.00029.0416 0 .7393.0154 1.5069.06322 2.2808.1539zm-7.14748 2.54427c-.09068.77391-.1385 1.54151-.1539 2.28081-.00029.0139-.00029.0277 0 .0416.0154.7393.06322 1.5069.1539 2.2808-.15815-.0476-.31455-.0979-.46894-.1511-1.40328-.4833-2.58931-1.1842-3.42935-2.1505.84004-.9663 2.02607-1.6672 3.42935-2.15055.15439-.05318.31079-.1035.46894-.15106z" fill="#801ed7" fill-rule="evenodd"/></svg>