<svg fill="none" height="24" viewBox="0 0 24 24" width="24" xmlns="http://www.w3.org/2000/svg"><g fill="#801ed7"><path d="m13.8939 12.5808 2.6403 1.1316c.13.0556.2801.1199.4055.1871.1411.0756.3469.203.5142.4278.2116.2843.3157.6344.2938.9882-.0173.2796-.1201.4988-.1971.6392-.0683.1248-.1589.2606-.2374.3782-.4907.7363-.9322 1.7537-1.6284 2.3259-.1523.1252-.3278.2192-.5165.2765-.8722.2649-2.4607.3131-3.3569-.0394-.2337-.0919-.4406-.241-.6017-.4336-.6045-.723-.765-1.9654-1.0536-2.8317l-.0077-.0227c-.0284-.0833-.087-.2552-.103-.4405-.0136-.1568-.0023-.3148.0333-.4681.1475-.6356.5581-1.2992.8877-1.849.0687-.1147.1751-.2693.3455-.4066.224-.1806.4952-.293.7813-.3237.2176-.0233.4021.0108.5318.0433.426.1066.8666.2451 1.2689.4175z"/><path clip-rule="evenodd" d="m12 1c-6.07513 0-11 4.92487-11 11 0 6.0751 4.92487 11 11 11 6.0751 0 11-4.9249 11-11 0-6.07513-4.9249-11-11-11zm-8.49447 8.01869c-.32745.93305-.50553 1.93641-.50553 2.98131 0 4.9706 4.02944 9 9 9 4.9706 0 9-4.0294 9-9 0-3.8325-2.3955-7.10549-5.7709-8.40336-.0829 1.24553.3521 3.21167-.692 4.17279-1.095 1.00793-3.0549 1.44417-4.3932 2.03887l-.88852 1.1847c-.06989.0933-.15371.2051-.23566.2978-.09527.1076-.24159.2532-.45657.3606-.27915.1393-.59481.1882-.90302.1397-.23737-.0373-.42085-.1319-.5442-.2057-.10614-.0636-.21982-.1448-.31464-.2126z" fill-rule="evenodd"/></g></svg>