<svg fill="none" height="24" viewBox="0 0 24 24" width="24" xmlns="http://www.w3.org/2000/svg"><path d="m19.3387 1.66106c-.3905-.39053-1.0237-.39053-1.4142 0-.3905.39052-.3905 1.02369 0 1.41421 4.0987 4.09873 4.1005 10.74293.0053 14.84393-.0017.0017-.0035.0035-.0053.0052-3.8619 3.862-9.98469 4.0867-14.10891.6739l1.42244-1.4224c1.44732 1.1423 3.27503 1.8241 5.26197 1.8241 4.6944 0 8.5-3.8056 8.5-8.5 0-4.69442-3.8056-8.5-8.5-8.5-4.69442 0-8.5 3.80558-8.5 8.5 0 1.9868.68165 3.8144 1.82385 5.2617l-1.61384 1.6138c-.08322.0831-.18585.1857-.26899.285-.09935.1187-.22374.2926-.29592.5313-.09438.3122-.08243.6606.03314.9656.08563.226.21466.3877.32356.5022.08815.0926.19461.1852.27727.2572l.01732.0151c4.90912 4.2777 12.36101 4.082 17.03651-.5875.002-.0018.0039-.0038.0058-.0057 4.8816-4.8815 4.8816-12.79609 0-17.67764z" fill="#801ed7"/></svg>