<svg fill="none" height="24" viewBox="0 0 24 24" width="24" xmlns="http://www.w3.org/2000/svg"><g fill="#801ed7"><path d="m7.3758 10.0948-2.74979-4.61186c-.22019-.3693-.33029-.55394-.3551-.76634-.02016-.17248.01601-.39024.09083-.54694.09215-.19298.23556-.31475.52238-.55829 1.91821-1.62879 4.4023-2.61137 7.11588-2.61137 3.8074 0 7.1629 1.93434 9.1376 4.87389.218.32456.327.48685.3174.65468-.0079.13793-.087.2864-.1971.36987-.1339.10156-.3442.10156-.7647.10156h-8.4932c-2.0868 0-3.87501 1.2784-4.6242 3.0948z"/><path d="m1 12c0-1.6886.38049-3.28837 1.06042-4.7182.16757-.35238.25136-.52857.40039-.60595.12248-.06359.29034-.07147.41823-.01962.15563.06308.26313.24338.47813.60398l4.23814 7.10799c.84421 1.5669 2.50009 2.6318 4.40469 2.6318.2053 0 .4076-.0124.6064-.0364l-2.67492 4.6614c-.21377.3725-.32065.5588-.49372.6845-.14039.102-.34837.1773-.52152.1888-.21346.0142-.38942-.0511-.74134-.1816-4.18941-1.5539-7.1749-5.5866-7.1749-10.3167z"/><path d="m11.7268 22.5147c-.1239.2159.0243.4853.2732.4853 6.0751 0 11-4.9249 11-11 0-.6198-.0513-1.2277-.1498-1.8196-.0617-.37051-.0925-.55576-.211-.73402-.0962-.14462-.265-.28766-.4234-.35875-.1953-.08763-.4102-.08763-.8401-.08763h-5.3753c.6277.83566.9996 1.8744.9996 3 0 .9795-.2817 1.8933-.7685 2.6647z"/><path d="m15 12c0 1.6569-1.3431 3-3 3s-3-1.3431-3-3 1.3431-3 3-3 3 1.3431 3 3z"/></g></svg>