<svg fill="none" height="24" viewBox="0 0 24 24" width="24" xmlns="http://www.w3.org/2000/svg"><g fill="#801ed7"><path d="m22.4472 9.39449c.3388-.16939.5528-.51565.5528-.89443 0-.37877-.214-.72503-.5528-.89442l-9.6678-4.83409c-.0933-.04761-.2864-.14614-.5028-.18675-.1828-.03429-.3704-.03429-.5532 0-.2164.04061-.4095.13914-.5028.18675l-9.66781 4.83409c-.33879.16939-.55279.51565-.55279.89442 0 .37878.214.72504.55279.89443l9.73011 4.87801c.2629.1318.3944.1977.5323.2236.1221.023.2475.023.3696 0 .1379-.0259.2694-.0918.5323-.2236z"/><path d="m19.9966 14.1653c0-.4294-.0001-.6441-.0904-.7731-.0788-.1128-.2005-.1879-.3366-.208-.1558-.0231-.3477.0729-.7314.2648l-6.0588 3.0295c-.0933.0476-.2864.1462-.5028.1868-.1828.0343-.3704.0343-.5532 0-.2164-.0406-.4095-.1392-.5028-.1868l-6.05898-3.0296c-.38373-.1919-.5756-.2878-.7314-.2648-.13612.0201-.25776.0952-.33664.208-.09028.129-.09032.3437-.0904.7731-.00011.6406-.00103 1.2811-.00346 1.9216-.00105.2761-.00236.623.1095.9473.09667.2803.25443.5355.46186.7473.24006.2451.55094.3991.79829.5216 1.84325.9157 3.6848 1.835 5.52273 2.7613.2026.1021.4576.2306.739.2834.2438.0457.4939.0457.7376 0 .2815-.0528.5364-.1813.739-.2834 1.8379-.9263 3.6785-1.8479 5.5228-2.7613.2473-.1225.5582-.2765.7983-.5216.2074-.2118.3651-.467.4618-.7473.1119-.3243.1106-.6712.1095-.9473-.0024-.6405-.0033-1.281-.0035-1.9215z"/></g></svg>