<svg fill="none" height="24" viewBox="0 0 24 24" width="24" xmlns="http://www.w3.org/2000/svg"><g fill="#801ed7"><path d="m18.5716 10.7597c.0885.0904.1328.1356.1349.1377.1974.1967.3206.2173.5712.0957.5774-.28 1.1483-.5741 1.7222-.861v-.014l1.4473-.72361c.3388-.16939.5528-.51565.5528-.89443 0-.37877-.214-.72503-.5528-.89442l-9.6678-4.83409c-.0933-.04761-.2864-.14614-.5028-.18675-.1828-.03429-.3704-.03429-.5532 0-.2164.04061-.4095.13914-.5028.18675l-9.66781 4.83409c-.33879.16939-.55279.51565-.55279.89442 0 .37878.214.72504.55279.89443l9.73171 4.87981c.2623.1311.3935.1967.5311.2225.1219.0229.2469.0229.3688 0 .1376-.0258.2688-.0914.5311-.2225l2.8578-1.4289c.4594-.2297.6891-.3446.763-.5001.0644-.1354.0645-.2926.0005-.4281-.0735-.1558-.3029-.2712-.7617-.502l-3.0223-1.52055c-.494-.24699-.6942-.84767-.4473-1.34164.247-.49398.8477-.69421 1.3417-.44722l4.5892 2.29431c.114.0556.3505.171.5352.3596z"/><path d="m16.4346 14.6508c.2598-.1299.5654.059.5654.3494 0 .5523.4477 1 1 1s1-.4477 1-1v-1.1377c0-.1794 0-.2692.0273-.3484.0242-.0701.0636-.1339.1155-.1868.0586-.0599.1389-.1.2994-.1803l.4001-.2c.3833-.1917.575-.2876.7308-.2645.1361.0201.2578.0953.3367.208.0902.1291.0902.3434.0903.772l.0001 2.7227c.0011.2856.0025.6445-.1163.9778-.1026.2878-.2698.5484-.4887.7616-.2535.2468-.5803.3951-.8405.5131l-6.5227 2.9894c-.1898.0877-.4287.198-.6899.2434-.2264.0393-.4579.0393-.6843 0-.2612-.0454-.5001-.1557-.6899-.2434l-6.52273-2.9894c-.26013-.118-.58696-.2663-.84047-.5131-.21895-.2132-.38614-.4738-.48872-.7616-.11877-.3333-.11736-.6922-.11624-.9779l.00009-2.7227c.00001-.4286.00002-.6429.09029-.7719.07883-.1127.20059-.188.33665-.2081.15581-.023.34748.0728.73083.2645l7.0374 3.5187.0256.013c.0933.0476.2864.1461.5028.1867.1828.0343.3704.0343.5532 0 .2164-.0406.4095-.1391.5028-.1867l.0256-.013z"/></g></svg>