<svg fill="none" height="24" viewBox="0 0 24 24" width="24" xmlns="http://www.w3.org/2000/svg"><g clip-rule="evenodd" fill="#801ed7" fill-rule="evenodd"><path d="m4.56811 2c1.28794.00016 2.57839.00016 3.86379 0 .25239-.00003.49818-.00006.70634.01695.22859.01868.49832.06274.76975.20104.37631.19175.68231.49771.87401.87403.1383.27143.1824.54116.2011.76976.017.20816.0169.45396.0169.70635v3.86376c0 .25238.0001.49818-.0169.70635-.0187.22859-.0628.49832-.2011.76975-.1917.37631-.4977.68231-.87401.87401-.27143.1383-.54116.1824-.76975.2011-.20817.017-.45397.0169-.70635.0169h-3.86377c-.25238 0-.49818.0001-.70634-.0169-.2286-.0187-.49833-.0628-.76976-.2011-.37632-.1917-.68228-.4977-.87403-.87401-.1383-.27143-.18236-.54116-.20104-.76975-.01701-.20816-.01698-.45395-.01695-.70634 0-.01062.00001-.02125.00001-.03189v-3.8c0-.01065-.00001-.02128-.00001-.0319-.00003-.25239-.00006-.49818.01695-.70633.01868-.2286.06274-.49833.20104-.76976.19175-.37632.49771-.68228.87403-.87403.27143-.1383.54116-.18236.76976-.20104.20815-.01701.45394-.01698.70633-.01695z"/><path d="m4.56811 13c1.28794.0002 2.57839.0002 3.86379 0 .25239 0 .49818-.0001.70634.017.22859.0186.49832.0627.76975.201.37631.1917.68231.4977.87401.874.1383.2714.1824.5412.2011.7698.017.2081.0169.4539.0169.7063v3.8638c0 .2524.0001.4982-.0169.7063-.0187.2286-.0628.4984-.2011.7698-.1917.3763-.4977.6823-.87401.874-.27143.1383-.54116.1824-.76975.2011-.20817.017-.45397.0169-.70635.0169h-3.86377c-.25238 0-.49818.0001-.70634-.0169-.2286-.0187-.49833-.0628-.76976-.2011-.37632-.1917-.68228-.4977-.87403-.874-.1383-.2714-.18236-.5412-.20104-.7698-.01701-.2081-.01698-.4539-.01695-.7063 0-.0106.00001-.0213.00001-.0319v-3.8c0-.0106-.00001-.0213-.00001-.0319-.00003-.2524-.00006-.4982.01695-.7063.01868-.2286.06274-.4984.20104-.7698.19175-.3763.49771-.6823.87403-.874.27143-.1383.54116-.1824.76976-.201.20815-.0171.45394-.017.70633-.017z"/><path d="m15.5681 2c1.2879.00016 2.5784.00016 3.8638 0 .2524-.00003.4982-.00006.7063.01695.2286.01868.4984.06274.7698.20104.3763.19175.6823.49771.874.87403.1383.27143.1824.54116.2011.76976.017.20816.0169.45396.0169.70635v3.86376c0 .25238.0001.49818-.0169.70635-.0187.22859-.0628.49832-.2011.76975-.1917.37631-.4977.68231-.874.87401-.2714.1383-.5412.1824-.7698.2011-.2081.017-.4539.0169-.7063.0169h-3.8638c-.2524 0-.4982.0001-.7063-.0169-.2286-.0187-.4984-.0628-.7698-.2011-.3763-.1917-.6823-.4977-.874-.87401-.1383-.27143-.1824-.54116-.201-.76975-.0171-.20816-.017-.45395-.017-.70634 0-.01062 0-.02125 0-.03189v-3.8c0-.01065 0-.02128 0-.0319 0-.25239-.0001-.49818.017-.70633.0186-.2286.0627-.49833.201-.76976.1917-.37632.4977-.68228.874-.87403.2714-.1383.5412-.18236.7698-.20104.2081-.01701.4539-.01698.7063-.01695z"/><path d="m15.5681 13c1.2879.0002 2.5784.0002 3.8638 0 .2524 0 .4982-.0001.7063.017.2286.0186.4984.0627.7698.201.3763.1917.6823.4977.874.874.1383.2714.1824.5412.2011.7698.017.2081.0169.4539.0169.7063v3.8638c0 .2524.0001.4982-.0169.7063-.0187.2286-.0628.4984-.2011.7698-.1917.3763-.4977.6823-.874.874-.2714.1383-.5412.1824-.7698.2011-.2081.017-.4539.0169-.7063.0169h-3.8638c-.2524 0-.4982.0001-.7063-.0169-.2286-.0187-.4984-.0628-.7698-.2011-.3763-.1917-.6823-.4977-.874-.874-.1383-.2714-.1824-.5412-.201-.7698-.0171-.2081-.017-.4539-.017-.7063 0-.0106 0-.0213 0-.0319v-3.8c0-.0106 0-.0213 0-.0319 0-.2524-.0001-.4982.017-.7063.0186-.2286.0627-.4984.201-.7698.1917-.3763.4977-.6823.874-.874.2714-.1383.5412-.1824.7698-.201.2081-.0171.4539-.017.7063-.017z"/></g></svg>