<svg fill="none" height="24" viewBox="0 0 24 24" width="24" xmlns="http://www.w3.org/2000/svg"><g fill="#801ed7"><path d="m17.8 4c.5766 0 .9488.00078 1.2322.02393.2716.0222.3723.05987.4218.08507.1882.09587.3411.24885.437.43701.0252.04945.0629.15017.0851.42183.0231.28334.0239.65561.0239 1.23216v1.8c0 .55229.4477 1 1 1s1-.44771 1-1v-1.83854c0-.52715 0-.98191-.0306-1.35649-.0323-.39534-.1036-.78856-.2964-1.16694-.2876-.56449-.7465-1.02343-1.311-1.31105-.3784-.19279-.7716-.26411-1.167-.29641-.3745-.0306-.8293-.03059-1.3564-.03057h-1.8386c-.5523 0-1 .44772-1 1 0 .55229.4477 1 1 1z"/><path d="m6.16146 2h1.83854c.55229 0 1 .44772 1 1 0 .55229-.44771 1-1 1h-1.8c-.57655 0-.94882.00078-1.23216.02393-.27166.0222-.37238.05987-.42183.08507-.18816.09587-.34114.24885-.43701.43701-.0252.04945-.06287.15017-.08507.42183-.02315.28334-.02393.65561-.02393 1.23216v1.8c0 .55229-.44771 1-1 1-.55228 0-1-.44771-1-1v-1.83854c-.00002-.52713-.00003-.98192.03057-1.35649.0323-.39534.10362-.78856.29641-1.16694.28762-.56449.74656-1.02343 1.31105-1.31105.37838-.19279.7716-.26411 1.16694-.29641.37457-.0306.82936-.03059 1.35649-.03057z"/><path d="m3 15c.55229 0 1 .4477 1 1v1.8c0 .5766.00078.9488.02393 1.2322.0222.2716.05987.3723.08507.4218.09587.1882.24885.3411.43701.437.04945.0252.15017.0629.42183.0851.28334.0231.65561.0239 1.23216.0239h1.8c.55229 0 1 .4477 1 1s-.44771 1-1 1h-1.83854c-.52715 0-.98191 0-1.35649-.0306-.39534-.0323-.78856-.1036-1.16694-.2964-.56449-.2876-1.02343-.7465-1.31105-1.311-.19279-.3784-.26411-.7716-.29641-1.167-.0306-.3745-.03059-.8293-.03057-1.3564v-1.8386c0-.5523.44772-1 1-1z"/><path d="m21 15c.5523 0 1 .4477 1 1v1.8385c0 .5272 0 .982-.0306 1.3565-.0323.3954-.1036.7886-.2964 1.167-.2876.5645-.7465 1.0234-1.311 1.311-.3784.1928-.7716.2641-1.167.2964-.3745.0306-.8293.0306-1.3565.0306h-1.8385c-.5523 0-1-.4477-1-1s.4477-1 1-1h1.8c.5766 0 .9488-.0008 1.2322-.0239.2716-.0222.3723-.0599.4218-.0851.1882-.0959.3411-.2488.437-.437.0252-.0495.0629-.1502.0851-.4218.0231-.2834.0239-.6556.0239-1.2322v-1.8c0-.5523.4477-1 1-1z"/><path d="m16 12c0 2.2091-1.7909 4-4 4-2.20914 0-4-1.7909-4-4 0-2.20914 1.79086-4 4-4 2.2091 0 4 1.79086 4 4z"/></g></svg>