<svg fill="none" height="24" viewBox="0 0 24 24" width="24" xmlns="http://www.w3.org/2000/svg"><g clip-rule="evenodd" fill="#801ed7" fill-rule="evenodd"><path d="m2 3c0-.55228.44772-1 1-1h.01c.55228 0 1 .44772 1 1s-.44772 1-1 1h-.01c-.55228 0-1-.44772-1-1z"/><path d="m2 12c0-.5523.44772-1 1-1h.01c.55228 0 1 .4477 1 1s-.44772 1-1 1h-.01c-.55228 0-1-.4477-1-1z"/><path d="m2 21c0-.5523.44772-1 1-1h.01c.55228 0 1 .4477 1 1s-.44772 1-1 1h-.01c-.55228 0-1-.4477-1-1z"/><path d="m2 16.5c0-.5523.44772-1 1-1h.01c.55228 0 1 .4477 1 1s-.44772 1-1 1h-.01c-.55228 0-1-.4477-1-1z"/><path d="m2 7.5c0-.55228.44772-1 1-1h.01c.55228 0 1 .44772 1 1s-.44772 1-1 1h-.01c-.55228 0-1-.44772-1-1z"/><path d="m6.5 3c0-.55228.44772-1 1-1h.01c.55228 0 1 .44772 1 1s-.44772 1-1 1h-.01c-.55228 0-1-.44772-1-1z"/><path d="m6.5 12c0-.5523.44772-1 1-1h.01c.55228 0 1 .4477 1 1s-.44772 1-1 1h-.01c-.55228 0-1-.4477-1-1z"/><path d="m6.5 21c0-.5523.44772-1 1-1h.01c.55228 0 1 .4477 1 1s-.44772 1-1 1h-.01c-.55228 0-1-.4477-1-1z"/><path d="m15.5 3c0-.55228.4477-1 1-1h.01c.5523 0 1 .44772 1 1s-.4477 1-1 1h-.01c-.5523 0-1-.44772-1-1z"/><path d="m15.5 12c0-.5523.4477-1 1-1h.01c.5523 0 1 .4477 1 1s-.4477 1-1 1h-.01c-.5523 0-1-.4477-1-1z"/><path d="m15.5 21c0-.5523.4477-1 1-1h.01c.5523 0 1 .4477 1 1s-.4477 1-1 1h-.01c-.5523 0-1-.4477-1-1z"/><path d="m20 3c0-.55228.4477-1 1-1h.01c.5523 0 1 .44772 1 1s-.4477 1-1 1h-.01c-.5523 0-1-.44772-1-1z"/><path d="m20 12c0-.5523.4477-1 1-1h.01c.5523 0 1 .4477 1 1s-.4477 1-1 1h-.01c-.5523 0-1-.4477-1-1z"/><path d="m20 21c0-.5523.4477-1 1-1h.01c.5523 0 1 .4477 1 1s-.4477 1-1 1h-.01c-.5523 0-1-.4477-1-1z"/><path d="m20 16.5c0-.5523.4477-1 1-1h.01c.5523 0 1 .4477 1 1s-.4477 1-1 1h-.01c-.5523 0-1-.4477-1-1z"/><path d="m20 7.5c0-.55228.4477-1 1-1h.01c.5523 0 1 .44772 1 1s-.4477 1-1 1h-.01c-.5523 0-1-.44772-1-1z"/><path d="m12 2c.5523 0 1 .44772 1 1v18c0 .5523-.4477 1-1 1s-1-.4477-1-1v-18c0-.55228.4477-1 1-1z"/></g></svg>