<svg fill="none" height="24" viewBox="0 0 24 24" width="24" xmlns="http://www.w3.org/2000/svg"><g fill="#801ed7"><path d="m19.0322 4.02393c-.2834-.02315-.6556-.02393-1.2322-.02393h-1.8c-.5523 0-1-.44771-1-1 0-.55228.4477-1 1-1h1.8385c.5272-.00002.982-.00003 1.3565.03057.3954.0323.7886.10362 1.167.29641.5645.28762 1.0234.74656 1.311 1.31105.1928.37838.2641.7716.2964 1.16694.0306.37458.0306.82934.0306 1.35649v1.83854c0 .55229-.4477 1-1 1s-1-.44771-1-1v-1.8c0-.57655-.0008-.94882-.0239-1.23216-.0222-.27166-.0599-.37238-.0851-.42183-.0959-.18816-.2488-.34114-.437-.43701-.0495-.0252-.1502-.06287-.4218-.08507z"/><path d="m8 2h-1.83854c-.52713-.00002-.98192-.00003-1.35649.03057-.39534.0323-.78856.10362-1.16694.29641-.56449.28762-1.02343.74656-1.31105 1.31105-.19279.37838-.26411.7716-.29641 1.16694-.0306.37457-.03059.82932-.03057 1.35645v1.83858c0 .55229.44772 1 1 1 .55229 0 1-.44771 1-1v-1.8c0-.57655.00078-.94882.02393-1.23216.0222-.27166.05987-.37238.08507-.42183.09587-.18816.24885-.34114.43701-.43701.04945-.0252.15017-.06287.42183-.08507.28334-.02315.65561-.02393 1.23216-.02393h1.8c.55229 0 1-.44771 1-1 0-.55228-.44771-1-1-1z"/><path d="m4 16c0-.5523-.44771-1-1-1-.55228 0-1 .4477-1 1v1.8385c-.00002.5272-.00003.982.03057 1.3565.0323.3954.10362.7886.29641 1.167.28762.5645.74656 1.0234 1.31105 1.311.37838.1928.7716.2641 1.16694.2964.37458.0306.82934.0306 1.35649.0306h1.83854c.55229 0 1-.4477 1-1s-.44771-1-1-1h-1.8c-.57655 0-.94882-.0008-1.23216-.0239-.27166-.0222-.37238-.0599-.42183-.0851-.18816-.0959-.34114-.2488-.43701-.437-.0252-.0495-.06287-.1502-.08507-.4218-.02315-.2834-.02393-.6556-.02393-1.2322z"/><path d="m22 16c0-.5523-.4477-1-1-1s-1 .4477-1 1v1.8c0 .5766-.0008.9488-.0239 1.2322-.0222.2716-.0599.3723-.0851.4218-.0959.1882-.2488.3411-.437.437-.0495.0252-.1502.0629-.4218.0851-.2834.0231-.6556.0239-1.2322.0239h-1.8c-.5523 0-1 .4477-1 1s.4477 1 1 1h1.8385c.5272 0 .982 0 1.3565-.0306.3954-.0323.7886-.1036 1.167-.2964.5645-.2876 1.0234-.7465 1.311-1.311.1928-.3784.2641-.7716.2964-1.167.0306-.3745.0306-.8293.0306-1.3565z"/><path d="m12 6c.5523 0 1 .44772 1 1v4h4c.5523 0 1 .4477 1 1s-.4477 1-1 1h-4v4c0 .5523-.4477 1-1 1s-1-.4477-1-1v-4h-4c-.55228 0-1-.4477-1-1s.44772-1 1-1h4v-4c0-.55228.4477-1 1-1z"/></g></svg>