<svg fill="none" height="24" viewBox="0 0 24 24" width="24" xmlns="http://www.w3.org/2000/svg"><path clip-rule="evenodd" d="m12 3c-.4054 0-.7.31705-.7.66667v7.22223c0 .5523-.4477 1-1 1-.55228 0-1-.4477-1-1v-6.11112c0-.34962-.29464-.66667-.7-.66667s-.7.31705-.7.66667v9.44442c0 .5523-.44772 1-1 1s-1-.4477-1-1v-2.7778c0-.3496-.29464-.6666-.7-.6666s-.7.317-.7.6666v2.2223c0 4.0315 3.3391 7.3333 7.5 7.3333s7.5-3.3018 7.5-7.3333v-5.55559c0-.34961-.2946-.66667-.7-.66667s-.7.31706-.7.66667v2.77779c0 .5523-.4477 1-1 1s-1-.4477-1-1v-6.11112c0-.34962-.2946-.66667-.7-.66667s-.7.31705-.7.66667v6.11112c0 .5523-.4477 1-1 1s-1-.4477-1-1v-7.22223c0-.34962-.2946-.66667-.7-.66667zm2.3358-.67306c-.4708-.7982-1.3482-1.32694-2.3358-1.32694s-1.865.52874-2.33578 1.32694c-.32783-.13911-.68804-.21583-1.06422-.21583-1.47241 0-2.7 1.17533-2.7 2.66667v4.09095c-.22387-.05937-.45865-.09095-.7-.09095-1.47241 0-2.7 1.17533-2.7 2.66662v2.2223c0 5.1732 4.27206 9.3333 9.5 9.3333 5.2279 0 9.5-4.1601 9.5-9.3333v-5.55559c0-1.49133-1.2276-2.66667-2.7-2.66667-.2414 0-.4761.03159-.7.09096v-.75762c0-1.49134-1.2276-2.66667-2.7-2.66667-.3762 0-.7364.07672-1.0642.21583z" fill="#801ed7" fill-rule="evenodd"/></svg>