<svg fill="none" height="24" viewBox="0 0 24 24" width="24" xmlns="http://www.w3.org/2000/svg"><g fill="#801ed7"><path d="m8.81413 2.99982c-.9277-.00063-1.62707-.0011-2.26427.21869-.5605.19333-1.07101.50884-1.49459.92371-.48155.47164-.7939 1.09739-1.20822 1.92742-.63342 1.26689-1.29227 2.52473-1.91722 3.79723-.18124.36903-.27186.55353-.24815.70863.0205.1342.0972.2573.20857.3348.12877.0897.33672.0897.75262.0897h18.71433c.4159 0 .6239 0 .7526-.0897.1114-.0775.1881-.2006.2086-.3348.0237-.1551-.0669-.3396-.2482-.70864-.6249-1.27249-1.2837-2.53033-1.9172-3.7972-.4143-.83005-.7266-1.4558-1.2082-1.92744-.4236-.41487-.9341-.73038-1.4946-.92371-.6372-.21979-1.3366-.21932-2.2643-.21869z"/><path clip-rule="evenodd" d="m23.0001 14.5996c0-.5597 0-.8396-.1089-1.0535-.0959-.1882-.2489-.3412-.4371-.4371-.2139-.109-.4938-.109-1.0537-.109h-18.80078c-.55984 0-.83977 0-1.05369.109-.18813.0959-.34117.2489-.43702.4371-.108985.2139-.108959.4938-.10891 1.0535.00002.2139.00004.4277.00004.6416-.00001.805-.00002 1.4693.04419 2.0105.04593.5621.14449 1.0788.39178 1.5642.3835.7526.99542 1.3645 1.74807 1.748.48533.2473 1.00204.3459 1.56413.3918.54119.0442 1.20555.0442 2.01051.0442h10.48268c.8049 0 1.4693 0 2.0105-.0442.5621-.0459 1.0788-.1445 1.5641-.3918.7527-.3835 1.3646-.9954 1.7481-1.748.2473-.4854.3458-1.0021.3917-1.5642.0443-.5412.0443-1.2055.0442-2.0105 0-.2138.0001-.4277.0001-.6416zm-17.00008.4004c-.55229 0-1 .4477-1 1s.44771 1 1 1h3.99998c.5523 0 1-.4477 1-1s-.4477-1-1-1z" fill-rule="evenodd"/></g></svg>