<svg fill="none" height="24" viewBox="0 0 24 24" width="24" xmlns="http://www.w3.org/2000/svg"><path clip-rule="evenodd" d="m8 2c.55228 0 1 .44772 1 1v4h6v-4c0-.55228.4477-1 1-1s1 .44772 1 1v4h3c.5523 0 1 .44772 1 1s-.4477 1-1 1h-3v6h3c.5523 0 1 .4477 1 1s-.4477 1-1 1h-3v4c0 .5523-.4477 1-1 1s-1-.4477-1-1v-4h-6v4c0 .5523-.44772 1-1 1s-1-.4477-1-1v-4h-3c-.55228 0-1-.4477-1-1s.44772-1 1-1h3v-6h-3c-.55228 0-1-.44772-1-1s.44772-1 1-1h3v-4c0-.55228.44772-1 1-1zm7 13v-6h-6v6z" fill="#801ed7" fill-rule="evenodd"/></svg>