<svg fill="none" height="24" viewBox="0 0 24 24" width="24" xmlns="http://www.w3.org/2000/svg"><path clip-rule="evenodd" d="m10.4864 3.16443c.0908-.54477-.2773-1.05999-.82203-1.15079-.54477-.09079-1.06.27722-1.15079.822l-.69406 4.16436h-4.31952c-.55228 0-1 .44772-1 1s.44772 1 1 1h3.98619l-1 6h-3.98619c-.55228 0-1 .4477-1 1s.44772 1 1 1h3.65285l-.63927 3.8356c-.0908.5448.27722 1.06.82199 1.1508s1.06-.2772 1.1508-.822l.69407-4.1644h5.97246l-.6393 3.8356c-.0908.5448.2772 1.06.822 1.1508.5447.0908 1.06-.2772 1.1508-.822l.694-4.1644h3.3196c.5523 0 1-.4477 1-1s-.4477-1-1-1h-2.9862l1-6h2.9862c.5523 0 1-.44772 1-1s-.4477-1-1-1h-2.6529l.6393-3.83557c.0908-.54477-.2773-1.05999-.822-1.15079-.5448-.09079-1.06.27722-1.1508.822l-.6941 4.16436h-5.97239zm3.9998 11.83557 1-6h-5.97243l-1 6z" fill="#801ed7" fill-rule="evenodd"/></svg>