<svg fill="none" height="24" viewBox="0 0 24 24" width="24" xmlns="http://www.w3.org/2000/svg"><path clip-rule="evenodd" d="m2 12c0-5.52285 4.47715-10 10-10 5.5228 0 10 4.47715 10 10v6.5c0 1.933-1.567 3.5-3.5 3.5s-3.5-1.567-3.5-3.5v-2c0-1.933 1.567-3.5 3.5-3.5.5368 0 1.0454.1208 1.5.3368v-1.3368c0-4.41828-3.5817-8-8-8-4.41828 0-8 3.58172-8 8v1.3368c.45463-.216.9632-.3368 1.5-.3368 1.933 0 3.5 1.567 3.5 3.5v2c0 1.933-1.567 3.5-3.5 3.5s-3.5-1.567-3.5-3.5z" fill="#801ed7" fill-rule="evenodd"/></svg>