<svg fill="none" height="24" viewBox="0 0 24 24" width="24" xmlns="http://www.w3.org/2000/svg"><path clip-rule="evenodd" d="m4 3c-.55228 0-1 .44772-1 1s.44772 1 1 1h1v14h-1c-.55228 0-1 .4477-1 1s.44772 1 1 1h7.5c.5523 0 1-.4477 1-1s-.4477-1-1-1h-1v-6h6.5v6h-1c-.5523 0-1 .4477-1 1s.4477 1 1 1h4c.5523 0 1-.4477 1-1s-.4477-1-1-1h-1v-14h1c.5523 0 1-.44772 1-1s-.4477-1-1-1h-4c-.5523 0-1 .44772-1 1s.4477 1 1 1h1v6h-6.5v-6h1c.5523 0 1-.44772 1-1s-.4477-1-1-1z" fill="#801ed7" fill-rule="evenodd"/></svg>