<svg fill="none" height="24" viewBox="0 0 24 24" width="24" xmlns="http://www.w3.org/2000/svg"><g fill="#801ed7"><path d="m1 13c0-6.07513 4.92487-11 11-11 6.0751 0 11 4.92487 11 11v4c0 .5523-.4477 1-1 1s-1-.4477-1-1v-4c0-4.97056-4.0294-9-9-9-4.97056 0-9 4.02944-9 9v4c0 .5523-.44772 1-1 1s-1-.4477-1-1z"/><g clip-rule="evenodd" fill-rule="evenodd"><path d="m4 15.5c0-1.933 1.567-3.5 3.5-3.5s3.5 1.567 3.5 3.5v3c0 1.933-1.567 3.5-3.5 3.5s-3.5-1.567-3.5-3.5z"/><path d="m16.5 12c-1.933 0-3.5 1.567-3.5 3.5v3c0 1.933 1.567 3.5 3.5 3.5s3.5-1.567 3.5-3.5v-3c0-1.933-1.567-3.5-3.5-3.5z"/></g></g></svg>