<svg fill="none" height="24" viewBox="0 0 24 24" width="24" xmlns="http://www.w3.org/2000/svg"><g fill="#801ed7"><path clip-rule="evenodd" d="m16.992 10.5455c-.8446-2.19901-2.991-3.74956-5.6588-3.25457-2.94925.54722-4.88272 3.22777-4.48048 6.14467.14393 1.0437.59692 2.7154 1.06162 4.2792.47184 1.5878.98041 3.1446 1.26317 3.9948.00215.0064.00433.013.00656.0197.03236.0975.07262.2187.11732.3243.05349.1263.13838.294.28906.4536.20008.2119.46055.3622.74405.4296.2135.0507.4012.0403.5374.0235.1138-.0141.2389-.0398.3394-.0605.0069-.0014.0138-.0028.0204-.0042.8777-.1802 2.4802-.5182 4.0912-.9035 1.5867-.3794 3.2609-.823 4.2367-1.2202 2.7139-1.1046 4.1291-4.1152 3.0766-6.9653-.9382-2.5405-3.3194-3.6306-5.6442-3.2611z" fill-rule="evenodd"/><path d="m14.5953 1.49282c-2.4597-1.133001-4.91438-.22007-6.29693 1.68508-2.15221-.95768-4.76631-.53637-6.30273 1.70007-1.698499 2.47238-1.170236 5.73503 1.17676 7.51313.41959.3179 1.00684.6935 1.67087 1.088-.41881-3.89684 2.21346-7.42883 6.12503-8.1546 2.8048-.5204 5.1639.58338 6.662 2.40298.5966-2.47359-.5665-5.09762-3.035-6.23466z"/></g></svg>