<svg fill="none" height="24" viewBox="0 0 24 24" width="24" xmlns="http://www.w3.org/2000/svg"><path clip-rule="evenodd" d="m11.9928 3.71703c-2.33995-2.04489-5.80041-2.46334-8.48771-.16725-2.906789 2.48362-3.329119 6.66642-1.0305 9.62432.87253 1.1227 2.57552 2.8095 4.21213 4.3543 1.65577 1.5628 3.30773 3.0396 4.12238 3.7611.0051.0045.0103.0091.0156.0138.0765.0679.1719.1524.2633.2212.1094.0824.2665.1847.4763.2473.2789.0832.5787.0832.8577 0 .2098-.0626.3669-.1649.4763-.2473.0914-.0688.1867-.1533.2633-.2212.0053-.0047.0105-.0093.0156-.0138.8146-.7215 2.4666-2.1983 4.1224-3.7611 1.6366-1.5448 3.3396-3.2316 4.2121-4.3543 2.2898-2.9465 1.9327-7.1616-1.0409-9.63309-2.7172-2.25843-6.1408-1.86965-8.478.17602z" fill="#801ed7" fill-rule="evenodd"/></svg>