<svg fill="none" height="24" viewBox="0 0 24 24" width="24" xmlns="http://www.w3.org/2000/svg"><path clip-rule="evenodd" d="m12.4029 1.18492c-.2658-.05467-.54-.05467-.8058 0-.3073.0632-.5819.21703-.8003.33932l-.0595.03325-7.39997 4.11111-.06314.03487c-.23113.12731-.52175.28738-.74492.52956-.19295.20938-.33897.45754-.4283.72789-.10332.31271-.10211.64449-.10115.90836l.00018.07213v8.11709l-.00018.0721c-.00096.2639-.00217.5957.10115.9084.08933.2704.23535.5185.4283.7279.22316.2422.51376.4022.74489.5295l.06317.0349 7.39997 4.1111.0595.0333c.2184.1223.493.2761.8003.3393.2658.0547.54.0547.8058 0 .3073-.0632.5819-.217.8003-.3393l.0595-.0333 7.4-4.1111.0631-.0348c.2311-.1274.5218-.2874.7449-.5296.193-.2094.339-.4575.4283-.7279.1033-.3127.1021-.6445.1012-.9084l-.0002-.0721v-8.11709l.0002-.07213c.0009-.26387.0021-.59565-.1012-.90836-.0893-.27035-.2353-.51851-.4283-.72789-.2231-.24218-.5138-.40225-.7449-.52956l-.0631-.03487-7.4-4.11111-.0595-.03325c-.2184-.12229-.493-.27612-.8003-.33932zm-4.32555 7.47009c1.25252-1.07019 2.91955-.75581 3.91925.4129.9997-1.16871 2.6451-1.47183 3.9192-.4129 1.2741 1.05892 1.4289 2.85949.4453 4.12519-.6301.8107-2.2435 2.314-3.3222 3.2902-.3584.3243-.5377.4865-.7523.5516-.1846.0559-.3955.0559-.58 0-.2147-.0651-.3939-.2273-.7524-.5516-1.07862-.9762-2.69209-2.4795-3.3221-3.2902-.98362-1.2657-.80728-3.05501.44525-4.12519z" fill="#801ed7" fill-rule="evenodd"/></svg>