<svg fill="none" height="24" viewBox="0 0 24 24" width="24" xmlns="http://www.w3.org/2000/svg"><path clip-rule="evenodd" d="m12 1c-6.07513 0-11 4.92487-11 11 0 6.0751 4.92487 11 11 11 6.0751 0 11-4.9249 11-11 0-6.07513-4.9249-11-11-11zm-3.92265 7.65501c1.25252-1.07019 2.91955-.75581 3.91925.4129.9997-1.16871 2.6451-1.47183 3.9192-.4129 1.2741 1.05892 1.4289 2.85949.4453 4.12519-.6301.8107-2.2435 2.314-3.3222 3.2902-.3584.3243-.5377.4865-.7523.5516-.1846.0559-.3955.0559-.58 0-.2147-.0651-.3939-.2273-.7524-.5516-1.07862-.9762-2.69209-2.4795-3.3221-3.2902-.98362-1.2657-.80728-3.05501.44525-4.12519z" fill="#801ed7" fill-rule="evenodd"/></svg>