<svg fill="none" height="24" viewBox="0 0 24 24" width="24" xmlns="http://www.w3.org/2000/svg"><path clip-rule="evenodd" d="m12 1c-6.07513 0-11 4.92487-11 11 0 6.0751 4.92487 11 11 11 6.0751 0 11-4.9249 11-11 0-6.07513-4.9249-11-11-11zm-1.0934 7.27123c.4072-.23932.886-.3268 1.3515-.24695s.8878.32187 1.1919.68321c.3042.36134.4707.81866.47 1.29098v.00149c0 .46914-.3651.95824-1.0547 1.41794-.3144.2096-.6359.371-.8827.4807-.122.0543-.2223.0943-.2897.12-.0299.0114-.06.0224-.0902.033-.5233.1751-.8059.741-.6314 1.2646.1747.5239.741.8071 1.2649.6324l.1687-.061c.0966-.0368.2307-.0905.39-.1613.3156-.1403.7442-.3539 1.1798-.6443.8102-.5401 1.9448-1.5508 1.9453-3.0811.0013-.94446-.3317-1.85889-.9399-2.58141-.6084-.72267-1.4528-1.20672-2.3839-1.36642-.931-.1597-1.8885.01526-2.70293.49389-.81441.47863-1.43314 1.23005-1.74661 2.12116-.18327.52099.0905 1.0919.61149 1.27518.52099.1833 1.09191-.09051 1.27515-.61149.1568-.44556.4661-.82127.8733-1.06058zm1.0934 7.72877c-.5523 0-1 .4477-1 1 0 .5522.4477 1 1 1h.01c.5523 0 1-.4478 1-1 0-.5523-.4477-1-1-1z" fill="#801ed7" fill-rule="evenodd"/></svg>