<svg fill="none" height="24" viewBox="0 0 24 24" width="24" xmlns="http://www.w3.org/2000/svg"><path clip-rule="evenodd" d="m11.5971 1.18505c.2658-.05467.54-.05467.8058 0 .3073.06319.5819.21702.8003.33931.0203.01139.0401.02251.0595.03325l7.4 4.11111c.0204.01137.0415.02298.0631.03487.2311.12731.5218.28738.7449.52956.193.20938.339.45754.4283.7279.1033.3127.1021.64448.1012.90835-.0001.02466-.0002.04873-.0002.07213v8.11707c0 .0234.0001.0475.0002.0722.0009.2638.0021.5956-.1012.9083-.0893.2704-.2353.5185-.4283.7279-.2231.2422-.5138.4023-.7449.5296-.0216.0119-.0427.0235-.0631.0348l-7.4 4.1112c-.0194.0107-.0392.0218-.0595.0332-.2184.1223-.493.2761-.8003.3393-.2658.0547-.54.0547-.8058 0-.3073-.0632-.5819-.217-.8003-.3393-.0203-.0114-.0401-.0225-.0595-.0332l-7.39997-4.1112c-.02046-.0113-.04153-.0229-.06313-.0348-.23114-.1273-.52175-.2874-.74493-.5296-.19295-.2094-.33897-.4575-.4283-.7279-.10332-.3127-.10211-.6445-.10115-.9083.00009-.0247.00018-.0488.00018-.0722v-8.11707c0-.0234-.00009-.04747-.00018-.07213-.00096-.26387-.00217-.59565.10115-.90835.08933-.27036.23535-.51852.4283-.7279.22317-.24218.51379-.40225.74492-.52956.0216-.01189.04268-.0235.06314-.03487l7.39997-4.11111c.0194-.01074.0392-.02186.0595-.03325.2184-.12229.493-.27612.8003-.33931z" fill="#801ed7" fill-rule="evenodd"/></svg>