<svg fill="none" height="24" viewBox="0 0 24 24" width="24" xmlns="http://www.w3.org/2000/svg"><path d="m7.94141 1.99988-.07213-.00018c-.26387-.00096-.59565-.00217-.90836.10115-.27035.08932-.51851.23535-.72789.4283-.24218.22317-.40225.51379-.52956.74492l-.03487.06314-4.11111 7.39999-.03325.0595c-.12229.2184-.27612.493-.33932.8003-.05467.2658-.05467.54 0 .8058.0632.3073.21703.5819.33932.8002l.03325.0596 4.11111 7.4.03487.0631c.12731.2311.28738.5217.52956.7449.20938.193.45754.339.72789.4283.31271.1033.64449.1021.90836.1012l.07213-.0002h8.11709l.0721.0002c.2639.0009.5957.0021.9084-.1012.2704-.0893.5185-.2353.7279-.4283.2422-.2232.4022-.5138.5295-.7449l.0349-.0632 4.1111-7.3999.0333-.0596c.1223-.2183.2761-.4929.3393-.8002.0547-.2658.0547-.54 0-.8058-.0632-.3073-.217-.5819-.3393-.8003l-.0333-.0595-4.1111-7.39999-.0348-.06314c-.1274-.23112-.2874-.52176-.5296-.74492-.2094-.19295-.4575-.33897-.7279-.4283-.3127-.10332-.6445-.10211-.9084-.10115l-.0721.00018z" fill="#801ed7"/></svg>