<svg fill="none" height="24" viewBox="0 0 24 24" width="24" xmlns="http://www.w3.org/2000/svg"><path clip-rule="evenodd" d="m12.5227 1.33636c-.3423-.09268-.7031-.09268-1.0454 0-.3974.10759-.7319.37024-.9989.57987l-.0747.05842-6.85997 5.33547c-.37663.29228-.70844.54979-.9557.88409-.21699.29338-.37864.62389-.477.97529-.11208.40042-.11163.82043-.11111 1.2972l.00007 7.3718c-.00002.5272-.00004.9819.03057 1.3565.0323.3954.10361.7886.29641 1.167.28762.5644.74656 1.0234 1.31105 1.311.37838.1928.77159.2641 1.16694.2964.37457.0306.82932.0306 1.35646.0306h11.67718c.5271 0 .9818 0 1.3564-.0306.3954-.0323.7886-.1036 1.167-.2964.5644-.2876 1.0234-.7466 1.311-1.311.1928-.3784.2641-.7716.2964-1.167.0306-.3746.0306-.8293.0306-1.3564l.0001-7.3719c.0005-.47677.0009-.89678-.1112-1.2972-.0983-.3514-.26-.68191-.477-.97529-.2472-.33431-.579-.59181-.9557-.8841l-6.86-5.33546-.0746-.05842c-.267-.20963-.6016-.47228-.9989-.57987zm-3.5227 12.26364v6.4h6v-6.4c0-.5601 0-.8401-.109-1.054-.0959-.1882-.2488-.3411-.437-.437-.2139-.109-.4939-.109-1.054-.109h-2.8c-.5601 0-.84008 0-1.05399.109-.18816.0959-.34114.2488-.43702.437-.10899.2139-.10899.4939-.10899 1.054z" fill="#801ed7" fill-rule="evenodd"/></svg>