<svg fill="none" height="24" viewBox="0 0 24 24" width="24" xmlns="http://www.w3.org/2000/svg"><path clip-rule="evenodd" d="m11.4773 1.33636c.3423-.09268.7031-.09268 1.0454 0 .3973.10759.7319.37024.9989.57987 2.3034 1.80839 4.6211 3.59848 6.9346 5.39388.3767.29229.7085.54979.9557.8841.217.29338.3787.62389.477.97529.1121.40042.1117.82043.1112 1.2972-.0026 2.4573-.0001 4.9146-.0001 7.3719 0 .5271 0 .9818-.0306 1.3564-.0323.3954-.1036.7886-.2964 1.167-.2876.5644-.7466 1.0234-1.311 1.311-.3784.1928-.7716.2641-1.167.2964-.8015.0655-1.6145.0302-2.4182.0306-.1191 0-.2613.0001-.3866-.0101-.1453-.0119-.3533-.0424-.5712-.1534-.2822-.1438-.5117-.3733-.6555-.6555-.1111-.218-.1415-.426-.1534-.5712-.0102-.1253-.0102-.2676-.0101-.3867l.0079-5.5962c.0008-.5608.0011-.8412-.1077-1.0554-.0958-.1884-.2488-.3417-.4371-.4377-.2141-.1092-.4945-.1092-1.0552-.1092h-2.7999c-.5593 0-.83899 0-1.05275.1088-.18803.0957-.34097.2484-.43694.4363-.10911.2136-.10951.4933-.11031 1.0526l-.00801 5.6008c.00005.1191.0001.2614-.01014.3867-.01186.1452-.0423.3532-.15335.5712-.14381.2822-.37328.5117-.65553.6555-.21794.111-.42594.1415-.57115.1534-.12532.0102-.26757.0101-.38668.0101-.80369-.0004-1.61666.0349-2.41818-.0306-.39535-.0323-.78856-.1036-1.16694-.2964-.56449-.2876-1.02343-.7466-1.31105-1.311-.1928-.3784-.26411-.7716-.29641-1.167-.03061-.3746-.03059-.8293-.03057-1.3565 0-2.4573.00258-4.9146-.00007-7.3718-.00052-.47677-.00097-.89678.11111-1.2972.09836-.3514.26001-.68191.477-.97529.24726-.3343.57907-.59181.9557-.88409 2.31343-1.79533 4.63136-3.58554 6.93467-5.39389.267-.20963.6015-.47228.9989-.57987z" fill="#801ed7" fill-rule="evenodd"/></svg>