<svg fill="none" height="24" viewBox="0 0 24 24" width="24" xmlns="http://www.w3.org/2000/svg"><path clip-rule="evenodd" d="m11.4773 1.33636c.3423-.09268.7031-.09268 1.0454 0 .3973.10759.7319.37024.9989.57987.0255.02002.0504.03955.0746.05842l6.7823 5.27512c.0261.0203.052.0404.0777.06034.3767.29229.7085.54979.9557.8841.217.29338.3787.62389.477.97529.1121.40042.1117.82043.1112 1.2972-.0001.0325-.0001.0653-.0001.0984v7.2735c0 .5271 0 .9818-.0306 1.3564-.0323.3954-.1036.7886-.2964 1.167-.2876.5644-.7466 1.0234-1.311 1.311-.3784.1928-.7716.2641-1.167.2964-.3746.0306-.8293.0306-1.3564.0306h-11.67718c-.52714 0-.98189 0-1.35646-.0306-.39535-.0323-.78856-.1036-1.16694-.2964-.56449-.2876-1.02343-.7466-1.31105-1.311-.1928-.3784-.26411-.7716-.29641-1.167-.03061-.3746-.03059-.8293-.03057-1.3565v-7.2734c0-.0331-.00004-.0659-.00007-.0984-.00052-.47677-.00097-.89678.11111-1.2972.09836-.3514.26001-.68191.477-.97529.24726-.3343.57907-.59181.9557-.88409.0257-.01994.0516-.04005.07771-.06035l6.78226-5.27512c.0243-.01887.0492-.0384.0747-.05842.267-.20963.6015-.47228.9989-.57987z" fill="#801ed7" fill-rule="evenodd"/></svg>