<svg fill="none" height="24" viewBox="0 0 24 24" width="24" xmlns="http://www.w3.org/2000/svg"><path clip-rule="evenodd" d="m11.4909 1.31589c.3337-.08785.6845-.08785 1.0182 0 .3873.10193.7158.35064.9779.54901l.073.0551.6068.45507c.0764.05675.1538.11497.2325.1742l.1207.09073 8.08 6.06c.4418.33137.5314.95817.2 1.4-.3314.4418-.9582.5314-1.4.2l-.4-.3v7.8386c0 .5271 0 .9819-.0306 1.3564-.0323.3954-.1036.7886-.2964 1.167-.2876.5645-.7465 1.0234-1.311 1.311-.3784.1928-.7716.2641-1.167.2964-.3745.0306-.8293.0306-1.3564.0306h-9.67716c-.52714 0-.9819 0-1.35647-.0306-.39534-.0323-.78856-.1036-1.16694-.2964-.56449-.2876-1.02343-.7465-1.31105-1.311-.19279-.3784-.26411-.7716-.29641-1.167-.0306-.3745-.03059-.8293-.03057-1.3565v-7.8385l-.4.3c-.44183.3314-1.06863.2418-1.4-.2-.331373-.44183-.24183-1.06863.2-1.4l8.08-6.06.12068-.0907c.0787-.05922.15607-.11743.23248-.17417l.60684-.45513.073-.0551c.2621-.19837.5906-.44708.9779-.54901zm-2.4909 12.28411v6.4h6v-6.4c0-.5601 0-.8401-.109-1.054-.0959-.1882-.2488-.3411-.437-.437-.2139-.109-.4939-.109-1.054-.109h-2.8c-.5601 0-.84008 0-1.05399.109-.18816.0959-.34114.2488-.43702.437-.10899.2139-.10899.4939-.10899 1.054z" fill="#801ed7" fill-rule="evenodd"/></svg>