<svg fill="none" height="24" viewBox="0 0 24 24" width="24" xmlns="http://www.w3.org/2000/svg"><path d="m14.1382 1.51695c.2286.01868.4984.06274.7698.20104.3763.19175.6823.49771.874.87403.1383.27143.1824.54116.2011.76976.017.20815.0169.45393.0169.70631v.86383c0 .25238.0001.49816-.0169.70631-.0187.2286-.0628.49833-.2011.76976-.1917.37632-.4977.68228-.874.87403-.2714.1383-.5412.18236-.7698.20104-.2081.01701-.4539.01698-.7063.01695l-9.4319-.00001v1.50001h15.4319c.2524-.00003.4982-.00006.7063.01695.2286.01868.4984.06274.7698.20104.3763.19175.6823.49771.874.874.1383.2715.1824.5412.2011.7698.017.2081.0169.4538.0169.7061v.864c0 .2523.0001.4983-.0169.7063-.0187.2286-.0628.4984-.2011.7698-.1917.3763-.4977.6823-.874.874-.2714.1383-.5412.1824-.7698.2011-.2081.017-.4539.0169-.7063.0169h-15.4319v1.5h5.4319c.25237 0 .49818 0 .7063.017.2286.0186.4984.0627.7698.201.3763.1918.6823.4977.874.874.1383.2715.1824.5412.2011.7698.017.2081.0169.4539.0169.7063v.8638c0 .2524.0001.4982-.0169.7064-.0187.2285-.0628.4983-.2011.7697-.1917.3763-.4977.6823-.874.874-.2714.1383-.5412.1824-.7698.2011-.20813.017-.45392.017-.7063.0169h-6.4319c-.55228 0-1-.4477-1-1v-19c0-.55228.44772-1 1-1h10.4319c.2524-.00003.4982-.00006.7063.01695z" fill="#801ed7"/></svg>