<svg fill="none" height="24" viewBox="0 0 24 24" width="24" xmlns="http://www.w3.org/2000/svg"><path clip-rule="evenodd" d="m15.4142 12 1.3495-1.3495c2.0722-2.07217 3.2363-4.8826 3.2363-7.81306 0-1.01479-.8227-1.83744-1.8374-1.83744h-12.32516c-1.01479 0-1.83744.82265-1.83744 1.83744 0 2.93046 1.16412 5.74089 3.23627 7.81306l1.34952 1.3495-1.34952 1.3495c-2.07215 2.0722-3.23627 4.8826-3.23627 7.8131 0 1.0147.82265 1.8374 1.83744 1.8374h12.32516c1.0147 0 1.8374-.8227 1.8374-1.8374 0-2.9305-1.1641-5.7409-3.2363-7.8131zm-2.4142-1.001c.1756.0001.2635.0001.3534-.0164.1341-.0247.2739-.0825.3862-.1599.0753-.0518.137-.1135.2604-.2369l1.3495-1.34953c1.2713-1.27128 2.1253-2.88187 2.4738-4.6189.0919-.45805.1378-.68708.0491-.94391-.0698-.20192-.2549-.42783-.4391-.53594-.2344-.13752-.5108-.13752-1.0637-.13752h-8.73917c-.5529 0-.82935 0-1.06371.13752-.18425.10811-.36934.33402-.4391.53594-.08873.25683-.04278.48586.04912.94391.34849 1.73703 1.20246 3.34762 2.47374 4.6189l1.34952 1.34953c.122.122.183.183.2572.2344.1134.0785.2542.1368.3898.1616.0887.0161.1756.0162.3492.0162z" fill="#801ed7" fill-rule="evenodd"/></svg>