<svg fill="none" height="24" viewBox="0 0 24 24" width="24" xmlns="http://www.w3.org/2000/svg"><path clip-rule="evenodd" d="m6.5682 1c-.25237-.000027-.49817-.000057-.70633.01695-.22859.01868-.49833.06274-.76975.20104-.37632.19175-.68228.49771-.87403.87403-.1383.27143-.18237.54116-.20104.76976-.01701.20815-.01698.45394-.01695.70631l-.00005 2.18974c-.00038.40689-.00071.76564.08294 1.11408.07349.30611.19471.59875.35919.86716.18724.30554.44114.55898.72913.84643l3.41458 3.4145-3.41458 3.4145c-.28798.2875-.54189.5409-.72913.8464-.16448.2685-.2857.5611-.35919.8672-.08365.3484-.08332.7072-.08294 1.1141l.00005 2.1897c-.00003.2524-.00006.4982.01695.7063.01867.2286.06274.4984.20104.7698.19175.3763.49771.6823.87403.874.27142.1383.54116.1824.76975.2011.20812.017.45386.0169.7062.0169h10.86393c.2524 0 .4982.0001.7063-.0169.2286-.0187.4984-.0628.7698-.2011.3763-.1917.6823-.4977.874-.874.1383-.2714.1824-.5412.2011-.7698.017-.2081.0169-.4539.0169-.7063l.0001-2.1897c.0003-.4069.0007-.7657-.083-1.1141-.0735-.3061-.1947-.5987-.3592-.8672-.1872-.3055-.4411-.5589-.7291-.8464l-3.4146-3.4145 3.4146-3.41451c.288-.28744.5419-.54088.7291-.84642.1645-.26841.2857-.56105.3592-.86716.0837-.34844.0833-.70719.083-1.11408l-.0001-2.18971c0-.25237.0001-.49819-.0169-.70634-.0187-.2286-.0628-.49833-.2011-.76976-.1917-.37632-.4977-.68228-.874-.87403-.2714-.1383-.5412-.18236-.7698-.20104-.2081-.017007-.4539-.016977-.7063-.01695zm10.7875 6.23016-3.3012 3.30124c-.1729.1729-.2594.2594-.3603.3212-.0895.0549-.187.0953-.2891.1198-.1151.0276-.2374.0276-.482.0276h-1.846c-.2446 0-.3669 0-.482-.0276-.1021-.0245-.1996-.0649-.2891-.1198-.1009-.0618-.1874-.1483-.36031-.3212l-3.30122-3.30124c-.37956-.37956-.44955-.45864-.49701-.53608-.05483-.08948-.09523-.18702-.11973-.28906-.0212-.08831-.02763-.19372-.02763-.7305v-2.07451c0-.29653.00078-.45879.0103-.57537l.00115-.01319.01319-.00114c.11658-.00953.27883-.0103.57536-.0103h10.8c.2965 0 .4588.00077.5754.0103l.0132.00114.0011.01319c.0095.11658.0103.27884.0103.57537v2.07451c0 .53678-.0064.64219-.0276.7305-.0245.10204-.0649.19958-.1198.28906-.0474.07744-.1174.15652-.497.53608zm-8.3557 10.26984c-.55228 0-1 .4477-1 1s.44772 1 1 1h6c.5523 0 1-.4477 1-1s-.4477-1-1-1z" fill="#801ed7" fill-rule="evenodd"/></svg>