<svg fill="none" height="24" viewBox="0 0 24 24" width="24" xmlns="http://www.w3.org/2000/svg"><path clip-rule="evenodd" d="m3 2c0-.55228.44772-1 1-1h16c.5523 0 1 .44772 1 1s-.4477 1-1 1h-.9999v1.8671c.0004.71434.0007 1.25383-.1374 1.76698-.1217.45235-.3219.8798-.5915 1.26288-.3058.43457-.7204.77973-1.2695 1.23675l-3.4396 2.86629 3.4397 2.8663c.549.457.9636.8022 1.2694 1.2367.2696.3831.4698.8106.5915 1.2629.1381.5132.1378 1.0527.1374 1.767v1.8671h.9999c.5523 0 1 .4477 1 1s-.4477 1-1 1h-16c-.55228 0-1-.4477-1-1s.44772-1 1-1h1.00008l-.00004-1.8671c-.00038-.7143-.00067-1.2538.13739-1.767.1217-.4523.32191-.8798.5915-1.2629.30584-.4345.72047-.7797 1.26949-1.2367l3.43958-2.8663-3.43959-2.86629c-.54901-.45702-.96365-.80218-1.26948-1.23675-.26959-.38308-.4698-.81053-.5915-1.26288-.13806-.51315-.13777-1.05264-.13739-1.76699l.00004-1.86709h-1.00008c-.55228 0-1-.44772-1-1zm4.00008 2.7518v-1.7518h10.00002v1.7518c0 .88051-.0081 1.13729-.0687 1.36268-.0608.22617-.161.4399-.2957.63144-.1344.19087-.3265.36143-1.0029.92512l-3.6327 3.02726-3.63272-3.02726c-.67643-.56369-.86855-.73425-1.00288-.92512-.13479-.19154-.23489-.40527-.29574-.63144-.06064-.22539-.06868-.48217-.06868-1.36268z" fill="#801ed7" fill-rule="evenodd"/></svg>