<svg fill="none" height="24" viewBox="0 0 24 24" width="24" xmlns="http://www.w3.org/2000/svg"><g clip-rule="evenodd" fill="#801ed7" fill-rule="evenodd"><path d="m5 8c0-.55228.44772-1 1-1h14c.5523 0 1 .44772 1 1 0 .55229-.4477 1-1 1h-14c-.55228 0-1-.44772-1-1z"/><path d="m7 16c0-.5523.44772-1 1-1h7c.5523 0 1 .4477 1 1s-.4477 1-1 1h-7c-.55228 0-1-.4477-1-1z"/><path d="m2 4c0-.55228.44772-1 1-1h18c.5523 0 1 .44772 1 1s-.4477 1-1 1h-18c-.55228 0-1-.44772-1-1z"/><path d="m8 12c0-.5523.44772-1 1-1h9c.5523 0 1 .4477 1 1s-.4477 1-1 1h-9c-.55228 0-1-.4477-1-1z"/><path d="m11 20c0-.5523.4477-1 1-1h5c.5523 0 1 .4477 1 1s-.4477 1-1 1h-5c-.5523 0-1-.4477-1-1z"/></g></svg>