<svg fill="none" height="24" viewBox="0 0 24 24" width="24" xmlns="http://www.w3.org/2000/svg"><path clip-rule="evenodd" d="m10 19c.3395 0 .6734-.0242 1-.0709-3.39229-.4852-6-3.4026-6-6.9291 0-4.97056 4.02944-9 9-9 4.9706 0 9 4.02944 9 9 0 .5523-.4477 1-1 1s-1-.4477-1-1c0-3.86599-3.134-7-7-7-.3395 0-.6734.02417-1 .07089 3.3923.48523 6 3.40264 6 6.92911 0 4.9706-4.0294 9-9 9-4.97056 0-9-4.0294-9-9 0-.5523.44772-1 1-1s1 .4477 1 1c0 3.866 3.13401 7 7 7zm2-9c-1.1046 0-2 .8954-2 2s.8954 2 2 2 2-.8954 2-2-.8954-2-2-2z" fill="#801ed7" fill-rule="evenodd"/></svg>