<svg fill="none" height="24" viewBox="0 0 24 24" width="24" xmlns="http://www.w3.org/2000/svg"><g clip-rule="evenodd" fill="#801ed7" fill-rule="evenodd"><path d="m6.52994 20.2573c.13414-.5357.67719-.8613 1.21294-.7272 1.16162.2909 2.63672.4699 4.25712.4699s3.0955-.179 4.2571-.4699c.5358-.1341 1.0788.1915 1.213.7272.1341.5358-.1915 1.0788-.7272 1.2129-1.3454.3369-2.9865.5298-4.7429.5298s-3.39752-.1929-4.74288-.5298c-.53575-.1341-.86132-.6771-.72718-1.2129z"/><path d="m5.06449 16.0772c.19513-.5166.77215-.7773 1.28882-.5822 1.32016.4986 3.33709.8383 5.64669.8383s4.3265-.3397 5.6467-.8383c.5167-.1951 1.0937.0656 1.2888.5822.1951.5167-.0655 1.0937-.5822 1.2889-1.6116.6086-3.8841.9672-6.3533.9672-2.46917 0-4.7417-.3586-6.35331-.9672-.51666-.1952-.77732-.7722-.5822-1.2889z"/><path d="m3.65129 11.139c.29209-.4687.90885-.6119 1.37757-.3199 1.19407.7441 3.78949 1.3476 6.97114 1.3476 3.1817 0 5.7771-.6035 6.9711-1.3476.4688-.292 1.0855-.1488 1.3776.3199s.1489 1.0855-.3198 1.3776c-1.6688 1.0398-4.7168 1.6501-8.0289 1.6501-3.31212 0-6.36008-.6103-8.02886-1.6501-.46873-.2921-.61193-.9089-.31985-1.3776z"/><path d="m5.31981 2.93c1.7556-.5852 4.11734-.93 6.68019-.93 2.5629 0 4.9246.3448 6.6802.93.8726.29085 1.6508.65923 2.2315 1.11685.5694.44874 1.0883 1.1012 1.0883 1.95315s-.5189 1.50441-1.0883 1.95315c-.5807.45762-1.3589.826-2.2315 1.11685-1.7556.5852-4.1173.93-6.6802.93-2.56285 0-4.92459-.3448-6.68019-.93-.87257-.29085-1.65085-.65923-2.23152-1.11685-.5694-.44874-1.08829-1.1012-1.08829-1.95315s.51889-1.50441 1.08829-1.95315c.58067-.45762 1.35895-.826 2.23152-1.11685z"/></g></svg>