<svg fill="none" height="24" viewBox="0 0 24 24" width="24" xmlns="http://www.w3.org/2000/svg"><g clip-rule="evenodd" fill="#801ed7" fill-rule="evenodd"><path d="m8.5 5.5c-1.65685 0-3 1.34315-3 3 0 1.6569 1.34315 3 3 3 1.6569 0 3-1.3431 3-3 0-1.65685-1.3431-3-3-3z"/><path d="m7.7587 2h8.4826c.805-.00001 1.4693-.00002 2.0105.04419.5621.04593 1.0788.14449 1.5642.39179.7526.38349 1.3645.99541 1.748 1.74806.2473.48533.3459 1.00204.3918 1.56414.0442.54121.0442 1.20559.0442 2.01059v7.23053l.0001.0105v1.2414c0 .8049 0 1.4693-.0442 2.0105-.0269.3288-.0718.6421-.1539.9426-.0407.1491-.0906.295-.152.4382-.0265.0616-.0551.1228-.086.1835-.3835.7526-.9954 1.3645-1.748 1.748-.4854.2473-1.0021.3459-1.5642.3918-.5412.0442-1.2055.0442-2.0105.0442h-8.49142c-.11863 0-.23419 0-.34676-.0001h-.50893c-.27038 0-.53614 0-.75011-.0189l-.02188-.002c-.13072-.0059-.25533-.0135-.37402-.0232-.5621-.0459-1.07881-.1445-1.56414-.3918-.75265-.3835-1.36457-.9954-1.74806-1.748-.2473-.4854-.34586-1.0021-.39179-1.5642-.04421-.5412-.0442-1.2055-.04419-2.0105v-8.4826c-.00001-.80496-.00002-1.46933.04419-2.01052.04593-.5621.14449-1.07881.39179-1.56414.38349-.75265.99541-1.36457 1.74806-1.74806.48533-.2473 1.00204-.34586 1.56414-.39179.54119-.04421 1.20556-.0442 2.01052-.04419zm12.2413 5.8v4.7856l-2.184-2.1841c-.1785-.1784-.3522-.3523-.5115-.48741-.1748-.14844-.3967-.30801-.6864-.40214-.4017-.13052-.8344-.13052-1.2361 0-.2897.09413-.5116.25371-.6864.40214-.1592.13511-.333.30901-.5115.48741l-8.5518 8.5519c-.19121.1911-.37916.379-.51705.5437-.0426.0509-.10004.1213-.15832.2094-.3145-.1923-.57069-.4683-.73894-.7985-.07969-.1564-.14462-.3806-.18044-.819-.03677-.4501-.03755-1.0324-.03755-1.889v-8.4c0-.85658.00078-1.43887.03755-1.88896.03582-.43842.10075-.66262.18044-.81902.19174-.37632.49771-.68229.87403-.87403.1564-.07969.3806-.14462.81902-.18044.45009-.03677 1.03238-.03755 1.88896-.03755h8.4c.8566 0 1.4389.00078 1.889.03755.4384.03582.6626.10075.819.18044.3763.19174.6823.49771.874.87403.0797.1564.1446.3806.1804.81902.0368.45009.0376 1.03238.0376 1.88896z"/></g></svg>