<svg fill="none" height="24" viewBox="0 0 24 24" width="24" xmlns="http://www.w3.org/2000/svg"><g fill="#801ed7"><path d="m18 2c-2.2091 0-4 1.79086-4 4s1.7909 4 4 4 4-1.79086 4-4-1.7909-4-4-4z"/><path d="m17.7662 11.9553c-.4905-.2034-1.0418-.2034-1.5323 0-.3711.1539-.6248.4213-.8077.6481-.1608.1994-.3329.4541-.5173.7304l-2.7935-4.03508c-.2017-.29134-.3896-.56287-.564-.7717-.1832-.21929-.4348-.4752-.7982-.62295-.4829-.19631-1.02343-.19631-1.50635 0-.36347.14775-.61508.40366-.79821.62295-.1744.20884-.36233.48035-.564.7717l-5.99338 8.65708c-.26025.3759-.49357.7129-.6551.9988-.1609.2848-.347238.678-.32534 1.1401.027917.589.31436 1.1357.78277 1.494.36744.281.79684.3516 1.12259.3814.327.03.73682.0299 1.19396.0299h14.98986.0107 1.043c.4484 0 .8515 0 1.174-.0295.3226-.0296.7458-.0997 1.1104-.3755.4664-.3528.755-.8921.7899-1.4758.0272-.4564-.1492-.8474-.3036-1.1323-.1542-.2846-.3779-.6201-.6267-.9932l-3.0565-4.5847c-.2034-.3052-.3921-.5883-.5673-.8056-.183-.2268-.4366-.4942-.8077-.6481z"/></g></svg>