<svg fill="none" height="24" viewBox="0 0 24 24" width="24" xmlns="http://www.w3.org/2000/svg"><g clip-rule="evenodd" fill="#801ed7" fill-rule="evenodd"><path d="m5.5 8.5c0-1.65685 1.34315-3 3-3 1.6569 0 3 1.34315 3 3 0 1.6569-1.3431 3-3 3-1.65685 0-3-1.3431-3-3z"/><path d="m12 1c-6.07513 0-11 4.92487-11 11 0 6.0751 4.92487 11 11 11 6.0751 0 11-4.9249 11-11 0-6.07513-4.9249-11-11-11zm-9 11c0-4.97056 4.02944-9 9-9 4.9706 0 9 4.02944 9 9 0 .4994-.0407.9894-.1189 1.4667l-3.0651-3.0651c-.1784-.1785-.3523-.3524-.5115-.48751-.1748-.14844-.3967-.30801-.6864-.40214-.4017-.13052-.8344-.13052-1.2361 0-.2897.09413-.5116.2537-.6864.40214-.1592.13511-.333.30901-.5115.48741l-8.24852 8.2486c-1.80381-1.6459-2.93558-4.0158-2.93558-6.6501z"/></g></svg>