<svg fill="none" height="24" viewBox="0 0 24 24" width="24" xmlns="http://www.w3.org/2000/svg"><g fill="#801ed7"><path clip-rule="evenodd" d="m5.5 8.5c0-1.65685 1.34315-3 3-3 1.6569 0 3 1.34315 3 3 0 1.6569-1.3431 3-3 3-1.65685 0-3-1.3431-3-3z" fill-rule="evenodd"/><path clip-rule="evenodd" d="m12.5 2h-4.7413c-.80496-.00001-1.46933-.00002-2.01052.04419-.5621.04593-1.07881.14449-1.56414.39179-.75265.38349-1.36457.99541-1.74806 1.74806-.2473.48533-.34586 1.00204-.39179 1.56414-.04421.54119-.0442 1.20554-.04419 2.01051v8.48261c-.00001.805-.00002 1.4693.04419 2.0105.04593.5621.14449 1.0788.39179 1.5642.38349.7526.99541 1.3645 1.74806 1.748.48533.2473 1.00204.3459 1.56414.3918.17538.0143.3637.024.56556.0306.20931.0139.45966.0138.7177.0138 3.32286 0 6.64566-.0002 9.96856-.0002h.1376c.7954.0005 1.386.0008 1.8977-.1363 1.3803-.3699 2.4585-1.4481 2.8284-2.8284.1753-.6543.1365-1.3548.1363-2.0258.0018-.1893.0001-.3787.0001-.568.0005-.4689.001-.8821-.1078-1.2768-.0954-.3465-.2524-.673-.4633-.964-.2403-.3315-.5632-.5893-.9297-.8818l-2.831-2.2648c-.1699-.1359-.3379-.2703-.4904-.3744-.1696-.1158-.3784-.2361-.6397-.3031-.3673-.0942-.7539-.082-1.1145.0352-.2566.0833-.4574.2165-.6194.3427-.1457.1136-.3048.2583-.4658.4047l-8.50804 7.7346c-.21348.194-.41985.3816-.57156.5457-.06083.0659-.15323.1682-.23961.3035-.34302-.1929-.62206-.4832-.8013-.835-.07969-.1564-.14462-.3806-.18044-.819-.03677-.4501-.03755-1.0324-.03755-1.889v-8.4c0-.85658.00078-1.43887.03755-1.88896.03582-.43842.10075-.66262.18044-.81902.19174-.37632.49771-.68229.87403-.87403.1564-.07969.3806-.14462.81902-.18044.45009-.03677 1.03238-.03755 1.88896-.03755h4.7c.5523 0 1-.44771 1-1 0-.55228-.4477-1-1-1z" fill-rule="evenodd"/><path d="m17.2071 1.79289c-.3905-.39052-1.0237-.39052-1.4142 0-.3905.39053-.3905 1.02369 0 1.41422l1.7929 1.79289-1.7929 1.79289c-.3905.39053-.3905 1.02369 0 1.41422.3905.39052 1.0237.39052 1.4142 0l1.7929-1.7929 1.7929 1.7929c.3905.39052 1.0237.39052 1.4142 0 .3905-.39053.3905-1.02369 0-1.41422l-1.7929-1.79289 1.7929-1.79289c.3905-.39053.3905-1.02369 0-1.41422-.3905-.39052-1.0237-.39052-1.4142 0l-1.7929 1.7929z"/></g></svg>