<svg fill="none" height="24" viewBox="0 0 24 24" width="24" xmlns="http://www.w3.org/2000/svg"><g clip-rule="evenodd" fill="#801ed7" fill-rule="evenodd"><path d="m8 6c-1.65685 0-3 1.34315-3 3 0 1.6569 1.34315 3 3 3s3-1.3431 3-3c0-1.65685-1.34315-3-3-3z"/><path d="m17.2413 2h-10.4826c-.80496-.00001-1.46933-.00002-2.01052.04419-.5621.04593-1.07881.14449-1.56414.39179-.75265.38349-1.36457.99541-1.74806 1.74806-.2473.48533-.34586 1.00204-.39179 1.56414-.044212.54119-.044202 1.20554-.04419 2.01051v8.48261c-.000012.805-.000022 1.4693.04419 2.0105.04593.5621.14449 1.0788.39179 1.5642.38349.7526.99541 1.3645 1.74806 1.748.48533.2473 1.00204.3459 1.56414.3918.11869.0097.2433.0173.37402.0232.00756.0007.01486.0014.02188.002.21397.0189.47973.0189.75011.0189l.50631-.0001c.11617.0002.23554.0002.35818.0002h10.48262c.1217 0 .2402 0 .3555-.0001h.5091c.2704 0 .5362 0 .7501-.0189.0071-.0007.0144-.0013.022-.002.1307-.0059.2552-.0135.3738-.0232.5621-.0459 1.0788-.1445 1.5642-.3918.7526-.3835 1.3645-.9954 1.748-1.748.2473-.4854.3459-1.0021.3918-1.5642.0442-.5412.0442-1.2055.0442-2.0105v-1.2405-.0019-7.24022c0-.80496 0-1.46931-.0442-2.0105-.0459-.5621-.1445-1.07881-.3918-1.56414-.3835-.75265-.9954-1.36457-1.748-1.74806-.4854-.2473-1.0021-.34586-1.5642-.39179-.5412-.04421-1.2055-.0442-2.0105-.04419zm3.7587 10.5856v-4.7856c0-.85658-.0008-1.43887-.0376-1.88896-.0358-.43842-.1007-.66262-.1804-.81902-.1917-.37632-.4977-.68229-.874-.87403-.1564-.07969-.3806-.14462-.819-.18044-.4501-.03677-1.0324-.03755-1.889-.03755h-10.4c-.85658 0-1.43887.00078-1.88896.03755-.43842.03582-.66262.10075-.81902.18044-.37632.19174-.68229.49771-.87403.87403-.07969.1564-.14462.3806-.18044.81902-.03677.45009-.03755 1.03238-.03755 1.88896v8.4c0 .8566.00078 1.4389.03755 1.889.03582.4384.10075.6626.18044.819.16825.3302.42444.6062.73894.7985.05828-.0881.11572-.1585.15832-.2094.13788-.1647.32581-.3525.51701-.5437l5.55184-5.5518c.1785-.1785.3523-.3523.5115-.4875.1748-.1484.3967-.308.6864-.4022.4017-.1305.8344-.1305 1.2361 0 .2897.0942.5116.2538.6864.4022.1593.1351.333.309.5115.4874l.184.1841 2.1841-2.184c.1784-.1785.3522-.3523.5114-.4875.1749-.1484.3967-.308.6865-.4022.4017-.1305.8343-.1305 1.236 0 .2897.0942.5116.2538.6865.4022.1592.1352.333.309.5114.4875z"/></g></svg>