<svg fill="none" height="24" viewBox="0 0 24 24" width="24" xmlns="http://www.w3.org/2000/svg"><g fill="#801ed7"><path d="m8.81414 2.99994c-.9277-.00062-1.62708-.0011-2.26428.21869-.5605.19333-1.07101.50884-1.49459.92371-.48155.47164-.7939 1.09739-1.20822 1.92743-.50842 1.01688-1.33145 2.66605-1.88414 3.77379-.19095.38274-.28643.57404-.26332.72984.02017.136.09545.2576.20812.3364.12903.0902.34312.0902.7713.0902h3.20298c1.06397 0 2.03663.6011 2.51246 1.5528.13704.2741.41717.4472.7236.4472h5.76395c.3064 0 .5866-.1731.7236-.4472.4758-.9517 1.4485-1.5528 2.5125-1.5528h3.203c.4281 0 .6422 0 .7713-.0902.1126-.0788.1879-.2004.2081-.3364.0231-.1558-.0724-.3471-.2633-.72984-.5527-1.10774-1.3757-2.7569-1.8842-3.77378-.4143-.83004-.7266-1.4558-1.2082-1.92744-.4236-.41487-.9341-.73038-1.4946-.92371-.6372-.21979-1.3366-.21931-2.2643-.21869z"/><path d="m23.0001 14.5996c0-.5597 0-.8396-.1089-1.0535-.0959-.1882-.2489-.3412-.4371-.4371-.2139-.109-.4938-.109-1.0537-.109h-3.2823c-.3065 0-.5866.1731-.7237.4472-.4758.9517-1.4484 1.5528-2.5124 1.5528h-5.76395c-1.06397 0-2.03663-.6011-2.51246-1.5528-.13704-.2741-.41717-.4472-.7236-.4472h-3.28237c-.55984 0-.83977 0-1.05369.109-.18813.0959-.34117.2489-.43702.4371-.108985.2139-.108959.4938-.10891 1.0535.00002.2139.00004.4278.00004.6417-.00001.805-.00002 1.4693.04419 2.0105.04593.5621.14449 1.0788.39178 1.5642.3835.7526.99542 1.3645 1.74807 1.748.48533.2473 1.00204.3459 1.56413.3918.54119.0442 1.20555.0442 2.01051.0442h10.48268c.8049 0 1.4693 0 2.0105-.0442.5621-.0459 1.0788-.1445 1.5641-.3918.7527-.3835 1.3646-.9954 1.7481-1.748.2473-.4854.3458-1.0021.3917-1.5642.0443-.5412.0443-1.2055.0442-2.0105 0-.2139.0001-.4278.0001-.6417z"/></g></svg>