<svg fill="none" height="24" viewBox="0 0 24 24" width="24" xmlns="http://www.w3.org/2000/svg"><path clip-rule="evenodd" d="m5.43899 7c-1.47489 0-2.62191.65911-3.37362 1.64282-.73057.95603-1.06513 2.18118-1.06513 3.35718s.33456 2.4012 1.06513 3.3572c.75171.9837 1.89873 1.6428 3.37362 1.6428 2.86937 0 4.90371-1.7936 6.56111-3.5342 1.6574 1.7406 3.6918 3.5342 6.5611 3.5342 1.4749 0 2.622-.6591 3.3737-1.6428.7305-.956 1.0651-2.1812 1.0651-3.3572s-.3346-2.40115-1.0651-3.35718c-.7517-.98371-1.8988-1.64282-3.3737-1.64282-2.8694 0-4.9037 1.7936-6.5611 3.5343-1.6573-1.7407-3.69169-3.5343-6.56111-3.5343zm0 8c-.8176 0-1.38996-.3409-1.78449-.8572-.41569-.544-.65426-1.3188-.65426-2.1428s.23857-1.5988.65426-2.14282c.39453-.51629.96689-.85718 1.78449-.85718 2.03934 0 3.54774 1.2728 5.19201 3-1.64434 1.7272-3.15271 3-5.19201 3zm13.12221 0c.8177 0 1.39-.3409 1.7845-.8572.4157-.544.6543-1.3188.6543-2.1428s-.2386-1.5988-.6543-2.14282c-.3945-.51629-.9668-.85718-1.7845-.85718-2.0393 0-3.5477 1.2728-5.192 3 1.6444 1.7272 3.1528 3 5.192 3z" fill="#801ed7" fill-rule="evenodd"/></svg>