<svg fill="none" height="24" viewBox="0 0 24 24" width="24" xmlns="http://www.w3.org/2000/svg"><path clip-rule="evenodd" d="m11.5971 1.18505c.2658-.05467.54-.05467.8058 0 .3073.06319.5819.21702.8003.33931l.0595.03325 7.4 4.11111.0631.03487c.2311.12731.5218.28738.7449.52956.193.20938.339.45754.4283.7279.1033.3127.1021.64448.1012.90835l-.0002.07213v8.11707l.0002.0722c.0009.2638.0021.5956-.1012.9083-.0893.2704-.2353.5185-.4283.7279-.2231.2422-.5137.4022-.7448.5296l-.0632.0348-7.4 4.1112-.0595.0332c-.2184.1223-.493.2761-.8003.3393-.2658.0547-.54.0547-.8058 0-.3073-.0632-.5819-.217-.8003-.3393l-.0595-.0332-7.39997-4.1112-.06313-.0348c-.23113-.1273-.52177-.2874-.74493-.5296-.19295-.2094-.33897-.4575-.4283-.7279-.10332-.3127-.10211-.6445-.10115-.9083l.00018-.0722v-8.11707l-.00018-.07213c-.00096-.26387-.00217-.59565.10115-.90835.08933-.27036.23535-.51852.4283-.7279.22317-.24218.51379-.40225.74492-.52956l.06314-.03487 7.39997-4.11111.0595-.03325c.2184-.12229.493-.27612.8003-.33931zm.4029 9.81495c.5523 0 1 .4477 1 1v4c0 .5523-.4477 1-1 1s-1-.4477-1-1v-4c0-.5523.4477-1 1-1zm0-4c-.5523 0-1 .44772-1 1s.4477 1 1 1h.01c.5523 0 1-.44772 1-1s-.4477-1-1-1z" fill="#801ed7" fill-rule="evenodd"/></svg>