<svg fill="none" height="24" viewBox="0 0 24 24" width="24" xmlns="http://www.w3.org/2000/svg"><g fill="#801ed7"><path d="m1 9c0-4.41828 3.58172-8 8-8 3.8003 0 6.9817 2.64986 7.7973 6.2027-.5777-.13263-1.1793-.2027-1.7973-.2027-4.4183 0-8 3.5817-8 8 0 .618.07007 1.2196.2027 1.7973-3.55284-.8156-6.2027-3.997-6.2027-7.7973z"/><path d="m7.2027 16.7973c.57772.1326 1.17933.2027 1.7973.2027 4.4183 0 8-3.5817 8-8 0-.61797-.0701-1.21958-.2027-1.7973 3.5528.8156 6.2027 3.997 6.2027 7.7973 0 4.4183-3.5817 8-8 8-3.8003 0-6.9817-2.6499-7.7973-6.2027z"/></g></svg>