<svg fill="none" height="24" viewBox="0 0 24 24" width="24" xmlns="http://www.w3.org/2000/svg"><path clip-rule="evenodd" d="m7.99995 9c0-3.86599 3.13405-7 6.99995-7 3.866 0 7 3.13401 7 7 0 3.866-3.134 7-7 7-.3183 0-.6322-.0213-.9402-.0627-.225-.0303-.3658-.049-.4685-.0589-.0183-.0018-.0333-.0031-.0454-.0039l-.0099.0088c-.0534.0488-.1238.1188-.2497.2447l-5.11052 5.1105-.03601.0361c-.13393.1347-.30258.3042-.50894.4307-.17894.1096-.37403.1904-.57811.2394-.23533.0565-.47447.0559-.66438.0554l-.05103-.0001h-1.7693c-.25232 0-.49808.0001-.70619-.0169-.2286-.0187-.49833-.0628-.76975-.2011-.37633-.1917-.68229-.4977-.87404-.874-.13829-.2714-.18236-.5412-.20104-.7698-.01701-.2081-.01698-.4539-.01695-.7063l.00001-1.7692-.0001-.051c-.0005-.1899-.00114-.429.05536-.6644.04899-.204.1298-.3991.23946-.5781.12645-.2063.29599-.375.43064-.5089l.03616-.036 5.1105-5.1105c.12592-.126.19592-.1963.24463-.2498l.00889-.0099c-.00088-.0121-.00213-.0271-.0039-.0454-.00991-.1026-.02867-.2434-.05892-.46842-.0414-.308-.06272-.62192-.06272-.94028zm7.00005 1.5c.8284 0 1.5-.67157 1.5-1.5s-.6716-1.5-1.5-1.5-1.5.67157-1.5 1.5.6716 1.5 1.5 1.5z" fill="#801ed7" fill-rule="evenodd"/></svg>