<svg fill="none" height="24" viewBox="0 0 24 24" width="24" xmlns="http://www.w3.org/2000/svg"><path clip-rule="evenodd" d="m14.9999 2c-3.8659 0-6.99995 3.13401-6.99995 7 0 .31836.02132.63228.06272.94028.03025.22502.04901.36582.05892.46842.00177.0183.00302.0333.0039.0454l-.00889.0099c-.04871.0535-.11871.1238-.24463.2498l-5.1105 5.1105-.03616.036c-.13465.1339-.30419.3026-.43064.5089-.10966.179-.19047.3741-.23946.5781-.0565.2354-.05586.4745-.05536.6644l.0001.051-.00001 1.7692c-.00003.2524-.00006.4982.01695.7063.01868.2286.06275.4984.20104.7698.19175.3763.49771.6823.87404.874.27142.1383.54115.1824.76975.2011.20812.017.45386.0169.70619.0169h2.43204c.55228 0 1-.4477 1-1v-1h1c.55228 0 1-.4477 1-1v-1h.99995c.2653 0 .5196-.1054.7072-.2929l1.5791-1.5791c.1259-.1259.1963-.1959.2497-.2447l.0099-.0088c.0121.0008.0271.0021.0454.0039.1027.0099.2435.0286.4685.0589.308.0414.6219.0627.9402.0627 3.866 0 7-3.134 7-7 0-3.86599-3.134-7-7-7zm.0002 5.99981c.2575 0 .5116.09744.7071.2929.1955.19545.2929.44961.2929.70707 0 .55229.4477.99999 1 .99998.5523-.00002 1-.44775 1-1.00003 0-.76619-.2931-1.53567-.8787-2.12124-.5856-.58559-1.3551-.87868-2.1213-.87868-.5523 0-1 .44772-1 1 0 .55229.4477 1 1 1z" fill="#801ed7" fill-rule="evenodd"/></svg>