<svg fill="none" height="24" viewBox="0 0 24 24" width="24" xmlns="http://www.w3.org/2000/svg"><g fill="#801ed7"><path d="m6.16135 3h11.67705c.5272-.00002.982-.00003 1.3565.03057.3954.0323.7886.10362 1.167.29641.5645.28762 1.0234.74657 1.311 1.31105.1928.37838.2641.7716.2964 1.16695.0306.37456.0306.82932.0306 1.35646v6.23846c0 .5601 0 .8401-.109 1.054-.0959.1882-.2489.3412-.437.4371-.2139.1089-.494.1089-1.054.1089h-4.7373-.051c-.1899-.0006-.4291-.0012-.6644.0553-.2041.049-.3991.1298-.5781.2395-.2063.1264-.375.296-.5089.4306-.1767.177-.419.2722-.6691.2722h-2.3824c-.2501 0-.4924-.0952-.6691-.2722-.1339-.1346-.30257-.3042-.50893-.4306-.17894-.1097-.37403-.1905-.5781-.2395-.23533-.0565-.47447-.0559-.66438-.0553h-.05104-4.73726c-.56005 0-.84008 0-1.05399-.1089-.18816-.0959-.34114-.2489-.43701-.4371-.109-.2139-.109-.4939-.109-1.054v-6.23844c-.00002-.52715-.00003-.98191.03057-1.35648.0323-.39535.10362-.78857.29641-1.16695.28762-.56448.74657-1.02343 1.31105-1.31105.37838-.19279.7716-.26411 1.16695-.29641.37455-.0306.82936-.03059 1.35648-.03057z"/><path d="m2.53384 17.0004c-.54195-.0001-.81293-.0002-1.04249.1299-.17872.1013-.3665.3193-.44024.511-.094716.2463-.062539.4609.00181.89.01341.0894.02961.1724.0491.2452.27741 1.0353 1.08605 1.8439 2.12133 2.1213.38552.1033.82355.1029 1.33128.1023h14.89037c.5077.0006.9457.001 1.3313-.1023 1.0352-.2774 1.8439-1.086 2.1213-2.1213.0194-.0724.0354-.1553.0487-.2449.0638-.4301.0957-.6452.0007-.8912-.074-.1916-.2616-.409-.4404-.5101-.2295-.1299-.5007-.1297-1.0432-.1293l-5.6672.0037c-.2469.0002-.4822.0952-.6566.2699-.1339.1346-.3026.3042-.5089.4306-.179.1097-.3741.1905-.5781.2395-.2354.0565-.4745.0558-.6644.0553l-.0511-.0001h-2.6745l-.051.0001c-.1899.0005-.4291.0012-.66439-.0553-.20407-.049-.39916-.1298-.5781-.2395-.20635-.1264-.375-.296-.50893-.4306-.17652-.1772-.41899-.2723-.66908-.2724z"/></g></svg>