<svg fill="none" height="24" viewBox="0 0 24 24" width="24" xmlns="http://www.w3.org/2000/svg"><g fill="#801ed7"><path d="m6.16136 3h11.67714c.5271-.00002.9819-.00003 1.3564.03057.3954.0323.7886.10362 1.167.29641.5645.28762 1.0234.74657 1.311 1.31105.1928.37838.2641.7716.2964 1.16695.0306.37456.0306.82932.0306 1.35646v6.23856c0 .5601 0 .8401-.109 1.054-.0959.1882-.2488.3411-.437.437-.2139.109-.4939.109-1.054.109h-16.79999c-.56006 0-.84008 0-1.05399-.109-.18817-.0959-.34115-.2488-.43702-.437-.10899-.2139-.10899-.4939-.10899-1.054l-.00001-6.23854c-.00001-.52715-.00003-.98191.03058-1.35648.0323-.39535.10361-.78857.29641-1.16695.28762-.56448.74656-1.02343 1.31104-1.31105.37838-.19279.7716-.26411 1.16695-.29641.37455-.0306.82936-.03059 1.35648-.03057z"/><path d="m2.4161 17c-.47806 0-.71709 0-.949.1338-.17053.0983-.3722.3383-.43972.5232-.091819.2515-.061127.4271.00026.7782.02098.12.04594.2346.07453.3413.2774 1.0353 1.08604 1.8439 2.12132 2.1213.38553.1033.82356.1029 1.33128.1023h14.89033c.5077.0006.9458.001 1.3313-.1023 1.0353-.2774 1.8439-1.086 2.1213-2.1213.0285-.1063.0534-.2206.0743-.3404.0614-.3519.0921-.5279.0002-.7793-.0676-.185-.2691-.4247-.4397-.5231-.2319-.1337-.4713-.1337-.9499-.1337z"/></g></svg>