<svg fill="none" height="24" viewBox="0 0 24 24" width="24" xmlns="http://www.w3.org/2000/svg"><g fill="#801ed7"><path clip-rule="evenodd" d="m11.7234 3.57577c.1828-.0343.3704-.0343.5532 0 .2164.04061.4095.13914.5028.18675.0096.0049.0182.00927.0256.01297l9.6422 4.82111c.3388.1694.5528.51566.5528.89443s-.214.72507-.5528.89447l-9.6422 4.8211c-.0074.0037-.016.008-.0256.0129-.0933.0477-.2864.1462-.5028.1868-.1828.0343-.3704.0343-.5532 0-.2164-.0406-.4095-.1391-.5028-.1868-.0096-.0049-.0182-.0092-.0256-.0129l-9.64221-4.8211c-.33879-.1694-.55279-.5157-.55279-.89447s.214-.72503.55279-.89443l9.64221-4.82111c.0074-.0037.016-.00807.0256-.01297.0933-.04761.2864-.14614.5028-.18675z" fill-rule="evenodd"/><path d="m2.52769 13.109-.9749.4875c-.33879.1694-.55279.5157-.55279.8944 0 .3788.214.7251.55279.8945l9.64221 4.8211.0256.0129c.0933.0476.2864.1462.5028.1868.1828.0343.3704.0343.5532 0 .2164-.0406.4095-.1391.5028-.1868l.0256-.0129 9.6422-4.8211c.3388-.1694.5528-.5157.5528-.8945 0-.3787-.214-.725-.5528-.8944l-.9749-.4875-7.7729 3.8865-.0118.0059c-.0488.0245-.1689.0848-.2891.1371-.1603.0698-.42.1711-.7531.2336-.4265.08-.8643.08-1.2908 0-.3331-.0625-.5928-.1638-.7531-.2336-.1202-.0523-.2403-.1126-.2891-.1371l-.0118-.0059z"/></g></svg>