<svg fill="none" height="24" viewBox="0 0 24 24" width="24" xmlns="http://www.w3.org/2000/svg"><g clip-rule="evenodd" fill="#801ed7" fill-rule="evenodd"><path d="m1.10555 11.5529c.24699-.494.84766-.6943 1.34164-.4473l9.55281 4.7764 9.5528-4.7764c.4939-.247 1.0946-.0467 1.3416.4473.247.4939.0468 1.0946-.4472 1.3416l-9.6422 4.8211c-.0074.0037-.016.0081-.0256.013-.0933.0476-.2864.1461-.5028.1867-.1828.0343-.3704.0343-.5532 0-.2165-.0406-.4095-.1391-.5028-.1867-.0097-.0049-.0182-.0093-.0256-.013l-9.64224-4.8211c-.49398-.247-.694202-.8477-.44721-1.3416z"/><path d="m1.10555 16.5529c.24699-.494.84766-.6943 1.34164-.4473l9.55281 4.7764 9.5528-4.7764c.4939-.247 1.0946-.0467 1.3416.4473.247.4939.0468 1.0946-.4472 1.3416l-9.6422 4.8211c-.0074.0037-.016.0081-.0256.013-.0933.0476-.2864.1461-.5028.1867-.1828.0343-.3704.0343-.5532 0-.2165-.0406-.4095-.1391-.5028-.1867-.0097-.0049-.0182-.0093-.0256-.013l-9.64224-4.8211c-.49398-.247-.694202-.8477-.44721-1.3416z"/><path d="m11.7234 1.0848c.1828-.03429.3704-.03429.5532 0 .2164.04061.4095.13914.5028.18675.0096.00491.0182.00927.0256.01297l9.6422 4.82112c.3388.16939.5528.51565.5528.89442 0 .37878-.214.72504-.5528.89443l-9.6422 4.82111c-.0074.0037-.016.0081-.0256.013-.0933.0476-.2864.1461-.5028.1867-.1828.0343-.3704.0343-.5532 0-.2165-.0406-.4095-.1391-.5028-.1867-.0097-.0049-.0182-.0093-.0256-.013l-9.64224-4.82111c-.33878-.16939-.552785-.51565-.552785-.89443 0-.37877.214005-.72503.552785-.89442l9.64224-4.82112c.0074-.0037.016-.00807.0256-.01297.0933-.04761.2863-.14614.5028-.18675z"/></g></svg>