<svg fill="none" height="24" viewBox="0 0 24 24" width="24" xmlns="http://www.w3.org/2000/svg"><path clip-rule="evenodd" d="m11.7234 6.0848c.1828-.03429.3704-.03429.5532 0 .2164.04061.4095.13914.5028.18675.0096.00491.0182.00927.0256.01297l9.6422 4.82108c.3388.1694.5528.5157.5528.8945 0 .3787-.214.725-.5528.8944l-9.6422 4.8211c-.0074.0037-.016.0081-.0256.013-.0933.0476-.2864.1461-.5028.1867-.1828.0343-.3704.0343-.5532 0-.2164-.0406-.4095-.1391-.5028-.1867-.0096-.0049-.0182-.0093-.0256-.013l-9.64221-4.8211c-.33879-.1694-.55279-.5157-.55279-.8944 0-.3788.214-.7251.55279-.8945l9.64221-4.82108c.0074-.0037.016-.00807.0256-.01297.0933-.04761.2864-.14614.5028-.18675z" fill="#801ed7" fill-rule="evenodd"/></svg>