<svg fill="none" height="24" viewBox="0 0 24 24" width="24" xmlns="http://www.w3.org/2000/svg"><g fill="#801ed7"><path clip-rule="evenodd" d="m11.7234 1.0848c.1828-.03429.3704-.03429.5532 0 .2164.04061.4095.13914.5028.18675.0096.00491.0182.00927.0256.01297l9.6422 4.82112c.3388.16939.5528.51565.5528.89442 0 .37878-.214.72504-.5528.89443l-9.6422 4.82111c-.0074.0037-.016.0081-.0256.013-.0933.0476-.2864.1461-.5028.1867-.1828.0343-.3704.0343-.5532 0-.2164-.0406-.4095-.1391-.5028-.1867-.0096-.0049-.0182-.0093-.0256-.013l-9.64221-4.82111c-.33879-.16939-.55279-.51565-.55279-.89443 0-.37877.214-.72503.55279-.89442l9.64221-4.82112c.0074-.0037.016-.00807.0256-.01297.0933-.04761.2864-.14614.5028-.18675z" fill-rule="evenodd"/><path d="m2.52769 10.6181-.9749.4874c-.33879.1694-.55279.5157-.55279.8945 0 .3787.214.725.55279.8944l9.64221 4.8211.0256.013c.0933.0476.2864.1461.5028.1867.1828.0343.3704.0343.5532 0 .2164-.0406.4095-.1391.5028-.1867l.0256-.013 9.6422-4.8211c.3388-.1694.5528-.5157.5528-.8944 0-.3788-.214-.7251-.5528-.8945l-.9749-.4874-7.7729 3.8864-.0118.0059c-.0488.0246-.1689.0848-.2891.1371-.1603.0698-.42.1711-.7531.2336-.4265.08-.8643.08-1.2908 0-.3331-.0625-.5928-.1638-.7531-.2336-.1202-.0523-.2403-.1125-.2891-.1371l-.0118-.0059z"/><path d="m2.52784 15.618-.97505.4875c-.33879.1694-.55279.5157-.55279.8945 0 .3787.214.725.55279.8944l9.64221 4.8211.0256.013c.0933.0476.2864.1461.5028.1867.1828.0343.3704.0343.5532 0 .2164-.0406.4095-.1391.5028-.1867l.0256-.013 9.6422-4.8211c.3388-.1694.5528-.5157.5528-.8944 0-.3788-.214-.7251-.5528-.8945l-.975-.4875-7.7728 3.8864-.0118.0059c-.0488.0245-.1689.0848-.2891.1371-.1603.0698-.42.1711-.7531.2336-.4265.08-.8643.08-1.2908 0-.3331-.0625-.5928-.1638-.7531-.2336-.1202-.0523-.2403-.1126-.2891-.1371l-.0118-.0059z"/></g></svg>