<svg fill="none" height="24" viewBox="0 0 24 24" width="24" xmlns="http://www.w3.org/2000/svg"><g fill="#801ed7"><path d="m3 3c-.55228 0-1 .44772-1 1s.44772 1 1 1h18c.5523 0 1-.44772 1-1s-.4477-1-1-1z"/><path d="m12 8.25c-.5523 0-1 .44772-1 1s.4477 1 1 1h9c.5523 0 1-.44772 1-1s-.4477-1-1-1z"/><path d="m11 14.75c0-.5523.4477-1 1-1h9c.5523 0 1 .4477 1 1s-.4477 1-1 1h-9c-.5523 0-1-.4477-1-1z"/><path d="m3 19c-.55228 0-1 .4477-1 1s.44772 1 1 1h18c.5523 0 1-.4477 1-1s-.4477-1-1-1z"/><path d="m4.85209 7.7391c-.18137-.13608-.36804-.27615-.53225-.3774-.15969-.09846-.46285-.2694-.85101-.26133-.45015.00936-.87228.22043-1.14985.57493-.23936.30569-.28451.65078-.30155.8376-.01752.19213-.01747.42549-.01743.65224v5.86986c-.00004.2267-.00009.4601.01743.6522.01704.1868.06219.5319.30155.8376.27757.3545.6997.5656 1.14985.5749.38816.0081.69132-.1628.85101-.2613.16422-.1013.35089-.2413.53226-.3774l3.91719-2.9379c.12454-.0933.26536-.1989.37827-.3004.12453-.1121.30793-.2982.41711-.5789.13601-.3498.13601-.7377 0-1.0875-.10918-.2807-.29258-.4669-.41711-.5789-.11291-.1015-.25372-.2071-.37827-.3004z"/></g></svg>