<svg fill="none" height="24" viewBox="0 0 24 24" width="24" xmlns="http://www.w3.org/2000/svg"><g fill="#801ed7"><path d="m4.85209 2.139c-.18137-.13608-.36804-.27614-.53225-.3774-.15969-.09846-.46285-.26939-.85101-.26132-.45015.00935-.87228.22042-1.14985.57492-.23936.30569-.28451.65078-.30155.8376-.01752.19213-.01747.4255-.01743.65224v5.86982c-.00004.22675-.00009.46011.01743.65224.01704.1868.06219.5319.30155.8376.27757.3545.6997.5656 1.14985.5749.38816.0081.69132-.1628.85101-.2613.16422-.1013.35089-.2413.53226-.3774l3.91719-2.9379c.12454-.09334.26536-.19889.37827-.30045.12453-.112.30793-.29816.41711-.57889.13601-.34971.13601-.7377 0-1.08742-.10918-.28073-.29258-.46689-.41711-.57889-.11292-.10157-.25373-.2071-.37828-.30045z"/><path d="m12 3c-.5523 0-1 .44772-1 1s.4477 1 1 1h9c.5523 0 1-.44771 1-1 0-.55228-.4477-1-1-1z"/><path d="m12 8.25c-.5523 0-1 .44772-1 1 0 .55229.4477 1 1 1h9c.5523 0 1-.44771 1-1 0-.55228-.4477-1-1-1z"/><path d="m2 14.75c0-.5523.44772-1 1-1h18c.5523 0 1 .4477 1 1s-.4477 1-1 1h-18c-.55228 0-1-.4477-1-1z"/><path d="m3 19c-.55228 0-1 .4477-1 1s.44772 1 1 1h18c.5523 0 1-.4477 1-1s-.4477-1-1-1z"/></g></svg>