<svg fill="none" height="24" viewBox="0 0 24 24" width="24" xmlns="http://www.w3.org/2000/svg"><g fill="#801ed7"><path d="m6 3c0-.55228.44772-1 1-1h10c.5523 0 1 .44772 1 1s-.4477 1-1 1h-4v10c0 .5523-.4477 1-1 1s-1-.4477-1-1v-10h-4c-.55228 0-1-.44772-1-1z"/><path d="m18.2929 14.2929c.3905-.3905 1.0237-.3905 1.4142 0l3.2929 3.7071c0 .2685-.1058.5122-.278.6919l-.0149.0152-3 3c-.3905.3905-1.0237.3905-1.4142 0s-.3905-1.0237 0-1.4142l1.2929-1.2929h-15.17159l1.2929 1.2929c.39052.3905.39052 1.0237 0 1.4142-.39053.3905-1.02369.3905-1.41422 0l-3-3c-.09587-.0959-.16821-.2064-.21701-.3243-.04889-.1179-.07588-.2472-.07588-.3828s.02699-.2649.07588-.3828c.0488-.1179.12114-.2284.21701-.3243l3-3c.39053-.3905 1.02369-.3905 1.41422 0 .39052.3905.39052 1.0237 0 1.4142l-1.2929 1.2929h15.17159l-1.2929-1.2929c-.3905-.3905-.3905-1.0237 0-1.4142z"/></g></svg>