<svg fill="none" height="24" viewBox="0 0 24 24" width="24" xmlns="http://www.w3.org/2000/svg"><g fill="#801ed7"><path d="m4 3c0-.55228-.44772-1-1-1s-1 .44772-1 1v18c0 .5523.44772 1 1 1 .55229 0 1-.4477 1-1z"/><path d="m22 3c0-.55228-.4477-1-1-1s-1 .44772-1 1v18c0 .5523.4477 1 1 1s1-.4477 1-1z"/><path clip-rule="evenodd" d="m9.46218 14-1.55181 3.414c-.22854.5028-.82139.7251-1.32417.4966-.50278-.2286-.7251-.8214-.49657-1.3242l4.28667-9.4307c.1025-.22564.2056-.45252.3062-.62964.0939-.16526.2875-.48232.6547-.66319.4179-.20583.9077-.20583 1.3256 0 .3672.18087.5608.49793.6547.66319.1006.17712.2037.40399.3062.62963l4.2867 9.43071c.2285.5028.0062 1.0956-.4966 1.3242-.5028.2285-1.0956.0062-1.3242-.4966l-1.5518-3.414zm4.16652-2h-3.2574l1.6287-3.5832z" fill-rule="evenodd"/></g></svg>