<svg fill="none" height="24" viewBox="0 0 24 24" width="24" xmlns="http://www.w3.org/2000/svg"><g fill="#801ed7"><path d="m12 1c-2.04931 0-3.96772.5604-5.61037 1.53631-.44319.2633-.66479.39496-.79624.64219-.10496.1974-.14154.48936-.08854.70655.06639.27202.27584.48148.69475.90038l2.11832 2.11833c.31386.31386.47079.47079.6216.5442.16532.08048.24394.09901.4278.10083.16772.00166.46085-.09628 1.04708-.29216.4983-.16646 1.0314-.25663 1.5856-.25663s1.0874.09018 1.5857.25666c.5862.1959.8794.29385 1.0471.2922.1839-.00182.2625-.02035.4278-.10083.1508-.07342.3078-.23035.6216-.54422l2.1183-2.1183c.4189-.4189.6284-.62835.6948-.90038.053-.21719.0164-.50914-.0886-.70654-.1314-.24723-.353-.37889-.7962-.6422-1.6427-.97596-3.5611-1.53639-5.6105-1.53639z"/><path d="m17.0962 15.6821c-.3138-.3139-.4707-.4708-.5442-.6216-.0804-.1653-.099-.244-.1008-.4278-.0017-.1677.0963-.4609.2922-1.0471.1664-.4983.2566-1.0314.2566-1.5856 0-.5541-.0901-1.0872-.2566-1.5854-.1958-.58626-.2938-.87938-.2921-1.04709.0018-.18386.0204-.26248.1008-.42779.0734-.1508.2304-.30773.5442-.62158l2.1184-2.11835c.4189-.41892.6284-.62837.9004-.69476.2172-.053.5091-.01641.7065.08855.2473.13146.3789.35306.6422.79626.9759 1.6426 1.5362 3.56094 1.5362 5.61016 0 2.0493-.5604 3.9677-1.5363 5.6104-.2633.4432-.395.6648-.6422.7962-.1974.105-.4894.1416-.7065.0885-.2721-.0663-.4815-.2758-.9004-.6947z"/><path d="m8.31814 17.0963c.31385-.3138.47078-.4708.62158-.5442.16531-.0804.24393-.099.42779-.1008.16771-.0017.46083.0963 1.04709.2921.4982.1665 1.0313.2566 1.5854.2566.5542 0 1.0873-.0902 1.5855-.2566.5863-.1959.8794-.2938 1.0471-.2922.1839.0019.2625.0204.4278.1009.1508.0734.3077.2303.6216.5442l2.1183 2.1183c.4189.4189.6284.6284.6948.9004.053.2172.0164.5091-.0886.7065-.1314.2473-.353.3789-.7962.6422-1.6426.9759-3.561 1.5363-5.6103 1.5363-2.04922 0-3.96756-.5603-5.61016-1.5362-.4432-.2633-.6648-.3949-.79626-.6422-.10496-.1974-.14155-.4893-.08855-.7065.06639-.272.27584-.4815.69476-.9004z"/><path d="m6.90373 8.31799c.31386.31386.47079.47079.5442.62159.08048.16532.09901.24394.10083.4278.00166.16772-.09627.46085-.29215 1.04712-.16645.4982-.25661 1.0313-.25661 1.5855s.09018 1.0874.25666 1.5857c.1959.5862.29386.8794.2922 1.0471-.00182.1839-.02035.2625-.10083.4278-.07342.1508-.23035.3078-.54422.6216l-2.1183 2.1183c-.4189.4189-.62835.6284-.90038.6948-.21719.053-.50914.0164-.70654-.0886-.24723-.1314-.37889-.353-.6422-.7962-.97596-1.6427-1.53639-3.5611-1.53639-5.6105 0-2.04928.56038-3.96767 1.53627-5.6103.2633-.44319.39495-.66479.64219-.79625.19739-.10495.48935-.14154.70655-.08854.27202.06639.48148.27584.90039.69475z"/></g></svg>