<svg fill="none" height="24" viewBox="0 0 24 24" width="24" xmlns="http://www.w3.org/2000/svg"><g fill="#801ed7"><path d="m6.1996 4.78543c-.41891-.4189-.62836-.62836-.69475-.90038-.053-.21719-.01642-.50915.08854-.70655.13145-.24723.35305-.37889.79624-.64219 1.64265-.97591 3.56106-1.53631 5.61037-1.53631 2.0494 0 3.9678.56043 5.6105 1.53639.4432.26331.6648.39497.7962.6422.105.1974.1416.48935.0886.70654-.0664.27203-.2759.48148-.6948.90038l-2.8911 2.89111c-.2897.28973-.4346.43459-.5694.50533-.1566.0822-.208.09708-.3844.11128-.1517.01222-.4584-.05695-1.0719-.19529-.2843-.06411-.58-.09794-.8837-.09794-.3036 0-.5993.03383-.8836.09792-.6134.13832-.9202.20748-1.0719.19525-.17636-.0142-.22773-.02908-.38438-.11128-.1348-.07073-.27966-.21559-.56937-.50531z"/><path d="m4.7854 6.19966c-.41891-.41891-.62837-.62836-.90039-.69475-.2172-.053-.50916-.01641-.70655.08854-.24724.13146-.37889.35306-.64219.79625-.97589 1.64263-1.53627 3.56102-1.53627 5.6103 0 2.0494.56043 3.9678 1.53639 5.6105.26331.4432.39497.6648.6422.7962.1974.105.48935.1416.70654.0886.27203-.0664.48148-.2759.90038-.6948l2.89111-2.8911c.28973-.2897.43459-.4346.50533-.5694.0822-.1566.09708-.208.11128-.3844.01222-.1517-.05695-.4584-.19529-1.0719-.06411-.2843-.09794-.58-.09794-.8837 0-.3036.03382-.5993.09791-.8835.13831-.6135.20746-.9202.19524-1.072-.01421-.17629-.02908-.22766-.11129-.38431-.07073-.1348-.21559-.27965-.5053-.56936z"/><path d="m11.1166 15.9021c-.6135-.1383-.9202-.2074-1.0719-.1952-.17635.0142-.22773.0291-.38437.1113-.1348.0707-.27965.2156-.56935.5053l-2.89119 2.8912c-.41892.4189-.62837.6284-.69476.9004-.053.2172-.01641.5091.08855.7065.13146.2473.35306.3789.79626.6422 1.6426.9758 3.56094 1.5362 5.61016 1.5362 2.0493 0 3.9677-.5604 5.6103-1.5363.4432-.2633.6648-.3949.7962-.6422.105-.1974.1416-.4893.0886-.7065-.0664-.272-.2759-.4815-.6948-.9004l-2.8911-2.8912c-.2897-.2897-.4346-.4345-.5694-.5053-.1566-.0822-.208-.097-.3843-.1112-.1518-.0123-.4585.0569-1.072.1952-.2842.0641-.5799.0979-.8835.0979s-.5992-.0338-.8834-.0979z"/><path d="m15.9021 12.8836c-.1383.6134-.2075.9202-.1953 1.0719.0142.1764.0291.2277.1113.3844.0707.1348.2156.2796.5053.5694l2.8912 2.8911c.4189.4189.6283.6284.9004.6947.2171.0531.5091.0165.7065-.0885.2472-.1314.3789-.353.6422-.7962.9759-1.6427 1.5363-3.5611 1.5363-5.6104 0-2.04922-.5603-3.96756-1.5362-5.61016-.2633-.4432-.3949-.6648-.6422-.79626-.1974-.10496-.4893-.14155-.7065-.08855-.272.06639-.4815.27584-.9004.69476l-2.8912 2.89119c-.2897.2897-.4346.43455-.5053.56935-.0822.15664-.0971.20802-.1113.38437-.0122.1517.0569.4584.1952 1.0719.0641.2842.0979.5798.0979.8834s-.0338.5993-.0979.8836z"/></g></svg>