<svg fill="none" height="24" viewBox="0 0 24 24" width="24" xmlns="http://www.w3.org/2000/svg"><g fill="#801ed7"><path d="m13 2c0-.55228-.4477-1-1-1s-1 .44772-1 1v1c0 .55228.4477 1 1 1s1-.44772 1-1z"/><path d="m2 11c-.55228 0-1 .4477-1 1s.44772 1 1 1h1c.55228 0 1-.4477 1-1s-.44772-1-1-1z"/><path d="m4.1928 4.1928c.39052-.39053 1.02368-.39053 1.41421 0l.6001.60009c.39052.39053.39052 1.02369 0 1.41422-.39053.39052-1.02369.39052-1.41422 0l-.60009-.6001c-.39053-.39053-.39053-1.02369 0-1.41421z"/><path d="m19.8073 5.6071c.3905-.39048.3906-1.02364.0001-1.41422-.3904-.39057-1.0236-.39065-1.4142-.00017l-.6002.60009c-.3906.39048-.3907 1.02364-.0002 1.41422.3905.39057 1.0236.39065 1.4142.00018z"/><path d="m20 12c0-.5523.4477-1 1-1h1c.5523 0 1 .4477 1 1s-.4477 1-1 1h-1c-.5523 0-1-.4477-1-1z"/><path clip-rule="evenodd" d="m12 5c-3.86599 0-7 3.13401-7 7 0 2.1532.97305 4.0792 2.5 5.3621v1.4764c-.00002.5272-.00003.982.03057 1.3565.0323.3954.10362.7886.29641 1.167.28762.5645.74656 1.0234 1.31105 1.311.37838.1928.7716.2641 1.16697.2964.3745.0306.8293.0306 1.3564.0306h.6772c.5271 0 .9819 0 1.3564-.0306.3954-.0323.7886-.1036 1.167-.2964.5645-.2876 1.0234-.7465 1.311-1.311.1928-.3784.2641-.7716.2964-1.167.0306-.3745.0306-.8293.0306-1.3564v-1.4765c1.5269-1.2829 2.5-3.2089 2.5-5.3621 0-3.86599-3.134-7-7-7zm-3 8.5c0-.5523.44771-1 1-1h4c.5523 0 1 .4477 1 1s-.4477 1-1 1h-1v4c0 .5523-.4477 1-1 1s-1-.4477-1-1v-4h-1c-.55229 0-1-.4477-1-1z" fill-rule="evenodd"/></g></svg>