<svg fill="none" height="24" viewBox="0 0 24 24" width="24" xmlns="http://www.w3.org/2000/svg"><g clip-rule="evenodd" fill="#801ed7" fill-rule="evenodd"><path d="m12 5c-3.86599 0-7 3.13401-7 7 0 2.7924 1.63505 5.2029 4 6.3264v1.6737c0 1.6569 1.3431 3 3 3s3-1.3431 3-3v-1.6737c2.3649-1.1235 4-3.534 4-6.3264 0-3.86599-3.134-7-7-7z"/><path d="m12 1c.5523 0 1 .44772 1 1v1c0 .55228-.4477 1-1 1s-1-.44772-1-1v-1c0-.55228.4477-1 1-1z"/><path d="m1 12c0-.5523.44772-1 1-1h1c.55228 0 1 .4477 1 1s-.44772 1-1 1h-1c-.55228 0-1-.4477-1-1z"/><path d="m4.1928 4.1928c.39052-.39053 1.02368-.39053 1.41421 0l.6001.60009c.39052.39053.39052 1.02369 0 1.41422-.39053.39052-1.02369.39052-1.41422 0l-.60009-.6001c-.39053-.39053-.39053-1.02369 0-1.41421z"/><path d="m19.8074 4.19288c.3905.39058.3904 1.02374-.0001 1.41422l-.6003.6001c-.3906.39047-1.0237.39039-1.4142-.00018-.3905-.39058-.3904-1.02374.0002-1.41422l.6002-.60009c.3906-.39048 1.0238-.3904 1.4142.00017z"/><path d="m20 12c0-.5523.4477-1 1-1h1c.5523 0 1 .4477 1 1s-.4477 1-1 1h-1c-.5523 0-1-.4477-1-1z"/></g></svg>