<svg fill="none" height="24" viewBox="0 0 24 24" width="24" xmlns="http://www.w3.org/2000/svg"><path d="m8.4944 1.00012-.03499-.000249c-.12686-.001253-.38997-.003851-.63953.082229-.21019.0725-.40163.19082-.56047.34639-.1886.18472-.30395.42122-.35956.53524l-.01542.0314-4.21415 8.42827c-.08332.1665-.17355.3469-.23565.5059-.06512.1667-.15952.4517-.10954.7901.06031.4081.28608.7734.62418 1.0099.28025.196.57745.2391.75566.2554.16998.0155.37162.0155.55784.0154h4.89317l-2.6138 8.7127c-.13261.442.05451.9174.45287 1.1505.39835.233.90445.1632 1.2248-.169l12.21879-12.6713c.1832-.19004.3645-.37797.4974-.54279.12-.14893.3561-.45805.384-.88144.0313-.47529-.165-.9372-.5288-1.24456-.3242-.2738-.7106-.31842-.9011-.33539-.2109-.01879-.472-.01875-.736-.01871l-5.7111.00001 1.7433-4.64888c.1152-.3071.0724-.65114-.1144-.92072-.1868-.26957-.494-.4304-.8219-.4304z" fill="#801ed7"/></svg>