<svg fill="none" height="24" viewBox="0 0 24 24" width="24" xmlns="http://www.w3.org/2000/svg"><g fill="#801ed7"><path d="m3.5 9.5c0-4.69442 3.80558-8.5 8.5-8.5 4.6944 0 8.5 3.80558 8.5 8.5 0 2.0452-.7241 3.9727-1.9369 5.4804-.1349.1676-.2023.2514-.3116.3304-.0882.0636-.2157.1247-.3206.1535-.13.0357-.2568.0357-.5105.0357h-10.84075c-.2537 0-.38055 0-.51054-.0357-.10488-.0288-.2324-.0899-.32057-.1535-.1093-.079-.17673-.1628-.3116-.3304-1.21287-1.5077-1.93694-3.4352-1.93694-5.4804z"/><path d="m9.53199 17.5c-.496 0-.74399 0-.93776.086-.22653.1006-.40764.2817-.5082.5082-.08603.1938-.08603.4418-.08603.9378-.00001.4386-.00002.8171.02135 1.1304.02251.3298.07201.6597.20701.9857.30448.735.88851 1.3191 1.62359 1.6235.32595.135.65585.1845.98565.2071.3133.0213.6918.0213 1.1304.0213h.064c.4386 0 .8171 0 1.1304-.0213.3298-.0226.6597-.0721.9857-.2071.735-.3044 1.3191-.8885 1.6235-1.6235.135-.326.1845-.6559.2071-.9857.0213-.3133.0213-.6918.0213-1.1304 0-.496 0-.744-.086-.9378-.1006-.2265-.2817-.4076-.5082-.5082-.1938-.086-.4418-.086-.9378-.086z"/></g></svg>