<svg fill="none" height="24" viewBox="0 0 24 24" width="24" xmlns="http://www.w3.org/2000/svg"><path d="m13.9923 2.12409c.055-.4405-.1869-.86457-.5941-1.04134-.4072-.176764-.8822-.06391-1.1664.27712l-8.9295 10.71533c-.15432.1851-.31062.3726-.42442.5374-.10762.1558-.30413.4622-.3102.8648-.00696.461.19846.8996.55703 1.1893.31322.2531.67438.2983.86299.3154.19942.0181.44351.018.6845.018h6.195l-.8595 6.8759c-.05506.4405.1869.8646.5941 1.0414.4072.1767.8822.0639 1.1664-.2772l8.9295-10.7153c.1543-.1851.3106-.3726.4244-.5374.1076-.1558.3041-.4622.3102-.8648.0069-.461-.1985-.89956-.557-1.18932-.3133-.25311-.6744-.29829-.863-.31536-.1995-.01806-.4436-.01801-.6846-.01797l-6.1949.00001z" fill="#801ed7"/></svg>