<svg fill="none" height="24" viewBox="0 0 24 24" width="24" xmlns="http://www.w3.org/2000/svg"><g clip-rule="evenodd" fill="#801ed7" fill-rule="evenodd"><path d="m8.5 22c0-.5523.44772-1 1-1h5c.5523 0 1 .4477 1 1s-.4477 1-1 1h-5c-.55228 0-1-.4477-1-1z"/><path d="m4 9c0-4.41828 3.58172-8 8-8 4.4183 0 8 3.58172 8 8 0 2.9626-1.6104 5.5473-4 6.9295v.1025c0 .4386 0 .8171-.0213 1.1304-.0226.3298-.0721.6597-.2071.9857-.3044.735-.8885 1.3191-1.6235 1.6235-.326.135-.6559.1845-.9857.2071-.3133.0213-.6918.0213-1.1304.0213h-.064c-.4386 0-.8171 0-1.1304-.0213-.3298-.0226-.6597-.0721-.98565-.2071-.73508-.3044-1.31911-.8885-1.62359-1.6235-.135-.326-.18451-.6559-.20701-.9857-.02137-.3133-.02136-.6918-.02135-1.1304v-.1025c-2.38962-1.3822-4-3.9669-4-6.9295z"/></g></svg>