<svg fill="none" height="24" viewBox="0 0 24 24" width="24" xmlns="http://www.w3.org/2000/svg"><g fill="#801ed7"><path clip-rule="evenodd" d="m12 1c-4.41828 0-8 3.58172-8 8 0 2.9626 1.61038 5.5473 4 6.9295v.1025c-.00001.4386-.00002.8171.02135 1.1304.0225.3298.07201.6597.20701.9857.30448.735.88851 1.3191 1.62359 1.6235.32595.135.65585.1845.98565.2071.3133.0213.6918.0213 1.1304.0213h.064c.4386 0 .8171 0 1.1304-.0213.3298-.0226.6597-.0721.9857-.2071.735-.3044 1.3191-.8885 1.6235-1.6235.135-.326.1845-.6559.2071-.9857.0213-.3133.0213-.6917.0213-1.1304v-.1025c2.3896-1.3822 4-3.9669 4-6.9295 0-4.41828-3.5817-8-8-8zm-3 9c0-.55229.44772-1 1-1h4c.5523 0 1 .44771 1 1 0 .5523-.4477 1-1 1h-1v5c0 .5523-.4477 1-1 1s-1-.4477-1-1v-5h-1c-.55228 0-1-.4477-1-1z" fill-rule="evenodd"/><path d="m9.5 21c-.55228 0-1 .4477-1 1s.44772 1 1 1h5c.5523 0 1-.4477 1-1s-.4477-1-1-1z"/></g></svg>