<svg fill="none" height="24" viewBox="0 0 24 24" width="24" xmlns="http://www.w3.org/2000/svg"><g fill="#801ed7"><path d="m3 2c-.55228 0-1 .44772-1 1s.44772 1 1 1h18c.5523 0 1-.44772 1-1s-.4477-1-1-1z"/><path clip-rule="evenodd" d="m12.6628 5.86287c-.4179-.20583-.9077-.20583-1.3256 0-.3672.18087-.5608.49793-.6547.66319-.1006.17712-.2037.40399-.3062.62963l-4.28667 9.43071c-.22853.5028-.00621 1.0956.49657 1.3242.50278.2285 1.09563.0062 1.32417-.4966l1.55181-3.414h5.07562l1.5518 3.414c.2286.5028.8214.7251 1.3242.4966.5028-.2286.7251-.8214.4966-1.3242l-4.2867-9.43071c-.1025-.22564-.2056-.45251-.3062-.62963-.0939-.16526-.2875-.48232-.6547-.66319zm.9659 6.13713-1.6287-3.5832-1.6287 3.5832z" fill-rule="evenodd"/><path d="m2 21c0-.5523.44772-1 1-1h18c.5523 0 1 .4477 1 1s-.4477 1-1 1h-18c-.55228 0-1-.4477-1-1z"/></g></svg>