<svg fill="none" height="24" viewBox="0 0 24 24" width="24" xmlns="http://www.w3.org/2000/svg"><path clip-rule="evenodd" d="m12 23c-6.07513 0-11-4.9249-11-11 0-6.07513 4.92487-11 11-11 6.0751 0 11 4.92487 11 11 0 6.0751-4.9249 11-11 11zm-5.29289-8.2929c-.39053.3905-1.02369.3905-1.41422 0-.39052-.3905-.39052-1.0237 0-1.4142l3.45068-3.45069c.0842-.08426.18475-.18489.2806-.26626.11107-.09429.27967-.21984.5123-.29543.30127-.09789.62583-.09789.92703 0 .2327.07559.4013.20114.5123.29543.0959.08137.1964.182.2806.26626l2.7436 2.74359 3.2929-3.29291c.3905-.39052 1.0237-.39052 1.4142 0 .3905.39053.3905 1.02371 0 1.41421l-3.4506 3.4507c-.0842.0842-.1848.1849-.2807.2663-.111.0942-.2796.2198-.5123.2954-.3012.0979-.6258.0979-.927 0-.2327-.0756-.4013-.2012-.5123-.2954-.0959-.0814-.1964-.1821-.2806-.2663l-2.7436-2.7436z" fill="#801ed7" fill-rule="evenodd"/></svg>