<svg fill="none" height="24" viewBox="0 0 24 24" width="24" xmlns="http://www.w3.org/2000/svg"><g clip-rule="evenodd" fill="#801ed7" fill-rule="evenodd"><path d="m3.00001 2c.55228 0 1 .44772 1 1v16.4c0 .2965.00077.4588.0103.5754.00038.0046.00076.009.00114.0131.00415.0004.00855.0008.01319.0012.11658.0095.27884.0103.57537.0103h16.39999c.5523 0 1 .4477 1 1s-.4477 1-1 1h-16.43184c-.2524 0-.49821.0001-.70638-.0169-.2286-.0187-.49833-.0628-.76976-.2011-.37632-.1917-.68228-.4977-.87403-.874-.1383-.2714-.18236-.5412-.20104-.7698-.01701-.2081-.01698-.4539-.01695-.7063l.00001-16.4319c0-.55228.44771-1 1-1z"/><path d="m20.6837 15.7297c.4031-.3776.4237-1.0104.046-1.4134l-3.9188-4.1827c-.0083-.0088-.0179-.0193-.0286-.031-.1024-.11188-.315-.34418-.5977-.47342-.2372-.10848-.4986-.15322-.7584-.12981-.3095.02789-.5873.17626-.721.2477-.0141.00751-.0266.01418-.0373.01976l-3.1229 1.62147-3.81525-4.07202c-.37761-.40303-1.01044-.42363-1.41347-.04602-.40302.37761-.42363 1.01044-.04602 1.41346l3.91884 4.18268c.0083.0088.0179.0193.0286.031.1024.1119.315.3442.5977.4734.2372.1085.4986.1532.7584.1298.3095-.0279.5873-.1762.721-.2477.0141-.0075.0266-.0141.0373-.0197l3.1229-1.6215 3.8153 4.072c.3776.403 1.0104.4237 1.4134.046z"/></g></svg>