<svg fill="none" height="24" viewBox="0 0 24 24" width="24" xmlns="http://www.w3.org/2000/svg"><path d="m17.8385 22h-11.67704c-.52713 0-.98192 0-1.35649-.0306-.39534-.0323-.78856-.1036-1.16694-.2964-.56449-.2876-1.02343-.7465-1.31105-1.311-.10247-.2012-.17063-.4065-.21685-.6141-.02509-.1127-.03764-.1691-.0314-.2447.00494-.06.02775-.1384.05575-.1916.03532-.0672.08557-.1174.18607-.2179l5.67945-5.6795 1.74357 1.7436c.08419.0842.18476.1849.28063.2663.111.0942.2796.2198.5123.2954.3012.0979.6258.0979.927 0 .2327-.0756.4013-.2012.5123-.2954.0959-.0814.1964-.182.2806-.2663l3.7436-3.7436v1.5858c0 .5523.4477 1 1 1s1-.4477 1-1v-4c0-.55228-.4477-1-1-1h-4c-.5523 0-1 .44772-1 1 0 .55229.4477 1 1 1h1.5858l-3.5858 3.5858-1.74356-1.7436c-.0842-.0842-.18475-.1849-.28061-.2662-.11107-.0943-.27967-.2199-.5123-.2955-.30127-.0979-.62579-.0979-.92705 0-.23264.0756-.40124.2012-.51231.2955-.09582.0813-.19636.1819-.28054.2661l-3.37794 3.378c-.42838.4284-.64257.6426-.82646.657-.15956.0126-.31549-.052-.41943-.1737-.1198-.1403-.1198-.4432-.1198-1.049v-8.49294c-.00002-.52714-.00003-.98192.03057-1.35649.0323-.39534.10362-.78856.29641-1.16694.28762-.56449.74656-1.02343 1.31105-1.31105.37838-.19279.7716-.26411 1.16694-.29641.37457-.0306.82933-.03059 1.35647-.03057h11.67716c.5271-.00002.9819-.00003 1.3564.03057.3954.0323.7886.10362 1.167.29641.5645.28762 1.0234.74656 1.311 1.31105.1928.37838.2641.7716.2964 1.16694.0306.37457.0306.82932.0306 1.35646v11.67717c0 .5271 0 .9819-.0306 1.3564-.0323.3954-.1036.7886-.2964 1.167-.2876.5645-.7465 1.0234-1.311 1.311-.3784.1928-.7716.2641-1.167.2964-.3745.0306-.8293.0306-1.3565.0306z" fill="#801ed7"/></svg>