<svg fill="none" height="24" viewBox="0 0 24 24" width="24" xmlns="http://www.w3.org/2000/svg"><path clip-rule="evenodd" d="m12 1c-6.07513 0-11 4.92487-11 11 0 6.0751 4.92487 11 11 11 6.0751 0 11-4.9249 11-11 0-6.07513-4.9249-11-11-11zm-5.29289 8.29289c-.39053-.39052-1.02369-.39052-1.41422 0-.39052.39053-.39052 1.02371 0 1.41421l3.45068 3.4507c.0842.0843.18475.1849.2806.2663.11107.0942.27967.2198.5123.2954.30127.0979.62583.0979.92703 0 .2327-.0756.4013-.2012.5123-.2954.0959-.0814.1964-.1821.2806-.2663l2.7436-2.7436 3.2929 3.2929c.3905.3905 1.0237.3905 1.4142 0s.3905-1.0237 0-1.4142l-3.4506-3.45067c-.0842-.08426-.1848-.1849-.2807-.26628-.111-.09429-.2796-.21984-.5123-.29543-.3012-.09788-.6258-.09788-.927 0-.2327.07559-.4013.20114-.5123.29543-.0959.08138-.1964.18201-.2806.26627l-2.7436 2.74358z" fill="#801ed7" fill-rule="evenodd"/></svg>