<svg fill="none" height="24" viewBox="0 0 24 24" width="24" xmlns="http://www.w3.org/2000/svg"><g fill="#801ed7"><path d="m4.00001 3c0-.55228-.44772-1-1-1-.55229 0-1 .44772-1 1l-.00001 16.4319c-.00003.2524-.00006.4982.01695.7063.01868.2286.06274.4984.20104.7698.19175.3763.49771.6823.87403.874.27143.1383.54116.1824.76976.2011.20816.017.45396.0169.70635.0169h16.43187c.5523 0 1-.4477 1-1s-.4477-1-1-1h-16.39999c-.29653 0-.45879-.0008-.57537-.0103l-.01319-.0012-.00114-.0131c-.00953-.1166-.0103-.2789-.0103-.5754z"/><path d="m20.7297 8.68372c.3777-.40302.3571-1.03585-.046-1.41346-.403-.37761-1.0358-.357-1.4134.04602l-3.8153 4.07202-3.1229-1.62146c-.0064-.00336-.0135-.00711-.0212-.01121-.0051-.00271-.0105-.00557-.0161-.00856-.1337-.07144-.4115-.21981-.721-.2477-.2598-.0234-.5212.02134-.7584.12981-.2827.12925-.4953.36155-.5977.47342-.0029.0032-.0058.0063-.0086.0094-.0073.008-.014.0152-.02.0216l-3.91884 4.1827c-.37761.403-.357 1.0358.04602 1.4134.40303.3777 1.03586.3571 1.41347-.046l3.81525-4.072 3.1229 1.6215c.0107.0056.0232.0122.0373.0197.1337.0715.4115.2198.721.2477.2598.0234.5212-.0213.7584-.1298.2827-.1292.4953-.3615.5977-.4734.0107-.0117.0203-.0222.0286-.031z"/></g></svg>