<svg fill="none" height="24" viewBox="0 0 24 24" width="24" xmlns="http://www.w3.org/2000/svg"><g fill="#801ed7"><path d="m6.16146 2h11.67704c.5272-.00002.982-.00003 1.3565.03057.3954.0323.7886.10362 1.167.29641.5645.28762 1.0234.74656 1.311 1.31105.1928.37838.2641.7716.2964 1.16694.0306.37457.0306.82932.0306 1.35645v.50631c0 .1511 0 .22665-.0203.29565-.0179.0611-.0474.11821-.0868.16826-.0444.05652-.106.10032-.2291.18792l-7.5547 5.37544-2.9381-2.9381c-.0719-.072-.1601-.16024-.2446-.23289-.0998-.08576-.2463-.19668-.4467-.27307-.2641-.10069-.55124-.12472-.82838-.06932-.21028.04203-.37322.12705-.48586.19503-.09543.0576-.19703.12995-.27993.18899l-5.62173 4.00006c-.40849.2907-.61273.436-.78296.4295-.14822-.0057-.28626-.0769-.37682-.1944-.10402-.1349-.10402-.3856-.10402-.8869v-6.75246c-.00002-.52714-.00003-.9819.03057-1.35647.0323-.39534.10362-.78856.29641-1.16694.28762-.56449.74656-1.02343 1.31105-1.31105.37838-.19279.7716-.26411 1.16694-.29641.37457-.0306.82935-.03059 1.35649-.03057z"/><path d="m2 17.3322c0-.1511 0-.2267.02027-.2957.01795-.0611.0474-.1182.08678-.1682.04448-.0565.10603-.1003.22915-.1879l7.55452-5.3754 2.93808 2.9381c.072.072.1601.1603.2447.2329.0997.0858.2463.1967.4467.2731.264.1007.5512.1247.8283.0693.2103-.042.3732-.127.4859-.195.0954-.0576.197-.1299.2799-.189l5.6219-4.0002c.4085-.2906.6127-.43597.783-.4294.1482.0056.2862.0768.3768.1943.104.1349.104.3856.104.8869v6.7525c0 .5272 0 .982-.0306 1.3565-.0323.3954-.1036.7886-.2964 1.167-.2876.5645-.7465 1.0234-1.311 1.311-.3784.1928-.7716.2641-1.167.2964-.3745.0306-.8293.0306-1.3564.0306h-11.67717c-.52714 0-.98189 0-1.35646-.0306-.39534-.0323-.78856-.1036-1.16694-.2964-.56449-.2876-1.02343-.7465-1.31105-1.311-.19279-.3784-.26411-.7716-.29641-1.167-.0306-.3745-.03059-.8293-.03057-1.3564z"/></g></svg>