<svg fill="none" height="24" viewBox="0 0 24 24" width="24" xmlns="http://www.w3.org/2000/svg"><path d="m17.8385 2h-11.67704c-.52713-.00002-.98192-.00003-1.35649.03057-.39534.0323-.78856.10362-1.16694.29641-.56449.28762-1.02343.74656-1.31105 1.31105-.10247.20112-.17063.40644-.21685.61403-.02509.11273-.03764.16909-.0314.24475.00494.05995.02775.13835.05575.19159.03532.06719.08557.11744.18607.21794l5.67945 5.67946 1.74357-1.74359c.08419-.08425.18476-.1849.28063-.26626.111-.09429.2796-.21984.5123-.29543.3012-.09788.6258-.09788.927 0 .2327.07559.4013.20114.5123.29543.0959.08135.1964.18199.2806.26623l3.7436 3.74362v-1.5858c0-.5523.4477-1 1-1s1 .4477 1 1v4c0 .5523-.4477 1-1 1h-4c-.5523 0-1-.4477-1-1s.4477-1 1-1h1.5858l-3.5858-3.5858-1.74356 1.7436c-.0842.0842-.18475.1849-.28061.2663-.11107.0942-.27967.2198-.5123.2954-.30127.0979-.62579.0979-.92705 0-.23264-.0756-.40124-.2012-.51231-.2954-.09582-.0814-.19636-.182-.28054-.2662l-3.37794-3.378c-.42838-.42837-.64257-.64256-.82646-.65703-.15956-.01256-.31549.05203-.41943.17373-.1198.14026-.1198.44317-.1198 1.04899v8.49291c-.00002.5272-.00003.982.03057 1.3565.0323.3954.10362.7886.29641 1.167.28762.5645.74656 1.0234 1.31105 1.311.37838.1928.7716.2641 1.16694.2964.37457.0306.82933.0306 1.35647.0306h11.67716c.5271 0 .9819 0 1.3564-.0306.3954-.0323.7886-.1036 1.167-.2964.5645-.2876 1.0234-.7465 1.311-1.311.1928-.3784.2641-.7716.2964-1.167.0306-.3745.0306-.8293.0306-1.3564v-11.67716c0-.52714 0-.9819-.0306-1.35647-.0323-.39534-.1036-.78856-.2964-1.16694-.2876-.56449-.7465-1.02343-1.311-1.31105-.3784-.19279-.7716-.26411-1.167-.29641-.3745-.0306-.8293-.03059-1.3565-.03057z" fill="#801ed7"/></svg>