<svg fill="none" height="24" viewBox="0 0 24 24" width="24" xmlns="http://www.w3.org/2000/svg"><g fill="#801ed7"><path d="m17.8385 2h-11.67704c-.52713-.00002-.98192-.00003-1.35649.03057-.39534.0323-.78856.10362-1.16694.29641-.56449.28762-1.02343.74656-1.31105 1.31105-.19279.37838-.26411.7716-.29641 1.16694-.0306.37457-.03059.82932-.03057 1.35645v.50631c0 .1511 0 .22665.02027.29565.01795.0611.0474.11821.08678.16826.04448.05652.10603.10032.22915.18792l7.55468 5.37544 2.93812-2.9381c.0719-.072.1601-.16024.2446-.23289.0998-.08576.2463-.19668.4467-.27307.2641-.10069.5512-.12472.8284-.06932.2103.04203.3732.12705.4858.19503.0955.0576.1971.12995.28.18899l5.6217 4.00006c.4085.2907.6127.436.783.4295.1482-.0057.2862-.0769.3768-.1944.104-.1349.104-.3856.104-.8869v-6.75246c0-.52714 0-.9819-.0306-1.35647-.0323-.39534-.1036-.78856-.2964-1.16694-.2876-.56449-.7465-1.02343-1.311-1.31105-.3784-.19279-.7716-.26411-1.167-.29641-.3745-.0306-.8293-.03059-1.3565-.03057z"/><path d="m22 17.3322c0-.1511 0-.2267-.0203-.2957-.0179-.0611-.0474-.1182-.0868-.1682-.0444-.0565-.106-.1003-.2291-.1879l-7.5545-5.3754-2.9381 2.9381c-.072.072-.1601.1603-.2447.2329-.0997.0858-.2463.1967-.4466.2731-.2641.1007-.55128.1247-.82843.0693-.21027-.042-.37322-.127-.48585-.195-.09542-.0576-.19701-.1299-.27991-.189l-5.6219-4.0002c-.40849-.2906-.61274-.43597-.78297-.4294-.14822.0056-.28626.0768-.37682.1943-.10402.1349-.10402.3856-.10402.8869v6.7525c-.00002.5272-.00003.982.03057 1.3565.0323.3954.10362.7886.29641 1.167.28762.5645.74656 1.0234 1.31105 1.311.37838.1928.7716.2641 1.16694.2964.37457.0306.82933.0306 1.35647.0306h11.67716c.5271 0 .9819 0 1.3564-.0306.3954-.0323.7886-.1036 1.167-.2964.5645-.2876 1.0234-.7465 1.311-1.311.1928-.3784.2641-.7716.2964-1.167.0306-.3745.0306-.8293.0306-1.3564z"/></g></svg>