<svg fill="none" height="24" viewBox="0 0 24 24" width="24" xmlns="http://www.w3.org/2000/svg"><g fill="#801ed7"><path d="m3.00001 2c.55228 0 1 .44772 1 1v16.4c0 .2965.00077.4588.0103.5754l.00114.0131.01319.0012c.11658.0095.27884.0103.57537.0103h16.39999c.5523 0 1 .4477 1 1s-.4477 1-1 1h-16.43184c-.25238 0-.49823.0001-.70638-.0169-.2286-.0187-.49833-.0628-.76976-.2011-.37632-.1917-.68228-.4977-.87403-.874-.1383-.2714-.18236-.5412-.20104-.7698-.01701-.2081-.01698-.4539-.01695-.7063l.00001-16.4319c0-.55228.44771-1 1-1z"/><path d="m20 12.5858v-1.5858c0-.5523.4477-1 1-1s1 .4477 1 1v4c0 .5523-.4477 1-1 1h-4c-.5523 0-1-.4477-1-1s.4477-1 1-1h1.5858l-3.5858-3.5858-1.7436 1.7436c-.0842.0843-.1847.1849-.2806.2663-.111.0942-.2796.2198-.5123.2954-.3012.0979-.6258.0979-.927 0-.2327-.0756-.4013-.2012-.5123-.2954-.0959-.0814-.1964-.1821-.2806-.2663l-4.45071-4.45069c-.39052-.39053-.39052-1.02369 0-1.41422.39053-.39052 1.02369-.39052 1.41422 0l4.29289 4.29291 1.7436-1.74359c.0842-.08426.1847-.18489.2806-.26626.111-.09429.2796-.21984.5123-.29543.3012-.09789.6258-.09789.927 0 .2327.07559.4013.20114.5123.29543.0959.08135.1964.18195.2806.26619z"/></g></svg>