<svg fill="none" height="24" viewBox="0 0 24 24" width="24" xmlns="http://www.w3.org/2000/svg"><g fill="#801ed7"><path d="m7 8c-2.20914 0-4 1.79086-4 4 0 2.2091 1.79086 4 4 4h2c.55228 0 1 .4477 1 1s-.44772 1-1 1h-2c-3.31371 0-6-2.6863-6-6 0-3.31371 2.68629-6 6-6h2c.55228 0 1 .44772 1 1s-.44772 1-1 1z"/><path clip-rule="evenodd" d="m7 12c0-.5523.44772-1 1-1h6v-3.22222c0-.98184.7959-1.77778 1.7778-1.77778h1.2222c3.3137 0 6 2.68629 6 6 0 3.3137-2.6863 6-6 6h-1.2222c-.9819 0-1.7778-.7959-1.7778-1.7778v-3.2222h-6c-.55228 0-1-.4477-1-1zm9 1v3h1c2.2091 0 4-1.7909 4-4 0-2.20914-1.7909-4-4-4h-1v3h2c.5523 0 1 .4477 1 1s-.4477 1-1 1z" fill-rule="evenodd"/></g></svg>