<svg fill="none" height="24" viewBox="0 0 24 24" width="24" xmlns="http://www.w3.org/2000/svg"><g clip-rule="evenodd" fill="#801ed7" fill-rule="evenodd"><path d="m12.7753 2.75068c1.1316-1.09295 2.6472-1.69772 4.2204-1.68405s3.078.64469 4.1905 1.75714c1.1124 1.11244 1.7434 2.61732 1.7571 4.1905s-.5911 3.08883-1.684 4.22043l-.0122.0124-2.9999 2.9998c-.6082.6085-1.3403 1.0791-2.1464 1.3798s-1.6674.4245-2.5256.363c-.8582-.0614-1.6931-.3067-2.4481-.7192-.7551-.4125-1.41254-.9826-1.92788-1.6716-.33081-.4422-.24046-1.0689.20179-1.3997s1.06889-.2405 1.39979.2018c.3435.4593.7818.8393 1.2852 1.1143.5033.275 1.06.4386 1.6321.4796.5721.0409 1.1463-.0416 1.6837-.2421s1.0254-.5142 1.431-.9198l2.9936-2.99366c.725-.75377 1.1261-1.76164 1.117-2.80769-.0091-1.04879-.4298-2.05204-1.1714-2.79367-.7417-.74163-1.7449-1.16231-2.7937-1.17142-1.0465-.0091-2.0548.39231-2.8087 1.11794l-1.7146 1.70463c-.3916.38938-1.0248.38754-1.4142-.00412s-.3875-1.02483.0041-1.41421l1.72-1.71z"/><path d="m7.89914 8.37325c.80611-.3007 1.66746-.42452 2.52566-.36306.8581.06146 1.6931.30676 2.4481.71927s1.4125.98257 1.9279 1.67154c.3308.4422.2404 1.0689-.2018 1.3997-.4423.3308-1.069.2405-1.3998-.2018-.3435-.4593-.7819-.8393-1.2852-1.1143-.5034-.275-1.06-.4385-1.6321-.4795-.57211-.041-1.14635.0415-1.68376.242-.5374.2005-1.02541.5142-1.43092.9198l-2.99364 2.9937c-.72504.7538-1.12609 1.7616-1.117 2.8077.00911 1.0488.42979 2.052 1.17142 2.7937.74163.7416 1.74488 1.1623 2.79367 1.1714 1.04604.0091 2.05391-.392 2.80768-1.117l1.70355-1.7035c.3905-.3906 1.0237-.3906 1.4142 0 .3905.3905.3905 1.0236 0 1.4142l-1.71 1.71-.0124.0122c-1.1316 1.0929-2.64723 1.6977-4.22041 1.684s-3.07805-.6447-4.1905-1.7571c-1.11245-1.1125-1.74347-2.6174-1.75714-4.1905-.01367-1.5732.5911-3.0888 1.68405-4.2204l.01218-.0124 2.99987-2.99991c-.00004.00004.00004-.00005 0 0 .60824-.60842 1.34033-1.07906 2.14639-1.37974z"/></g></svg>