<svg fill="none" height="24" viewBox="0 0 24 24" width="24" xmlns="http://www.w3.org/2000/svg"><g clip-rule="evenodd" fill="#801ed7" fill-rule="evenodd"><path d="m16.2071 7.79284c.3905.39052.3905 1.02369 0 1.41421l-7 6.99995c-.39052.3906-1.02369.3906-1.41421 0-.39053-.3905-.39053-1.0236 0-1.4142l7.00001-6.99996c.3905-.39053 1.0237-.39053 1.4142 0z"/><path d="m6.34314 10.5858c.39053.3905.39053 1.0236 0 1.4142l-1.41421 1.4142c-1.5621 1.5621-1.5621 4.0947 0 5.6568 1.56209 1.5621 4.09475 1.5621 5.65687 0l1.4142-1.4142c.3905-.3905 1.0237-.3905 1.4142 0s.3905 1.0237 0 1.4142l-1.4142 1.4142c-2.34315 2.3432-6.14214 2.3432-8.48529 0-2.34314-2.3431-2.34314-6.1421 0-8.4852l1.41422-1.4142c.39052-.3906 1.02369-.3906 1.41421 0z"/><path d="m12 3.51468c2.3431-2.34314 6.1421-2.34314 8.4853 0 2.3431 2.34315 2.3431 6.14214 0 8.48532l-1.4142 1.4142c-.3906.3905-1.0237.3905-1.4143 0-.3905-.3905-.3905-1.0237 0-1.4142l1.4143-1.4142c1.5621-1.56215 1.5621-4.09481 0-5.6569-1.5621-1.5621-4.0948-1.5621-5.6569 0l-1.4142 1.41421c-.3905.39052-1.0237.39052-1.4142 0s-.3905-1.02369 0-1.41421z"/></g></svg>