<?xml version="1.0" standalone="no"?>
<!DOCTYPE svg PUBLIC "-//W3C//DTD SVG 20010904//EN"
 "http://www.w3.org/TR/2001/REC-SVG-20010904/DTD/svg10.dtd">
<svg version="1.0" xmlns="http://www.w3.org/2000/svg"
 width="256.000000pt" height="256.000000pt" viewBox="0 0 256.000000 256.000000"
 preserveAspectRatio="xMidYMid meet">

<g transform="translate(0.000000,256.000000) scale(0.100000,-0.100000)"
fill="#000000" stroke="none">
<path d="M141 2550 c-72 -17 -126 -82 -136 -163 -3 -29 -5 -547 -3 -1152 3
-1017 4 -1102 20 -1131 21 -39 71 -82 106 -92 15 -4 538 -7 1162 -7 1053 0
1137 1 1166 17 39 21 82 71 92 106 9 35 9 2269 0 2304 -10 35 -53 85 -92 106
-29 16 -114 17 -1156 19 -619 0 -1140 -2 -1159 -7z m549 -374 c22 -14 52 -45
67 -68 24 -36 28 -51 28 -118 0 -67 -4 -82 -28 -118 -15 -23 -46 -54 -69 -69
-36 -24 -51 -28 -118 -28 -67 0 -82 4 -118 28 -85 56 -124 166 -92 262 16 48
88 121 132 134 58 18 153 7 198 -23z m1169 -555 c157 -49 258 -158 301 -326
18 -72 20 -111 20 -497 l0 -418 -189 0 -190 0 -4 372 c-4 412 -6 425 -67 489
-102 107 -299 55 -367 -96 -16 -36 -18 -79 -21 -402 l-3 -363 -190 0 -189 0 0
610 0 610 180 0 180 0 0 -79 0 -79 58 57 c58 59 152 112 228 130 69 16 188 12
253 -8z m-1099 -631 l0 -610 -190 0 -190 0 0 610 0 610 190 0 190 0 0 -610z"/>
</g>
</svg>
