<svg fill="none" height="24" viewBox="0 0 24 24" width="24" xmlns="http://www.w3.org/2000/svg"><g clip-rule="evenodd" fill="#801ed7" fill-rule="evenodd"><path d="m7 8c-2.20914 0-4 1.79086-4 4 0 2.2091 1.79086 4 4 4h2c2.2091 0 4-1.7909 4-4 0-.5523.4477-1 1-1s1 .4477 1 1c0 3.3137-2.6863 6-6 6h-2c-3.31371 0-6-2.6863-6-6 0-3.31371 2.68629-6 6-6h.5c.55228 0 1 .44772 1 1 0 .55229-.44772 1-1 1z"/><path d="m17 8h-2c-2.2091 0-4 1.79086-4 4 0 .5523-.4477 1-1 1-.55228 0-1-.4477-1-1 0-3.31371 2.6863-6 6-6h2c3.3137 0 6 2.68629 6 6 0 3.3137-2.6863 6-6 6h-.5c-.5523 0-1-.4477-1-1s.4477-1 1-1h.5c2.2091 0 4-1.7909 4-4 0-2.20914-1.7909-4-4-4z"/></g></svg>