<svg fill="none" height="24" viewBox="0 0 24 24" width="24" xmlns="http://www.w3.org/2000/svg"><g clip-rule="evenodd" fill="#801ed7" fill-rule="evenodd"><path d="m16.2071 7.79287c.3905.39053.3905 1.02369 0 1.41421l-6.99999 7.00002c-.39053.3905-1.02369.3905-1.41422 0-.39052-.3905-.39052-1.0237 0-1.4142l7.00001-7.00003c.3905-.39052 1.0237-.39052 1.4142 0z"/><path d="m9 1c.55229 0 1 .44772 1 1v2c0 .55228-.44771 1-1 1-.55228 0-1-.44772-1-1v-2c0-.55228.44772-1 1-1z"/><path d="m15 19c.5523 0 1 .4477 1 1v2c0 .5523-.4477 1-1 1s-1-.4477-1-1v-2c0-.5523.4477-1 1-1z"/><path d="m2 8h2c.55228 0 1 .44772 1 1s-.44772 1-1 1h-2c-.55228 0-1-.44771-1-1 0-.55228.44772-1 1-1z"/><path d="m19 15c0-.5523.4477-1 1-1h2c.5523 0 1 .4477 1 1s-.4477 1-1 1h-2c-.5523 0-1-.4477-1-1z"/><path d="m2.79289 2.79289c.39053-.39052 1.02369-.39052 1.41422 0l1.41421 1.41422c.39052.39052.39052 1.02369 0 1.41421s-1.02369.39052-1.41421 0l-1.41422-1.41421c-.39052-.39053-.39052-1.02369 0-1.41422z"/><path d="m18.3787 18.3786c.3905-.3905 1.0237-.3905 1.4142 0l1.4142 1.4142c.3906.3905.3906 1.0237 0 1.4142-.3905.3905-1.0237.3905-1.4142 0l-1.4142-1.4142c-.3905-.3905-.3905-1.0237 0-1.4142z"/><path d="m13.4142 3.51463c1.9527-1.95262 5.1185-1.95262 7.0711 0s1.9526 5.11845 0 7.07107l-2.1213 2.1213c-.3905.3905-1.0237.3905-1.4142 0s-.3905-1.0237 0-1.4142l2.1213-2.12132c1.1716-1.17157 1.1716-3.07106 0-4.24264-1.1716-1.17157-3.0711-1.17157-4.2426 0l-2.1214 2.12133c-.3905.39052-1.0236.39052-1.4142 0-.3905-.39053-.3905-1.02369 0-1.41422zm-6.36391 7.77817c.39052.3905.39052 1.0237 0 1.4142l-2.12132 2.1213c-1.17158 1.1716-1.17158 3.0711 0 4.2427 1.17157 1.1716 3.07106 1.1716 4.24264 0l2.12129-2.1213c.3906-.3906 1.0237-.3906 1.4142 0 .3906.3905.3906 1.0236 0 1.4142l-2.1213 2.1213c-1.9526 1.9526-5.11843 1.9526-7.07105 0s-1.95262-5.1185 0-7.0711l2.12132-2.1213c.39053-.3905 1.02369-.3905 1.41422 0z"/></g></svg>