<svg height="256pt" preserveAspectRatio="xMidYMid meet" viewBox="0 0 256 256" width="256pt" xmlns="http://www.w3.org/2000/svg"><path d="m141 2550c-72-17-126-82-136-163-3-29-5-547-3-1152 3-1017 4-1102 20-1131 21-39 71-82 106-92 15-4 538-7 1162-7 1053 0 1137 1 1166 17 39 21 82 71 92 106 9 35 9 2269 0 2304-10 35-53 85-92 106-29 16-114 17-1156 19-619 0-1140-2-1159-7zm549-374c22-14 52-45 67-68 24-36 28-51 28-118s-4-82-28-118c-15-23-46-54-69-69-36-24-51-28-118-28s-82 4-118 28c-85 56-124 166-92 262 16 48 88 121 132 134 58 18 153 7 198-23zm1169-555c157-49 258-158 301-326 18-72 20-111 20-497v-418h-189-190l-4 372c-4 412-6 425-67 489-102 107-299 55-367-96-16-36-18-79-21-402l-3-363h-190-189v610 610h180 180v-79-79l58 57c58 59 152 112 228 130 69 16 188 12 253-8zm-1099-631v-610h-190-190v610 610h190 190z" transform="matrix(.1 0 0 -.1 0 256)"/></svg>