<svg fill="none" height="24" viewBox="0 0 24 24" width="24" xmlns="http://www.w3.org/2000/svg"><g clip-rule="evenodd" fill="#801ed7" fill-rule="evenodd"><path d="m8 12c0-.5523.44772-1 1-1h12c.5523 0 1 .4477 1 1s-.4477 1-1 1h-12c-.55228 0-1-.4477-1-1z"/><path d="m8 6c0-.55228.44772-1 1-1h12c.5523 0 1 .44772 1 1 0 .55229-.4477 1-1 1h-12c-.55228 0-1-.44772-1-1z"/><path d="m8 18c0-.5523.44772-1 1-1h12c.5523 0 1 .4477 1 1s-.4477 1-1 1h-12c-.55228 0-1-.4477-1-1z"/><path d="m2 12c0-1.1046.89543-2 2-2s2 .8954 2 2-.89543 2-2 2-2-.8954-2-2z"/><path d="m2 6c0-1.10457.89543-2 2-2s2 .89543 2 2-.89543 2-2 2-2-.89543-2-2z"/><path d="m2 18c0-1.1046.89543-2 2-2s2 .8954 2 2-.89543 2-2 2-2-.8954-2-2z"/></g></svg>