<svg fill="none" height="24" viewBox="0 0 24 24" width="24" xmlns="http://www.w3.org/2000/svg"><path clip-rule="evenodd" d="m19.7776 4.22191c-4.2959-4.2958784-11.25982-4.2958784-15.55569 0-4.2958784 4.29587-4.2958784 11.25979 0 15.55569 4.29587 4.2959 11.25979 4.2959 15.55569 0s4.2959-11.25982 0-15.55569zm-6.6546-1.15194c1.9158.23967 3.7693 1.09505 5.2404 2.56615.5562.5562 1.0244 1.16706 1.4045 1.81527.0085.01673.0175.03332.027.04975.9909 1.71235.4878 3.90006-1.1528 5.01076-.0083.0056-.0166.0114-.0248.0173-1.2606.8378-2.8936.84-4.1517.0207-.0545-.0355-.1082-.0725-.1612-.111l-.9065-.6591.6596-.9071c1.4298-1.96602 1.4752-4.6169.1144-6.6319-.0072-.01062-.0146-.02109-.0221-.03142-.297-.43314-.6433-.81392-1.0268-1.13941zm-5.69186 1.17351c-.64069.37803-1.24462.84224-1.79502 1.39264-1.47159 1.47159-2.32705 3.3258-2.56639 5.24228.32537-.3835.70605-.7299 1.13919-1.02703.01029-.00755.02074-.0149.03132-.02205 2.01428-1.36122 4.6652-1.31536 6.63196.11406l.9081.66032.6596-.90717c.0385-.05296.0755-.1067.111-.16113.8193-1.25815.8171-2.89113-.0207-4.15176-.0059-.00817-.0117-.01643-.0173-.02478-1.1108-1.64058-3.29843-2.14369-5.01077-1.1528-.02337.01352-.04705.02599-.07099.03742zm-3.19353 12.31492c.37908.6444.84525 1.2517 1.39851 1.805 1.47136 1.4713 3.32524 2.3268 5.24138 2.5663-.3827-.3251-.7285-.7052-1.02514-1.1376-.00755-.0103-.01491-.0208-.02206-.0314-1.36121-2.0142-1.31535-4.6652.11406-6.632l.65984-.9074-.90779-.6601c-1.27873-.9292-2.99917-.9641-4.31285-.0905-.00817.0059-.01644.0117-.02479.0173-1.63919 1.1104-2.1424 3.2963-1.1524 5.0119.01113.0193.02154.0388.03124.0585zm12.29399 3.2192c.6543-.3819 1.2709-.8533 1.8318-1.4142 1.4709-1.4709 2.3262-3.324 2.566-5.2395-.3251.3827-.7054.7284-1.1378 1.0249-.0103.0076-.0208.0149-.0314.0221-2.015 1.3608-4.6659 1.3154-6.6319-.1144l-.9065-.6591-.6596.9072c-.9292 1.2787-.9642 2.9991-.0905 4.3128.0035.0049.007.0098.0104.0147.0023.0034.0046.0067.0069.0101 1.1104 1.6392 3.2963 2.1424 5.0119 1.1524.0102-.0059.0204-.0115.0307-.017z" fill="#801ed7" fill-rule="evenodd"/></svg>