<svg fill="none" height="24" viewBox="0 0 24 24" width="24" xmlns="http://www.w3.org/2000/svg"><g clip-rule="evenodd" fill="#801ed7" fill-rule="evenodd"><path d="m12 1c.5523 0 1 .44772 1 1v4c0 .55228-.4477 1-1 1s-1-.44772-1-1v-4c0-.55228.4477-1 1-1z"/><path d="m12 17c.5523 0 1 .4477 1 1v4c0 .5523-.4477 1-1 1s-1-.4477-1-1v-4c0-.5523.4477-1 1-1z"/><path d="m1 12c0-.5523.44772-1 1-1h4c.55228 0 1 .4477 1 1s-.44772 1-1 1h-4c-.55228 0-1-.4477-1-1z"/><path d="m17 12c0-.5523.4477-1 1-1h4c.5523 0 1 .4477 1 1s-.4477 1-1 1h-4c-.5523 0-1-.4477-1-1z"/><path d="m15.5429 15.5429c.3905-.3905 1.0237-.3905 1.4142 0l2.8284 2.8284c.3906.3905.3906 1.0237 0 1.4142-.3905.3906-1.0237.3906-1.4142 0l-2.8284-2.8284c-.3905-.3905-.3905-1.0237 0-1.4142z"/><path d="m19.7855 4.29283c.3906.39053.3906 1.02369 0 1.41422l-2.8284 2.82843c-.3905.39052-1.0237.39052-1.4142 0-.3905-.39053-.3905-1.02369 0-1.41422l2.8284-2.82843c.3905-.39052 1.0237-.39052 1.4142 0z"/><path d="m8.45711 15.5429c.39052.3905.39052 1.0237 0 1.4142l-2.82843 2.8284c-.39053.3906-1.02369.3906-1.41421 0-.39053-.3905-.39053-1.0237 0-1.4142l2.82842-2.8284c.39053-.3905 1.02369-.3905 1.41422 0z"/><path d="m4.21447 4.29283c.39052-.39052 1.02368-.39052 1.41421 0l2.82843 2.82843c.39052.39053.39052 1.02369 0 1.41422-.39053.39052-1.02369.39052-1.41422 0l-2.82842-2.82843c-.39053-.39053-.39053-1.02369 0-1.41422z"/></g></svg>