<svg fill="none" height="24" viewBox="0 0 24 24" width="24" xmlns="http://www.w3.org/2000/svg"><g clip-rule="evenodd" fill="#801ed7" fill-rule="evenodd"><path d="m12 1.25c.5523 0 1 .44772 1 1v2.5c0 .55228-.4477 1-1 1s-1-.44772-1-1v-2.5c0-.55228.4477-1 1-1z"/><path d="m12 17c.5523 0 1 .4477 1 1v4c0 .5523-.4477 1-1 1s-1-.4477-1-1v-4c0-.5523.4477-1 1-1z"/><path d="m1.25 12c0-.5523.44772-1 1-1h3.5c.55228 0 1 .4477 1 1s-.44772 1-1 1h-3.5c-.55228 0-1-.4477-1-1z"/><path d="m18.75 12c0-.5523.4477-1 1-1h1.5c.5523 0 1 .4477 1 1s-.4477 1-1 1h-1.5c-.5523 0-1-.4477-1-1z"/><path d="m17.0429 17.0429c.3905-.3905 1.0237-.3905 1.4142 0l.7071.7071c.3905.3905.3905 1.0237 0 1.4142s-1.0237.3905-1.4142 0l-.7071-.7071c-.3905-.3905-.3905-1.0237 0-1.4142z"/><path d="m19.3713 4.70868c.3905.39052.3905 1.02369 0 1.41421l-1.4142 1.41422c-.3905.39052-1.0237.39052-1.4142 0-.3905-.39053-.3905-1.02369 0-1.41422l1.4142-1.41421c.3905-.39052 1.0237-.39052 1.4142 0z"/><path d="m8.45711 15.5429c.39052.3905.39052 1.0237 0 1.4142l-2.82843 2.8284c-.39053.3906-1.02369.3906-1.41421 0-.39053-.3905-.39053-1.0237 0-1.4142l2.82842-2.8284c.39053-.3905 1.02369-.3905 1.41422 0z"/><path d="m4.42157 4.50157c.39053-.39052 1.02369-.39052 1.41422 0l2.12132 2.12132c.39052.39053.39052 1.02369 0 1.41422-.39053.39052-1.02369.39052-1.41422 0l-2.12132-2.12132c-.39052-.39053-.39052-1.02369 0-1.41422z"/></g></svg>