<svg fill="none" height="24" viewBox="0 0 24 24" width="24" xmlns="http://www.w3.org/2000/svg"><path clip-rule="evenodd" d="m6 8v1.70835c-1.24473 1.41025-2 3.26275-2 5.29165 0 4.4183 3.58172 8 8 8 4.4183 0 8-3.5817 8-8 0-2.0289-.7553-3.8814-2-5.29165v-1.70835c0-3.31371-2.6863-6-6-6-3.31371 0-6 2.68629-6 6zm6-4c-2.20914 0-4 1.79086-4 4v.07026c1.17669-.68068 2.5429-1.07026 4-1.07026s2.8233.38958 4 1.07026v-.07026c0-2.20914-1.7909-4-4-4zm1 10c0-.5523-.4477-1-1-1s-1 .4477-1 1v2c0 .5523.4477 1 1 1s1-.4477 1-1z" fill="#801ed7" fill-rule="evenodd"/></svg>