<svg fill="none" height="24" viewBox="0 0 24 24" width="24" xmlns="http://www.w3.org/2000/svg"><path clip-rule="evenodd" d="m12 1c-6.07513 0-11 4.92487-11 11 0 6.0751 4.92487 11 11 11 6.0751 0 11-4.9249 11-11 0-6.07513-4.9249-11-11-11zm1.6276 11.7907c-.0019.0865.0334.1924.104.404l.9174 2.7523c.1185.3555.1778.5333.1422.6748-.0311.1238-.1084.2311-.216.2998-.123.0784-.3104.0784-.6851.0784h-3.7802c-.3747 0-.56207 0-.68506-.0784-.10766-.0687-.18497-.176-.21607-.2998-.03553-.1415.02372-.3193.14222-.6748l.91741-2.7523c.0706-.2116.1059-.3175.104-.404-.0019-.0911-.0141-.1388-.056-.2196-.0399-.0769-.1464-.1761-.35959-.3744-.58862-.5477-.95681-1.3292-.95681-2.1967 0-1.65685 1.3431-3 3-3s3 1.34315 3 3c0 .8675-.3682 1.649-.9568 2.1967-.2132.1983-.3197.2975-.3596.3744-.0419.0808-.0541.1285-.056.2196z" fill="#801ed7" fill-rule="evenodd"/></svg>