<svg fill="none" height="24" viewBox="0 0 24 24" width="24" xmlns="http://www.w3.org/2000/svg"><path clip-rule="evenodd" d="m12 2c-3.31371 0-6 2.68629-6 6v2.0271c-.08675.0048-.17067.0105-.25182.0171-.5621.0459-1.07881.1445-1.56414.3918-.75265.3835-1.36457.9954-1.74806 1.748-.2473.4854-.34586 1.0021-.39179 1.5642-.04421.5412-.0442 1.2055-.04419 2.0105v.4826c-.00001.805-.00002 1.4693.04419 2.0105.04593.5621.14449 1.0788.39179 1.5642.38349.7526.99541 1.3645 1.74806 1.748.48533.2473 1.00204.3459 1.56414.3918.5412.0442 1.20556.0442 2.01055.0442h8.48257c.805 0 1.4693 0 2.0105-.0442.5621-.0459 1.0788-.1445 1.5642-.3918.7526-.3835 1.3645-.9954 1.748-1.748.2473-.4854.3459-1.0021.3918-1.5642.0442-.5412.0442-1.2055.0442-2.0105v-.4826c0-.805 0-1.4693-.0442-2.0105-.0459-.5621-.1445-1.0788-.3918-1.5642-.3835-.7526-.9954-1.3645-1.748-1.748-.4854-.2473-1.0021-.3459-1.5642-.3918-.5412-.04422-1.2055-.04421-2.0105-.0442h-8.2413v-2c0-2.20914 1.79086-4 4-4 1.934 0 3.5494 1.37356 3.92 3.19893.1098.54125.6377.89095 1.1789.78108.5413-.10986.891-.6377.7811-1.17894-.556-2.73911-2.9761-4.80107-5.88-4.80107z" fill="#801ed7" fill-rule="evenodd"/></svg>