<svg fill="none" height="24" viewBox="0 0 24 24" width="24" xmlns="http://www.w3.org/2000/svg"><path clip-rule="evenodd" d="m17.8385 2h-11.67704c-.52713-.00002-.98192-.00003-1.35649.03057-.39534.0323-.78856.10362-1.16694.29641-.56449.28762-1.02343.74656-1.31105 1.31105-.19279.37838-.26411.7716-.29641 1.16694-.0306.37457-.03059.82932-.03057 1.35645v11.67708c-.00002.5272-.00003.982.03057 1.3565.0323.3954.10362.7886.29641 1.167.28762.5645.74656 1.0234 1.31105 1.311.37838.1928.7716.2641 1.16694.2964.37457.0306.82933.0306 1.35647.0306h11.67716c.5271 0 .9819 0 1.3564-.0306.3954-.0323.7886-.1036 1.167-.2964.5645-.2876 1.0234-.7465 1.311-1.311.1928-.3784.2641-.7716.2964-1.167.0306-.3745.0306-.8293.0306-1.3564v-11.67716c0-.52714 0-.9819-.0306-1.35647-.0323-.39534-.1036-.78856-.2964-1.16694-.2876-.56449-.7465-1.02343-1.311-1.31105-.3784-.19279-.7716-.26411-1.167-.29641-.3745-.0306-.8293-.03059-1.3565-.03057zm-4.1069 11.1947.9174 2.7523c.1185.3555.1778.5333.1422.6748-.0311.1238-.1084.2311-.216.2998-.123.0784-.3104.0784-.6851.0784h-3.7802c-.3747 0-.56207 0-.68506-.0784-.10766-.0687-.18497-.176-.21607-.2998-.03553-.1415.02372-.3193.14223-.6748l.9174-2.7523c.0706-.2116.1059-.3175.104-.404-.0019-.0911-.0141-.1388-.056-.2196-.0399-.0769-.1464-.1761-.35959-.3744-.58862-.5477-.95681-1.3292-.95681-2.1967 0-1.65685 1.3431-3 3-3s3 1.34315 3 3c0 .8675-.3682 1.649-.9568 2.1967-.2132.1983-.3197.2975-.3596.3744-.0419.0808-.0541.1285-.056.2196-.0019.0865.0334.1924.104.404z" fill="#801ed7" fill-rule="evenodd"/></svg>