<svg fill="none" height="24" viewBox="0 0 24 24" width="24" xmlns="http://www.w3.org/2000/svg"><path clip-rule="evenodd" d="m6 8c0-3.31371 2.68629-6 6-6 3.3137 0 6 2.68629 6 6v1.15032c.2826.06193.5539.15211.816.28566.7526.38349 1.3645.99542 1.748 1.74802.2473.4854.3459 1.0021.3918 1.5642.0442.5412.0442 1.2055.0442 2.0105v1.4826c0 .805 0 1.4693-.0442 2.0105-.0459.5621-.1445 1.0788-.3918 1.5642-.3835.7526-.9954 1.3645-1.748 1.748-.4854.2473-1.0021.3459-1.5642.3918-.5412.0442-1.2055.0442-2.0105.0442h-6.48257c-.80498 0-1.46935 0-2.01055-.0442-.5621-.0459-1.0788-.1445-1.56414-.3918-.75265-.3835-1.36457-.9954-1.74806-1.748-.2473-.4854-.34586-1.0021-.39178-1.5642-.04422-.5412-.04421-1.2055-.0442-2.0105v-1.4826c-.00001-.805-.00002-1.4693.0442-2.0105.04592-.5621.14448-1.0788.39178-1.5642.38349-.7526.99541-1.36453 1.74806-1.74802.2621-.13355.53335-.22372.81596-.28566zm10 0v1.00163h-8v-1.00163c0-2.20914 1.79086-4 4-4 2.2091 0 4 1.79086 4 4zm-3 6.5c0-.5523-.4477-1-1-1s-1 .4477-1 1v2c0 .5523.4477 1 1 1s1-.4477 1-1z" fill="#801ed7" fill-rule="evenodd"/></svg>