<svg fill="none" height="24" viewBox="0 0 24 24" width="24" xmlns="http://www.w3.org/2000/svg"><path d="m6 8c0-3.31371 2.68629-6 6-6 2.9039 0 5.324 2.06196 5.88 4.80107.1099.54124-.2398 1.06908-.7811 1.17894-.5412.10987-1.0691-.23983-1.1789-.78108-.3706-1.82537-1.986-3.19893-3.92-3.19893-2.20914 0-4 1.79086-4 4v2.0016c.23771-.00161.49039-.0016.75869-.0016h6.48261c.805-.00001 1.4693-.00002 2.0105.0442.5621.0459 1.0788.1445 1.5642.3918.7526.3835 1.3645.9954 1.748 1.748.2473.4854.3459 1.0021.3918 1.5642.0442.5412.0442 1.2055.0442 2.0105v.4826c0 .805 0 1.4693-.0442 2.0105-.0459.5621-.1445 1.0788-.3918 1.5642-.3835.7526-.9954 1.3645-1.748 1.748-.4854.2473-1.0021.3459-1.5642.3918-.5412.0442-1.2055.0442-2.0105.0442h-6.48257c-.80499 0-1.46935 0-2.01055-.0442-.5621-.0459-1.07881-.1445-1.56414-.3918-.75265-.3835-1.36457-.9954-1.74806-1.748-.2473-.4854-.34586-1.0021-.39179-1.5642-.04421-.5412-.0442-1.2055-.04419-2.0105v-.4826c-.00001-.805-.00002-1.4693.04419-2.0105.04593-.5621.14449-1.0788.39179-1.5642.38349-.7526.99541-1.3645 1.74806-1.748.2621-.1336.53335-.2237.81596-.2857z" fill="#801ed7"/></svg>