<svg fill="none" height="24" viewBox="0 0 24 24" width="24" xmlns="http://www.w3.org/2000/svg"><path clip-rule="evenodd" d="m8 8c0-2.20914 1.79086-4 4-4 1.308 0 2.4693.62676 3.2008 1.60058.3317.44159.9586.53068 1.4001.19899.4416-.33169.5307-.95856.199-1.40015-1.0929-1.45508-2.8363-2.39942-4.7999-2.39942-3.31371 0-6 2.68629-6 6v1.70835c-1.24473 1.41025-2 3.26275-2 5.29165 0 4.4183 3.58172 8 8 8 4.4183 0 8-3.5817 8-8s-3.5817-8-8-8c-1.4571 0-2.82331.38958-4 1.07026zm5 6c0-.5523-.4477-1-1-1s-1 .4477-1 1v2c0 .5523.4477 1 1 1s1-.4477 1-1z" fill="#801ed7" fill-rule="evenodd"/></svg>