<svg fill="none" height="24" viewBox="0 0 24 24" width="24" xmlns="http://www.w3.org/2000/svg"><g fill="#801ed7"><path d="m1 12c0-5.48694 4.29268-10 9.6667-10 1.7666 0 3.4238.49112 4.8482 1.34682.4735.2844.6267.89874.3423 1.37217s-.8987.62667-1.3721.34227c-1.1251-.67583-2.4279-1.06126-3.8184-1.06126-4.19898 0-7.6667 3.54581-7.6667 8 0 4.4542 3.46772 8 7.6667 8 1.3905 0 2.6933-.3854 3.8184-1.0613.4734-.2844 1.0877-.1311 1.3721.3423s.1312 1.0878-.3423 1.3722c-1.4244.8557-3.0816 1.3468-4.8482 1.3468-5.37402 0-9.6667-4.5131-9.6667-10z"/><path d="m17.2929 7.29289c.3905-.39052 1.0237-.39052 1.4142 0l4 4.00001c.3905.3905.3905 1.0237 0 1.4142l-4 4c-.3905.3905-1.0237.3905-1.4142 0s-.3905-1.0237 0-1.4142l2.2929-2.2929h-10.5858c-.55228 0-1-.4477-1-1s.44772-1 1-1h10.5858l-2.2929-2.29289c-.3905-.39053-.3905-1.02369 0-1.41422z"/></g></svg>