<svg fill="none" height="24" viewBox="0 0 24 24" width="24" xmlns="http://www.w3.org/2000/svg"><g fill="#801ed7"><path d="m9.51764 4.06812c-.22228-.05956-.52329-.06815-1.51764-.06815h-.5c-.71259 0-1.19696.00055-1.57339.02623-.36746.02507-.55848.07072-.69198.12602-.49005.20298-.8794.59233-1.08239 1.08239-.05529.1335-.10094.32451-.12601.69197-.02569.37644-.02623.8608-.02623 1.57339v9.00003c0 .7126.00054 1.1969.02623 1.5734.02507.3674.07071.5584.12601.6919.20299.4901.59234.8794 1.08239 1.0824.1335.0553.32452.101.69197.126.37644.0257.86081.0263 1.5734.0263h.5c.99435 0 1.29536-.0086 1.51764-.0682.69016-.1849 1.22926-.724 1.41426-1.4142.0595-.2223.0681-.5233.0681-1.5176 0-.5523.4477-1 1-1s1 .4477 1 1l.0001.1375c.0004.7954.0007 1.3861-.1364 1.8978-.3699 1.3803-1.4481 2.4585-2.8284 2.8284-.51167.1371-1.10234.1368-1.89772.1363h-.67185c-.66979 0-1.22266 0-1.67527-.0309-.46928-.032-.90338-.1005-1.32119-.2736-.98012-.406-1.75881-1.1847-2.16479-2.1648-.17306-.4178-.2416-.8519-.27361-1.3212-.03089-.4526-.03088-1.0055-.03087-1.6752v-9.06859c-.00001-.66979-.00002-1.22267.03087-1.67527.03201-.46929.10055-.90339.27361-1.3212.40598-.98011 1.18468-1.75881 2.16479-2.16478.41781-.17307.85191-.2416 1.32119-.27362.45261-.03088 1.00548-.03087 1.67527-.03087l.67185-.00004c.79539-.00044 1.38605-.00076 1.89772.13634 1.3803.36987 2.4585 1.44806 2.8284 2.82843.1371.51165.1368 1.1023.1364 1.89768l-.0001.13759c0 .55229-.4477 1-1 1s-1-.44771-1-1c0-.99435-.0086-1.29536-.0681-1.51763-.185-.69019-.7241-1.22928-1.41426-1.41422z"/><path d="m15.2929 6.29289c.3905-.39052 1.0237-.39052 1.4142 0l5 5.00001c.3905.3905.3905 1.0237 0 1.4142l-5 5c-.3905.3905-1.0237.3905-1.4142 0s-.3905-1.0237 0-1.4142l3.2929-3.2929h-9.5858c-.55228 0-1-.4477-1-1s.44772-1 1-1h9.5858l-3.2929-3.29289c-.3905-.39053-.3905-1.02369 0-1.41422z"/></g></svg>