<svg fill="none" height="24" viewBox="0 0 24 24" width="24" xmlns="http://www.w3.org/2000/svg"><g fill="#801ed7"><path d="m12 3c-3.33002 0-6.23893 1.80801-7.79658 4.50073-.27654.47806-.88827.64142-1.36633.36488-.47806-.27655-.64143-.88828-.36488-1.36634 1.90044-3.28529 5.45497-5.49927 9.52779-5.49927 6.0751 0 11 4.92487 11 11 0 6.0751-4.9249 11-11 11-4.07282 0-7.62735-2.214-9.52779-5.4993-.27655-.478-.11318-1.0898.36488-1.3663s1.08979-.1132 1.36633.3649c1.55765 2.6927 4.46656 4.5007 7.79658 4.5007 4.9706 0 9-4.0294 9-9 0-4.97056-4.0294-9-9-9z"/><path d="m11.2929 7.29289c.3905-.39052 1.0237-.39052 1.4142 0l4 4.00001c.3905.3905.3905 1.0237 0 1.4142l-4 4c-.3905.3905-1.0237.3905-1.4142 0s-.3905-1.0237 0-1.4142l2.2929-2.2929h-10.5858c-.55228 0-1-.4477-1-1s.44772-1 1-1h10.5858l-2.2929-2.29289c-.3905-.39053-.3905-1.02369 0-1.41422z"/></g></svg>