<svg fill="none" height="24" viewBox="0 0 24 24" width="24" xmlns="http://www.w3.org/2000/svg"><g fill="#801ed7"><path d="m1 12c0-5.48694 4.29268-10 9.6667-10 1.2175 0 2.3831.23328 3.4563.65841.2796.11075.4194.16613.5537.28753.1083.09796.2146.2544.2657.39118.0635.1695.0635.34491.0635.69573v3.36715c0 .56005 0 .84008-.109 1.05399-.0959.18816-.2489.34114-.437.43702-.2139.10899-.494.10899-1.054.10899h-4.4059c-1.65685 0-3 1.3431-3 3s1.34315 3 3 3h4.4016c.5595 0 .8393 0 1.0531.1089.1881.0957.341.2485.437.4365.1091.2137.1093.4935.1099 1.053l.0033 3.3677c.0004.3511.0005.5267-.0628.6964-.0512.137-.1575.2936-.2659.3917-.1343.1215-.2743.177-.5542.2878-1.0729.4249-2.2381.658-3.4553.658-5.37402 0-9.6667-4.5131-9.6667-10z"/><path d="m17.2929 7.29289c.3905-.39052 1.0237-.39052 1.4142 0l4 4.00001c.3905.3905.3905 1.0237 0 1.4142l-4 4c-.3905.3905-1.0237.3905-1.4142 0s-.3905-1.0237 0-1.4142l2.2929-2.2929h-10.5858c-.55228 0-1-.4477-1-1s.44772-1 1-1h10.5858l-2.2929-2.29289c-.3905-.39053-.3905-1.02369 0-1.41422z"/></g></svg>