<svg fill="none" height="24" viewBox="0 0 24 24" width="24" xmlns="http://www.w3.org/2000/svg"><g fill="#801ed7"><path d="m7.9647 2.13627c.51165-.1371 1.10231-.13678 1.89769-.13634l6.37891.00004c.8049-.00001 1.4693-.00002 2.0105.0442.5621.04592 1.0788.14449 1.5641.39178.7527.38349 1.3646.99541 1.7481 1.74806.2473.48534.3459 1.00204.3918 1.56414.0442.54119.0442 1.20554.0442 2.0105v8.48265c0 .805 0 1.4693-.0442 2.0105-.0459.5621-.1445 1.0788-.3918 1.5641-.3835.7527-.9954 1.3646-1.7481 1.7481-.4853.2473-1.002.3459-1.5641.3918-.5412.0442-1.2055.0442-2.0105.0442h-6.3789c-.79539.0005-1.38605.0008-1.8977-.1363-1.38037-.3699-2.45856-1.4481-2.82843-2.8284-.1371-.5117-.13678-1.1024-.13634-1.8977v-.5376c0-.5601 0-.8401.10899-1.054.09587-.1882.24885-.3411.43701-.437.21392-.109.49394-.109 1.054-.109h1.44047c.37062 0 .55592 0 .66086.052.11549.0573.15599.0963.21745.2096.05584.103.06501.3518.08334.8495.02689.7303.3191 1.4527.87663 2.0102 1.17162 1.1716 3.07102 1.1716 4.24262 0l4-4c.2877-.2876.5047-.6191.6511-.9729.145-.3498.2258-.7328.2276-1.1346v-.0138-.0098c-.0025-.7645-.2954-1.5282-.8787-2.11152l-4-4c-1.1716-1.17157-3.071-1.17157-4.24262 0-.55753.55752-.84974 1.2799-.87663 2.01022-.01833.4977-.0275.74655-.08334.8495-.06146.1133-.10196.15234-.21745.20958-.10494.05202-.29024.05202-.66086.05202h-1.44047c-.56006 0-.84008 0-1.054-.10899-.18816-.09588-.34114-.24886-.43701-.43702-.10899-.21391-.10899-.49394-.10899-1.05399v-.53761c-.00044-.79538-.00076-1.38604.13634-1.89769.36987-1.38037 1.44806-2.45856 2.82843-2.82843z"/><path d="m11.2929 7.29289c.3905-.39052 1.0237-.39052 1.4142 0l4 4.00001c.3905.3905.3905 1.0237 0 1.4142l-4 4c-.3905.3905-1.0237.3905-1.4142 0s-.3905-1.0237 0-1.4142l2.2929-2.2929h-10.5858c-.55228 0-1-.4477-1-1s.44772-1 1-1h10.5858l-2.2929-2.29289c-.3905-.39053-.3905-1.02369 0-1.41422z"/></g></svg>