<svg fill="none" height="24" viewBox="0 0 24 24" width="24" xmlns="http://www.w3.org/2000/svg"><g fill="#801ed7"><path d="m6.2341 2.38855c.49554.01966 1.1006.0869 1.83714.16875l1.10053.12227c.25196.02795.43928.04873.60828.08234 1.74645.34723 3.05305 1.80708 3.20535 3.58117.0147.17168.0147.36014.0146.61364v.44328c0 .56005 0 .84008-.109 1.05399-.0959.18816-.2488.34114-.437.43702-.2139.10899-.4939.10899-1.054.10899h-2.4c-1.65685 0-3 1.3431-3 3s1.34315 3 3 3h2.4c.5601 0 .8401 0 1.054.109.1882.0959.3411.2488.437.437.109.2139.109.4939.109 1.054v.4432c.0001.2535.0001.442-.0146.6137-.1523 1.7741-1.4589 3.2339-3.20535 3.5812-.16898.0336-.35632.0543-.60821.0823l-1.06253.118-.00197.0003-.0362.004c-.7365.0818-1.34153.149-1.83706.1687-.51134.0203-.98862-.0049-1.45319-.1535-1.08364-.3468-1.96833-1.1386-2.43265-2.1773-.19906-.4454-.27677-.917-.31307-1.4274-.03519-.4947-.03518-1.1035-.03517-1.8445v-8.01739c-.00001-.74106-.00002-1.34986.03517-1.84454.0363-.51046.11401-.98204.31307-1.42736.46432-1.03872 1.34901-1.83056 2.43265-2.17733.46458-.14866.94186-.17381 1.45321-.15353z"/><path d="m15.2929 6.29289c.3905-.39052 1.0237-.39052 1.4142 0l5 5.00001c.3905.3905.3905 1.0237 0 1.4142l-5 5c-.3905.3905-1.0237.3905-1.4142 0s-.3905-1.0237 0-1.4142l3.2929-3.2929h-9.5858c-.55228 0-1-.4477-1-1s.44772-1 1-1h9.5858l-3.2929-3.29289c-.3905-.39053-.3905-1.02369 0-1.41422z"/></g></svg>