<svg fill="none" height="24" viewBox="0 0 24 24" width="24" xmlns="http://www.w3.org/2000/svg"><g fill="#801ed7"><path d="m17.7206 1.48042c.623-.0293 1.203.00876 1.7573.22919.8525.33894 1.5625.96058 2.0111 1.76073.2918.52038.4062 1.09028.4595 1.7116.0515.6016.0515 1.34746.0515 2.25624v9.12382c0 .9088 0 1.6545-.0515 2.2561-.0533.6213-.1677 1.1912-.4595 1.7116-.4486.8001-1.1586 1.4218-2.0111 1.7607-.5543.2204-1.1343.2585-1.7573.2292-.6031-.0284-1.3423-.127-2.2432-.2471l-6.63375-.8845-.00219-.0003-.05097-.0068c-.29866-.0397-.52092-.0693-.72106-.1172-1.65261-.3953-2.87509-1.7916-3.04852-3.482-.02101-.2047-.02097-.429-.0209-.7304v-.4513c0-.5601 0-.8401.10899-1.054.09587-.1882.24885-.3411.43702-.437.21391-.109.49393-.109 1.05399-.109h1.44039c.37062 0 .55592 0 .66086.052.11549.0573.15599.0963.21745.2096.05584.103.06501.3518.08334.8495.02689.7303.3191 1.4527.87663 2.0102 1.17162 1.1716 3.07102 1.1716 4.24262 0l4-4c1.1716-1.1716 1.1716-3.071 0-4.24262l-4-4c-1.1716-1.17157-3.071-1.17157-4.24262 0-.55753.55752-.84974 1.2799-.87663 2.01022-.01833.4977-.0275.74655-.08334.8495-.06146.1133-.10196.15234-.21745.20958-.10494.05202-.29024.05202-.66086.05202h-1.44039c-.56006 0-.84008 0-1.05399-.10899-.18817-.09588-.34115-.24886-.43702-.43702-.10899-.21391-.10899-.49394-.10899-1.05399v-.45129c-.00007-.3014-.00011-.52567.02089-.73043.17344-1.69035 1.39592-3.08665 3.04853-3.48197.20018-.04788.42249-.07748.72126-.11725l6.68671-.89155c.9009-.12013 1.6401-.21871 2.2432-.24709z"/><path d="m11.2929 7.29289c.3905-.39052 1.0237-.39052 1.4142 0l4 4.00001c.3905.3905.3905 1.0237 0 1.4142l-4 4c-.3905.3905-1.0237.3905-1.4142 0s-.3905-1.0237 0-1.4142l2.2929-2.2929h-10.5858c-.55228 0-1-.4477-1-1s.44772-1 1-1h10.5858l-2.2929-2.29289c-.3905-.39053-.3905-1.02369 0-1.41422z"/></g></svg>