<svg fill="none" height="24" viewBox="0 0 24 24" width="24" xmlns="http://www.w3.org/2000/svg"><g fill="#801ed7"><path d="m7.46928 2.03699c-.23566-.03732-.49767-.03716-.8022-.03696l-.14963.00001c-.47697-.00016-.83046-.00027-1.14321.04926-1.71157.27109-3.05393 1.61344-3.32502 3.32501-.04953.31276-.04942.66625-.04926 1.14322v10.96507c-.00016.4769-.00027.8304.04926 1.1432.27109 1.7116 1.61345 3.0539 3.32502 3.325.31273.0495.6662.0494 1.14313.0493h.14971c.30452.0002.56654.0003.8022-.037 1.28368-.2033 2.29045-1.2101 2.49376-2.4937.03736-.2357.03716-.4977.03696-.8022v-2.6672c0-.5523-.44772-1-1-1-1.65685 0-3-1.3431-3-3s1.34315-3 3-3c.55228 0 1-.44772 1-1v-2.66706c.0002-.30451.0004-.56653-.03696-.80219-.20331-1.28368-1.21008-2.29044-2.49376-2.49376z"/><path d="m15.2929 6.29289c.3905-.39052 1.0237-.39052 1.4142 0l5 5.00001c.3905.3905.3905 1.0237 0 1.4142l-5 5c-.3905.3905-1.0237.3905-1.4142 0s-.3905-1.0237 0-1.4142l3.2929-3.2929h-9.5858c-.55228 0-1-.4477-1-1s.44772-1 1-1h9.5858l-3.2929-3.29289c-.3905-.39053-.3905-1.02369 0-1.41422z"/></g></svg>