<svg fill="none" height="24" viewBox="0 0 24 24" width="24" xmlns="http://www.w3.org/2000/svg"><path d="m1.33989 14.7243c-.12718-.4992-.19077-.7488-.10893-1.0166.06532-.2137.24602-.4462.43699-.5623.23931-.1454.53537-.1454 1.12749-.1454h10.79026l-2.2929 2.2929c-.3905.3905-.3905 1.0237 0 1.4142s1.0237.3905 1.4142 0l4-4c.3906-.3905.3906-1.0237 0-1.4142l-4-4.00001c-.3905-.39052-1.0237-.39052-1.4142 0-.3905.39053-.3905 1.02369 0 1.41422l2.2929 2.29289h-10.79026c-.59212 0-.88818 0-1.12749-.1454-.19097-.1161-.37167-.3486-.43699-.5623-.08184-.2678-.01825-.51741.10893-1.01656 1.21214-4.75743 5.52522-8.27574 10.66001-8.27574 6.0752 0 11 4.92487 11 11 0 6.0751-4.9248 11-11 11-5.13479 0-9.44787-3.5183-10.66001-8.2757z" fill="#801ed7"/></svg>