<svg fill="none" height="24" viewBox="0 0 24 24" width="24" xmlns="http://www.w3.org/2000/svg"><g fill="#801ed7"><path d="m8.07123 2.5573 1.10054.12227c.25196.02795.43928.04873.60828.08234 1.74645.34723 3.05305 1.80708 3.20535 3.58117.0147.17168.0147.36013.0146.61364v.04326c0 .55229-.4477 1-1 1s-1-.44771-1-1c0-.31558-.0009-.41113-.0073-.48589-.0762-.88704-.7295-1.61696-1.60268-1.79058-.07358-.01463-.16845-.02609-.4821-.06094l-1.02141-.11349c-.78157-.08684-1.3157-.14559-1.7317-.1621-.40829-.0162-.6194.01356-.76437.05995-.54182.17338-.98416.5693-1.21632 1.08866-.06211.13896-.115.34549-.14399.75307-.02954.41528-.03013.95263-.03013 1.73901v7.94463c0 .7864.00059 1.3237.03013 1.739.02899.4076.08187.6141.14399.7531.23216.5193.6745.9152 1.21632 1.0886.14496.0464.35608.0762.76438.06.416-.0165.95013-.0753 1.73169-.1621l1.02141-.1135c.31355-.0348.40854-.0463.4821-.0609.87318-.1737 1.52648-.9036 1.60268-1.7906.0064-.0748.0073-.1703.0073-.4859 0-.5523.4477-1 1-1s1 .4477 1 1v.0432c.0001.2535.0001.442-.0146.6137-.1523 1.7741-1.4589 3.2339-3.20535 3.5812-.169.0336-.35645.0544-.60837.0823l-1.10047.1223c-.73651.0818-1.34156.149-1.83711.1687-.51134.0203-.98863-.0049-1.45322-.1535-1.08363-.3468-1.96832-1.1386-2.43264-2.1773-.19906-.4454-.27677-.917-.31307-1.4274-.03519-.4947-.03518-1.1035-.03517-1.8445v-8.01738c-.00001-.74107-.00002-1.34986.03517-1.84455.0363-.51046.11401-.98204.31307-1.42736.46432-1.03872 1.34901-1.83056 2.43265-2.17733.46458-.14866.94186-.17381 1.4532-.15353.49555.01966 1.10061.0869 1.83714.16875z"/><path d="m15.2929 6.29289c.3905-.39052 1.0237-.39052 1.4142 0l5 5.00001c.3905.3905.3905 1.0237 0 1.4142l-5 5c-.3905.3905-1.0237.3905-1.4142 0s-.3905-1.0237 0-1.4142l3.2929-3.2929h-9.5858c-.55228 0-1-.4477-1-1s.44772-1 1-1h9.5858l-3.2929-3.29289c-.3905-.39053-.3905-1.02369 0-1.41422z"/></g></svg>