<svg fill="none" height="24" viewBox="0 0 24 24" width="24" xmlns="http://www.w3.org/2000/svg"><g fill="#801ed7"><path d="m8.13758 1.99993c.79539-.00044 1.38605-.00076 1.89772.13634 1.3803.36987 2.4585 1.44806 2.8284 2.82843.1371.51165.1368 1.10232.1364 1.8977v.5376c0 .56005 0 .84008-.109 1.05399-.0959.18816-.2489.34114-.4371.43702-.2139.10899-.4939.10899-1.0539.10899h-2.4001c-1.65685 0-3 1.3431-3 3s1.34315 3 3 3h2.4001c.56 0 .84 0 1.0539.109.1882.0959.3412.2488.4371.437.109.2139.109.4939.109 1.054v.5376c.0004.7953.0007 1.386-.1364 1.8977-.3699 1.3803-1.4481 2.4585-2.8284 2.8284-.51167.1371-1.10233.1368-1.89772.1363h-.67185c-.66979 0-1.22266 0-1.67527-.0309-.46928-.032-.90338-.1005-1.32119-.2736-.98012-.406-1.75881-1.1847-2.16479-2.1648-.17306-.4178-.24159-.8519-.27361-1.3212-.03088-.4526-.03088-1.0055-.03087-1.6752v-9.06862c-.00001-.66977-.00001-1.22265.03087-1.67524.03202-.46929.10055-.90339.27361-1.3212.40598-.98011 1.18468-1.75881 2.16479-2.16478.41781-.17307.85191-.2416 1.32119-.27362.45261-.03088 1.00548-.03087 1.67528-.03087z"/><path d="m15.2929 6.29289c.3905-.39052 1.0237-.39052 1.4142 0l5 5.00001c.3905.3905.3905 1.0237 0 1.4142l-5 5c-.3905.3905-1.0237.3905-1.4142 0s-.3905-1.0237 0-1.4142l3.2929-3.2929h-9.5858c-.55228 0-1-.4477-1-1s.44772-1 1-1h9.5858l-3.2929-3.29289c-.3905-.39053-.3905-1.02369 0-1.41422z"/></g></svg>