<svg fill="none" height="24" viewBox="0 0 24 24" width="24" xmlns="http://www.w3.org/2000/svg"><g fill="#801ed7"><path d="m17.8146 3.47821c-.5073.02387-1.1612.11019-2.1168.23761l-6.59194.87892c-.37175.04957-.48394.06583-.57114.08669-.8263.19767-1.43754.89581-1.52426 1.74099-.00915.08919-.01045.20254-.01045.57759 0 .55228-.44771 1-1 1-.55228 0-1-.44772-1-1v-.0513c-.00007-.3014-.00011-.52567.02089-.73043.17344-1.69035 1.39592-3.08665 3.04853-3.48197.20018-.04788.42248-.07748.72125-.11725l6.68672-.89155c.9009-.12013 1.6401-.21871 2.2432-.24709.623-.0293 1.203.00876 1.7573.22919.8525.33894 1.5625.96058 2.0111 1.76073.2918.52038.4062 1.09028.4595 1.7116.0515.60163.0515 1.34737.0515 2.25622v9.12364c0 .9089 0 1.6546-.0515 2.2563-.0533.6213-.1677 1.1912-.4595 1.7116-.4486.8001-1.1586 1.4218-2.0111 1.7607-.5543.2204-1.1343.2585-1.7573.2292-.6031-.0284-1.3423-.127-2.2432-.2471l-6.68688-.8916c-.29856-.0397-.52099-.0693-.72109-.1172-1.65261-.3953-2.87509-1.7916-3.04852-3.482-.02101-.2047-.02097-.429-.0209-.7304v-.0513c0-.5523.44772-1 1-1 .55229 0 1 .4477 1 1 0 .3751.0013.4884.01045.5776.08672.8452.69796 1.5433 1.52426 1.741.08719.0208.19941.0371.57115.0867l6.59193.8789c.9556.1274 1.6095.2137 2.1168.2376.4974.0234.7506-.0208.9244-.0899.4262-.1694.7812-.4803 1.0055-.8803.0915-.1632.1687-.4083.2113-.9044.0434-.506.0442-1.1656.0442-2.1297v-9.03501c0-.96408-.0008-1.62366-.0442-2.12969-.0426-.49608-.1198-.7412-.2113-.90435-.2243-.40008-.5793-.7109-1.0055-.88037-.1738-.06911-.427-.11327-.9244-.08987z"/><path d="m11.2929 7.29289c.3905-.39052 1.0237-.39052 1.4142 0l4 4.00001c.3905.3905.3905 1.0237 0 1.4142l-4 4c-.3905.3905-1.0237.3905-1.4142 0s-.3905-1.0237 0-1.4142l2.2929-2.2929h-10.5858c-.55228 0-1-.4477-1-1s.44772-1 1-1h10.5858l-2.2929-2.29289c-.3905-.39053-.3905-1.02369 0-1.41422z"/></g></svg>