<svg fill="none" height="24" viewBox="0 0 24 24" width="24" xmlns="http://www.w3.org/2000/svg"><g fill="#801ed7"><path d="m16.5307 2.03693c.2356-.03732.4977-.03716.8022-.03696l.1496.00001c.477-.00016.8305-.00027 1.1432.04926 1.7116.27109 3.054 1.61345 3.325 3.32502.0496.31275.0495.66624.0493 1.14322v10.96502c.0002.477.0003.8305-.0493 1.1432-.271 1.7116-1.6134 3.054-3.325 3.325-.3127.0496-.6663.0495-1.1432.0493h-.1496c-.3045.0002-.5666.0004-.8022-.0369-1.2837-.2034-2.2905-1.2101-2.4938-2.4938-.0373-.2357-.0371-.4977-.0369-.8022v-.7617c0-.2446 0-.3669.0276-.482.0245-.102.0649-.1995.1197-.289.0619-.1009.1483-.1874.3213-.3604l2.6527-2.6527c1.1716-1.1716 1.1716-3.071 0-4.24262l-2.6527-2.65272c-.173-.17296-.2594-.25943-.3213-.36035-.0548-.08947-.0952-.18702-.1197-.28905-.0276-.11509-.0276-.23738-.0276-.48198v-.76169c-.0002-.30453-.0004-.56654.0369-.8022.2033-1.28368 1.2101-2.29045 2.4938-2.49376z"/><path d="m9.29289 6.29289c.39053-.39052 1.02371-.39052 1.41421 0l5 5.00001c.3905.3905.3905 1.0237 0 1.4142l-5 5c-.3905.3905-1.02368.3905-1.41421 0-.39052-.3905-.39052-1.0237 0-1.4142l3.29291-3.2929h-9.5858c-.55228 0-1-.4477-1-1s.44772-1 1-1h9.5858l-3.29291-3.29289c-.39052-.39053-.39052-1.02369 0-1.41422z"/></g></svg>