<svg fill="none" height="48" viewBox="0 0 48 48" width="48" xmlns="http://www.w3.org/2000/svg"><g fill="#91186e"><path d="m24 6c-6.66 0-12.4779 3.61602-15.59316 9.0015-.55309.9561-1.77654 1.2828-2.73267.7297-.95612-.5531-1.28284-1.7765-.72976-2.7327 3.80089-6.57055 10.90999-10.9985 19.05559-10.9985 12.1502 0 22 9.8497 22 22s-9.8498 22-22 22c-8.1456 0-15.2547-4.428-19.05559-10.9986-.55308-.9561-.22636-2.1795.72976-2.7326.95613-.5531 2.17958-.2264 2.73267.7297 3.11526 5.3855 8.93316 9.0015 15.59316 9.0015 9.9411 0 18-8.0589 18-18s-8.0589-18-18-18z"/><path d="m22.5858 14.5858c.781-.7811 2.0474-.7811 2.8284 0l8 8c.7811.781.7811 2.0474 0 2.8284l-8 8c-.781.7811-2.0474.7811-2.8284 0-.7811-.781-.7811-2.0474 0-2.8284l4.5858-4.5858h-21.1716c-1.10457 0-2-.8954-2-2s.89543-2 2-2h21.1716l-4.5858-4.5858c-.7811-.781-.7811-2.0474 0-2.8284z"/></g></svg>