<svg fill="none" height="24" viewBox="0 0 24 24" width="24" xmlns="http://www.w3.org/2000/svg"><g fill="#801ed7"><path d="m9.86239 1.99993 6.37891.00004c.8049-.00001 1.4693-.00002 2.0105.0442.5621.04592 1.0788.14449 1.5641.39178.7527.38349 1.3646.99541 1.7481 1.74806.2473.48534.3459 1.00204.3918 1.56414.0442.54119.0442 1.20554.0442 2.0105v8.48265c0 .805 0 1.4693-.0442 2.0105-.0459.5621-.1445 1.0788-.3918 1.5641-.3835.7527-.9954 1.3646-1.7481 1.7481-.4853.2473-1.002.3459-1.5641.3918-.5412.0442-1.2055.0442-2.0105.0442h-6.3789c-.79539.0005-1.38605.0008-1.8977-.1363-1.38037-.3699-2.45856-1.4481-2.82843-2.8284-.1371-.5117-.13678-1.1024-.13634-1.8977l.00004-.1376c0-.5523.44772-1 1-1 .55229 0 1 .4477 1 1 0 .9943.00859 1.2953.06815 1.5176.18494.6902.72403 1.2293 1.41422 1.4142.22227.0596.52328.0682 1.51763.0682h6.20003c.8566 0 1.4388-.0008 1.8889-.0376.4385-.0358.6627-.1007.8191-.1804.3763-.1918.6822-.4977.874-.874.0797-.1564.1446-.3806.1804-.8191.0368-.4501.0376-1.0323.0376-1.8889v-8.40003c0-.85658-.0008-1.43887-.0376-1.88896-.0358-.43841-.1007-.66262-.1804-.81902-.1918-.37632-.4977-.68228-.874-.87403-.1564-.07969-.3806-.14461-.8191-.18043-.4501-.03678-1.0323-.03756-1.8889-.03756h-6.20003c-.99435 0-1.29536.00859-1.51763.06815-.69019.18494-1.22928.72403-1.41422 1.41422-.05956.22227-.06815.52328-.06815 1.51763 0 .55229-.44771 1-1 1-.55228 0-1-.44771-1-1l-.00004-.13758c-.00044-.79538-.00076-1.38604.13634-1.89769.36987-1.38037 1.44806-2.45856 2.82843-2.82843.51165-.1371 1.10231-.13678 1.89769-.13634z"/><path d="m11.2929 7.29289c.3905-.39052 1.0237-.39052 1.4142 0l4 4.00001c.3905.3905.3905 1.0237 0 1.4142l-4 4c-.3905.3905-1.0237.3905-1.4142 0s-.3905-1.0237 0-1.4142l2.2929-2.2929h-10.5858c-.55228 0-1-.4477-1-1s.44772-1 1-1h10.5858l-2.2929-2.29289c-.3905-.39053-.3905-1.02369 0-1.41422z"/></g></svg>