<svg fill="none" height="24" viewBox="0 0 24 24" width="24" xmlns="http://www.w3.org/2000/svg"><path clip-rule="evenodd" d="m9.96473 2.13639c.51167-.13709 1.10227-.13677 1.89767-.13634h.2752c.7954-.00043 1.386-.00075 1.8977.13634 1.3803.36987 2.4585 1.44806 2.8284 2.82843.0824.30744.1152.64341.1281 1.03518h.2495c.805-.00001 1.4693-.00002 2.0105.04419.5621.04593 1.0788.14449 1.5642.39179.7526.38349 1.3645.99541 1.748 1.74806.2473.48533.3459 1.00204.3918 1.56414.0442.54122.0442 1.20552.0442 2.01052v4.4826c0 .805 0 1.4693-.0442 2.0105-.0459.5621-.1445 1.0788-.3918 1.5642-.3835.7526-.9954 1.3645-1.748 1.748-.4854.2473-1.0021.3459-1.5642.3918-.5412.0442-1.2056.0442-2.0105.0442h-10.48262c-.80495 0-1.46932 0-2.0105-.0442-.5621-.0459-1.0788-.1445-1.56414-.3918-.75265-.3835-1.36457-.9954-1.74806-1.748-.24729-.4854-.34586-1.0021-.39178-1.5642-.044221-.5412-.044211-1.2055-.0442-2.0105v-4.4826c-.000011-.805-.000021-1.4693.0442-2.01052.04592-.5621.14449-1.07881.39178-1.56414.38349-.75265.99541-1.36457 1.74806-1.74806.48534-.2473 1.00204-.34586 1.56414-.39179.54119-.04421 1.20556-.0442 2.01052-.04419h.24952c.01294-.39177.0457-.72774.12808-1.03518.36987-1.38037 1.44806-2.45856 2.82843-2.82843zm4.96717 3.34607c.0318.11877.0491.26003.0582.51754h-5.98023c.00919-.25751.02646-.39877.05828-.51754.18494-.69019.72403-1.22928 1.41425-1.41422.2222-.05955.5233-.06814 1.5176-.06814.9944 0 1.2954.00859 1.5176.06814.6902.18494 1.2293.72403 1.4143 1.41422zm-2.8774 8.29054c-.0545.107-.0545.247-.0545.527v2.4c0 .28 0 .42.0545.527.0479.0941.1244.1706.2185.2185.107.0545.247.0545.527.0545h4.9c.28 0 .42 0 .527-.0545.0941-.0479.1706-.1244.2185-.2185.0545-.107.0545-.247.0545-.527v-2.4c0-.28 0-.42-.0545-.527-.0479-.0941-.1244-.1706-.2185-.2185-.107-.0545-.247-.0545-.527-.0545h-4.9c-.28 0-.42 0-.527.0545-.0941.0479-.1706.1244-.2185.2185z" fill="#801ed7" fill-rule="evenodd"/></svg>