<svg fill="none" height="24" viewBox="0 0 24 24" width="24" xmlns="http://www.w3.org/2000/svg"><path clip-rule="evenodd" d="m15.2413 1h-6.4826c-.80494-.000011-1.46934-.000021-2.01052.0442-.5621.04592-1.0788.14449-1.56414.39178-.75265.38349-1.36457.99541-1.74806 1.74806-.24729.48534-.34586 1.00204-.39178 1.56414-.04422.54118-.04421 1.20553-.0442 2.01048v8.48264c-.00001.8049-.00002 1.4693.0442 2.0105.04592.5621.14449 1.0788.39178 1.5642.38349.7526.99541 1.3645 1.74806 1.748.48534.2473 1.00204.3459 1.56414.3918.08115.0066.16507.0123.25182.0171v1.0271c0 .5523.44772 1 1 1 .55229 0 1-.4477 1-1v-1h6v1c0 .5523.4477 1 1 1s1-.4477 1-1v-1.0271c.0868-.0048.1707-.0105.2518-.0171.5621-.0459 1.0788-.1445 1.5642-.3918.7526-.3835 1.3645-.9954 1.748-1.748.2473-.4854.3459-1.0021.3918-1.5642.0442-.5412.0442-1.2055.0442-2.0105v-8.48262c0-.80496 0-1.46931-.0442-2.0105-.0459-.5621-.1445-1.0788-.3918-1.56414-.3835-.75265-.9954-1.36457-1.748-1.74806-.4854-.24729-1.0021-.34586-1.5642-.39178-.5412-.044221-1.2056-.044211-2.0105-.0442zm-5.7413 5c.5523 0 1 .44772 1 1v8c0 .5523-.4477 1-1 1-.55228 0-1-.4477-1-1v-8c0-.55228.44772-1 1-1zm6 1c0-.55228-.4477-1-1-1s-1 .44772-1 1v8c0 .5523.4477 1 1 1s1-.4477 1-1z" fill="#801ed7" fill-rule="evenodd"/></svg>