<svg fill="none" height="24" viewBox="0 0 24 24" width="24" xmlns="http://www.w3.org/2000/svg"><path clip-rule="evenodd" d="m11.8624 2.00005c-.7954-.00043-1.386-.00075-1.89767.13634-1.38037.36987-2.45856 1.44806-2.82843 2.82843-.08238.30744-.11514.64341-.12808 1.03518h-.24952c-.80496-.00001-1.46933-.00002-2.01052.04419-.5621.04593-1.0788.14449-1.56414.39179-.75265.38349-1.36457.99541-1.74806 1.74806-.24729.48533-.34586 1.00204-.39178 1.56414-.04422.54122-.044211 1.20552-.0442 2.01042v4.4827c-.000011.805-.00002 1.4693.0442 2.0105.04592.5621.14449 1.0788.39178 1.5642.38349.7526.99541 1.3645 1.74806 1.748.48534.2473 1.00204.3459 1.56414.3918.48245.0394.96722.0464 1.45182.0464.28005-.0001.42007-.0001.52702-.0546.09407-.0479.17055-.1244.21849-.2185.05449-.1069.05449-.2477.05449-.5291v-12.2c0-.55228.44772-1 1-1 .55229 0 1 .44772 1 1v12.2c0 .28 0 .42.0545.527.04793.0941.12442.1706.21851.2185.10695.0545.24696.0545.52699.0545h4.4c.28 0 .42 0 .527-.0545.0941-.0479.1706-.1244.2185-.2185.0545-.107.0545-.247.0545-.527v-1.2c0-.5523.4477-1 1-1s1 .4477 1 1v1.2c0 .2814 0 .4222.0545.5291.0479.0941.1244.1706.2185.2185.1069.0545.247.0545.527.0546.4846 0 .9694-.007 1.4518-.0464.5621-.0459 1.0788-.1445 1.5642-.3918.7526-.3835 1.3645-.9954 1.748-1.748.2473-.4854.3459-1.0021.3918-1.5642.0442-.5412.0442-1.2055.0442-2.0105v-4.4826c0-.805 0-1.4693-.0442-2.01052-.0459-.5621-.1445-1.07881-.3918-1.56414-.3835-.75265-.9954-1.36457-1.748-1.74806-.4854-.2473-1.0021-.34586-1.5642-.39179-.5412-.04421-1.2055-.0442-2.0105-.04419h-.2495c-.0129-.39177-.0457-.72774-.1281-1.03518-.3699-1.38037-1.4481-2.45856-2.8284-2.82843-.5117-.13709-1.1023-.13677-1.8977-.13634zm3.1277 3.99995c-.0091-.25751-.0264-.39877-.0582-.51754-.185-.69019-.7241-1.22928-1.4143-1.41422-.2222-.05955-.5232-.06814-1.5176-.06814-.9943 0-1.2954.00859-1.5176.06814-.69022.18494-1.22931.72403-1.41425 1.41422-.03182.11877-.04909.26003-.05828.51754zm-2.9901 8.3c0-.28 0-.42.0545-.527.0479-.0941.1244-.1706.2185-.2185.107-.0545.247-.0545.527-.0545h4.9c.28 0 .42 0 .527.0545.0941.0479.1706.1244.2185.2185.0545.107.0545.247.0545.527v2.4c0 .28 0 .42-.0545.527-.0479.0941-.1244.1706-.2185.2185-.107.0545-.247.0545-.527.0545h-4.9c-.28 0-.42 0-.527-.0545-.0941-.0479-.1706-.1244-.2185-.2185-.0545-.107-.0545-.247-.0545-.527zm4-6.3c.5523 0 1 .44772 1 1v2c0 .5523-.4477 1-1 1s-1-.4477-1-1v-2c0-.55228.4477-1 1-1z" fill="#801ed7" fill-rule="evenodd"/></svg>