<svg fill="none" height="24" viewBox="0 0 24 24" width="24" xmlns="http://www.w3.org/2000/svg"><g fill="#801ed7"><path d="m14.0103 2c0-.55228.4477-1 1-1 .5522 0 1 .44772 1 1v1.5c0 .55228-.4478 1-1 1-.5523 0-1-.44772-1-1z"/><path d="m19.3031 3.29289c.3906-.39052 1.0237-.39052 1.4143 0 .3905.39053.3905 1.02369 0 1.41422l-1.0607 1.06066c-.3905.39052-1.0237.39052-1.4142 0-.3905-.39053-.3905-1.02369 0-1.41422z"/><path d="m18.2425 12.2929c-.3905.3905-.3905 1.0237 0 1.4142l1.0606 1.0607c.3906.3905 1.0237.3905 1.4143 0 .3905-.3906.3905-1.0237 0-1.4142l-1.0607-1.0607c-.3905-.3905-1.0237-.3905-1.4142 0z"/><path d="m9.24249 4.70711c-.39053-.39053-.39053-1.02369 0-1.41422.39052-.39052 1.02371-.39052 1.41421 0l1.0607 1.06066c.3905.39053.3905 1.02369 0 1.41422-.3906.39052-1.0237.39052-1.4143 0z"/><path d="m22.0103 8h-1.5c-.5523 0-1 .44772-1 1s.4477 1 1 1h1.5c.5522 0 1-.44771 1-1 0-.55228-.4478-1-1-1z"/><path clip-rule="evenodd" d="m12.8821 7.01195c.4016-.13052.8343-.13052 1.236 0 .2897.09413.5116.2537.6865.40214.1592.13516.333.30899.5114.48747l.7824.78235c.1785.17845.3523.35223.4875.51145.1484.17485.308.39674.4021.68645.1305.40169.1305.83439 0 1.23609-.0941.2897-.2537.5116-.4021.6864-.1352.1593-.309.333-.4875.5115l-9.28238 9.2823c-.17843.1785-.35223.3524-.51144.4875-.17485.1484-.39674.308-.68645.4021-.40169.1306-.83438.1306-1.23607 0-.28972-.0941-.51161-.2537-.68645-.4021-.15921-.1351-.33301-.309-.51144-.4875l-.78236-.7823c-.17847-.1784-.35232-.3523-.48748-.5115-.14843-.1748-.308-.3967-.40214-.6864-.13051-.4017-.13051-.8344 0-1.2361.09414-.2897.25371-.5116.40214-.6864.13516-.1593.30898-.333.48746-.5115l9.28241-9.28234c.1784-.17847.3522-.35232.5114-.48747.1749-.14844.3967-.30801.6865-.40214zm-.0426 5.33615c-.1142-.037-.2133-.1362-.4116-.3344l-.4417-.4417c-.1982-.1982-.2973-.2973-.3344-.4116-.0326-.1005-.0325-.2088.0002-.3092.0372-.1142.1364-.2132.3349-.4112l.9475-.94537c.198-.19757.2971-.29636.4112-.33333.1003-.03253.2084-.03246.3088.00018.114.0371.2129.136.4107.33379l.4396.43955c.1978.19778.2967.29668.3338.41078.0326.1003.0327.2084.0001.3088-.0369.1141-.1357.2131-.3333.4111l-.9453.9476c-.198.1984-.297.2976-.4112.3349-.1005.0327-.2088.0328-.3093.0001z" fill-rule="evenodd"/></g></svg>