<svg fill="none" height="24" viewBox="0 0 24 24" width="24" xmlns="http://www.w3.org/2000/svg"><g fill="#801ed7"><path d="m16 2c0-.55228-.4477-1-1-1s-1 .44772-1 1v2c0 .55228.4477 1 1 1s1-.44772 1-1z"/><path d="m16 14c0-.5523-.4477-1-1-1s-1 .4477-1 1v2c0 .5523.4477 1 1 1s1-.4477 1-1z"/><path d="m7 9c0-.55228.44772-1 1-1h2c.5523 0 1 .44772 1 1 0 .55229-.4477 1-1 1h-2c-.55228 0-1-.44771-1-1z"/><path d="m20 8c-.5523 0-1 .44772-1 1 0 .55229.4477 1 1 1h2c.5523 0 1-.44771 1-1 0-.55228-.4477-1-1-1z"/><path d="m17.0929 11.0927c.3906-.3905 1.0237-.3905 1.4143 0l1.2 1.2c.3905.3905.3905 1.0237 0 1.4142-.3906.3905-1.0237.3905-1.4143 0l-1.2-1.2c-.3905-.3905-.3905-1.0237 0-1.4142z"/><path d="m19.7072 5.70711c.3905-.39053.3905-1.02369 0-1.41422-.3906-.39052-1.0237-.39052-1.4143 0l-1.2 1.2c-.3905.39053-.3905 1.02369 0 1.41422.3906.39052 1.0237.39052 1.4143 0z"/><path d="m10.2929 4.29289c.3905-.39052 1.0237-.39052 1.4142 0l1.2 1.2c.3905.39053.3905 1.02369 0 1.41422-.3905.39052-1.0237.39052-1.4142 0l-1.2-1.2c-.39053-.39053-.39053-1.02369 0-1.41422z"/><path d="m12.7071 12.7071c.3905-.3905.3905-1.0237 0-1.4142s-1.0237-.3905-1.4142 0l-9.00001 9c-.39052.3905-.39052 1.0237 0 1.4142.39053.3905 1.02369.3905 1.41422 0z"/></g></svg>