<svg fill="none" height="24" viewBox="0 0 24 24" width="24" xmlns="http://www.w3.org/2000/svg"><g fill="#801ed7"><path d="m12.6855.964753c-.4509-.105836-.9201-.105836-1.371 0-.5151.120897-.9729.419387-1.49383.758987-2.24842 1.46151-4.49923 2.91941-6.74633 4.38296-.34147.2224-.5122.3336-.57169.4749-.05196.12345-.05221.26276-.00067.38639.059.14151.22944.25336.57032.47707l7.7207 5.06674c.6997.4592.8466.5383.9768.5691.1514.0358.3091.0358.4605 0 .1301-.0308.2771-.1099.9768-.5691l7.7206-5.06671c.3409-.22371.5114-.33556.5704-.47707.0515-.12363.0513-.26294-.0007-.38639-.0595-.14131-.2302-.25251-.5717-.47491-2.2471-1.46355-4.4979-2.92149-6.7464-4.38297-.5209-.33961-.9787-.6381-1.4938-.758997z"/><path d="m22.9965 9.95966c-.0003-.48073-.0005-.7211-.1012-.85456-.0876-.11629-.2217-.18857-.367-.19796-.1668-.01076-.3681.12132-.7706.38548l-4.6385 3.04398c-.2956.194-.4434.2911-.5035.4183-.0527.1116-.0623.2386-.027.3568.0404.1349.172.253.4351.4891l5.402 4.848c.1983.178.5083.0686.53-.197.0442-.5412.0442-1.2055.0442-2.0105 0-1.7054-.0021-4.5509-.0035-6.28164z"/><path d="m21.3424 21.2424c.1829-.1321.2743-.1982.3289-.3239.0424-.0976.0504-.2474.0185-.3489-.041-.1309-.1427-.2221-.3459-.4045l-6.5321-5.8622c-.0042-.0037-.0063-.0056-.0082-.0072-.1676-.1474-.4126-.1659-.6004-.0452-.0021.0013-.0045.0028-.0092.0059-.524.3449-.9845.6481-1.5033.7708-.4542.1074-.9271.1074-1.3813 0-.5189-.1227-.9794-.4259-1.50338-.7708-.00478-.0031-.00717-.0047-.00933-.0061-.18776-.1205-.43269-.1021-.60028.0452-.00192.0017-.00405.0036-.00831.0074l-6.53204 5.8622c-.20326.1824-.30488.2736-.34593.4044-.03185.1015-.02392.2513.01846.3489.05463.1258.14606.1918.32891.3239.16621.1201.34215.2278.52654.3217.48533.2473 1.00204.3459 1.56413.3918.54119.0442 1.20555.0442 2.01051.0442h10.48262c.805 0 1.4693 0 2.0105-.0442.5621-.0459 1.0788-.1445 1.5642-.3918.1843-.0939.3602-.2015.5264-.3216z"/><path d="m1.04419 18.2518c.0217.2656.33161.3749.52989.197l5.40204-4.848c.26319-.2362.39478-.3543.43511-.4892.03533-.1182.02575-.2452-.02692-.3567-.06011-.1273-.20794-.2243-.5036-.4184l-4.63842-3.04393c-.40253-.26416-.6038-.39624-.7706-.38548-.14532.00939-.27936.08167-.36703.19796-.10062.13346-.10082.37383-.1012.85456-.0014 1.73079-.00346 4.57629-.00346 6.28169-.000012.805-.000023 1.4693.04419 2.0105z"/></g></svg>