<svg fill="none" height="24" viewBox="0 0 24 24" width="24" xmlns="http://www.w3.org/2000/svg"><g fill="#801ed7"><path d="m12.6855.964631c-.4509-.105836-.9201-.105836-1.371 0-.5151.120899-.9729.419379-1.49384.758989-2.25524 1.46595-4.51655 2.92306-6.76838 4.39435-.34044.22244-.51066.33366-.56994.47507-.05175.12346-.05177.26296-.00006.38643.05923.14143.22965.25286.57048.47571l7.74334 5.06292c.698.4564.8446.5351.9744.5657.1509.0356.3081.0356.4591 0 .1298-.0306.2763-.1093.9744-.5657l7.7433-5.06289c.3408-.22285.5112-.33428.5705-.47571.0517-.12348.0516-.26297-.0001-.38643-.0593-.14141-.2295-.25263-.57-.47507-2.2518-1.47129-4.5131-2.92842-6.7684-4.39437-.5209-.33961-.9787-.6381-1.4938-.758999z"/><path d="m22.9974 9.98165c-.0003-.48006-.0005-.72009-.1009-.85351-.0876-.11626-.2214-.18862-.3666-.19817-.1667-.01096-.3679.12059-.7703.38368l-7.5712 4.95055c-.5228.3429-.9823.6442-1.4997.7662-.4529.1068-.9244.1068-1.3774 0-.5174-.122-.9768-.4233-1.49964-.7662l-7.57129-4.9506c-.40237-.2631-.60355-.39464-.77022-.38368-.14521.00955-.27907.08191-.3666.19816-.10047.13343-.10062.37346-.10091.85352-.00107 1.7251-.00264 4.559-.00264 6.2596-.000012.805-.000023 1.4693.04419 2.0105.04593.5621.14449 1.0788.39178 1.5641.3835.7527.99542 1.3646 1.74807 1.7481.48533.2473 1.00204.3459 1.56413.3918.54119.0442 1.20555.0442 2.01051.0442h10.48262c.805 0 1.4693 0 2.0105-.0442.5621-.0459 1.0788-.1445 1.5642-.3918.7526-.3835 1.3645-.9954 1.748-1.7481.2473-.4853.3459-1.002.3918-1.5641.0442-.5412.0442-1.2055.0442-2.0105 0-1.7006-.0016-4.5345-.0026-6.25955z"/></g></svg>