<svg fill="none" height="24" viewBox="0 0 24 24" width="24" xmlns="http://www.w3.org/2000/svg"><g fill="#801ed7"><path d="m2.06552 8.21149c-.24215-.17093-.36323-.2564-.46646-.27726-.22747-.04598-.46297.07605-.55658.2884-.042486.09637-.042484.24293-.04248.53606v6.48261c-.000012.805-.000022 1.4693.04419 2.0105.02373.2904.3622.4072.57808.2116l5.1942-4.7053c.25305-.2292.37958-.3439.41992-.4755.03538-.1153.02782-.2396-.02126-.3499-.05599-.1257-.19546-.2242-.47441-.4211z"/><path d="m2.69115 19.1938c-.20363.1844-.30544.2767-.34575.4085-.03124.1022-.02189.2528.02177.3504.05631.1258.14917.191.3349.3214.153.1074.31398.2043.48197.2899.48533.2473 1.00204.3459 1.56414.3918.54119.0442 1.20554.0442 2.0105.0442h10.48262c.805 0 1.4693 0 2.0105-.0442.5621-.0459 1.0788-.1445 1.5642-.3918.168-.0856.3289-.1826.4819-.2899.1858-.1304.2786-.1956.3349-.3214.0437-.0976.0531-.2482.0218-.3504-.0403-.1318-.1421-.2241-.3457-.4085l-6.1197-5.5438c-.117-.1059-.1754-.1589-.2387-.1899-.1199-.0588-.2583-.0672-.3844-.0233-.0666.0231-.1311.0687-.2599.1597-.5473.3875-1.0279.7278-1.5759.8653-.4794.1203-.981.1203-1.4604 0-.5481-.1375-1.0286-.4778-1.5759-.8653-.12895-.0911-.19343-.1366-.26006-.1598-.12606-.0438-.2644-.0354-.38424.0233-.06334.031-.12185.084-.23885.19z"/><path d="m22.3777 17.4634c.2159.1956.5544.0787.5781-.2116.0442-.5412.0442-1.2055.0442-2.0105v-6.48262c0-.29302 0-.43952-.0424-.53586-.0936-.21242-.3292-.33449-.5567-.28846-.1032.02087-.2243.1063-.4663.27717l-4.6752 3.30017c-.279.1969-.4185.2953-.4744.4211-.0491.1102-.0567.2345-.0213.3499.0403.1316.1669.2462.4199.4755z"/><path d="m22.2796 4.70729c.1092.15589.1638.23383.1806.35239.0131.09239-.0094.22122-.053.30373-.0559.10588-.1504.17263-.3396.30612l-8.7988 6.21097c-.7327.5172-.8881.607-1.0253.6414-.1598.0401-.327.0401-.4868 0-.1372-.0344-.2926-.1242-1.0253-.6414l-8.79899-6.21105c-.18912-.13349-.28368-.20024-.33961-.30612-.04359-.08251-.06604-.21134-.05294-.30374.01681-.11856.0714-.1965.18058-.35239.37428-.53441.88356-.97568 1.4636-1.27122.48533-.2473 1.00204-.34586 1.56414-.39179.54119-.04421 1.20554-.0442 2.01051-.04419h10.48261c.805-.00001 1.4693-.00002 2.0105.04419.5621.04593 1.0788.14449 1.5642.39179.58.29556 1.0893.73686 1.4636 1.27131z"/></g></svg>