<svg fill="none" height="24" viewBox="0 0 24 24" width="24" xmlns="http://www.w3.org/2000/svg"><g fill="#801ed7"><path d="m2.13352 8.18144c-.29993-.21424-.44989-.32136-.58064-.33527-.19553-.0208-.39149.08005-.48821.25124-.064678.11448-.064675.29675-.06467.66128v6.48261c-.000012.805-.000022 1.4693.04419 2.0105.04593.5621.14449 1.0788.39179 1.5642.38349.7526.99541 1.3645 1.74806 1.748.48533.2473 1.00204.3459 1.56414.3918.54119.0442 1.20554.0442 2.0105.0442h10.48262c.805 0 1.4693 0 2.0105-.0442.5621-.0459 1.0788-.1445 1.5642-.3918.7526-.3835 1.3645-.9954 1.748-1.748.2473-.4854.3459-1.0021.3918-1.5642.0442-.5412.0442-1.2055.0442-2.0105v-6.48262c0-.17867 0-.268-.0164-.33039-.074-.28202-.3806-.44268-.6546-.34298-.0606.02206-.135.07355-.2837.17653l-7.7421 5.36006c-.549.3813-1.031.716-1.5785.8487-.4789.1161-.9791.1124-1.4562-.0107-.5456-.1408-1.0226-.4825-1.56585-.8718z"/><path d="m22.1328 5.76872c.1846-.1278.2769-.1917.3336-.29448.044-.07981.0692-.2062.0591-.29679-.013-.11666-.0625-.19368-.1617-.34772-.3799-.59009-.9265-1.07717-1.5478-1.39375-.4854-.2473-1.0021-.34586-1.5642-.39179-.5412-.04421-1.2055-.0442-2.0105-.04419h-10.4826c-.80496-.00001-1.46933-.00002-2.01052.04419-.5621.04593-1.07881.14449-1.56414.39179-.55903.28484-1.04224.69662-1.40968 1.19737-.11559.15754-.17339.23631-.19244.35586-.01489.09348.00591.22336.04924.30753.05541.10762.15153.17628.34377.31359l8.77507 6.26797c.7273.5194.8816.6098 1.0181.645.1591.0411.3258.0423.4854.0036.1371-.0332.2928-.1213 1.0275-.63z"/></g></svg>