<svg fill="none" height="24" viewBox="0 0 24 24" width="24" xmlns="http://www.w3.org/2000/svg"><g fill="#801ed7"><path d="m2.02143 8.21618c-.21377-.14252-.32066-.21378-.41039-.23421-.24037-.05475-.4905.07911-.57828.30948-.032765.086-.032763.21308-.03276.46724v6.48261c-.000012.805-.000022 1.4693.04419 2.0105.04593.5621.14449 1.0788.39179 1.5642.38349.7526.99541 1.3645 1.74806 1.748.48533.2473 1.00204.3459 1.56414.3918.54119.0442 1.20554.0442 2.0105.0442h10.48262c.805 0 1.4693 0 2.0105-.0442.5621-.0459 1.0788-.1445 1.5642-.3918.7526-.3835 1.3645-.9954 1.748-1.748.2473-.4854.3459-1.0021.3918-1.5642.0442-.5412.0442-1.2055.0442-2.0105v-6.48262c0-.25403 0-.38104-.0327-.467-.0878-.23045-.338-.36436-.5784-.30955-.0897.02044-.1965.09166-.4102.2341l-4.6683 3.11227c-.2499.1668-.4703.314-.7156.421-.2158.0943-.442.1627-.6738.2041-.2635.0469-.5285.0467-.8289.0465h-6.18399c-.30035.0002-.56539.0004-.82891-.0465-.23182-.0414-.45797-.1098-.67378-.2041-.24532-.107-.46574-.2542-.71553-.421z"/><path d="m22.0949 5.73505c.1919-.12791.2878-.19187.3466-.29649.0456-.08124.0715-.21035.0606-.30289-.0139-.11919-.0661-.19764-.1706-.35456-.3782-.56806-.9108-1.03698-1.5155-1.34513-.4854-.2473-1.0021-.34586-1.5642-.39179-.5412-.04421-1.2055-.0442-2.0105-.04419h-10.4826c-.80496-.00001-1.46933-.00002-2.01052.04419-.5621.04593-1.07881.14449-1.56414.39179-.60474.30813-1.13723.77701-1.51546 1.34501-.10449.15692-.15673.23538-.17067.35456-.01082.09255.01504.22166.06067.3029.05876.10463.1547.16859.34658.29651l5.84349 3.89566c.32828.21885.39452.25872.45693.28597.07193.0314.14732.05422.22459.068.06704.01195.14427.01551.53882.01551h6.06221c.3946 0 .4718-.00356.5388-.01551.0773-.01378.1527-.0366.2246-.068.0624-.02725.1287-.06712.457-.28597z"/></g></svg>