<svg fill="none" height="24" viewBox="0 0 24 24" width="24" xmlns="http://www.w3.org/2000/svg"><g fill="#801ed7"><path d="m8 2.79822c0-.45269 0-.67904-.0951-.8103-.08296-.1145-.21051-.18853-.35109-.20375-.16115-.01744-.35767.09486-.75072.31946l-5.29923 3.02813c-.31157.17804-.50386.50938-.50386.86824v16c0 .3565.18976.686.49807.8649.30832.1789.68857.1802.99807.0033l4.69768-2.6843c.29362-.1678.44043-.2517.54724-.3696.0945-.1043.16591-.2274.20958-.3612.04936-.1512.04936-.3203.04936-.6584z"/><path d="m10 18.7947c0 .3381 0 .5072.0494.6584.0436.1338.115.2569.2095.3612.1069.1179.2537.2018.5473.3696l2.9969 1.7125c.393.2246.5896.3369.7507.3194.1406-.0152.2681-.0892.3511-.2037.0951-.1313.0951-.3576.0951-.8103v-15.99646c0-.33818 0-.50726-.0494-.65848-.0436-.1338-.115-.25686-.2095-.36116-.1069-.11788-.2537-.20177-.5473-.36955l-2.9969-1.71252c-.393-.2246-.5896-.3369-.7507-.31946-.1406.01522-.2681.08925-.3511.20375-.0951.13126-.0951.35761-.0951.8103z"/><path d="m23 2c0-.36879-.203-.70765-.5281-.88167-.3252-.174022-.7197-.15495-1.0266.04962l-3.7328 2.48855c-.2605.17366-.3908.26049-.485.37521-.0835.10156-.1461.21858-.1844.34437-.0431.14209-.0431.29863-.0431.6117v16.05262c0 .4856 0 .7283.1012.8622.0882.1166.2231.1887.369.1974.1675.01.3695-.1246.7736-.394l4.3109-2.8739c.2782-.1855.4453-.4977.4453-.8321z"/></g></svg>