<svg fill="none" height="24" viewBox="0 0 24 24" width="24" xmlns="http://www.w3.org/2000/svg"><g fill="#801ed7"><path d="m5.74816 2.0442c.1647-.01346.24705-.02019.34409-.00916.27336.03108.55735.20216.7126.42929.05512.08063.0939.17112.17147.3521l3.74798 8.74527-7.53806 4.1589c-.39044.2155-.58566.3232-.74538.3042-.13936-.0166-.26535-.091-.34719-.205-.09378-.1306-.0938-.3536-.09383-.7995-.00018-2.4205.00015-4.8411.00015-7.26161-.00001-.80496-.00002-1.46933.04419-2.01051.04593-.5621.14449-1.0788.39178-1.56414.3835-.75265.99542-1.36457 1.74807-1.74806.48533-.2473 1.00204-.34586 1.56413-.39178z"/><path d="m3.04242 18.0842c-.33582.1853-.50372.2779-.63552.462-.09368.1309-.18207.3938-.18649.5546-.00623.2264.04431.3402.14538.5678.02195.0495.04531.0986.07017.1474.3835.7526.99542 1.3645 1.74807 1.748.48533.2473 1.00204.3459 1.56413.3918.54119.0442 1.20554.0442 2.0105.0442h6.22594c.4051 0 .6076 0 .7343-.0853.1107-.0745.187-.1902.2119-.3213.0285-.15-.0513-.3362-.2109-.7085l-3.2039-7.4758z"/><path d="m18.2518 21.9558c-.1645.0134-.2467.0202-.3436.0092-.2736-.0311-.5577-.2022-.713-.4295-.055-.0806-.0938-.171-.1712-.3517l-7.74373-18.06866c-.15957-.37234-.23936-.55851-.21086-.7085.02492-.1311.10122-.24681.21191-.32136.12663-.08528.32917-.08528.73428-.08528h6.2257c.8049-.00001 1.4693-.00002 2.0105.0442.5621.04592 1.0788.14448 1.5641.39178.7527.38349 1.3646.99541 1.7481 1.74806.2473.48534.3459 1.00204.3918 1.56414.0442.54119.0442 1.20554.0442 2.0105v8.48262c0 .805 0 1.4693-.0442 2.0105-.0459.5621-.1445 1.0788-.3918 1.5642-.3835.7526-.9954 1.3645-1.7481 1.748-.4853.2473-1.002.3459-1.5641.3918z"/></g></svg>