<svg fill="none" height="24" viewBox="0 0 24 24" width="24" xmlns="http://www.w3.org/2000/svg"><path clip-rule="evenodd" d="m3 10c0-4.97056 4.02944-9 9-9 4.9706 0 9 4.02944 9 9 0 2.5262-1.1468 4.7402-2.7077 6.767-1.3043 1.6936-2.974 3.3488-4.6417 5.002l-.0011.0012c-.315.3123-.63.6245-.9424.9369-.3905.3905-1.0237.3905-1.4142 0-.3126-.3126-.6285-.6258-.9437-.9383-1.66774-1.6532-3.33715-3.3082-4.64148-5.0018-1.56089-2.0268-2.70772-4.2408-2.70772-6.767zm12 0c0 1.6569-1.3431 3-3 3s-3-1.3431-3-3c0-1.65685 1.3431-3 3-3s3 1.34315 3 3z" fill="#801ed7" fill-rule="evenodd"/></svg>