<svg fill="none" height="24" viewBox="0 0 24 24" width="24" xmlns="http://www.w3.org/2000/svg"><g fill="#801ed7"><path d="m12 9c-1.6569 0-3 1.3431-3 3s1.3431 3 3 3 3-1.3431 3-3-1.3431-3-3-3z"/><path clip-rule="evenodd" d="m13 2c0-.55228-.4477-1-1-1s-1 .44772-1 1v1.05493c-4.17162.46115-7.48392 3.77345-7.94507 7.94507h-1.05493c-.55228 0-1 .4477-1 1s.44772 1 1 1h1.05493c.46115 4.1716 3.77345 7.4839 7.94507 7.9451v1.0549c0 .5523.4477 1 1 1s1-.4477 1-1v-1.0549c4.1716-.4612 7.4839-3.7735 7.9451-7.9451h1.0549c.5523 0 1-.4477 1-1s-.4477-1-1-1h-1.0549c-.4612-4.17162-3.7735-7.48392-7.9451-7.94507zm-6 10c0-2.76142 2.23858-5 5-5 2.7614 0 5 2.23858 5 5 0 2.7614-2.2386 5-5 5-2.76142 0-5-2.2386-5-5z" fill-rule="evenodd"/></g></svg>