<svg fill="none" height="24" viewBox="0 0 24 24" width="24" xmlns="http://www.w3.org/2000/svg"><g fill="#801ed7"><path clip-rule="evenodd" d="m5 8c0-3.86599 3.13401-7 7-7 3.866 0 7 3.13401 7 7 0 2.4418-1.3689 4.1882-2.7162 5.5915-.3255.3391-.661.6689-.9824.9851l-.0426.0418c-.3383.3328-.6603.6504-.9631.9695-.6097.6426-1.0923 1.2413-1.4013 1.8593-.1694.3388-.5156.5528-.8944.5528s-.725-.214-.8944-.5528c-.309-.618-.7916-1.2167-1.40131-1.8593-.30277-.3191-.62482-.6367-.96312-.9695l-.0426-.0419c-.32144-.3161-.65686-.6459-.98242-.985-1.34728-1.4033-2.71615-3.1497-2.71615-5.5915zm9 0c0 1.10457-.8954 2-2 2s-2-.89543-2-2 .8954-2 2-2 2 .89543 2 2z" fill-rule="evenodd"/><path d="m5.40361 15.2013c.50531-.2229.73423-.8132.51132-1.3185s-.81324-.7343-1.31854-.5113c-1.0029.4424-1.87723.9975-2.51445 1.6659-.64211.6735-1.08194 1.5077-1.08194 2.4626 0 1.8813 1.64633 3.2514 3.51857 4.0939 1.96611.8848 4.61209 1.4061 7.48143 1.4061 2.8693 0 5.5153-.5213 7.4814-1.4061 1.8723-.8425 3.5186-2.2126 3.5186-4.0939 0-.9549-.4398-1.7891-1.0819-2.4626-.6373-.6684-1.5116-1.2235-2.5145-1.6659-.5053-.223-1.0956.006-1.3185.5113s.006 1.0956.5113 1.3185c.8484.3743 1.4741.7966 1.8741 1.2161.395.4144.5295.7787.5295 1.0826 0 .6041-.5923 1.4839-2.3393 2.2701-1.6532.7439-4.0072 1.2299-6.6607 1.2299-2.65351 0-5.00752-.486-6.6607-1.2299-1.74705-.7862-2.3393-1.666-2.3393-2.2701 0-.3039.13448-.6682.52954-1.0826.39994-.4195 1.02561-.8418 1.87407-1.2161z"/></g></svg>