<svg fill="none" height="24" viewBox="0 0 24 24" width="24" xmlns="http://www.w3.org/2000/svg"><path clip-rule="evenodd" d="m3 10c0-4.97056 4.02944-9 9-9 4.9706 0 9 4.02944 9 9 0 3.6785-2.0607 5.6862-3.9824 7.298-.2031.1704-.4023.3353-.5968.4963-1.7203 1.4239-3.0677 2.5392-3.4402 4.4018-.0935.4674-.5039.8039-.9806.8039s-.8871-.3365-.9806-.8039c-.3725-1.8626-1.71993-2.9779-3.44025-4.4018-.19446-.161-.39368-.3259-.59679-.4963-1.92167-1.6118-3.98236-3.6195-3.98236-7.298zm12 0c0 1.6569-1.3431 3-3 3s-3-1.3431-3-3c0-1.65685 1.3431-3 3-3s3 1.34315 3 3z" fill="#801ed7" fill-rule="evenodd"/></svg>