<svg fill="none" height="24" viewBox="0 0 24 24" width="24" xmlns="http://www.w3.org/2000/svg"><path clip-rule="evenodd" d="m3 10c0-4.97056 4.02944-9 9-9 4.9706 0 9 4.02944 9 9 0 3.1191-1.7439 5.3655-3.5287 7.2244-.4306.4486-.8748.8854-1.3042 1.3077l-.0557.0548c-.4506.4432-.884.8706-1.2922 1.3009-.8207.8648-1.4908 1.6914-1.9248 2.5594-.1694.3388-.5156.5528-.8944.5528s-.725-.214-.8944-.5528c-.434-.868-1.1041-1.6946-1.92475-2.5594-.40824-.4303-.84161-.8577-1.29222-1.3009l-.05583-.0549c-.42938-.4223-.8735-.859-1.30415-1.3076-1.78478-1.8589-3.52865-4.1053-3.52865-7.2244zm12-.5c0 1.6569-1.3431 3-3 3s-3-1.3431-3-3c0-1.65685 1.3431-3 3-3s3 1.34315 3 3z" fill="#801ed7" fill-rule="evenodd"/></svg>