<svg fill="none" height="24" viewBox="0 0 24 24" width="24" xmlns="http://www.w3.org/2000/svg"><g fill="#801ed7"><path d="m12 2c-2.20914 0-4 1.79086-4 4 0 1.86384 1.27477 3.42994 3 3.87398v7.12602c0 .5523.4477 1 1 1s1-.4477 1-1v-7.12602c1.7252-.44404 3-2.01014 3-3.87398 0-2.20914-1.7909-4-4-4z"/><path d="m8.19292 14.3554c.54191-.1065.89484-.6322.78829-1.1741-.10654-.5419-.63222-.8948-1.17413-.7883-1.8502.3638-3.48783.9721-4.69067 1.7834-1.18075.7963-2.11641 1.9183-2.11641 3.3234 0 1.8812 1.64633 3.2514 3.51857 4.0939 1.96611.8847 4.61209 1.4061 7.48143 1.4061 2.8693 0 5.5153-.5214 7.4814-1.4061 1.8723-.8425 3.5186-2.2127 3.5186-4.0939 0-1.4051-.9357-2.5271-2.1164-3.3234-1.2029-.8113-2.8405-1.4196-4.6907-1.7834-.5419-.1065-1.0676.2464-1.1741.7883-.1066.5419.2464 1.0676.7883 1.1741 1.6816.3307 3.044.8625 3.9582 1.4791.9363.6315 1.2347 1.2251 1.2347 1.6653 0 .604-.5923 1.4839-2.3393 2.27-1.6532.744-4.0072 1.23-6.6607 1.23-2.65351 0-5.00752-.486-6.6607-1.23-1.74705-.7861-2.3393-1.666-2.3393-2.27 0-.4402.29844-1.0338 1.23474-1.6653.9142-.6166 2.27657-1.1484 3.95818-1.4791z"/></g></svg>