<svg fill="none" height="24" viewBox="0 0 24 24" width="24" xmlns="http://www.w3.org/2000/svg"><path clip-rule="evenodd" d="m12 1c-6.07513 0-11 4.92487-11 11 0 6.0751 4.92487 11 11 11 6.0751 0 11-4.9249 11-11 0-6.07513-4.9249-11-11-11zm1.7788 5.773c.0545.10696.0545.24697.0545.527v2.06667c0 .28002 0 .42004.0545.52699.048.09408.1245.17054.2185.21854.107.0545.247.0545.527.0545h2.0667c.28 0 .42 0 .527.0545.0941.0479.1706.1244.2185.2185.0545.1069.0545.2469.0545.527v2.0666c0 .2801 0 .4201-.0545.527-.0479.0941-.1244.1706-.2185.2185-.107.0545-.247.0545-.527.0545h-2.0667c-.28 0-.42 0-.527.0545-.094.048-.1705.1245-.2185.2185-.0545.107-.0545.247-.0545.527v2.0667c0 .28 0 .42-.0545.527-.0479.0941-.1244.1706-.2185.2185-.1069.0545-.2469.0545-.527.0545h-2.0666c-.2801 0-.4201 0-.527-.0545-.0941-.0479-.1706-.1244-.2185-.2185-.0545-.107-.0545-.247-.0545-.527v-2.0667c0-.28 0-.42-.0545-.527-.048-.094-.12446-.1705-.21854-.2185-.10695-.0545-.24697-.0545-.52699-.0545h-2.06667c-.28003 0-.42004 0-.527-.0545-.09408-.0479-.17057-.1244-.2185-.2185-.0545-.1069-.0545-.2469-.0545-.527v-2.0666c0-.2801 0-.4201.0545-.527.04793-.0941.12442-.1706.2185-.2185.10696-.0545.24697-.0545.527-.0545h2.06667c.28002 0 .42004 0 .52699-.0545.09408-.048.17054-.12446.21854-.21854.0545-.10695.0545-.24697.0545-.52699v-2.06667c0-.28003 0-.42004.0545-.527.0479-.09408.1244-.17057.2185-.2185.1069-.0545.2469-.0545.527-.0545h2.0666c.2801 0 .4201 0 .527.0545.0941.04793.1706.12442.2185.2185z" fill="#801ed7" fill-rule="evenodd"/></svg>