<svg fill="none" height="24" viewBox="0 0 24 24" width="24" xmlns="http://www.w3.org/2000/svg"><path clip-rule="evenodd" d="m17.8385 2h-11.67704c-.52713-.00002-.98192-.00003-1.35649.03057-.39534.0323-.78856.10362-1.16694.29641-.56449.28762-1.02343.74656-1.31105 1.31105-.19279.37838-.26411.7716-.29641 1.16694-.0306.37457-.03059.82932-.03057 1.35645v11.67708c-.00002.5272-.00003.982.03057 1.3565.0323.3954.10362.7886.29641 1.167.28762.5645.74656 1.0234 1.31105 1.311.37838.1928.7716.2641 1.16694.2964.37457.0306.82933.0306 1.35647.0306h11.67716c.5271 0 .9819 0 1.3564-.0306.3954-.0323.7886-.1036 1.167-.2964.5645-.2876 1.0234-.7465 1.311-1.311.1928-.3784.2641-.7716.2964-1.167.0306-.3745.0306-.8293.0306-1.3564v-11.67716c0-.52714 0-.9819-.0306-1.35647-.0323-.39534-.1036-.78856-.2964-1.16694-.2876-.56449-.7465-1.02343-1.311-1.31105-.3784-.19279-.7716-.26411-1.167-.29641-.3745-.0306-.8293-.03059-1.3565-.03057zm-4.0597 4.77301c.0545.10695.0545.24696.0545.52699v2.06667c0 .28002 0 .42004.0545.52699.048.09408.1245.17054.2185.21854.107.0545.247.0545.527.0545h2.0667c.28 0 .42 0 .527.0545.0941.0479.1706.1244.2185.2185.0545.1069.0545.2469.0545.527v2.0666c0 .2801 0 .4201-.0545.527-.0479.0941-.1244.1706-.2185.2185-.107.0545-.247.0545-.527.0545h-2.0667c-.28 0-.42 0-.527.0545-.094.048-.1705.1245-.2185.2185-.0545.107-.0545.247-.0545.527v2.0667c0 .28 0 .42-.0545.527-.0479.0941-.1244.1706-.2185.2185-.1069.0545-.2469.0545-.527.0545h-2.0666c-.2801 0-.4201 0-.527-.0545-.0941-.0479-.1706-.1244-.2185-.2185-.0545-.107-.0545-.247-.0545-.527v-2.0667c0-.28 0-.42-.0545-.527-.048-.094-.12446-.1705-.21854-.2185-.10695-.0545-.24697-.0545-.52699-.0545h-2.06667c-.28003 0-.42004 0-.52699-.0545-.09409-.0479-.17058-.1244-.21851-.2185-.0545-.1069-.0545-.2469-.0545-.527v-2.0666c0-.2801 0-.4201.0545-.527.04793-.0941.12442-.1706.21851-.2185.10695-.0545.24696-.0545.52699-.0545h2.06667c.28002 0 .42004 0 .52699-.0545.09408-.048.17054-.12446.21854-.21854.0545-.10695.0545-.24697.0545-.52699v-2.06667c0-.28003 0-.42004.0545-.52699.0479-.09409.1244-.17058.2185-.21851.1069-.0545.2469-.0545.527-.0545h2.0666c.2801 0 .4201 0 .527.0545.0941.04793.1706.12442.2185.21851z" fill="#801ed7" fill-rule="evenodd"/></svg>