<svg fill="none" height="24" viewBox="0 0 24 24" width="24" xmlns="http://www.w3.org/2000/svg"><path clip-rule="evenodd" d="m3.00005 11.5c0-5.24671 4.25329-9.5 9.49995-9.5 5.2467 0 9.5 4.25329 9.5 9.5 0 5.2467-4.2532 9.5-9.5 9.5-1.2016 0-2.3534-.2236-3.4143-.6323-.09095-.0351-.14364-.0553-.18249-.0693-.00475-.0017-.00887-.0031-.01237-.0043l-.00407.0003c-.03162.0024-.07478.0068-.15734.0153l-5.15496.5329c-.21417.0222-.43759.0453-.62447.0475-.18574.0022-.52053-.0083-.84154-.2042-.37628-.2295-.63256-.6129-.70078-1.0483-.0582-.3715.06008-.6849.1331-.8557.07347-.1718.18029-.3694.28267-.5589l1.65188-3.0575c.07146-.1323.10966-.2035.13536-.2565.00135-.0027.0026-.0054.00375-.0078-.00193-.0069-.00426-.0151-.00708-.0246-.02165-.0733-.05497-.1727-.11156-.3406-.32176-.9546-.49575-1.976-.49575-3.036z" fill="#801ed7" fill-rule="evenodd"/></svg>