<svg fill="none" height="24" viewBox="0 0 24 24" width="24" xmlns="http://www.w3.org/2000/svg"><path clip-rule="evenodd" d="m16.2413 2h-8.48259c-.80496-.00001-1.46933-.00002-2.01053.04419-.56209.04593-1.0788.14449-1.56413.39179-.75265.38349-1.36457.99541-1.74807 1.74806-.24729.48533-.34585 1.00204-.39178 1.56414-.04421.54119-.0442 1.20555-.04419 2.01052l-.00001 12.6123c-.00004.2352-.00009.475.01776.6715.01707.188.06228.5427.30993.853.28499.357.71713.5647 1.17394.5642.39698-.0004.70222-.1867.85965-.2908.1646-.1088.35182-.2587.5355-.4057l2.41314-1.9305c.51858-.4149.67254-.532.83253-.6137.16047-.082.33129-.1419.50782-.1782.17598-.0361.36938-.0408 1.03349-.0408h6.55754c.805 0 1.4693 0 2.0105-.0442.5621-.0459 1.0788-.1445 1.5642-.3918.7526-.3835 1.3645-.9954 1.748-1.748.2473-.4854.3459-1.0021.3918-1.5642.0442-.5412.0442-1.2055.0442-2.0105v-5.48262c0-.80496 0-1.46931-.0442-2.0105-.0459-.5621-.1445-1.07881-.3918-1.56414-.3835-.75265-.9954-1.36457-1.748-1.74806-.4854-.2473-1.0021-.34586-1.5642-.39179-.5412-.04421-1.2055-.0442-2.0105-.04419zm-9.2413 5.5c-.55228 0-1 .44772-1 1 0 .55229.44772 1 1 1h5c.5523 0 1-.44771 1-1 0-.55228-.4477-1-1-1zm0 3.5c-.55228 0-1 .4477-1 1s.44772 1 1 1h8c.5523 0 1-.4477 1-1s-.4477-1-1-1z" fill="#801ed7" fill-rule="evenodd"/></svg>