<svg fill="none" height="24" viewBox="0 0 24 24" width="24" xmlns="http://www.w3.org/2000/svg"><path clip-rule="evenodd" d="m12.5 2c-5.24666 0-9.49995 4.25329-9.49995 9.5 0 1.06.17399 2.0814.49575 3.036.05659.1679.08991.2673.11156.3406l.00708.0246-.00375.0078c-.0257.053-.0639.1242-.13536.2565l-1.65188 3.0575c-.10238.1894-.2092.3871-.28267.5589-.07302.1708-.1913.4842-.1331.8557.06822.4354.3245.8188.70078 1.0483.32101.1959.6558.2064.84154.2042.18688-.0022.4103-.0253.62447-.0475l5.15496-.5329c.08256-.0085.12572-.0129.15734-.0153l.00407-.0003.01237.0043c.03885.014.09154.0342.18249.0693 1.0609.4087 2.2127.6323 3.4143.6323 5.2468 0 9.5-4.2533 9.5-9.5 0-5.24671-4.2532-9.5-9.5-9.5zm-.5116 6.67211c.2542-.14937.553-.20397.8436-.15414.2905.04984.5541.20091.7439.42644.1899.22553.2938.51098.2934.80578v.00149c0 .21857-.1772.51972-.6789.85422-.2204.1469-.4479.2614-.6243.3398-.0868.0385-.1577.0668-.2045.0847-.0234.0089-.0405.0151-.0504.0186l-.0092.0032.0016-.0005c-.5232.1751-.8059.741-.6313 1.2645.1729.5188.7493.8039 1.2661.6321.0454-.0153.0904-.0319.1351-.0489.0761-.029.1809-.071.3049-.1261.2452-.109.5797-.2755.9214-.5033.6224-.415 1.5693-1.2378 1.5695-2.51788.0009-.76675-.2695-1.50911-.7633-2.09571-.494-.58687-1.1798-.97996-1.9359-1.10965s-1.5337.0124-2.195.40108c-.6614.38869-1.16384.9989-1.41841 1.72255-.18327.52099.09051 1.09191.61151 1.27518.521.18323 1.0919-.0905 1.2752-.61149.0978-.2781.2909-.5126.545-.66197zm.6615 5.32789c-.5523 0-1 .4477-1 1s.4477 1 1 1h.01c.5523 0 1-.4477 1-1s-.4477-1-1-1z" fill="#801ed7" fill-rule="evenodd"/></svg>