<svg fill="none" height="24" viewBox="0 0 24 24" width="24" xmlns="http://www.w3.org/2000/svg"><g fill="#801ed7"><path d="m21.1213 2.87868c1.1716 1.17157 1.1716 3.07107 0 4.24264s-3.071 1.17157-4.2426 0-1.1716-3.07107 0-4.24264 3.071-1.17157 4.2426 0z"/><path d="m21.9249 10.2994c-.043-.34127-.0646-.51187-.1496-.62055-.0791-.10111-.1738-.1589-.3-.18298-.1355-.02589-.343.04983-.758.20125-1.7703.64588-3.8325.25872-5.2528-1.16159-1.4203-1.4203-1.8075-3.48248-1.1616-5.25276.1514-.41502.2271-.62253.2012-.75808-.0241-.12611-.0819-.22084-.183-.29997-.1086-.08504-.2793-.10655-.6205-.14958-.3932-.04959-.7939-.07514-1.2006-.07514-5.24666 0-9.49995 4.25329-9.49995 9.5 0 1.06.17399 2.0814.49575 3.036.05659.1679.08991.2673.11156.3406l.00708.0246-.00375.0078c-.0257.053-.0639.1242-.13536.2565l-1.65188 3.0575c-.10238.1894-.2092.3871-.28267.5589-.07302.1708-.1913.4842-.1331.8557.06822.4354.3245.8188.70078 1.0483.32101.1959.6558.2064.84154.2042.18688-.0022.4103-.0253.62447-.0475l5.15496-.5329c.08256-.0085.12572-.0129.15734-.0153l.00407-.0003.01237.0043c.03885.014.09154.0342.18249.0693 1.0609.4087 2.2127.6323 3.4143.6323 5.2468 0 9.5-4.2533 9.5-9.5 0-.4067-.0255-.8074-.0751-1.2006z"/></g></svg>