<svg fill="none" height="24" viewBox="0 0 24 24" width="24" xmlns="http://www.w3.org/2000/svg"><path clip-rule="evenodd" d="m12.5 2c-5.24666 0-9.49995 4.25329-9.49995 9.5 0 1.06.17399 2.0814.49575 3.036.05659.1679.08991.2673.11156.3406l.00708.0246-.00375.0078c-.0257.053-.0639.1242-.13536.2565l-1.65188 3.0575c-.10238.1894-.2092.3871-.28267.5589-.07302.1708-.1913.4842-.1331.8557.06822.4354.3245.8188.70078 1.0483.32101.1959.6558.2064.84154.2042.18688-.0022.4103-.0253.62447-.0475l5.15496-.5329c.08256-.0085.12572-.0129.15734-.0153l.00407-.0003.01237.0043c.03885.014.09154.0342.18249.0693 1.0609.4087 2.2127.6323 3.4143.6323 5.2468 0 9.5-4.2533 9.5-9.5 0-5.24671-4.2533-9.5-9.5-9.5zm1.4927 7c0-.82843.6715-1.5 1.5-1.5.8284 0 1.5.67157 1.5 1.5s-.6716 1.5-1.5 1.5c-.8285 0-1.5-.67157-1.5-1.5zm-6.10002 4.2001c.44044-.3304 1.06469-.2424 1.39686.1958.06165.0787.12948.1527.19857.2248.1473.1537.36864.3622.65529.5706.577.4197 1.3748.8088 2.3493.8088s1.7723-.3891 2.3493-.8088c.2866-.2084.508-.4169.6553-.5706.069-.0721.1369-.1462.1985-.2248.3322-.4382.9564-.5262 1.3969-.1958.4418.3313.5314.9581.2 1.4.0025-.0033-.0034.0042-.0136.017-.0244.0307-.0732.092-.0898.1118-.0586.0698-.1416.1645-.2481.2756-.212.2213-.5219.5127-.9228.8043-.798.5803-2.0002 1.1913-3.5257 1.1913s-2.72775-.611-3.52569-1.1913c-.40089-.2916-.7108-.583-.92288-.8043-.10645-.1111-.18944-.2058-.24808-.2756-.02936-.035-.05272-.0639-.06996-.0857-.34543-.4463-.299-1.0939.16659-1.4431zm1.6-5.7001c-.82843 0-1.5.67157-1.5 1.5s.67157 1.5 1.5 1.5c.82842 0 1.50002-.67157 1.50002-1.5s-.6716-1.5-1.50002-1.5z" fill="#801ed7" fill-rule="evenodd"/></svg>