<svg fill="none" height="24" viewBox="0 0 24 24" width="24" xmlns="http://www.w3.org/2000/svg"><path clip-rule="evenodd" d="m12 2c-5.52285 0-10 4.47715-10 10 0 1.3283.25952 2.5985.73156 3.7608.04263.105.06716.1656.08396.2103l.00511.0138-.00063.0048c-.005.0369-.01328.0872-.02929.1833l-.59777 3.5866c-.02682.1606-.05683.3403-.06861.4964-.01285.1701-.01732.4409.1054.727.15171.3537.43357.6356.78727.7873.28612.1227.55686.1182.72704.1054.15609-.0118.33581-.0418.49645-.0686l3.58656-.5978c.09604-.016.14634-.0243.18325-.0293l.00475-.0006.01382.0051c.04475.0168.10536.0413.21034.0839 1.16229.4721 2.43249.7316 3.76079.7316 5.5228 0 10-4.4772 10-10 0-5.52285-4.4772-10-10-10zm-4 6.5c-.55228 0-1 .44772-1 1 0 .5523.44772 1 1 1h4c.5523 0 1-.4477 1-1 0-.55228-.4477-1-1-1zm0 3.5c-.55228 0-1 .4477-1 1s.44772 1 1 1h7c.5523 0 1-.4477 1-1s-.4477-1-1-1z" fill="#801ed7" fill-rule="evenodd"/></svg>