<svg fill="none" height="24" viewBox="0 0 24 24" width="24" xmlns="http://www.w3.org/2000/svg"><path clip-rule="evenodd" d="m12.5 2c-5.24666 0-9.49995 4.25329-9.49995 9.5 0 1.06.17399 2.0814.49575 3.036.05659.1679.08991.2673.11156.3406l.00708.0246-.00375.0078c-.0257.053-.0639.1242-.13536.2565l-1.65188 3.0575c-.10238.1894-.2092.3871-.28267.5589-.07302.1708-.1913.4842-.1331.8557.06822.4354.3245.8188.70078 1.0483.32101.1959.6558.2064.84154.2042.18688-.0022.4103-.0253.62447-.0475l5.15496-.5329c.08256-.0085.12572-.0129.15734-.0153l.00407-.0003.01237.0043c.03885.014.09154.0342.18249.0693 1.0609.4087 2.2127.6323 3.4143.6323 5.2468 0 9.5-4.2533 9.5-9.5 0-5.24671-4.2532-9.5-9.5-9.5zm4.2071 7.70711c.3905-.39053.3905-1.02369 0-1.41422-.3905-.39052-1.0237-.39052-1.4142 0l-3.7929 3.79291-1.2929-1.2929c-.39052-.3905-1.02368-.3905-1.41421 0-.39052.3905-.39052 1.0237 0 1.4142l2.00001 2c.3905.3905 1.0237.3905 1.4142 0z" fill="#801ed7" fill-rule="evenodd"/></svg>