<svg fill="none" height="24" viewBox="0 0 24 24" width="24" xmlns="http://www.w3.org/2000/svg"><path clip-rule="evenodd" d="m7.75871 2h8.48259c.805-.00001 1.4693-.00002 2.0105.04419.5621.04593 1.0788.14449 1.5642.39178.7526.3835 1.3645.99542 1.748 1.74807.2473.48533.3459 1.00204.3918 1.56413.0442.54119.0442 1.20555.0442 2.01051v5.48262c0 .805 0 1.4693-.0442 2.0105-.0459.5621-.1445 1.0788-.3918 1.5642-.3835.7526-.9954 1.3645-1.748 1.748-.4854.2473-1.0021.3459-1.5642.3918-.5412.0442-1.2055.0442-2.0105.0442h-6.55754c-.66411 0-.85751.0047-1.03349.0408-.17653.0363-.34735.0962-.50782.1782-.15999.0817-.31395.1988-.83253.6137l-2.41314 1.9305c-.18368.147-.3709.2969-.5355.4057-.15743.1041-.46267.2904-.85965.2908-.45681.0005-.88895-.2072-1.17394-.5642-.24765-.3103-.29286-.665-.30993-.853-.01785-.1965-.0178-.4363-.01776-.6715l.00001-12.6123c-.00001-.80497-.00002-1.46933.04419-2.01052.04593-.5621.14449-1.07881.39178-1.56414.3835-.75265.99542-1.36457 1.74807-1.74807.48533-.24729 1.00204-.34585 1.56413-.39178.5412-.04421 1.20556-.0442 2.01053-.04419z" fill="#801ed7" fill-rule="evenodd"/></svg>