<svg fill="none" height="24" viewBox="0 0 24 24" width="24" xmlns="http://www.w3.org/2000/svg"><path clip-rule="evenodd" d="m2 12c0-5.52285 4.47715-10 10-10 5.5228 0 10 4.47715 10 10 0 5.5228-4.4772 10-10 10-1.3283 0-2.5985-.2595-3.76079-.7316-.10498-.0426-.16559-.0671-.21034-.0839-.00529-.002-.00989-.0037-.01382-.0051l-.00475.0006c-.03691.005-.08721.0133-.18325.0293l-3.58656.5978c-.16064.0268-.34036.0568-.49645.0686-.17018.0128-.44092.0173-.72704-.1054-.3537-.1517-.63556-.4336-.78727-.7873-.12272-.2861-.11825-.5569-.1054-.727.01178-.1561.04179-.3358.06861-.4964.00161-.0097.00321-.0193.00479-.0288l.59298-3.5578c.01601-.0961.02429-.1464.02929-.1833l.00063-.0048c-.00143-.0039-.00312-.0085-.00511-.0138-.0168-.0447-.04133-.1053-.08396-.2103-.47204-1.1623-.73156-2.4325-.73156-3.7608z" fill="#801ed7" fill-rule="evenodd"/></svg>