<svg fill="none" height="24" viewBox="0 0 24 24" width="24" xmlns="http://www.w3.org/2000/svg"><path clip-rule="evenodd" d="m16.2414 2h-8.4826c-.80497-.00001-1.46934-.00002-2.01053.04419-.5621.04593-1.0788.14449-1.56414.39179-.75264.38349-1.36457.99541-1.74806 1.74806-.24729.48533-.34585 1.00204-.39178 1.56414-.04422.54119-.04421 1.20555-.04419 2.01052l-.00005 6.3789c-.00043.7954-.00075 1.386.13634 1.8977.36987 1.3803 1.44806 2.4585 2.82843 2.8284.30747.0824.64347.1152 1.03528.1281l-.00001 1.3792c-.00004.2352-.00009.475.01776.6715.01707.188.06227.5427.30993.853.28498.357.71712.5647 1.17394.5642.39698-.0004.70222-.1867.85965-.2908.1646-.1089.35183-.2587.53551-.4057l2.41312-1.9305c.5186-.4149.6726-.532.8325-.6137.1605-.082.3313-.1419.5079-.1782.1759-.0361.3693-.0408 1.0334-.0408h2.5576c.805 0 1.4693 0 2.0105-.0442.5621-.0459 1.0788-.1445 1.5642-.3918.7526-.3835 1.3645-.9954 1.748-1.748.2473-.4854.3459-1.0021.3918-1.5642.0442-.5412.0442-1.2055.0442-2.0105v-5.48262c0-.80496 0-1.46932-.0442-2.0105-.0459-.5621-.1445-1.07881-.3918-1.56414-.3835-.75265-.9954-1.36457-1.748-1.74806-.4854-.2473-1.0021-.34586-1.5642-.39179-.5412-.04421-1.2055-.0442-2.0105-.04419zm-2.7487 5.5c0-.82843.6715-1.5 1.5-1.5.8284 0 1.5.67157 1.5 1.5s-.6716 1.5-1.5 1.5c-.8285 0-1.5-.67157-1.5-1.5zm-6.10002 4.2001c.44044-.3304 1.06469-.2424 1.39686.1958.06165.0787.12948.1527.19857.2248.1473.1537.36864.3622.65525.5706.57704.4197 1.37484.8088 2.34934.8088s1.7723-.3891 2.3493-.8088c.2866-.2084.508-.4169.6553-.5706.069-.0721.1369-.1462.1985-.2248.3322-.4382.9564-.5262 1.3969-.1958.4418.3313.5314.9581.2 1.4.0025-.0033-.0034.0042-.0136.017-.0244.0307-.0732.092-.0898.1118-.0586.0698-.1416.1645-.2481.2756-.212.2213-.5219.5127-.9228.8043-.798.5803-2.0002 1.1913-3.5257 1.1913s-2.72775-.611-3.52569-1.1913c-.40089-.2916-.7108-.583-.92288-.8043-.10645-.1111-.18944-.2058-.24808-.2756-.02936-.035-.05272-.0639-.06996-.0857-.34543-.4463-.299-1.0939.16659-1.4431zm1.6-5.7001c-.82843 0-1.5.67157-1.5 1.5s.67157 1.5 1.5 1.5c.82842 0 1.50002-.67157 1.50002-1.5s-.6716-1.5-1.50002-1.5z" fill="#801ed7" fill-rule="evenodd"/></svg>