<svg fill="none" height="24" viewBox="0 0 24 24" width="24" xmlns="http://www.w3.org/2000/svg"><path clip-rule="evenodd" d="m16.2414 2h-8.4826c-.80497-.00001-1.46934-.00002-2.01053.04419-.5621.04593-1.0788.14449-1.56414.39179-.75264.38349-1.36457.99541-1.74806 1.74806-.24729.48533-.34585 1.00204-.39178 1.56414-.04422.54119-.04421 1.20555-.04419 2.01052l-.00005 6.3789c-.00043.7954-.00075 1.386.13634 1.8977.36987 1.3803 1.44806 2.4585 2.82843 2.8284.30747.0824.64347.1152 1.03528.1281l-.00001 1.3792c-.00004.2352-.00009.475.01776.6715.01707.188.06227.5427.30993.853.28498.357.71712.5647 1.17394.5642.39698-.0004.70222-.1867.85965-.2908.1646-.1089.35183-.2587.53551-.4057l2.41312-1.9305c.5186-.4149.6726-.532.8325-.6137.1605-.082.3313-.1419.5079-.1782.1759-.0361.3693-.0408 1.0334-.0408h2.5576c.805 0 1.4693 0 2.0105-.0442.5621-.0459 1.0788-.1445 1.5642-.3918.7526-.3835 1.3645-.9954 1.748-1.748.2473-.4854.3459-1.0021.3918-1.5642.0442-.5412.0442-1.2055.0442-2.0105v-5.48262c0-.80496 0-1.46932-.0442-2.0105-.0459-.5621-.1445-1.07881-.3918-1.56414-.3835-.75265-.9954-1.36457-1.748-1.74806-.4854-.2473-1.0021-.34586-1.5642-.39179-.5412-.04421-1.2055-.0442-2.0105-.04419zm-4.7527 5.67211c.2541-.14937.553-.20397.8435-.15413.2906.04983.5541.2009.744.42643.1898.22553.2938.51098.2933.80578v.00149c0 .21857-.1772.51974-.6788.85419-.2205.14694-.448.26142-.6243.3398-.0868.03856-.1577.06683-.2046.08473-.0234.0089-.0405.0151-.0504.0186l-.0091.0032.0015-.0005c-.5232.1751-.8058.741-.6313 1.2645.1729.5188.7493.8039 1.2661.6321.0455-.0153.0904-.0319.1352-.0489.0761-.029.1808-.071.3048-.1261.2452-.109.5798-.2755.9215-.5033.6224-.415 1.5692-1.2378 1.5694-2.51788.0009-.76675-.2695-1.50911-.7633-2.09571-.494-.58687-1.1798-.97996-1.9359-1.10965-.756-.12968-1.5336.0124-2.195.40109-.66134.38868-1.1638.99889-1.41836 1.72255-.18327.52098.0905 1.0919.61149 1.27517.52097.18328 1.09187-.0905 1.27517-.61149.0978-.2781.2909-.5126.5451-.66197zm.6615 5.32789c-.5523 0-1 .4477-1 1s.4477 1 1 1h.01c.5523 0 1-.4477 1-1s-.4477-1-1-1z" fill="#801ed7" fill-rule="evenodd"/></svg>