<svg fill="none" height="24" viewBox="0 0 24 24" width="24" xmlns="http://www.w3.org/2000/svg"><g fill="#801ed7"><path clip-rule="evenodd" d="m1.26317 16.5c0-3.5669 2.82855-6.5 6.36842-6.5 3.53991 0 6.36841 2.9331 6.36841 6.5s-2.8285 6.5-6.36841 6.5c-.72765 0-1.42861-.125-2.08212-.3556-.10801-.0381-.17501-.0617-.22414-.078-.00892-.0029-.01622-.0053-.02206-.0071l-.00543.0006c-.0343.0038-.08105.0101-.16771.0219l-2.9948.409c-.32406.0443-.64927-.0727-.87085-.3133s-.311519-.5743-.24083-.8936l.61134-2.7617c.02125-.096.03261-.1478.03992-.1859.00041-.0021.00113-.006.00113-.006-.00181-.0063-.00411-.0141-.00699-.0237-.01647-.0545-.04068-.1288-.08005-.2493-.21169-.648-.32583-1.3402-.32583-2.0573z" fill-rule="evenodd"/><path d="m5.14754 8.3726c.77758-.24189 1.60641-.3726 2.47034-.3726 4.71342 0 8.38222 3.8907 8.38222 8.5 0 .8136-.1143 1.6049-.3285 2.3563.542-.0973 1.0677-.2427 1.5722-.4317.0712-.0267.1422-.0539.2141-.0785.058.0067.1158.0158.1736.0242l3.2129.471c.1517.0223.3238.0476.4738.0561.1661.0095.4244.0084.698-.1092.3417-.147.6166-.4156.7714-.7539.1239-.2708.1309-.5289.1253-.6952-.0051-.1503-.0264-.3229-.0452-.4751l-.406-3.2979c-.0105-.0857-.016-.1307-.0192-.1637.0176-.0723.0506-.1422.077-.2115.3788-.993.5858-2.069.5858-3.1909 0-4.97674-4.0592-9-9.0527-9-4.43574 0-8.1343 3.17483-8.90506 7.3726z"/></g></svg>