<svg fill="none" height="24" viewBox="0 0 24 24" width="24" xmlns="http://www.w3.org/2000/svg"><path clip-rule="evenodd" d="m7.7588 2h8.4826c.805-.00001 1.4693-.00002 2.0105.04419.5621.04593 1.0788.14449 1.5642.39178.7526.3835 1.3645.99542 1.748 1.74807.2473.48533.3459 1.00204.3918 1.56413.0442.54119.0442 1.20555.0442 2.01051v5.48262c0 .805 0 1.4693-.0442 2.0105-.0459.5621-.1445 1.0788-.3918 1.5642-.3835.7526-.9954 1.3645-1.748 1.748-.4854.2473-1.0021.3459-1.5642.3918-.5412.0442-1.2055.0442-2.0105.0442h-2.5576c-.6641 0-.8575.0047-1.0334.0408-.1766.0363-.3474.0962-.5079.1782-.1599.0817-.3139.1988-.8325.6137l-2.41312 1.9305c-.18368.147-.37091.2968-.53551.4057-.15743.1041-.46267.2904-.85965.2908-.45682.0005-.88896-.2072-1.17394-.5642-.24766-.3103-.29286-.665-.30993-.853-.01785-.1965-.0178-.4363-.01776-.6715l.00001-1.3792c-.39181-.0129-.72781-.0457-1.03528-.1281-1.38037-.3699-2.45856-1.4481-2.82843-2.8284-.13709-.5117-.13677-1.1023-.13634-1.8977.00002-.0452.00005-.0911.00005-.1376v-6.2413c-.00002-.80497-.00003-1.46933.04419-2.01053.04593-.56209.14449-1.0788.39178-1.56413.38349-.75265.99542-1.36457 1.74806-1.74807.48534-.24729 1.00204-.34585 1.56414-.39178.5412-.04421 1.20556-.0442 2.01053-.04419z" fill="#801ed7" fill-rule="evenodd"/></svg>