<svg fill="none" height="24" viewBox="0 0 24 24" width="24" xmlns="http://www.w3.org/2000/svg"><path clip-rule="evenodd" d="m12.5 2c-5.24666 0-9.49995 4.25329-9.49995 9.5 0 1.06.17399 2.0814.49575 3.036.05659.1679.08991.2673.11156.3406l.00708.0246-.00375.0078c-.0257.053-.0639.1242-.13536.2565l-1.65188 3.0575c-.10238.1894-.2092.3871-.28267.5589-.07302.1708-.1913.4842-.1331.8557.06822.4354.3245.8188.70078 1.0483.32101.1959.6558.2064.84154.2042.18688-.0022.4103-.0253.62447-.0475l5.15496-.5329c.08256-.0085.12572-.0129.15734-.0153l.00407-.0003.01237.0043c.03885.014.09154.0342.18249.0693 1.0609.4087 2.2127.6323 3.4143.6323 5.2468 0 9.5-4.2533 9.5-9.5 0-5.24671-4.2532-9.5-9.5-9.5zm-3.53039 6.58223c1.12729-.95128 2.62759-.67183 3.52729.36702.8997-1.03885 2.3807-1.30829 3.5273-.36702 1.1467.94127 1.286 2.54177.4007 3.66687-.5484.697-1.925 1.97-2.893 2.8379-.3556.3187-.5334.4781-.7468.5423-.183.0551-.3933.0551-.5764 0-.2134-.0642-.3911-.2236-.7467-.5423-.9681-.8679-2.34467-2.1409-2.89311-2.8379-.88525-1.1251-.72655-2.7156.40072-3.66687z" fill="#801ed7" fill-rule="evenodd"/></svg>