<svg fill="none" height="24" viewBox="0 0 24 24" width="24" xmlns="http://www.w3.org/2000/svg"><g fill="#801ed7"><path clip-rule="evenodd" d="m2.70711 1.29289c-.39053-.390521-1.02369-.390521-1.41422 0-.390521.39053-.390521 1.02369 0 1.41422l5.70711 5.7071v4.58579c0 2.7615 2.23858 5 5 5 1.2758 0 2.4397-.4783 3.3223-1.2635l1.4161 1.4161c-1.2475 1.148-2.9109 1.8474-4.7384 1.8474-3.86599 0-7-3.134-7-7v-1c0-.5523-.44772-1-1-1s-1 .4477-1 1v1c0 4.9706 4.02944 9 9 9 2.3801 0 4.5449-.9248 6.1535-2.4323l3.1394 3.1394c.3905.3905 1.0237.3905 1.4142 0s.3905-1.0237 0-1.4142z" fill-rule="evenodd"/><path d="m17 12.7574-8.894-8.89404c.91654-1.1364 2.3204-1.86336 3.894-1.86336 2.7614 0 5 2.23858 5 5z"/></g></svg>