<svg fill="none" height="24" viewBox="0 0 24 24" width="24" xmlns="http://www.w3.org/2000/svg"><g fill="#801ed7"><path clip-rule="evenodd" d="m2.70711 1.29289c-.39053-.390521-1.02369-.390521-1.41422 0-.390521.39053-.390521 1.02369 0 1.41422l6.70711 6.7071v2.58579c0 2.2092 1.79086 4 4 4 .7414 0 1.4364-.2023 2.0318-.5539l1.4447 1.4446c-.9808.6985-2.1807 1.1093-3.4765 1.1093-3.31371 0-6-2.6863-6-6v-2c0-.55229-.44772-1-1-1s-1 .44771-1 1v2c0 4.0796 3.05369 7.446 7 7.9381v1.0619h-3c-.55228 0-1 .4477-1 1s.44772 1 1 1h8c.5523 0 1-.4477 1-1s-.4477-1-1-1h-3v-1.0619c1.4607-.1821 2.7991-.7581 3.9056-1.6182l4.3873 4.3872c.3905.3905 1.0237.3905 1.4142 0s.3905-1.0237 0-1.4142l-4.3872-4.3873c1.053-1.3546 1.6801-3.0569 1.6801-4.9056v-2c0-.55229-.4477-1-1-1s-1 .44771-1 1v2c0 1.2958-.4108 2.4957-1.1093 3.4765l-4.736-4.7362c-3.14905-3.14931-6.2981-6.29858-9.44759-9.44741z" fill-rule="evenodd"/><path d="m16 11.7574v-6.7574c0-2.20914-1.7909-4-4-4-1.8306 0-3.37402 1.22974-3.84917 2.90819z"/></g></svg>