<svg fill="none" height="24" viewBox="0 0 24 24" width="24" xmlns="http://www.w3.org/2000/svg"><g fill="#801ed7"><path clip-rule="evenodd" d="m12 1c-2.20914 0-4 1.79086-4 4v7c0 2.2091 1.79086 4 4 4 2.2091 0 4-1.7909 4-4v-7c0-2.20914-1.7909-4-4-4z" fill-rule="evenodd"/><path d="m6 10c0-.55229-.44772-1-1-1s-1 .44771-1 1v2c0 4.0803 3.05466 7.4471 7.0019 7.9383-.0013.0204-.0019.041-.0019.0617v1h-3c-.55228 0-1 .4477-1 1s.44772 1 1 1h8c.5523 0 1-.4477 1-1s-.4477-1-1-1h-3v-1c0-.0207-.0006-.0413-.0019-.0617 3.9472-.4912 7.0019-3.858 7.0019-7.9383v-2c0-.55229-.4477-1-1-1s-1 .44771-1 1v2c0 3.3137-2.6863 6-6 6-3.31371 0-6-2.6863-6-6z"/></g></svg>