<svg fill="none" height="24" viewBox="0 0 24 24" width="24" xmlns="http://www.w3.org/2000/svg"><g fill="#801ed7"><path clip-rule="evenodd" d="m2.99996 5.5c0-2.48528 2.01472-4.5 4.5-4.5 2.33594 0 4.25614 1.77987 4.47854 4.05742.3355-.03795.6763-.05742 1.0215-.05742 4.9705 0 9 4.02944 9 9 0 3.7786-2.3284 7.011-5.6248 8.3454-.512.2072-1.095-.0398-1.3022-.5517s.0398-1.0949.5517-1.3022c2.5672-1.0391 4.3753-3.5554 4.3753-6.4915 0-3.866-3.1341-7-7-7-.34 0-.6738.02416-1 .07076v5.69314c.4748.4248.8127.9988.9424 1.6509.1311.6589.1315 1.5094 0 2.1706-.2367 1.19-1.167 2.1203-2.3571 2.357-.2928.0583-.62067.058-1.00137.0577h-4.16777c-.3807.0003-.70853.0006-1.00138-.0577-1.19008-.2367-2.12037-1.167-2.35709-2.357-.13105-.6589-.13151-1.5094 0-2.1706.12969-.652.46756-1.226.94227-1.6507z" fill-rule="evenodd"/><path d="m2.99996 21c-.55229 0-1 .4477-1 1s.44771 1 1 1h9.00004c.5522 0 1-.4477 1-1s-.4478-1-1-1z"/></g></svg>