<svg fill="none" height="24" viewBox="0 0 24 24" width="24" xmlns="http://www.w3.org/2000/svg"><g fill="#801ed7"><path d="m16.4142 9 5.2929-5.29289c.3905-.39053.3905-1.02369 0-1.41422-.3905-.39052-1.0237-.39052-1.4142 0l-5.2929 5.2929v-3.58579c0-.55228-.4477-1-1-1s-1 .44772-1 1v6c0 .5523.4477 1 1 1h6c.5523 0 1-.4477 1-1 0-.55228-.4477-1-1-1z"/><path d="m9 20v-3.5858l-5.29289 5.2929c-.39053.3905-1.02369.3905-1.41422 0-.39052-.3905-.39052-1.0237 0-1.4142l5.2929-5.2929h-3.58579c-.55228 0-1-.4477-1-1s.44772-1 1-1h6c.5523 0 1 .4477 1 1v6c0 .5523-.4477 1-1 1-.55228 0-1-.4477-1-1z"/></g></svg>