<svg fill="none" height="24" viewBox="0 0 24 24" width="24" xmlns="http://www.w3.org/2000/svg"><g clip-rule="evenodd" fill="#801ed7" fill-rule="evenodd"><path d="m7.99988 2c.55228 0 1 .44772 1 1v.2413c.00001.80497.00002 1.46933-.0442 2.01053-.04592.56209-.14449 1.0788-.39178 1.56413-.38349.75265-.99541 1.36457-1.74806 1.74807-.48534.24729-1.00204.34585-1.56414.39178-.54119.04421-1.20555.0442-2.01052.04419h-.2413c-.55229 0-1-.44772-1-1s.44771-1 1-1h.2c.85658 0 1.43887-.00078 1.88896-.03755.43842-.03582.66262-.10075.81902-.18044.37632-.19174.68228-.4977.87403-.87403.07969-.1564.14462-.3806.18044-.81902.03677-.45009.03755-1.03238.03755-1.88896v-.2c0-.55228.44771-1 1-1z"/><path d="m5.08884 17.0376c-.45009-.0368-1.03238-.0376-1.88896-.0376h-.2c-.55229 0-1-.4477-1-1s.44771-1 1-1h.2.0413c.80497 0 1.46933 0 2.01052.0442.5621.0459 1.0788.1445 1.56414.3918.75265.3835 1.36457.9954 1.74806 1.748.24729.4854.34586 1.0021.39178 1.5642.04422.5412.04421 1.2055.0442 2.0105v.2413c0 .5523-.44772 1-1 1-.55229 0-1-.4477-1-1v-.2c0-.8566-.00078-1.4389-.03755-1.889-.03582-.4384-.10075-.6626-.18044-.819-.19175-.3763-.49771-.6823-.87403-.874-.1564-.0797-.3806-.1446-.81902-.1804z"/><path d="m15.9999 2c.5523 0 1 .44772 1 1v.2c0 .85658.0008 1.43887.0375 1.88896.0358.43842.1008.66262.1805.81902.1917.37633.4977.68229.874.87403.1564.07969.3806.14462.819.18044.4501.03677 1.0324.03755 1.889.03755h.2c.5523 0 1 .44772 1 1s-.4477 1-1 1h-.2413c-.805.00001-1.4694.00002-2.0105-.04419-.5621-.04593-1.0788-.14449-1.5642-.39178-.7526-.3835-1.3646-.99542-1.748-1.74807-.2473-.48533-.3459-1.00204-.3918-1.56413-.0442-.5412-.0442-1.20556-.0442-2.01053 0-.01373 0-.02749 0-.0413v-.2c0-.55228.4477-1 1-1z"/><path d="m20.7586 15h.2413c.5523 0 1 .4477 1 1s-.4477 1-1 1h-.2c-.8566 0-1.4389.0008-1.889.0376-.4384.0358-.6626.1007-.819.1804-.3763.1917-.6823.4977-.874.874-.0797.1564-.1447.3806-.1805.819-.0367.4501-.0375 1.0324-.0375 1.889v.2c0 .5523-.4477 1-1 1s-1-.4477-1-1v-.2413c0-.805 0-1.4693.0442-2.0105.0459-.5621.1445-1.0788.3918-1.5642.3834-.7526.9954-1.3645 1.748-1.748.4854-.2473 1.0021-.3459 1.5642-.3918.5411-.0442 1.2055-.0442 2.0105-.0442z"/></g></svg>