<svg fill="none" height="24" viewBox="0 0 24 24" width="24" xmlns="http://www.w3.org/2000/svg"><g fill="#801ed7"><path d="m5.10258 1.69119c.41676.36239.46085.99402.09846 1.41078-2.01519 2.31759-2.64832 5.42358-1.89343 8.23863.14305.5334-.17342 1.0818-.70686 1.2248-.53343.1431-1.08184-.1734-1.22489-.7068-.921012-3.4345-.15103-7.23178 2.31593-10.06894.36239-.41677.99402-.46085 1.41079-.09847z"/><path d="m8.07298 5.90402c.34258-.4332.26911-1.06208-.16408-1.40466-.4332-.34258-1.06209-.26912-1.40467.16408-1.40372 1.77505-1.82359 4.06935-1.26551 6.15316.14288.5334.69118.8501 1.22466.7072s.85013-.6912.70725-1.2246c-.39979-1.4928-.09704-3.13142.90235-4.39518z"/><path d="m16.0911 4.49936c-.4332.34258-.5067.97146-.1641 1.40466.9994 1.26376 1.3022 2.90238.9024 4.39518-.1429.5334.1737 1.0817.7072 1.2246s1.0818-.1738 1.2247-.7072c.5581-2.08381.1382-4.37811-1.2655-6.15316-.3426-.4332-.9715-.50666-1.4047-.16408z"/><path d="m20.3047 1.78966c-.3624-.41677-.994-.46085-1.4108-.09847-.4168.36239-.4608.99402-.0985 1.41078 2.0152 2.31759 2.6484 5.42358 1.8935 8.23863-.1431.5334.1734 1.0818.7068 1.2248.5335.1431 1.0819-.1734 1.2249-.7068.921-3.4345.1511-7.23178-2.3159-10.06894z"/><path clip-rule="evenodd" d="m13 9c0-.55228-.4477-1-1-1s-1 .44772-1 1v5h-5.83854c-.52715 0-.98191 0-1.35649.0306-.39534.0323-.78856.1036-1.16694.2964-.56449.2876-1.02343.7465-1.31105 1.311-.19279.3784-.26411.7716-.29641 1.167-.030603.3745-.030587.8293-.03057 1.3565v.677c-.000017.5272-.000033.982.03057 1.3565.0323.3954.10362.7886.29641 1.167.28762.5645.74656 1.0234 1.31105 1.311.37838.1928.7716.2641 1.16694.2964.37454.0306.82936.0306 1.35644.0306h13.67719c.5271 0 .9819 0 1.3564-.0306.3954-.0323.7886-.1036 1.167-.2964.5645-.2876 1.0234-.7465 1.311-1.311.1928-.3784.2641-.7716.2964-1.167.0306-.3745.0306-.8293.0306-1.3564v-.6772c0-.5271 0-.9819-.0306-1.3564-.0323-.3954-.1036-.7886-.2964-1.167-.2876-.5645-.7465-1.0234-1.311-1.311-.3784-.1928-.7716-.2641-1.167-.2964-.3745-.0306-.8293-.0306-1.3565-.0306h-5.8385zm-7.5 8.5c-.55228 0-1 .4477-1 1s.44772 1 1 1h4c.5523 0 1-.4477 1-1s-.4477-1-1-1z" fill-rule="evenodd"/></g></svg>