<svg fill="none" height="24" viewBox="0 0 24 24" width="24" xmlns="http://www.w3.org/2000/svg"><g fill="#801ed7"><path clip-rule="evenodd" d="m5.63579 1.22185c.39053.39052.39053 1.02369 0 1.41421-3.39586 3.39587-3.51069 8.83044-.34452 12.36404h5.70873v-6.00001c0-.55228.4477-1 1-1s1 .44772 1 1v6.00001h5.7087c3.1662-3.5336 3.0513-8.96817-.3445-12.36404-.3906-.39052-.3906-1.02369 0-1.41421.3905-.390526 1.0236-.390526 1.4142 0 3.8034 3.80338 4.2393 9.69895 1.3078 13.98205.0206.0078.0412.016.0618.0246.7351.3044 1.3191.8885 1.6236 1.6235.135.326.1845.6559.207.9857.0214.3133.0214.6918.0214 1.1304v.064c0 .4386 0 .8171-.0214 1.1304-.0225.3298-.072.6597-.207.9856-.3045.7351-.8885 1.3192-1.6236 1.6236-.3259.135-.6558.1845-.9856.207-.3133.0214-.6917.0214-1.1303.0214h-14.06411c-.43861 0-.81716 0-1.13039-.0214-.32983-.0225-.65974-.072-.98567-.207-.73509-.3044-1.31911-.8885-1.62359-1.6236-.135-.3259-.18451-.6558-.20701-.9856-.021375-.3133-.021365-.6918-.021353-1.1304v-.064c-.000012-.4386-.000022-.8171.021353-1.1304.0225-.3298.07201-.6597.20701-.9857.30448-.735.8885-1.3191 1.62359-1.6235.02059-.0086.0412-.0168.06183-.0246-2.9315156-4.2831-2.495564-10.17867 1.30782-13.98205.39053-.390526 1.02369-.390526 1.41421 0z" fill-rule="evenodd"/><path d="m8.46444 5.46452c.39053-.39052.39053-1.02369 0-1.41421-.39052-.39052-1.02369-.39052-1.41421 0-2.73367 2.73367-2.73367 7.16579 0 9.89949.39052.3905 1.02369.3905 1.41421 0 .39053-.3905.39053-1.0237 0-1.4142-1.95262-1.9526-1.95262-5.11845 0-7.07108z"/><path d="m16.9498 4.05031c-.3906-.39052-1.0237-.39052-1.4143 0-.3905.39052-.3905 1.02369 0 1.41421 1.9527 1.95263 1.9527 5.11848 0 7.07108-.3905.3905-.3905 1.0237 0 1.4142.3906.3905 1.0237.3905 1.4143 0 2.7336-2.7337 2.7336-7.16582 0-9.89949z"/></g></svg>