<svg fill="none" height="24" viewBox="0 0 24 24" width="24" xmlns="http://www.w3.org/2000/svg"><g clip-rule="evenodd" fill="#801ed7" fill-rule="evenodd"><path d="m12 21c-1.438 0-2.79374.3252-3.99573.9017-.49797.2388-1.09527.0287-1.33411-.4692-.23884-.498-.02877-1.0953.4692-1.3342 1.46761-.7039 3.11854-1.0983 4.86064-1.0983s3.393.3944 4.8606 1.0983c.498.2389.7081.8362.4692 1.3342-.2388.4979-.8361.708-1.3341.4692-1.202-.5765-2.5577-.9017-3.9957-.9017z"/><path d="m6.7587 2h10.4826c.805-.00001 1.4693-.00002 2.0105.04419.5621.04593 1.0788.14449 1.5642.39178.7526.3835 1.3645.99542 1.748 1.74807.2473.48533.3459 1.00204.3918 1.56413.0442.54119.0442 1.20555.0442 2.01051v4.48262c0 .805 0 1.4693-.0442 2.0105-.0459.5621-.1445 1.0788-.3918 1.5642-.3835.7526-.9954 1.3645-1.748 1.748-.4854.2473-1.0021.3459-1.5642.3918-.5412.0442-1.2055.0442-2.0105.0442h-10.48257c-.80499 0-1.46935 0-2.01056-.0442-.56209-.0459-1.0788-.1445-1.56413-.3918-.75265-.3835-1.36457-.9954-1.74807-1.748-.24729-.4854-.34585-1.0021-.39178-1.5642-.044213-.5412-.044202-1.2055-.04419-2.0105v-4.4826c-.000012-.80497-.000023-1.46933.04419-2.01052.04593-.5621.14449-1.07881.39178-1.56414.3835-.75265.99542-1.36457 1.74807-1.74807.48533-.24729 1.00204-.34585 1.56413-.39178.5412-.04421 1.20556-.0442 2.01053-.04419z"/></g></svg>