<svg fill="none" height="24" viewBox="0 0 24 24" width="24" xmlns="http://www.w3.org/2000/svg"><g fill="#801ed7"><path clip-rule="evenodd" d="m18.8385 3h-3.677c-.5272-.00002-.982-.00003-1.3565.03057-.3954.0323-.7886.10362-1.167.29641-.5645.28762-1.0234.74657-1.311 1.31105-.1928.37838-.2641.7716-.2964 1.16695-.0306.37454-.0306.82926-.0306 1.35635v9.67717c0 .5271 0 .982.0306 1.3565.0323.3954.1036.7886.2964 1.167.2876.5645.7465 1.0234 1.311 1.311.3784.1928.7716.2641 1.167.2964.3745.0306.8293.0306 1.3564.0306h3.6772c.5271 0 .9819 0 1.3564-.0306.3954-.0323.7886-.1036 1.167-.2964.5645-.2876 1.0234-.7465 1.311-1.311.1928-.3784.2641-.7716.2964-1.167.0306-.3745.0306-.8293.0306-1.3564v-9.67712c0-.52714 0-.98193-.0306-1.3565-.0323-.39535-.1036-.78857-.2964-1.16695-.2876-.56448-.7465-1.02343-1.311-1.31105-.3784-.19279-.7716-.26411-1.167-.29641-.3745-.0306-.8293-.03059-1.3565-.03057zm-3.0885 5.25c0-.69035.5596-1.25 1.25-1.25s1.25.55965 1.25 1.25c0 .69036-.5596 1.25-1.25 1.25s-1.25-.55964-1.25-1.25zm1.25 4.25c-1.3807 0-2.5 1.1193-2.5 2.5s1.1193 2.5 2.5 2.5 2.5-1.1193 2.5-2.5-1.1193-2.5-2.5-2.5z" fill-rule="evenodd"/><path d="m8 5h-2.83854c-.52715-.00002-.98191-.00003-1.35649.03057-.39534.0323-.78856.10362-1.16694.29641-.56449.28762-1.02343.74656-1.31105 1.31105-.19279.37838-.26411.7716-.29641 1.16694-.030601.37457-.030586.82931-.03057 1.35644v3.67709c-.000016.5272-.000031.982.03057 1.3565.0323.3954.10362.7886.29641 1.167.28762.5645.74656 1.0234 1.31105 1.311.37838.1928.7716.2641 1.16694.2964.37457.0306.82933.0306 1.35648.0306h2.83855c.55229 0 1-.4477 1-1v-10c0-.55228-.44771-1-1-1z"/><path d="m5.5 19c-.55228 0-1 .4477-1 1s.44772 1 1 1h2.5c.55229 0 1-.4477 1-1s-.44771-1-1-1z"/></g></svg>