<svg fill="none" height="24" viewBox="0 0 24 24" width="24" xmlns="http://www.w3.org/2000/svg"><path d="m9.06693 2.41209c.17148-.37917.09021-.82491-.20405-1.11917-.29426-.294256-.73999-.375524-1.11917-.20405-3.97478 1.79755-6.74371 5.79877-6.74371 10.44883 0 6.3305 5.13185 11.4623 11.4623 11.4623 4.6501 0 8.6513-2.7689 10.4489-6.7437.1714-.3792.0902-.8249-.2041-1.1192-.2943-.2942-.74-.3755-1.1192-.204-1.1864.5366-2.5041.8358-3.8944.8358-5.2259 0-9.46234-4.2364-9.46234-9.46234 0-1.39028.2992-2.70799.83577-3.89447z" fill="#801ed7"/></svg>