<svg fill="none" height="24" viewBox="0 0 24 24" width="24" xmlns="http://www.w3.org/2000/svg"><g fill="#801ed7"><path clip-rule="evenodd" d="m18 1c.3788 0 .725.214.8944.55279l.6178 1.23558c.2825.56497.3686.72755.4732.86324.1049.1361.2269.25811.363.36301.1357.1046.2983.19068.8632.47316l1.2356.61779c.3388.16939.5528.51566.5528.89443s-.214.72504-.5528.89443l-1.2356.61779c-.5649.28248-.7275.36856-.8632.47316-.1361.1049-.2581.22691-.363.36301-.1046.13569-.1907.29827-.4732.86324l-.6178 1.23557c-.1694.3388-.5156.5528-.8944.5528s-.725-.214-.8944-.5528l-.6178-1.23557c-.2825-.56497-.3686-.72755-.4732-.86324-.1049-.1361-.2269-.25811-.363-.36301-.1357-.1046-.2983-.19068-.8632-.47316l-1.2356-.61779c-.3388-.16939-.5528-.51566-.5528-.89443s.214-.72504.5528-.89443l1.2356-.61779c.5649-.28248.7275-.36856.8632-.47316.1361-.1049.2581-.22691.363-.36301.1046-.13569.1907-.29827.4732-.86324l.6178-1.23558c.1694-.33879.5156-.55279.8944-.55279zm0 3.2279c-.1284.24245-.2523.45139-.4014.64472-.2098.27219-.4538.51621-.726.72603-.1933.14902-.4022.27295-.6447.40135.2425.1284.4514.25233.6447.40135.2722.20982.5162.45384.726.72603.1491.19333.273.40227.4014.64472.1284-.24245.2523-.45139.4014-.64472.2098-.27219.4538-.51621.726-.72603.1933-.14902.4022-.27295.6447-.40135-.2425-.1284-.4514-.25233-.6447-.40135-.2722-.20982-.5162-.45384-.726-.72603-.1491-.19333-.273-.40227-.4014-.64472z" fill-rule="evenodd"/><path d="m11.1067 3.86882c.4094-.23337.6004-.72095.4583-1.17031-.1421-.44935-.5787-.73849-1.0479-.69401-5.34021.50634-9.5171 5.00183-9.5171 10.4741 0 5.8108 4.71064 10.5214 10.5215 10.5214 5.472 0 9.9673-4.1764 10.474-9.5162.0446-.4692-.2446-.9058-.6939-1.0479s-.9369.0487-1.1703.4582c-1.1404 2.0004-3.2904 3.3454-5.7534 3.3454-3.6545 0-6.61715-2.9626-6.61715-6.61713 0-2.46309 1.34527-4.61322 3.34595-5.75355z"/></g></svg>