<svg fill="none" height="24" viewBox="0 0 24 24" width="24" xmlns="http://www.w3.org/2000/svg"><path d="m11.5395 2.91375c.4094-.23338.6003-.72096.4582-1.17032-.1421-.44935-.5786-.73849-1.0478-.69401-5.58306.52936-9.9499 5.22936-9.9499 10.95048 0 6.0751 4.92487 11 11 11 5.7208 0 10.4206-4.3664 10.9504-9.949.0445-.4692-.2446-.9058-.694-1.0479-.4493-.1422-.9369.0487-1.1703.4582-1.2063 2.1159-3.4806 3.5389-6.0861 3.5389-3.866 0-7-3.134-7-6.99998 0-2.60566 1.4232-4.88017 3.5395-6.08637z" fill="#801ed7"/></svg>