<svg fill="none" height="24" viewBox="0 0 24 24" width="24" xmlns="http://www.w3.org/2000/svg"><g fill="#801ed7"><path d="m12 1c-6.07513 0-11 4.92487-11 11 0 6.0751 4.92487 11 11 11 1.7264 0 3.3625-.3984 4.8189-1.1092.4254-.2076.647-.6851.5309-1.144s-.5381-.7735-1.011-.7538c-.1123.0046-.2253.007-.3388.007-4.4183 0-8-3.5817-8-8 0-4.41828 3.5817-8 8-8 .1136 0 .2265.00236.3388.00703.4729.01966.8949-.29498 1.011-.75388.1161-.45889-.1055-.93633-.5309-1.14394-1.4564-.71081-3.0925-1.10921-4.8189-1.10921z"/><path d="m19.4008 5.20101c.4415-.33187 1.0684-.24304 1.4002.19841 2.9326 3.90083 2.9319 9.30368-.0019 13.20388-.3319.4414-.9589.53-1.4002.198-.4414-.332-.53-.9589-.198-1.4003 2.3982-3.1883 2.3988-7.61093.0015-10.79977-.3319-.44145-.243-1.06835.1984-1.40022z"/></g></svg>