<svg fill="none" height="24" viewBox="0 0 24 24" width="24" xmlns="http://www.w3.org/2000/svg"><path d="m19.968 4.19884c-.1383.01091-.3286.04174-.6666.09808l-8.8 1.46667c-.2524.04205-.3869.06515-.4828.08867l-.0097.00243-.0008.01001c-.0074.09838-.0081.23492-.0081.49072v11.64458.0036c-.00196 2.2075-1.79207 3.9964-4 3.9964-2.20914 0-4-1.7909-4-4s1.79086-4 4-4c.72858 0 1.41166.1948 2 .5351v-8.2081c-.00002-.21611-.00005-.42995.0138-.61313.01541-.20374.05161-.44057.16141-.68534.15444-.34427.40313-.63783.71732-.84677.22338-.14854.45105-.22319.64948-.27188.17841-.04378.38934-.07891.60249-.11441l8.8629-1.47715c.2903-.04842.5679-.09471.8032-.11328.2541-.02005.5641-.0189.8858.10059.4383.16282.8058.4741 1.0385.87973.1707.2977.2228.6033.2448.85719.0204.23513.0203.51647.0203.81075v11.1467c0 .0557-.0045.1102-.0133.1634-.0857 2.1334-1.8423 3.8366-3.9967 3.8366-2.2091 0-4-1.7909-4-4s1.7909-4 4-4c.7327 0 1.4194.197 2.01.5409v-7.65214c0-.34271-.0009-.53552-.0128-.67365l-.0017-.01755z" fill="#801ed7"/></svg>