<svg fill="none" height="24" viewBox="0 0 24 24" width="24" xmlns="http://www.w3.org/2000/svg"><path clip-rule="evenodd" d="m14.7259 3.24492c-.3516-.17585-.6742-.3372-.948-.44416-.282-.11015-.654-.22276-1.0702-.16127-.5442.08041-1.0313.38144-1.3466.83224-.2412.34479-.3068.72782-.3344 1.02932-.0268.29275-.0267.6535-.0267 1.04662v8.98743c-.5883-.3403-1.27142-.5351-2-.5351-2.20914 0-4 1.7909-4 4s1.79086 4 4 4c2.2081 0 3.9983-1.7891 4-3.9968v-.0032-12.41116c0-.44812.001-.71529.0184-.90549l.0031-.03061.0287.01095c.1779.0695.4173.18809.8181.38849l3.6845 1.84223c.494.24699 1.0946.04676 1.3416-.44721.247-.49398.0468-1.09466-.4472-1.34165z" fill="#801ed7" fill-rule="evenodd"/></svg>