<svg fill="none" height="24" viewBox="0 0 24 24" width="24" xmlns="http://www.w3.org/2000/svg"><g fill="#801ed7"><path d="m16.2779 2.80076c.2738.10696.5964.26831.948.44416l3.7213 1.86063c.494.24699.6942.84767.4472 1.34165-.247.49397-.8476.6942-1.3416.44721l-3.6845-1.84223c-.4008-.2004-.6402-.31899-.8181-.38849l-.0287-.01095-.0031.03061c-.0174.1902-.0184.45737-.0184.90549v12.41116.0032c-.0017 2.2077-1.7919 3.9968-4 3.9968-2.20914 0-4-1.7909-4-4s1.79086-4 4-4c.7286 0 1.4117.1948 2 .5351v-8.98743c0-.39312-.0001-.75387.0267-1.04662.0276-.3015.0932-.68453.3344-1.02932.3153-.4508.8024-.75183 1.3466-.83224.4162-.06149.7882.05112 1.0702.16127z"/><path d="m6.5 3c.55228 0 1 .44772 1 1v2h2c.5523 0 1 .44772 1 1s-.4477 1-1 1h-2v2c0 .5523-.44772 1-1 1s-1-.4477-1-1v-2h-2c-.55228 0-1-.44772-1-1s.44772-1 1-1h2v-2c0-.55228.44772-1 1-1z"/></g></svg>