<svg fill="none" height="24" viewBox="0 0 24 24" width="24" xmlns="http://www.w3.org/2000/svg"><path d="m21.5951 1.4575c-.3958-.13221-.7643-.0366-.9475.01661-.1996.05799-.4375.15089-.6762.24409l-16.95711 6.6174c-.26683.10409-.52528.20491-.72476.30354-.17235.08522-.53869.27491-.74318.66852-.2255.43406-.2252.95084.00082 1.38464.20495.3933.57151.5826.74396.6676.19959.0984.45811.1989.72506.3027l6.71129 2.6099 2.60992 6.7112c.1038.267.2043.5256.3027.7252.085.1724.2743.539.6676.7439.4338.226.9506.2263 1.3846.0008.3937-.2044.5833-.5708.6686-.7431.0986-.1995.1994-.4579.3035-.7247l6.6174-16.95719c.0932-.23871.1861-.47663.2441-.67626.0532-.18319.1488-.55165.0166-.94742-.1494-.44714-.5003-.79805-.9474-.94743z" fill="#801ed7"/></svg>