<svg fill="none" height="24" viewBox="0 0 24 24" width="24" xmlns="http://www.w3.org/2000/svg"><g fill="#801ed7"><path clip-rule="evenodd" d="m3.70711 2.29289c-.39053-.39052-1.02369-.39052-1.41422 0-.39052.39053-.39052 1.02369 0 1.41422l3.53169 3.53168-2.8103 1.0967c-.26684.10409-.52527.2049-.72475.30354-.17235.08522-.53869.2749-.74318.66851-.2255.43406-.2252.95086.00082 1.38466.20495.3933.57151.5826.74396.6676.19959.0984.45812.1989.72507.3027l6.71128 2.6099 2.60992 6.7113c.1038.2669.2043.5255.3027.7251.085.1724.2743.539.6676.7439.4338.226.9506.2263 1.3846.0008.3937-.2045.5833-.5708.6686-.7431.0986-.1995.1994-.4579.3035-.7247l1.0967-2.8104 3.5318 3.5318c.3905.3905 1.0237.3905 1.4142 0s.3905-1.0237 0-1.4142z" fill-rule="evenodd"/><path d="m18.349 14.1064 3.9328-10.07779c.0932-.23871.1861-.47663.2441-.67626.0532-.18319.1488-.55165.0166-.94742-.1494-.44714-.5003-.79805-.9474-.94743-.3958-.13221-.7643-.0366-.9475.01661-.1996.05799-.4375.15089-.6762.24409l-10.07778 3.93278z"/></g></svg>