<svg fill="none" height="24" viewBox="0 0 24 24" width="24" xmlns="http://www.w3.org/2000/svg"><path d="m12.6656 1.90254c-.4218-.21055-.9181-.21055-1.3399 0-.3733.18637-.5662.51452-.6581.68167-.1002.18217-.2028.4161-.3057.6508l-7.31123 16.66969c-.11507.2623-.22652.5163-.29783.7271-.06161.1821-.18652.5753-.05279.9982.14747.4664.51308.8316.97964.9785.42307.1332.81609.0079.99816-.054.21072-.0715.46462-.1833.72679-.2987l6.59106-2.9 6.5911 2.9001c.2621.1153.516.2271.7267.2986.182.0619.5751.1872.9981.054.4666-.1469.8322-.5121.9797-.9785.1337-.4229.0088-.8161-.0528-.9982-.0713-.2108-.1828-.4648-.2978-.7271l-7.3113-16.66964c-.1029-.23472-.2055-.46866-.3056-.65085-.0919-.16715-.2849-.4953-.6582-.68167z" fill="#801ed7"/></svg>