<svg fill="none" height="24" viewBox="0 0 24 24" width="24" xmlns="http://www.w3.org/2000/svg"><g fill="#801ed7"><path clip-rule="evenodd" d="m2.70711 1.29289c-.39053-.390521-1.02369-.390521-1.41422 0-.390521.39053-.390521 1.02369 0 1.41422l6.46514 6.46513-4.70741 10.73286c-.11507.2623-.22653.5163-.29784.7271-.06161.1822-.18653.5753-.0528.9982.14748.4664.51309.8316.97965.9785.42307.1333.81609.0079.99815-.0539.21072-.0716.46461-.1833.72677-.2987l6.59105-2.9001 6.5911 2.9001c.2621.1154.516.2271.7267.2987.1821.0618.5751.1872.9982.0539.2111-.0664.4015-.1776.5605-.3226l.4208.4208c.3905.3905 1.0237.3905 1.4142 0s.3905-1.0237 0-1.4142z" fill-rule="evenodd"/><path d="m18.4354 14.1928-4.806-10.95774c-.1029-.23472-.2055-.46866-.3056-.65085-.0919-.16715-.2849-.4953-.6582-.68167-.4218-.21055-.9181-.21055-1.3399 0-.3733.18637-.5662.51452-.6581.68167-.1002.18217-.2028.4161-.3057.6508l-.87931 2.00494z"/></g></svg>