<svg fill="none" height="24" viewBox="0 0 24 24" width="24" xmlns="http://www.w3.org/2000/svg"><g fill="#801ed7"><path d="m21.1213 2.87868c1.1716 1.17157 1.1716 3.07107 0 4.24264s-3.071 1.17157-4.2426 0-1.1716-3.07107 0-4.24264 3.071-1.17157 4.2426 0z"/><path clip-rule="evenodd" d="m21 10.8055c0-.4088 0-.6132-.0664-.7288-.0666-.11616-.1343-.17345-.2599-.21997-.125-.04632-.364-.00621-.8419.074-1.5405.25847-3.1787-.20654-4.3673-1.3952-1.1887-1.18865-1.6537-2.82688-1.3952-4.36733.0802-.47795.1203-.71692.074-.84192-.0465-.12555-.1038-.19326-.22-.25991-.1156-.06637-.32-.06637-.7288-.06637h-5.4358c-.80495-.00001-1.46934-.00002-2.01052.04419-.5621.04593-1.0788.14449-1.56414.39179-.75265.38349-1.36457.99541-1.74806 1.74806-.2473.48533-.34586 1.00204-.39178 1.56414-.04422.54118-.04421 1.20553-.0442 2.01049v7.48263c-.00001.805-.00002 1.4693.0442 2.0105.04592.5621.14448 1.0788.39178 1.5642.38349.7526.99541 1.3645 1.74806 1.748.48534.2473 1.00204.3459 1.56414.3918.54119.0442 1.20554.0442 2.0105.0442h7.48262c.805 0 1.4693 0 2.0105-.0442.5621-.0459 1.0788-.1445 1.5642-.3918.7526-.3835 1.3645-.9954 1.748-1.748.2473-.4854.3459-1.0021.3918-1.5642.0442-.5412.0442-1.2055.0442-2.0105zm-15 2.1945c0-.5523.44772-1 1-1h8c.5523 0 1 .4477 1 1s-.4477 1-1 1h-8c-.55228 0-1-.4477-1-1zm0 4c0-.5523.44772-1 1-1h6c.5523 0 1 .4477 1 1s-.4477 1-1 1h-6c-.55228 0-1-.4477-1-1z" fill-rule="evenodd"/></g></svg>