<svg fill="none" height="24" viewBox="0 0 24 24" width="24" xmlns="http://www.w3.org/2000/svg"><path d="m8.52269.999947-.05104-.000092c-.18991-.000507-.42905-.001146-.66438.055355-.20407.04899-.39916.1298-.57811.23946-.20635.12645-.37499.296-.50892.43064l-.03603.03616-4.92274 4.92274-.03616.03603c-.13464.13392-.30419.30257-.43064.50892-.10966.17895-.19047.37404-.23946.57811-.056501.23533-.055862.47447-.055355.66438l.000092.05104v6.95451l-.000092.051c-.000507.19-.001146.4291.055355.6644.04899.2041.1298.3992.23946.5781.12645.2064.296.375.43065.509l.03615.036 4.92274 4.9227.03603.0362c.13393.1346.30257.3042.50892.4306.17895.1097.37404.1905.57811.2395.23533.0565.47447.0558.66439.0553l.05103-.0001h6.95451l.051.0001c.1899.0005.4291.0012.6644-.0553.2041-.049.3992-.1298.5781-.2395.2064-.1264.375-.296.509-.4306l.036-.0362 4.9227-4.9227.0362-.036c.1346-.134.3042-.3026.4306-.509.1097-.1789.1905-.374.2395-.5781.0565-.2353.0558-.4745.0553-.6644l-.0001-.051v-6.95451l.0001-.05103c.0005-.18992.0012-.42906-.0553-.66439-.049-.20407-.1298-.39916-.2395-.57811-.1264-.20634-.296-.37499-.4306-.50891l-.0362-.03604-4.9227-4.92274-.036-.03616c-.134-.13464-.3026-.30419-.509-.43064-.1789-.10966-.374-.19047-.5781-.23946-.2353-.056501-.4744-.055862-.6644-.055355l-.051.000092z" fill="#801ed7"/></svg>