<svg fill="none" height="24" viewBox="0 0 24 24" width="24" xmlns="http://www.w3.org/2000/svg"><g fill="#801ed7"><path d="m12.4029 1.18505c-.2658-.05467-.54-.05467-.8058 0-.3073.06319-.5819.21702-.8003.33931l-.0595.03325c-.654.36336-1.4759.82007-2.33692 1.29858l8.96282 4.97936 2.3291-1.31011c.4074-.22919.6112-.34378.6786-.49408.0588-.13103.0584-.28102-.001-.41175-.0682-.14996-.2724-.26342-.6806-.49035-1.6814-.9346-4.6637-2.59225-6.4266-3.57165l-.0595-.03325c-.2184-.12229-.493-.27612-.8003-.33931z"/><path d="m15.3169 8.98661-8.97522-4.98622c-.75973.42226-1.46822.81608-2.03098 1.12889-.40825.22692-.61237.34039-.68058.49034-.05947.13073-.05985.28072-.00105.41175.06746.1503.27118.2649.67862.49408l7.30011 4.10635c.143.0804.2146.1207.2904.1365.0671.0139.1364.0139.2035 0 .0759-.0158.1474-.0561.2905-.1365z"/><path d="m21.9959 8.89013c-.0004-.44833-.0006-.67249-.0951-.80338-.0825-.11419-.2093-.1883-.3493-.20408-.1604-.0181-.3562.09202-.7477.31226l-7.396 4.16027c-.1485.0835-.2227.1253-.2767.1843-.0478.0523-.084.1141-.1061.1814-.025.076-.025.1612-.025.3315v8.1753c0 .4472 0 .6708.094.8016.0821.1141.2083.1884.3479.2047.16.0187.3549-.0895.7446-.3059 1.6663-.9253 4.695-2.6071 6.4762-3.5967l.0631-.0348c.2311-.1273.5218-.2874.7449-.5296.193-.2094.339-.4575.4283-.7279.1034-.3127.1021-.6445.1012-.9083l-.0002-.0722c0-1.963-.0025-5.3023-.0041-7.16847z"/><path d="m10.5581 22.234c-.16.0187-.3549-.0895-.74459-.3059-1.66636-.9253-4.69499-2.6071-6.47618-3.5967l-.06317-.0348c-.23113-.1274-.52173-.2874-.74489-.5296-.19295-.2094-.33897-.4575-.4283-.7279-.10332-.3127-.10211-.6445-.10115-.9083l.00018-.0722c0-1.963.00254-5.3023.0041-7.16843.00038-.44834.00056-.67251.09511-.8034.08247-.11418.20931-.18829.34928-.20408.16045-.01809.35621.09203.74775.31227l7.39596 4.16024c.1485.0835.2227.1253.2767.1844.0478.0522.084.114.1061.1813.025.0761.025.1612.025.3316v8.1752c0 .4472 0 .6708-.094.8016-.0821.1141-.2083.1884-.3479.2047z"/></g></svg>