<svg fill="none" height="24" viewBox="0 0 24 24" width="24" xmlns="http://www.w3.org/2000/svg"><g fill="#801ed7"><path clip-rule="evenodd" d="m23.7071 15.2929c.3905.3905.3905 1.0237 0 1.4142l-4 4c-.3905.3905-1.0237.3905-1.4142 0l-2-2c-.3905-.3905-.3905-1.0237 0-1.4142s1.0237-.3905 1.4142 0l1.2929 1.2929 3.2929-3.2929c.3905-.3905 1.0237-.3905 1.4142 0z" fill-rule="evenodd"/><path d="m11.5971 1.18505c.2658-.05467.54-.05467.8058 0 .3073.06319.5819.21702.8003.33931l.0595.03325c1.7629.9794 4.7452 2.63705 6.4266 3.57165.4082.22693.6124.34039.6806.49035.0594.13073.0598.28072.001.41175-.0674.1503-.2712.26489-.6786.49408l-2.3291 1.31011-8.96282-4.97936 2.33692-1.29858.0595-.03325c.2184-.12229.493-.27612.8003-.33931z"/><path d="m6.34168 4.00039 8.97522 4.98622-2.9247 1.64519c-.1431.0804-.2146.1207-.2905.1365-.0671.0139-.1364.0139-.2035 0-.0758-.0158-.1474-.0561-.2904-.1365l-7.30011-4.10635c-.40744-.22918-.61116-.34378-.67862-.49408-.0588-.13103-.05842-.28102.00105-.41175.06821-.14995.27233-.26342.68058-.49034z"/><path d="m21.9959 8.89013c-.0004-.44833-.0006-.67249-.0951-.80338-.0825-.11419-.2093-.1883-.3493-.20408-.1604-.0181-.3562.09202-.7477.31226l-7.396 4.16027c-.1485.0835-.2227.1253-.2767.1843-.0478.0523-.084.1141-.1061.1814-.025.076-.025.1612-.025.3315v8.1753c0 .4472 0 .6708.094.8016.0821.1141.2083.1884.3479.2047.16.0187.3549-.0895.7446-.3059.2071-.115.4352-.2416.6793-.3772.3149-.1748.4723-.2622.5417-.3866.0608-.1089.0787-.2365.0502-.3579-.0326-.1386-.1599-.266-.4145-.5206l-.1645-.1645c-1.1716-1.1716-1.1716-3.071 0-4.2426 1.1308-1.1309 2.9399-1.1702 4.1179-.1179l1.8821-1.8821c.186-.1861.3904-.3426.6074-.4695.2221-.1301.3332-.1951.3857-.2538.055-.0616.0775-.101.1028-.1795.0242-.075.0242-.1737.024-.371-.0008-1.3695-.0019-2.74218-.0027-3.71477z"/><path d="m9.81351 21.9281c.38969.2164.58459.3246.74459.3059.1396-.0163.2658-.0906.3479-.2047.094-.1308.094-.3544.094-.8016v-8.1752c0-.1704 0-.2555-.025-.3316-.0221-.0673-.0583-.1291-.1061-.1813-.054-.0591-.1282-.1009-.2767-.1844l-7.39596-4.16024c-.39154-.22024-.5873-.33036-.74775-.31227-.13997.01579-.26681.0899-.34928.20408-.09455.13089-.09473.35506-.09511.8034-.00156 1.86613-.0041 5.20543-.0041 7.16843l-.00018.0722c-.00096.2638-.00217.5956.10115.9083.08933.2704.23535.5185.4283.7279.22316.2422.51376.4022.74489.5296l.06317.0348c1.78119.9896 4.80982 2.6714 6.47618 3.5967z"/></g></svg>