<svg fill="none" height="24" viewBox="0 0 24 24" width="24" xmlns="http://www.w3.org/2000/svg"><g fill="#801ed7"><path clip-rule="evenodd" d="m8.70705 1.29289c-.39053-.390521-1.02369-.390521-1.41421 0-.39053.39053-.39053 1.02369 0 1.41422l.29289.29289-5.05741 5.0574c-.37276.37274-.69434.6943-.93756.9808-.25671.30239-.48433.63087-.61556 1.0347-.195774.6026-.195774 1.2516 0 1.8542.13123.4038.35885.7323.61556 1.0347.24322.2865.56479.608.93754.9808l3.52902 3.529c.37272.3727.69433.6944.98082.9376.30239.2567.63087.4843 1.03475.6155.60253.1958 1.25157.1958 1.8541 0 .40391-.1312.73231-.3588 1.03471-.6155.2865-.2432.6081-.5648.9808-.9376l4.6557-4.6557c.1785-.1784.3523-.3522.4875-.5114.1484-.1749.308-.3967.4021-.6865.1306-.4017.1306-.8343 0-1.236-.0941-.2898-.2537-.51164-.4021-.68649-.1352-.15921-.309-.33299-.4875-.51143zm.29289 3.12132-5.03015 5.03015c-.22298.22298-.40258.40291-.54965.55564h11.16556z" fill-rule="evenodd"/><path d="m20 12c.2509 0 .5013.0938.6941.2799.0317.0303.0631.0611.0944.0919.06.0593.1443.1438.2448.2483.1999.2079.4691.5.7411.8328.2688.3291.5579.7191.7845 1.1216.2115.3757.4411.8862.4411 1.4254 0 1.6568-1.3431 3-3 3s-3-1.3432-3-3c0-.5392.2296-1.0497.4411-1.4254.2266-.4025.5157-.7925.7845-1.1216.272-.3328.5412-.6249.7411-.8328.1005-.1045.1848-.189.2448-.2483.0313-.0308.0627-.0616.0944-.0919.1151-.1111.2508-.1893.3948-.2343.0974-.0304.1984-.0456.2993-.0456z"/><path d="m2 21c-.55228 0-1 .4477-1 1s.44772 1 1 1h12c.5523 0 1-.4477 1-1s-.4477-1-1-1z"/></g></svg>