<svg fill="none" height="24" viewBox="0 0 24 24" width="24" xmlns="http://www.w3.org/2000/svg"><path clip-rule="evenodd" d="m11.2071 1.29289c-.3905-.390521-1.0237-.390521-1.41421 0-.39052.39053-.39052 1.02369 0 1.41422l.29281.29283-5.92787 5.9279c-.5692.56919-1.03898 1.03895-1.3904 1.45286-.36499.43-.66066.865-.82898 1.3831-.26103.8034-.26103 1.6687 0 2.4721.16832.5181.46399.9531.82898 1.3831.35142.4139.82121.8837 1.39044 1.4529l3.27017 3.2702c.56914.5691 1.03896 1.039 1.45289 1.3904.42993.3649.86499.6606 1.38307.8289.8033.2611 1.6687.2611 2.4721 0 .518-.1683.9531-.464 1.383-.8289.414-.3514.8837-.8212 1.4528-1.3903l5.5264-5.5264c.1785-.1784.3523-.3522.4875-.5115.1484-.1748.308-.3967.4021-.6864.1306-.4017.1306-.8344 0-1.2361-.0941-.2897-.2537-.5116-.4021-.6864-.1352-.1593-.309-.333-.4875-.5115l-8.8912-8.89116c-.0038-.00387-.0077-.0077-.0116-.0115zm.2929 3.12117-5.89875 5.89874c-.60569.6057-1.01688 1.018-1.30914 1.3623-.10592.1248-.18802.2314-.25216.3247h15.04585z" fill="#801ed7" fill-rule="evenodd"/></svg>