<svg fill="none" height="24" viewBox="0 0 24 24" width="24" xmlns="http://www.w3.org/2000/svg"><path clip-rule="evenodd" d="m1 12c0-6.07513 4.92487-11 11-11 6.0751 0 11 4.92487 11 11 0 2.2091-1.7909 4-4 4h-.5c-.4962 0-.6475.0022-.7611.0171-.8974.1182-1.6036.8244-1.7218 1.7218-.0149.1136-.0171.2649-.0171.7611v.5c0 2.2091-1.7909 4-4 4-6.07513 0-11-4.9249-11-11zm9-7c-1.10457 0-2 .89543-2 2s.89543 2 2 2c1.1046 0 2-.89543 2-2s-.8954-2-2-2zm4 3c0-1.10457.8954-2 2-2s2 .89543 2 2-.8954 2-2 2-2-.89543-2-2zm-9 4c0-1.1046.89543-2 2-2s2 .8954 2 2-.89543 2-2 2-2-.8954-2-2z" fill="#801ed7" fill-rule="evenodd"/></svg>