<svg fill="none" height="24" viewBox="0 0 24 24" width="24" xmlns="http://www.w3.org/2000/svg"><g fill="#801ed7"><path d="m5.29289 3.29289c.39053-.39052 1.02369-.39052 1.41422 0l3 3c.39049.39053.39049 1.02369 0 1.41422-.39053.39052-1.02369.39052-1.41422 0l-1.29289-1.2929v11.17159l1.29289-1.2929c.39053-.3905 1.02369-.3905 1.41422 0 .39049.3905.39049 1.0237 0 1.4142l-3 3c-.39053.3905-1.02369.3905-1.41422 0l-3-3c-.39052-.3905-.39052-1.0237 0-1.4142.39053-.3905 1.02369-.3905 1.41422 0l1.29289 1.2929v-11.17159l-1.29289 1.2929c-.39053.39052-1.02369.39052-1.41422 0-.39052-.39053-.39052-1.02369 0-1.41422z"/><path d="m12 6c0-.55228.4477-1 1-1h8c.5523 0 1 .44772 1 1s-.4477 1-1 1h-8c-.5523 0-1-.44772-1-1z"/><path d="m12 10c0-.55228.4477-1 1-1h8c.5523 0 1 .44772 1 1 0 .5523-.4477 1-1 1h-8c-.5523 0-1-.4477-1-1z"/><path d="m13 13c-.5523 0-1 .4477-1 1s.4477 1 1 1h8c.5523 0 1-.4477 1-1s-.4477-1-1-1z"/><path d="m12 18c0-.5523.4477-1 1-1h8c.5523 0 1 .4477 1 1s-.4477 1-1 1h-8c-.5523 0-1-.4477-1-1z"/></g></svg>