<svg fill="none" height="24" viewBox="0 0 24 24" width="24" xmlns="http://www.w3.org/2000/svg"><g fill="#801ed7"><path d="m5.16146 4h13.67704c.5272-.00002.982-.00003 1.3565.03057.3954.0323.7886.10362 1.167.29641.5645.28762 1.0234.74656 1.311 1.31105.1928.37838.2641.7716.2964 1.16694.0306.37457.0306.82933.0306 1.35647v2.83856c0 .5523-.4477 1-1 1s-1-.4477-1-1v-2.8c0-.57655-.0008-.94882-.0239-1.23216-.0222-.27166-.0599-.37238-.0851-.42183-.0959-.18816-.2488-.34114-.437-.43701-.0495-.0252-.1502-.06287-.4218-.08507-.2834-.02315-.6556-.02393-1.2322-.02393h-13.6c-.57655 0-.94882.00078-1.23216.02393-.27166.0222-.37238.05987-.42183.08507-.18816.09587-.34114.24885-.43701.43701-.0252.04945-.06287.15017-.08507.42183-.02315.28334-.02393.65561-.02393 1.23216v3.6c0 .5766.00078.9488.02393 1.2322.0222.2716.05987.3723.08507.4218.09587.1882.24885.3411.43701.437.04945.0252.15017.0629.42183.0851.28334.0231.65561.0239 1.23216.0239h5.8c.5523 0 1 .4477 1 1s-.4477 1-1 1h-5.83852c-.52715 0-.98194 0-1.35651-.0306-.39534-.0323-.78856-.1036-1.16694-.2964-.56449-.2876-1.02343-.7465-1.31105-1.311-.19279-.3784-.26411-.7716-.29641-1.167-.030601-.3745-.030586-.8293-.03057-1.3564v-3.67714c-.000016-.52713-.000031-.98192.03057-1.35649.0323-.39534.10362-.78856.29641-1.16694.28762-.56449.74656-1.02343 1.31105-1.31105.37838-.19279.7716-.26411 1.16694-.29641.37457-.0306.82936-.03059 1.35649-.03057z"/><path d="m5.75 10c0-.69035.55965-1.25 1.25-1.25.69036 0 1.25.55965 1.25 1.25 0 .6904-.55964 1.25-1.25 1.25-.69035 0-1.25-.5596-1.25-1.25z"/><path d="m12 8.75c-.6904 0-1.25.55965-1.25 1.25 0 .6904.5596 1.25 1.25 1.25s1.25-.5596 1.25-1.25c0-.69035-.5596-1.25-1.25-1.25z"/><path d="m17 8.75c-.6904 0-1.25.55965-1.25 1.25 0 .6904.5596 1.25 1.25 1.25s1.25-.5596 1.25-1.25c0-.69035-.5596-1.25-1.25-1.25z"/><path clip-rule="evenodd" d="m14.75 15.25c0-1.5188 1.2312-2.75 2.75-2.75s2.75 1.2312 2.75 2.75v.778c.2025.024.4296.0736.658.19.3763.1917.6823.4977.874.874.1383.2714.1824.5412.2011.7698.017.2081.0169.4539.0169.7063v.8638c0 .2524.0001.4982-.0169.7063-.0187.2286-.0628.4984-.2011.7698-.1917.3763-.4977.6823-.874.874-.2714.1383-.5412.1824-.7698.2011-.2081.017-.4539.0169-.7063.0169h-3.8638c-.2524 0-.4982.0001-.7063-.0169-.2286-.0187-.4984-.0628-.7698-.2011-.3763-.1917-.6823-.4977-.874-.874-.1383-.2714-.1824-.5412-.201-.7698-.0171-.2081-.017-.4539-.017-.7063v-.8638c0-.2524-.0001-.4982.017-.7063.0186-.2286.0627-.4984.201-.7698.1917-.3763.4977-.6823.874-.874.2284-.1164.4555-.166.658-.19zm3.5 0v.75h-1.5v-.75c0-.4142.3358-.75.75-.75s.75.3358.75.75z" fill-rule="evenodd"/></g></svg>