<svg fill="none" height="24" viewBox="0 0 24 24" width="24" xmlns="http://www.w3.org/2000/svg"><path d="m4.51965 22.2618c-.88662.261-1.32993.3915-1.51293.29-.15774-.0875-.25612-.2532-.25744-.4336-.00154-.2093.32522-.536.97876-1.1896l6.75426-6.7542c.1652.0442.3389.0677.518.0677 1.1046 0 2-.8954 2-2 0-1.1045-.8954-2-2-2-1.10454 0-1.99997.8955-1.99997 2 0 .1792.02355.3528.06774.5181l-6.75425 6.7542c-.65353.6536-.9803.9803-1.18955.9788-.180382-.0013-.346063-.0997-.433564-.2575-.101509-.183.028993-.6263.289996-1.5129l3.325978-11.29821c.06564-.27668.14812-.62432.3406-.91951.16626-.25498.38853-.46865.64986-.62472.30256-.18069.65318-.24939.93223-.30407l5.20663-1.04111c-.0451-.30406-.0196-.61599.0763-.91118.0941-.28971.2537-.5116.4021-.68645.1352-.15922.309-.333.4875-.51144l.7823-.78235c.1785-.17849.3523-.35232.5115-.48748.1748-.14844.3967-.308008.6864-.402143.4017-.130516.8344-.130516 1.2361 0 .2897.094135.5116.253703.6865.402143.1592.13516.333.30898.5114.48747l4.7824 4.78237c.1785.17844.3523.35222.4874.51143.1485.17485.308.39674.4022.68645.1305.40169.1305.83439 0 1.23607-.0942.28972-.2537.51161-.4022.68646-.1351.1592-.3089.33298-.4874.51137l-.7824.7824c-.1783.1784-.3523.3524-.5114.4875-.1749.1484-.3968.308-.6865.4021-.2951.0959-.6069.1214-.9109.0764l-1.0411 5.2068c-.0547.279-.1234.6297-.3041.9322-.1561.2613-.3697.4836-.6247.6499-.2952.1925-.6429.2749-.9195.3406z" fill="#801ed7"/></svg>