<svg fill="none" height="24" viewBox="0 0 24 24" width="24" xmlns="http://www.w3.org/2000/svg"><g fill="#801ed7"><path d="m17.6181 2.51195c-.4017-.13052-.8344-.13052-1.236 0-.2898.09413-.5116.2537-.6865.40214-.1592.13516-.333.30898-.5114.48747l-.7824.78236c-.1785.17844-.3523.35222-.4875.51144-.1484.17485-.308.39674-.4021.68645-.1073.33032-.1264.68161-.0572 1.01938l-4.89523 1.39864-.06406.01814c-.23558.06644-.53194.15003-.78961.31756-.22296.14496-.41476.33294-.5642.55292-.1727.25424-.26226.54885-.33344.78303l-.01944.06368-3.45287 9.55894c-.35334.9782-.53001 1.4672-.43393 1.6591.08269.1652.24971.2713.43436.276.21453.0055.58224-.3622 1.31767-1.0977l5.41345-5.4135c-.0441-.1652-.0677-.3388-.0677-.518 0-1.1046.8954-2 2-2s2 .8954 2 2-.8954 2-2 2c-.1792 0-.3528-.0236-.518-.0677l-5.41314 5.4131c-.73542.7354-1.10314 1.1031-1.09768 1.3176.0047.1847.11082.3517.27598.4344.19189.0961.68099-.0806 1.65918-.4339l9.55826-3.4527.0637-.0195c.2342-.0712.5288-.1607.783-.3334.22-.1494.408-.3412.553-.5642.1675-.2577.2511-.554.3175-.7896l.0182-.0641 1.3986-4.8951c.3378.0693.6891.0502 1.0195-.0572.2897-.0941.5116-.2537.6865-.4021.1592-.1352.333-.309.5114-.4875l.7824-.7823c.1785-.1785.3523-.3522.4875-.5115.1484-.1748.308-.3967.4021-.68642.1305-.40168.1305-.83438 0-1.23607-.0941-.28971-.2537-.5116-.4021-.68645-.1352-.15921-.309-.33299-.4875-.51143l-3.7824-3.78238c-.1784-.17848-.3522-.3523-.5114-.48746-.1749-.14844-.3968-.30801-.6865-.40214z"/><path d="m6 2c0-.55228-.44772-1-1-1s-1 .44772-1 1v2h-2c-.55228 0-1 .44772-1 1s.44772 1 1 1h2v2c0 .55228.44772 1 1 1s1-.44772 1-1v-2h2c.55228 0 1-.44772 1-1s-.44772-1-1-1h-2z"/></g></svg>