<svg fill="none" height="24" viewBox="0 0 24 24" width="24" xmlns="http://www.w3.org/2000/svg"><path d="m.980458 4.51916c-.261003-.88662-.391505-1.32993-.289996-1.51293.0875-.15774.253182-.25612.433558-.25744.20926-.00154.53603.32523 1.18956.97876l6.75425 6.75425c-.04419.1652-.06775.3389-.06775.518 0 1.1046.89543 2 2.00002 2 1.1046 0 2-.8954 2-2 0-1.10453-.8954-1.99996-2-1.99996-.1792 0-.3528.02356-.5181.06774l-6.75421-6.75424c-.65353-.65354-.9803-.9803-.97876-1.18956.00133-.18038.09971-.346062.25745-.433562.18299-.101509.6263.028993 1.51292.289995l11.2982 3.325977c.2767.06564.6243.14812.9195.34061.255.16625.4687.38852.6248.64985.1806.30256.2493.65318.304.93223l1.0411 5.20662c.3041-.0451.616-.0196.9112.0763.2897.0941.5116.2537.6865.4021.1592.1352.333.309.5114.4875l.7824.7823c.1784.1785.3523.3523.4874.5115.1485.1748.308.3967.4022.6865.1305.4016.1305.8343 0 1.236-.0942.2897-.2537.5116-.4022.6865-.1351.1592-.309.333-.4874.5114l-4.7824 4.7824c-.1784.1785-.3522.3523-.5114.4874-.1749.1485-.3968.3081-.6865.4022-.4017.1305-.8344.1305-1.2361 0-.2897-.0941-.5116-.2537-.6864-.4022-.1592-.1351-.333-.3089-.5114-.4874l-.7824-.7824c-.1784-.1783-.3524-.3523-.4875-.5114-.1484-.1749-.308-.3968-.4021-.6865-.0959-.2951-.1214-.6069-.0764-.9109l-5.20677-1.0411c-.27906-.0547-.62968-.1234-.93223-.3041-.26134-.1561-.4836-.3697-.64986-.6247-.19248-.2952-.27496-.6428-.34061-.9195z" fill="#801ed7"/></svg>