<svg fill="none" height="24" viewBox="0 0 24 24" width="24" xmlns="http://www.w3.org/2000/svg"><g fill="#801ed7"><path clip-rule="evenodd" d="m16.2929 2.2927c1.4951-1.495087 3.9192-1.495085 5.4143.00001 1.4951 1.49509 1.4951 3.91912 0 5.41421l-11.3166 11.31658c-.2334.2335-.41001.4102-.60947.565-.17632.1368-.36378.2586-.56043.3642-.22245.1194-.45557.209-.76374.3274l-.12519.0482c-.03131.0121-.0624.024-.09294.0358l-5.37982 2.0691c-.36885.1419-.78665.0532-1.06609-.2262-.19103-.191-.2929-.4467-.29292-.7072-.00002-.1206.02179-.2422.06668-.359l2.15302-5.5978c.11845-.3082.20805-.5414.32748-.7639.10555-.1966.22738-.3841.36421-.5604.15479-.1995.33144-.376.56496-.6094zm-10.91191 14.5024-1.13991 2.9637 2.96373-1.1399z" fill-rule="evenodd"/><path d="m13 20h8c.5523 0 1 .4477 1 1s-.4477 1-1 1h-8c-.5523 0-1-.4477-1-1s.4477-1 1-1z"/></g></svg>