<svg fill="none" height="24" viewBox="0 0 24 24" width="24" xmlns="http://www.w3.org/2000/svg"><g fill="#801ed7"><path d="m18.7071 1.29289c-.3905-.390521-1.0237-.390521-1.4142 0-.3905.39053-.3905 1.02369 0 1.41422l4 4c.3905.39052 1.0237.39052 1.4142 0 .3905-.39053.3905-1.02369 0-1.41422z"/><path d="m14.5365 4.28045c.3013-.09789.6258-.09789.927 0 .2327.07558.4013.20113.5124.29542.0958.08137.1964.182.2805.26625l2.9014 2.90137c.0843.0842.1849.18475.2663.2806.0943.11108.2198.27967.2954.51231.0979.30126.0979.62579 0 .92705-.0756.23263-.2011.40123-.2954.51231-.0814.09584-.1821.19644-.2663.28064l-10.3875 10.3875c-.18668.1869-.35143.3519-.54233.4909-.16799.1224-.34824.227-.53785.3122-.21547.0967-.44043.1579-.69533.2273l-4.73165 1.2904c-.34621.0944-.71647-.0039-.97022-.2577-.25375-.2537-.352082-.624-.25766-.9702l1.29043-4.7316c.06935-.2549.13055-.4799.22729-.6954.08513-.1896.18974-.3698.31213-.5378.13908-.1909.30404-.3557.49095-.5424l10.38754-10.38745c.0842-.08426.1847-.1849.2806-.26628.1111-.09429.2797-.21984.5123-.29542z"/></g></svg>