<svg fill="none" height="24" viewBox="0 0 24 24" width="24" xmlns="http://www.w3.org/2000/svg"><path clip-rule="evenodd" d="m21.7072 2.29271c-1.4951-1.495095-3.9192-1.495097-5.4143-.00001l-11.31653 11.3166c-.23353.2334-.41019.4099-.56498.6094-.13683.1763-.25866.3638-.36421.5604-.11943.2225-.20903.4557-.32748.7639l-2.15302 5.5978c-.04489.1168-.0667.2384-.06668.359.00002.2605.10189.5162.29292.7072.27944.2794.69724.3681 1.06609.2262l5.37974-2.0691c.03055-.0117.06171-.0237.09302-.0358l.1251-.0482c.30817-.1184.54138-.208.76383-.3274.19665-.1056.38411-.2274.56043-.3642.19948-.1548.37607-.3315.60947-.565l11.3166-11.31658c1.4951-1.49509 1.4951-3.91912 0-5.41421zm-16.32621 14.50239-1.13991 2.9637 2.96373-1.1399z" fill="#801ed7" fill-rule="evenodd"/></svg>