<svg fill="none" height="24" viewBox="0 0 24 24" width="24" xmlns="http://www.w3.org/2000/svg"><path d="m12.497 1.54832c-.326-.08363-.6679-.08363-.9939 0-.3781.097-.7012.33356-.9587.52215l-.0715.05223-8.11857 5.89193-.07197.05192c-.25959.18668-.58522.42086-.7948.7509-.18071.28458-.28655.61022-.3077.94667-.02452.39018.1012.77108.20142 1.07468l.0277.0843 3.10029 9.5312.02717.0843c.09749.3042.21977.6857.46881.9866.21473.2595.49151.4605.80466.5844.36317.1438.76382.142 1.0832.1407l.08865-.0003h10.03654l.0886.0003c.3194.0013.7201.0031 1.0832-.1407.3132-.1239.59-.3249.8047-.5844.249-.3009.3713-.6824.4688-.9866l.0272-.0843 3.1003-9.5312.0277-.0843c.1002-.3036.2259-.6845.2014-1.07468-.0212-.33645-.127-.66209-.3077-.94667-.2096-.33004-.5352-.56422-.7948-.75091l-.072-.05191-8.1185-5.89193-.0716-.05224c-.2575-.18858-.5805-.42514-.9586-.52214z" fill="#801ed7"/></svg>