<svg fill="none" height="24" viewBox="0 0 24 24" width="24" xmlns="http://www.w3.org/2000/svg"><g clip-rule="evenodd" fill="#801ed7" fill-rule="evenodd"><path d="m19.7071 4.29289c.3905.39053.3905 1.02369 0 1.41422l-13.99999 13.99999c-.39053.3905-1.02369.3905-1.41422 0-.39052-.3905-.39052-1.0237 0-1.4142l14.00001-14.00001c.3905-.39052 1.0237-.39052 1.4142 0z"/><path d="m4 7c0-1.65685 1.34315-3 3-3s3 1.34315 3 3-1.34315 3-3 3-3-1.34315-3-3z"/><path d="m14 17c0-1.6569 1.3431-3 3-3s3 1.3431 3 3-1.3431 3-3 3-3-1.3431-3-3z"/></g></svg>