<svg fill="none" height="24" viewBox="0 0 24 24" width="24" xmlns="http://www.w3.org/2000/svg"><g clip-rule="evenodd" fill="#801ed7" fill-rule="evenodd"><path d="m19.7071 4.29289c.3905.39053.3905 1.02369 0 1.41422l-13.99999 13.99999c-.39053.3905-1.02369.3905-1.41422 0-.39052-.3905-.39052-1.0237 0-1.4142l14.00001-14.00001c.3905-.39052 1.0237-.39052 1.4142 0z"/><path d="m4.5 6.5c0-1.10457.89543-2 2-2s2 .89543 2 2-.89543 2-2 2-2-.89543-2-2z"/><path d="m15.5 17.5c0-1.1046.8954-2 2-2s2 .8954 2 2-.8954 2-2 2-2-.8954-2-2z"/></g></svg>