<svg fill="none" height="24" viewBox="0 0 24 24" width="24" xmlns="http://www.w3.org/2000/svg"><path clip-rule="evenodd" d="m7.06881 1.87988 11.67489 2.59444c.4193.09314.7852.17444 1.0859.26484.3206.09636.6322.22093.924.43118.4415.31809.7882.75028 1.003 1.25029.1419.3305.1959.66163.2204.99551.023.3132.023.68807.023 1.11752v6.93284c0 .4295 0 .8044-.023 1.1176-.0245.3338-.0785.665-.2204.9955-.2148.5-.5615.9322-1.003 1.2503-.2918.2102-.6034.3348-.924.4311-.3007.0904-.6667.1718-1.086.2649l-11.67474 2.5944c-.62971.14-1.16525.259-1.60737.3172-.46007.0606-.93097.0733-1.39998-.0812-.68721-.2263-1.26947-.6934-1.6395-1.3152-.25253-.4243-.34237-.8867-.383-1.349-.03904-.4442-.03903-.9928-.03901-1.6378v-12.10837c-.00002-.64503-.00003-1.19365.03901-1.63785.04063-.46226.13047-.92469.383-1.34902.37003-.62174.95229-1.08882 1.6395-1.31516.46901-.15447.93991-.14185 1.39998-.08124.44211.05825.97763.17727 1.60732.31722zm1.93119 9.12012h-5v-5.01073c0-.70019.00091-1.16.03133-1.50607.0297-.33794.08054-.45289.10934-.50129.12335-.20725.31743-.36294.5465-.43839.0535-.01762.17674-.04231.51308.00201.34443.04538.79348.14424 1.477.29613l2.32275.51617zm2 2v6.1979l4-.8889v-5.309zm9-2h-3v-4.86439l1.2772.28383c.4613.1025.7548.16835.9767.23507.2099.06309.2888.1084.3306.13857.1472.10603.2628.25009.3344.41676.0203.04742.0474.13422.0635.35279.017.23116.0176.53192.0176 1.00442z" fill="#801ed7" fill-rule="evenodd"/></svg>