<svg fill="none" height="24" viewBox="0 0 24 24" width="24" xmlns="http://www.w3.org/2000/svg"><g fill="#801ed7"><path d="m16.7929 2.29289c-.3905.39053-.3905 1.02369 0 1.41422l1.7929 1.79289h-5.5858c-.5523 0-1 .44772-1 1s.4477 1 1 1h5.5858l-1.7929 1.79289c-.3905.39053-.3905 1.02371 0 1.41421s1.0237.3905 1.4142 0l3.5-3.49999c.3905-.39053.3905-1.02369 0-1.41422l-3.5-3.5c-.3905-.39052-1.0237-.39052-1.4142 0z"/><path d="m1.19373 8.97805c.94058 3.30925 2.7104 6.34015 5.14431 8.77415 2.43388 2.4338 5.46486 4.2038 8.77416 5.1443.519.1475.9214.2619 1.4733.2635.6308.0019 1.421-.2036 1.971-.5125.9594-.539 2.1615-1.6795 2.6562-2.6574.4306-.8514.4306-1.8568 0-2.7081-.4227-.8357-1.4011-1.7942-2.1838-2.3031-.9944-.6465-2.2762-.6465-3.2706 0-.2664.1732-.5129.4201-.7991.7068-.0131.0131-.0256.0264-.0376.0392-.0728.0776-.1319.1406-.2518.0831-1.3493-.6479-2.6149-1.5314-3.7356-2.652-1.12064-1.1207-2.00413-2.3863-2.65195-3.73559-.05691-.11851.01055-.18264.08794-.25622.01135-.01079.02291-.02178.03432-.03317.28666-.28617.53359-.53268.70683-.79913.64649-.99434.64649-2.27621 0-3.27055-.50892-.78274-1.46748-1.76115-2.30314-2.18382-.85134-.43061-1.85674-.43061-2.70808 0-.98533.49837-2.12609 1.71043-2.65737 2.6562-.30893.54994-.514439 1.34018-.512561 1.97095.001643.5519.116031.95437.263541 1.47338z"/></g></svg>