<svg fill="none" height="24" viewBox="0 0 24 24" width="24" xmlns="http://www.w3.org/2000/svg"><g clip-rule="evenodd" fill="#801ed7" fill-rule="evenodd"><path d="m21.7071 3.70711c.3905-.39053.3905-1.02369 0-1.41422-.3905-.39052-1.0237-.39052-1.4142 0l-2.2929 2.2929-2.2929-2.2929c-.3905-.39052-1.0237-.39052-1.4142 0-.3905.39053-.3905 1.02369 0 1.41422l2.2929 2.29289-2.2929 2.29289c-.3905.39053-.3905 1.02369 0 1.41422.3905.39049 1.0237.39049 1.4142 0l2.2929-2.2929 2.2929 2.2929c.3905.39049 1.0237.39049 1.4142 0 .3905-.39053.3905-1.02369 0-1.41422l-2.2929-2.29289z"/><path d="m6.33804 17.7522c-2.43391-2.434-4.20373-5.4649-5.14431-8.77415-.14751-.51901-.261898-.92148-.263541-1.47338-.001878-.63077.203631-1.42101.512561-1.97095.53128-.94577 1.67204-2.15783 2.65737-2.6562.85134-.43061 1.85674-.43061 2.70808 0 .83566.42267 1.79422 1.40108 2.30314 2.18382.64649.99434.64649 2.27621 0 3.27055-.17324.26645-.42017.51296-.70683.79913-.08926.08911-.18751.1535-.12226.28939.64782 1.34929 1.53131 2.61489 2.65195 3.73559 1.1207 1.1206 2.3863 2.0041 3.7356 2.652.1397.067.1969-.0297.2894-.1223.2862-.2867.5327-.5336.7991-.7068.9944-.6465 2.2762-.6465 3.2706 0 .7827.5089 1.7611 1.4674 2.1838 2.3031.4306.8513.4306 1.8567 0 2.7081-.4947.9779-1.6968 2.1184-2.6562 2.6574-.55.3089-1.3402.5144-1.971.5125-.5519-.0016-.9543-.116-1.4733-.2635-3.3093-.9405-6.34028-2.7105-8.77416-5.1443z"/></g></svg>