<svg fill="none" height="24" viewBox="0 0 24 24" width="24" xmlns="http://www.w3.org/2000/svg"><g fill="#801ed7"><path d="m21.7071 3.70711c.3905-.39053.3905-1.02369 0-1.41422-.3905-.39052-1.0237-.39052-1.4142 0l-18.00001 18.00001c-.39052.3905-.39052 1.0237 0 1.4142.39053.3905 1.02369.3905 1.41422 0l4.3085-4.3085c2.30909 2.102 5.08789 3.6428 8.09659 4.4979.5191.1475.9215.2619 1.4734.2636.6308.0018 1.421-.2037 1.971-.5126.9594-.5389 2.1615-1.6794 2.6562-2.6574.4306-.8513.4306-1.8567 0-2.7081-.4227-.8356-1.4011-1.7942-2.1839-2.3031-.9943-.6465-2.2762-.6465-3.2705 0-.2664.1732-.513.4202-.7991.7068-.0132.0132-.0256.0264-.0376.0392-.0728.0776-.132.1406-.2518.0831-1.0814-.5192-2.1089-1.1897-3.0513-2.0124z"/><path d="m10.0122 9.74516c-.26977-.43067-.51307-.87302-.72995-1.32475-.05691-.11851.01055-.18264.08794-.25622.01135-.01079.02291-.02178.03432-.03317.28666-.28617.53359-.53268.70679-.79913.6465-.99434.6465-2.27621 0-3.27055-.50888-.78274-1.46744-1.76115-2.3031-2.18382-.85134-.43061-1.85674-.43061-2.70808 0-.98533.49837-2.12609 1.71043-2.65737 2.6562-.30893.54994-.51444 1.34018-.51256 1.97095.00164.5519.11603.95437.26354 1.47338.65952 2.32035 1.72675 4.50395 3.14475 6.44085z"/></g></svg>