<svg fill="none" height="24" viewBox="0 0 24 24" width="24" xmlns="http://www.w3.org/2000/svg"><path clip-rule="evenodd" d="m16.0558 21.8804c-3.1932-.9064-6.20612-2.6167-8.71776-5.1284-2.51163-2.5116-4.22198-5.5245-5.12832-8.71776-.00537-.01893-.0107-.0377-.01599-.05631-.14751-.51902-.2619-.92149-.26354-1.47338-.00188-.63077.20363-1.42101.51256-1.97096.53128-.94577 1.67204-2.15782 2.65737-2.65619.85134-.43061 1.85674-.43061 2.70808 0 .84224.426 1.78023 1.37956 2.3031 2.18382.6465.99434.6465 2.27621 0 3.27054-.1732.26645-.42013.51297-.70679.79914-.08926.08911-.18751.1535-.12226.28939.64782 1.34928 1.53135 2.61491 2.65195 3.73551 1.1207 1.1207 2.3863 2.0042 3.7356 2.652.1407.0676.1961-.0288.2894-.1222.2862-.2867.5327-.5336.7991-.7069.9944-.6465 2.2762-.6465 3.2706 0 .7827.509 1.7611 1.4675 2.1838 2.3032.4306.8513.4306 1.8567 0 2.7081-.4984.9853-1.7104 2.126-2.6562 2.6573-.55.309-1.3402.5145-1.971.5126-.5519-.0017-.9543-.116-1.4733-.2635-.0187-.0053-.0374-.0107-.0564-.016z" fill="#801ed7" fill-rule="evenodd"/></svg>