<svg fill="none" height="24" viewBox="0 0 24 24" width="24" xmlns="http://www.w3.org/2000/svg"><g clip-rule="evenodd" fill="#801ed7" fill-rule="evenodd"><path d="m12 4c-2.51781 0-4.79269 1.03263-6.42728 2.70004-.38663.39439-1.01976.40068-1.41415.01406-.39438-.38662-.40068-1.01976-.01405-1.41414 1.99525-2.03532 4.77861-3.29996 7.85548-3.29996 3.077 0 5.8603 1.26464 7.8556 3.29996.3866.39438.3803 1.02752-.0141 1.41414s-1.0275.38033-1.4141-.01406c-1.6346-1.66741-3.9095-2.70004-6.4274-2.70004z"/><path d="m12 8c-1.4807 0-2.81009.6424-3.72706 1.66691-.36833.41149-1.00052.44659-1.41205.07822-.41152-.36832-.44654-1.00052-.07822-1.41204 1.28032-1.43049 3.14409-2.33309 5.21733-2.33309 2.0733 0 3.937.9026 5.2174 2.33309.3683.41152.3333 1.04372-.0783 1.41204-.4115.36837-1.0437.33327-1.412-.07822-.917-1.02451-2.2463-1.66691-3.7271-1.66691z"/><path d="m12 12c3.1172 0 7.0703.7294 9.5554 2.7931.6564.545 1.2207 1.506 1.3769 2.3447.1387.7447.1589 1.6924.011 2.4424-.2354 1.1942-1.169 2.1278-2.3631 2.3632-.5887.116-1.266.1013-1.8662.0421-1.4238-.1406-2.5501-1.267-2.6907-2.6907-.0147-.1486-.0146-.3126-.0145-.5034 0-.0421.012-.1015-.0308-.1166-1.2436-.4368-2.582-.6748-3.978-.6748-1.3961 0-2.73444.238-3.97803.6748-.04267.015-.0308.0735-.03078.1166.00007.1908.00014.3548-.01453.5034-.14059 1.4237-1.26695 2.5501-2.69069 2.6907-.59107.0583-1.28334.0728-1.86618-.0421-1.19418-.2354-2.12779-1.169-2.36318-2.3632-.14783-.75-.127705-1.6977.01102-2.4424.15624-.8387.72056-1.7997 1.37687-2.3447 2.48073-2.0601 6.44123-2.7931 9.5555-2.7931z"/></g></svg>