<svg fill="none" height="24" viewBox="0 0 24 24" width="24" xmlns="http://www.w3.org/2000/svg"><g clip-rule="evenodd" fill="#801ed7" fill-rule="evenodd"><path d="m13.0687 5.80847c.1057-.54206.6309-.89576 1.1729-.79 1.1721.22868 2.2493.80191 3.0937 1.64632.8444.84442 1.4177 1.9216 1.6463 3.09368.1058.54203-.2479 1.06723-.79 1.17303-.542.1057-1.0672-.248-1.1729-.79-.1525-.78143-.5347-1.49955-1.0976-2.06249s-1.2811-.9451-2.0624-1.09755c-.5421-.10576-.8958-.63092-.79-1.17299z"/><path d="m13.0563 1.88955c.0609-.5489.5554-.944449 1.1043-.88347 2.2547.25048 4.3573 1.26019 5.9625 2.86334 1.6051 1.60315 2.6175 3.70445 2.8708 5.95888.0617.5488-.3333 1.0437-.8821 1.1054s-1.0437-.3332-1.1054-.8821c-.2027-1.80352-1.0125-3.48456-2.2967-4.76707-1.2841-1.28252-2.9662-2.09029-4.77-2.29068-.5489-.06098-.9444-.55539-.8834-1.1043z"/><path d="m6.33804 17.7521c-2.43391-2.4339-4.20373-5.4649-5.14431-8.77409-.14751-.51901-.261898-.92148-.263541-1.47337-.001878-.63078.203631-1.42101.512561-1.97096.53128-.94577 1.67204-2.15782 2.65737-2.6562.85134-.4306 1.85674-.4306 2.70808 0 .83566.42267 1.79422 1.40108 2.30314 2.18383.64649.99433.64649 2.2762 0 3.27054-.17324.26645-.42017.51296-.70683.79914-.08926.08911-.18751.15349-.12226.28938.64782 1.34933 1.53131 2.61483 2.65195 3.73553 1.1207 1.1207 2.3863 2.0042 3.7356 2.652.1397.0671.1969-.0296.2894-.1223.2862-.2866.5327-.5335.7991-.7068.9944-.6465 2.2762-.6465 3.2706 0 .7827.5089 1.7611 1.4675 2.1838 2.3032.4306.8513.4306 1.8567 0 2.708-.4947.978-1.6968 2.1185-2.6562 2.6574-.55.3089-1.3402.5145-1.971.5126-.5519-.0017-.9543-.1161-1.4733-.2636-3.3093-.9405-6.34028-2.7104-8.77416-5.1443z"/></g></svg>