<svg fill="none" height="24" viewBox="0 0 24 24" width="24" xmlns="http://www.w3.org/2000/svg"><g clip-rule="evenodd" fill="#801ed7" fill-rule="evenodd"><path d="m9.14895 5.0397c.1803-.02068.5669-.06504.93685.09193.3043.12907.5709.37029.7297.6601.1207.22032.158.43225.1726.59069.012.13072.012.27699.0119.39369v.02388 4.60001c0 .56 0 .8401.109 1.054.0959.1881.2489.3411.437.437.2139.109.494.109 1.054.109h4.6.0239c.1167-.0001.263-.0002.3937.0119.1584.0146.3704.0519.5907.1726.2898.1588.531.4254.6601.7297.1569.37.1126.7566.0919.9369-.0021.0179-.0039.0338-.0053.0474-.1467 1.4626-.6501 2.8719-1.4718 4.1016-.9889 1.4801-2.3945 2.6336-4.039 3.3148-1.6446.6812-3.45418.8594-5.20001.5122-1.74583-.3473-3.34947-1.2045-4.60815-2.4631-1.25867-1.2587-2.11584-2.8624-2.4631-4.6082-.34727-1.7458-.16904-3.5554.51215-5.2.68119-1.64449 1.83474-3.0501 3.31478-4.03903 1.22977-.82171 2.63905-1.32507 4.10161-1.47182.01363-.00136.02953-.00319.04747-.00525z"/><path d="m14.851 1.03968c.018.00206.0339.00388.0475.00525 2.057.20633 3.9907 1.11638 5.4655 2.5911 1.4747 1.47472 2.3847 3.40849 2.5911 5.46546.0013.01364.0032.02954.0052.04748.0207.18031.065.5669-.0919.93693-.1291.3042-.3703.5708-.6601.7296-.2203.1207-.4323.1579-.5907.1726-.1307.012-.277.012-.3937.0119-.0081 0-.0161 0-.0239 0h-6.4c-.0076 0-.0153 0-.0231 0-.1191 0-.2614.0001-.3867-.0101-.1452-.0119-.3532-.0423-.5712-.1534-.2822-.1438-.5117-.3733-.6555-.6555-.1111-.21797-.1415-.42596-.1534-.57117-.0102-.12532-.0101-.26758-.0101-.3867 0-.00781 0-.01553 0-.02314v-6.4c0-.0078 0-.01577 0-.02388-.0001-.11671-.0001-.26297.0119-.3937.0147-.15843.0519-.37036.1726-.59068.1588-.28981.4254-.53103.7296-.6601.37-.156976.7566-.11263.9369-.09195z"/></g></svg>