<svg fill="none" height="24" viewBox="0 0 24 24" width="24" xmlns="http://www.w3.org/2000/svg"><g fill="#801ed7"><path d="m13.595 1.11485c4.7985.69697 8.5932 4.4917 9.2902 9.29025.0689.4744.1034.7116.0082.9568-.0765.1969-.2563.4048-.4402.5087-.229.1295-.5037.1295-1.0532.1295h-7.8c-.5601 0-.8401 0-1.054-.109-.1882-.0959-.3411-.2489-.437-.4371-.109-.2139-.109-.4939-.109-1.0539v-7.80004c0-.54948 0-.82422.1295-1.05325.1039-.18384.3118-.3637.5086-.44012.2453-.0952.4825-.06075.9569.00816z"/><path d="m10 3.10209c0-.63807 0-.9571-.16269-1.20628-.12908-.19766-.38777-.37717-.61811-.42892-.29035-.06522-.54966.03165-1.06827.22539-4.17682 1.56036-7.15093 5.58675-7.15093 10.30782 0 6.0751 4.92487 11 11 11 4.721 0 8.7474-2.9741 10.3078-7.1509.1937-.5187.2906-.778.2254-1.0683-.0518-.2304-.2313-.489-.429-.6181-.2491-.1627-.5682-.1627-1.2062-.1627h-7.3443c-.2382.0001-.5227.0002-.7733-.0203-.2905-.0237-.7065-.0846-1.1423-.3067-.5645-.2876-1.0235-.7466-1.3111-1.3111-.2221-.4359-.283-.8518-.3067-1.1423-.02049-.2506-.02038-.5351-.0203-.7734z"/></g></svg>