<svg fill="none" height="24" viewBox="0 0 24 24" width="24" xmlns="http://www.w3.org/2000/svg"><g fill="#801ed7"><path d="m7.62546 20.158c-.22208.5496-.33312.8245-.55793.9919-.17944.1337-.46299.2139-.68587.1941-.27922-.0248-.48684-.1779-.90209-.484-2.71699-2.0028-4.47957-5.2256-4.47957-8.86 0-.0285.00011-.057.00033-.0855.00393-.5165.00589-.7747.15334-1.013.11775-.1904.35165-.3691.56622-.4327.26868-.0796.5553-.0039 1.12854.1476l6.92218 1.8289c.30319.0801.45469.1201.54839.2104.0822.0793.1347.1843.149.2976.0162.1291-.0425.2744-.16.5651z"/><path d="m13.0962 2.80627c.0062-.59202.0093-.88803.1573-1.12581.118-.18974.3525-.36801.5669-.43107.2686-.07903.5175-.01283 1.0151.11957 4.701 1.25061 8.1645 5.53636 8.1645 10.63104 0 6.0752-4.9249 11-11 11-.4968 0-.986-.0329-1.4654-.0967-.5106-.068-.76586-.102-.98404-.2781-.17407-.1405-.32247-.3954-.35872-.6161-.04543-.2767.06553-.5513.28747-1.1006l3.44789-8.5339c.0492-.1217.0733-.2504.0728-.3787z"/><path d="m9.3875 1.31213c.50045-.1219.7507-.18285 1.0176-.09819.213.06756.4436.25066.5576.44285.1429.24082.1398.53689.1336 1.12904l-.072 6.88331c-.0037.35126-.0056.52686-.0797.64586-.0649.1043-.166.181-.2839.2155-.1345.0394-.3041-.0061-.6434-.097l-6.64945-1.7817c-.57218-.15332-.85827-.22998-1.05187-.4327-.15446-.16175-.26874-.43357-.27624-.65709-.00941-.28017.11702-.50458.36987-.95339 1.47356-2.61559 3.98618-4.56774 6.97789-5.29649z"/></g></svg>