<svg fill="none" height="24" viewBox="0 0 24 24" width="24" xmlns="http://www.w3.org/2000/svg"><g fill="#801ed7"><path d="m11 2.7955c0-.59212 0-.88818-.1454-1.12748-.1161-.19098-.3486-.37168-.5623-.437-.2678-.08184-.51741-.01825-1.01656.10893-4.75743 1.21214-8.27574 5.52522-8.27574 10.66005 0 6.0751 4.92487 11 11 11 1.4348 0 2.8055-.2747 4.0623-.7744.4783-.1902.7174-.2853.8861-.5089.1346-.1785.2165-.4614.1982-.6842-.023-.2791-.197-.5186-.545-.9976l-5.4039-7.4378c-.1242-.1667-.1977-.3733-.1977-.5971z"/><path d="m21.2045 13c.5921 0 .8881 0 1.1274.1454.191.1161.3717.3486.437.5623.0819.2678.0183.5173-.1088 1.0162-.4079 1.6011-1.167 3.0619-2.1905 4.2955-.3296.3973-.4944.5959-.7592.6872-.2115.0729-.5056.0635-.7119-.0229-.2584-.1081-.4327-.3479-.7812-.8276l-3.3318-4.5859c-.2978-.4099-.4467-.6148-.4413-.7859.0046-.149.0755-.2881.1933-.3794.1352-.1049.3886-.1049.8952-.1049z"/><path d="m13 2.7955c0-.59212 0-.88817.1454-1.12748.1161-.19098.3486-.37168.5623-.43699.2678-.08185.5174-.01826 1.0165.10891 3.8863.99016 6.9457 4.04957 7.9359 7.93583.1271.49913.1907.74873.1089 1.01653-.0654.2137-.246.4462-.437.5623-.2393.1454-.5354.1454-1.1275.1454h-7.4045c-.28 0-.42 0-.527-.0545-.0941-.0479-.1706-.1244-.2185-.2185-.0545-.107-.0545-.247-.0545-.527z"/></g></svg>