<svg fill="none" height="24" viewBox="0 0 24 24" width="24" xmlns="http://www.w3.org/2000/svg"><g fill="#801ed7"><path d="m11.5 9c1.933 0 3.5-1.567 3.5-3.5s-1.567-3.5-3.5-3.5-3.5 1.567-3.5 3.5 1.567 3.5 3.5 3.5z"/><path d="m6.97551 8.62801c-.23867-.34457-.35801-.51686-.48655-.57378-.11539-.05109-.23687-.05734-.35689-.01836-.13371.04343-.23886.16611-.44916.41147-.84389.98461-1.41947 2.20676-1.61206 3.55286h-.07085c-.55228 0-1-.4477-1-1 0-.3689.19922-.6924.50073-.8668.47806-.27659.64142-.88832.36488-1.36638-.27655-.47806-.88828-.64142-1.36634-.36488-.89409.5172-1.49927 1.48636-1.49927 2.59806 0 1.6568 1.34315 3 3 3h.07091c.21594 1.5082.91293 2.8621 1.92903 3.899l-.00001 2.3242c-.00004.1191-.0001.2613.01014.3867.01187.1452.04231.3532.15336.5711.14381.2823.37328.5117.65552.6555.21795.1111.42594.1415.57116.1534.12528.0102.26752.0102.38661.0101h1.94637c.11909.0001.26139.0001.38671-.0101.1452-.0119.3532-.0423.5711-.1534.2823-.1438.5117-.3732.6555-.6555.1111-.2179.1415-.4259.1534-.5711.0102-.1254.0102-.2676.0101-.3867v-.2232h1.0001l-.0001.2228c0 .1191-.0001.2614.0102.3867.0118.1452.0423.3532.1533.5712.1439.2822.3733.5117.6556.6555.2179.111.4259.1415.5711.1533.1253.0103.2675.0102.3866.0102h1.9465c.1191 0 .2614.0001.3867-.0102.1452-.0118.3532-.0423.5711-.1533.2822-.1438.5117-.3733.6555-.6555.1111-.218.1415-.426.1534-.5712.0102-.1253.0102-.2676.0101-.3867v-.897c1.1062-.5254 2.0517-1.3316 2.7452-2.3261h.478c.1191 0 .2613.0001.3867-.0102.1452-.0118.3532-.0423.5711-.1533.2823-.1438.5117-.3733.6555-.6555.1111-.218.1415-.426.1534-.5712.0102-.1253.0102-.2675.0101-.3866v-3.4595c.0001-.1134.0001-.2489-.0092-.3684-.0107-.1382-.0383-.3364-.1394-.5462-.1474-.3061-.3944-.5531-.7005-.7006-.2098-.101-.408-.1286-.5462-.1393-.0892-.007-.1873-.0087-.2785-.00912-.3357-.70674-.7858-1.34767-1.3262-1.8991v-1.06858c.0001-.15482.0001-.33008-.0133-.48082-.0148-.16644-.0536-.42377-.2116-.67882-.1971-.31799-.5058-.55089-.8657-.65299-.2886-.08188-.5467-.04844-.7108-.01698-.1487.02849-.3171.07669-.466.11927l-.1558.04452c-.205.05856-.3075.08785-.3796.14063-.0696.05096-.1122.10119-.151.17822-.0403.07977-.0541.20144-.0819.44478-.3126 2.74082-2.6398 4.86989-5.4643 4.86989-1.8755 0-3.53174-.9387-4.52449-2.37199z"/></g></svg>