<svg fill="none" height="24" viewBox="0 0 24 24" width="24" xmlns="http://www.w3.org/2000/svg"><path d="m11.5 2c-2.48528 0-4.5 2.01472-4.5 4.5 0 .2431.01937.48213.05672.7155-1.58481 1.08243-2.70197 2.7992-2.98592 4.7847h-.0708c-.55228 0-1-.4477-1-1 0-.3689.19922-.6924.50073-.8668.47806-.27659.64142-.88832.36488-1.36638-.27655-.47806-.88828-.64142-1.36634-.36488-.89409.5172-1.49927 1.48636-1.49927 2.59806 0 1.6568 1.34315 3 3 3h.07094c.21598 1.5081.91295 2.8619 1.929 3.8988l-.00001 2.3241c-.00004.1192-.0001.2614.01014.3867.01187.1452.04231.3532.15336.5712.14381.2822.37328.5117.65552.6555.21795.1111.42594.1415.57116.1534.12531.0102.26757.0102.38668.0101h1.9463c.11911.0001.26137.0001.38671-.0101.1452-.0119.3532-.0423.5711-.1534.2823-.1438.5117-.3733.6555-.6555.1111-.218.1415-.426.1534-.5712.0102-.1253.0102-.2675.0101-.3867v-.2231h1.0001l-.0001.223c0 .1191-.0001.2614.0102.3867.0118.1452.0423.3532.1533.5712.1439.2822.3733.5117.6556.6555.2179.111.4259.1415.5711.1533.1253.0103.2676.0102.3867.0102h1.9465c.1191 0 .2613.0001.3866-.0102.1452-.0118.3532-.0423.5711-.1533.2822-.1438.5117-.3733.6555-.6555.1111-.218.1415-.426.1534-.5712.0102-.1253.0102-.2676.0101-.3867v-.897c1.1062-.5254 2.0517-1.3316 2.7452-2.3261h.478c.1191 0 .2613.0001.3867-.0102.1452-.0118.3532-.0423.5711-.1533.2823-.1438.5117-.3733.6555-.6555.1111-.218.1415-.426.1534-.5712.0102-.1253.0102-.2676.0101-.3867v-3.4594c.0001-.1134.0001-.2489-.0092-.3684-.0107-.1382-.0383-.3364-.1394-.5462-.1474-.3061-.3944-.5531-.7005-.7006-.2098-.101-.408-.1286-.5462-.1393-.0892-.007-.1873-.0087-.2785-.00912-.3357-.70674-.7858-1.34767-1.3262-1.8991v-1.06858c.0001-.15482.0001-.33008-.0133-.48082-.0148-.16644-.0536-.42377-.2116-.67882-.1971-.31799-.5058-.55089-.8657-.65299-.2886-.08188-.5467-.04844-.7108-.01698-.1487.02849-.3171.07669-.466.11927l-1.782.50913c-.3231-2.16805-2.1926-3.83109-4.4506-3.83109z" fill="#801ed7"/></svg>