<svg fill="none" height="24" viewBox="0 0 24 24" width="24" xmlns="http://www.w3.org/2000/svg"><path clip-rule="evenodd" d="m16.3838 2.41026c-.2557-.25576-.4933-.49338-.7055-.67029-.2221-.1851-.5201-.39521-.91-.47426-.5166-.10472-1.0536-.0013-1.4943.28777-.3327.21823-.5313.52397-.6687.7783-.1314.24306-.2637.55193-.4062.88436l-1.0846 2.53078c-.0243.05682-.0363.08451-.0454.10451l-.0006.00136-.001.00108c-.0152.01589-.0365.03725-.0802.08096l-1.56089 1.56089c-.06829.06829-.10203.10184-.12735.12547l-.00181.00167-.00239.00057c-.03371.00797-.08033.01743-.17504.03637l-3.70686.74138c-.43969.0879-.83508.16695-1.14544.25915-.3106.09227-.71182.24401-1.01526.58599-.38813.43742-.56537 1.02278-.48506 1.60208.06278.4528.31245.8016.5197 1.0507.20709.2489.49221.534.80929.851l2.8663 2.8663-4.94975 4.9498c-.39052.3905-.39052 1.0236 0 1.4142.39053.3905 1.02369.3905 1.41422 0l4.94975-4.9498 2.86639 2.8664c.317.3171.6021.6022.851.8093.2491.2073.5979.4569 1.0507.5197.5793.0803 1.1647-.0969 1.6021-.4851.342-.3034.4937-.7046.586-1.0152.0922-.3104.1712-.7058.2591-1.1455l.7414-3.7068c.0189-.0947.0284-.1413.0364-.1751l.0005-.0024.0017-.0018c.0236-.0253.0572-.059.1255-.1273l1.5609-1.5609c.0437-.0437.065-.065.0809-.0802l.0011-.001.0014-.0006c.02-.0091.0477-.0211.1045-.0454l2.5308-1.0846c.3324-.1425.6413-.2748.8843-.4062.2544-.1374.5601-.336.7783-.6687.2891-.4407.3925-.97773.2878-1.49427-.0791-.38997-.2892-.68794-.4743-.90999-.1769-.21222-.4145-.4498-.6703-.70551z" fill="#801ed7" fill-rule="evenodd"/></svg>