<svg fill="none" height="24" viewBox="0 0 24 24" width="24" xmlns="http://www.w3.org/2000/svg"><path clip-rule="evenodd" d="m8.32363 1c-.36165-.000031-.69768-.000061-.97283.02491-.2879.02613-.64716.08825-.97881.3081-.4393.29121-.74589.74406-.85312 1.26009-.08096.38958-.00521.74622.07745 1.02322.07901.26475.20383.57674.33818.91252l1.02259 2.55646c.01374.03435.03531.07231.04236.10889.0005.02198.00055.05213.00055.11395v2.13062c0 .06989.00099.13995-.00189.2098l-.00173.00236c-.02384.03235-.0582.07558-.12785.16265l-1.59754 1.99693c-.30906.3863-.58274.7283-.77456 1.0185-.18732.2833-.41528.6843-.4158 1.1688-.00066.6091.27627 1.1853.7523 1.5653.37867.3023.83422.3748 1.17249.4055.34637.0315.78442.0314 1.2791.0314h3.71548v6c0 .5523.4477 1 1 1s1-.4477 1-1v-6h3.7155c.4946 0 .9327.0001 1.2791-.0314.3383-.0307.7938-.1032 1.1725-.4055.476-.38.7529-.9562.7523-1.5653-.0005-.4845-.2285-.8855-.4158-1.1688-.1918-.2902-.4655-.6322-.7746-1.0185l-1.5975-1.99693c-.0437-.05457-.0882-.10867-.1296-.16501l-.0001-.00292c-.0016-.04015-.0018-.09537-.0018-.20688v-2.13062c0-.06182.0001-.09198.0006-.11395v-.00149c.0134-.03605.028-.07168.0423-.1074l1.0226-2.55647c.1344-.33578.2592-.64776.3382-.91251.0826-.277.1584-.63364.0774-1.02322-.1072-.51603-.4138-.96888-.8531-1.26009-.3316-.21985-.6909-.28197-.9788-.3081-.2751-.024971-.6112-.024941-.9728-.02491z" fill="#801ed7" fill-rule="evenodd"/></svg>