<svg fill="none" height="24" viewBox="0 0 24 24" width="24" xmlns="http://www.w3.org/2000/svg"><path clip-rule="evenodd" d="m17.0263 2.1174c1.3533-1.39781 3.5894-1.415892 4.9651-.04015 1.3381 1.33805 1.363 3.49965.0561 4.86818l-2.9975 3.14507 1.8115 7.8678c.057.2431.1287.5489.1046.8611-.0208.27-.0962.533-.2217.773-.368.704-1.1559 1.3475-1.7521 1.8438-.2327.1937-.55.4181-.9643.4914-.5417.0958-1.099-.0357-1.5407-.3637-.3378-.2508-.5212-.5935-.6427-.8708-.118-.2692-.232-.6115-.3563-.9844l-1.5111-4.5333-2.2012 2.2012c-.1068.1068-.1604.1608-.1975.2019l-.0029.0032c.0055.0954.0178.1905.0283.2854.0634.5707.1252 1.1416.1904 1.7121.0248.2172.056.4906.0125.7637-.0378.2366-.1177.4645-.2361.6729-.1366.2405-.3317.4344-.4868.5885-.3037.3019-.6074.6196-.8687.8389-.1991.1671-.45836.3505-.79805.439-.46109.1202-.94993.0718-1.37851-.1365-.31573-.1534-.53402-.3841-.69646-.587-.7924-.9896-1.40629-2.1268-2.13483-3.1633-1.03633-.7287-2.17365-1.3424-3.16327-2.1348-.20287-.1624-.43359-.3807-.58701-.6964-.20826-.4286-.25667-.9175-.1365-1.3785.08852-.3397.27196-.599.43902-.7981.21927-.2613.53702-.565.83885-.8687.15411-.155.3481-.3502.5886-.4868.20832-.1184.43621-.1983.67282-.236.27313-.0436.54653-.0124.76373.0124.57051.0652 1.14142.127 1.71213.1904.15017.0167.22583.0248.28102.028l.00435.0003c.07108-.0638.13764-.1329.20515-.2004l2.2012-2.2012-4.53333-1.5111c-.37296-.12428-.7152-.23833-.98445-.35632-.2773-.12153-.61993-.3049-.87077-.6427-.32796-.44168-.45952-.99895-.3637-1.54067.07328-.41431.29773-.73156.49141-.96426.49463-.59429 1.14294-1.38576 1.84377-1.75217.24002-.12549.50303-.20092.77307-.22171.31215-.02404.61797.04765.86108.10464l7.83748 1.8048z" fill="#801ed7" fill-rule="evenodd"/></svg>