<svg fill="none" height="24" viewBox="0 0 24 24" width="24" xmlns="http://www.w3.org/2000/svg"><path clip-rule="evenodd" d="m17.8385 2h-11.67704c-.52713-.00002-.98192-.00003-1.35649.03057-.39534.0323-.78856.10362-1.16694.29641-.56449.28762-1.02343.74656-1.31105 1.31105-.19279.37838-.26411.7716-.29641 1.16694-.0306.37457-.03059.82932-.03057 1.35645v11.67708c-.00002.5272-.00003.982.03057 1.3565.0323.3954.10362.7886.29641 1.167.28762.5645.74656 1.0234 1.31105 1.311.37838.1928.7716.2641 1.16694.2964.37457.0306.82933.0306 1.35647.0306h11.67716c.5271 0 .9819 0 1.3564-.0306.3954-.0323.7886-.1036 1.167-.2964.5645-.2876 1.0234-.7465 1.311-1.311.1928-.3784.2641-.7716.2964-1.167.0306-.3745.0306-.8293.0306-1.3564v-11.67716c0-.52714 0-.9819-.0306-1.35647-.0323-.39534-.1036-.78856-.2964-1.16694-.2876-.56449-.7465-1.02343-1.311-1.31105-.3784-.19279-.7716-.26411-1.167-.29641-.3745-.0306-.8293-.03059-1.3565-.03057zm-8.23876 6.11608c-.09974.13323-.09974.37187-.09974.84916v6.06936c0 .4773 0 .7159.09974.8491.08692.1161.21997.1888.36464.1991.16602.0119.36672-.1172.76822-.3753l4.7206-3.0347c.3484-.2239.5226-.3359.5827-.4783.0526-.1244.0526-.2648 0-.3892-.0601-.1424-.2343-.2544-.5827-.4783l-4.7206-3.0347c-.4015-.2581-.6022-.38715-.76822-.37529-.14467.01033-.27772.08297-.36464.19907z" fill="#801ed7" fill-rule="evenodd"/></svg>