<svg fill="none" height="24" viewBox="0 0 24 24" width="24" xmlns="http://www.w3.org/2000/svg"><path clip-rule="evenodd" d="m8.00625 2.80243c.01195.00797.02394.01596.03597.02399l10.54878 7.03248c.3052.2034.5882.3921.8055.5674.2269.1829.4943.4366.6482.8077.2034.4905.2034 1.0418 0 1.5323-.1539.3711-.4213.6247-.6482.8077-.2173.1753-.5003.3639-.8055.5673l-10.58472 7.0565c-.37309.2487-.70856.4724-.99323.6267-.28487.1544-.67588.3308-1.13225.3035-.58375-.0348-1.12301-.3234-1.47582-.7898-.27582-.3646-.34593-.7878-.37549-1.1104-.02955-.3225-.02952-.7257-.02949-1.1741v-14.06395c0-.01446 0-.02888 0-.04325-.00003-.44839-.00006-.85159.02949-1.17401.02956-.32266.09967-.74586.37549-1.11047.35281-.46637.89207-.75497 1.47582-.78983.45637-.02725.84738.14916 1.13225.30354.28466.15427.62012.37795.9932.6267z" fill="#801ed7" fill-rule="evenodd"/></svg>