<svg fill="none" height="24" viewBox="0 0 24 24" width="24" xmlns="http://www.w3.org/2000/svg"><path clip-rule="evenodd" d="m12 1c-6.07513 0-11 4.92487-11 11 0 6.0751 4.92487 11 11 11 6.0751 0 11-4.9249 11-11 0-6.07513-4.9249-11-11-11zm-2.40026 7.11608c-.09974.13323-.09974.37187-.09974.84916v6.06936c0 .4773 0 .7159.09974.8491.08692.1161.21997.1888.36464.1991.16602.0119.36672-.1172.76822-.3753l4.7206-3.0347c.3484-.2239.5226-.3359.5827-.4783.0526-.1244.0526-.2648 0-.3892-.0601-.1424-.2343-.2544-.5827-.4783l-4.7206-3.0347c-.4015-.2581-.6022-.38715-.76822-.37529-.14467.01033-.27772.08297-.36464.19907z" fill="#801ed7" fill-rule="evenodd"/></svg>