<svg fill="none" height="24" viewBox="0 0 24 24" width="24" xmlns="http://www.w3.org/2000/svg"><g clip-rule="evenodd" fill="#801ed7" fill-rule="evenodd"><path d="m9 18c0-1.6569 1.3431-3 3-3s3 1.3431 3 3v2c0 1.6569-1.3431 3-3 3s-3-1.3431-3-3z"/><path d="m2 10.785c0-5.42665 4.50023-9.785 10-9.785 5.4998 0 10 4.35835 10 9.785 0 3.3469-1.7212 6.2851-4.3209 8.0433-.4575.3094-1.0792.1894-1.3886-.2681s-.1893-1.0791.2681-1.3885c2.0872-1.4116 3.4414-3.7478 3.4414-6.3867 0-4.27676-3.5589-7.785-8-7.785-4.44107 0-8 3.50824-8 7.785 0 2.6389 1.3542 4.9751 3.44135 6.3867.45748.3094.57752.931.26812 1.3885-.30941.4575-.93109.5775-1.38857.2681-2.59968-1.7582-4.3209-4.6964-4.3209-8.0433z"/><path d="m12 7c-2.25775 0-4 1.727-4 3.7505 0 .9746.40019 1.8686 1.07055 2.5462.38843.3926.38503 1.0258-.00758 1.4142s-1.02576.385-1.41419-.0076c-1.01147-1.0224-1.64878-2.4111-1.64878-3.9528 0-3.22329 2.73536-5.7505 6-5.7505 3.2646 0 6 2.52721 6 5.7505 0 1.5426-.6374 2.9305-1.6488 3.9528-.3884.3926-1.0216.396-1.4142.0076s-.396-1.0216-.0076-1.4142c.6705-.6777 1.0706-1.5708 1.0706-2.5462 0-2.0235-1.7422-3.7505-4-3.7505z"/><path d="m10 11c0-1.10457.8954-2 2-2s2 .89543 2 2c0 1.1046-.8954 2-2 2s-2-.8954-2-2z"/></g></svg>