<svg fill="none" height="24" viewBox="0 0 24 24" width="24" xmlns="http://www.w3.org/2000/svg"><path clip-rule="evenodd" d="m12 1c-6.07513 0-11 4.92487-11 11 0 6.0751 4.92487 11 11 11 6.0751 0 11-4.9249 11-11 0-6.07513-4.9249-11-11-11zm1 6c0-.55228-.4477-1-1-1s-1 .44772-1 1v5c0 .5523.4477 1 1 1s1-.4477 1-1zm-4.20051 2.60019c.33175-.44155.24273-1.06843-.19882-1.40017-.44154-.33174-1.06842-.24273-1.40016.19882-.75357 1.00298-1.20051 2.25136-1.20051 3.60116 0 3.3137 2.68629 6 6 6 3.3137 0 6-2.6863 6-6 0-1.3498-.4469-2.59818-1.2005-3.60116-.3318-.44155-.9586-.53056-1.4002-.19882-.4415.33174-.5305.95862-.1988 1.40017.5023.66851.7995 1.49801.7995 2.39981 0 2.2091-1.7909 4-4 4-2.20914 0-4-1.7909-4-4 0-.9018.29723-1.7313.79949-2.39981z" fill="#801ed7" fill-rule="evenodd"/></svg>