<svg fill="none" height="24" viewBox="0 0 24 24" width="24" xmlns="http://www.w3.org/2000/svg"><g clip-rule="evenodd" fill="#801ed7" fill-rule="evenodd"><path d="m12.0001 1c.5523 0 1 .44772 1 1v10c0 .5523-.4477 1-1 1s-1-.4477-1-1v-10c0-.55228.4477-1 1-1z"/><path d="m6.33711 5.93278c.39059.39046.39069 1.02362.00023 1.41421-1.11855 1.11893-1.88022 2.54439-2.18869 4.09621-.30847 1.5517-.14989 3.1601.45569 4.6218.60557 1.4616 1.63095 2.7109 2.94649 3.5899 1.31554.8789 2.86217 1.348 4.44427 1.348 1.5822 0 3.1288-.4691 4.4443-1.348 1.3155-.879 2.3409-2.1283 2.9465-3.5899.6056-1.4617.7642-3.0701.4557-4.6218-.3085-1.55182-1.0701-2.97728-2.1887-4.09621-.3905-.39059-.3904-1.02375.0002-1.41421s1.0238-.39036 1.4142.00023c1.3982 1.39865 2.3503 3.18049 2.7359 5.12019s.1874 3.9502-.5696 5.7773-2.0387 3.3887-3.6831 4.4873c-1.6444 1.0987-3.5777 1.6851-5.5554 1.6851s-3.91092-.5864-5.55534-1.6851c-1.64442-1.0986-2.92615-2.6602-3.68312-4.4873s-.9552-3.8376-.56961-5.7773 1.33767-3.72154 2.73587-5.12019c.39046-.39059 1.02363-.39069 1.41421-.00023z"/></g></svg>