<svg fill="none" height="24" viewBox="0 0 24 24" width="24" xmlns="http://www.w3.org/2000/svg"><path clip-rule="evenodd" d="m1 3c0-.55228.44772-1 1-1h20c.5523 0 1 .44772 1 1s-.4477 1-1 1v7.2413c0 .805 0 1.4693-.0442 2.0105-.0459.5621-.1445 1.0788-.3918 1.5642-.3835.7526-.9954 1.3645-1.748 1.748-.4854.2473-1.0021.3459-1.5642.3918-.5412.0442-1.2055.0442-2.0105.0442h-1.4792l3.8781 3.2318c.4243.3535.4816.9841.128 1.4084-.3535.4243-.9841.4816-1.4084.128l-4.3598-3.6332v2.865c0 .5523-.4477 1-1 1s-1-.4477-1-1v-2.8649l-4.35979 3.6331c-.42428.3536-1.05484.2963-1.40841-.128-.35356-.4243-.29624-1.0549.12804-1.4084l3.87814-3.2318h-1.47925c-.80499 0-1.46935 0-2.01055-.0442-.5621-.0459-1.07881-.1445-1.56414-.3918-.75265-.3835-1.36457-.9954-1.74806-1.748-.2473-.4854-.34586-1.0021-.39179-1.5642-.04421-.5412-.0442-1.2055-.04419-2.0105v-7.2413c-.55228 0-1-.44772-1-1zm11 3c.5523 0 1 .44772 1 1v5c0 .5523-.4477 1-1 1s-1-.4477-1-1v-5c0-.55228.4477-1 1-1zm-4 2c.55228 0 1 .44772 1 1v3c0 .5523-.44772 1-1 1s-1-.4477-1-1v-3c0-.55228.44772-1 1-1zm9 3c0-.5523-.4477-1-1-1s-1 .4477-1 1v1c0 .5523.4477 1 1 1s1-.4477 1-1z" fill="#801ed7" fill-rule="evenodd"/></svg>