<svg fill="none" height="24" viewBox="0 0 24 24" width="24" xmlns="http://www.w3.org/2000/svg"><path clip-rule="evenodd" d="m9.16146 1h5.67704c.5272-.000016.982-.000031 1.3565.03057.3954.0323.7886.10362 1.167.29641.5645.28762 1.0234.74656 1.311 1.31105.1928.37838.2641.7716.2964 1.16694.0306.37455.0306.82927.0306 1.35637v.86579c.0868.0048.1707.01043.2519.01707.5621.04592 1.0788.14449 1.5642.39178.7526.38349 1.3645.99541 1.748 1.74806.2473.48534.3459 1.00204.3918 1.56414.0442.54122.0442 1.20552.0442 2.01052v2.3789c.0005.7954.0008 1.386-.1363 1.8977-.3699 1.3803-1.4481 2.4585-2.8284 2.8284-.3075.0824-.6436.1152-1.0354.1281-.0003.4625-.003.8655-.0306 1.2032-.0323.3954-.1036.7886-.2964 1.167-.2876.5645-.7465 1.0234-1.311 1.311-.3784.1928-.7716.2641-1.167.2964-.3745.0306-.8292.0306-1.3563.0306h-5.67726c-.52708 0-.98193 0-1.35647-.0306-.39534-.0323-.78856-.1036-1.16694-.2964-.56449-.2876-1.02343-.7465-1.31105-1.311-.19279-.3784-.26411-.7716-.29641-1.167-.0276-.3377-.03029-.7407-.03055-1.2032-.39178-.013-.72775-.0457-1.0352-.1281-1.38037-.3699-2.45856-1.4481-2.82843-2.8284-.137093-.5117-.136773-1.1023-.13634-1.8977l.00005-2.3789c-.00002-.805-.00003-1.4693.04419-2.01052.04593-.5621.14449-1.0788.39178-1.56414.38349-.75265.99542-1.36457 1.74806-1.74806.48534-.24729 1.00204-.34586 1.56414-.39178.08112-.00663.16501-.01227.25173-.01706v-.86568c-.00002-.52715-.00003-.98192.03057-1.35649.0323-.39534.10362-.78856.29641-1.16694.28762-.56449.74656-1.02343 1.31105-1.31105.37838-.19279.7716-.26411 1.16694-.29641.37457-.030601.82936-.030586 1.35649-.03057zm-2.16146 5h10v-.8c0-.57655-.0008-.94882-.0239-1.23216-.0222-.27166-.0599-.37238-.0851-.42183-.0959-.18816-.2488-.34114-.437-.43701-.0495-.0252-.1502-.06287-.4218-.08507-.2834-.02315-.6556-.02393-1.2322-.02393h-5.6c-.57655 0-.94883.00078-1.23216.02393-.27167.0222-.37238.05987-.42183.08507-.18816.09587-.34114.24885-.43701.43701-.0252.04945-.06288.15017-.08507.42183-.02315.28334-.02393.65561-.02393 1.23216zm0 12.8c0 .5766.00078.9488.02393 1.2322.02219.2716.05987.3723.08507.4218.09587.1882.24885.3411.43701.437.04945.0252.15016.0629.42183.0851.28333.0231.65561.0239 1.23216.0239h5.6c.5766 0 .9488-.0008 1.2322-.0239.2716-.0222.3723-.0599.4218-.0851.1882-.0959.3411-.2488.437-.437.0252-.0495.0629-.1502.0851-.4218.0231-.2834.0239-.6556.0239-1.2322v-1.6c0-.5766-.0008-.9488-.0239-1.2322-.0222-.2716-.0599-.3723-.0851-.4218-.0959-.1881-.2488-.3411-.437-.437-.0495-.0252-.1502-.0629-.4218-.0851-.0355-.0029-.0723-.0054-.1107-.0076-.2689-.0157-.617-.0163-1.1214-.0163h-5.6c-.00003 0 .00003 0 0 0-.57627 0-.94855.0008-1.23183.0239-.00012 0 .00011 0 0 0-.27167.0222-.37272.0599-.42216.0851-.18817.0959-.34115.2488-.43702.437-.02519.0495-.06287.1502-.08507.4218-.02315.2834-.02392.6556-.02392 1.2322zm7-8.3c0-.55228.4477-1 1-1h3c.5523 0 1 .44772 1 1 0 .5523-.4477 1-1 1h-3c-.5523 0-1-.4477-1-1z" fill="#801ed7" fill-rule="evenodd"/></svg>