<svg fill="none" height="24" viewBox="0 0 24 24" width="24" xmlns="http://www.w3.org/2000/svg"><path clip-rule="evenodd" d="m6.5 4.5c0-1.933 1.567-3.5 3.5-3.5s3.5 1.567 3.5 3.5v.5h.0343c.6698-.00001 1.2226-.00002 1.6752.03086.4693.03202.9034.10056 1.3212.27362.9801.40598 1.7588 1.18467 2.1648 2.16479.1731.41781.2416.85191.2736 1.32119.0146.2136.0223.44953.0264.70954h.5045c1.933 0 3.5 1.567 3.5 3.5s-1.567 3.5-3.5 3.5h-.5v.7413c0 .805 0 1.4693-.0442 2.0105-.0459.5621-.1445 1.0788-.3918 1.5642-.3835.7526-.9954 1.3645-1.748 1.748-.4854.2473-1.0021.3459-1.5642.3918-.5412.0442-1.2055.0442-2.0105.0442h-.7413c-.5523 0-1-.4477-1-1v-1.75c0-.6904-.5596-1.25-1.25-1.25-.69036 0-1.25.5596-1.25 1.25v1.75c0 .5523-.44771 1-1 1h-1.24132c-.80496 0-1.46932 0-2.01051-.0442-.56209-.0459-1.0788-.1445-1.56413-.3918-.75265-.3835-1.36457-.9954-1.74807-1.748-.24729-.4854-.34585-1.0021-.39178-1.5642-.044213-.5412-.044202-1.2055-.04419-2.0105v-1.7413c0-.5523.44772-1 1-1h1.5c.82843 0 1.5-.6716 1.5-1.5s-.67157-1.5-1.5-1.5h-1.5c-.55228 0-1-.4477-1-1v-.0343c-.000008-.66976-.000016-1.22263.03087-1.67524.03201-.46928.10055-.90338.27361-1.32119.40598-.98012 1.18467-1.75881 2.16479-2.16479.41781-.17306.85191-.2416 1.32119-.27362.45261-.03088 1.00548-.03087 1.67527-.03086h.03427z" fill="#801ed7" fill-rule="evenodd"/></svg>