<svg fill="none" height="24" viewBox="0 0 24 24" width="24" xmlns="http://www.w3.org/2000/svg"><path clip-rule="evenodd" d="m11.2929 1.29289c.3905-.390521 1.0237-.390521 1.4142 0l2.6196 2.61956c.6323-.98424 1.4418-1.60543 2.363-1.83947 1.2666-.32178 2.4819.15942 3.2799.95741s1.2792 2.01335.9574 3.2799c-.234.92126-.8552 1.73072-1.8394 2.36305l2.6195 2.61956c.3905.3905.3905 1.0237 0 1.4142l-3.6 3.6c-.2398.2398-.5847.3417-.9163.2708-.3315-.0709-.6046-.305-.7253-.6219-.5272-1.384-1.1977-1.8303-1.6477-1.9446-.4678-.1189-.9837.0437-1.3732.4332s-.5521.9054-.4332 1.3732c.1143.45.5606 1.1205 1.9446 1.6477.3169.1207.551.3938.6219.7253.0709.3316-.031.6765-.2708.9163l-3.6 3.6c-.3905.3905-1.0237.3905-1.4142 0l-2.61956-2.6195c-.63233.9842-1.44179 1.6054-2.36305 1.8394-1.26655.3218-2.48191-.1594-3.2799-.9574s-1.27919-2.0133-.95741-3.2799c.23404-.9212.85523-1.7307 1.83947-2.363l-2.61956-2.6196c-.390521-.3905-.390521-1.0237 0-1.4142l3.6-3.60001c.23976-.23976.58469-.34169.91626-.27077.33158.07092.60463.30502.72534.62188.52725 1.38405 1.19768 1.83028 1.64768 1.9446.46782.1189.98371-.0437 1.37322-.43321s.55211-.9054.43321-1.37322c-.11432-.45-.56055-1.12043-1.9446-1.64768-.31686-.12071-.55096-.39376-.62188-.72534-.07092-.33157.03101-.6765.27077-.91626z" fill="#801ed7" fill-rule="evenodd"/></svg>