<svg fill="none" height="24" viewBox="0 0 24 24" width="24" xmlns="http://www.w3.org/2000/svg"><g fill="#801ed7"><path clip-rule="evenodd" d="m15.5681 2c-.2524-.00003-.4982-.00006-.7063.01695-.2286.01868-.4984.06274-.7698.20104-.3763.19175-.6823.49771-.874.87403-.1383.27143-.1824.54116-.201.76976-.0171.20813-.017.45389-.017.70625v3.86387c0 .25236-.0001.4982.017.70634.0186.22859.0627.49832.201.76975.1917.37631.4977.68231.874.87401.2714.1383.5412.1824.7698.2011.2081.017.4539.0169.7063.0169h3.8638c.2524 0 .4982.0001.7063-.0169.2286-.0187.4984-.0628.7698-.2011.3763-.1917.6823-.4977.874-.87401.1383-.27143.1824-.54116.2011-.76975.017-.20812.0169-.45385.0169-.70618v-3.86393c0-.25233.0001-.49824-.0169-.70635-.0187-.2286-.0628-.49833-.2011-.76976-.1917-.37632-.4977-.68228-.874-.87403-.2714-.1383-.5412-.18236-.7698-.20104-.2081-.01701-.4539-.01698-.7063-.01695zm.9319 4.5c0-.55228.4477-1 1-1h.01c.5523 0 1 .44772 1 1s-.4477 1-1 1h-.01c-.5523 0-1-.44772-1-1z" fill-rule="evenodd"/><path d="m13 12c-.5523 0-1 .4477-1 1s.4477 1 1 1h.01c.5523 0 1-.4477 1-1s-.4477-1-1-1z"/><path d="m17.5 16.5c-.5523 0-1 .4477-1 1s.4477 1 1 1h.01c.5523 0 1-.4477 1-1s-.4477-1-1-1z"/><path d="m14 15.5c.5523 0 1 .4477 1 1v4.5c0 .5523-.4477 1-1 1s-1-.4477-1-1v-4.5c0-.5523.4477-1 1-1z"/><path d="m16.5 13c-.5523 0-1 .4477-1 1s.4477 1 1 1h4.5c.5523 0 1-.4477 1-1s-.4477-1-1-1z"/><path d="m21 16c.5523 0 1 .4477 1 1v4c0 .5523-.4477 1-1 1h-4c-.5523 0-1-.4477-1-1s.4477-1 1-1h3v-3c0-.5523.4477-1 1-1z"/><g clip-rule="evenodd" fill-rule="evenodd"><path d="m4.56811 2h3.86379c.25238-.00003.49818-.00006.70634.01695.22859.01868.49832.06274.76975.20104.37631.19175.68231.49771.87401.87403.1383.27143.1824.54116.2011.76976.017.20816.0169.45396.0169.70635v3.86376c0 .25238.0001.49818-.0169.70635-.0187.22859-.0628.49832-.2011.76975-.1917.37631-.4977.68231-.87401.87401-.27143.1383-.54116.1824-.76975.2011-.20817.017-.45397.0169-.70635.0169h-3.86377c-.25238 0-.49818.0001-.70634-.0169-.2286-.0187-.49833-.0628-.76976-.2011-.37632-.1917-.68228-.4977-.87403-.87401-.1383-.27143-.18236-.54116-.20104-.76975-.01701-.20816-.01698-.45395-.01695-.70632v-3.86381c-.00003-.25238-.00006-.49818.01695-.70633.01868-.2286.06274-.49833.20104-.76976.19175-.37632.49771-.68228.87403-.87403.27143-.1383.54116-.18236.76976-.20104.20815-.01701.45395-.01698.70633-.01695zm.93189 4.5c0-.55228.44772-1 1-1h.01c.55228 0 1 .44772 1 1s-.44772 1-1 1h-.01c-.55228 0-1-.44772-1-1z"/><path d="m4.56811 13c-.25236 0-.4982-.0001-.70633.017-.2286.0186-.49833.0627-.76976.201-.37632.1917-.68228.4977-.87403.874-.1383.2714-.18236.5412-.20104.7698-.01701.2081-.01698.4539-.01695.7063v3.8638c-.00003.2524-.00006.4982.01695.7063.01868.2286.06274.4984.20104.7698.19175.3763.49771.6823.87403.874.27143.1383.54116.1824.76976.2011.20813.017.45389.0169.70624.0169h3.86387c.25235 0 .49821.0001.70635-.0169.22859-.0187.49832-.0628.76975-.2011.37631-.1917.68231-.4977.87401-.874.1383-.2714.1824-.5412.2011-.7698.017-.2081.0169-.4539.0169-.7063v-3.8638c0-.2524.0001-.4982-.0169-.7063-.0187-.2286-.0628-.4984-.2011-.7698-.1917-.3763-.4977-.6823-.87401-.874-.27143-.1383-.54116-.1824-.76975-.201-.20814-.0171-.4539-.017-.70626-.017zm1.93189 3.5c-.55228 0-1 .4477-1 1s.44772 1 1 1h.01c.55228 0 1-.4477 1-1s-.44772-1-1-1z"/></g></g></svg>