<svg fill="none" height="24" viewBox="0 0 24 24" width="24" xmlns="http://www.w3.org/2000/svg"><g clip-rule="evenodd" fill="#801ed7" fill-rule="evenodd"><path d="m2.00001 12c0-.5523.44771-1 1-1h.01c.55228 0 1 .4477 1 1s-.44772 1-1 1h-.01c-.55229 0-1-.4477-1-1z"/><path d="m7.00001 17c0-.5523.44771-1 1-1h.00999c.55229 0 1 .4477 1 1s-.44771 1-1 1h-.00999c-.55229 0-1-.4477-1-1z"/><path d="m11 21c0-.5523.4477-1 1-1h.01c.5523 0 1 .4477 1 1s-.4477 1-1 1h-.01c-.5523 0-1-.4477-1-1z"/><path d="m20 12c0-.5523.4477-1 1-1h.01c.5523 0 1 .4477 1 1s-.4477 1-1 1h-.01c-.5523 0-1-.4477-1-1z"/><path d="m2.00001 17c0-.5523.44771-1 1-1h1.5c.55228 0 1 .4477 1 1s-.44772 1-1 1h-1.5c-.55229 0-1-.4477-1-1z"/><path d="m14.5 12c0-.5523.4477-1 1-1h2c.5523 0 1 .4477 1 1s-.4477 1-1 1h-2c-.5523 0-1-.4477-1-1z"/><path d="m2.00001 21c0-.5523.44771-1 1-1h5c.55228 0 1 .4477 1 1s-.44772 1-1 1h-5c-.55229 0-1-.4477-1-1z"/><path d="m12 1c.5523 0 1 .44772 1 1v6c0 .55228-.4477 1-1 1s-1-.44772-1-1v-6c0-.55228.4477-1 1-1z"/><path d="m17.5681 15h.0319 1.8.0319c.2524 0 .4982-.0001.7063.0169.2286.0187.4984.0628.7698.2011.3763.1917.6823.4977.874.874.1383.2714.1824.5412.2011.7698.017.2081.0169.4539.0169.7063v.0319 1.8.0319c0 .2524.0001.4982-.0169.7063-.0187.2286-.0628.4984-.2011.7698-.1917.3763-.4977.6823-.874.874-.2714.1383-.5412.1824-.7698.2011-.2081.017-.4539.0169-.7063.0169-.0106 0-.0213 0-.0319 0h-1.8c-.0106 0-.0213 0-.0319 0-.2524 0-.4982.0001-.7063-.0169-.2286-.0187-.4984-.0628-.7698-.2011-.3763-.1917-.6823-.4977-.874-.874-.1383-.2714-.1824-.5412-.201-.7698-.0171-.2081-.017-.4539-.017-.7063 0-.0106 0-.0213 0-.0319v-1.8c0-.0106 0-.0213 0-.0319 0-.2524-.0001-.4982.017-.7063.0186-.2286.0627-.4984.201-.7698.1917-.3763.4977-.6823.874-.874.2714-.1383.5412-.1824.7698-.2011.2081-.017.4539-.0169.7063-.0169z"/><path d="m6.00001 12c0-.5523.44771-1 1-1h4.99999c.5523 0 1 .4477 1 1v5c0 .5523-.4477 1-1 1s-1-.4477-1-1v-4h-3.99999c-.55229 0-1-.4477-1-1z"/><path d="m17.5681 2h.0319 1.8.0319c.2524-.00003.4982-.00006.7063.01695.2286.01867.4984.06274.7698.20104.3763.19174.6823.4977.874.87403.1383.27142.1824.54116.2011.76975.017.20816.0169.45395.0169.70633v.0319 1.8.0319c0 .25238.0001.49817-.0169.70633-.0187.22859-.0628.49833-.2011.76975-.1917.37633-.4977.68229-.874.87403-.2714.1383-.5412.18237-.7698.20104-.2081.01701-.4539.01698-.7063.01695-.0106 0-.0213 0-.0319 0h-1.8c-.0106 0-.0213 0-.0319 0-.2524.00003-.4982.00006-.7063-.01695-.2286-.01867-.4984-.06274-.7698-.20104-.3763-.19174-.6823-.4977-.874-.87403-.1383-.27142-.1824-.54116-.201-.76975-.0171-.20816-.017-.45395-.017-.70633 0-.01062 0-.02126 0-.0319v-1.8c0-.01064 0-.02128 0-.0319 0-.25238-.0001-.49817.017-.70633.0186-.22859.0627-.49833.201-.76975.1917-.37633.4977-.68229.874-.87403.2714-.1383.5412-.18237.7698-.20104.2081-.01701.4539-.01698.7063-.01695z"/><path d="m4.56811 2h.0319 1.8.03189c.25239-.00003.49818-.00006.70634.01695.22859.01867.49832.06274.76975.20104.37632.19174.68228.4977.87403.87403.1383.27142.18236.54116.20104.76975.01701.20816.01698.45395.01695.70633v.0319 1.8.0319c.00003.25238.00006.49817-.01695.70633-.01868.22859-.06274.49833-.20104.76975-.19175.37633-.49771.68229-.87403.87403-.27143.1383-.54116.18237-.76975.20104-.20816.01701-.45395.01698-.70634.01695-.01062 0-.02125 0-.03189 0h-1.8c-.01065 0-.02128 0-.0319 0-.25239.00003-.49818.00006-.70633-.01695-.2286-.01867-.49833-.06274-.76976-.20104-.37632-.19174-.68228-.4977-.87403-.87403-.1383-.27142-.18236-.54116-.20104-.76975-.01701-.20816-.01698-.45395-.01695-.70633 0-.01062.00001-.02126.00001-.0319v-1.8c0-.01064-.00001-.02128-.00001-.0319-.00003-.25238-.00006-.49817.01695-.70633.01868-.22859.06274-.49833.20104-.76975.19175-.37633.49771-.68229.87403-.87403.27143-.1383.54116-.18237.76976-.20104.20815-.01701.45394-.01698.70633-.01695z"/></g></svg>