<svg fill="none" height="24" viewBox="0 0 24 24" width="24" xmlns="http://www.w3.org/2000/svg"><path d="m15.2413 2h-6.4826c-.80496-.00001-1.46933-.00002-2.01052.04419-.5621.04593-1.07881.14449-1.56414.39179-.75265.38349-1.36457.99541-1.74806 1.74806-.2473.48533-.34586 1.00204-.39179 1.56414-.04421.54119-.0442 1.20554-.04419 2.01051v13.24131c0 .3761.21105.7204.54622.8911s.73777.1389 1.04195-.0824l2.13294-1.5512 1.9042 1.5234c.35184.2814.84847.2929 1.21286.0278l2.16183-1.5722 2.1618 1.5722c.3644.2651.8611.2536 1.2129-.0278l1.9042-1.5234 2.1329 1.5512c.3042.2213.7068.2531 1.042.0824.3351-.1707.5462-.515.5462-.8911v-13.24132c0-.80496 0-1.46931-.0442-2.0105-.0459-.5621-.1445-1.07881-.3918-1.56414-.3835-.75265-.9954-1.36457-1.748-1.74806-.4854-.2473-1.0021-.34586-1.5642-.39179-.5412-.04421-1.2055-.0442-2.0105-.04419z" fill="#801ed7"/></svg>