<svg fill="none" height="24" viewBox="0 0 24 24" width="24" xmlns="http://www.w3.org/2000/svg"><path clip-rule="evenodd" d="m8.7587 2h6.4826c.805-.00001 1.4693-.00002 2.0105.0442.5621.04592 1.0788.14448 1.5642.39178.7526.38349 1.3645.99541 1.748 1.74806.2473.48534.3459 1.00204.3918 1.56414.0442.54119.0442 1.20554.0442 2.0105v13.24132c0 .3761-.2111.7204-.5462.8911-.3352.1707-.7378.1389-1.042-.0824l-2.1329-1.5512-1.9042 1.5234c-.3518.2814-.8485.2929-1.2129.0278l-2.1618-1.5722-2.16183 1.5722c-.36439.2651-.86102.2536-1.21286-.0278l-1.9042-1.5234-2.13294 1.5512c-.30418.2213-.70678.2531-1.04195.0824s-.54622-.515-.54622-.8911v-13.24131c-.00001-.80496-.00002-1.46933.0442-2.01051.04592-.5621.14448-1.0788.39178-1.56414.38349-.75265.99541-1.36457 1.74806-1.74806.48534-.2473 1.00204-.34586 1.56414-.39178.54118-.04422 1.20557-.04421 2.01052-.0442zm7.4484 6.70711c.3905-.39053.3905-1.02369 0-1.41422-.3905-.39052-1.0237-.39052-1.4142 0l-3.7929 3.79291-1.29289-1.29291c-.39053-.39052-1.02369-.39052-1.41422 0-.39052.39051-.39052 1.02371 0 1.41421l2.00001 2c.3905.3905 1.0237.3905 1.4142 0z" fill="#801ed7" fill-rule="evenodd"/></svg>