<svg fill="none" height="24" viewBox="0 0 24 24" width="24" xmlns="http://www.w3.org/2000/svg"><path clip-rule="evenodd" d="m12 1c-6.07513 0-11 4.92487-11 11 0 6.0751 4.92487 11 11 11 6.0751 0 11-4.9249 11-11 0-6.07513-4.9249-11-11-11zm2 5c.5523 0 1 .44772 1 1v10c0 .5523-.4477 1-1 1s-1-.4477-1-1v-10c0-.55228.4477-1 1-1zm-3 3c0-.55228-.4477-1-1-1-.55229 0-1 .44772-1 1v6c0 .5523.44772 1 1 1 .5523 0 1-.4477 1-1zm-4 2c0-.5523-.44772-1-1-1s-1 .4477-1 1v2c0 .5523.44772 1 1 1s1-.4477 1-1zm12 0c0-.5523-.4477-1-1-1s-1 .4477-1 1v2c0 .5523.4477 1 1 1s1-.4477 1-1z" fill="#801ed7" fill-rule="evenodd"/></svg>