<svg fill="none" height="24" viewBox="0 0 24 24" width="24" xmlns="http://www.w3.org/2000/svg"><g fill="#801ed7"><path d="m13 3c0-.55228-.4477-1-1-1s-1 .44772-1 1v3c0 .55228.4477 1 1 1s1-.44772 1-1z"/><path d="m3.86965 7.17673 4.43777 3.41367c.12055.0927.25755.198.36753.2992.12193.1123.29967.2973.40563.5737.13249.3457.13249.7281 0 1.0738-.10596.2764-.2837.4613-.40563.5736-.10997.1013-.24696.2066-.3675.2992l-4.43778 3.4137c-.18227.1403-.36921.2841-.53358.3883-.15884.1007-.46286.2775-.85446.2727-.45277-.0055-.87881-.2153-1.15926-.5708-.24257-.3075-.28775-.6563-.30481-.8435-.017649-.1938-.017601-.4297-.01756-.6597v-6.82085c-.000041-.23001-.000088-.46585.01756-.65966.01706-.18728.06224-.53608.30481-.84355.28045-.35549.70649-.56527 1.15926-.57082.3916-.0048.69562.17206.85446.27272.16438.10418.35128.24801.53356.38829z"/><path d="m20.6639 6.78844c.1589-.10066.4629-.27752.8545-.27272.4528.00555.8788.21533 1.1593.57082.2425.30747.2877.65627.3048.84355.0176.19381.0176.42965.0175.65965v6.82086c.0001.23.0001.4659-.0175.6597-.0171.1872-.0623.536-.3048.8435-.2805.3555-.7065.5653-1.1593.5708-.3916.0048-.6956-.172-.8545-.2727-.1644-.1042-.3513-.248-.5335-.3883l-4.4378-3.4136c-.1205-.0927-.2576-.198-.3675-.2993-.122-.1123-.2997-.2972-.4057-.5736-.1325-.3457-.1325-.7281 0-1.0738.106-.2764.2837-.4614.4057-.5737.1099-.1012.2469-.2065.3675-.2992l4.4378-3.41368c.1822-.14027.3691-.2841.5335-.38828z"/><path d="m12 9.5c.5523 0 1 .44772 1 1v3c0 .5523-.4477 1-1 1s-1-.4477-1-1v-3c0-.55228.4477-1 1-1z"/><path d="m13 18c0-.5523-.4477-1-1-1s-1 .4477-1 1v3c0 .5523.4477 1 1 1s1-.4477 1-1z"/></g></svg>