<svg fill="none" height="24" viewBox="0 0 24 24" width="24" xmlns="http://www.w3.org/2000/svg"><g fill="#801ed7"><path d="m13 3c0-.55228-.4477-1-1-1s-1 .44772-1 1v3c0 .55228.4477 1 1 1s1-.44772 1-1z"/><path d="m20.2071 7.29289c.3905.39053.3905 1.02369 0 1.41422l-2.2929 2.29289h4.0858c.5523 0 1 .4477 1 1s-.4477 1-1 1h-4.0858l2.2929 2.2929c.3905.3905.3905 1.0237 0 1.4142s-1.0237.3905-1.4142 0l-4-4c-.3905-.3905-.3905-1.0237 0-1.4142l4-4.00001c.3905-.39052 1.0237-.39052 1.4142 0z"/><path d="m2 11c-.55228 0-1 .4477-1 1s.44772 1 1 1h4.08579l-2.2929 2.2929c-.39052.3905-.39052 1.0237 0 1.4142.39053.3905 1.02369.3905 1.41422 0l4-4c.39052-.3905.39052-1.0237 0-1.4142l-4-4.00001c-.39053-.39052-1.02369-.39052-1.41422 0-.39052.39053-.39052 1.02369 0 1.41422l2.2929 2.29289z"/><path d="m12 9.5c.5523 0 1 .44772 1 1v3c0 .5523-.4477 1-1 1s-1-.4477-1-1v-3c0-.55228.4477-1 1-1z"/><path d="m13 18c0-.5523-.4477-1-1-1s-1 .4477-1 1v3c0 .5523.4477 1 1 1s1-.4477 1-1z"/></g></svg>