<svg fill="none" height="24" viewBox="0 0 24 24" width="24" xmlns="http://www.w3.org/2000/svg"><g fill="#801ed7"><path d="m21.4727 6.19278c.143-.53346-.1736-1.0818-.7071-1.22474-.5335-.14295-1.0818.17364-1.2247.7071l-.1087.40554c-2.8789-3.62397-8.0533-4.69168-12.1821-2.30792-2.7355 1.57934-4.38778 4.31451-4.69796 7.22854-.05846.5492.33935 1.0418.88854 1.1003.54918.0584 1.04177-.3394 1.10022-.8886.24543-2.30571 1.55073-4.462 3.7092-5.70819 3.156-1.8221 7.0858-1.08981 9.3953 1.55538l-.3439-.09215c-.5335-.14295-1.0818.17364-1.2247.7071-.143.53347.1736 1.08181.7071 1.22475l2.732.73205c.5335.14294 1.0818-.17364 1.2248-.70711z"/><path d="m21.448 12.9987c.0585-.5492-.3393-1.0418-.8885-1.1002-.5492-.0585-1.0418.3393-1.1002.8885-.2455 2.3057-1.5508 4.462-3.7092 5.7082-3.156 1.8221-7.08583 1.0898-9.39539-1.5554l.34398.0922c.53347.1429 1.08181-.1737 1.22475-.7071.14294-.5335-.17364-1.0818-.70711-1.2248l-2.73205-.732c-.53346-.143-1.0818.1736-1.22474.7071l-.73205 2.732c-.14295.5335.17364 1.0818.7071 1.2248.53347.1429 1.08181-.1737 1.22475-.7071l.10865-.4055c2.87895 3.6239 8.05331 4.6916 12.18211 2.3079 2.7355-1.5794 4.3877-4.3145 4.6979-7.2286z"/></g></svg>