<svg fill="none" height="24" viewBox="0 0 24 24" width="24" xmlns="http://www.w3.org/2000/svg"><g fill="#801ed7"><path d="m4.92893 19.0711c-3.90524-3.9052-3.90524-10.23689 0-14.14213.79811-.79811 1.46629-1.4293 2.02471-1.92897h-2.95364c-.55228 0-1-.44772-1-1s.44772-1 1-1h6c.5523 0 1 .44772 1 1v6c0 .55229-.4477 1-1 1-.55228 0-1-.44772-1-1v-4.12566c-.61719.51218-1.47875 1.29074-2.65685 2.46884-3.1242 3.1242-3.1242 8.18952 0 11.31372 1.10799 1.108 2.45742 1.8218 3.87815 2.1441.5386.1222.8761.6579.7539 1.1965s-.6579.8761-1.19647.7539c-1.77787-.4034-3.46724-1.2977-4.8498-2.6803z"/><path d="m13.7787 4.19906c-.5386-.1222-.8761-.65788-.7539-1.19648.1222-.53859.6578-.87614 1.1964-.75394 1.7779.40338 3.4673 1.29776 4.8498 2.68032 3.9053 3.90524 3.9053 10.23684 0 14.14214-.7977.7978-1.4659 1.429-2.0246 1.9289h2.9536c.5523 0 1 .4477 1 1s-.4477 1-1 1h-6c-.5523 0-1-.4477-1-1v-6c0-.5523.4477-1 1-1s1 .4477 1 1v4.1257c.6164-.5115 1.4779-1.2899 2.6568-2.4688 3.1242-3.1242 3.1242-8.18954 0-11.31373-1.108-1.10799-2.4574-1.82176-3.8781-2.14411z"/></g></svg>