<svg fill="none" height="24" viewBox="0 0 24 24" width="24" xmlns="http://www.w3.org/2000/svg"><path d="m17.6589 6.34511c-1.4489-1.44997-3.4484-2.34511-5.6588-2.34511-4.41827 0-8 3.58172-8 8 0 4.4183 3.58173 8 8 8 3.6457 0 6.7243-2.4395 7.6874-5.7773.1532-.5306.7075-.8366 1.2381-.6835s.8367.7074.6835 1.2381c-1.2035 4.1708-5.0485 7.2227-9.609 7.2227-5.52284 0-10-4.4772-10-10 0-5.52285 4.47716-10 10-10 2.7624 0 5.2648 1.12139 7.0735 2.93138.6361.63651 1.3206 1.42634 1.9264 2.16296v-3.09434c0-.55228.4477-1 1-1s1 .44772 1 1v6c0 .5523-.4477 1-1 1h-6c-.5523 0-1-.4477-1-1 0-.55228.4477-1 1-1h3.9693c-.6841-.85856-1.5461-1.89013-2.3104-2.65489z" fill="#801ed7"/></svg>