<svg fill="none" height="24" viewBox="0 0 24 24" width="24" xmlns="http://www.w3.org/2000/svg"><g fill="#801ed7"><path d="m21.7656 6.70011c.5335.14294.8501.69128.7071 1.22475-.1429.53346-.6913.85005-1.2247.7071l-.4056-.10866c1.699 4.3052.0365 9.3202-4.0923 11.704-2.7355 1.5793-5.9304 1.6426-8.60911.4542-.50483-.2239-.73252-.8147-.50855-1.3196.22396-.5048.81477-.7325 1.31961-.5085 2.11955.9403 4.63955.888 6.79805-.3582 3.156-1.8221 4.4867-5.5915 3.3507-8.91426l-.0922.34392c-.1429.53344-.6913.85004-1.2247.70714-.5335-.143-.8501-.69132-.7071-1.22478l.732-2.73205c.1429-.53347.6913-.85005 1.2248-.70711z"/><path d="m15.8592 3.31853c.5048.22397.7325.81478.5085 1.31961-.2239.50484-.8147.73252-1.3196.50856-2.1195-.94032-4.6396-.88804-6.79803.35815-3.15599 1.82211-4.4867 5.59155-3.35065 8.91435l.09217-.344c.14294-.5335.69128-.8501 1.22474-.7071.53347.1429.85005.6913.70711 1.2247l-.73205 2.7321c-.14294.5334-.69128.85-1.22475.7071l-2.73205-.7321c-.53346-.1429-.85005-.6912-.7071-1.2247.14294-.5335.69127-.8501 1.22474-.7071l.40549.1086c-1.69895-4.3052-.03643-9.32015 4.09235-11.7039 2.7355-1.57934 5.93033-1.64268 8.60913-.45427z"/></g></svg>