<svg fill="none" height="24" viewBox="0 0 24 24" width="24" xmlns="http://www.w3.org/2000/svg"><path d="m6.34108 6.34511c1.44897-1.44997 3.44841-2.34511 5.65882-2.34511 4.4183 0 8 3.58172 8 8 0 4.4183-3.5817 8-8 8-3.64574 0-6.72429-2.4395-7.68744-5.7773-.15312-.5306-.70741-.8366-1.23805-.6835-.53063.1531-.83667.7074-.68354 1.2381 1.20354 4.1708 5.04858 7.2227 9.60903 7.2227 5.5228 0 10-4.4772 10-10 0-5.52285-4.4772-10-10-10-2.7624 0-5.26478 1.12139-7.07352 2.93138-.63607.63651-1.32058 1.42634-1.92638 2.16296v-3.09434c0-.55228-.44772-1-1-1s-1 .44772-1 1v6c0 .5523.44772 1 1 1h6c.55228 0 1-.4477 1-1 0-.55228-.44772-1-1-1h-3.96927c.6841-.85856 1.54611-1.89013 2.31035-2.65489z" fill="#801ed7"/></svg>