<svg fill="none" height="24" viewBox="0 0 24 24" width="24" xmlns="http://www.w3.org/2000/svg"><g fill="#801ed7"><path d="m19.071 19.0711c3.9053-3.9052 3.9053-10.23689 0-14.14213-.7981-.79811-1.4663-1.4293-2.0247-1.92897h2.9537c.5523 0 1-.44771 1-1 0-.55228-.4477-1-1-1h-6c-.5523 0-1 .44772-1 1v6c0 .55228.4477 1 1 1s1-.44772 1-1v-4.12567c.6172.51219 1.4787 1.29075 2.6568 2.46885 3.1242 3.1242 3.1242 8.18952 0 11.31372-1.108 1.108-2.4574 1.8218-3.8781 2.1441-.5386.1222-.8761.6579-.7539 1.1965s.6578.8761 1.1964.7539c1.7779-.4034 3.4673-1.2977 4.8498-2.6803z"/><path d="m10.2213 4.19906c.5386-.1222.8761-.65788.7539-1.19648-.1222-.53859-.6579-.87615-1.19647-.75394-1.77787.40338-3.46724 1.29776-4.8498 2.68031-3.90524 3.90525-3.90524 10.23685 0 14.14215.79778.7978 1.46595 1.429 2.02463 1.9289h-2.95359c-.55228 0-1 .4477-1 1s.44772 1 1 1h6c.55233 0 1.00003-.4477 1.00003-1v-6c0-.5523-.4477-1-1.00003-1-.55228 0-1 .4477-1 1v4.1257c-.61639-.5115-1.47791-1.2899-2.65683-2.4688-3.12419-3.1242-3.12419-8.18954.00001-11.31373 1.10799-1.10799 2.45742-1.82176 3.87815-2.14411z"/></g></svg>