<svg fill="none" height="24" viewBox="0 0 24 24" width="24" xmlns="http://www.w3.org/2000/svg"><g fill="#801ed7"><path d="m11.7071.892869c-.3905-.390525-1.0237-.390525-1.4142 0-.39053.390521-.39053 1.023691 0 1.414211l.2969.29687c-4.57795.68126-8.0898 4.62854-8.0898 9.39605 0 3.1587 1.54258 5.9572 3.91115 7.6828.44637.3253 1.07187.227 1.39709-.2193.32521-.4464.22699-1.0719-.21939-1.3971-1.8741-1.3654-3.08885-3.574-3.08885-6.0664 0-3.6442 2.59907-6.68135 6.0447-7.3589l-.2518.25177c-.39053.39052-.39053 1.02369 0 1.41421.3905.39053 1.0237.39053 1.4142 0l2-2c.3905-.39052.3905-1.02369 0-1.41421z"/><path d="m17.5889 4.3172c-.4464-.32522-1.0719-.227-1.3971.21938-.3253.44638-.227 1.07188.2193 1.39709 1.8742 1.36541 3.0889 3.57398 3.0889 6.06633 0 3.6443-2.5991 6.6814-6.0447 7.3589l.2518-.2518c.3905-.3905.3905-1.0237 0-1.4142s-1.0237-.3905-1.4142 0l-2 2c-.39053.3905-.39053 1.0237 0 1.4142l2 2c.3905.3906 1.0237.3906 1.4142 0 .3905-.3905.3905-1.0237 0-1.4142l-.2968-.2968c4.5779-.6813 8.0897-4.6286 8.0897-9.3961 0-3.15865-1.5426-5.95715-3.9111-7.6828z"/></g></svg>