<svg fill="none" height="24" viewBox="0 0 24 24" width="24" xmlns="http://www.w3.org/2000/svg"><g fill="#801ed7"><path d="m4.92889 4.92893c3.90525-3.90524 10.23691-3.90524 14.14211 0 .7981.79811 1.4293 1.46629 1.929 2.02471v-2.95364c0-.55228.4477-1 1-1s1 .44772 1 1v6c0 .5523-.4477 1-1 1h-6c-.5523 0-1-.4477-1-1 0-.55228.4477-1 1-1h4.1257c-.5122-.61719-1.2908-1.47875-2.4689-2.65685-3.1242-3.1242-8.1895-3.1242-11.31369 0-1.10799 1.10799-1.82176 2.45742-2.14411 3.87815-.1222.5386-.65789.8761-1.19648.7539-.5386-.1222-.87615-.6579-.75394-1.19647.40338-1.77787 1.29776-3.46724 2.68031-4.8498z"/><path d="m19.8009 13.7787c.1222-.5386.6579-.8761 1.1965-.7539s.8762.6578.754 1.1964c-.4034 1.7779-1.2978 3.4673-2.6804 4.8498-3.9052 3.9053-10.23685 3.9053-14.14209 0-.79778-.7977-1.42899-1.4659-1.92891-2.0246v2.9536c0 .5523-.44772 1-1 1s-1-.4477-1-1v-6c0-.5523.44772-1 1-1h6c.55229 0 1 .4477 1 1s-.44771 1-1 1h-4.12571c.51154.6164 1.28992 1.4779 2.46883 2.6568 3.1242 3.1242 8.18948 3.1242 11.31368 0 1.108-1.108 1.8218-2.4574 2.1441-3.8781z"/></g></svg>