<svg fill="none" height="24" viewBox="0 0 24 24" width="24" xmlns="http://www.w3.org/2000/svg"><g fill="#801ed7"><path d="m19.0711 4.92893c-3.9052-3.90524-10.23689-3.90524-14.14213 0-.79811.79811-1.4293 1.46629-1.92897 2.02471v-2.95364c0-.55228-.44772-1-1-1s-1 .44772-1 1v6c0 .5523.44772 1 1 1h6c.55228 0 1-.4477 1-1 0-.55228-.44772-1-1-1h-4.12567c.51219-.61719 1.29075-1.47875 2.46885-2.65685 3.1242-3.1242 8.18952-3.1242 11.31372 0 1.108 1.10799 1.8218 2.45742 2.1441 3.87815.1222.5386.6579.8761 1.1965.7539s.8761-.6579.7539-1.19647c-.4034-1.77787-1.2977-3.46724-2.6803-4.8498z"/><path d="m4.19906 13.7787c-.1222-.5386-.65788-.8761-1.19648-.7539-.53859.1222-.87615.6578-.75394 1.1964.40338 1.7779 1.29776 3.4673 2.68032 4.8498 3.90524 3.9053 10.23684 3.9053 14.14214 0 .7978-.7977 1.429-1.4659 1.9289-2.0246v2.9536c0 .5523.4477 1 1 1s1-.4477 1-1v-6c0-.5523-.4477-1-1-1h-6c-.5523 0-1 .4477-1 1s.4477 1 1 1h4.1257c-.5115.6164-1.2899 1.4779-2.4688 2.6568-3.1242 3.1242-8.18954 3.1242-11.31373 0-1.10799-1.108-1.82176-2.4574-2.14411-3.8781z"/></g></svg>