<svg fill="none" height="24" viewBox="0 0 24 24" width="24" xmlns="http://www.w3.org/2000/svg"><g fill="#801ed7"><path d="m10.2929 1.29289c.3905-.390521 1.0237-.390521 1.4142 0l3 3c.3905.39053.3905 1.02369 0 1.41422l-3 3c-.3905.39052-1.0237.39052-1.4142 0-.39053-.39053-.39053-1.02369 0-1.41422l1.2929-1.29287h-4.78578c-.85658 0-1.43887.00078-1.88896.03756-.43841.03582-.66262.10074-.81902.18043-.37632.19175-.68228.49771-.87403.87403-.07969.1564-.14461.38061-.18043.81902-.03678.45009-.03756 1.03239-.03756 1.88896v5.69998c0 .4962.00216.6475.01711.7611.11816.8974.82437 1.6037 1.72184 1.7218.11359.015.26485.0171.76105.0171.55229 0 1 .4477 1 1s-.44771 1-1 1h-.06875c-.39745.0001-.69189.0002-.95335-.0342-1.79493-.2363-3.20737-1.6487-3.44368-3.4437-.034416-.2614-.034336-.5559-.03423-.9533l.00001-5.81007c-.00001-.80495-.00002-1.46935.0442-2.01053.04592-.5621.14449-1.0788.39178-1.56414.38349-.75265.99541-1.36457 1.74806-1.74806.48534-.24729 1.00204-.34586 1.56414-.39178.54119-.04422 1.20555-.04421 2.01053-.0442h4.82707l-1.2929-1.29291c-.39053-.39053-.39053-1.02369 0-1.41422z"/><path d="m19.2611 6.01713c-.1136-.01495-.2649-.01711-.7611-.01711-.5523 0-1-.44771-1-1 0-.55228.4477-1 1-1l.0688-.00001c.3974-.00011.6919-.00019.9533.03423 1.795.23631 3.2074 1.64875 3.4437 3.44368.0344.26145.0343.55589.0342.95332v5.81006c0 .805 0 1.4694-.0442 2.0106-.0459.562-.1445 1.0788-.3917 1.5641-.3835.7526-.9955 1.3646-1.7481 1.748-.4853.2473-1.0021.3459-1.5641.3918-.5413.0442-1.2056.0442-2.0106.0442h-4.8271l1.2929 1.2929c.3905.3905.3905 1.0237 0 1.4142s-1.0237.3905-1.4142 0l-3.00001-3c-.39052-.3905-.39052-1.0237 0-1.4142l3.00001-3c.3905-.3905 1.0237-.3905 1.4142 0s.3905 1.0237 0 1.4142l-1.2929 1.2929h4.7858c.8566 0 1.4389-.0008 1.889-.0375.4384-.0358.6626-.1008.819-.1805.3763-.1917.6823-.4977.874-.874.0797-.1564.1447-.3806.1805-.819.0367-.4501.0375-1.0324.0375-1.889v-5.69998c0-.4962-.0021-.64746-.0171-.76105-.1181-.89747-.8244-1.60368-1.7218-1.72184z"/></g></svg>