<svg fill="none" height="24" viewBox="0 0 24 24" width="24" xmlns="http://www.w3.org/2000/svg"><g fill="#801ed7"><path d="m16.2929 1.29289c.3905-.390521 1.0237-.390521 1.4142 0l4 4c.3905.39053.3905 1.02369 0 1.41422l-4 3.99999c-.3905.3905-1.0237.3905-1.4142 0s-.3905-1.02368 0-1.41421l2.2929-2.29289h-10.7858c-.85658 0-1.43887.00078-1.88896.03755-.43842.03582-.66262.10075-.81902.18044-.37632.19174-.68229.49771-.87403.87403-.07969.1564-.14462.3806-.18044.81902-.03677.45009-.03755 1.03238-.03755 1.88896v.2c0 .5523-.44771 1-1 1-.55228 0-1-.4477-1-1v-.2413c-.00001-.80496-.00002-1.46933.04419-2.01053.04593-.56209.14449-1.0788.39179-1.56413.38349-.75265.99541-1.36457 1.74806-1.74806.48533-.2473 1.00204-.34586 1.56414-.39179.54119-.04421 1.20555-.0442 2.01052-.04419h10.8271l-2.2929-2.29289c-.3905-.39053-.3905-1.02369 0-1.41422z"/><path d="m21 12c-.5523 0-1 .4477-1 1v.2c0 .8566-.0008 1.4389-.0376 1.889-.0358.4384-.1007.6626-.1804.819-.1917.3763-.4977.6823-.874.874-.1564.0797-.3806.1446-.819.1804-.4501.0368-1.0324.0376-1.889.0376h-10.78579l2.2929-2.2929c.39052-.3905.39052-1.0237 0-1.4142-.39053-.3905-1.02369-.3905-1.41422 0l-4 4c-.39052.3905-.39052 1.0237 0 1.4142l4 4c.39053.3905 1.02369.3905 1.41422 0 .39052-.3905.39052-1.0237 0-1.4142l-2.2929-2.2929h10.82709c.805 0 1.4693 0 2.0105-.0442.5621-.0459 1.0788-.1445 1.5642-.3918.7526-.3835 1.3645-.9954 1.748-1.748.2473-.4854.3459-1.0021.3918-1.5642.0442-.5412.0442-1.2055.0442-2.0105v-.2413c0-.5523-.4477-1-1-1z"/></g></svg>