<svg fill="none" height="24" viewBox="0 0 24 24" width="24" xmlns="http://www.w3.org/2000/svg"><g fill="#801ed7"><path d="m11.7071.892991c-.3905-.390524-1.0237-.390524-1.4142 0-.39053.390529-.39053 1.023689 0 1.414209l.2968.29677c-4.5779.6813-8.0897 4.62855-8.0897 9.39603 0 3.1587 1.54258 5.9572 3.91114 7.6828.44638.3253 1.07188.227 1.3971-.2193.32521-.4464.22699-1.0719-.21939-1.3971-1.8741-1.3654-3.08885-3.574-3.08885-6.0664 0-3.64425 2.59915-6.68144 6.0448-7.35893l-.2519.25192c-.39053.39053-.39053 1.02369 0 1.41421.3905.39053 1.0237.39053 1.4142 0l2-2c.3905-.39052.3905-1.02368 0-1.41421z"/><path d="m17.5889 4.31708c-.4464-.32522-1.0719-.227-1.3971.21938-.3253.44638-.227 1.07188.2193 1.39709 1.8742 1.36541 3.0889 3.57398 3.0889 6.06635 0 3.6442-2.5991 6.6814-6.0447 7.3589l.2518-.2518c.3905-.3905.3905-1.0237 0-1.4142s-1.0237-.3905-1.4142 0l-2 2c-.39053.3905-.39053 1.0237 0 1.4142l2 2c.3905.3905 1.0237.3905 1.4142 0s.3905-1.0237 0-1.4142l-.2968-.2968c4.5779-.6813 8.0897-4.6286 8.0897-9.3961 0-3.15867-1.5426-5.95717-3.9111-7.68282z"/></g></svg>