<svg fill="none" height="24" viewBox="0 0 24 24" width="24" xmlns="http://www.w3.org/2000/svg"><g fill="#801ed7"><path d="m11.7071 1.29289c-.3905-.390521-1.0237-.390521-1.4142 0-.39053.39053-.39053 1.02369 0 1.41422l1.2929 1.29289h-2.5858c-4.41828 0-8 3.58172-8 8 0 3.1928 1.87043 5.9468 4.57091 7.2296.49885.237 1.09537.0247 1.33235-.4741.23698-.4989.02469-1.0954-.47417-1.3324-2.02942-.9641-3.42909-3.0311-3.42909-5.4231 0-3.31371 2.68629-6 6-6h2.5858l-1.2929 1.29289c-.39053.39053-.39053 1.02369 0 1.41422.3905.39052 1.0237.39052 1.4142 0l3-3c.3905-.39053.3905-1.02369 0-1.41422z"/><path d="m18.4291 4.77031c-.4989-.23698-1.0954-.02469-1.3324.47417-.2369.49886-.0246 1.09537.4742 1.33235 2.0294.96408 3.4291 3.03113 3.4291 5.42307 0 3.3138-2.6863 6-6 6h-2.5857l1.2928-1.2928c.3905-.3905.3905-1.0237 0-1.4142s-1.0237-.3905-1.4142 0l-3.00001 3c-.39052.3905-.39052 1.0237 0 1.4142l3.00001 3c.3905.3905 1.0237.3905 1.4142 0s.3905-1.0237 0-1.4142l-1.2929-1.293h2.5858c4.4183 0 8-3.5817 8-8 0-3.19277-1.8704-5.94673-4.5709-7.22959z"/></g></svg>