<svg fill="none" height="24" viewBox="0 0 24 24" width="24" xmlns="http://www.w3.org/2000/svg"><g fill="#801ed7"><path d="m20.5311 1.50028c-.3882-.00807-.6913.16286-.851.26132-.1642.10126-.3509.24132-.5323.3774l-3.9172 2.9379c-.1245.09334-.2653.19888-.3782.30045-.1246.112-.308.29816-.4171.57889-.1361.34972-.1361.73771 0 1.08742.1091.28073.2925.46689.4171.57889.1129.10157.2537.20711.3783.30046l3.9172 2.93789c.1813.1361.368.2761.5322.3774.1597.0985.4628.2694.851.2613.4501-.0093.8723-.2204 1.1499-.5749.2393-.3057.2845-.6508.3015-.8376.0175-.19212.0175-.42548.0174-.65222v-5.86983c.0001-.22674.0001-.46013-.0174-.65225-.017-.18682-.0622-.53191-.3015-.8376-.2776-.3545-.6998-.56557-1.1499-.57492z"/><path d="m3 3c-.55228 0-1 .44772-1 1s.44772 1 1 1h9c.5523 0 1-.44771 1-1 0-.55228-.4477-1-1-1z"/><path d="m3 8.25c-.55228 0-1 .44772-1 1 0 .55229.44772 1 1 1h9c.5523 0 1-.44771 1-1 0-.55228-.4477-1-1-1z"/><path d="m2 14.75c0-.5523.44772-1 1-1h18c.5523 0 1 .4477 1 1s-.4477 1-1 1h-18c-.55228 0-1-.4477-1-1z"/><path d="m3 19c-.55228 0-1 .4477-1 1s.44772 1 1 1h18c.5523 0 1-.4477 1-1s-.4477-1-1-1z"/></g></svg>