<svg fill="none" height="24" viewBox="0 0 24 24" width="24" xmlns="http://www.w3.org/2000/svg"><g fill="#801ed7"><path d="m3 3c-.55228 0-1 .44772-1 1s.44772 1 1 1h18c.5523 0 1-.44772 1-1s-.4477-1-1-1z"/><path d="m3 19c-.55228 0-1 .4477-1 1s.44772 1 1 1h18c.5523 0 1-.4477 1-1s-.4477-1-1-1z"/><path d="m2 9.25c0-.55228.44772-1 1-1h9c.5523 0 1 .44772 1 1s-.4477 1-1 1h-9c-.55228 0-1-.44772-1-1z"/><path d="m3 13.75c-.55228 0-1 .4477-1 1s.44772 1 1 1h9c.5523 0 1-.4477 1-1s-.4477-1-1-1z"/><path d="m20.5311 7.00028c-.3882-.00807-.6913.16286-.851.26132-.1642.10126-.3509.24132-.5323.3774l-3.9171 2.9379c-.1246.0933-.2654.1989-.3783.3004-.1246.1121-.308.2982-.4171.5789-.1361.3498-.1361.7377 0 1.0875.1091.2807.2925.4669.4171.5789.1129.1015.2537.207.3782.3004l3.9172 2.9379c.1814.1361.3681.2761.5323.3774.1597.0985.4628.2694.851.2613.4501-.0093.8723-.2204 1.1499-.5749.2393-.3057.2845-.6508.3015-.8376.0175-.1921.0175-.4255.0174-.6522v-5.86985c.0001-.22675.0001-.46013-.0174-.65225-.017-.18682-.0622-.53191-.3015-.8376-.2776-.3545-.6998-.56557-1.1499-.57492z"/></g></svg>