<svg fill="none" height="24" viewBox="0 0 24 24" width="24" xmlns="http://www.w3.org/2000/svg"><g fill="#801ed7"><path d="m13.4654 4.37177c1.1624.77127 2.2814 1.6818 3.3285 2.72888 1.0531 1.05306 1.968 2.17895 2.7421 3.34845l.2091.3339c.249.3978.3736.5967.4041.8042.0269.1829.0025.3698-.0704.5397-.0827.1927-.2541.353-.5968.6736l-2.3059 2.1572.6489 1.9467.022.0654c.0808.2397.1824.5411.1871.8579.0039.274-.0484.5459-.1539.7988-.1219.2924-.3283.5345-.4923.7271l-.0447.0525-1.5619 1.8458c-.2679.3167-.5117.605-.7298.8194-.2221.2185-.5315.4794-.9543.5841-.548.1356-1.1279.0333-1.5964-.2817-.3615-.243-.5629-.5941-.6968-.8753-.1315-.2761-.262-.6305-.4054-1.0197l-.3257-.8841c-1.49711.3321-3.10051.0486-4.40945-.844l-2.45647 2.4565c-.39052.3905-1.02369.3905-1.41421 0-.39053-.3905-.39053-1.0237 0-1.4142l2.44229-2.4423c-.94377-1.3256-1.24924-2.9699-.90927-4.5028l-.88391-.3256c-.38928-.1434-.74356-.2739-1.0197-.4054-.28123-.134-.63229-.3353-.87533-.6968-.315-.4686-.4173-1.0484-.28165-1.59645.10465-.42283.3656-.73221.58402-.95429.21444-.21805.50267-.4619.81935-.72982l1.84591-1.56192.05253-.04466c.19251-.16406.43465-.37041.72704-.49233.25292-.10546.52482-.15782.79882-.15384.31676.00461.61822.10627.85789.1871l.06536.02196 1.94648.64882 2.171-2.32077c.3312-.35397.4967-.53095.6953-.61372.1751-.07295.3672-.09464.5541-.06252.212.03644.4129.17208.8146.44336l.261.17631z"/><path d="m14.5746 2.70755c-.298-.20128-.2264-.64698.1259-.7193.9459-.19419 1.9347-.27944 2.8714-.43555.7068-.11782 1.303-.2172 1.7881-.25382.5002-.03775 1.0117-.02218 1.4998.18721.7075.30342 1.2712.86714 1.5746 1.57454.2094.48819.2249.99967.1872 1.49981-.0366.48514-.136 1.0813-.2538 1.78813-.1584.95021-.239 1.9612-.4422 2.92192-.0732.34623-.5133.40658-.7011.10664-.8393-1.34037-1.9005-2.57487-3.0164-3.69069-1.1398-1.13988-2.361-2.13423-3.6335-2.97889z"/></g></svg>