<svg fill="none" height="24" viewBox="0 0 24 24" width="24" xmlns="http://www.w3.org/2000/svg"><g fill="#801ed7"><path d="m15.2311 2.71764c2.0749-1.14118 4.4072-1.732548 6.7751-1.717861.5499.003411.9938.450121.9938.999981 0 2.8103-.7884 7.70771-5.8524 11.41664.0852.3576.1822.8282.2492 1.3483.0731.5674.1143 1.2205.0545 1.8632-.0589.634-.2226 1.3318-.6192 1.9268l-.0009.0013c-.679 1.0149-1.9595 1.6034-2.854 1.9278-.4806.1744-.9247.298-1.2479.3782-.2435.0604-.4222.0971-.5033.1129-.3082.0586-.6222-.003-.8669-.2072-.2275-.19-.3591-.4712-.3591-.7677v-4.586l-2.41395-2.414h-4.58604c-.29647 0-.57766-.1315-.76766-.3591s-.26921-.5278-.21626-.8195c.03372-.1849.07669-.3684.12192-.5507.08016-.3232.20383-.7672.37818-1.2479.32446-.89451.91288-2.17501 1.9278-2.85395l.00132-.00088c.59499-.39666 1.29278-.56035 1.92684-.61928.64268-.05974 1.29581-.01859 1.86318.05453.52552.06773 1.00057.16599 1.35947.25186 1.2109-1.70898 2.795-3.12476 4.6363-4.13744z"/><path clip-rule="evenodd" d="m6.00316 14.9883c-.78316-.0242-1.54768.2416-2.14694.7463-.52678.4428-.91357 1.0526-1.20005 1.6392-.29219.5981-.51423 1.2437-.68009 1.8235-.16677.5831-.28268 1.1208-.35694 1.5119-.03727.1963-.06437.3574-.08237.4709-.00977.0616-.01893.1234-.02765.1852l-.00023.0016c-.04129.3089.0637.6197.28402.84.22033.2204.53163.3253.84047.284.0622-.0088.12433-.018.18637-.0278.11353-.018.27461-.0451.47087-.0824.39114-.0742.92888-.1902 1.51191-.3569.57985-.1659 1.22539-.3879 1.82357-.6801.58631-.2864 1.19598-.673 1.63865-1.1995 1.02103-1.2092 1.03627-3.0926-.15214-4.266l-.01215-.0118c-.56699-.5411-1.31387-.8538-2.0973-.8781z" fill-rule="evenodd"/></g></svg>