<svg fill="none" height="24" viewBox="0 0 24 24" width="24" xmlns="http://www.w3.org/2000/svg"><path d="m5.4162 1.00004c-.38069-.0003-.70853-.000561-1.00138.05769-1.19008.23672-2.12037 1.16701-2.35709 2.35709-.05825.29285-.05799.62068-.05769 1.00138l.00005.08389-.00005.08388c-.0003.3807-.00056.70854.05769 1.00139.23672 1.19007 1.16701 2.12036 2.35709 2.35708.29285.05826.62068.05799 1.00138.05769h11.1678c.3807.0003.7085.00057 1.0014-.05769 1.19-.23672 2.1203-1.16701 2.357-2.35708.0048-.02406.0092-.04836.0132-.0729.0243.00128.0478.00269.0706.00425.228.01556.3149.04217.3565.05941.245.1015.4397.29617.5412.5412.0172.04161.0438.12844.0594.35644.0162.23698.0167.54662.0167 1.02624v.3c0 .57655-.0008.94883-.0239 1.23217-.0222.27166-.0599.37238-.0851.42182-.0959.18816-.2488.34114-.437.43702-.0495.02519-.1502.06287-.4218.08506-.2834.02315-.6556.02393-1.2322.02393h-3.6385c-.5272-.00002-.982-.00003-1.3565.0306-.3954.0323-.7886.1036-1.167.2964-.5645.2876-1.0234.7465-1.311 1.311-.1928.3784-.2641.7716-.2964 1.167-.0276.3378-.0303.7407-.0306 1.2032-.0476.0023-.0938.0051-.1382.0088-.2286.0186-.4984.0627-.7698.201-.3763.1917-.68226.4977-.87401.874-.1383.2714-.18236.5412-.20104.7698-.01701.2081-.01698.4539-.01695.7063v3.8638c-.00003.2524-.00006.4982.01695.7063.01868.2286.06274.4984.20104.7698.19175.3763.49771.6823.87401.874.2714.1383.5412.1824.7698.2011.2081.017.4539.0169.7063.0169h.8638c.2524 0 .4982.0001.7063-.0169.2286-.0187.4984-.0628.7698-.2011.3763-.1917.6823-.4977.874-.874.1383-.2714.1824-.5412.2011-.7698.017-.2081.0169-.4539.0169-.7063v-3.8638c0-.2524.0001-.4982-.0169-.7063-.0187-.2286-.0628-.4984-.2011-.7698-.1917-.3763-.4977-.6823-.874-.874-.2714-.1383-.5412-.1824-.7698-.201-.0444-.0037-.0906-.0065-.1381-.0088.0004-.4696.0034-.7898.0238-1.0404.0222-.2716.0599-.3723.0851-.4218.0959-.1882.2488-.3411.437-.437.0495-.0252.1502-.0629.4218-.0851.2834-.0231.6556-.0239 1.2322-.0239h3.6385c.5272 0 .982 0 1.3565-.0306.3954-.0323.7886-.1036 1.167-.2964.5645-.2876 1.0234-.7465 1.311-1.311.1928-.37841.2641-.77163.2964-1.16697.0306-.37453.0306-.82924.0306-1.35632v-.3707c0-.43865 0-.81713-.0213-1.13039-.0226-.32983-.0721-.65974-.2071-.98567-.3044-.73508-.8885-1.31911-1.6235-1.62359-.326-.135-.6559-.18451-.9857-.20701-.0649-.00443-.1326-.00794-.2031-.01072-.005-.03236-.0106-.06429-.0169-.09581-.2367-1.19008-1.167-2.12037-2.357-2.35709-.2929-.058251-.6207-.05799-1.0014-.05769z" fill="#801ed7"/></svg>