<svg fill="none" height="24" viewBox="0 0 24 24" width="24" xmlns="http://www.w3.org/2000/svg"><g fill="#801ed7"><path d="m1 5c0-2.20914 1.79086-4 4-4s4 1.79086 4 4-1.79086 4-4 4-4-1.79086-4-4z"/><path d="m15 19c0-2.2091 1.7909-4 4-4s4 1.7909 4 4-1.7909 4-4 4-4-1.7909-4-4z"/><path d="m15.3531 6.06507c-.7832-.06424-1.8762-.06507-3.4187-.06507h-.4344c-.5523 0-1-.44771-1-1 0-.55228.4477-1 1-1h.4847c1.4811-.00001 2.6568-.00002 3.5319.07176.4457.03655.8583.09469 1.2195.19696.3601.10199.7313.2649 1.0349.55221.7499.70962 1.0822 1.75499.8798 2.76739-.082.4099-.2909.7572-.5261 1.04846-.2358.29204-.539.57777-.8818.86499-.673.56393-1.6329 1.24283-2.8421 2.09813l-2.0642 1.4601-.0091.0065-2.0323 1.4375c-1.25929.8907-2.15117 1.5225-2.75352 2.0273-.29871.2503-.49117.4409-.61027.5884-.09858.1221-.11949.1813-.12162.1875-.06593.3354.04402.6812.29153.917.00534.0038.05658.0401.20756.0828.18242.0517.44962.0962.83803.128.78323.0643 1.87629.0651 3.41869.0651h.9344c.5523 0 1 .4477 1 1s-.4477 1-1 1h-.9846c-1.4811 0-2.65686 0-3.53198-.0718-.4457-.0365-.8583-.0947-1.21946-.1969-.36017-.102-.73128-.2649-1.03491-.5523-.74992-.7096-1.08225-1.7549-.87979-2.7673.08198-.4099.29088-.7572.52604-1.0485.23579-.292.53908-.5778.88184-.865.29357-.246.64172-.5139 1.04134-.8087.03791-.0372.0793-.0719.12408-.1036l5.78224-4.08989c1.2593-.89071 2.1512-1.52256 2.7536-2.0273.2987-.25029.4911-.44091.6102-.58842.0986-.12208.1195-.18126.1216-.1875.066-.33539-.044-.68125-.2915-.91699-.0053-.00384-.0565-.04008-.2076-.08284-.1824-.05166-.4496-.09614-.838-.12799z"/></g></svg>