<svg fill="none" height="24" viewBox="0 0 24 24" width="24" xmlns="http://www.w3.org/2000/svg"><g fill="#801ed7"><path d="m20.4 7c.5742 0 .8612 0 1.0781-.11276.1874-.09742.346-.26049.4383-.45047.1067-.21989.0992-.49215.0843-1.03669-.0055-.19882-.0151-.39729-.0313-.5951-.0323-.39535-.1036-.78857-.2964-1.16695-.2876-.56448-.7466-1.02343-1.311-1.31105-.3784-.19279-.7716-.26411-1.167-.29641-.3745-.0306-.8293-.03059-1.3564-.03057h-11.67715c-.52714-.00002-.98192-.00003-1.35649.03057-.39534.0323-.78856.10362-1.16694.29641-.56449.28762-1.02343.74656-1.31105 1.31105-.19279.37838-.26411.7716-.29641 1.16694-.01616.19781-.0258.39629-.03126.59511-.01496.54454-.02244.8168.08432 1.0367.09224.18997.25089.35303.43826.45046.21687.11276.50395.11276 1.07811.11276z"/><path d="m3.59999 9c-.56005 0-.84008 0-1.05399.10899-.18816.09588-.34114.24886-.43702.43702-.10899.21391-.10899.49389-.10899 1.05399v2.8c0 .5601 0 .8401.10899 1.054.09588.1882.24886.3411.43702.437.21391.109.49394.109 1.05399.109h16.80001c.56 0 .8401 0 1.054-.109.1881-.0959.3411-.2488.437-.437.109-.2139.109-.4939.109-1.054v-2.8c0-.5601 0-.84008-.109-1.05399-.0959-.18816-.2489-.34114-.437-.43702-.2139-.10899-.494-.10899-1.054-.10899z"/><path d="m22.0007 18.5999c.0149-.5445.0224-.8168-.0843-1.0367-.0923-.1899-.2509-.353-.4383-.4504-.2169-.1128-.5039-.1128-1.0781-.1128h-16.80001c-.57416 0-.86124 0-1.07811.1128-.18737.0974-.34602.2605-.43826.4504-.10676.2199-.09928.4922-.08432 1.0367.00546.1988.0151.3973.03126.5951.0323.3954.10362.7886.29641 1.167.28762.5645.74656 1.0234 1.31105 1.311.37838.1928.7716.2641 1.16694.2964.37457.0306.82932.0306 1.35646.0306h11.67718c.5271 0 .9819 0 1.3564-.0306.3954-.0323.7886-.1036 1.167-.2964.5644-.2876 1.0234-.7465 1.311-1.311.1928-.3784.2641-.7716.2964-1.167.0162-.1978.0258-.3963.0313-.5951z"/></g></svg>