<svg fill="none" height="24" viewBox="0 0 24 24" width="24" xmlns="http://www.w3.org/2000/svg"><g clip-rule="evenodd" fill="#801ed7" fill-rule="evenodd"><path d="m22 17.1615v.677c0 .5272 0 .982-.0306 1.3565-.0323.3954-.1036.7886-.2964 1.167-.2876.5645-.7465 1.0234-1.311 1.311-.3784.1928-.7716.2641-1.167.2964-.3745.0306-.8293.0306-1.3565.0306h-11.67702c-.52716 0-.98193 0-1.35651-.0306-.39534-.0323-.78856-.1036-1.16694-.2964-.56449-.2876-1.02343-.7465-1.31105-1.311-.19279-.3784-.26411-.7716-.29641-1.167-.0306-.3745-.03059-.8293-.03057-1.3564v-.6772c-.00002-.5271-.00003-.9819.03057-1.3564.0323-.3954.10362-.7886.29641-1.167.28762-.5645.74656-1.0234 1.31105-1.311.37838-.1928.7716-.2641 1.16694-.2964.37458-.0306.82934-.0306 1.35649-.0306h11.67704c.5272 0 .982 0 1.3565.0306.3954.0323.7886.1036 1.167.2964.5645.2876 1.0234.7465 1.311 1.311.1928.3784.2641.7716.2964 1.167.0306.3745.0306.8293.0306 1.3565z"/><path d="m22 6.16146v.67709c0 .52714 0 .98191-.0306 1.35648-.0323.39535-.1036.78856-.2964 1.16694-.2876.56449-.7465 1.02343-1.311 1.31103-.3784.1928-.7716.2641-1.167.2964-.3745.0306-.8293.0306-1.3565.0306h-11.67702c-.52716 0-.98193 0-1.35651-.0306-.39534-.0323-.78856-.1036-1.16694-.2964-.56449-.2876-1.02343-.74654-1.31105-1.31103-.19279-.37838-.26411-.7716-.29641-1.16694-.0306-.37457-.03059-.82932-.03057-1.35646v-.67713c-.00002-.52714-.00003-.9819.03057-1.35647.0323-.39534.10362-.78856.29641-1.16694.28762-.56449.74656-1.02343 1.31105-1.31105.37838-.19279.7716-.26411 1.16694-.29641.37458-.0306.82934-.03059 1.35649-.03057h11.67704c.5272-.00002.982-.00003 1.3565.03057.3954.0323.7886.10362 1.167.29641.5645.28762 1.0234.74656 1.311 1.31105.1928.37838.2641.7716.2964 1.16694.0306.37458.0306.82934.0306 1.35649z"/></g></svg>