<svg fill="none" height="24" viewBox="0 0 24 24" width="24" xmlns="http://www.w3.org/2000/svg"><g clip-rule="evenodd" fill="#801ed7" fill-rule="evenodd"><path d="m3 11c0-.5523.44772-1 1-1 2.65216 0 5.1957 1.0536 7.0711 2.9289 1.8753 1.8754 2.9289 4.4189 2.9289 7.0711 0 .5523-.4477 1-1 1s-1-.4477-1-1c0-2.1217-.8429-4.1566-2.34315-5.6569-1.50029-1.5002-3.53512-2.3431-5.65685-2.3431-.55228 0-1-.4477-1-1z"/><path d="m3 4c0-.55228.44772-1 1-1 4.50868 0 8.8327 1.79107 12.0208 4.97919 3.1881 3.18811 4.9792 7.51211 4.9792 12.02081 0 .5523-.4477 1-1 1s-1-.4477-1-1c0-3.9782-1.5804-7.7936-4.3934-10.6066-2.813-2.81305-6.62835-4.3934-10.6066-4.3934-.55228 0-1-.44772-1-1z"/><path d="m3 19c0-1.1046.89543-2 2-2s2 .8954 2 2-.89543 2-2 2-2-.8954-2-2z"/></g></svg>