<svg fill="none" height="24" viewBox="0 0 24 24" width="24" xmlns="http://www.w3.org/2000/svg"><g clip-rule="evenodd" fill="#801ed7" fill-rule="evenodd"><path d="m2 19c0-1.6566 1.34337-3 3-3s3 1.3434 3 3c0 1.6567-1.34337 3-3 3s-3-1.3433-3-3z"/><path d="m8.51797 15.4814c-1.18364-1.1837-3.03729-1.8206-5.36904-1.47-.54615.0821-1.05545-.2941-1.13757-.8402-.08212-.5462.29405-1.0555.8402-1.1376 2.85322-.429 5.37738.3302 7.08069 2.0337 1.70325 1.7034 2.46245 4.2277 2.03405 7.0808-.082.5462-.5912.9225-1.1374.8405s-.92243-.5913-.84043-1.1374c.35013-2.3319-.28682-4.186-1.4705-5.3698z"/><path d="m12.0431 11.9569c-2.11662-2.11659-5.24866-3.28685-8.94511-2.9238-.54964.05398-1.03897-.34783-1.09296-.89747-.05398-.54964.34783-1.03897.89747-1.09296 4.24131-.41655 7.98.92524 10.5548 3.50003 2.5748 2.5748 3.9166 6.3135 3.5 10.5548-.054.5496-.5433.9514-1.0929.8975-.5497-.054-.9515-.5433-.8975-1.093.363-3.6964-.8072-6.8285-2.9238-8.9451z"/><path d="m19.9506 20.9273c.7342-10.0834-6.7944-17.61197-16.87774-16.87778-.55082.0401-1.02987-.37392-1.06998-.92474-.0401-.55083.37392-1.02988.92474-1.06998 11.29998-.82277 19.84048 7.71768 19.01768 19.0177-.0401.5508-.5191.9648-1.07.9247-.5508-.0401-.9648-.5191-.9247-1.0699z"/></g></svg>