<svg fill="none" height="24" viewBox="0 0 24 24" width="24" xmlns="http://www.w3.org/2000/svg"><path clip-rule="evenodd" d="m17.4634 1.28045c-.3012-.09789-.6257-.09789-.927 0-.2326.07558-.4012.20113-.5123.29542-.0958.08134-.1963.18192-.2805.26615l-13.90145 13.90148c-.08426.0842-.1849.1847-.26628.2806-.09429.1111-.21984.2797-.29542.5123-.09789.3013-.09789.6258 0 .927.07558.2327.20113.4013.29542.5124.08136.0958.18197.1963.26622.2805l3.9014 3.9014c.0842.0843.18475.1849.2806.2663.11108.0943.27967.2198.51231.2954.30126.0979.62579.0979.92705 0 .23263-.0756.40123-.2011.51231-.2954.09584-.0814.19639-.182.28058-.2663l13.90136-13.90135c.0843-.08418.1849-.18476.2663-.28059.0943-.11108.2198-.27968.2954-.51231.0979-.30126.0979-.62579 0-.92705-.0756-.23264-.2011-.40123-.2954-.51231-.0814-.09584-.182-.19638-.2663-.28057l-3.9014-3.9014c-.0841-.08425-.1847-.18489-.2805-.26625-.1111-.09429-.2797-.21984-.5124-.29542zm-2.6705 4.51244c.3905-.39052 1.0237-.39052 1.4142 0l1.5 1.5c.3905.39053.3905 1.02369 0 1.41422-.3905.39052-1.0237.39052-1.4142 0l-1.5-1.5c-.3905-.39053-.3905-1.02369 0-1.41422zm-1.5858 3c-.3905-.39052-1.0237-.39052-1.4142 0-.3905.39053-.3905 1.02369 0 1.41421l1.5 1.5c.3905.3905 1.0237.3905 1.4142 0s.3905-1.0237 0-1.4142zm-4.41421 3.00001c.39053-.3905 1.02369-.3905 1.41421 0l1.5 1.5c.3905.3905.3905 1.0237 0 1.4142s-1.0237.3905-1.4142 0l-1.50001-1.5c-.39052-.3905-.39052-1.0237 0-1.4142zm-1.58578 3c-.39053-.3905-1.02369-.3905-1.41422 0-.39052.3905-.39052 1.0237 0 1.4142l1.5 1.5c.39053.3905 1.02369.3905 1.41422 0 .39052-.3905.39052-1.0237 0-1.4142z" fill="#801ed7" fill-rule="evenodd"/></svg>