<svg fill="none" height="24" viewBox="0 0 24 24" width="24" xmlns="http://www.w3.org/2000/svg"><g fill="#801ed7"><path d="m7.5 10.5c0-.82843.67157-1.5 1.5-1.5s1.5.67157 1.5 1.5c0 .8284-.67157 1.5-1.5 1.5s-1.5-.6716-1.5-1.5z"/><path clip-rule="evenodd" d="m17.8385 2h-11.67704c-.52711-.00002-.98193-.00003-1.35648.03057-.39535.0323-.78857.10362-1.16695.29641-.56448.28762-1.02343.74657-1.31105 1.31105-.19279.37838-.26411.7716-.29641 1.16695-.0306.37455-.03059.82928-.03057 1.3564v8.67712c-.00002.5272-.00003.982.03057 1.3565.0323.3954.10362.7886.29641 1.167.28762.5645.74657 1.0234 1.31105 1.311.37838.1928.7716.2641 1.16694.2964.37454.0306.82926.0306 1.35635.0306h11.67718c.5271 0 .982 0 1.3565-.0306.3954-.0323.7886-.1036 1.167-.2964.5645-.2876 1.0234-.7465 1.311-1.311.1928-.3784.2641-.7716.2964-1.167.0306-.3745.0306-.8293.0306-1.3564v-8.67716c0-.52714 0-.9819-.0306-1.35646-.0323-.39535-.1036-.78857-.2964-1.16695-.2876-.56448-.7465-1.02342-1.311-1.31104-.3784-.1928-.7716-.26411-1.167-.29642-.3745-.0306-.8293-.03058-1.3565-.03057zm.6615 4.5c0-.55228-.4477-1-1-1s-1 .44772-1 1v8c0 .5523.4477 1 1 1s1-.4477 1-1zm-9.5.5c-1.933 0-3.5 1.567-3.5 3.5s1.567 3.5 3.5 3.5 3.5-1.567 3.5-3.5-1.567-3.5-3.5-3.5z" fill-rule="evenodd"/><path d="m5 21c0-.5523.44772-1 1-1h3c.55229 0 1 .4477 1 1s-.44771 1-1 1h-3c-.55228 0-1-.4477-1-1z"/><path d="m14 21c0-.5523.4477-1 1-1h3c.5523 0 1 .4477 1 1s-.4477 1-1 1h-3c-.5523 0-1-.4477-1-1z"/></g></svg>