<svg fill="none" height="24" viewBox="0 0 24 24" width="24" xmlns="http://www.w3.org/2000/svg"><path clip-rule="evenodd" d="m8.86585 2.1543c1.80605-1.539068 4.46225-1.539068 6.26825 0 .4536.38655 1.0176.62016 1.6117.66756 2.3653.18876 4.2436 2.06703 4.4323 4.43236.0474.59407.281 1.15804.6676 1.61163 1.5391 1.80605 1.5391 4.46225 0 6.26825-.3866.4536-.6202 1.0176-.6676 1.6117-.1887 2.3653-2.067 4.2436-4.4323 4.4323-.5941.0474-1.1581.281-1.6117.6676-1.806 1.5391-4.4622 1.5391-6.26825 0-.45359-.3866-1.01756-.6202-1.61163-.6676-2.36533-.1887-4.2436-2.067-4.43236-4.4323-.0474-.5941-.28101-1.1581-.66756-1.6117-1.539068-1.806-1.539068-4.4622 0-6.26825.38655-.45359.62016-1.01756.66756-1.61163.18876-2.36533 2.06703-4.2436 4.43236-4.43236.59407-.0474 1.15804-.28101 1.61163-.66756zm7.84125 6.55281c.3905-.39053.3905-1.02369 0-1.41422-.3905-.39052-1.0237-.39052-1.4142 0l-8.00001 8.00001c-.39052.3905-.39052 1.0237 0 1.4142.39053.3905 1.02369.3905 1.41422 0zm-9.2071.29289c0-.82843.67157-1.5 1.5-1.5s1.5.67157 1.5 1.5-.67157 1.5-1.5 1.5-1.5-.67157-1.5-1.5zm6 6c0-.8284.6716-1.5 1.5-1.5s1.5.6716 1.5 1.5-.6716 1.5-1.5 1.5-1.5-.6716-1.5-1.5z" fill="#801ed7" fill-rule="evenodd"/></svg>