<svg fill="none" height="24" viewBox="0 0 24 24" width="24" xmlns="http://www.w3.org/2000/svg"><path clip-rule="evenodd" d="m14.5305 2.39393-1.2475-.95786c-.7563-.580882-1.8099-.582134-2.5667.00049l-1.24498.95598c-.02396.01795-.05466.02631-.08364.02267l-1.56035-.20532c-.9462-.12472-1.85708.40246-2.22221 1.28264l-.59934 1.4518c-.01188.0277-.03394.04975-.06161.06162l-1.45171.59936c-.88018.36518-1.40732 1.2757-1.28263 2.22185l.20531 1.56042c.00374.02967-.00456.05927-.02102.08094l-.95802 1.24788c-.29064.3784-.436238.832-.4361 1.284-.000138.4521.14546.9047.4361 1.2832l.95802 1.2478c.01646.0217.02476.0513.02102.0809l-.20531 1.5605c-.12469.9461.40245 1.8566 1.28263 2.2218l1.45171.5994c.02767.0118.04973.0339.06161.0616l.59934 1.4518c.36513.8802 1.27601 1.4074 2.22221 1.2826l1.56035-.2053c.02898-.0036.05968.0047.08364.0227l1.24498.956c.7568.5826 1.8104.5813 2.5667.0005l1.2475-.9579c.0218-.0166.0489-.0234.0737-.02l.0057.0008 1.5617.2055c.9447.1245 1.8586-.4013 2.223-1.2846l.6011-1.4534c.0107-.026.0306-.0459.0566-.0566l.001-.0005 1.4542-.6015c.8802-.3652 1.4074-1.2757 1.2827-2.2218l-.2058-1.5642c-.0036-.0267.0034-.0548.0213-.078l.9574-1.247c.2916-.3786.4371-.8325.4369-1.2847.0002-.4523-.1453-.9062-.4369-1.2847l-.9574-1.24706c-.0179-.02325-.0249-.05133-.0213-.07805l.2058-1.56414c.1247-.94615-.4025-1.85667-1.2827-2.22185l-1.4542-.6015-.001-.00045c-.026-.01068-.0459-.03063-.0566-.05658l-.6011-1.45347c-.3644-.88328-1.2783-1.40906-2.223-1.28454l-1.5617.20548-.0057.00078c-.0248.00341-.0519-.00341-.0737-.01999zm2.1766 6.31318c.3905-.39053.3905-1.02369 0-1.41422-.3905-.39052-1.0237-.39052-1.4142 0l-8.00001 8.00001c-.39052.3905-.39052 1.0237 0 1.4142.39053.3905 1.02369.3905 1.41422 0zm-9.2071.29289c0-.82843.67157-1.5 1.5-1.5s1.5.67157 1.5 1.5-.67157 1.5-1.5 1.5-1.5-.67157-1.5-1.5zm6 6c0-.8284.6716-1.5 1.5-1.5s1.5.6716 1.5 1.5-.6716 1.5-1.5 1.5-1.5-.6716-1.5-1.5z" fill="#801ed7" fill-rule="evenodd"/></svg>