<svg fill="none" height="24" viewBox="0 0 24 24" width="24" xmlns="http://www.w3.org/2000/svg"><path clip-rule="evenodd" d="m7.53953 1.23085c.74308-.307801 1.578-.307802 2.32108 0l1.74309.72205c.253.10443.5373.1043.7901-.00059l.002-.00082 1.7446-.71957c.7428-.307391 1.5779-.307491 2.3207.00017.7429.30775 1.3332.89797 1.641 1.64086l.7052 1.70257c.0063.01344.0123.02707.018.04089.1045.25283.3051.45383.5577.55889l1.7449.7228c.7431.30781 1.3335.8982 1.6413 1.64129.3077.74308.3077 1.578 0 2.32109l-.7224 1.74402c-.1051.2536-.1048.5378 0 .7895l.0008.0021.7208 1.7427c.1525.368.2312.7627.2312 1.161.0001.3984-.0783.7929-.2308 1.161s-.3759.7026-.6577.9842c-.2817.2816-.6161.505-.9841.6574l-1.744.7223c-.2527.1045-.4542.3053-.5593.5577l-.7229 1.7453c-.3078.7431-.8981 1.3335-1.6412 1.6413s-1.578.3078-2.3211 0l-1.7431-.7221c-.253-.1045-.5372-.1043-.7901.0006l-.001.0005-1.74518.7218c-.74267.3071-1.57697.3069-2.31945-.0007-.74247-.3075-1.33251-.8972-1.6405-1.6395l-.72334-1.7463c-.10461-.2531-.30566-.4547-.55849-.5597l-1.74437-.7226c-.74276-.3077-1.33295-.8977-1.64084-1.6404-.307903-.7426-.308321-1.5771-.00117-2.3201l.72228-1.7438c.10443-.253.1043-.5374-.00059-.7902l-.72144-1.74675c-.15242-.36787-.23115-.76276-.23121-1.16096-.000064-.39841.07838-.79294.23084-1.16103s.37596-.70253.65772-.98421c.28169-.28161.61609-.50497.98411-.65732l1.74393-.72239c.25256-.10443.454-.30497.55915-.55725l.72255-1.74445c.30778-.74309.89815-1.33348 1.64123-1.64129zm9.16757 7.47626c.3905-.39053.3905-1.02369 0-1.41422-.3905-.39052-1.0237-.39052-1.4142 0l-8.00001 8.00001c-.39052.3905-.39052 1.0237 0 1.4142.39053.3905 1.02369.3905 1.41422 0zm-9.2071.29289c0-.82843.67157-1.5 1.5-1.5s1.5.67157 1.5 1.5-.67157 1.5-1.5 1.5-1.5-.67157-1.5-1.5zm6 6c0-.8284.6716-1.5 1.5-1.5s1.5.6716 1.5 1.5-.6716 1.5-1.5 1.5-1.5-.6716-1.5-1.5z" fill="#801ed7" fill-rule="evenodd"/></svg>