<svg fill="none" height="24" viewBox="0 0 24 24" width="24" xmlns="http://www.w3.org/2000/svg"><path clip-rule="evenodd" d="m15.8719 2.08299c-.3484-.08365-.7072-.08332-1.1141-.08294l-6.9991.00005c-.80497-.00001-1.46933-.00002-2.01052.0442-.5621.04592-1.07881.14448-1.56414.39178-.75265.38349-1.36457.99541-1.74806 1.74806-.2473.48534-.34586 1.00204-.39179 1.56414-.04421.54119-.0442 1.20554-.04419 2.01051v8.48261c-.00001.805-.00002 1.4693.04419 2.0105.04593.5621.14449 1.0788.39179 1.5642.38349.7526.99541 1.3645 1.74806 1.748.48533.2473 1.00204.3459 1.56414.3918.54118.0442 1.20554.0442 2.0105.0442h8.48262c.805 0 1.4693 0 2.0105-.0442.5621-.0459 1.0788-.1445 1.5642-.3918.7526-.3835 1.3645-.9954 1.748-1.748.2473-.4854.3459-1.0021.3918-1.5642.0442-.5412.0442-1.2055.0442-2.0105l.0001-6.99911c.0003-.4069.0007-.76565-.083-1.1141-.0735-.30611-.1947-.59874-.3592-.86716-.1872-.30554-.4411-.55898-.7291-.84643l-3.2433-3.24329c-.2875-.28798-.5409-.54189-.8464-.72913-.2684-.16448-.5611-.2857-.8672-.35919zm-.4669 1.94464c-.0883-.0212-.1937-.02763-.7305-.02763h-6.8745c-.29784 0-.56251.00009-.8.00176v2.39814c0 .56005 0 .84008.10899 1.05399.09588.18816.24886.34114.43702.43701.21391.109.49394.109 1.05399.109h6.8c.5601 0 .8401 0 1.054-.109.1882-.09587.3411-.24885.437-.43701.109-.21391.109-.49394.109-1.05399v-.98569l-.7698-.76985c-.3796-.37956-.4587-.44954-.5361-.497-.0895-.05483-.187-.09523-.2891-.11973zm-6.805 8.97227h6.8c.5601 0 .8401 0 1.054.109.1882.0959.3411.2488.437.437.109.2139.109.4939.109 1.054v5.4h-10v-5.4c0-.5601 0-.8401.10899-1.054.09588-.1882.24886-.3411.43702-.437.21391-.109.49394-.109 1.05399-.109z" fill="#801ed7" fill-rule="evenodd"/></svg>