<svg fill="none" height="24" viewBox="0 0 24 24" width="24" xmlns="http://www.w3.org/2000/svg"><path clip-rule="evenodd" d="m15.8719 2.08299c-.3484-.08365-.7072-.08332-1.1141-.08294l-6.9991.00005c-.80497-.00001-1.46933-.00002-2.01052.0442-.5621.04592-1.07881.14448-1.56414.39178-.75265.38349-1.36457.99541-1.74806 1.74806-.2473.48534-.34586 1.00204-.39179 1.56414-.04421.54119-.0442 1.20554-.04419 2.01051v8.48261c-.00001.805-.00002 1.4693.04419 2.0105.04593.5621.14449 1.0788.39179 1.5642.38349.7526.99541 1.3645 1.74806 1.748.48533.2473 1.00204.3459 1.56414.3918.54118.0442 1.20554.0442 2.0105.0442h8.48262c.805 0 1.4693 0 2.0105-.0442.5621-.0459 1.0788-.1445 1.5642-.3918.7526-.3835 1.3645-.9954 1.748-1.748.2473-.4854.3459-1.0021.3918-1.5642.0442-.5412.0442-1.2055.0442-2.0105l.0001-6.99911c.0003-.4069.0007-.76565-.083-1.1141-.0735-.30611-.1947-.59874-.3592-.86716-.1872-.30554-.4411-.55898-.7291-.84643l-3.2433-3.24329c-.2875-.28798-.5409-.54189-.8464-.72913-.2684-.16448-.5611-.2857-.8672-.35919zm-8.87189 1.91701c.55228 0 1 .44772 1 1v2h8.99999c.5523 0 1 .44772 1 1s-.4477 1-1 1h-8.43189c-.25238.00003-.49818.00006-.70633-.01695-.2286-.01867-.49833-.06274-.76976-.20104-.37632-.19174-.68228-.4977-.87403-.87403-.13829-.27142-.18236-.54116-.20104-.76975-.01701-.20815-.01698-.45394-.01695-.70632l.00001-1.43191c0-.55228.44771-1 1-1zm8.39999 9h-6.8c-.56005 0-.84008 0-1.05399.109-.18816.0959-.34114.2488-.43702.437-.10899.2139-.10899.4939-.10899 1.054v5.4h10v-5.4c0-.5601 0-.8401-.109-1.054-.0959-.1882-.2488-.3411-.437-.437-.2139-.109-.4939-.109-1.054-.109z" fill="#801ed7" fill-rule="evenodd"/></svg>