<svg fill="none" height="24" viewBox="0 0 24 24" width="24" xmlns="http://www.w3.org/2000/svg"><g clip-rule="evenodd" fill="#801ed7" fill-rule="evenodd"><path d="m15.405 4.02773c-.0883-.0212-.1937-.02763-.7305-.02763h-7.6745c-.55228 0-1-.44771-1-1 0-.55228.44772-1 1-1h7.6745c.028 0 .0558-.00002.0833-.00005.4069-.00038.7657-.00071 1.1141.08294.3061.07349.5988.19471.8672.35919.3055.18724.5589.44115.8464.72913.0195.0195.0391.03915.0589.05894l3.1254 3.12549c.0198.0198.0395.03941.059.05887.288.28745.5419.54088.7291.84642.1645.26842.2857.56105.3592.86716.0837.34845.0833.70719.083 1.11409-.0001.02754-.0001.05531-.0001.0833v7.67452c0 .5523-.4477 1-1 1s-1-.4477-1-1v-7.67452c0-.53677-.0064-.64218-.0276-.7305-.0245-.10203-.0649-.19958-.1198-.28905-.0474-.07744-.1174-.15652-.497-.53608l-3.1254-3.12548c-.3796-.37956-.4587-.44955-.5361-.49701-.0895-.05483-.187-.09523-.2891-.11973z"/><path d="m13.8883 5.49996c.1899-.00051.429-.00115.6644.05535.2041.04899.3991.1298.5781.23946.2063.12645.375.296.5089.43065l.036.03615 2.0628 2.06274.0361.03603c.1347.13393.3042.30257.4307.50893.1096.17894.1904.37403.2394.5781.0565.23531.0559.47448.0554.66443l-.0001.051v7.6759c0 .5271 0 .9818-.0306 1.3564-.0323.3953-.1036.7885-.2964 1.1669-.2876.5645-.7465 1.0234-1.311 1.3111-.3784.1928-.7716.2641-1.167.2964-.3745.0306-.8294.0306-1.3565.0305h-8.17714c-.5271.0001-.98184.0001-1.35638-.0305-.39535-.0323-.78857-.1036-1.16695-.2964-.56448-.2877-1.02343-.7466-1.31105-1.3111-.19279-.3784-.26411-.7716-.29641-1.1669-.0306-.3746-.03059-.8294-.03057-1.3565v-8.17713c-.00002-.52712-.00003-.9819.03057-1.35645.0323-.39534.10362-.78856.29641-1.16694.28762-.56449.74657-1.02343 1.31105-1.31105.37838-.19279.7716-.26411 1.16695-.29641.37457-.03061.82933-.03059 1.35648-.03057h7.67584zm-1.9883 9.50014h-3.3c-.56005 0-.84008 0-1.05399.109-.18816.0959-.34114.2488-.43701.437-.109.2139-.109.4939-.109 1.054v3.4h6.5v-3.4c0-.5601 0-.8401-.109-1.054-.0959-.1882-.2488-.3411-.437-.437-.2139-.109-.4939-.109-1.054-.109zm-3.9-6.5c0-.55228-.44771-1-1-1-.55228 0-1 .44772-1 1v.02648c-.00002.21004-.00004.41467.01184.58875.01299.19037.04346.4161.14041.65014.20298.49003.59233.87943 1.08239 1.08243.23404.0969.45977.1274.65014.1404.17408.0118.37871.0118.58875.0118h4.02647c.5523 0 1-.4477 1-1 0-.55228-.4477-1-1-1h-4.5z"/></g></svg>