<svg fill="none" height="24" viewBox="0 0 24 24" width="24" xmlns="http://www.w3.org/2000/svg"><g fill="#801ed7"><path d="m8.64494 5.5-4.64494.00001c-.55228 0-1-.44772-1-1 0-.55229.44771-1 1-1l4.64494-.00001c.43027-1.44574 1.76956-2.5 3.35506-2.5s2.9248 1.05426 3.3551 2.5h4.6449c.5523 0 1 .44772 1 1 0 .55229-.4477 1-1 1h-4.6449c-.336 1.12889-1.2262 2.01909-2.3551 2.35506v12.14494h7c.5523 0 1 .4477 1 1s-.4477 1-1 1h-16c-.55228 0-1-.4477-1-1s.44772-1 1-1h7v-12.14494c-1.12889-.33597-2.01909-1.22617-2.35506-2.35506z"/><g clip-rule="evenodd" fill-rule="evenodd"><path d="m5.49998 7c.33894 0 .65481.17168.83916.4561l3.0038 4.6344c.16286.2511.30967.4773.43029.8342.05221.1545.08909.3467.11131.4845.02223.1379.04758.3319.04655.495-.00089.1417-.00587.2684-.02247.3924-.01664.1244-.04229.2223-.05821.2831l-.00244.0094c-.50835 1.9464-2.2466 3.4109-4.34799 3.4109-2.10138 0-3.83964-1.4645-4.34798-3.4109l-.00241-.0093c-.01592-.0607-.04159-.1588-.05824-.2832-.0166-.124-.02158-.2507-.02247-.3924-.00103-.1631.02432-.3571.04654-.495.02223-.1378.05911-.33.11132-.4845.12062-.3569.26743-.5831.43029-.8342l3.0038-4.6344c.18435-.28442.50022-.4561.83915-.4561zm0 2.83859-1.40091 2.16141h2.80183z"/><path d="m19.3391 7.4561c-.1843-.28442-.5002-.4561-.8391-.4561-.339 0-.6548.17168-.8392.4561l-3.0038 4.6344c-.1628.2511-.3096.4773-.4303.8342-.0522.1545-.0891.3467-.1113.4845-.0222.1379-.0475.3319-.0465.495.0009.1417.0059.2684.0225.3924.0166.1244.0423.2224.0582.2832l.0024.0093c.5083 1.9464 2.2466 3.4109 4.348 3.4109s3.8396-1.4645 4.348-3.4109l.0024-.0093c.0159-.0607.0416-.1588.0582-.2832.0166-.124.0216-.2507.0225-.3924.001-.1631-.0243-.3571-.0466-.495-.0222-.1378-.0591-.33-.1113-.4845-.1206-.3569-.2674-.5831-.4303-.8342zm-2.24 4.5439 1.4009-2.16141 1.4009 2.16141z"/></g></g></svg>