<svg fill="none" height="24" viewBox="0 0 24 24" width="24" xmlns="http://www.w3.org/2000/svg"><path clip-rule="evenodd" d="m7.75868 2c-.80495-.00001-1.46932-.00002-2.0105.0442-.5621.04592-1.0788.14448-1.56414.39178-.75265.38349-1.36457.99541-1.74806 1.74806-.2473.48534-.34586 1.00204-.39178 1.56414-.04422.54118-.04421 1.20555-.0442 2.01051v8.48261c-.00001.805-.00002 1.4693.0442 2.0105.04592.5621.14448 1.0788.39178 1.5642.38349.7526.99541 1.3645 1.74806 1.748.48534.2473 1.00204.3459 1.56414.3918.54119.0442 1.20554.0442 2.0105.0442h8.48262c.805 0 1.4693 0 2.0105-.0442.5621-.0459 1.0788-.1445 1.5642-.3918.7526-.3835 1.3645-.9954 1.748-1.748.2473-.4854.3459-1.0021.3918-1.5642.0442-.5412.0442-1.2055.0442-2.0105v-8.48268c0-.80493 0-1.46927-.0442-2.01044-.0459-.5621-.1445-1.0788-.3918-1.56414-.3835-.75265-.9954-1.36457-1.748-1.74806-.4247-.21638-.8734-.31889-1.3555-.37191-.0689-.00757-.1384-.01413-.2087-.01987-.4798-.03921-1.0564-.04364-1.7419-.04414zm.04132 2h3.3783c-.0852.26461-.1256.53429-.1477.80498-.0306.37455-.0306.82931-.0306 1.35642v2.67717c0 .52711 0 .98191.0306 1.35643.0303.3713.095.7407.2625 1.0977l-3.2931 3.2931v-2.5858c0-.5523-.44771-1-1-1-.55228 0-1 .4477-1 1v5c0 .5523.44772 1 1 1h5c.5523 0 1-.4477 1-1s-.4477-1-1-1h-2.58579l3.29309-3.2931c.357.1675.7264.2322 1.0977.2625.3745.0306.8293.0306 1.3564.0306h2.6771c.5272 0 .982 0 1.3565-.0306.2707-.0221.5404-.0625.805-.1476v3.3782c0 .8566-.0008 1.4389-.0376 1.889-.0358.4384-.1007.6626-.1804.819-.1917.3763-.4977.6823-.874.874-.1564.0797-.3806.1446-.819.1804-.4501.0368-1.0324.0376-1.889.0376h-8.4c-.85658 0-1.43887-.0008-1.88896-.0376-.43842-.0358-.66262-.1007-.81902-.1804-.37632-.1917-.68228-.4977-.87403-.874-.07969-.1564-.14462-.3806-.18044-.819-.03677-.4501-.03755-1.0324-.03755-1.889v-8.4c0-.85658.00078-1.43887.03755-1.88896.03582-.43842.10075-.66262.18044-.81902.19175-.37632.49771-.68228.87403-.87403.1564-.07969.3806-.14462.81902-.18044.45009-.03677 1.03238-.03755 1.88896-.03755z" fill="#801ed7" fill-rule="evenodd"/></svg>