<svg fill="none" height="24" viewBox="0 0 24 24" width="24" xmlns="http://www.w3.org/2000/svg"><g fill="#801ed7"><path d="m7.7587 2h8.4826c.805-.00001 1.4693-.00002 2.0105.04419.5621.04593 1.0788.14449 1.5642.39179.7526.38349 1.3645.99541 1.748 1.74806.2473.48533.3459 1.00204.3918 1.56414.0442.54119.0442 1.20554.0442 2.0105v8.48262c0 .805 0 1.4693-.0442 2.0105-.0459.5621-.1445 1.0788-.3918 1.5642-.3835.7526-.9954 1.3645-1.748 1.748-.4854.2473-1.0021.3459-1.5642.3918-.5412.0442-1.2055.0442-2.0105.0442h-.2413c-.5523 0-1-.4477-1-1s.4477-1 1-1h.2c.8566 0 1.4389-.0008 1.889-.0376.4384-.0358.6626-.1007.819-.1804.3763-.1917.6823-.4977.874-.874.0797-.1564.1446-.3806.1804-.819.0368-.4501.0376-1.0324.0376-1.889v-8.4c0-.85658-.0008-1.43887-.0376-1.88896-.0358-.43842-.1007-.66262-.1804-.81902-.1917-.37632-.4977-.68229-.874-.87403-.1564-.07969-.3806-.14462-.819-.18044-.4501-.03677-1.0324-.03755-1.889-.03755h-8.4c-.85658 0-1.43887.00078-1.88896.03755-.43842.03582-.66262.10075-.81902.18044-.37632.19174-.68228.49771-.87403.87403-.07969.1564-.14462.3806-.18044.81902-.03677.45009-.03755 1.03238-.03755 1.88896v.2c0 .55229-.44771 1-1 1-.55228 0-1-.44771-1-1v-.2413c-.00001-.80496-.00002-1.46933.0442-2.01052.04592-.5621.14448-1.07881.39178-1.56414.38349-.75265.99541-1.36457 1.74806-1.74806.48534-.2473 1.00204-.34586 1.56414-.39179.54119-.04421 1.20556-.0442 2.01052-.04419z"/><path d="m8.83855 11h-2.67709c-.52715 0-.98191 0-1.35649.0306-.39534.0323-.78856.1036-1.16694.2964-.56449.2876-1.02343.7465-1.31105 1.311-.19279.3784-.26411.7716-.29641 1.167-.0306.3745-.03059.8293-.03057 1.3564v2.6771c-.00002.5272-.00003.982.03057 1.3565.0323.3954.10362.7886.29641 1.167.28762.5645.74656 1.0234 1.31105 1.311.37838.1928.7716.2641 1.16694.2964.37454.0306.82926.0306 1.35634.0306h2.67722c.52708 0 .98196 0 1.35647-.0306.3954-.0323.7886-.1036 1.167-.2964.5645-.2876 1.0234-.7465 1.311-1.311.1928-.3784.2641-.7716.2964-1.167.0306-.3745.0306-.8293.0306-1.3564v-2.6771c0-.5272 0-.982-.0306-1.3565-.0303-.3713-.095-.7407-.2625-1.0977l3.2931-3.29309v2.58579c0 .5523.4477 1 1 1s1-.4477 1-1v-5c0-.55228-.4477-1-1-1h-5c-.5523 0-1 .44772-1 1 0 .55229.4477 1 1 1h2.5858l-3.2931 3.2931c-.357-.1675-.7264-.2322-1.0977-.2625-.37454-.0306-.8293-.0306-1.35645-.0306z"/></g></svg>