<svg fill="none" height="24" viewBox="0 0 24 24" width="24" xmlns="http://www.w3.org/2000/svg"><path clip-rule="evenodd" d="m13 3c0-.55228-.4477-1-1-1s-1 .44772-1 1v4.15302l-5.14608.85768c-.06217.00918-.12291.02413-.18153.04446-.12743.044-.24175.11242-.33844.19889-.07929.07079-.14789.15475-.20221.24981l-3.60489 6.30854c-.1312.2292-.24699.4316-.33095.6524-.07388.1942-.12737.3957-.15961.601-.036634.2333-.036491.4665-.03633.7306l.000022.2036c0 .0029.000012.0059.000038.0088.00474 2.7574 2.2415 4.9912 4.99999 4.9912 2.76143 0 4.99999-2.2386 4.99999-5v-.2231c0-.0095 0-.0192 0-.0289 0-.2445-.0019-.4633-.0363-.6822-.0323-.2053-.0858-.4068-.1596-.601-.084-.2208-.1998-.4232-.331-.6524l-2.8925-5.06189 8.506-1.41767-2.5597 4.47956c-.1313.2292-.247.4316-.331.6524-.0739.1942-.1274.3957-.1596.601-.0366.2333-.0365.4664-.0363.7306v.2036.0088c.0048 2.7574 2.2415 4.9912 5 4.9912 2.7614 0 5-2.2386 5-5v-.2231c0-.0123 0-.0249 0-.0377 0-.2409-.0024-.4571-.0363-.6734-.0323-.2053-.0858-.4068-.1596-.601-.084-.2208-.1998-.4232-.331-.6524l-3.5952-6.29162c-.0363-.0664-.0797-.12786-.1291-.18354-.1869-.21122-.4571-.33626-.7454-.33723l-.0034-.00001c-.062 0-.1232.00574-.1829.01684l-4.8171.80285zm7.2768 10-2.2768-3.98444-2.2768 3.98444zm-11.99999 2-2.27683-3.9844-2.27682 3.9844z" fill="#801ed7" fill-rule="evenodd"/></svg>