<svg fill="none" height="24" viewBox="0 0 24 24" width="24" xmlns="http://www.w3.org/2000/svg"><g fill="#801ed7"><path d="m5.86252 1.00005.13758.00005c.55228 0 1 .44771 1 1 0 .55228-.44772 1-1 1-.99436 0-1.29536.00859-1.51764.06814-.69019.18494-1.22928.72403-1.41421 1.41422-.05956.22228-.06815.52328-.06815 1.51764 0 .55228-.44772 1-1 1-.55229 0-1-.44772-1-1l-.00005-.13759c-.000433-.79538-.000753-1.38604.13634-1.89769.36987-1.38037 1.44806-2.45856 2.82843-2.82843.51165-.137093 1.10231-.136773 1.8977-.13634z"/><path d="m19.5177 3.06824c-.2222-.05955-.5233-.06814-1.5176-.06814-.5523 0-1-.44772-1-1 0-.55229.4477-1 1-1l.1376-.00005c.7954-.000433 1.386-.000753 1.8977.13634 1.3803.36987 2.4585 1.44806 2.8284 2.82843.1371.51165.1368 1.10231.1363 1.8977v.13758c0 .55228-.4477 1-1 1s-1-.44772-1-1c0-.99436-.0086-1.29536-.0682-1.51764-.1849-.69019-.724-1.22928-1.4142-1.41422z"/><path d="m9.0001 2.0001c0-.55229.44771-1 1-1h4c.5523 0 1 .44771 1 1 0 .55228-.4477 1-1 1h-4c-.55229 0-1-.44772-1-1z"/><path d="m2.0001 9.0001c.55228 0 1 .44771 1 1v1.5357c.06031-.0348.12164-.0681.18394-.0998.48533-.2473 1.00204-.3459 1.56414-.3918.54119-.0442 1.20554-.0442 2.01051-.0442h.48261c.80496 0 1.46933 0 2.01053.0442.56209.0459 1.07877.1445 1.56417.3918.7526.3835 1.3645.9954 1.748 1.748.2473.4854.3459 1.0021.3918 1.5642.0442.5412.0442 1.2055.0442 2.0105v.4826c0 .805 0 1.4693-.0442 2.0105-.0459.5621-.1445 1.0788-.3918 1.5642-.0317.0623-.0651.1237-.1.1841h1.5361c.5523 0 1 .4477 1 1s-.4477 1-1 1h-7.24133c-.80496 0-1.46931 0-2.0105-.0442-.5621-.0459-1.0788-.1445-1.56414-.3918-.28224-.1438-.54469-.3197-.78273-.5231-.18713-.16-.35916-.3369-.51387-.5285-.17332-.2148-.3249-.448-.45155-.6965-.2473-.4854-.34586-1.0021-.39179-1.5642-.044212-.5412-.044202-1.2055-.04419-2.0105v-.4826c-.000001-.1059-.000003-.2094.0001-.3105v-6.4481c0-.55229.44771-1 1-1z"/><path d="m22.0001 9.0001c.5523 0 1 .44771 1 1v4c0 .5523-.4477 1-1 1s-1-.4477-1-1v-4c0-.55229.4477-1 1-1z"/><path d="m22.0001 17.0001c.5523 0 1 .4477 1 1v.1376c.0005.7954.0008 1.386-.1363 1.8977-.3699 1.3803-1.4481 2.4585-2.8284 2.8284-.5117.1371-1.1023.1368-1.8977.1363h-.1376c-.5523 0-1-.4477-1-1s.4477-1 1-1c.9943 0 1.2954-.0086 1.5176-.0682.6902-.1849 1.2293-.724 1.4142-1.4142.0596-.2222.0682-.5233.0682-1.5176 0-.5523.4477-1 1-1z"/></g></svg>