<svg fill="none" height="24" viewBox="0 0 24 24" width="24" xmlns="http://www.w3.org/2000/svg"><g fill="#801ed7"><path clip-rule="evenodd" d="m6 2c-2.20914 0-4 1.79086-4 4s1.79086 4 4 4c.74181 0 1.43645-.20193 2.03197-.55382l2.55383 2.55382-2.55383 2.5538c-.59552-.3519-1.29016-.5538-2.03197-.5538-2.20914 0-4 1.7909-4 4s1.79086 4 4 4 4-1.7909 4-4c0-.7418-.20193-1.4365-.55382-2.032l2.55382-2.5538 7.2929 7.2929c.3905.3905 1.0237.3905 1.4142 0s.3905-1.0237 0-1.4142l-7.2929-7.2929 7.2929-7.29289c.3905-.39053.3905-1.02369 0-1.41422-.3905-.39052-1.0237-.39052-1.4142 0l-7.2929 7.29291-2.55382-2.55383c.35189-.59552.55382-1.29016.55382-2.03197 0-2.20914-1.79086-4-4-4zm-2 4c0-1.10457.89543-2 2-2s2 .89543 2 2-.89543 2-2 2-2-.89543-2-2zm2 10c-1.10457 0-2 .8954-2 2s.89543 2 2 2 2-.8954 2-2-.89543-2-2-2z" fill-rule="evenodd"/><path d="m16.5 12c0-.5523.4477-1 1-1h.01c.5523 0 1 .4477 1 1s-.4477 1-1 1h-.01c-.5523 0-1-.4477-1-1z"/><path d="m22 11c-.5523 0-1 .4477-1 1s.4477 1 1 1h.01c.5523 0 1-.4477 1-1s-.4477-1-1-1z"/></g></svg>