<svg fill="none" height="24" viewBox="0 0 24 24" width="24" xmlns="http://www.w3.org/2000/svg"><g fill="#801ed7"><path clip-rule="evenodd" d="m3.95717 9.43974c-1.17194-.69751-1.95717-1.97692-1.95717-3.43974 0-2.20914 1.79086-4 4-4s4 1.79086 4 4c0 1.40381-.72316 2.63872-1.81727 3.35252l2.99627 1.52538 9.3673-4.76885c.4922-.25056 1.0943-.0547 1.3448.43748.2506.49218.0547 1.09428-.4374 1.34485l-8.0706 4.10862 8.0706 4.1087c.4922.2505.6881.8526.4375 1.3448s-.8527.688-1.3449.4375l-9.3673-4.7689-2.99627 1.5254c1.09411.7138 1.81727 1.9487 1.81727 3.3525 0 2.2091-1.79086 4-4 4s-4-1.7909-4-4c0-1.4628.78519-2.7422 1.9571-3.4397.02673-.0172.05451-.0333.08333-.0482.09667-.0545.19583-.105.29726-.1514l4.63708-2.3607-4.63717-2.36074c-.10137-.04638-.20047-.09687-.29708-.15126-.02882-.01491-.05661-.03103-.08335-.04826zm.04283-3.43974c0-1.10457.89543-2 2-2s2 .89543 2 2-.89543 2-2 2c-.28698 0-.55984-.06044-.80655-.16929l-.19646-.10002c-.59614-.34623-.99699-.99165-.99699-1.73069zm.99693 10.2693c-.59611.3463-.99693.9917-.99693 1.7307 0 1.1046.89543 2 2 2s2-.8954 2-2-.89543-2-2-2c-.28696 0-.5598.0604-.80649.1693z" fill-rule="evenodd"/><path d="m16.5 12c0-.5523.4477-1 1-1h.01c.5523 0 1 .4477 1 1s-.4477 1-1 1h-.01c-.5523 0-1-.4477-1-1z"/><path d="m22 11c-.5523 0-1 .4477-1 1s.4477 1 1 1h.01c.5523 0 1-.4477 1-1s-.4477-1-1-1z"/></g></svg>