<svg fill="none" height="24" viewBox="0 0 24 24" width="24" xmlns="http://www.w3.org/2000/svg"><path clip-rule="evenodd" d="m10 2c-4.41828 0-8 3.58172-8 8 0 4.4183 3.58172 8 8 8 1.8487 0 3.551-.6271 4.9056-1.6801l5.3873 5.3872c.3905.3905 1.0237.3905 1.4142 0s.3905-1.0237 0-1.4142l-5.3872-5.3873c1.053-1.3546 1.6801-3.0569 1.6801-4.9056 0-4.41828-3.5817-8-8-8zm-6 8c0-3.31371 2.68629-6 6-6 3.3137 0 6 2.68629 6 6 0 3.3137-2.6863 6-6 6-3.31371 0-6-2.6863-6-6z" fill="#801ed7" fill-rule="evenodd"/></svg>