<svg fill="none" height="24" viewBox="0 0 24 24" width="24" xmlns="http://www.w3.org/2000/svg"><g fill="#801ed7"><path d="m10 6c0-.55228.4477-1 1-1 3.3137 0 6 2.68629 6 6 0 .5523-.4477 1-1 1s-1-.4477-1-1c0-2.20914-1.7909-4-4-4-.5523 0-1-.44772-1-1z"/><path clip-rule="evenodd" d="m2 11c0-4.97056 4.02944-9 9-9 4.9706 0 9 4.02944 9 9 0 2.125-.7365 4.078-1.9681 5.6177l3.6752 3.6752c.3905.3905.3905 1.0237 0 1.4142s-1.0237.3905-1.4142 0l-3.6752-3.6752c-1.5397 1.2316-3.4927 1.9681-5.6177 1.9681-4.97056 0-9-4.0294-9-9zm9-7c-3.86599 0-7 3.13401-7 7 0 3.866 3.13401 7 7 7 3.866 0 7-3.134 7-7 0-3.86599-3.134-7-7-7z" fill-rule="evenodd"/></g></svg>