<svg fill="none" height="24" viewBox="0 0 24 24" width="24" xmlns="http://www.w3.org/2000/svg"><path clip-rule="evenodd" d="m11.5 2c-5.24671 0-9.5 4.25329-9.5 9.5 0 5.2467 4.25329 9.5 9.5 9.5 2.2631 0 4.3415-.7914 5.9733-2.1125l2.8196 2.8196c.3905.3905 1.0237.3905 1.4142 0s.3905-1.0237 0-1.4142l-2.8196-2.8196c1.3211-1.6318 2.1125-3.7102 2.1125-5.9733 0-5.24671-4.2533-9.5-9.5-9.5zm-7.5 9.5c0-4.14214 3.35786-7.5 7.5-7.5 4.1421 0 7.5 3.35786 7.5 7.5 0 4.1421-3.3579 7.5-7.5 7.5-4.14214 0-7.5-3.3579-7.5-7.5z" fill="#801ed7" fill-rule="evenodd"/></svg>