<svg fill="none" height="24" viewBox="0 0 24 24" width="24" xmlns="http://www.w3.org/2000/svg"><path d="m22.126 12.6649c.2072-.419.2072-.9106 0-1.3296-.1824-.369-.5025-.5624-.6684-.6558-.1785-.1004-.4073-.2034-.6355-.306l-16.78377-7.55265c-.23343-.10509-.46615-.20986-.66246-.27786-.18023-.06243-.5431-.1765-.94487-.06471-.45401.12633-.82227.45869-.99434.89742-.15226.38823-.07588.76086-.03219.94653.04758.20225.12803.4445.20872.68747l1.62448 4.89432c.1308.39408.1962.59108.31781.73678.10739.1287.2454.2283.40133.2897.17658.0695.38419.0695.7994.0695h7.24369c.5523 0 1 .4477 1 1s-.4477 1-1 1h-7.22478c-.41416 0-.62125 0-.79751.0692-.15566.0612-.29349.1604-.40089.2886-.12162.1452-.18736.3415-.31884.7343l-1.63755 4.8915c-.08157.2436-.16281.4861-.21101.6886-.04419.1856-.12185.5589.03.9481.17148.4396.53977.7728.99421.8997.40243.1123.76612-.0022.94641-.0647.1967-.0681.42999-.1731.66419-.2786l16.77797-7.55c.2281-.1027.457-.2056.6356-.3061.1658-.0933.4859-.2868.6683-.6557z" fill="#801ed7"/></svg>