<svg fill="none" height="24" viewBox="0 0 24 24" width="24" xmlns="http://www.w3.org/2000/svg"><path d="m21.5951 1.4575c-.3958-.13221-.7643-.0366-.9475.01661-.1996.05799-.4375.15089-.6762.24409l-16.95711 6.6174c-.26683.10409-.52528.20491-.72476.30354-.17235.08522-.53869.27491-.74318.66852-.2255.43406-.2252.95084.00082 1.38464.20495.3933.57151.5826.74396.6676.19959.0984.45811.1989.72506.3027l4.72002 1.8355c.35212.137.52818.2054.70333.2096.15482.0038.30839-.0285.4486-.0943.15862-.0744.2922-.208.55935-.4751l4.84541-4.84541c.3905-.39052 1.0237-.39052 1.4142 0 .3905.39053.3905 1.02369 0 1.41422l-4.8454 4.84539c-.2671.2672-.4007.4007-.4751.5594-.0658.1402-.0981.2937-.0943.4486.0042.1751.0726.3512.2096.7033l1.8355 4.7199c.1038.267.2043.5256.3027.7252.085.1724.2743.539.6676.7439.4338.226.9506.2263 1.3846.0008.3937-.2044.5833-.5708.6686-.7431.0986-.1995.1994-.4579.3035-.7247l6.6174-16.95719c.0932-.23871.1861-.47663.2441-.67626.0532-.18319.1488-.55165.0166-.94742-.1494-.44714-.5003-.79805-.9474-.94743z" fill="#801ed7"/></svg>