<svg fill="none" height="24" viewBox="0 0 24 24" width="24" xmlns="http://www.w3.org/2000/svg"><path d="m12.7036 1.87495c-.4186-.20784-.9102-.20863-1.3296-.00214-.3692.18183-.5632.50167-.6568.66733-.1007.17837-.204.40705-.307.63504l-7.58455 16.78252c-.10568.2337-.21099.4666-.2794.6631-.06274.1801-.17764.5434-.06618.9457.12591.4545.45823.8233.8972.9957.38861.1526.76177.0761.94748.0324.20248-.0477.44507-.1282.68851-.2091l4.89076-1.6233c.39408-.1308.59108-.1962.73678-.3178.1287-.1074.2283-.2454.2897-.4013.0695-.1766.0695-.3842.0695-.7994v-7.2437c0-.5523.4477-1 1-1s1 .4477 1 1v7.2248c0 .4142 0 .6213.0692.7975.0612.1557.1604.2935.2886.4009.1452.1216.3415.1874.7343.3189l4.8952 1.6387c.243.0814.4853.1626.6875.2107.1856.0442.5583.1216.9472-.0298.4393-.1712.7726-.5389.8998-.9929.1126-.4018-.001-.7652-.0631-.9455-.0678-.1966-.1723-.4298-.2772-.6637l-7.5182-16.77917c-.1023-.22833-.2048-.45735-.305-.63605-.0931-.16596-.286-.48642-.6547-.66943z" fill="#801ed7"/></svg>