<svg fill="none" height="24" viewBox="0 0 24 24" width="24" xmlns="http://www.w3.org/2000/svg"><g clip-rule="evenodd" fill="#801ed7" fill-rule="evenodd"><path d="m5.5 2c-2.48528 0-4.5 2.01472-4.5 4.5s2.01472 4.5 4.5 4.5h13c2.4853 0 4.5-2.01472 4.5-4.5s-2.0147-4.5-4.5-4.5zm-.75 4.5c0-.69036.55964-1.25 1.25-1.25s1.25.55964 1.25 1.25-.55964 1.25-1.25 1.25-1.25-.55964-1.25-1.25z"/><path d="m5.5 13c-2.48528 0-4.5 2.0147-4.5 4.5s2.01472 4.5 4.5 4.5h13c2.4853 0 4.5-2.0147 4.5-4.5s-2.0147-4.5-4.5-4.5zm.5 3.25c-.69036 0-1.25.5596-1.25 1.25s.55964 1.25 1.25 1.25 1.25-.5596 1.25-1.25-.55964-1.25-1.25-1.25z"/></g></svg>