<svg fill="none" height="24" viewBox="0 0 24 24" width="24" xmlns="http://www.w3.org/2000/svg"><path clip-rule="evenodd" d="m20 9c0 4.0796-3.0537 7.446-7 7.9381v.2326c.8524.3013 1.528.9769 1.8293 1.8293h6.1707c.5523 0 1 .4477 1 1s-.4477 1-1 1h-6.1707c-.4118 1.1652-1.5231 2-2.8293 2s-2.41746-.8348-2.82929-2h-6.17071c-.55228 0-1-.4477-1-1s.44772-1 1-1h6.17071c.30128-.8524.97689-1.528 1.82929-1.8293v-.2326c-3.94631-.4921-7-3.8585-7-7.9381 0-4.41828 3.58172-8 8-8 4.4183 0 8 3.58172 8 8zm-13.91705.99996h2.17968c.16876 1.60724.66792 3.15654 1.45933 4.55244-1.88724-.7751-3.29207-2.4844-3.63901-4.55244zm8.19755 4.55144c.791-1.3956 1.29-2.9445 1.4587-4.55144h2.1778c-.3467 2.06714-1.7505 3.77594-3.6365 4.55144zm3.6365-6.55144c-.3468-2.06709-1.7505-3.77579-3.6365-4.55137.7911 1.39563 1.29 2.9445 1.4587 4.55137zm-8.1951-4.55236c-1.88719.77511-3.29198 2.48438-3.63893 4.55236h2.17966c.16876-1.60725.66789-3.15647 1.45927-4.55236zm2.279.14043c.9299 1.30488 1.523 2.82087 1.725 4.41193h-3.45c.202-1.59106.7952-3.10705 1.725-4.41193zm0 10.82387c-.9298-1.3049-1.523-2.8209-1.725-4.41194h3.45c-.202 1.59104-.7951 3.10704-1.725 4.41194z" fill="#801ed7" fill-rule="evenodd"/></svg>