<svg fill="none" height="24" viewBox="0 0 24 24" width="24" xmlns="http://www.w3.org/2000/svg"><path clip-rule="evenodd" d="m4 1c-1.65685 0-3 1.34315-3 3s1.34315 3 3 3c.18765 0 .37128-.01723.54939-.05019-.97795 1.43997-1.54939 3.17839-1.54939 5.05019s.57144 3.6102 1.54939 5.0502c-.17811-.033-.36174-.0502-.54939-.0502-1.65685 0-3 1.3431-3 3s1.34315 3 3 3 3-1.3431 3-3c0-.1877-.01723-.3713-.05019-.5494 1.43997.978 3.17839 1.5494 5.05019 1.5494s3.6102-.5714 5.0502-1.5494c-.033.1781-.0502.3617-.0502.5494 0 1.6569 1.3431 3 3 3s3-1.3431 3-3-1.3431-3-3-3c-.1877 0-.3713.0172-.5494.0502.978-1.44 1.5494-3.1784 1.5494-5.0502s-.5714-3.61022-1.5494-5.05019c.1781.03296.3617.05019.5494.05019 1.6569 0 3-1.34315 3-3s-1.3431-3-3-3-3 1.34315-3 3c0 .18765.0172.37128.0502.54939-1.44-.97795-3.1784-1.54939-5.0502-1.54939s-3.61022.57144-5.05019 1.54939c.03296-.17811.05019-.36174.05019-.54939 0-1.65685-1.34315-3-3-3zm1.07089 10c.37558-2.6257 2.20828-4.78134 4.6527-5.62153-1.035 1.70301-1.67602 3.6243-1.86612 5.62153zm4.65277 7.6216c-2.44446-.8402-4.27719-2.9959-4.65277-5.6216h2.78658c.19012 1.9972.83116 3.9185 1.86619 5.6216zm9.20544-5.6216c-.3755 2.6252-2.2076 4.7806-4.6514 5.6211 1.0349-1.7029 1.6758-3.624 1.8659-5.6211zm-4.6513-7.62106c2.4437.84051 4.2758 2.99585 4.6513 5.62106h-2.7855c-.1901-1.99705-.831-3.91817-1.8658-5.62106zm-.1449 5.62106c-.2208-1.96607-.9569-3.83884-2.1324-5.42825-1.1754 1.58941-1.9115 3.46218-2.13237 5.42825zm-4.26476 2c.22086 1.966.95696 3.8388 2.13236 5.4282 1.1754-1.5894 1.9116-3.4622 2.1324-5.4282z" fill="#801ed7" fill-rule="evenodd"/></svg>