<svg fill="none" height="24" viewBox="0 0 24 24" width="24" xmlns="http://www.w3.org/2000/svg"><g clip-rule="evenodd" fill="#801ed7" fill-rule="evenodd"><path d="m18.8385 1h-13.67704c-.52712-.000015-.98193-.000029-1.35648.03057-.39535.0323-.78857.10362-1.16695.29641-.56448.28762-1.02343.74657-1.31105 1.31105-.19279.37838-.26411.7716-.29641 1.16695-.030599.37455-.030585.82929-.03057 1.3564v1.67717c-.000015.52711-.000029.98193.03057 1.35648.0323.39535.10362.78857.29641 1.16694.28762.56449.74657 1.02343 1.31105 1.31103.37838.1928.7716.2641 1.16695.2964.37457.0306.82933.0306 1.35647.0306h13.67705c.5272 0 .982 0 1.3565-.0306.3954-.0323.7886-.1036 1.167-.2964.5645-.2876 1.0234-.74654 1.311-1.31103.1928-.37837.2641-.77159.2964-1.16694.0306-.37456.0306-.82932.0306-1.35646v-1.67713c0-.52714 0-.9819-.0306-1.35646-.0323-.39535-.1036-.78857-.2964-1.16695-.2876-.56448-.7465-1.02343-1.311-1.31105-.3784-.19279-.7716-.26411-1.167-.29641-.3745-.030599-.8293-.030585-1.3565-.03057zm-12.8385 3.75c-.69035 0-1.25.55965-1.25 1.25 0 .69036.55965 1.25 1.25 1.25.69036 0 1.25-.55964 1.25-1.25 0-.69035-.55964-1.25-1.25-1.25z"/><path d="m18.8385 13h-13.67704c-.52715 0-.98191 0-1.35648.0306-.39535.0323-.78857.1036-1.16695.2964-.56448.2876-1.02343.7465-1.31105 1.311-.19279.3784-.26411.7716-.29641 1.167-.030599.3745-.030585.8293-.03057 1.3564v1.6771c-.000015.5272-.000029.982.03057 1.3565.0323.3954.10362.7886.29641 1.167.28762.5645.74657 1.0234 1.31105 1.311.37838.1928.7716.2641 1.16695.2964.37457.0306.82934.0306 1.3565.0306h13.67702c.5272 0 .982 0 1.3565-.0306.3954-.0323.7886-.1036 1.167-.2964.5645-.2876 1.0234-.7465 1.311-1.311.1928-.3784.2641-.7716.2964-1.167.0306-.3745.0306-.8293.0306-1.3564v-1.6772c0-.5271 0-.9819-.0306-1.3564-.0323-.3954-.1036-.7886-.2964-1.167-.2876-.5645-.7465-1.0234-1.311-1.311-.3784-.1928-.7716-.2641-1.167-.2964-.3745-.0306-.8293-.0306-1.3565-.0306zm-14.0885 5c0-.6904.55965-1.25 1.25-1.25.69036 0 1.25.5596 1.25 1.25s-.55964 1.25-1.25 1.25c-.69035 0-1.25-.5596-1.25-1.25z"/></g></svg>