<svg fill="none" height="24" viewBox="0 0 24 24" width="24" xmlns="http://www.w3.org/2000/svg"><g fill="#801ed7"><path d="m7.44071 2h9.11859c.7555-.00001 1.3808-.00002 1.8925.04056.5329.04225 1.0233.1329 1.4899.35867.7266.35149 1.3298.91455 1.7305 1.6152.2573.45003.3815.93304.4603 1.46171.0757.50773.1187 1.13154.1707 1.88528l.2257 3.27358c.0418.6051.0626.9076-.0195 1.0432-.0822.1355-.1695.1974-.3246.23-.1551.0327-.4759-.1054-1.1174-.3815-.7876-.3389-1.6556-.5267-2.5674-.5267h-13c-.91182 0-1.77979.1878-2.56736.5267-.64156.2761-.96234.4142-1.1174.3815-.15511-.0326-.24245-.0945-.32462-.2301-.08214-.1355-.06128-.438-.01955-1.0431l.22577-3.27362c.05197-.75372.09498-1.37751.17067-1.88524.07882-.52867.20299-1.01168.46033-1.46171.40064-.70065 1.00388-1.26371 1.73043-1.6152.46667-.22577.95708-.31642 1.48992-.35867.51172-.04058 1.13704-.04057 1.89252-.04056z"/><path clip-rule="evenodd" d="m23 17.5037v-.0058c-.0001-.1991-.0131-.3953-.0383-.5876-.2888-2.2066-2.1763-3.9103-4.4617-3.9103h-13c-2.28538 0-4.17284 1.7036-4.4617 3.9102-.02526.193-.0383.3899-.0383.5898 0 2.4853 2.01472 4.5 4.5 4.5h13c2.4841 0 4.498-2.0127 4.5-4.4963zm-11-1.0037c-.5523 0-1 .4477-1 1s.4477 1 1 1h6c.5523 0 1-.4477 1-1s-.4477-1-1-1zm-6-.25c-.69036 0-1.25.5596-1.25 1.25s.55964 1.25 1.25 1.25 1.25-.5596 1.25-1.25-.55964-1.25-1.25-1.25z" fill-rule="evenodd"/></g></svg>