<svg fill="none" height="24" viewBox="0 0 24 24" width="24" xmlns="http://www.w3.org/2000/svg"><g fill="#801ed7"><path d="m7.19903 1.5h9.60187c.7175-.00001 1.3127-.00002 1.8015.03773.5098.03937.9796.12382 1.431.33299.7049.32663 1.2994.85144 1.7109 1.51034.2635.42197.4056.87763.5079 1.37869.0793.38807-.3822.66687-.7328.48262-.9022-.4741-1.9295-.74237-3.0194-.74237h-13c-1.08994 0-2.11723.26827-3.01943.74238-.35062.18425-.81206-.09455-.73282-.48263.10231-.50106.24438-.95672.50793-1.37869.41153-.6589 1.00602-1.18371 1.71088-1.51034.4514-.20917.92116-.29362 1.43104-.33299.48876-.03775 1.08393-.03774 1.80143-.03773z"/><path clip-rule="evenodd" d="m1.01264 10.6602c-.00838.1122-.01264.2255-.01264.3398 0 1.4136.65183 2.675 1.67134 3.5-1.01951.825-1.67134 2.0864-1.67134 3.5 0 2.4853 2.01472 4.5 4.5 4.5h13c2.4853 0 4.5-2.0147 4.5-4.5 0-1.4136-.6518-2.675-1.6713-3.5 1.0195-.825 1.6713-2.0864 1.6713-3.5 0-.1144-.0043-.2277-.0126-.3399-.1738-2.32653-2.1165-4.1601-4.4874-4.1601h-13c-2.37097 0-4.31367 1.83365-4.48736 4.1602zm9.98736.3398c0-.5523.4477-1 1-1h6c.5523 0 1 .4477 1 1s-.4477 1-1 1h-6c-.5523 0-1-.4477-1-1zm0 7c0-.5523.4477-1 1-1h6c.5523 0 1 .4477 1 1s-.4477 1-1 1h-6c-.5523 0-1-.4477-1-1zm-5-8.25c-.69036 0-1.25.5596-1.25 1.25s.55964 1.25 1.25 1.25 1.25-.5596 1.25-1.25-.55964-1.25-1.25-1.25zm-1.25 8.25c0-.6904.55964-1.25 1.25-1.25s1.25.5596 1.25 1.25-.55964 1.25-1.25 1.25-1.25-.5596-1.25-1.25z" fill-rule="evenodd"/></g></svg>