<svg fill="none" height="24" viewBox="0 0 24 24" width="24" xmlns="http://www.w3.org/2000/svg"><g clip-rule="evenodd" fill="#801ed7" fill-rule="evenodd"><path d="m14.6713 3h-9.1713c-1.933 0-3.5 1.567-3.5 3.5s1.567 3.5 3.5 3.5h9.1713c.7729.6254 1.7571 1 2.8287 1 2.4853 0 4.5-2.01472 4.5-4.5s-2.0147-4.5-4.5-4.5c-1.0716 0-2.0558.3746-2.8287 1zm-1.4152 2c-.1659.46917-.2561.97405-.2561 1.5s.0902 1.03083.2561 1.5h-7.7561c-.82843 0-1.5-.67157-1.5-1.5s.67157-1.5 1.5-1.5z"/><path d="m6.5 13c1.07165 0 2.0558.3746 2.82867 1h9.17133c1.933 0 3.5 1.567 3.5 3.5s-1.567 3.5-3.5 3.5h-9.17133c-.77287.6254-1.75702 1-2.82867 1-2.48528 0-4.5-2.0147-4.5-4.5s2.01472-4.5 4.5-4.5zm4.5 4.5c0-.526-.0902-1.0308-.2561-1.5h7.7561c.8284 0 1.5.6716 1.5 1.5s-.6716 1.5-1.5 1.5h-7.7561c.1659-.4692.2561-.974.2561-1.5z"/></g></svg>