<svg fill="none" height="24" viewBox="0 0 24 24" width="24" xmlns="http://www.w3.org/2000/svg"><path clip-rule="evenodd" d="m9.74225 21.5541-.65252-1.4459c-.23249-.516-.62513-.9461-1.12143-1.2283-.49659-.2822-1.07107-.4025-1.64122-.3435l-1.59655.1675c-.47521.0492-.95472-.0383-1.38051-.252-.42579-.2136-.77961-.5443-1.01867-.9519-.23912-.4076-.35304-.8748-.32794-1.3449.0251-.4702.18815-.923.46936-1.3037l.94528-1.2796c.33711-.4568.51865-1.007.51854-1.5718.00011-.5648-.18143-1.115-.51854-1.5718l-.94528-1.27965c-.28121-.38062-.44426-.83347-.46936-1.30361s.08882-.93735.32794-1.34494c.23882-.40784.5926-.73866 1.01845-.95235s.90548-.30107 1.38073-.25154l1.60152.16745c.57014.05899 1.14462-.06123 1.64121-.34345.49445-.28303.88528-.71302 1.11647-1.22833l.65252-1.44589c.19397-.4304.51055-.7961.91125-1.05275.4008-.25665.8685-.393217 1.3465-.39314.478-.000077.9457.13649 1.3465.39314.4007.25665.7173.62235.9113 1.05275l.6574 1.44589c.2312.51531.622.9453 1.1165 1.22833.4966.28222 1.0711.40244 1.6412.34345l1.5966-.16745c.4752-.04953.9548.03785 1.3807.25154.4258.21369.7796.54451 1.0184.95235.2392.40759.3531.8748.328 1.34494s-.1882.92299-.4694 1.30361l-.9453 1.27965c-.3371.4568-.5186 1.007-.5185 1.5718-.0029.5663.177 1.1188.5136 1.5779l.9453 1.2797c.2812.3806.4442.8334.4693 1.3036.0251.4701-.0888.9373-.3279 1.3449-.2388.4079-.5926.7387-1.0185.9524-.4258.2137-.9054.301-1.3807.2515l-1.5965-.1674c-.5702-.059-1.1447.0612-1.6413.3434-.4934.2814-.8842.7092-1.1164 1.2222l-.6525 1.4459c-.194.4304-.5106.7961-.9113 1.0528-.4008.2566-.8685.3932-1.3465.3931-.478.0001-.9457-.1365-1.3465-.3931-.4007-.2567-.71728-.6224-.91125-1.0528zm5.25775-9.5541c0 1.6569-1.3431 3-3 3s-3-1.3431-3-3 1.3431-3 3-3 3 1.3431 3 3z" fill="#801ed7" fill-rule="evenodd"/></svg>