<svg fill="none" height="48" viewBox="0 0 48 48" width="48" xmlns="http://www.w3.org/2000/svg"><path clip-rule="evenodd" d="m38.572 31.9212c-.1176-.6488-.0382-1.318.228-1.9212.2535-.5915.6745-1.096 1.2111-1.4514.5365-.3553 1.1653-.546 1.8089-.5486h.18c1.0609 0 2.0783-.4214 2.8284-1.1716.7502-.7501 1.1716-1.7675 1.1716-2.8284s-.4214-2.0783-1.1716-2.8284c-.7501-.7502-1.7675-1.1716-2.8284-1.1716h-.34c-.6436-.0026-1.2724-.1933-1.8089-.5486-.5366-.3554-.9576-.8599-1.2111-1.4514v-.16c-.2662-.6032-.3456-1.2724-.228-1.9212s.4269-1.2474.888-1.7188l.12-.12c.3719-.3715.6669-.8126.8682-1.2982s.3049-1.0061.3049-1.5318-.1036-1.0462-.3049-1.53176c-.2013-.48559-.4963-.92675-.8682-1.29824-.3715-.37191-.8126-.66694-1.2982-.86824s-1.0061-.30491-1.5318-.30491-1.0462.10361-1.5318.30491-.9267.49633-1.2982.86824l-.12.12c-.4714.46107-1.07.77037-1.7188.88801s-1.318.03822-1.9212-.22801c-.5915-.25353-1.096-.67449-1.4514-1.21107-.3553-.53658-.546-1.16536-.5486-1.80893v-.18c0-1.06087-.4214-2.07828-1.1716-2.82843-.7501-.75014-1.7675-1.17157-2.8284-1.17157s-2.0783.42143-2.8284 1.17157c-.7502.75015-1.1716 1.76756-1.1716 2.82843v.34c-.0026.64357-.1933 1.27235-.5486 1.80893-.3554.53658-.8599.95754-1.4514 1.21107h-.16c-.6032.26623-1.2724.34565-1.9212.22801s-1.2474-.42694-1.7188-.88801l-.12-.12c-.3715-.37191-.8126-.66694-1.2982-.86824s-1.0061-.30491-1.5318-.30491-1.0462.10361-1.53176.30491c-.48559.2013-.92675.49633-1.29824.86824-.37191.37149-.66694.81265-.86824 1.29824-.2013.48556-.30491 1.00606-.30491 1.53176s.10361 1.0462.30491 1.5318.49633.9267.86824 1.2982l.12.12c.46107.4714.77037 1.07.88801 1.7188s.03822 1.318-.22801 1.9212c-.22857.6215-.63881 1.1598-1.1774 1.545s-1.18061.5995-1.8426.615h-.18c-1.06087 0-2.07828.4214-2.82843 1.1716-.75014.7501-1.17157 1.7675-1.17157 2.8284s.42143 2.0783 1.17157 2.8284c.75015.7502 1.76756 1.1716 2.82843 1.1716h.34c.64357.0026 1.27235.1933 1.80893.5486.53658.3554.95754.8599 1.21107 1.4514.26623.6032.34565 1.2724.22801 1.9212s-.42694 1.2474-.88801 1.7188l-.12.12c-.37191.3715-.66694.8126-.86824 1.2982s-.30491 1.0061-.30491 1.5318.10361 1.0462.30491 1.5318.49633.9267.86824 1.2982c.37149.3719.81265.6669 1.29824.8682.48556.2013 1.00606.3049 1.53176.3049s1.0462-.1036 1.5318-.3049.9267-.4963 1.2982-.8682l.12-.12c.4714-.4611 1.07-.7704 1.7188-.888s1.318-.0382 1.9212.228c.6215.2286 1.1598.6388 1.545 1.1774s.5995 1.1806.615 1.8426v.18c0 1.0609.4214 2.0783 1.1716 2.8284.7501.7502 1.7675 1.1716 2.8284 1.1716s2.0783-.4214 2.8284-1.1716c.7502-.7501 1.1716-1.7675 1.1716-2.8284v-.34c.0026-.6436.1933-1.2724.5486-1.8089.3554-.5366.8599-.9576 1.4514-1.2111.6032-.2662 1.2724-.3456 1.9212-.228s1.2474.4269 1.7188.888l.12.12c.3715.3719.8126.6669 1.2982.8682s1.0061.3049 1.5318.3049 1.0462-.1036 1.5318-.3049.9267-.4963 1.2982-.8682c.3719-.3715.6669-.8126.8682-1.2982s.3049-1.0061.3049-1.5318-.1036-1.0462-.3049-1.5318-.4963-.9267-.8682-1.2982l-.12-.12c-.4611-.4714-.7704-1.07-.888-1.7188zm-8.572-7.9212c0 3.3137-2.6863 6-6 6s-6-2.6863-6-6 2.6863-6 6-6 6 2.6863 6 6z" fill="#300266" fill-rule="evenodd"/></svg>