<svg fill="none" height="24" viewBox="0 0 24 24" width="24" xmlns="http://www.w3.org/2000/svg"><path clip-rule="evenodd" d="m19.286 15.9606c-.0588-.3244-.0191-.659.114-.9606.1268-.2958.3372-.548.6055-.7257s.5827-.273.9045-.2743h.09c.5304 0 1.0391-.2107 1.4142-.5858s.5858-.8838.5858-1.4142-.2107-1.0391-.5858-1.4142-.8838-.5858-1.4142-.5858h-.17c-.3218-.00128-.6362-.09663-.9045-.27431-.2683-.17767-.4787-.42992-.6055-.72569v-.08c-.1331-.30162-.1728-.63619-.114-.96059.0588-.32439.2135-.62373.444-.85941l.06-.06c.186-.18575.3335-.40632.4341-.64912.1007-.2428.1525-.50305.1525-.76588s-.0518-.52308-.1525-.76588c-.1006-.2428-.2481-.46337-.4341-.64912-.1857-.18595-.4063-.33347-.6491-.43412s-.5031-.15245-.7659-.15245-.5231.0518-.7659.15245-.4634.24817-.6491.43412l-.06.06c-.2357.23054-.535.38519-.8594.444-.3244.05882-.659.01912-.9606-.114-.2958-.12676-.548-.33724-.7257-.60553s-.273-.58268-.2743-.90447v-.09c0-.53043-.2107-1.03914-.5858-1.41421-.3751-.37508-.8838-.58579-1.4142-.58579s-1.0391.21071-1.4142.58579c-.3751.37507-.5858.88378-.5858 1.41421v.17c-.00128.32179-.09663.63618-.27431.90447-.17767.26829-.42992.47877-.72569.60553h-.08c-.30162.13312-.63619.17282-.96059.114-.32439-.05881-.62373-.21346-.85941-.444l-.06-.06c-.18575-.18595-.40632-.33347-.64912-.43412s-.50305-.15245-.76588-.15245-.52308.0518-.76588.15245-.46337.24817-.64912.43412c-.18595.18575-.33347.40632-.43412.64912s-.15245.50305-.15245.76588.0518.52308.15245.76588.24817.46337.43412.64912l.06.06c.23054.23568.38519.53502.444.85941.05882.3244.01912.65897-.114.96059-.11428.31074-.31941.5799-.5887.77251-.2693.19261-.59031.29979-.9213.30749h-.09c-.53043 0-1.03914.2107-1.41421.5858-.37508.3751-.58579.8838-.58579 1.4142s.21071 1.0391.58579 1.4142c.37507.3751.88378.5858 1.41421.5858h.17c.32179.0013.63618.0966.90447.2743s.47877.4299.60553.7257c.13312.3016.17282.6362.114.9606-.05881.3244-.21346.6237-.444.8594l-.06.06c-.18595.1857-.33347.4063-.43412.6491s-.15245.5031-.15245.7659.0518.5231.15245.7659.24817.4634.43412.6491c.18575.186.40632.3335.64912.4341.2428.1007.50305.1525.76588.1525s.52308-.0518.76588-.1525c.2428-.1006.46337-.2481.64912-.4341l.06-.06c.23568-.2305.53502-.3852.85941-.444.3244-.0588.65897-.0191.96059.114.31074.1143.5799.3194.77251.5887s.29979.5903.30749.9213v.09c0 .5304.2107 1.0391.5858 1.4142s.8838.5858 1.4142.5858 1.0391-.2107 1.4142-.5858.5858-.8838.5858-1.4142v-.17c.0013-.3218.0966-.6362.2743-.9045s.4299-.4787.7257-.6055c.3016-.1331.6362-.1728.9606-.114s.6237.2135.8594.444l.06.06c.1857.186.4063.3335.6491.4341.2428.1007.5031.1525.7659.1525s.5231-.0518.7659-.1525c.2428-.1006.4634-.2481.6491-.4341.186-.1857.3335-.4063.4341-.6491.1007-.2428.1525-.5031.1525-.7659s-.0518-.5231-.1525-.7659c-.1006-.2428-.2481-.4634-.4341-.6491l-.06-.06c-.2305-.2357-.3852-.535-.444-.8594zm-4.286-3.9606c0 1.6569-1.3431 3-3 3s-3-1.3431-3-3 1.3431-3 3-3 3 1.3431 3 3z" fill="#801ed7" fill-rule="evenodd"/></svg>