<svg fill="none" height="24" viewBox="0 0 24 24" width="24" xmlns="http://www.w3.org/2000/svg"><g fill="#801ed7"><path d="m11.2929 2.29289c.3905-.39052 1.0237-.39052 1.4142 0l4 4c.3905.39053.3905 1.02369 0 1.41422-.3905.39052-1.0237.39052-1.4142 0l-2.2929-2.2929v9.58579c0 .5523-.4477 1-1 1s-1-.4477-1-1v-9.58579l-2.29289 2.2929c-.39053.39052-1.02369.39052-1.41422 0-.39052-.39053-.39052-1.02369 0-1.41422z"/><path d="m6.86239 10 .13758.0001c.55229 0 1 .4477 1 1s-.44771 1-1 1c-.99435 0-1.29536.0086-1.51763.0681-.69019.185-1.22928.7241-1.41422 1.4143-.05956.2222-.06815.5232-.06815 1.5176v1.2c0 .8566.00078 1.4389.03756 1.889.03582.4384.10074.6626.18043.819.19175.3763.49771.6823.87403.874.1564.0797.38061.1446.81902.1804.45009.0368 1.03238.0376 1.88896.0376h8.40003c.8566 0 1.4388-.0008 1.8889-.0376.4385-.0358.6627-.1007.8191-.1804.3763-.1917.6822-.4977.874-.874.0797-.1564.1446-.3806.1804-.819.0368-.4501.0376-1.0324.0376-1.889v-1.2c0-.9944-.0086-1.2954-.0682-1.5176-.1849-.6902-.724-1.2293-1.4142-1.4143-.2223-.0595-.5233-.0681-1.5176-.0681-.5523 0-1-.4477-1-1s.4477-1 1-1l.1376-.0001c.7953-.00038 1.386-.0007 1.8977.1364 1.3803.3699 2.4585 1.4481 2.8284 2.8284.1371.5117.1368 1.1023.1363 1.8977v1.3789c0 .805 0 1.4693-.0442 2.0105-.0459.5621-.1445 1.0788-.3918 1.5642-.3835.7526-.9954 1.3645-1.7481 1.748-.4853.2473-1.002.3459-1.5641.3918-.5412.0442-1.2056.0442-2.0105.0442h-8.4826c-.80498 0-1.46935 0-2.01055-.0442-.5621-.0459-1.0788-.1445-1.56414-.3918-.75265-.3835-1.36457-.9954-1.74806-1.748-.24729-.4854-.34586-1.0021-.39178-1.5642-.04422-.5412-.04421-1.2055-.0442-2.0105l-.00004-1.3789c-.00044-.7954-.00076-1.386.13634-1.8977.36987-1.3803 1.44806-2.4585 2.82843-2.8284.51165-.1371 1.10231-.13678 1.89769-.1364z"/></g></svg>