<svg fill="none" height="24" viewBox="0 0 24 24" width="24" xmlns="http://www.w3.org/2000/svg"><g fill="#801ed7"><path d="m11.2929 2.29289c.3905-.39052 1.0237-.39052 1.4142 0l4 4c.3905.39053.3905 1.02369 0 1.41422-.3905.39052-1.0237.39052-1.4142 0l-2.2929-2.2929v9.58579c0 .5523-.4477 1-1 1s-1-.4477-1-1v-9.58579l-2.29289 2.2929c-.39053.39052-1.02369.39052-1.41422 0-.39052-.39053-.39052-1.02369 0-1.41422z"/><path d="m9 11.6c0-.56 0-.84-.10899-1.0539-.09588-.1882-.24886-.3412-.43702-.4371-.21391-.109-.49394-.109-1.05399-.109h-.53761c-.79538-.00038-1.38604-.0007-1.89769.1364-1.38037.3699-2.45856 1.4481-2.82843 2.8284-.1371.5117-.13678 1.1023-.13634 1.8977l.00004 1.3789c-.00001.805-.00002 1.4693.0442 2.0105.04592.5621.14449 1.0788.39178 1.5642.38349.7526.99541 1.3645 1.74806 1.748.48534.2473 1.00204.3459 1.56414.3918.5412.0442 1.20557.0442 2.01055.0442h8.4826c.8049 0 1.4693 0 2.0105-.0442.5621-.0459 1.0788-.1445 1.5641-.3918.7527-.3835 1.3646-.9954 1.7481-1.748.2473-.4854.3459-1.0021.3918-1.5642.0442-.5412.0442-1.2055.0442-2.0105v-1.3789c.0005-.7954.0008-1.386-.1363-1.8977-.3699-1.3803-1.4481-2.4585-2.8284-2.8284-.5117-.1371-1.1024-.13678-1.8977-.1364h-.5376c-.5601 0-.8401 0-1.054.109-.1882.0959-.3411.2489-.437.4371-.109.2139-.109.4939-.109 1.0539v3.4c0 1.6569-1.3431 3-3 3s-3-1.3431-3-3z"/></g></svg>