<svg fill="none" height="24" viewBox="0 0 24 24" width="24" xmlns="http://www.w3.org/2000/svg"><g fill="#801ed7"><path d="m11.2929 2.29289c.3905-.39052 1.0237-.39052 1.4142 0l4 4c.3905.39053.3905 1.02369 0 1.41422-.3905.39052-1.0237.39052-1.4142 0l-2.2929-2.2929v9.58579c0 .5523-.4477 1-1 1s-1-.4477-1-1v-9.58579l-2.29289 2.2929c-.39053.39052-1.02369.39052-1.41422 0-.39052-.39053-.39052-1.02369 0-1.41422z"/><path d="m9 12.5343c0-.4982 0-.7472-.08675-.9417-.10047-.2252-.28062-.4054-.50584-.5058-.19447-.0868-.44354-.0868-.94168-.0868-.66977 0-1.22267 0-1.67527.0309-.46928.032-.90338.1005-1.32119.2736-.98011.406-1.75881 1.1847-2.16479 2.1648-.17306.4178-.2416.8519-.27361 1.3212-.03088.4526-.03088 1.0054-.03087 1.6752v.0686c-.00001.6697-.00001 1.2226.03087 1.6752.03201.4693.10055.9034.27361 1.3212.40598.9801 1.18468 1.7588 2.16479 2.1648.41781.1731.85191.2416 1.32119.2736.4526.0309 1.00546.0309 1.67523.0309h9.06861c.6698 0 1.2226 0 1.6752-.0309.4693-.032.9034-.1005 1.3212-.2736.9801-.406 1.7588-1.1847 2.1648-2.1648.1731-.4178.2416-.8519.2736-1.3212.0309-.4526.0309-1.0054.0309-1.6752v-.0686c0-.6698 0-1.2226-.0309-1.6752-.032-.4693-.1005-.9034-.2736-1.3212-.406-.9801-1.1847-1.7588-2.1648-2.1648-.4178-.1731-.8519-.2416-1.3212-.2736-.4526-.0309-1.0054-.0309-1.6752-.0309-.4982 0-.7473 0-.9417.0868-.2252.1004-.4054.2806-.5058.5058-.0868.1944-.0868.4435-.0868.9417v2.4657c0 1.6569-1.3431 3-3 3s-3-1.3431-3-3z"/></g></svg>