<svg fill="none" height="24" viewBox="0 0 24 24" width="24" xmlns="http://www.w3.org/2000/svg"><g fill="#801ed7"><path d="m14 3c0-.55228.4477-1 1-1h6c.5523 0 1 .44771 1 1v6c0 .55228-.4477 1-1 1s-1-.44771-1-1v-3.58578l-6.2929 6.29288c-.3905.3905-1.0237.3905-1.4142 0s-.3905-1.0237 0-1.4142l6.2929-6.2929h-3.5858c-.5523 0-1-.44772-1-1z"/><path d="m11.9544 7.80292c.3961-.39602.5941-.59403.6683-.82236.0652-.20084.0652-.41719 0-.61803-.0742-.22833-.2722-.42634-.6683-.82236l-.7787-.7787-.036-.03615c-.1339-.13465-.3026-.3042-.5089-.43065-.179-.10966-.374-.19047-.5781-.23946-.23535-.0565-.47449-.05586-.6644-.05536l-.05104.0001h-1.57856c-.80497-.00002-1.46933-.00003-2.01052.04419-.5621.04593-1.0788.14449-1.56414.39178-.75265.38349-1.36457.99542-1.74806 1.74806-.2473.48534-.34586 1.00204-.39178 1.56414-.04422.54119-.04421 1.20554-.0442 2.0105v6.48258c-.00001.805-.00002 1.4694.0442 2.0106.04592.5621.14448 1.0788.39178 1.5641.38349.7527.99541 1.3646 1.74806 1.7481.48534.2473 1.00204.3458 1.56414.3918.54119.0442 1.20554.0442 2.0105.0441h6.48262c.805.0001 1.4693.0001 2.0105-.0441.5621-.046 1.0788-.1445 1.5642-.3918.7526-.3835 1.3645-.9954 1.748-1.7481.2473-.4853.3459-1.002.3918-1.5641.0442-.5412.0442-1.2056.0442-2.0105v-1.5786l.0001-.051c.0005-.19.0011-.4291-.0554-.6644-.049-.2041-.1298-.3992-.2394-.5781-.1265-.2064-.296-.375-.4307-.509l-.0361-.036-.7787-.7786c-.396-.3961-.594-.5941-.8223-.6683-.2009-.0652-.4172-.0652-.6181 0-.2283.0742-.4263.2722-.8223.6683l-1.0758 1.0757c-1.1716 1.1716-3.071 1.1716-4.2426 0-1.17159-1.1716-1.17159-3.071 0-4.24262z"/></g></svg>