<svg fill="none" height="24" viewBox="0 0 24 24" width="24" xmlns="http://www.w3.org/2000/svg"><path d="m14 5c0-2.20914 1.7909-4 4-4s4 1.79086 4 4-1.7909 4-4 4c-1.1115 0-2.117-.45332-2.8419-1.18515l-5.30776 3.09745c.0975.3458.14966.7107.14966 1.0877 0 .3768-.0521.7415-.1495 1.0871l5.3108 3.0948c.7247-.7299 1.7289-1.1819 2.8387-1.1819 2.2091 0 4 1.7909 4 4s-1.7909 4-4 4-4-1.7909-4-4c0-.3786.0526-.745.1509-1.0921l-5.30855-3.0935c-.72493.7321-1.73068 1.1856-2.84235 1.1856-2.20914 0-4-1.7909-4-4 0-2.20914 1.79086-4 4-4 1.11146 0 2.11703.45332 2.84193 1.18514l5.30777-3.09747c-.0975-.34582-.1497-.71066-.1497-1.08767z" fill="#801ed7"/></svg>