<svg fill="none" height="24" viewBox="0 0 24 24" width="24" xmlns="http://www.w3.org/2000/svg"><path clip-rule="evenodd" d="m10.3373 3.13945c.2931-.35963.7361-.5634 1.1999-.55189.4066.01009.7137.21386.8683.32392.1648.11732.3525.27821.5386.43777.0091.00782.0182.01564.0273.02345l8.4904 7.2774c.1044.0895.2257.1934.3235.293.1106.1127.2654.2917.3581.5498.1177.3278.1177.6864 0 1.0142-.0927.2581-.2475.4371-.3581.5498-.0978.0996-.2191.2035-.3235.2929l-8.5178 7.301c-.186.1595-.3737.3204-.5385.4377-.1546.1101-.4617.3138-.8683.3239-.4638.0115-.9068-.1922-1.1999-.5519-.257-.3153-.3021-.681-.3192-.87-.01819-.2016-.01815-.4487-.0181-.6939v-3.1002c-.9422.1629-1.85999.4553-2.72671.8711-1.35132.6483-2.54656 1.581-3.50385 2.7342-.26914.3242-.71263.4449-1.10897.3018-.39634-.143-.66047-.5192-.66047-.9405v-.612c.00136-2.6208.96754-5.1498 2.71418-7.1036 1.41242-1.57998 3.25522-2.69471 5.28582-3.21889v-3.48915c0-.01199 0-.024 0-.03602-.00005-.24512-.00009-.4923.0181-.69382.0171-.18903.0622-.55479.3192-.87007z" fill="#801ed7" fill-rule="evenodd"/></svg>