<svg fill="none" height="24" viewBox="0 0 24 24" width="24" xmlns="http://www.w3.org/2000/svg"><path clip-rule="evenodd" d="m11.714 1.08867c.1897-.02741.3824-.02741.5721 0 .2186.0316.422.10845.5836.16948l.0432.01631 5.4925 2.05952c.6178.23065 1.1603.43321 1.5781.80143.3655.32212.6471.72842.8204 1.18376.198.52051.1972 1.09963.1963 1.75907l-.0002 4.92186c0 2.8266-1.5373 5.1832-3.199 6.9144-1.6729 1.7428-3.587 2.9738-4.5991 3.5642l-.041.0241c-.1847.1084-.4244.2492-.7415.3172-.2595.0556-.5793.0556-.8387 0-.3172-.068-.5569-.2088-.7416-.3172l-.041-.0241c-1.01208-.5904-2.92612-1.8214-4.59902-3.5642-1.66177-1.7312-3.19906-4.0878-3.19906-6.9144l-.00013-4.92185c-.00096-.65945-.0018-1.23857.19627-1.75908.17327-.45534.45483-.86164.82035-1.18376.41782-.36822.96036-.57078 1.57815-.80143l5.49244-2.05952.0433-.01631c.1615-.06103.365-.13788.5836-.16948zm1.286 4.91133c0-.55228-.4477-1-1-1s-1 .44772-1 1v.5c-1.65685 0-3 1.34315-3 3 0 1.6569 1.34315 3 3 3h2c.5523 0 1 .4477 1 1s-.4477 1-1 1h-2.1333c-.332 0-.6221-.1864-.7684-.4649-.25678-.489-.86132-.6772-1.35028-.4204-.48896.2567-.67718.8613-.4204 1.3502.47813.9105 1.43484 1.5351 2.53908 1.5351h.1333v.5c0 .5523.4477 1 1 1s1-.4477 1-1v-.5c1.6569 0 3-1.3431 3-3s-1.3431-3-3-3h-2c-.5523 0-1-.4477-1-1 0-.55228.4477-1 1-1h2.1333c.332 0 .6221.1864.7684.46494.2568.48896.8613.67718 1.3503.4204.4889-.25678.6772-.86132.4204-1.35028-.4782-.91047-1.4349-1.53506-2.5391-1.53506h-.1333z" fill="#801ed7" fill-rule="evenodd"/></svg>