<svg fill="none" height="24" viewBox="0 0 24 24" width="24" xmlns="http://www.w3.org/2000/svg"><path d="m12.5207 1.47269c-.1453-.03918-.319-.07572-.5207-.07572s-.3754.03654-.5207.07572c-.2708.07302-.4982.21823-.6625.33173-.17.11749-.3732.27473-.6027.45225l-.0204.01576c-.91268.70607-1.90023 1.19116-3.21502 1.46461l-.0291.00605c-.64076.13326-1.16141.24154-1.56254.34756-.38972.10301-.79137.23325-1.11737.46342-.21951.15499-.42417.3273-.60573.55051-.18156.2232-.30859.45866-.41563.70513-.15053.34661-.20199.71043-.22548 1.06926-.02285.34904-.02284.77933-.02283 1.28855v3.83258c0 2.8266 1.53729 5.1832 3.19906 6.9144 1.6729 1.7428 3.58694 2.9737 4.59904 3.5642l.041.024c.1847.1085.4244.2492.7415.3173.2595.0556.5793.0556.8388 0 .3171-.0681.5568-.2088.7415-.3173l.041-.024c1.0121-.5905 2.9261-1.8214 4.599-3.5642 1.6618-1.7312 3.1991-4.0878 3.1991-6.9144v-3.83252c0-.5092 0-.93958-.0228-1.28861-.0235-.35883-.075-.72265-.2255-1.06926-.1071-.24647-.2341-.48193-.4156-.70513-.1816-.22321-.3863-.39552-.6058-.55051-.326-.23017-.7276-.36041-1.1173-.46342-.4012-.10602-.9218-.2143-1.5626-.34756l-.0291-.00605c-1.3148-.27345-2.3023-.75854-3.215-1.46461l-.0204-.01578c-.2295-.17751-.4327-.33474-.6027-.45223-.1642-.1135-.3917-.25871-.6625-.33173z" fill="#801ed7"/></svg>