<svg fill="none" height="24" viewBox="0 0 24 24" width="24" xmlns="http://www.w3.org/2000/svg"><g fill="#801ed7"><path clip-rule="evenodd" d="m3.70711 2.29289c-.39053-.39052-1.02369-.39052-1.41422 0-.39052.39053-.39052 1.02369 0 1.41422l.99772.99772c-.1863.31802-.29061.6859-.29061 1.07141v6.22366c0 2.8267 1.53729 5.1832 3.19906 6.9144 1.6729 1.7428 3.58694 2.9738 4.59904 3.5643l.041.024c.1847.1084.4244.2492.7416.3172.2595.0557.5794.0557.8388 0 .3172-.0681.5576-.2093.7428-.318l.0413-.0242c.9782-.5708 2.8104-1.7465 4.449-3.4108l2.6403 2.6403c.3905.3905 1.0237.3905 1.4142 0s.3905-1.0237 0-1.4142z" fill-rule="evenodd"/><path d="m20.0529 15.8102c.5754-1.1441.9471-2.4204.9471-3.8103l.0002-4.92191c.0009-.65944.0017-1.23855-.1963-1.75906-.1733-.45535-.4549-.86164-.8204-1.18376-.4178-.36823-.9603-.57078-1.5781-.80143l-5.4925-2.05952-.0432-.01632c-.1616-.06102-.365-.13788-.5836-.16947-.1897-.02741-.3824-.02741-.5721 0-.2186.03159-.4221.10845-.5836.16947l-.0433.01632-4.05116 1.51908z"/></g></svg>