<svg fill="none" height="24" viewBox="0 0 24 24" width="24" xmlns="http://www.w3.org/2000/svg"><path clip-rule="evenodd" d="m11.714 1.08843c.1897-.02741.3824-.02741.5721 0 .2186.03159.422.10845.5836.16947l.0432.01632 5.4925 2.05952c.6178.23065 1.1603.4332 1.5781.80143.3655.32212.6471.72841.8204 1.18376.198.52051.1972 1.09962.1963 1.75906l-.0002 4.92191c0 2.8266-1.5373 5.1832-3.199 6.9144-1.6729 1.7428-3.587 2.9737-4.5991 3.5642l-.041.024c-.1847.1085-.4244.2492-.7415.3173-.2595.0556-.5793.0556-.8387 0-.3172-.068-.5569-.2088-.7416-.3173l-.041-.024c-1.01208-.5905-2.92612-1.8214-4.59902-3.5642-1.66177-1.7312-3.19906-4.0878-3.19906-6.9144l-.00013-4.9219c-.00096-.65944-.0018-1.23856.19627-1.75907.17327-.45535.45483-.86164.82035-1.18376.41782-.36822.96036-.57078 1.57815-.80143l5.49244-2.05952.0433-.01632c.1615-.06102.365-.13788.5836-.16947zm1.9931 7.11868c.3905-.39053.3905-1.02369 0-1.41422-.3905-.39052-1.0237-.39052-1.4142 0l-2.99999 3c-.2273.22731-.33147.55001-.27999.86731.05149.3173.25237.5905.53988.7342l2.759 1.3796-2.0189 2.0189c-.39052.3905-.39052 1.0237 0 1.4142.3905.3905 1.0237.3905 1.4142 0l3-3c.2273-.2273.3315-.55.28-.8673s-.2524-.5905-.5399-.7342l-2.759-1.3796z" fill="#801ed7" fill-rule="evenodd"/></svg>