<svg fill="none" height="24" viewBox="0 0 24 24" width="24" xmlns="http://www.w3.org/2000/svg"><path clip-rule="evenodd" d="m11.714 1.08843c.1897-.02741.3824-.02741.5721 0 .2186.03159.422.10845.5836.16947l.0432.01632 5.4925 2.05952c.6178.23065 1.1603.4332 1.5781.80143.3655.32212.6471.72841.8204 1.18376.198.52051.1972 1.09962.1963 1.75906l-.0002 4.92191c0 2.8266-1.5373 5.1832-3.199 6.9144-1.6729 1.7428-3.587 2.9737-4.5991 3.5642l-.041.024c-.1847.1085-.4244.2492-.7415.3173-.2595.0556-.5793.0556-.8387 0-.3172-.068-.5569-.2088-.7416-.3173l-.041-.024c-1.01208-.5905-2.92612-1.8214-4.59902-3.5642-1.66177-1.7312-3.19906-4.0878-3.19906-6.9144l-.00013-4.9219c-.00096-.65944-.0018-1.23856.19627-1.75907.17327-.45535.45483-.86164.82035-1.18376.41782-.36822.96036-.57078 1.57815-.80143l5.49244-2.05952.0433-.01632c.1615-.06102.365-.13788.5836-.16947zm.286 6.41157c.5523 0 1 .44772 1 1v2h2c.5523 0 1 .4477 1 1s-.4477 1-1 1h-2v2c0 .5523-.4477 1-1 1s-1-.4477-1-1v-2h-2c-.55228 0-1-.4477-1-1s.44772-1 1-1h2v-2c0-.55228.4477-1 1-1z" fill="#801ed7" fill-rule="evenodd"/></svg>