<svg fill="none" height="24" viewBox="0 0 24 24" width="24" xmlns="http://www.w3.org/2000/svg"><path d="m12.2861 1.08843c-.1897-.02741-.3824-.02741-.5721 0-.2186.03159-.4221.10845-.5836.16947l-.0433.01632-5.49244 2.05952c-.61779.23065-1.16033.43321-1.57815.80143-.36552.32212-.64708.72841-.82035 1.18376-.19807.52051-.19723 1.09963-.19627 1.75907l.00013 4.9219c0 2.8266 1.53729 5.1832 3.19906 6.9144 1.6729 1.7428 3.58694 2.9737 4.59902 3.5642l.041.024c.1847.1085.4244.2492.7416.3173.2594.0556.5792.0556.8387 0 .3171-.0681.5568-.2088.7415-.3173l.041-.024c1.0121-.5905 2.9262-1.8214 4.5991-3.5642 1.6617-1.7312 3.199-4.0878 3.199-6.9144l.0002-4.92191c.0009-.65944.0017-1.23855-.1963-1.75906-.1733-.45535-.4549-.86164-.8204-1.18376-.4178-.36823-.9603-.57078-1.5781-.80143l-5.4925-2.05952-.0432-.01632c-.1616-.06102-.365-.13788-.5836-.16947z" fill="#801ed7"/></svg>