<svg fill="none" height="24" viewBox="0 0 24 24" width="24" xmlns="http://www.w3.org/2000/svg"><g fill="#801ed7"><path d="m11 2.46158c0-.38786 0-.58179-.0815-.70643-.0712-.10903-.1822-.18596-.3093-.2144-.1453-.03251-.3269.03558-.69008.17176l-4.32446 1.62156c-.61779.23065-1.16033.43321-1.57815.80143-.36552.32212-.64708.72841-.82035 1.18376-.19807.52051-.19723 1.09963-.19627 1.75907l.00013 4.92187c0 2.8266 1.53729 5.1832 3.19906 6.9144 1.079 1.1241 2.31642 2.1408 3.64027 2.9907.35365.227.53055.3406.69645.3286.1398-.01.2805-.0869.3645-.1991.0997-.1332.0997-.3522.0997-.7902z"/><path d="m13 21.2447c0 .4379 0 .6569.0997.7901.084.1122.2247.1891.3645.1992.1659.0119.3428-.1016.6964-.3287 1.3239-.8499 2.5613-1.8666 3.6404-2.9907 1.6617-1.7312 3.199-4.0878 3.199-6.9144l.0002-4.92187c.0009-.65945.0017-1.23856-.1963-1.75907-.1733-.45535-.4549-.86164-.8204-1.18376-.4178-.36822-.9603-.57078-1.5781-.80143l-4.3245-1.62158c-.3632-.13617-.5448-.20426-.6901-.17175-.1271.02844-.2381.10536-.3093.2144-.0815.12464-.0815.31857-.0815.70642z"/></g></svg>