<svg fill="none" height="24" viewBox="0 0 24 24" width="24" xmlns="http://www.w3.org/2000/svg"><g fill="#801ed7"><path clip-rule="evenodd" d="m2 3.00001h1.06055l.89589 14.33429c.00696.1122.01537.2474.03237.3666.01985.1391.06063.3349.17543.5378.1497.2646.37626.4774.64964.6103.20965.102.4077.1304.54776.1416.11996.0095.25552.0095.36788.0094h13.27048c.5523 0 1-.4477 1-1s-.4477-1-1-1h-13.06055l-.125-2h12.35735c.4757 0 .8887 0 1.2314-.0266.3637-.0283.7248-.0906 1.0792-.2566.5327-.2495.9803-.6502 1.2871-1.1521.2041-.3339.306-.6859.3743-1.0442.0643-.3377.1099-.748.1624-1.2207l.5917-5.32592c.0147-.13126.0318-.28507.0353-.42057.004-.15455-.0047-.3834-.1067-.62882-.1302-.31351-.363-.57356-.6602-.73765-.2326-.12844-.4591-.16232-.6132-.17544-.1351-.0115-.2898-.01144-.4218-.01139h-16.00435l-.08339-1.33429c-.00696-.11214-.01537-.24744-.03237-.36656-.01985-.1391-.06063-.33499-.17543-.53786-.1497-.26457-.37626-.4774-.64964-.61031-.20965-.10192-.4077-.1304-.54776-.14154-.11995-.00954-.2555-.009488-.36785-.00944h-1.27051c-.55228 0-1 .44772-1 1 0 .55229.44772 1 1 1z" fill-rule="evenodd"/><path d="m7.5 20c-.82843 0-1.5.6716-1.5 1.5s.67157 1.5 1.5 1.5 1.5-.6716 1.5-1.5-.67157-1.5-1.5-1.5z"/><path d="m16.5 20c-.8284 0-1.5.6716-1.5 1.5s.6716 1.5 1.5 1.5 1.5-.6716 1.5-1.5-.6716-1.5-1.5-1.5z"/></g></svg>