<svg fill="none" height="24" viewBox="0 0 24 24" width="24" xmlns="http://www.w3.org/2000/svg"><g fill="#801ed7"><path d="m2 3.00001h1.1327l.44831 3.13811 1.05621 7.76318c.06265.4606.11711.861.18795 1.1903.07526.3499.18289.6927.38882 1.0169.31002.4881.75448.8762 1.27988 1.1176.34901.1603.7032.2207 1.06004.2481.33587.0258.73995.0258 1.20482.0258h8.62737c.4421 0 .8275 0 1.1489-.024.3422-.0255.6817-.0819 1.0189-.2304.5094-.2243.9464-.5858 1.262-1.0443.209-.3035.3279-.6264.417-.9578.0837-.3112.1558-.6897.2385-1.124l1.335-7.00868c.0266-.13957.0574-.30058.0718-.44257.0162-.15973.0256-.40254-.068-.66774-.1184-.33519-.352-.61744-.6591-.79645-.243-.14162-.4833-.17782-.6432-.19177-.1422-.01239-.3061-.01234-.4482-.01229l-15.62098.00001-.35357-2.47507c-.0147-.10319-.03265-.2292-.05725-.34007-.02896-.13055-.08095-.31084-.19916-.49502-.15541-.24216-.37719-.43452-.6389-.55412-.19904-.09096-.38487-.11694-.51821-.12715-.11324-.008665-.24051-.008615-.34475-.00857h-1.32688c-.55228 0-1 .44772-1 1 0 .55229.44772 1 1 1z"/><path d="m7 21c0-1.1046.89543-2 2-2 1.1046 0 2 .8954 2 2s-.8954 2-2 2c-1.10457 0-2-.8954-2-2z"/><path d="m15 21c0-1.1046.8954-2 2-2s2 .8954 2 2-.8954 2-2 2-2-.8954-2-2z"/></g></svg>