<svg fill="none" height="24" viewBox="0 0 24 24" width="24" xmlns="http://www.w3.org/2000/svg"><path clip-rule="evenodd" d="m7.09812 5.00942c.45962-2.28693 2.4796-4.00942 4.90188-4.00942 2.4223 0 4.4423 1.72249 4.9019 4.00942.2223.00574.428.01499.6178.02987.5226.04097 1.0038.12885 1.4637.34717.717.34035 1.3166.88632 1.7224 1.56843.2603.43753.3927.90842.4822 1.4249.086.49561.1431 1.1047.212 1.83991l.6077 6.4822c.0819.8731.1492 1.5907.1544 2.176.0055.6056-.052 1.1672-.2814 1.7011-.3536.8232-.9734 1.5038-1.7599 1.9327-.5102.2782-1.064.3879-1.6674.439-.5833.0493-1.3041.0493-2.181.0493h-8.54478c-.87689 0-1.59775 0-2.18098-.0493-.60342-.0511-1.15724-.1608-1.66741-.439-.78653-.4289-1.40629-1.1095-1.75996-1.9327-.22939-.5339-.28687-1.0955-.2814-1.7011.00529-.5853.07259-1.3029.15445-2.176l.6077-6.4822c.06892-.73521.12601-1.3443.21196-1.83991.08957-.51648.22198-.98737.48227-1.42491.4058-.6821 1.00534-1.22807 1.72235-1.56842.45992-.21832.94111-.3062 1.4637-.34717.18984-.01488.39548-.02413.61782-.02987zm2.07259-.00942c.41183-1.16519 1.52309-2 2.82929-2s2.4175.83481 2.8293 2z" fill="#801ed7" fill-rule="evenodd"/></svg>