<svg fill="none" height="24" viewBox="0 0 24 24" width="24" xmlns="http://www.w3.org/2000/svg"><path clip-rule="evenodd" d="m2 3.00001h1.14551l2.7633 17.50099c.01599.1015.03556.2258.06143.3351.03051.1289.08435.3062.20302.487.15625.2381.37702.4267.63652.5439.19708.089.38069.1146.51277.1246.112.0085.23777.0085.34055.0084h11.3369c.5523 0 1-.4477 1-1s-.4477-1-1-1h-11.14551l-.31579-2h9.825c.4456 0 .8339 0 1.1576-.0242.3444-.0259.6862-.0829 1.0254-.2332.5119-.227.9501-.5927 1.265-1.0558.2086-.3067.3258-.6328.4128-.9671.0818-.3141.1512-.696.2309-1.1344l1.3617-7.48924c.0253-.13866.0545-.29892.0677-.44021.0148-.15923.0221-.40057-.0725-.66361-.1197-.33287-.3533-.6127-.6594-.79007-.2418-.14016-.4806-.17612-.6399-.18997-.1414-.0123-.3043-.01224-.4452-.01219h-15.58173l-.39488-2.50096c-.01599-.10153-.03556-.22578-.06143-.33508-.03051-.1289-.08435-.30629-.20302-.48707-.15625-.23804-.37702-.42669-.63652-.54391-.19708-.08902-.3807-.11453-.51277-.12456-.11201-.008514-.23778-.008465-.34057-.00842h-1.33688c-.55228 0-1 .44772-1 1 0 .55229.44772 1 1 1z" fill="#801ed7" fill-rule="evenodd"/></svg>