<svg fill="none" height="24" viewBox="0 0 24 24" width="24" xmlns="http://www.w3.org/2000/svg"><g fill="#801ed7"><path d="m6.80003.999784-.06146-.000131c-.22687-.000718-.5124-.001621-.78777.077027-.23846.0681-.46217.17995-.65972.32986-.22814.17311-.39873.40207-.53428.584l-.03677.04924-1.47019 1.96022c-.13645.18193-.20468.27289-.23012.36039-.07105.24433.06563.5177.30372.60746.08527.03215.20036.03215.43054.03215h16.49212c.2302 0 .3453 0 .4305-.03215.2381-.08976.3748-.36313.3037-.60746-.0254-.0875-.0936-.17846-.2301-.36039l-1.4702-1.96022-.0367-.04925c-.1356-.18192-.3062-.4109-.5343-.58399-.1976-.14991-.4213-.26176-.6597-.32986-.2754-.078648-.5609-.077745-.7878-.077027l-.0615.000131z"/><path clip-rule="evenodd" d="m22.0001 8.6c0-.56005 0-.84008-.109-1.05399-.0959-.18816-.2489-.34114-.437-.43702-.214-.10899-.494-.10899-1.054-.10899h-16.8001c-.56005 0-.84008 0-1.05399.10899-.18817.09588-.34115.24886-.43702.43702-.10899.21391-.10899.49394-.10899 1.054l.00003 10.23829c-.00002.5272-.00003.9819.03057 1.3565.0323.3954.10362.7886.29641 1.167.28762.5644.74656 1.0234 1.31105 1.311.37838.1928.7716.2641 1.16694.2964.37457.0306.82932.0306 1.35646.0306h11.67714c.5271 0 .9819 0 1.3565-.0306.3953-.0323.7885-.1036 1.1669-.2964.5645-.2876 1.0234-.7466 1.311-1.311.1928-.3784.2642-.7716.2965-1.167.0306-.3746.0305-.8293.0305-1.3564zm-14.00008 1.4c.55229 0 1 .4477 1 1 0 .7956.31607 1.5587.87868 2.1213.5626.5626 1.3257.8787 2.1213.8787.7957 0 1.5587-.3161 2.1213-.8787.5627-.5626.8787-1.3257.8787-2.1213 0-.5523.4477-1 1-1s1 .4477 1 1c0 1.3261-.5268 2.5979-1.4644 3.5355-.9377.9377-2.2095 1.4645-3.5356 1.4645s-2.59783-.5268-3.53551-1.4645c-.93768-.9376-1.46447-2.2094-1.46447-3.5355 0-.5523.44772-1 1-1z" fill-rule="evenodd"/></g></svg>