<svg fill="none" height="24" viewBox="0 0 24 24" width="24" xmlns="http://www.w3.org/2000/svg"><path clip-rule="evenodd" d="m8.37735 2h7.24535c.7455-.00001 1.363-.00002 1.8687.03982.5269.04151 1.012.13055 1.4747.35198.7211.345 1.3222.89812 1.7259 1.58801.2591.44277.3881.91875.4732 1.44037.0817.50068.133 1.116.1949 1.85898l.7068 8.48224c.0722.8657.1315 1.5776.1309 2.1581-.0006.6008-.0629 1.1576-.2946 1.6861-.3573.8153-.9764 1.4882-1.7593 1.912-.5075.2747-1.0571.3831-1.6558.4336-.5785.0488-1.2928.0488-2.1615.0488h-8.6532c-.86863 0-1.58299 0-2.16144-.0488-.59875-.0505-1.14838-.1589-1.65583-.4336-.78288-.4238-1.402-1.0967-1.75933-1.912-.23163-.5285-.29401-1.0853-.29461-1.6861-.00058-.5806.05876-1.2924.13091-2.1581l.70685-8.48224c.06191-.74301.11317-1.35828.19488-1.85899.08511-.52161.21413-.99759.47322-1.44036.4037-.68989 1.00482-1.24301 1.72585-1.58802.46276-.22142.94781-.31046 1.47469-.35197.50576-.03984 1.12318-.03983 1.86876-.03982zm.62265 6c0-.55228-.44772-1-1-1s-1 .44772-1 1c0 1.32608.52678 2.5979 1.46447 3.5355.93768.9377 2.20943 1.4645 3.53553 1.4645s2.5979-.5268 3.5355-1.4645c.9377-.9376 1.4645-2.20942 1.4645-3.5355 0-.55228-.4477-1-1-1s-1 .44772-1 1c0 .79565-.3161 1.55871-.8787 2.1213-.5626.5626-1.3257.8787-2.1213.8787s-1.5587-.3161-2.12132-.8787c-.56261-.56259-.87868-1.32565-.87868-2.1213z" fill="#801ed7" fill-rule="evenodd"/></svg>