<svg fill="none" height="24" viewBox="0 0 24 24" width="24" xmlns="http://www.w3.org/2000/svg"><g fill="#801ed7"><path d="m16 2h5c.5523 0 1 .44772 1 1v5c0 .55228-.4477 1-1 1s-1-.44772-1-1v-2.58579l-16.29289 16.29289c-.39053.3905-1.02369.3905-1.41422 0-.39052-.3905-.39052-1.0237 0-1.4142l16.29291-16.2929h-2.5858c-.5523 0-1-.44772-1-1s.4477-1 1-1z"/><path d="m3.70711 2.29289c-.39053-.39052-1.02369-.39052-1.41422 0-.39052.39053-.39052 1.02369 0 1.41422l6 6c.39053.39049 1.02369.39049 1.41422 0 .39049-.39053.39049-1.02369 0-1.41422z"/><path d="m15.7071 14.2929 4.2929 4.2929v-2.5858c0-.5523.4477-1 1-1s1 .4477 1 1v5c0 .5523-.4477 1-1 1h-5c-.5523 0-1-.4477-1-1s.4477-1 1-1h2.5858l-4.2929-4.2929c-.3905-.3905-.3905-1.0237 0-1.4142s1.0237-.3905 1.4142 0z"/></g></svg>