<svg fill="none" height="24" viewBox="0 0 24 24" width="24" xmlns="http://www.w3.org/2000/svg"><g fill="#801ed7"><path d="m18.7071 2.29289c-.3905-.39052-1.0237-.39052-1.4142 0-.3905.39053-.3905 1.02369 0 1.41422l1.293 1.29299-.1489-.00005c-.8107-.00048-1.4225-.00085-1.9938.17266-.5031.1528-.9712.40332-1.3775.73721-.4613.37913-.8003.88838-1.2496 1.56317l-5.22319 7.83491c-.55552.8332-.72619 1.0709-.92854 1.2372-.20312.1669-.43717.2922-.68875.3686-.25063.0761-.54302.0863-1.5445.0863h-2.43112c-.55228 0-1 .4477-1 1s.44772 1 1 1l2.56299.0001c.81067.0004 1.42247.0008 1.9938-.1727.50316-.1528.97125-.4033 1.3775-.7372.46128-.3791.80034-.8884 1.24961-1.5632l5.2232-7.83486c.5555-.83328.7262-1.07091.9285-1.23723.2032-.16695.4372-.2922.6888-.36861.2506-.07611.543-.0863 1.5445-.0863h.0168l-1.2928 1.29279c-.3905.39053-.3905 1.02369 0 1.41422.3905.39049 1.0237.39049 1.4142 0l3-3c.3905-.39053.3905-1.02369 0-1.41422z"/><path d="m18.7071 14.2929c-.3905-.3905-1.0237-.3905-1.4142 0s-.3905 1.0237 0 1.4142l1.293 1.293h-.017c-1.0015 0-1.2939-.0102-1.5445-.0863-.2516-.0764-.4856-.2017-.6888-.3686-.2023-.1663-.373-.404-.9285-1.2372l-.2417-.3626c-.3064-.4595-.9272-.5837-1.3868-.2773-.4595.3063-.5837.9272-.2773 1.3867l.3148.4723c.4493.6748.7883 1.1841 1.2496 1.5632.4063.3339.8744.5844 1.3775.7372.5713.1735 1.1831.1731 1.9938.1727l.1487-.0001-1.2928 1.2928c-.3905.3905-.3905 1.0237 0 1.4142s1.0237.3905 1.4142 0l3-3c.3905-.3905.3905-1.0237 0-1.4142z"/><path d="m6.97562 7.0864c-.25063-.07611-.54302-.0863-1.5445-.0863h-2.43112c-.55228 0-1-.44771-1-1 0-.55228.44772-1 1-1l2.56298-.00005c.81067-.00048 1.42248-.00085 1.99381.17266.50316.1528.97125.40332 1.3775.73721.46128.37913.80034.88839 1.24961 1.56317l.3148.47231c.3064.45953.1822 1.0804-.2773 1.38675-.45956.30635-1.08043.18218-1.38678-.27735l-.24171-.36256c-.55552-.83328-.72619-1.07091-.92854-1.23723-.20312-.16695-.43717-.2922-.68875-.36861z"/></g></svg>