<svg fill="none" height="24" viewBox="0 0 24 24" width="24" xmlns="http://www.w3.org/2000/svg"><g fill="#801ed7"><path d="m5.63579 2.22185c.39053.39052.39053 1.02369 0 1.41421-3.51471 3.51472-3.51471 9.21324 0 12.72794.39053.3905.39053 1.0237 0 1.4142-.39052.3905-1.02368.3905-1.41421 0-4.2957661-4.2958-4.2957661-11.26058 0-15.55635.39053-.39053 1.02369-.39053 1.41421 0z"/><path d="m8.46444 6.46452c.39053-.39052.39053-1.02369 0-1.41421-.39052-.39052-1.02369-.39052-1.41421 0-2.73367 2.73367-2.73367 7.16579 0 9.89949.39052.3905 1.02369.3905 1.41421 0 .39053-.3905.39053-1.0237 0-1.4142-1.95262-1.9526-1.95262-5.11845 0-7.07108z"/><path d="m16.9498 5.05031c-.3906-.39052-1.0237-.39052-1.4143 0-.3905.39052-.3905 1.02369 0 1.41421 1.9527 1.95263 1.9527 5.11848 0 7.07108-.3905.3905-.3905 1.0237 0 1.4142.3906.3905 1.0237.3905 1.4143 0 2.7336-2.7337 2.7336-7.16582 0-9.89949z"/><path d="m19.7784 2.22185c-.3906-.39053-1.0237-.39053-1.4142 0-.3906.39052-.3906 1.02369 0 1.41421 3.5147 3.51472 3.5147 9.21324 0 12.72794-.3906.3905-.3906 1.0237 0 1.4142.3905.3905 1.0236.3905 1.4142 0 4.2957-4.2958 4.2957-11.26058 0-15.55635z"/><path clip-rule="evenodd" d="m13 12.8294c1.1652-.4118 2-1.5231 2-2.8293 0-1.65686-1.3432-3.00001-3-3.00001-1.6569 0-3.00002 1.34315-3.00002 3.00001 0 1.3062.8348 2.4175 2.00002 2.8293v8.1707c0 .5523.4477 1 1 1s1-.4477 1-1z" fill-rule="evenodd"/></g></svg>