<svg fill="none" height="24" viewBox="0 0 24 24" width="24" xmlns="http://www.w3.org/2000/svg"><g clip-rule="evenodd" fill="#801ed7" fill-rule="evenodd"><path d="m15.5355 7.05028c.3906-.39053 1.0237-.39053 1.4142 0 2.7337 2.73367 2.7337 7.16582 0 9.89952-.3905.3905-1.0236.3905-1.4142 0-.3905-.3906-.3905-1.0237 0-1.4142 1.9527-1.9527 1.9527-5.1185 0-7.07111-.3905-.39053-.3905-1.02369 0-1.41421z"/><path d="m8.46447 7.05024c.39052.39052.39052 1.02369 0 1.41421-1.95263 1.95265-1.95263 5.11845 0 7.07105.39052.3905.39052 1.0237 0 1.4142-.39053.3906-1.02369.3906-1.41422 0-2.73367-2.7336-2.73367-7.16579 0-9.89946.39053-.39052 1.02369-.39052 1.41422 0z"/><path d="m5.63604 4.22185c.39052.39052.39052 1.02369 0 1.41421-3.51472 3.51472-3.51472 9.21324 0 12.72794.39052.3905.39052 1.0237 0 1.4142-.39053.3905-1.02369.3905-1.41421 0-4.2957719-4.2958-4.2957719-11.26058 0-15.55635.39052-.39053 1.02368-.39053 1.41421 0z"/><path d="m18.364 4.22189c.3905-.39052 1.0237-.39052 1.4142 0 4.2957 4.29577 4.2957 11.26061 0 15.55631-.3905.3906-1.0237.3906-1.4142 0-.3906-.3905-.3906-1.0236 0-1.4142 3.5147-3.5147 3.5147-9.21317 0-12.72789-.3906-.39053-.3906-1.02369 0-1.41422z"/><path d="m9 12c0-1.6568 1.3431-2.99998 3-2.99998s3 1.34318 3 2.99998c0 1.6569-1.3431 3-3 3s-3-1.3431-3-3z"/></g></svg>