<svg fill="none" height="24" viewBox="0 0 24 24" width="24" xmlns="http://www.w3.org/2000/svg"><g clip-rule="evenodd" fill="#801ed7" fill-rule="evenodd"><path d="m15.5355 8.46447c-1.9526-1.95263-5.1184-1.95263-7.07103 0s-1.95263 5.11843 0 7.07103c.39052.3906.39052 1.0237 0 1.4142-.39053.3906-1.02369.3906-1.41422 0-2.73367-2.7336-2.73367-7.16578 0-9.89945s7.16585-2.73367 9.89945 0c2.7337 2.73367 2.7337 7.16585 0 9.89945-.3905.3906-1.0236.3906-1.4142 0-.3905-.3905-.3905-1.0236 0-1.4142 1.9527-1.9526 1.9527-5.1184 0-7.07103z"/><path d="m12.7071 11.2929c-.3905-.3905-1.0237-.3905-1.4142 0s-.3905 1.0237 0 1.4142.3905 1.0237 0 1.4142-1.0237.3905-1.41422 0c-1.17157-1.1716-1.17157-3.071 0-4.24262 1.17162-1.17157 3.07102-1.17157 4.24262 0 1.1716 1.17162 1.1716 3.07102 0 4.24262-.3905.3905-1.0237.3905-1.4142 0s-.3905-1.0237 0-1.4142.3905-1.0237 0-1.4142z"/><path d="m18.364 5.63604c-3.5148-3.51472-9.21324-3.51472-12.72796 0s-3.51472 9.21316 0 12.72796c.39052.3905.39052 1.0236 0 1.4142-.39053.3905-1.02369.3905-1.41421 0-4.2957712-4.2958-4.2957722-11.26061 0-15.55637 4.29576-4.2957717 11.26057-4.2957717 15.55637 0 4.2957 4.29576 4.2957 11.26057 0 15.55637-.3906.3905-1.0237.3905-1.4142 0-.3906-.3906-.3906-1.0237 0-1.4142 3.5147-3.5148 3.5147-9.21324 0-12.72796z"/></g></svg>