<svg fill="none" height="24" viewBox="0 0 24 24" width="24" xmlns="http://www.w3.org/2000/svg"><g fill="#801ed7"><path d="m9.00001 17v-3h5.99999v3z"/><path clip-rule="evenodd" d="m13.6911 1.11058c-.4627-.11108-.9424-.110851-1.5774-.11055l-3.355.00003c-.80497-.00001-1.46933-.00002-2.01052.0442-.5621.04592-1.07881.14449-1.56414.39178-.75265.38349-1.36457.99541-1.74806 1.74806-.2473.48534-.34586 1.00204-.39179 1.56414-.04421.54119-.0442 1.20554-.04419 2.01051v10.48265c-.00001.8049-.00002 1.4693.04419 2.0105.04593.5621.14449 1.0788.39179 1.5641.38349.7527.99541 1.3646 1.74806 1.7481.48533.2473 1.00204.3458 1.56414.3918.54119.0442 1.20554.0442 2.0105.0442h6.48262c.805 0 1.4693 0 2.0105-.0442.5621-.046 1.0788-.1445 1.5642-.3918.7526-.3835 1.3645-.9954 1.748-1.7481.2473-.4853.3459-1.002.3918-1.5641.0442-.5412.0442-1.2056.0442-2.0105v-7.35498c.0003-.635.0006-1.1148-.1105-1.5775-.098-.40814-.2596-.79832-.4789-1.15621-.2487-.40572-.5881-.74482-1.0373-1.19361l-3.3323-3.33232c-.4488-.44922-.7879-.78865-1.1936-1.03728-.3579-.21931-.7481-.38093-1.1563-.47892zm-4.91423 10.88942c-.11911 0-.26138-.0001-.38669.0101-.14522.0119-.35321.0424-.57115.1534-.28225.1438-.51172.3733-.65553.6555-.11105.218-.14149.426-.15335.5712-.01024.1253-.01019.2676-.01014.3867v3.4463c-.00005.1191-.0001.2613.01014.3866.01186.1453.0423.3533.15335.5712.14381.2822.37328.5117.65553.6555.21794.1111.42593.1415.57115.1534.12531.0102.26756.0102.38667.0101h6.44635c.1191.0001.2613.0001.3866-.0101.1453-.0119.3533-.0423.5712-.1534.2822-.1438.5117-.3733.6555-.6555.1111-.2179.1415-.4259.1534-.5712.0102-.1253.0102-.2675.0101-.3867v-3.4462c.0001-.1191.0001-.2614-.0101-.3867-.0119-.1452-.0423-.3532-.1534-.5712-.1438-.2822-.3733-.5117-.6555-.6555-.2179-.111-.4259-.1415-.5712-.1534-.1253-.0102-.2675-.0101-.3866-.0101z" fill-rule="evenodd"/></g></svg>