<svg fill="none" height="24" viewBox="0 0 24 24" width="24" xmlns="http://www.w3.org/2000/svg"><path clip-rule="evenodd" d="m5.56811 2c-.25238-.00003-.49818-.00006-.70633.01695-.2286.01868-.49833.06274-.76976.20104-.37632.19175-.68228.49771-.87403.87403-.1383.27143-.18236.54116-.20104.76976-.01701.20815-.01698.45394-.01695.70632v.8638c-.00003.25238-.00006.49818.01695.70634.01868.22859.06274.49832.20104.76975.19175.37632.49771.68228.87403.87403.27143.1383.54116.18236.76976.20104.02884.00236.0584.00439.08861.00613l-1.4305 8.01081c-.23538 0-.46324.001-.65811.017-.2286.0186-.49833.0627-.76976.201-.37632.1917-.68228.4977-.87403.874-.1383.2714-.18236.5412-.20104.7698-.017007.2081-.016977.4539-.01695.7063v.8638c-.000027.2524-.000057.4982.01695.7063.01868.2286.06274.4984.20104.7698.19175.3763.49771.6823.87403.874.27143.1383.54116.1824.76976.2011.20815.017.45394.0169.70633.0169h.86379c.25239 0 .49818.0001.70634-.0169.22859-.0187.49832-.0628.76975-.2011.37632-.1917.68228-.4977.87403-.874.1383-.2714.18236-.5412.20104-.7698.00363-.0444.00649-.0906.00873-.1382h8.01641c.0023.0476.0051.0938.0088.1382.0186.2286.0627.4984.201.7698.1917.3763.4977.6823.874.874.2714.1383.5412.1824.7698.2011.2081.017.4539.0169.7063.0169h.8638c.2524 0 .4982.0001.7063-.0169.2286-.0187.4984-.0628.7698-.2011.3763-.1917.6823-.4977.874-.874.1383-.2714.1824-.5412.2011-.7698.017-.2081.0169-.4539.0169-.7063v-.8638c0-.2524.0001-.4982-.0169-.7063-.0187-.2286-.0628-.4984-.2011-.7698-.1917-.3763-.4977-.6823-.874-.874-.1626-.0828-.3246-.1319-.4775-.1619l1.1509-8.05621c.1991-.00051.3901-.0032.5568-.01683.2286-.01868.4984-.06274.7698-.20104.3763-.19175.6823-.49771.874-.87403.1383-.27143.1824-.54116.2011-.76975.017-.20816.0169-.45395.0169-.70634v-.86379c0-.25239.0001-.49818-.0169-.70633-.0187-.2286-.0628-.49833-.2011-.76976-.1917-.37632-.4977-.68228-.874-.87403-.2714-.1383-.5412-.18236-.7698-.20104-.2081-.01701-.4539-.01698-.7063-.01695h-.8638c-.2524-.00003-.4982-.00006-.7063.01695-.2286.01868-.4984.06274-.7698.20104-.3763.19175-.6823.49771-.874.87403-.1383.27143-.1824.54116-.201.76976-.0037.04445-.0065.09063-.0088.13822h-8.01641c-.00224-.04759-.0051-.09377-.00873-.13822-.01868-.2286-.06274-.49833-.20104-.76976-.19175-.37632-.49771-.68228-.87403-.87403-.27143-.1383-.54116-.18236-.76975-.20104-.20816-.01701-.45395-.01698-.70632-.01695zm11.85009 14.0001 1.1509-8.05626c-.1528-.03002-.3146-.07904-.4771-.16182-.3763-.19175-.6823-.49771-.874-.87403-.1383-.27143-.1824-.54116-.201-.76975-.0037-.04447-.0065-.09065-.0088-.13824h-8.01641c-.00224.04759-.0051.09377-.00873.13824-.01868.22859-.06274.49832-.20104.76975-.19175.37632-.49771.68228-.87403.87403-.27143.1383-.54116.18236-.76975.20104-.05023.0041-.10265.00722-.15683.00958l-1.44417 8.08736c.12064.0304.24551.0742.37075.138.37632.1917.68228.4977.87403.874.1383.2714.18236.5412.20104.7698.00363.0444.00649.0906.00873.1382h8.01641c.0023-.0476.0051-.0938.0088-.1382.0186-.2286.0627-.4984.201-.7698.1917-.3763.4977-.6823.874-.874.2714-.1383.5412-.1824.7698-.201.1666-.0137.3574-.0164.5564-.0169z" fill="#801ed7" fill-rule="evenodd"/></svg>