<svg fill="none" height="24" viewBox="0 0 24 24" width="24" xmlns="http://www.w3.org/2000/svg"><g clip-rule="evenodd" fill="#801ed7" fill-rule="evenodd"><path d="m19 4c-.5523 0-1 .44772-1 1v14c0 .5523.4477 1 1 1s1-.4477 1-1v-14c0-.55228-.4477-1-1-1z"/><path d="m6.00216 4.08063c-.60908-.00066-1.18527.27627-1.56524.75229-.30227.37868-.37478.83423-.40551 1.1725-.03146.34637-.03144.78443-.03141 1.27911v9.43097c-.00003.4947-.00005.9327.03141 1.2791.03073.3383.10324.7938.40551 1.1725.37997.476.95616.7529 1.56524.7523.48453-.0005.88555-.2285 1.16889-.4158.29012-.1918.63218-.4655 1.01845-.7746l5.9019-4.7215c.2423-.1938.4724-.3778.6502-.5477.1907-.1821.4053-.424.5305-.7582.1695-.4524.1695-.9508 0-1.4032-.1252-.3342-.3398-.5761-.5305-.7582-.1778-.1699-.4078-.3539-.6501-.54766-.0095-.00758-.019-.01518-.0285-.0228l-5.87351-4.69878c-.38627-.30905-.72832-.58272-1.01844-.77453-.28334-.18732-.68436-.41528-1.16889-.4158z"/></g></svg>