<svg fill="none" height="24" viewBox="0 0 24 24" width="24" xmlns="http://www.w3.org/2000/svg"><g clip-rule="evenodd" fill="#801ed7" fill-rule="evenodd"><path d="m5 4c.55228 0 1 .44772 1 1v14c0 .5523-.44772 1-1 1s-1-.4477-1-1v-14c0-.55228.44772-1 1-1z"/><path d="m17.9978 4.08063c.6091-.00066 1.1853.27627 1.5653.75229.3023.37868.3748.83423.4055 1.1725.0315.34637.0314.78443.0314 1.27911v9.43097c0 .4947.0001.9327-.0314 1.2791-.0307.3383-.1032.7938-.4055 1.1725-.38.476-.9562.7529-1.5653.7523-.4845-.0005-.8855-.2285-1.1688-.4158-.2902-.1918-.6322-.4655-1.0185-.7746l-5.90192-4.7215c-.24232-.1938-.47237-.3778-.65021-.5477-.19064-.1821-.40528-.424-.53049-.7582-.16946-.4524-.16946-.9508 0-1.4032.12521-.3342.33985-.5761.53049-.7582.17783-.1699.40787-.3539.65017-.54766.00948-.00758.01898-.01518.0285-.0228l5.87346-4.69878c.3863-.30905.7283-.58272 1.0185-.77453.2833-.18732.6843-.41528 1.1688-.4158z"/></g></svg>