<svg fill="none" height="24" viewBox="0 0 24 24" width="24" xmlns="http://www.w3.org/2000/svg"><path clip-rule="evenodd" d="m12 1c-6.07513 0-11 4.92487-11 11 0 6.0751 4.92487 11 11 11 6.0751 0 11-4.9249 11-11 0-6.07513-4.9249-11-11-11zm-5.61769 3.9681c1.53968-1.23163 3.49268-1.9681 5.61769-1.9681 4.9706 0 9 4.02944 9 9 0 2.125-.7365 4.078-1.9681 5.6177zm-1.41421 1.41421c-1.23163 1.53968-1.9681 3.49268-1.9681 5.61769 0 4.9706 4.02944 9 9 9 2.125 0 4.078-.7365 5.6177-1.9681z" fill="#801ed7" fill-rule="evenodd"/></svg>