<svg fill="none" height="24" viewBox="0 0 24 24" width="24" xmlns="http://www.w3.org/2000/svg"><path clip-rule="evenodd" d="m8.52275.999947-.05104-.000092c-.18991-.000507-.42905-.001146-.66438.055355-.20407.04899-.39916.1298-.57811.23946-.20635.12645-.37499.296-.50892.43064l-.03603.03616c-1.64091 1.64092-3.28182 3.28182-4.92274 4.92274l-.03615.03603c-.13465.13392-.3042.30257-.43065.50892-.10966.17895-.19047.37404-.23946.57811-.0565.23533-.055861.47447-.055354.66438l.000094.05104v6.95451l-.000094.051c-.000507.19-.001146.4291.055354.6644.04899.2041.1298.3992.23946.5781.12645.2064.296.375.43065.509l.03615.036 4.92274 4.9227.03604.0362c.13392.1346.30256.3042.50891.4306.17895.1097.37404.1905.57811.2395.23533.0565.47447.0558.66439.0553l.05103-.0001h6.95455l.051.0001c.1899.0005.4291.0012.6644-.0553.2041-.049.3991-.1298.5781-.2395.2063-.1264.375-.296.5089-.4306l.036-.0362 4.9228-4.9227.0361-.036c.1347-.134.3042-.3026.4307-.509.1096-.1789.1905-.374.2394-.5781.0565-.2353.0559-.4745.0554-.6644l-.0001-.051v-6.95451l.0001-.05103c.0005-.18992.0011-.42906-.0554-.66439-.0489-.20407-.1298-.39916-.2394-.57811-.1265-.20634-.296-.37499-.4306-.50891l-.0362-.03604-4.9228-4.92274-.036-.03616c-.1339-.13464-.3026-.30419-.5089-.43064-.179-.10966-.374-.19047-.5781-.23946-.2353-.056501-.4745-.055862-.6644-.055355l-.051.000092zm10.54725 16.655753 1.7543-1.7542c.0926-.0927.1387-.1391.1707-.1742l.0024-.0026.0002-.0036c.0022-.0475.0024-.1129.0024-.2439v-6.95451c0-.131-.0002-.19638-.0024-.24387l-.0002-.00359-.0024-.00266c-.032-.03511-.0781-.08151-.1707-.17415l-4.9228-4.92274c-.0926-.09263-.139-.13869-.1741-.17074l-.0027-.00241-.0036-.00017c-.0475-.00217-.1128-.00241-.2438-.00241h-6.95455c-.131 0-.19638.00024-.24387.00241l-.00359.00017-.00266.00241c-.66907.61056-1.92841 1.92501-1.92841 1.92501zm-14.13999-11.31154 12.72579 12.72574-1.7543 1.7543c-.0926.0926-.139.1387-.1741.1708l-.0027.0024-.0036.0001c-.0475.0022-.1128.0024-.2438.0024h-6.95455c-.131 0-.19638-.0002-.24387-.0024l-.00359-.0001-.00266-.0024c-.03511-.0321-.08151-.0782-.17414-.1708l-4.92275-4.9227c-.09263-.0927-.13869-.1391-.17074-.1742l-.00241-.0026-.00017-.0036c-.00217-.0475-.00241-.1129-.00241-.2439v-6.95451c0-.131.00024-.19638.00241-.24387l.00017-.00359.00241-.00266c.03205-.03511.07811-.08151.17074-.17415z" fill="#801ed7" fill-rule="evenodd"/></svg>