<svg fill="none" height="24" viewBox="0 0 24 24" width="24" xmlns="http://www.w3.org/2000/svg"><path clip-rule="evenodd" d="m12 1c-6.07513 0-11 4.92487-11 11 0 6.0751 4.92487 11 11 11 6.0751 0 11-4.9249 11-11 0-6.07513-4.9249-11-11-11zm-5.61769 3.9681c1.53968-1.23163 3.49268-1.9681 5.61769-1.9681 2.125 0 4.078.73646 5.6176 1.96807l-5.6176 5.61763zm-1.41421 1.41421c-1.23163 1.53968-1.9681 3.49268-1.9681 5.61769 0 2.125.73646 4.078 1.96807 5.6176l5.61763-5.6176zm1.41417 12.64959c1.53968 1.2316 3.4927 1.9681 5.61773 1.9681 2.125 0 4.078-.7365 5.6177-1.9681l-5.6177-5.6177zm12.64963-1.4142c1.2316-1.5397 1.9681-3.4927 1.9681-5.6177 0-2.12503-.7365-4.07805-1.9681-5.61773l-5.6177 5.61773z" fill="#801ed7" fill-rule="evenodd"/></svg>