<svg fill="none" height="24" viewBox="0 0 24 24" width="24" xmlns="http://www.w3.org/2000/svg"><g clip-rule="evenodd" fill="#801ed7" fill-rule="evenodd"><path d="m3 9h11.126c.4441 1.7252 2.0102 3 3.874 3 2.2091 0 4-1.7909 4-4 0-2.20914-1.7909-4-4-4-1.8638 0-3.4299 1.27477-3.874 3h-11.126c-.55228 0-1 .44772-1 1s.44772 1 1 1z"/><path d="m21 15h-11.12602c-.44404-1.7252-2.01014-3-3.87398-3-2.20914 0-4 1.7909-4 4s1.79086 4 4 4c1.86384 0 3.42994-1.2748 3.87398-3h11.12602c.5523 0 1-.4477 1-1s-.4477-1-1-1z"/></g></svg>