<svg fill="none" height="24" viewBox="0 0 24 24" width="24" xmlns="http://www.w3.org/2000/svg"><g fill="#801ed7"><path d="m5 2c.55228 0 1 .44772 1 1v4c0 .55228-.44772 1-1 1s-1-.44772-1-1v-4c0-.55228.44772-1 1-1z"/><path clip-rule="evenodd" d="m6 15.8293c1.16519-.4118 2-1.5231 2-2.8293 0-1.6569-1.34315-3-3-3s-3 1.3431-3 3c0 1.3062.83481 2.4175 2 2.8293v5.1707c0 .5523.44772 1 1 1 .55229 0 1-.4477 1-1z" fill-rule="evenodd"/><path d="m13 15c0-.5523-.4477-1-1-1s-1 .4477-1 1v6c0 .5523.4477 1 1 1s1-.4477 1-1z"/><path clip-rule="evenodd" d="m12 2c.5523 0 1 .44772 1 1v3.17071c1.1652.41183 2 1.52307 2 2.82929 0 1.6569-1.3431 3-3 3s-3-1.3431-3-3c0-1.30622.83481-2.41746 2-2.82929v-3.17071c0-.55228.4477-1 1-1z" fill-rule="evenodd"/><path clip-rule="evenodd" d="m22 15c0 1.3062-.8348 2.4175-2 2.8293v3.1707c0 .5523-.4477 1-1 1s-1-.4477-1-1v-3.1707c-1.1652-.4118-2-1.5231-2-2.8293 0-1.6569 1.3431-3 3-3s3 1.3431 3 3z" fill-rule="evenodd"/><path d="m19 2c.5523 0 1 .44772 1 1v6c0 .55228-.4477 1-1 1s-1-.44772-1-1v-6c0-.55228.4477-1 1-1z"/></g></svg>