<svg fill="none" height="24" viewBox="0 0 24 24" width="24" xmlns="http://www.w3.org/2000/svg"><g fill="#801ed7"><path d="m5 2c.55228 0 1 .44772 1 1v7c0 .5523-.44772 1-1 1s-1-.4477-1-1v-7c0-.55228.44772-1 1-1z"/><path d="m6 15h2c.55228 0 1-.4477 1-1s-.44772-1-1-1h-6c-.55228 0-1 .4477-1 1s.44772 1 1 1h2v6c0 .5523.44772 1 1 1s1-.4477 1-1z"/><path d="m13 12c0-.5523-.4477-1-1-1s-1 .4477-1 1v9c0 .5523.4477 1 1 1s1-.4477 1-1z"/><path d="m12 2c.5523 0 1 .44772 1 1v4h2c.5523 0 1 .44772 1 1s-.4477 1-1 1h-6c-.55228 0-1-.44772-1-1s.44772-1 1-1h2v-4c0-.55228.4477-1 1-1z"/><path d="m22 15c.5523 0 1 .4477 1 1s-.4477 1-1 1h-2v4c0 .5523-.4477 1-1 1s-1-.4477-1-1v-4h-2c-.5523 0-1-.4477-1-1s.4477-1 1-1z"/><path d="m19 2c.5523 0 1 .44772 1 1v9c0 .5523-.4477 1-1 1s-1-.4477-1-1v-9c0-.55228.4477-1 1-1z"/></g></svg>