<svg fill="none" height="24" viewBox="0 0 24 24" width="24" xmlns="http://www.w3.org/2000/svg"><g fill="#801ed7"><path d="m5.5 3h5.0597c.4833 0 .725 0 .8489.08022.1217.07873.182.1644.2151.30547.0338.14375-.0592.40375-.2453.92375-.245.68443-.3784 1.42191-.3784 2.19056s.1334 1.50613.3784 2.19056c.1861.52.2791.78.2453.92375-.0331.14107-.0934.22674-.2151.30547-.1239.08022-.3656.08022-.8489.08022h-5.0597c-1.933 0-3.5-1.567-3.5-3.5s1.567-3.5 3.5-3.5z"/><path d="m17.5 11c2.4853 0 4.5-2.01472 4.5-4.5s-2.0147-4.5-4.5-4.5c-1.0679 0-2.0489.37198-2.8205.99344l-.0082.00656c-1.0195.82498-1.6713 2.08637-1.6713 3.5 0 1.41364.6518 2.67503 1.6713 3.5.7729.6254 1.7571 1 2.8287 1z"/><path d="m6.5 13c1.07165 0 2.0558.3746 2.82867 1 1.01953.825 1.67133 2.0864 1.67133 3.5s-.6518 2.675-1.67133 3.5c-.77287.6254-1.75702 1-2.82867 1-2.48528 0-4.5-2.0147-4.5-4.5s2.01472-4.5 4.5-4.5z"/><path d="m13.4403 14c-.4833 0-.725 0-.8489.0802-.1217.0787-.182.1644-.2151.3055-.0338.1437.0592.4037.2453.9237.245.6845.3784 1.422.3784 2.1906s-.1334 1.5061-.3784 2.1906c-.1861.52-.2791.78-.2453.9237.0331.1411.0934.2268.2151.3055.1239.0802.3656.0802.8489.0802h5.0597c1.933 0 3.5-1.567 3.5-3.5s-1.567-3.5-3.5-3.5z"/></g></svg>