<svg fill="none" height="24" viewBox="0 0 24 24" width="24" xmlns="http://www.w3.org/2000/svg"><path d="m8.29289 1.29289c.39053-.390521 1.02369-.390521 1.41422 0l2.29289 2.2929 2.2929-2.2929c.3905-.390521 1.0237-.390521 1.4142 0 .3905.39053.3905 1.02369 0 1.41422l-2.7071 2.7071v4.85389l4.2034-2.42685.9909-3.69797c.1429-.53346.6913-.85004 1.2247-.7071.5335.14294.8501.69128.7071 1.22474l-.8392 3.13215 3.1321.83926c.5335.14294.8501.69128.7071 1.22474-.1429.53343-.6912.85003-1.2247.70713l-3.698-.99089-4.203 2.42659 4.203 2.4267 3.698-.9909c.5335-.143 1.0818.1736 1.2247.7071.143.5335-.1736 1.0818-.7071 1.2247l-3.1321.8393.8392 3.1321c.143.5335-.1736 1.0819-.7071 1.2248-.5334.1429-1.0818-.1736-1.2247-.7071l-.9909-3.698-4.2034-2.4269v4.8541l2.7071 2.7071c.3905.3905.3905 1.0237 0 1.4142s-1.0237.3905-1.4142 0l-2.2929-2.2929-2.29289 2.2929c-.39053.3905-1.02369.3905-1.41422 0-.39052-.3905-.39052-1.0237 0-1.4142l2.70711-2.7071v-4.8536l-4.20347 2.4269-.99088 3.698c-.14294.5334-.69128.85-1.22474.7071-.53347-.143-.85005-.6913-.70711-1.2248l.83926-3.1321-3.13215-.8393c-.53347-.1429-.850052-.6912-.70711-1.2247.14294-.5335.69128-.8501 1.22474-.7071l3.69796.9908 4.2039-2.4271-4.20325-2.42672-3.69848.99102c-.53347.1429-1.08181-.1737-1.224748-.70713-.142942-.53346.173638-1.0818.707108-1.22474l3.13215-.83926-.83926-3.13215c-.14294-.53346.17364-1.0818.70711-1.22474s1.0818.17364 1.22474.7071l.99074 3.69748 4.20349 2.42684v-4.85339l-2.70711-2.7071c-.39052-.39053-.39052-1.02369 0-1.41422z" fill="#801ed7"/></svg>