<svg fill="none" height="24" viewBox="0 0 24 24" width="24" xmlns="http://www.w3.org/2000/svg"><path d="m12 1c.5523 0 1 .44772 1 1v3.58579l3.2929-3.2929c.3905-.39052 1.0237-.39052 1.4142 0 .3905.39053.3905 1.02369 0 1.41422l-4.7071 4.7071v2.58579h2.5858l4.7071-4.70711c.3905-.39052 1.0237-.39052 1.4142 0 .3905.39053.3905 1.02369 0 1.41422l-3.2929 3.29289h3.5858c.5523 0 1 .4477 1 1s-.4477 1-1 1h-3.5858l3.2929 3.2929c.3905.3905.3905 1.0237 0 1.4142s-1.0237.3905-1.4142 0l-4.7071-4.7071h-2.5858v2.5858l4.7071 4.7071c.3905.3905.3905 1.0237 0 1.4142s-1.0237.3905-1.4142 0l-3.2929-3.2929v3.5858c0 .5523-.4477 1-1 1s-1-.4477-1-1v-3.5858l-3.29289 3.2929c-.39053.3905-1.02369.3905-1.41422 0-.39052-.3905-.39052-1.0237 0-1.4142l4.70711-4.7071v-2.5858h-2.58579l-4.7071 4.7071c-.39053.3905-1.02369.3905-1.41422 0-.39052-.3905-.39052-1.0237 0-1.4142l3.2929-3.2929h-3.58579c-.55228 0-1-.4477-1-1s.44772-1 1-1h3.58579l-3.2929-3.29289c-.39052-.39053-.39052-1.02369 0-1.41422.39053-.39052 1.02369-.39052 1.41422 0l4.7071 4.70711h2.58579v-2.58579l-4.70711-4.7071c-.39052-.39053-.39052-1.02369 0-1.41422.39053-.39052 1.02369-.39052 1.41422 0l3.29289 3.2929v-3.58579c0-.55228.4477-1 1-1z" fill="#801ed7"/></svg>