<svg fill="none" height="24" viewBox="0 0 24 24" width="24" xmlns="http://www.w3.org/2000/svg"><g fill="#801ed7"><path d="m2 3c0-.55228.44772-1 1-1h18c.5523 0 1 .44772 1 1s-.4477 1-1 1h-18c-.55228 0-1-.44772-1-1z"/><path d="m2 21c0-.5523.44772-1 1-1h18c.5523 0 1 .4477 1 1s-.4477 1-1 1h-18c-.55228 0-1-.4477-1-1z"/><path d="m14.4453 8.83205-1.4453-.96352v8.26307l1.4453-.9635c.4595-.3064 1.0804-.1822 1.3867.2773.3064.4595.1822 1.0804-.2773 1.3868l-3 2c-.3359.2239-.7735.2239-1.1094 0l-3.00002-2c-.45952-.3064-.5837-.9273-.27735-1.3868.30636-.4595.92723-.5837 1.38675-.2773l1.44532.9635v-8.26309l-1.44532.96354c-.45952.30635-1.08039.18218-1.38675-.27735-.30635-.45953-.18217-1.0804.27735-1.38675l3.00002-2c.3359-.22393.7735-.22393 1.1094 0l3 2c.4595.30635.5837.92722.2773 1.38675-.3063.45953-.9272.5837-1.3867.27735z"/></g></svg>