<svg fill="none" height="24" viewBox="0 0 24 24" width="24" xmlns="http://www.w3.org/2000/svg"><g fill="#801ed7"><path d="m3 2c.55229 0 1 .44772 1 1v18c0 .5523-.44772 1-1 1s-1-.4477-1-1v-18c0-.55228.44772-1 1-1z"/><path d="m21 2c.5523 0 1 .44772 1 1v18c0 .5523-.4477 1-1 1s-1-.4477-1-1v-18c0-.55228.4477-1 1-1z"/><path d="m7.86845 13 .9636 1.4454c.30635.4595.18218 1.0804-.27735 1.3868-.45953.3063-1.0804.1821-1.38675-.2774l-2-3c-.22393-.3359-.22393-.7735 0-1.1094l2-2.99999c.30635-.45953.92722-.58371 1.38675-.27735.45953.30635.5837.92722.27735 1.38675l-.96346 1.44519h8.26281l-.9635-1.44519c-.3063-.45953-.1821-1.0804.2774-1.38675.4595-.30636 1.0804-.18218 1.3867.27735l2 2.99999c.224.3359.224.7735 0 1.1094l-2 3c-.3063.4595-.9272.5837-1.3867.2774-.4595-.3064-.5837-.9273-.2774-1.3868l.9636-1.4454z"/></g></svg>