<svg fill="none" height="24" viewBox="0 0 24 24" width="24" xmlns="http://www.w3.org/2000/svg"><g fill="#801ed7"><path d="m2 3c0-.55228.44772-1 1-1h18c.5523 0 1 .44772 1 1s-.4477 1-1 1h-18c-.55228 0-1-.44772-1-1z"/><path d="m2 21c0-.5523.44772-1 1-1h18c.5523 0 1 .4477 1 1s-.4477 1-1 1h-18c-.55228 0-1-.4477-1-1z"/><path d="m15.0001 7.50001h-2.0001v8.99999h2.0001c.5523 0 1 .4477 1 1s-.4477 1-1 1h-6.0001c-.55229 0-1-.4477-1-1s.44772-1 1-1h2v-8.99999l-2-.00001c-.55229 0-1-.44772-1-1s.44772-1 1-1l6.0001.00001c.5523 0 1 .44772 1 1 0 .55229-.4477 1-1 1z"/></g></svg>