<svg fill="none" height="24" viewBox="0 0 24 24" width="24" xmlns="http://www.w3.org/2000/svg"><g clip-rule="evenodd" fill="#801ed7" fill-rule="evenodd"><path d="m8 10c0-2.20914 1.79086-4 4-4 2.2091 0 4 1.79086 4 4 0 2.2091-1.7909 4-4 4-2.20914 0-4-1.7909-4-4zm2.5 0c0-.82843.6716-1.5 1.5-1.5s1.5.67157 1.5 1.5c0 .8284-.6716 1.5-1.5 1.5s-1.5-.6716-1.5-1.5z"/><path d="m7.7587 1h8.4826c.8049-.000011 1.4693-.000021 2.0105.0442.5621.04592 1.0788.14449 1.5642.39178.7526.38349 1.3645.99541 1.748 1.74806.2473.48534.3459 1.00204.3918 1.56414.0442.54119.0442 1.20554.0442 2.0105v6.48262c0 .805 0 1.4693-.0442 2.0105-.0459.5621-.1445 1.0788-.3918 1.5642-.3835.7526-.9954 1.3645-1.748 1.748-.2621.1336-.5334.2237-.816.2857v1.5822c0 .2524.0001.4982-.0169.7063-.0187.2286-.0628.4984-.2011.7698-.1917.3763-.4977.6823-.874.874-.2714.1383-.5412.1824-.7698.2011-.2081.017-.4539.0169-.7063.0169h-8.86379c-.25237 0-.49818.0001-.70633-.0169-.2286-.0187-.49833-.0628-.76976-.2011-.37632-.1917-.68228-.4977-.87403-.874-.13829-.2714-.18236-.5412-.20104-.7698-.01701-.2081-.01698-.4539-.01695-.7063l.00001-1.5822c-.28261-.062-.55387-.1521-.81597-.2857-.75265-.3835-1.36457-.9954-1.74806-1.748-.24729-.4854-.34586-1.0021-.39178-1.5642-.04422-.5412-.04421-1.2055-.0442-2.0105v-6.48263c-.00001-.80495-.00002-1.46931.0442-2.01049.04592-.5621.14449-1.0788.39178-1.56414.38349-.75265.99541-1.36457 1.74806-1.74806.48534-.24729 1.00204-.34586 1.56414-.39178.54118-.044221 1.20558-.044211 2.01052-.0442zm-.75869 17.9984v1.4016c0 .2965.00077.4588.0103.5754l.00114.0132.01319.0011c.11658.0095.27884.0103.57537.0103h8.79999c.2965 0 .4588-.0008.5754-.0103l.0132-.0011.0011-.0132c.0095-.1166.0103-.2789.0103-.5754v-1.4016c-.2377.0016-.4904.0016-.7587.0016h-8.48262c-.2683 0-.52097 0-.75867-.0016zm4.99999-14.9984c-3.31371 0-6 2.68629-6 6 0 3.3137 2.68629 6 6 6 3.3137 0 6-2.6863 6-6 0-3.31371-2.6863-6-6-6z"/></g></svg>