<svg fill="none" height="24" viewBox="0 0 24 24" width="24" xmlns="http://www.w3.org/2000/svg"><path clip-rule="evenodd" d="m12 1c-6.07513 0-11 4.92487-11 11 0 6.0751 4.92487 11 11 11 6.0751 0 11-4.9249 11-11 0-6.07513-4.9249-11-11-11zm1 2c0-.55228-.4477-1-1-1s-1 .44772-1 1v2.25c0 .55228.4477 1 1 1s1-.44772 1-1zm0 15.75c0-.5523-.4477-1-1-1s-1 .4477-1 1v2.25c0 .5523.4477 1 1 1s1-.4477 1-1zm-11-6.75c0-.5523.44772-1 1-1h2.25c.55228 0 1 .4477 1 1s-.44772 1-1 1h-2.25c-.55228 0-1-.4477-1-1zm16.75-1c-.5523 0-1 .4477-1 1s.4477 1 1 1h2.25c.5523 0 1-.4477 1-1s-.4477-1-1-1zm-2.6829 5.0671c.3905-.3906 1.0237-.3906 1.4142 0l1.5964 1.5963c.3905.3906.3905 1.0237 0 1.4142-.3905.3906-1.0237.3906-1.4142 0l-1.5964-1.5963c-.3905-.3905-.3905-1.0237 0-1.4142zm-8.13257 1.4126c.39053-.3905.39053-1.0237 0-1.4142-.39052-.3905-1.02369-.3905-1.41421 0l-1.59797 1.5979c-.39053.3906-.39053 1.0237 0 1.4143.39052.3905 1.02369.3905 1.41421 0zm-3.01218-12.48686c.39052-.39052 1.02369-.39052 1.41421 0l1.56281 1.56281c.39052.39052.39052 1.02369 0 1.41421-.39053.39053-1.02369.39053-1.41422 0l-1.5628-1.5628c-.39053-.39053-.39053-1.02369 0-1.41422zm14.15035 1.41921c.3932-.38774.3977-1.02089.01-1.41418-.3878-.39328-1.0209-.39777-1.4142-.01002l-5.0207 4.95c-.0426.04204-.0807.08695-.1142.13415-.1698-.0469-.3488-.072-.5336-.072-1.1046 0-2 .8954-2 2s.8954 2 2 2 2-.8954 2-2c0-.1849-.0251-.3639-.072-.5339.0434-.0308.0849-.0655.124-.104z" fill="#801ed7" fill-rule="evenodd"/></svg>