<svg fill="none" height="24" viewBox="0 0 24 24" width="24" xmlns="http://www.w3.org/2000/svg"><path clip-rule="evenodd" d="m12 1c-6.07513 0-11 4.92487-11 11 0 6.0751 4.92487 11 11 11 6.0751 0 11-4.9249 11-11 0-6.07513-4.9249-11-11-11zm-6 11c0-3.31371 2.68629-6 6-6 .5523 0 1-.44772 1-1s-.4477-1-1-1c-4.41828 0-8 3.58172-8 8 0 .5523.44772 1 1 1s1-.4477 1-1zm11.207-3.79289c.3905-.39053.3905-1.02369 0-1.41422-.3905-.39052-1.0237-.39052-1.4142 0l-3.2749 3.27481c-.1652-.0442-.3388-.0677-.5179-.0677-1.1046 0-2 .8954-2 2s.8954 2 2 2 2-.8954 2-2c0-.1792-.0236-.3529-.0678-.5181z" fill="#801ed7" fill-rule="evenodd"/></svg>