<svg fill="none" height="24" viewBox="0 0 24 24" width="24" xmlns="http://www.w3.org/2000/svg"><path clip-rule="evenodd" d="m12 1c-6.07513 0-11 4.92487-11 11 0 6.0751 4.92487 11 11 11 6.0751 0 11-4.9249 11-11 0-6.07513-4.9249-11-11-11zm-6 11c0-3.31371 2.68629-6 6-6 .363 0 .7177.03212 1.0615.09344.5438.09696 1.0631-.26521 1.1601-.80892.0969-.5437-.2652-1.06306-.809-1.16002-.4592-.08189-.9313-.1245-1.4126-.1245-4.41828 0-8 3.58172-8 8 0 1.6984.53037 3.2759 1.4345 4.5721.31596.453.93931.564 1.39229.2481.45297-.316.56405-.9393.24808-1.3923-.67761-.9715-1.07487-2.1518-1.07487-3.4279zm13.8159-1.7133c-.1178-.53961-.6507-.88152-1.1903-.76372-.5396.11781-.8815.65072-.7637 1.19032.0903.4136.1381.844.1381 1.2867 0 1.2761-.3973 2.4564-1.0749 3.4279-.3159.453-.2048 1.0763.2481 1.3923.453.3159 1.0764.2048 1.3923-.2481.9041-1.2962 1.4345-2.8737 1.4345-4.5721 0-.5871-.0634-1.1605-.1841-1.7133zm-2.6089-2.07959c.3905-.39053.3905-1.02369 0-1.41422-.3905-.39052-1.0237-.39052-1.4142 0l-3.2749 3.27481c-.1652-.0442-.3388-.0677-.5179-.0677-1.1046 0-2 .8954-2 2s.8954 2 2 2 2-.8954 2-2c0-.1792-.0236-.3529-.0678-.5181z" fill="#801ed7" fill-rule="evenodd"/></svg>