<svg fill="none" height="24" viewBox="0 0 24 24" width="24" xmlns="http://www.w3.org/2000/svg"><g fill="#801ed7"><path clip-rule="evenodd" d="m1 12c0-6.07513 4.92487-11 11-11 6.0751 0 11 4.92487 11 11 0 2.363-.7451 4.552-2.0131 6.3448-.1623.2294-.2434.3441-.3647.4002-.1015.0469-.232.058-.3399.0289-.129-.0348-.2355-.1413-.4484-.3542l-.3328-.3328c-.6141-.6145-1.0392-1.0399-1.5455-1.3501-.4473-.2741-.9351-.4761-1.4452-.5986-.5773-.1386-1.1787-.1384-2.0474-.1382h-4.92602c-.86874-.0002-1.47007-.0004-2.04737.1382-.51017.1225-.99789.3245-1.44524.5987-.50621.3102-.9313.7355-1.54542 1.35l-.33286.3328c-.21292.213-.31939.3194-.44838.3542-.10793.0291-.23843.018-.3399-.0289-.12127-.0561-.2024-.1708-.36466-.4002-1.26806-1.7928-2.01315-3.9818-2.01315-6.3448zm12-9c0-.55228-.4477-1-1-1s-1 .44772-1 1v2.25c0 .55228.4477 1 1 1s1-.44772 1-1zm-10 8c-.55228 0-1 .4477-1 1s.44772 1 1 1h2.25c.55228 0 1-.4477 1-1s-.44772-1-1-1zm15.75 0c-.5523 0-1 .4477-1 1s.4477 1 1 1h2.25c.5523 0 1-.4477 1-1s-.4477-1-1-1zm-12.41344-6.00716c-.39052-.39052-1.02369-.39052-1.41421 0-.39053.39053-.39053 1.02369 0 1.41422l1.5628 1.5628c.39053.39053 1.02369.39053 1.41422 0 .39052-.39052.39052-1.02369 0-1.41421zm12.73614 1.41921c.3932-.38774.3977-1.02089.01-1.41418-.3878-.39328-1.0209-.39777-1.4142-.01002l-5.0207 4.95c-.0426.04204-.0807.08695-.1142.13415-.1698-.0469-.3488-.072-.5336-.072-1.1046 0-2 .8954-2 2s.8954 2 2 2 2-.8954 2-2c0-.1849-.0251-.3639-.072-.5339.0434-.0308.0849-.0655.124-.104z" fill-rule="evenodd"/><path d="m18.1674 19.5817.2523.2522c.2129.213.3194.3194.3541.4484.0291.108.018.2385-.0289.3399-.056.1213-.1707.2024-.4002.3647-1.7928 1.268-3.9817 2.0131-6.3447 2.0131-2.36297 0-4.55192-.7451-6.34473-2.0131-.22941-.1623-.34412-.2434-.40018-.3647-.0469-.1014-.05801-.2319-.02892-.3399.03476-.129.14122-.2354.35415-.4483l.25228-.2523c.72546-.7255.97749-.9684 1.25676-1.1396.26841-.1644.56104-.2856.86715-.3591.31849-.0765.66848-.0829 1.69443-.0829l4.69806-.0001c1.026 0 1.376.0065 1.6945.0829.3061.0735.5987.1947.8671.3592.2793.1712.5314.4141 1.2568 1.1396z"/></g></svg>