<svg fill="none" height="24" viewBox="0 0 24 24" width="24" xmlns="http://www.w3.org/2000/svg"><path d="m12.6456 1.77566c-.4084-.1947-.8828-.1947-1.2911 0-.3531.16832-.5477.46056-.6458.62088-.1015.16574-.2057.37687-.3072.58265l-2.15574 4.36729-4.82205.70481c-.22699.03313-.4599.06712-.64881.11255-.18276.04395-.52067.139-.78959.42284-.31109.32837-.45739.77958-.39817 1.22802.05119.3876.26904.6629.39124.8057.12631.1476.29496.3118.45933.4719l3.48779 3.3971-.82296 4.7983c-.03885.2262-.07871.4583-.09405.6521-.01484.1874-.02918.5383.15752.882.21595.3976.59983.6765 1.0447.7589.3846.0713.71389-.0508.88752-.1228.17955-.0745.38797-.1842.59113-.2911l4.31064-2.2669 4.3107 2.2669c.2032.1069.4116.2166.5911.2911.1737.072.5029.1941.8875.1228.4449-.0824.8288-.3613 1.0447-.7589.1867-.3437.1724-.6946.1576-.882-.0154-.1938-.0552-.4259-.0941-.6521l-.823-4.7983 3.4879-3.3972c.1643-.16.333-.3242.4593-.4718.1222-.1428.34-.4181.3912-.8057.0592-.44844-.0871-.89965-.3982-1.22802-.2689-.28384-.6068-.37889-.7895-.42284-.189-.04543-.4219-.07942-.6489-.11255l-4.822-.70481-2.1557-4.36721c-.1015-.2058-.2057-.41698-.3072-.58273-.0982-.16032-.2928-.45256-.6458-.62088z" fill="#801ed7"/></svg>