<svg fill="none" height="24" viewBox="0 0 24 24" width="24" xmlns="http://www.w3.org/2000/svg"><path d="m12.9333 1.64102c-.1485-.38619-.5195-.64102-.9333-.64102s-.7848.25483-.9333.64102l-2.012 5.23109c-.3004.78104-.3948 1.00611-.52392 1.1877-.12956.18221-.28876.34141-.47097.47097-.18159.12912-.40666.22352-1.18771.52392l-5.23108 2.012c-.38619.1485-.64102.5195-.64102.9333s.25483.7848.64102.9333l5.23109 2.012c.78104.3004 1.00611.3948 1.1877.5239.18221.1296.34141.2888.47097.471.12912.1816.22352.4067.52392 1.1877l2.012 5.2311c.1485.3862.5195.641.9333.641s.7848-.2548.9333-.641l2.012-5.2311c.3004-.781.3948-1.0061.5239-1.1877.1296-.1822.2888-.3414.471-.471.1816-.1291.4067-.2235 1.1877-.5239l5.2311-2.012c.3862-.1485.641-.5195.641-.9333s-.2548-.7848-.641-.9333l-5.2311-2.012c-.781-.3004-1.0061-.3948-1.1877-.52392-.1822-.12956-.3414-.28876-.471-.47097-.1291-.18159-.2235-.40666-.5239-1.1877z" fill="#801ed7"/></svg>