<svg fill="none" height="24" viewBox="0 0 24 24" width="24" xmlns="http://www.w3.org/2000/svg"><g fill="#801ed7"><path d="m5.5 2c0-.55228-.44772-1-1-1s-1 .44772-1 1v1.5h-1.5c-.55228 0-1 .44772-1 1s.44772 1 1 1h1.5v1.5c0 .55228.44772 1 1 1s1-.44772 1-1v-1.5h1.5c.55228 0 1-.44772 1-1s-.44772-1-1-1h-1.5z"/><path d="m5.5 17c0-.5523-.44772-1-1-1s-1 .4477-1 1v1.5h-1.5c-.55228 0-1 .4477-1 1s.44772 1 1 1h1.5v1.5c0 .5523.44772 1 1 1s1-.4477 1-1v-1.5h1.5c.55228 0 1-.4477 1-1s-.44772-1-1-1h-1.5z"/><path d="m13.9333 2.64102c-.1485-.38619-.5195-.64102-.9333-.64102s-.7848.25483-.9333.64102l-1.7342 4.50886c-.3004.78105-.39482 1.00612-.52395 1.18771-.12956.18221-.28875.3414-.47096.47096-.18159.12913-.40666.22352-1.18771.52393l-4.50886 1.73422c-.38619.1485-.64102.5195-.64102.9333s.25483.7848.64102.9333l4.50886 1.7342c.78105.3004 1.00612.3948 1.18771.5239.18221.1296.3414.2888.47096.471.12913.1816.22355.4067.52395 1.1877l1.7342 4.5089c.1485.3862.5195.641.9333.641s.7848-.2548.9333-.641l1.7342-4.5089c.3004-.781.3948-1.0061.5239-1.1877.1296-.1822.2888-.3414.471-.471.1816-.1291.4067-.2235 1.1877-.5239l4.5089-1.7342c.3862-.1485.641-.5195.641-.9333s-.2548-.7848-.641-.9333l-4.5089-1.73422c-.781-.30041-1.0061-.3948-1.1877-.52393-.1822-.12956-.3414-.28875-.471-.47096-.1291-.18159-.2235-.40666-.5239-1.18771z"/></g></svg>