<svg fill="none" height="24" viewBox="0 0 24 24" width="24" xmlns="http://www.w3.org/2000/svg"><g fill="#801ed7"><path d="m7.39443 1.55279c-.1694-.33879-.51566-.55279-.89443-.55279s-.72504.214-.89443.55279l-.78446 1.56891c-.28248.56497-.36856.72755-.47315.86324-.10491.1361-.22692.25811-.36302.36302-.13569.10459-.29827.19067-.86324.47315l-1.56891.78446c-.33879.16939-.55279.51566-.55279.89443s.214.72504.55279.89443l1.56891.78446c.56497.28248.72755.36856.86324.47315.1361.10491.25811.22692.36302.36302.10459.13569.19067.29827.47315.86324l.78446 1.5689c.1694.3388.51566.5528.89443.5528s.72504-.214.89443-.5528l.78446-1.5689c.28248-.56497.36856-.72755.47315-.86324.10491-.1361.22692-.25811.36302-.36302.13569-.10459.29827-.19067.86324-.47315l1.5689-.78446c.3388-.16939.5528-.51566.5528-.89443s-.214-.72504-.5528-.89443l-1.5689-.78446c-.56497-.28248-.72755-.36856-.86324-.47315-.1361-.10491-.25811-.22692-.36302-.36302-.10459-.13569-.19067-.29827-.47315-.86324z"/><path d="m19.5 3c0-.55228-.4477-1-1-1s-1 .44772-1 1v1.5h-1.5c-.5523 0-1 .44772-1 1s.4477 1 1 1h1.5v1.5c0 .55228.4477 1 1 1s1-.44772 1-1v-1.5h1.5c.5523 0 1-.44772 1-1s-.4477-1-1-1h-1.5z"/><path d="m6.5 16c0-.5523-.44772-1-1-1s-1 .4477-1 1v1.5h-1.5c-.55228 0-1 .4477-1 1s.44772 1 1 1h1.5v1.5c0 .5523.44772 1 1 1s1-.4477 1-1v-1.5h1.5c.55228 0 1-.4477 1-1s-.44772-1-1-1h-1.5z"/><path d="m17.8944 11.5528c-.1694-.3388-.5156-.5528-.8944-.5528s-.725.214-.8944.5528l-.9512 1.9022c-.2824.565-.3685.7276-.4731.8633-.1049.1361-.2269.2581-.363.363-.1357.1046-.2983.1907-.8633.4731l-1.9022.9512c-.3388.1694-.5528.5156-.5528.8944s.214.725.5528.8944l1.9022.9512c.565.2824.7276.3685.8633.4731.1361.1049.2581.2269.363.363.1046.1357.1907.2983.4731.8633l.9512 1.9022c.1694.3388.5156.5528.8944.5528s.725-.214.8944-.5528l.9512-1.9022c.2824-.565.3685-.7276.4731-.8633.1049-.1361.2269-.2581.363-.363.1357-.1046.2983-.1907.8633-.4731l1.9022-.9512c.3388-.1694.5528-.5156.5528-.8944s-.214-.725-.5528-.8944l-1.9022-.9512c-.565-.2824-.7276-.3685-.8633-.4731-.1361-.1049-.2581-.2269-.363-.363-.1046-.1357-.1907-.2983-.4731-.8633z"/></g></svg>