<svg fill="none" height="24" viewBox="0 0 24 24" width="24" xmlns="http://www.w3.org/2000/svg"><g fill="#801ed7"><path d="m12 1c.5523 0 1 .44772 1 1v2c0 .55228-.4477 1-1 1s-1-.44772-1-1v-2c0-.55228.4477-1 1-1z"/><path d="m5.63582 4.22185c-.39053-.39053-1.02369-.39053-1.41422 0-.39052.39052-.39052 1.02369 0 1.41421l1.41422 1.41422c.39052.39052 1.02369.39052 1.41421 0 .39053-.39053.39053-1.02369 0-1.41422z"/><path d="m1 12c0-.5523.44772-1 1-1h2c.55228 0 1 .4477 1 1s-.44772 1-1 1h-2c-.55228 0-1-.4477-1-1z"/><path d="m20 11c-.5523 0-1 .4477-1 1s.4477 1 1 1h2c.5523 0 1-.4477 1-1s-.4477-1-1-1z"/><path d="m18.3638 16.9496c-.3905-.3905-1.0236-.3905-1.4142 0-.3905.3906-.3905 1.0237 0 1.4142l1.4142 1.4143c.3906.3905 1.0237.3905 1.4143 0 .3905-.3906.3905-1.0237 0-1.4143z"/><path d="m19.7781 5.63606c.3905-.39052.3905-1.02369 0-1.41421-.3906-.39053-1.0237-.39053-1.4143 0l-1.4142 1.41421c-.3905.39053-.3905 1.02369 0 1.41422.3906.39052 1.0237.39052 1.4142 0z"/><path d="m12 19c.5523 0 1 .4477 1 1v2c0 .5523-.4477 1-1 1s-1-.4477-1-1v-2c0-.5523.4477-1 1-1z"/><path d="m7.05003 18.3638c.39053-.3905.39053-1.0236 0-1.4142-.39052-.3905-1.02369-.3905-1.41421 0l-1.41422 1.4142c-.39052.3906-.39052 1.0237 0 1.4143.39053.3905 1.02369.3905 1.41422 0z"/><path d="m12.8967 6.55738c-.1684-.34131-.5161-.55738-.8967-.55738s-.7282.21607-.8967.55738l-1.31253 2.65908-2.93537.42905c-.37656.05504-.68924.31905-.80662.68109-.11737.362-.0191.7592.25352 1.0248l2.12321 2.068-.50109 2.9216c-.06435.3751.0899.7543.39788.9781.30797.2237.71626.2532 1.05318.076l2.62452-1.3803 2.6246 1.3803c.3369.1772.7452.1477 1.0532-.076.3079-.2238.4622-.603.3978-.9781l-.501-2.9216 2.1232-2.068c.2726-.2656.3709-.6628.2535-1.0248-.1174-.36204-.4301-.62605-.8066-.68109l-2.9354-.42904z"/></g></svg>