<svg fill="none" height="24" viewBox="0 0 24 24" width="24" xmlns="http://www.w3.org/2000/svg"><path d="m12.6113 1.63359c-.389-.17356-.8335-.17356-1.2225 0-.3266.14577-.5208.39514-.6258.54433-.1024.14567-.2081.32956-.3073.50232l-1.91368 3.33018-3.84087-.00777c-.19923-.00046-.41128-.00094-.58867.01497-.18169.0163-.49473.05976-.78431.2698-.34481.25009-.56703.63499-.61121 1.05865-.03711.3558.08177.64863.1585.81413.07491.16157.18136.34498.28136.51728l1.92718 3.32242-1.92718 3.3224c-.1.1723-.20645.3557-.28136.5173-.07673.1655-.19561.4583-.1585.8141.04418.4237.2664.8086.61121 1.0587.28958.21.60262.2535.78431.2698.17737.0159.38939.0154.5886.015l3.84094-.0078 1.91368 3.3301c.0992.1728.2049.3567.3073.5024.105.1492.2992.3985.6258.5443.389.1736.8335.1736 1.2225 0 .3267-.1458.5208-.3951.6258-.5443.1024-.1457.2081-.3296.3073-.5024l1.9137-3.3301 3.8409.0078c.1992.0004.4113.0009.5886-.015.1817-.0163.4947-.0598.7843-.2698.3448-.2501.5671-.635.6112-1.0587.0371-.3558-.0817-.6486-.1585-.8141-.0749-.1616-.1813-.345-.2813-.5173l-1.9272-3.3224 1.9272-3.32244c.1-.17228.2064-.35571.2813-.51726.0768-.1655.1956-.45832.1585-.81413-.0441-.42366-.2664-.80856-.6112-1.05865-.2896-.21003-.6026-.2535-.7843-.2698-.1774-.01591-.3894-.01543-.5886-.01497l-3.8409.00777-1.9137-3.33015c-.0992-.17276-.2049-.35668-.3073-.50235-.105-.14919-.2991-.39856-.6258-.54433z" fill="#801ed7"/></svg>