<svg fill="none" height="24" viewBox="0 0 24 24" width="24" xmlns="http://www.w3.org/2000/svg"><path d="m12.9701 1.75746c-.1113-.44516-.5112-.75746-.9701-.75746s-.8589.3123-.9701.75746l-1.30154 5.20599c-.271 1.08402-.36227 1.39792-.51759 1.64065-.15596.24373-.36294.45071-.60667.60667-.24273.15532-.55663.24659-1.64064.51759l-5.206 1.30154c-.44516.1112-.75746.5112-.75746.9701s.3123.8589.75746.9701l5.20599 1.3015c1.08402.271 1.39792.3623 1.64065.5176.24373.156.45071.363.60667.6067.15532.2427.24659.5566.51759 1.6406l1.30154 5.206c.1113.4452.5112.7575.9701.7575s.8589-.3123.9701-.7575l1.3015-5.206c.271-1.084.3623-1.3979.5176-1.6406.156-.2437.363-.4507.6067-.6067.2427-.1553.5566-.2466 1.6406-.5176l5.206-1.3015c.4452-.1112.7575-.5112.7575-.9701s-.3123-.8589-.7575-.9701l-5.206-1.30154c-1.084-.271-1.3979-.36227-1.6406-.51759-.2437-.15596-.4507-.36294-.6067-.60667-.1553-.24273-.2466-.55663-.5176-1.64064z" fill="#801ed7"/></svg>