<svg fill="none" height="24" viewBox="0 0 24 24" width="24" xmlns="http://www.w3.org/2000/svg"><path d="m12.6344 1.72522c-.4021-.18766-.8666-.18766-1.2687 0-.3442.16062-.539.438-.6396.59486-.1019.15886-.2067.36057-.3075.55475l-1.45981 2.80987-3.10699-.61059c-.21468-.04224-.43771-.08612-.62545-.10549-.18538-.01913-.52371-.03977-.86387.12916-.39743.19737-.68707.56057-.79105.99194-.089.36923.0064.69449.0663.87096.06066.17872.15307.38639.24202.58628l1.28665 2.89324-2.41454 2.0484c-.16688.1416-.34024.2886-.47245.4233-.13054.133-.35762.3846-.43763.7559-.09348.4338.00989.8867.28232 1.2369.23318.2998.54696.428.72228.4912.17756.064.39753.1213.60928.1764l3.06423.7979.09609 3.165c.00659.2187.01344.4459.03633.6332.0226.185.07777.5195.31816.8135.28085.3435.6994.5451 1.1431.5505.37977.0046.67564-.1608.83436-.2585.16073-.0989.34261-.2352.51769-.3663l2.53448-1.8983 2.5343 1.8982c.1751.1312.357.2675.5178.3664.1587.0977.4546.2631.8343.2585.4437-.0054.8623-.207 1.1431-.5505.2404-.294.2956-.6285.3182-.8135.0229-.1873.0297-.4145.0363-.6332l.0961-3.165 3.0643-.7979c.2117-.0551.4317-.1124.6092-.1764.1753-.0632.4891-.1914.7223-.4912.2724-.3502.3758-.8031.2823-1.2369-.08-.3713-.3071-.6229-.4376-.7559-.1322-.1347-.3056-.2817-.4724-.4232l-2.4146-2.0485 1.2866-2.89318c.089-.19992.1814-.4076.2421-.58634.0599-.17648.1553-.50173.0663-.87096-.104-.43137-.3937-.79457-.7911-.99194-.3401-.16893-.6785-.14829-.8638-.12916-.1878.01937-.4108.06325-.6255.10549l-3.107.61059-1.4598-2.80987c-.1008-.19418-.2056-.39589-.3075-.55475-.1006-.15686-.2954-.43424-.6396-.59486z" fill="#801ed7"/></svg>