<svg fill="none" height="24" viewBox="0 0 24 24" width="24" xmlns="http://www.w3.org/2000/svg"><g fill="#801ed7"><path d="m15.9333 1.64102c-.1485-.38619-.5195-.64102-.9333-.64102s-.7848.25483-.9333.64102l-1.1787 3.06442c-.3004.78104-.3948 1.00611-.5239 1.18771-.1296.1822-.2887.3414-.471.47096-.1815.12912-.4066.22352-1.1877.52392l-3.06438 1.17862c-.38619.14854-.64102.51958-.64102.93335s.25483.78481.64102.93335l3.06438 1.17865c.7811.3004 1.0062.3948 1.1877.5239.1823.1296.3414.2887.471.471.1291.1815.2235.4066.5239 1.1877l1.1787 3.0644c.1485.3862.5195.641.9333.641s.7848-.2548.9333-.641l1.1787-3.0644c.3004-.7811.3948-1.0062.5239-1.1877.1296-.1823.2887-.3414.471-.471.1815-.1291.4066-.2235 1.1877-.5239l3.0644-1.17865c.3862-.14854.641-.51958.641-.93335s-.2548-.78481-.641-.93335l-3.0644-1.17862c-.7811-.3004-1.0062-.3948-1.1877-.52392-.1823-.12956-.3415-.28875-.471-.47096-.1291-.1816-.2235-.40667-.5239-1.18771z"/><path d="m7.39443 12.5528c-.1694-.3388-.51566-.5528-.89443-.5528s-.72504.214-.89443.5528l-.78446 1.5689c-.28248.565-.36856.7276-.47315.8632-.10491.1361-.22692.2581-.36302.3631-.13569.1045-.29827.1906-.86324.4731l-1.56891.7845c-.33879.1694-.55279.5156-.55279.8944s.214.725.55279.8944l1.56891.7845c.56497.2825.72755.3686.86324.4731.1361.105.25811.227.36302.3631.10459.1356.19067.2982.47315.8632l.78446 1.5689c.1694.3388.51566.5528.89443.5528s.72504-.214.89443-.5528l.78446-1.5689c.28248-.565.36856-.7276.47315-.8632.10491-.1361.22692-.2581.36302-.3631.13569-.1045.29827-.1906.86324-.4731l1.5689-.7845c.3388-.1694.5528-.5156.5528-.8944s-.214-.725-.5528-.8944l-1.5689-.7845c-.56497-.2825-.72755-.3686-.86324-.4731-.1361-.105-.25811-.227-.36302-.3631-.10459-.1356-.19067-.2982-.47315-.8632z"/></g></svg>