<svg fill="none" height="24" viewBox="0 0 24 24" width="24" xmlns="http://www.w3.org/2000/svg"><g fill="#801ed7"><path d="m11.7779 1c-4.35282 0-8.72767 2.78582-10.324 6.88534-.14653.37629-.21979.56444-.17817.7219.0359.13579.13072.25345.25577.31739.14501.07414.37911.03705.84732-.03713.57119-.0905 1.15688-.1375 1.75359-.1375 6.13979 0 11.11709 4.9773 11.11709 11.1171 0 .5263-.0365 1.0441-.1072 1.5508-.0683.4891-.1024.7337-.024.8782.0681.1257.1879.2168.3272.2489.1602.037.355-.0475.7447-.2163 3.9922-1.7301 6.7049-5.8098 6.7049-10.2116 0-6.13979-4.9774-11.1171-11.1172-11.1171z"/><path d="m11.9414 21.3943c.3044.3042.4566.4563.6292.4764.1397.0163.3077-.0412.4081-.1397.124-.1217.1487-.317.1982-.7074.0479-.3788.0726-.7647.0726-1.1565 0-5.0352-4.08184-9.1171-9.11709-9.1171-.39374 0-.78168.025-1.16231.0734-.39041.0497-.58562.0745-.70724.1987-.09847.1004-.15586.2684-.13947.4081.02024.1726.17242.3247.47679.6289z"/></g></svg>