<svg fill="none" height="24" viewBox="0 0 24 24" width="24" xmlns="http://www.w3.org/2000/svg"><g fill="#801ed7"><path d="m12 2.8c0-.28002 0-.42004-.0545-.52699-.0479-.09408-.1244-.17057-.2185-.21851-.107-.0545-.2467-.0545-.5262-.0545-.9449 0-2.50692 0-3.4421.00001-.80497-.00002-1.46933-.00003-2.01052.04419-.5621.04593-1.07881.14449-1.56414.39178-.75265.38349-1.36457.99542-1.74806 1.74806-.2473.48534-.34586 1.00204-.39179 1.56414-.04421.54119-.0442 1.20555-.04419 2.01051v8.48261c-.00001.805-.00002 1.4693.04419 2.0105.04593.5621.14449 1.0788.39179 1.5642.38349.7526.99541 1.3645 1.74806 1.748.48533.2473 1.00204.3459 1.56414.3918.54118.0442 1.20554.0442 2.0105.0442h8.48262c.805 0 1.4693 0 2.0105-.0442.5621-.0459 1.0788-.1445 1.5642-.3918.7526-.3835 1.3645-.9954 1.748-1.748.2473-.4854.3459-1.0021.3918-1.5642.0442-.5412.0442-1.2055.0442-2.0105 0-.9352 0-2.4972 0-3.4421 0-.2795 0-.4193-.0545-.5263-.0479-.094-.1244-.1705-.2185-.2185-.107-.0545-.247-.0545-.527-.0545h-3.4413c-.805.0001-1.4693.0001-2.0105-.0441-.5621-.046-1.0788-.1445-1.5642-.3918-.7526-.3835-1.3645-.9954-1.748-1.74809-.2473-.48534-.3459-1.00204-.3918-1.56414-.0442-.54119-.0442-1.20555-.0442-2.01051z"/><path d="m19.908 9.99994c.2935 0 .4403 0 .5605-.0737.1699-.10412.2715-.34948.2249-.54322-.033-.13712-.1287-.23274-.3201-.42399l-5.3323-5.33231c-.1913-.19149-.287-.28723-.4241-.3202-.1937-.04656-.439.05498-.5432.22482-.0737.12026-.0737.26708-.0737.56071v2.10789c0 .85658.0008 1.43888.0376 1.88897.0358.43841.1007.66261.1804.81901.1917.37633.4977.68229.874.87404.1564.07969.3806.14461.819.18043.4501.03678 1.0324.03755 1.889.03755z"/></g></svg>