<svg fill="none" height="24" viewBox="0 0 24 24" width="24" xmlns="http://www.w3.org/2000/svg"><g fill="#801ed7"><path d="m10 3c-2.76142 0-5 2.23858-5 5 0 .55228.44772 1 1 1h3.5c.5523 0 1-.44772 1-1 0-1.65685 1.3431-3 3-3h.5c1.6569 0 3 1.34315 3 3 0 .55228.4477 1 1 1s1-.44772 1-1c0-2.76142-2.2386-5-5-5z"/><path clip-rule="evenodd" d="m13.5 16c0 1.6569-1.3431 3-3 3h-.5c-1.65685 0-3-1.3431-3-3 0-.5523-.44772-1-1-1s-1 .4477-1 1c0 2.7614 2.23858 5 5 5h4c2.7614 0 5-2.2386 5-5 0-1.1256-.3719-2.1643-.9996-3h2.9996c.5523 0 1-.4477 1-1s-.4477-1-1-1h-18c-.55228 0-1 .4477-1 1s.44772 1 1 1h7.5c1.6569 0 3 1.3431 3 3z" fill-rule="evenodd"/></g></svg>