<svg fill="none" height="24" viewBox="0 0 24 24" width="24" xmlns="http://www.w3.org/2000/svg"><path clip-rule="evenodd" d="m7.7587 2h8.4826c.805-.00001 1.4693-.00002 2.0105.0442.5621.04592 1.0788.14448 1.5642.39178.7526.38349 1.3645.99541 1.748 1.74806.2473.48534.3459 1.00204.3918 1.56414.0442.54119.0442 1.20554.0442 2.0105v8.48262c0 .805 0 1.4693-.0442 2.0105-.0459.5621-.1445 1.0788-.3918 1.5642-.3835.7526-.9954 1.3645-1.748 1.748-.4854.2473-1.0021.3459-1.5642.3918-.5412.0442-1.2055.0442-2.0105.0442h-8.48262c-.80496 0-1.46931 0-2.0105-.0442-.5621-.0459-1.0788-.1445-1.56414-.3918-.75265-.3835-1.36457-.9954-1.74806-1.748-.2473-.4854-.34586-1.0021-.39178-1.5642-.04422-.5412-.04421-1.2055-.0442-2.0105v-8.48261c-.00001-.80496-.00002-1.46933.0442-2.01051.04592-.5621.14448-1.0788.39178-1.56414.38349-.75265.99541-1.36457 1.74806-1.74806.48534-.2473 1.00204-.34586 1.56414-.39178.54118-.04422 1.20557-.04421 2.01052-.0442zm.03286 6.09963c.53918-1.23404 1.77156-2.09963 3.20834-2.09963h2.1667c1.4231 0 2.6355.89138 3.1141 2.14277.1973.51584-.0609 1.09395-.5768 1.29125-.5158.19729-1.0939-.06094-1.2912-.57679-.1924-.50285-.6791-.85723-1.2461-.85723h-2.1667c-.6135 0-1.14325.36851-1.37563.90037-.22112.50609-.81064.7371-1.31673.51598-.50608-.22112-.7371-.81063-.51598-1.31672zm-2.79156 3.90037c0 .5523.44772 1 1 1h6.9999c.8284 0 1.5.6716 1.5 1.5s-.6716 1.5-1.5 1.5h-2.1667c-.567 0-1.05376-.3544-1.24608-.8572-.1973-.5159-.77541-.7741-1.29125-.5768s-.77408.7754-.57678 1.2912c.47862 1.2514 1.69104 2.1428 3.11411 2.1428h2.1667c1.933 0 3.5-1.567 3.5-3.5 0-.5368-.1209-1.0454-.3368-1.5h1.8369c.5523 0 1-.4477 1-1s-.4477-1-1-1h-12c-.55228 0-1 .4477-1 1z" fill="#801ed7" fill-rule="evenodd"/></svg>