<svg fill="none" height="24" viewBox="0 0 24 24" width="24" xmlns="http://www.w3.org/2000/svg"><g fill="#801ed7"><path d="m2.29289 4.29289c.39053-.39052 1.02369-.39052 1.41422 0l4.29289 4.2929 4.2929-4.2929c.3905-.39052 1.0237-.39052 1.4142 0 .3905.39053.3905 1.02369 0 1.41422l-4.29289 4.29289 4.29289 4.2929c.3905.3905.3905 1.0237 0 1.4142s-1.0237.3905-1.4142 0l-4.2929-4.2929-4.29289 4.2929c-.39053.3905-1.02369.3905-1.41422 0-.39052-.3905-.39052-1.0237 0-1.4142l4.2929-4.2929-4.2929-4.29289c-.39052-.39053-.39052-1.02369 0-1.41422z"/><path d="m19.4536 11.0395c-.703-.118-1.4252.009-2.0457.3598l-.004.0023c-.6242.3567-1.1046.9241-1.3461 1.6032-.185.5204.0868 1.0922.6072 1.2773.5204.185 1.0922-.0869 1.2772-.6073.0783-.2201.2372-.4122.452-.5356.221-.1244.478-.1693.7282-.1273.2488.0418.4759.1671.6439.3551.1513.1781.2337.4046.2337.6328 0 .2478-.1162.49-.4793.7822-.3827.3079-.8928.5518-1.4473.8134-.5806.2739-1.1638.6228-1.5606 1.2364-.3952.6112-.5128 1.3388-.5128 2.168 0 .5523.4477 1 1 1h4c.5523 0 1-.4477 1-1 0-.5522-.4477-1-1-1h-2.8533c.0152-.0318.0306-.0588.0455-.0819.0882-.1364.2551-.2875.7344-.5136l.0562-.0265c.503-.237 1.2112-.5706 1.7916-1.0376.6218-.5003 1.2256-1.2581 1.2256-2.3404 0-.7097-.2561-1.4012-.7222-1.9425l-.0082-.0094c-.4719-.5343-1.113-.8903-1.816-1.0084z"/></g></svg>