<svg fill="none" height="24" viewBox="0 0 24 24" width="24" xmlns="http://www.w3.org/2000/svg"><g fill="#801ed7"><path d="m12 2c.5523 0 1 .44772 1 1v2c0 .55228-.4477 1-1 1s-1-.44772-1-1v-2c0-.55228.4477-1 1-1z"/><path d="m4 19c0-.5523.44772-1 1-1h14c.5523 0 1 .4477 1 1s-.4477 1-1 1h-14c-.55228 0-1-.4477-1-1z"/><path d="m4.60701 5.1928c-.39052-.39053-1.02369-.39053-1.41421 0-.39053.39052-.39053 1.02369 0 1.41421l1.41421 1.41421c.39052.39053 1.02369.39053 1.41421 0 .39053-.39052.39053-1.02369 0-1.41421z"/><path d="m20.8071 5.1928c.3905.39052.3905 1.02369 0 1.41421l-1.4142 1.41421c-.3905.39053-1.0237.39053-1.4142 0-.3905-.39052-.3905-1.02369 0-1.41421l1.4142-1.41421c.3905-.39053 1.0237-.39053 1.4142 0z"/><path d="m5.07089 14c.48523-3.3923 3.40264-6 6.92911-6 3.5265 0 6.4439 2.6077 6.9291 6h3.0709c.5523 0 1 .4477 1 1s-.4477 1-1 1h-20c-.55228 0-1-.4477-1-1s.44772-1 1-1z"/></g></svg>