<svg fill="none" height="24" viewBox="0 0 24 24" width="24" xmlns="http://www.w3.org/2000/svg"><g fill="#801ed7"><path d="m12 2c.5523 0 1 .44772 1 1v2c0 .55228-.4477 1-1 1s-1-.44772-1-1v-2c0-.55228.4477-1 1-1z"/><path d="m3 20c0-.5523.44772-1 1-1h16c.5523 0 1 .4477 1 1s-.4477 1-1 1h-16c-.55228 0-1-.4477-1-1z"/><path d="m2 12c-.55228 0-1 .4477-1 1s.44772 1 1 1h2c.55228 0 1-.4477 1-1s-.44772-1-1-1z"/><path d="m4.1928 5.1928c.39052-.39053 1.02369-.39053 1.41421 0l1.41421 1.41421c.39053.39052.39053 1.02369 0 1.41421-.39052.39053-1.02369.39053-1.41421 0l-1.41421-1.41421c-.39053-.39052-.39053-1.02369 0-1.41421z"/><path d="m19.8069 6.60701c.3905-.39052.3905-1.02369 0-1.41421-.3906-.39053-1.0237-.39053-1.4142 0l-1.4143 1.41421c-.3905.39052-.3905 1.02369 0 1.41421.3906.39053 1.0237.39053 1.4143 0z"/><path d="m19 13c0-.5523.4477-1 1-1h2c.5523 0 1 .4477 1 1s-.4477 1-1 1h-2c-.5523 0-1-.4477-1-1z"/><path d="m2 15.5c-.55228 0-1 .4477-1 1s.44772 1 1 1h20c.5523 0 1-.4477 1-1s-.4477-1-1-1z"/><path d="m12 7c-3.31371 0-6 2.68629-6 6 0 .5523.44772 1 1 1h10c.5523 0 1-.4477 1-1 0-3.31371-2.6863-6-6-6z"/></g></svg>