<svg fill="none" height="24" viewBox="0 0 24 24" width="24" xmlns="http://www.w3.org/2000/svg"><g fill="#801ed7"><path d="m12 2c.5523 0 1 .44772 1 1v2c0 .55228-.4477 1-1 1s-1-.44772-1-1v-2c0-.55228.4477-1 1-1z"/><path d="m13.5663 21.8229c-.9471-.4305-2.1854-.4305-3.1324 0-1.47296.6695-3.31472.6695-4.78764 0-.50279-.2286-.7251-.8214-.49657-1.3242.22854-.5028.82139-.7251 1.32417-.4966.94708.4305 2.18532.4305 3.1324 0 1.47294-.6695 3.31464-.6695 4.78764 0 .947.4305 2.1853.4305 3.1324 0 .5027-.2285 1.0956-.0062 1.3241.4966.2286.5028.0062 1.0956-.4965 1.3242-1.473.6695-3.3147.6695-4.7876 0z"/><path d="m2 12c-.55228 0-1 .4477-1 1s.44772 1 1 1h2c.55228 0 1-.4477 1-1s-.44772-1-1-1z"/><path d="m4.1928 5.1928c.39052-.39053 1.02369-.39053 1.41421 0l1.41421 1.41421c.39053.39052.39053 1.02369 0 1.41421-.39052.39053-1.02369.39053-1.41421 0l-1.41421-1.41421c-.39053-.39052-.39053-1.02369 0-1.41421z"/><path d="m19.8069 6.60701c.3905-.39052.3905-1.02369 0-1.41421-.3906-.39053-1.0237-.39053-1.4142 0l-1.4143 1.41421c-.3905.39052-.3905 1.02369 0 1.41421.3906.39053 1.0237.39053 1.4143 0z"/><path d="m19 13c0-.5523.4477-1 1-1h2c.5523 0 1 .4477 1 1s-.4477 1-1 1h-2c-.5523 0-1-.4477-1-1z"/><path d="m6 13c0-3.31371 2.68629-6 6-6 3.3137 0 6 2.68629 6 6 0 .5523-.4477 1-1 1h-10c-.55228 0-1-.4477-1-1z"/><path d="m2.5139 18.3229c.94708-.4305 2.18532-.4305 3.1324 0 1.47292.6695 3.31468.6695 4.7876 0 .9471-.4305 2.1853-.4305 3.1324 0 1.4729.6695 3.3147.6695 4.7876 0 .9471-.4305 2.1853-.4305 3.1324 0 .5028.2285 1.0956.0062 1.3242-.4966.2285-.5028.0062-1.0956-.4966-1.3242-1.4729-.6695-3.3147-.6695-4.7876 0-.9471.4305-2.1853.4305-3.1324 0-1.4729-.6695-3.3147-.6695-4.7876 0-.94708.4305-2.18532.4305-3.1324 0-1.47292-.6695-3.31468-.6695-4.7876 0-.50279.2286-.725105.8214-.49657 1.3242.22854.5028.82139.7251 1.32417.4966z"/></g></svg>