<svg fill="none" height="24" viewBox="0 0 24 24" width="24" xmlns="http://www.w3.org/2000/svg"><g fill="#801ed7"><path d="m13 2c0-.55228-.4477-1-1-1s-1 .44772-1 1v2c0 .55228.4477 1 1 1s1-.44772 1-1z"/><path d="m13 20c0-.5523-.4477-1-1-1s-1 .4477-1 1v2c0 .5523.4477 1 1 1s1-.4477 1-1z"/><path d="m1 12c0-.5523.44772-1 1-1h2c.55228 0 1 .4477 1 1s-.44772 1-1 1h-2c-.55228 0-1-.4477-1-1z"/><path d="m5.60701 4.1928c-.39052-.39053-1.02369-.39053-1.41421 0-.39053.39052-.39053 1.02369 0 1.41421l1.41421 1.41421c.39052.39053 1.02369.39053 1.41421 0 .39053-.39052.39053-1.02369 0-1.41421z"/><path d="m19.8072 4.1928c.3906.39052.3906 1.02369 0 1.41421l-1.4142 1.41421c-.3905.39053-1.0237.39053-1.4142 0-.3905-.39052-.3905-1.02369 0-1.41421l1.4142-1.41421c.3905-.39053 1.0237-.39053 1.4142 0z"/><path d="m7.02122 18.397c.39053-.3905.39053-1.0236 0-1.4142-.39052-.3905-1.02369-.3905-1.41421 0l-1.41421 1.4142c-.39053.3906-.39053 1.0237 0 1.4143.39052.3905 1.02369.3905 1.41421 0z"/><path d="m16.9788 16.9828c.3905-.3905 1.0237-.3905 1.4142 0l1.4142 1.4142c.3906.3906.3906 1.0237 0 1.4143-.3905.3905-1.0237.3905-1.4142 0l-1.4142-1.4143c-.3905-.3905-.3905-1.0236 0-1.4142z"/><path d="m20 11c-.5523 0-1 .4477-1 1s.4477 1 1 1h2c.5523 0 1-.4477 1-1s-.4477-1-1-1z"/><path d="m12 6c-3.31371 0-6 2.68629-6 6 0 3.3137 2.68629 6 6 6 3.3137 0 6-2.6863 6-6 0-3.31371-2.6863-6-6-6z"/></g></svg>