<svg fill="none" height="24" viewBox="0 0 24 24" width="24" xmlns="http://www.w3.org/2000/svg"><g fill="#801ed7"><path d="m11.2929 1.29289c.3905-.390521 1.0237-.390521 1.4142 0l4 4c.3905.39053.3905 1.02369 0 1.41422-.3905.39052-1.0237.39052-1.4142 0l-2.2929-2.2929v4.58579c0 .55228-.4477 1-1 1s-1-.44772-1-1v-4.58579l-2.29289 2.2929c-.39053.39052-1.02369.39052-1.41422 0-.39052-.39053-.39052-1.02369 0-1.41422z"/><path d="m2 17c-.55228 0-1 .4477-1 1s.44772 1 1 1h2c.55228 0 1-.4477 1-1s-.44772-1-1-1z"/><path d="m4.1928 10.1928c.39052-.39053 1.02369-.39053 1.41421 0l1.41421 1.4142c.39053.3905.39053 1.0237 0 1.4142-.39052.3905-1.02369.3905-1.41421 0l-1.41421-1.4142c-.39053-.3905-.39053-1.0237 0-1.4142z"/><path d="m19.8071 11.607c.3905-.3905.3905-1.0237 0-1.4142-.3905-.39053-1.0237-.39053-1.4142 0l-1.4142 1.4142c-.3905.3905-.3905 1.0237 0 1.4142s1.0237.3905 1.4142 0z"/><path d="m19 18c0-.5523.4477-1 1-1h2c.5523 0 1 .4477 1 1s-.4477 1-1 1h-2c-.5523 0-1-.4477-1-1z"/><path d="m6 18c0-3.3137 2.68629-6 6-6 3.3137 0 6 2.6863 6 6 0 .5523-.4477 1-1 1h-10c-.55228 0-1-.4477-1-1z"/><path d="m2 21c-.55228 0-1 .4477-1 1s.44772 1 1 1h20c.5523 0 1-.4477 1-1s-.4477-1-1-1z"/></g></svg>