<svg fill="none" height="24" viewBox="0 0 24 24" width="24" xmlns="http://www.w3.org/2000/svg"><g fill="#801ed7"><path d="m8.70711 3.70711c.39052-.39053.39052-1.02369 0-1.41422-.39053-.39052-1.02369-.39052-1.41422 0l-4 4c-.39052.39053-.39052 1.02369 0 1.41422l4 3.99999c.39053.3905 1.02369.3905 1.41422 0 .39052-.3905.39052-1.0237 0-1.4142l-2.2929-2.2929h13.58579c.5523 0 1-.44772 1-1 0-.55229-.4477-1-1-1h-13.58579z"/><path d="m16.7071 12.2929c-.3905-.3905-1.0237-.3905-1.4142 0s-.3905 1.0237 0 1.4142l2.2929 2.2929h-13.5858c-.55228 0-1 .4477-1 1s.44772 1 1 1h13.5858l-2.2929 2.2929c-.3905.3905-.3905 1.0237 0 1.4142s1.0237.3905 1.4142 0l4-4c.3905-.3905.3905-1.0237 0-1.4142z"/></g></svg>