<svg fill="none" height="24" viewBox="0 0 24 24" width="24" xmlns="http://www.w3.org/2000/svg"><g fill="#801ed7"><path d="m17.7071 3.29289c-.3905-.39052-1.0237-.39052-1.4142 0l-4 4c-.3905.39053-.3905 1.02369 0 1.41422.3905.39052 1.0237.39052 1.4142 0l2.2929-2.2929v13.58579c0 .5523.4477 1 1 1s1-.4477 1-1v-13.58579l2.2929 2.2929c.3905.39052 1.0237.39052 1.4142 0 .3905-.39053.3905-1.02369 0-1.41422z"/><path d="m8 4c0-.55228-.44772-1-1-1s-1 .44772-1 1v13.5858l-2.29289-2.2929c-.39053-.3905-1.02369-.3905-1.41422 0-.39052.3905-.39052 1.0237 0 1.4142l4 4c.39053.3905 1.02369.3905 1.41422 0l3.99999-4c.3905-.3905.3905-1.0237 0-1.4142s-1.0237-.3905-1.4142 0l-2.2929 2.2929z"/></g></svg>