<svg fill="none" height="24" viewBox="0 0 24 24" width="24" xmlns="http://www.w3.org/2000/svg"><path clip-rule="evenodd" d="m1.32696 2.63813c.28762-.56449.74656-1.02343 1.31105-1.31105.37838-.19279.7716-.26411 1.16694-.29641.37457-.0306.82935-.03059 1.35649-.03057l4.59637-.00005c.40689-.000378.76559-.000712 1.11409.08294.3061.07349.5987.19471.8671.35919.3056.18724.559.44114.8465.72913l7.7567 7.75676c.5692.56923 1.039 1.03893 1.3904 1.45293.365.4299.6606.865.829 1.383.261.8034.261 1.6688 0 2.4722-.1684.518-.464.9531-.829 1.383-.3514.414-.8212.8837-1.3904 1.4529l-2.2702 2.2702c-.5692.5692-1.039 1.039-1.4529 1.3904-.4299.365-.865.6607-1.3831.829-.8033.261-1.6687.261-2.4721 0-.518-.1683-.9531-.464-1.383-.829-.414-.3514-.8837-.8212-1.45294-1.3904l-7.75677-7.7567c-.28799-.2875-.5419-.5409-.72913-.8464-.16449-.2684-.2857-.5611-.35919-.8672-.083655-.3484-.08332-.7072-.082942-1.11408l.000051-4.59636c-.000018-.52715-.000033-.98191.030571-1.35649.0323-.39534.10362-.78856.29641-1.16694zm6.67304 3.36187c-1.10457 0-2 .89543-2 2s.89543 2 2 2 2-.89543 2-2-.89543-2-2-2z" fill="#801ed7" fill-rule="evenodd"/></svg>