<svg fill="none" height="24" viewBox="0 0 24 24" width="24" xmlns="http://www.w3.org/2000/svg"><g fill="#801ed7"><path d="m5 2.00006c0-.55228.44772-1 1-1l4.1137-.00003c.6349-.000301 1.1147-.000529 1.5774.11055.4082.09799.7984.25961 1.1563.47892.4057.24863.7448.58806 1.1936 1.03728l7.6661 7.66622c.3905.3905.3905 1.0236 0 1.4142-.3905.3905-1.0237.3905-1.4142 0l-7.5941-7.59414c-.5525-.55252-.7181-.70898-.8964-.81828-.179-.10965-.3741-.19046-.5782-.23946-.2034-.04883-.4311-.05526-1.2124-.05526h-4.0118c-.55228 0-1-.44771-1-1z"/><path d="m3.63801 4.82712c-.56449.28762-1.02343.74656-1.31105 1.31105-.19279.37838-.26411.7716-.29641 1.16694-.0306.37458-.03059.82934-.03057 1.35649l-.00005 2.0964c-.00038.4069-.00071.7656.08294 1.1141.07349.3061.1947.5987.35919.8671.18723.3055.44114.559.72912.8464l7.88622 7.8862c.3727.3727.6943.6943.9808.9375.3024.2567.6308.4844 1.0347.6156.6026.1958 1.2516.1958 1.8541 0 .4039-.1312.7324-.3589 1.0348-.6156.2865-.2432.608-.5648.9807-.9375l2.5291-2.5291c.3728-.3727.6943-.6943.9376-.9808.2567-.3024.4843-.6308.6155-1.0347.1958-.6025.1958-1.2516 0-1.8541-.1312-.4039-.3588-.7324-.6155-1.0348-.2433-.2865-.5648-.608-.9376-.9807l-7.3861-7.38625c-.2875-.28799-.5409-.54189-.8465-.72913-.2684-.16448-.561-.2857-.8671-.35919-.3485-.08365-.7072-.08332-1.1141-.08294l-3.09636.00005c-.52714-.00002-.98192-.00003-1.35649.03057-.39534.0323-.78856.10362-1.16694.29641z"/></g></svg>