<svg fill="none" height="24" viewBox="0 0 24 24" width="24" xmlns="http://www.w3.org/2000/svg"><path clip-rule="evenodd" d="m1.44206 4.76103c.18723-.30554.44114-.55897.72913-.84642l1.74329-1.7433c.28745-.28798.54089-.54189.84643-.72913.26842-.16449.56105-.2857.86716-.35919.34845-.083652.7072-.083318 1.11409-.08294h3.01565c.40689-.000377.76559-.00071 1.11409.08294.3061.07349.5987.19471.8671.35919.3056.18724.559.44115.8465.72913l7.7567 7.75676c.5692.56923 1.039 1.03893 1.3904 1.45293.365.4299.6606.865.829 1.383.261.8034.261 1.6688 0 2.4722-.1684.518-.464.9531-.829 1.383-.3514.4139-.8212.8837-1.3904 1.4529l-2.2703 2.2702c-.5691.5692-1.0389 1.039-1.4528 1.3904-.43.365-.865.6607-1.3831.829-.8033.261-1.6687.261-2.4721 0-.518-.1683-.9531-.464-1.383-.829-.414-.3514-.8838-.8212-1.45294-1.3904l-7.75677-7.7567c-.28799-.2875-.5419-.5409-.72913-.8464-.16449-.2684-.2857-.5611-.35919-.8672-.083655-.3484-.08332-.7072-.082942-1.11407v-3.01565c-.000378-.4069-.000712-.76564.082942-1.11409.07349-.30611.1947-.59874.35919-.86716zm6.55794 1.23897c-1.10457 0-2 .89543-2 2s.89543 2 2 2 2-.89543 2-2-.89543-2-2-2z" fill="#801ed7" fill-rule="evenodd"/></svg>