<svg fill="none" height="24" viewBox="0 0 24 24" width="24" xmlns="http://www.w3.org/2000/svg"><g fill="#801ed7"><path d="m15 12c0 1.6569-1.3431 3-3 3s-3-1.3431-3-3 1.3431-3 3-3 3 1.3431 3 3z"/><path clip-rule="evenodd" d="m12 1c.5523 0 1 .44772 1 1v1.05493c4.1716.46115 7.4839 3.77345 7.9451 7.94507h1.0549c.5523 0 1 .4477 1 1s-.4477 1-1 1h-1.0549c-.4612 4.1716-3.7735 7.4839-7.9451 7.9451v1.0549c0 .5523-.4477 1-1 1s-1-.4477-1-1v-1.0549c-4.17162-.4612-7.48392-3.7735-7.94507-7.9451h-1.05493c-.55228 0-1-.4477-1-1s.44772-1 1-1h1.05493c.46115-4.17162 3.77345-7.48392 7.94507-7.94507v-1.05493c0-.55228.4477-1 1-1zm1 17.9291v-.9291c0-.5523-.4477-1-1-1s-1 .4477-1 1v.9291c-3.06569-.4385-5.4906-2.8634-5.92911-5.9291h.92911c.55228 0 1-.4477 1-1s-.44772-1-1-1h-.92911c.43851-3.06569 2.86342-5.4906 5.92911-5.92911v.92911c0 .55228.4477 1 1 1s1-.44772 1-1v-.92911c3.0657.43851 5.4906 2.86342 5.9291 5.92911h-.9291c-.5523 0-1 .4477-1 1s.4477 1 1 1h.9291c-.4385 3.0657-2.8634 5.4906-5.9291 5.9291z" fill-rule="evenodd"/></g></svg>