<svg fill="none" height="24" viewBox="0 0 24 24" width="24" xmlns="http://www.w3.org/2000/svg"><g fill="#801ed7"><path clip-rule="evenodd" d="m19.1601 1.01292c.3173.05149.5905.25237.7343.53988l.8509 1.70186 1.7019.85092c.2875.14376.4883.41696.5398.73425s-.0527.63999-.28.86729l-3 3c-.1875.18754-.4418.29289-.7071.29289h-2.5857l-3.7071 3.70709c-.3905.3905-1.0237.3905-1.4142 0s-.3905-1.0237 0-1.4142l3.707-3.70705v-2.58584c0-.26521.1054-.51957.2929-.7071l3-3c.2273-.2273.55-.331475.8673-.27999z" fill-rule="evenodd"/><path d="m3 12c0-4.97056 4.02944-9 9-9 .5523 0 1-.44772 1-1s-.4477-1-1-1c-6.07513 0-11 4.92487-11 11 0 6.0751 4.92487 11 11 11 6.0751 0 11-4.9249 11-11 0-.5523-.4477-1-1-1s-1 .4477-1 1c0 4.9706-4.0294 9-9 9-4.97056 0-9-4.0294-9-9z"/><path d="m8 12c0-2.20914 1.79086-4 4-4 .5523 0 1-.44772 1-1s-.4477-1-1-1c-3.31371 0-6 2.68629-6 6 0 3.3137 2.68629 6 6 6 3.3137 0 6-2.6863 6-6 0-.5523-.4477-1-1-1s-1 .4477-1 1c0 2.2091-1.7909 4-4 4-2.20914 0-4-1.7909-4-4z"/></g></svg>