<svg fill="none" height="24" viewBox="0 0 24 24" width="24" xmlns="http://www.w3.org/2000/svg"><path clip-rule="evenodd" d="m20.1205 1.67588c.1434-.02613.3522-.05055.5914.0003.3099.06586.5909.22812.8029.46353.1636.18178.2469.3748.2959.512.0424.11838.0791.25579.1099.37085l1.4096 5.26074c.0309.11505.0678.25244.0903.37614.0261.14334.0505.35212-.0003.59139-.0659.30984-.2281.59089-.4635.80287-.1818.1636-.3748.2469-.512.2959-.1184.0423-.2558.0791-.3708.1099l-.0597.016c-.5092.1364-.9484.2541-1.3182.3215-.3902.0711-.7885.104-1.2039.0157-.365-.0775-.71-.222-1.0185-.4238l-4.0243 1.0782c.3469.4895.5508 1.0874.5508 1.7329 0 .6636-.2154 1.2769-.5802 1.7737l4.4065 6.4629c.3112.4563.1935 1.0784-.2628 1.3895-.4564.3111-1.0785.1935-1.3896-.2629l-4.4062-6.4623c-.245.0647-.5023.0991-.7677.0991-.2653 0-.5225-.0344-.7675-.0991l-4.40616 6.4623c-.31112.4564-.93325.574-1.38956.2629-.45632-.3111-.57401-.9332-.26289-1.3895l4.40645-6.4628c-.36483-.4968-.58032-1.1101-.58032-1.7738 0-.0931.00424-.1852.01253-.2761l-2.11777.5675c-.11504.0308-.25244.0677-.37614.0903-.14334.0261-.35212.0505-.59138-.0004-.30985-.0658-.59089-.2281-.80285-.4635-.04625-.0513-.08607-.1036-.12052-.1552l-1.26566.3391c-.11504.0309-.25245.0677-.37614.0903-.14334.0261-.35212.0505-.59139-.0003-.30984-.0659-.59089-.2281-.80285-.4635-.16367-.1818-.24691-.3748-.29595-.512-.04233-.1184-.07909-.2559-.10988-.3709l-.37432-1.397c-.03088-.1151-.06775-.2525-.09029-.3762-.02613-.1433-.05055-.3521.0003-.59136.06586-.30984.22812-.59089.46353-.80285.18178-.16367.3748-.24691.512-.29595.1184-.04233.25582-.07909.37089-.10988l1.26579-.33916c.00401-.06183.01237-.12688.02671-.19434.06586-.30985.22812-.59089.46352-.80285.18178-.16368.37481-.24692.51201-.29596.11839-.04233.25582-.07909.37089-.10988l11.57875-3.10251c.1663-.32904.3928-.62662.6701-.87627.3156-.28416.677-.45482 1.0505-.58834.3539-.12651.7931-.2442 1.3023-.38061l.0596-.01597c.115-.03088.2525-.06775.3761-.09029zm-.074 2.07996c-.4491.12081-.7554.20604-.9908.29019-.2567.09175-.3442.15421-.3854.19135-.157.1413-.2651.32866-.3091.53523-.0115.05428-.0218.16132.0271.42947.0509.27967.1465.63946.2958 1.19637l.1552.57956c.1493.5569.2464.91629.3421 1.18398.0917.25666.1542.3442.1913.38544.1413.15694.3287.26511.5352.30902.0543.01153.1614.02186.4295-.02701.2459-.04482.5538-.12415 1.0032-.24411z" fill="#801ed7" fill-rule="evenodd"/></svg>