<svg fill="none" height="24" viewBox="0 0 24 24" width="24" xmlns="http://www.w3.org/2000/svg"><g clip-rule="evenodd" fill="#801ed7" fill-rule="evenodd"><path d="m3.29289 4.29289c.39053-.39052 1.02369-.39052 1.41422 0l5.99999 6.00001c.3905.3905.3905 1.0237 0 1.4142l-5.99999 6c-.39053.3905-1.02369.3905-1.41422 0-.39052-.3905-.39052-1.0237 0-1.4142l5.2929-5.2929-5.2929-5.29289c-.39052-.39053-.39052-1.02369 0-1.41422z"/><path d="m11 19c0-.5523.4477-1 1-1h8c.5523 0 1 .4477 1 1s-.4477 1-1 1h-8c-.5523 0-1-.4477-1-1z"/></g></svg>