<svg fill="none" height="24" viewBox="0 0 24 24" width="24" xmlns="http://www.w3.org/2000/svg"><g fill="#801ed7"><path d="m6.7587 2h10.4826c.8049-.00001 1.4694-.00002 2.0105.0442.5621.04592 1.0788.14449 1.5642.39178.7526.38349 1.3645.99541 1.748 1.74806.2473.48534.3459 1.00204.3918 1.56414.0177.21691.0289.4343.0358.65193.0172.54208.0258.81314-.0806 1.03396-.0916.19025-.2511.35491-.4384.45257-.2173.11336-.5024.11336-1.0726.11336h-18.8c-.57018 0-.85528 0-1.07261-.11336-.18724-.09766-.34676-.26232-.43842-.45257-.106405-.22082-.097793-.49187-.08057-1.03396.00691-.21763.01807-.43502.0358-.65193.04592-.5621.14449-1.07881.39178-1.56414.38349-.75265.99541-1.36457 1.74806-1.74806.48534-.2473 1.00204-.34586 1.56414-.39178.54119-.04422 1.20557-.04421 2.01052-.0442z"/><path clip-rule="evenodd" d="m23 11.6v4.6413c0 .805 0 1.4693-.0442 2.0105-.0459.5621-.1445 1.0788-.3918 1.5642-.3835.7526-.9954 1.3645-1.748 1.748-.4854.2473-1.0021.3459-1.5642.3918-.5412.0442-1.2056.0442-2.0106.0442h-10.48243c-.805 0-1.46938 0-2.01059-.0442-.5621-.0459-1.0788-.1445-1.56414-.3918-.75265-.3835-1.36457-.9954-1.74806-1.748-.24729-.4854-.34586-1.0021-.39178-1.5642-.04422-.5412-.04421-1.2055-.0442-2.0105v-4.6413c0-.5601 0-.8401.109-1.054.09587-.1882.24885-.3411.43701-.437.21391-.109.49394-.109 1.05399-.109h18.8c.5601 0 .8401 0 1.054.109.1882.0959.3411.2488.437.437.109.2139.109.494.109 1.054zm-16.29289.6929c-.39053-.3905-1.02369-.3905-1.41422 0-.39052.3905-.39052 1.0237 0 1.4142l1.7929 1.7929-1.7929 1.7929c-.39052.3905-.39052 1.0237 0 1.4142.39053.3905 1.02369.3905 1.41422 0l2.5-2.5c.39052-.3905.39052-1.0237 0-1.4142zm4.29289 4.7071c-.5523 0-1 .4477-1 1s.4477 1 1 1h4c.5523 0 1-.4477 1-1s-.4477-1-1-1z" fill-rule="evenodd"/></g></svg>