<svg fill="none" height="24" viewBox="0 0 24 24" width="24" xmlns="http://www.w3.org/2000/svg"><g fill="#801ed7"><path clip-rule="evenodd" d="m16 4h-1.5c-.5523 0-1-.44772-1-1s.4477-1 1-1l2.4968.00001.0032-.00001.0032.00001h2.4968c.5523 0 1 .44772 1 1 0 .55229-.4477 1-1 1h-1.5v1.99999h.8385c.5272-.00002.982-.00003 1.3565.03057.3954.0323.7886.10362 1.167.29641.5645.28762 1.0234.74656 1.311 1.31105.1928.37838.2641.7716.2964 1.16694.0306.37458.0306.82934.0306 1.35653v3.677c0 .5272 0 .982-.0306 1.3565-.0323.3954-.1036.7886-.2964 1.167-.2876.5645-.7465 1.0234-1.311 1.311-.3784.1928-.7716.2641-1.167.2964-.3745.0306-.8292.0306-1.3563.0306h-.8387v2h1.5c.5523 0 1 .4477 1 1s-.4477 1-1 1h-5c-.5523 0-1-.4477-1-1s.4477-1 1-1h1.5z" fill-rule="evenodd"/><path d="m5.16146 6h7.83854c.5523 0 1 .44772 1 1v10c0 .5523-.4477 1-1 1h-7.83852c-.52707 0-.98198 0-1.3565-.0306-.39535-.0323-.78857-.1036-1.16695-.2964-.56448-.2876-1.02343-.7465-1.31105-1.311-.19279-.3784-.26411-.7716-.29641-1.167-.030599-.3745-.030585-.8293-.03057-1.3564v-3.6771c-.000015-.52716-.000029-.98197.03057-1.35653.0323-.39534.10362-.78856.29641-1.16694.28762-.56449.74657-1.02343 1.31105-1.31105.37838-.19279.7716-.26411 1.16695-.29641.37455-.0306.82936-.03059 1.35648-.03057z"/></g></svg>