<svg version="1.1" id="Layer_1" xmlns="http://www.w3.org/2000/svg" xmlns:xlink="http://www.w3.org/1999/xlink" x="0px" y="0px"
	 width="100%" viewBox="0 0 4277 450" enable-background="new 0 0 4277 450" xml:space="preserve">
<path fill="#FFFFFF" opacity="1.000000" stroke="none" 
	d="
M0.999999,196.000000 
	C1.000000,131.026184 1.000000,66.052383 1.000000,1.000000 
	C280.028046,1.000000 559.056091,1.000000 838.542053,1.468657 
	C839.000000,148.865921 839.000000,295.794525 839.000000,442.723816 
	C865.270874,442.723816 891.006897,442.723816 917.000000,442.723816 
	C917.000000,440.646790 917.000000,438.837372 917.000000,437.027985 
	C917.000000,385.363708 917.183533,333.698425 916.900696,282.035706 
	C916.801331,263.884888 918.952026,246.287491 926.040649,229.522812 
	C932.647888,213.896606 942.276062,200.895935 957.922363,192.924316 
	C969.496094,187.027664 981.842224,187.153900 993.964539,188.327728 
	C1002.612244,189.165115 1011.150574,192.132080 1018.083191,198.458786 
	C1030.135498,209.457489 1033.739990,223.930237 1033.830200,239.057495 
	C1034.224854,305.218750 1034.000000,371.383698 1034.000000,437.547302 
	C1034.000000,439.306458 1034.000000,441.065582 1034.000000,442.677582 
	C1060.364014,442.677582 1086.100586,442.677582 1112.000000,442.677582 
	C1112.000000,440.537903 1112.000000,438.717590 1112.000000,436.897278 
	C1112.000000,374.233521 1111.989868,311.569763 1112.007324,248.905991 
	C1112.011597,233.585861 1111.814941,218.340271 1109.128052,203.130341 
	C1105.704590,183.751236 1098.252686,166.274185 1085.664551,151.323883 
	C1066.169312,128.170425 1040.182007,117.844162 1010.605164,116.182892 
	C1001.505432,115.671768 992.173401,116.654350 983.139343,118.127922 
	C959.008728,122.063942 937.894104,132.070938 921.572083,150.898102 
	C920.349060,152.308777 918.851624,153.481583 917.000000,155.216202 
	C917.000000,103.269035 917.000000,52.134518 917.000000,1.000000 
	C1426.361328,1.000000 1935.722656,1.000000 2445.541992,1.468657 
	C2446.000000,49.142338 2446.000000,96.347359 2446.000000,143.821320 
	C2442.009033,140.637680 2438.602295,137.629242 2434.910645,135.024261 
	C2415.815186,121.548981 2393.775391,117.639252 2371.170166,116.129608 
	C2363.809326,115.638031 2356.348633,116.695892 2348.931396,116.993576 
	C2334.501221,117.572708 2320.893066,121.557014 2307.951660,127.612122 
	C2283.314697,139.139313 2265.551270,158.126862 2252.041992,181.236664 
	C2237.923096,205.389420 2231.630371,232.070953 2229.195801,259.599457 
	C2228.054932,272.499573 2228.482178,285.610931 2229.152588,298.577240 
	C2229.757324,310.272766 2230.949463,322.036316 2233.129639,333.533386 
	C2239.570557,367.502258 2254.220459,397.098572 2280.678955,420.281647 
	C2296.987305,434.570923 2315.439941,444.100800 2336.783203,448.084564 
	C2339.605225,448.611298 2342.265137,450.006866 2345.000000,451.000000 
	C2242.305176,451.000000 2139.610596,451.000000 2036.610840,450.607727 
	C2068.534424,446.111176 2095.852539,433.118195 2115.511719,405.949097 
	C2119.085449,423.136261 2127.557617,435.947388 2143.613037,443.240875 
	C2154.115479,448.011841 2165.099854,447.926758 2176.248779,448.119995 
	C2186.982910,448.306061 2196.543701,444.528900 2206.206543,440.851135 
	C2207.070801,440.522247 2207.917969,438.827972 2207.924072,437.763062 
	C2208.028076,419.282990 2207.999023,400.802185 2207.999023,382.942993 
	C2202.099121,382.942993 2196.396729,383.564880 2190.895752,382.778656 
	C2184.634766,381.883820 2181.054443,375.121216 2180.994629,366.316742 
	C2180.672852,318.906036 2180.400879,271.494812 2179.961426,224.085129 
	C2179.817383,208.545273 2176.810303,193.428375 2170.903809,179.076294 
	C2162.739014,159.236252 2149.400391,143.618668 2130.509521,133.215530 
	C2108.253174,120.958977 2083.840332,117.088661 2058.875000,116.100838 
	C2050.981445,115.788513 2042.974731,116.138916 2035.137207,117.121262 
	C2022.772827,118.670967 2010.296021,120.173645 1998.251587,123.218376 
	C1981.382812,127.482628 1965.925537,135.187073 1952.703125,146.815063 
	C1937.228027,160.424057 1927.028809,177.291504 1922.376221,197.340332 
	C1920.603271,204.980301 1919.735107,212.830215 1918.426147,220.756699 
	C1944.318115,220.756699 1969.080688,220.756699 1993.688477,220.756699 
	C1994.157104,218.098328 1994.620483,215.711823 1994.993652,213.311264 
	C1996.791504,201.744690 2002.808594,192.798157 2012.137329,186.002747 
	C2023.807251,177.501984 2037.522949,175.818985 2051.306152,175.159424 
	C2057.259766,174.874542 2063.339111,176.073151 2069.287354,177.049026 
	C2085.174805,179.655502 2097.145752,186.922104 2102.245361,203.490448 
	C2106.344238,216.807007 2104.324463,230.226196 2105.109863,244.154388 
	C2099.451172,244.452179 2094.242676,244.700211 2089.037598,245.007584 
	C2083.949463,245.308014 2078.861816,245.632080 2073.778809,246.010117 
	C2056.098633,247.325012 2038.418091,248.636475 2020.742676,250.014771 
	C2013.232056,250.600449 2005.630371,250.784286 1998.251465,252.139084 
	C1982.548706,255.022232 1967.120850,259.086761 1953.059937,267.016296 
	C1932.387695,278.674133 1916.869873,294.871979 1908.982788,317.697632 
	C1903.466919,333.661407 1902.734009,349.997833 1904.997070,366.584473 
	C1907.853027,387.516479 1916.788940,405.531616 1931.851807,420.232758 
	C1947.053101,435.068939 1965.490479,443.958710 1986.307251,448.075684 
	C1988.639648,448.536957 1990.773926,450.001007 1993.000000,451.000000 
	C1769.638672,451.000000 1546.277222,451.000000 1322.612061,450.606873 
	C1390.828857,444.406921 1431.998047,392.150299 1435.586304,347.345337 
	C1435.290649,347.240906 1434.990479,347.042297 1434.690186,347.041992 
	C1411.529419,347.018036 1388.368164,347.070557 1365.208252,346.921661 
	C1362.373657,346.903473 1361.657104,348.218353 1360.969482,350.438507 
	C1357.344360,362.142517 1350.764282,371.943665 1340.729858,378.956329 
	C1325.358276,389.698822 1307.918213,390.858185 1290.140259,387.956421 
	C1262.855713,383.502899 1245.896118,366.455048 1236.280273,341.479858 
	C1232.190552,330.857513 1229.926758,319.725128 1231.360962,307.770752 
	C1302.368774,307.770752 1373.093750,307.770752 1445.000000,307.770752 
	C1445.000000,295.980133 1445.093140,284.571899 1444.954224,273.166443 
	C1444.898438,268.576569 1444.389282,263.987946 1443.987061,259.407471 
	C1443.357178,252.236603 1443.169067,244.975647 1441.862183,237.925491 
	C1438.475464,219.651886 1432.770630,202.152817 1423.481201,185.885193 
	C1414.391846,169.967987 1403.393433,155.640091 1388.832031,144.455368 
	C1364.248413,125.572464 1335.794189,117.033409 1305.239014,116.280495 
	C1291.787231,115.949020 1278.068237,117.667793 1264.808105,120.214218 
	C1238.891113,125.191231 1216.599121,137.694519 1198.059814,156.516586 
	C1185.197266,169.575211 1175.370239,184.735977 1168.021484,201.556732 
	C1157.689087,225.206436 1153.285889,250.130966 1152.116211,275.683533 
	C1151.717163,284.401611 1152.744385,293.179260 1152.982422,301.933441 
	C1153.382812,316.652863 1156.183472,331.012146 1160.569336,344.944122 
	C1169.329712,372.771454 1183.515869,397.208221 1205.953125,416.615723 
	C1224.337891,432.517792 1244.868896,443.520630 1268.806641,448.099731 
	C1270.976562,448.514832 1272.940430,450.007660 1275.000000,451.000000 
	C850.453552,451.000000 425.907135,451.000000 1.000000,451.000000 
	C1.000000,385.972412 1.000000,320.944153 1.382752,255.577362 
	C2.509702,258.496155 3.419805,261.725677 3.970990,265.015350 
	C7.370186,285.302887 13.752161,304.656586 22.662973,323.129761 
	C34.323120,347.302643 50.038879,368.503265 69.441422,387.159058 
	C81.984337,399.219177 95.836975,409.365906 110.381638,418.694183 
	C113.822487,420.900940 117.696564,422.432220 122.000000,424.589355 
	C122.000000,422.166138 122.000000,420.546021 122.000000,418.925903 
	C122.000000,392.111420 121.783180,365.294128 122.129372,338.484131 
	C122.236107,330.218414 122.014946,322.713501 114.242836,317.639130 
	C113.106323,316.897125 112.552010,315.299255 111.646019,314.163055 
	C93.736412,291.702271 83.638809,265.961151 81.214745,237.534531 
	C80.003990,223.336288 80.381630,208.924194 83.966110,194.842651 
	C87.590851,180.602875 92.006355,166.720016 99.964867,154.195297 
	C103.707359,148.305542 107.311996,142.328171 111.220100,136.000320 
	C81.010345,136.000320 51.374783,135.948364 21.740932,136.148849 
	C20.207647,136.159241 17.861757,138.015656 17.289906,139.537186 
	C10.711615,157.040176 4.746947,174.730881 2.919172,193.518295 
	C2.833448,194.399445 1.664480,195.175171 0.999999,196.000000 
M1522.316772,83.000435 
	C1526.703979,82.680450 1524.926514,86.055260 1524.927734,87.844597 
	C1525.007935,204.162155 1525.000000,320.479767 1525.000000,436.797394 
	C1525.000000,438.747009 1525.000000,440.696625 1525.000000,442.768860 
	C1553.183594,442.768860 1580.917358,442.768860 1609.049805,442.768860 
	C1609.049805,322.812836 1609.049805,203.087158 1609.049805,82.952362 
	C1651.847534,82.952362 1694.248413,82.952362 1736.764282,82.952362 
	C1736.764282,56.807590 1736.764282,31.073477 1736.764282,5.229964 
	C1623.136108,5.229964 1509.743774,5.229964 1396.236816,5.229964 
	C1396.236816,31.194605 1396.236816,56.928730 1396.236816,83.000023 
	C1438.096313,83.000023 1479.720093,83.000023 1522.316772,83.000435 
M717.857300,446.962616 
	C722.442139,447.308411 727.042786,448.082642 731.608643,447.914337 
	C742.455505,447.514435 753.344910,447.160645 764.106934,445.869324 
	C775.823425,444.463501 787.378967,441.747162 799.082092,440.180634 
	C803.043701,439.650360 803.032532,437.768036 803.025208,434.906219 
	C802.976624,415.911804 803.005127,396.917236 802.988586,377.922699 
	C802.987488,376.640411 802.823364,375.358246 802.734558,374.069336 
	C797.664551,374.403229 792.889832,374.487915 788.176575,375.070282 
	C772.785400,376.971954 757.374756,378.302002 741.938965,375.959808 
	C726.515442,373.619446 718.362732,364.205231 718.204529,348.757477 
	C717.668640,296.444733 717.997864,244.123093 718.013306,191.804840 
	C718.013672,190.551392 718.211060,189.298004 718.347839,187.673111 
	C745.129944,187.673111 771.530518,187.673111 797.627930,187.673111 
	C797.627930,166.197098 797.627930,145.130020 797.627930,123.838165 
	C770.975708,123.838165 744.695190,123.838165 717.858582,123.838165 
	C717.858582,90.453331 717.858582,57.296455 717.858582,24.035702 
	C691.590088,30.601954 665.873291,37.030281 639.783142,43.551952 
	C639.783142,70.348724 639.783142,97.086510 639.783142,124.228226 
	C620.303467,124.228226 601.233643,124.228226 582.323364,124.228226 
	C582.323364,145.706619 582.323364,166.773361 582.323364,188.245621 
	C601.714172,188.245621 620.783997,188.245621 640.000000,188.245621 
	C640.000000,190.475937 640.000000,192.296570 640.000000,194.117203 
	C640.000000,245.269119 639.750732,296.423126 640.182495,347.571411 
	C640.285156,359.737061 641.637085,372.108185 644.229980,383.988556 
	C648.633484,404.165375 659.277649,420.757538 676.841614,432.392853 
	C689.061218,440.487762 702.651428,444.640869 717.857300,446.962616 
M347.963837,299.345184 
	C339.969238,311.491577 331.285278,322.943420 320.128326,332.565277 
	C307.743256,343.246307 294.435577,352.140381 279.283936,358.312378 
	C262.900635,364.986084 245.989365,368.770477 228.220276,369.083374 
	C213.718338,369.338715 199.519791,367.779968 185.257828,363.726837 
	C185.257828,391.377136 185.257828,418.617798 185.257828,445.827057 
	C287.077240,464.918854 405.193970,408.799988 440.367035,286.005371 
	C471.074005,178.802597 415.863495,69.082916 327.000031,26.446365 
	C327.000031,58.328865 326.970367,90.130211 327.089325,121.931000 
	C327.095154,123.488625 328.163696,125.212105 329.139679,126.568993 
	C336.041840,136.164810 343.935974,145.168625 349.852081,155.328812 
	C365.775970,182.676147 370.856903,212.393875 367.042725,243.767899 
	C364.649841,263.450653 358.439972,281.728607 347.963837,299.345184 
M1718.504395,124.000000 
	C1713.739258,124.000000 1708.974121,124.000000 1704.261475,124.000000 
	C1704.261475,230.628159 1704.261475,336.670013 1704.261475,442.738281 
	C1730.253662,442.738281 1755.983521,442.738281 1782.000000,442.738281 
	C1782.000000,440.676788 1782.000000,438.873779 1782.000000,437.070801 
	C1782.000000,386.589691 1781.852417,336.107788 1782.134033,285.628265 
	C1782.185669,276.378204 1783.353516,267.018036 1785.090332,257.915527 
	C1790.337158,230.415497 1804.462402,209.525650 1831.394287,198.994934 
	C1844.774414,193.763184 1858.599365,191.571808 1872.990601,193.913086 
	C1878.846069,194.865707 1884.790771,195.270859 1891.000000,195.958939 
	C1891.000000,174.341156 1891.017700,153.203537 1890.981689,132.066025 
	C1890.975952,128.761703 1891.848511,124.637413 1890.226807,122.418320 
	C1888.972534,120.702095 1884.445679,121.420166 1881.389038,120.955978 
	C1880.279419,120.787506 1879.223389,120.080841 1878.127197,120.039970 
	C1861.510742,119.420448 1844.963989,120.065598 1828.979980,125.089531 
	C1810.449829,130.913681 1794.736572,141.041382 1783.430176,157.181244 
	C1780.873535,160.830811 1778.941895,164.918076 1776.427246,169.320923 
	C1774.159790,153.640762 1772.028198,138.900330 1769.873413,124.000000 
	C1752.791870,124.000000 1736.147583,124.000000 1718.504395,124.000000 
M185.000000,126.500000 
	C185.000000,168.921463 185.000000,211.342911 185.000000,253.708893 
	C211.973938,253.708893 238.373627,253.708893 264.717346,253.708893 
	C264.717346,170.026764 264.717346,86.636055 264.717346,3.280642 
	C209.372513,3.280642 154.310791,3.280642 99.285126,3.280642 
	C99.285126,29.961906 99.285126,56.361523 99.285126,83.168587 
	C127.969452,83.168587 156.370956,83.168587 185.000000,83.168587 
	C185.000000,97.551437 185.000000,111.525719 185.000000,126.500000 
z"/>
<path fill="#FFFFFF" opacity="1.000000" stroke="none" 
	d="
M3677.000000,451.000000 
	C3592.975098,451.000000 3508.950195,451.000000 3424.620605,450.603943 
	C3452.869873,447.862274 3478.609619,438.126068 3500.130127,419.148224 
	C3521.707520,400.120209 3534.301270,375.817719 3539.617188,347.000000 
	C3515.648682,347.000000 3492.842041,347.129181 3470.039795,346.884430 
	C3465.788818,346.838806 3464.159668,348.201721 3462.910156,352.142792 
	C3458.442871,366.230713 3449.549561,376.739838 3436.200684,383.350189 
	C3424.822021,388.985077 3412.573975,389.926605 3400.337646,388.789551 
	C3392.429199,388.054626 3384.238037,386.374237 3376.997559,383.223602 
	C3358.890869,375.344604 3346.486572,361.430817 3339.556396,342.974792 
	C3335.374023,331.836517 3332.627930,320.319794 3334.414062,307.826904 
	C3405.312744,307.826904 3476.034912,307.826904 3547.000000,307.826904 
	C3547.000000,294.962891 3547.538574,282.461395 3546.856445,270.026825 
	C3546.096436,256.176239 3545.651855,242.057266 3542.552246,228.636520 
	C3535.302734,197.244934 3521.035400,169.458923 3495.796143,148.254471 
	C3484.438721,138.712326 3472.069336,130.970505 3458.063965,125.989464 
	C3436.348877,118.266563 3414.148193,114.796806 3390.977783,116.810684 
	C3379.085449,117.844269 3367.463623,119.565315 3356.107422,123.049469 
	C3336.971436,128.920456 3319.929199,138.483185 3305.257568,152.215271 
	C3288.818848,167.601379 3277.072510,186.082321 3268.612305,206.816101 
	C3260.520996,226.646072 3256.336182,247.428299 3255.206543,268.634979 
	C3254.261230,286.381683 3254.623779,304.195099 3257.864502,321.890839 
	C3260.872803,338.317871 3265.444824,354.145294 3272.664307,369.161194 
	C3283.230713,391.137573 3298.104980,409.721710 3317.786621,424.193054 
	C3331.506104,434.280548 3346.431641,442.079559 3363.167236,446.075378 
	C3369.161621,447.506683 3375.058594,449.346619 3381.000000,451.000000 
	C3163.641846,451.000000 2946.283447,451.000000 2728.620605,450.603943 
	C2756.869873,447.841339 2782.649414,438.060120 2804.115234,419.097015 
	C2825.618896,400.100311 2838.389648,375.839661 2843.428223,347.118988 
	C2817.778809,347.118988 2793.145020,347.118988 2768.489990,347.118988 
	C2766.142334,357.000671 2761.480225,365.666870 2754.572266,372.798950 
	C2737.136475,390.800171 2714.677734,392.093567 2692.580566,387.344116 
	C2668.619141,382.193970 2652.465332,365.841797 2643.405029,342.886505 
	C2639.017090,331.768829 2637.746826,320.127777 2637.024658,307.922546 
	C2708.241699,307.922546 2779.002930,307.922546 2850.069580,307.922546 
	C2850.395996,302.990570 2851.001709,298.425018 2850.942627,293.868073 
	C2850.770996,280.613159 2850.672363,267.341248 2849.877197,254.116211 
	C2849.371094,245.702347 2848.151611,237.259460 2846.411133,229.006927 
	C2843.008789,212.875702 2837.581299,197.302216 2828.598877,183.446472 
	C2821.816162,172.983887 2814.473389,162.594574 2805.791016,153.728333 
	C2795.392090,143.109039 2782.840332,135.025681 2769.012207,128.855835 
	C2750.625732,120.652435 2731.322754,117.114845 2711.520752,116.186287 
	C2702.401367,115.758659 2693.181641,117.255356 2684.018799,118.015495 
	C2671.037598,119.092392 2658.645752,122.692719 2646.754150,127.780815 
	C2616.324707,140.800873 2594.081055,162.839417 2579.133545,191.982635 
	C2565.220703,219.108459 2558.634766,248.259674 2559.079834,278.795715 
	C2559.276855,292.305481 2559.371094,305.939697 2561.262695,319.268951 
	C2563.359131,334.042694 2567.726562,348.370300 2573.533447,362.322327 
	C2583.569336,386.434631 2598.939209,406.389069 2619.159912,422.432068 
	C2635.479492,435.380310 2654.146973,444.028961 2674.780029,448.079895 
	C2677.602539,448.634003 2680.263916,450.006409 2683.000000,451.000000 
	C2579.975098,451.000000 2476.950195,451.000000 2373.624268,450.601379 
	C2405.123779,448.170197 2432.026367,436.485291 2451.937500,410.195862 
	C2453.496582,421.231567 2455.025391,432.054321 2456.523193,442.656647 
	C2479.087891,442.656647 2501.484375,442.656647 2524.000000,442.656647 
	C2524.000000,295.208893 2524.000000,148.104446 2524.000000,1.000000 
	C2973.024902,1.000000 3422.049805,1.000000 3871.537354,1.468657 
	C3872.000000,148.862457 3872.000000,295.787598 3872.000000,442.729797 
	C3898.260010,442.729797 3923.995361,442.729797 3950.000000,442.729797 
	C3950.000000,440.823181 3950.000000,439.184174 3950.000000,437.545135 
	C3950.000000,412.880463 3949.881104,388.214417 3950.158691,363.552917 
	C3950.191162,360.652191 3951.735840,357.175140 3953.711914,354.988739 
	C3964.132324,343.458862 3974.954590,332.293365 3985.555908,320.925507 
	C3990.348877,315.786255 3994.953613,310.471527 3999.682617,305.193176 
	C4000.068115,305.641968 4000.563477,306.098938 4000.916260,306.647644 
	C4021.136719,338.117981 4041.328857,369.606567 4061.562988,401.068115 
	C4069.592041,413.551910 4077.997070,425.807068 4085.606445,438.539307 
	C4087.750000,442.126038 4089.750977,443.088409 4093.542725,443.069611 
	C4120.040039,442.938110 4146.538086,443.000000 4173.036133,443.000000 
	C4174.621582,443.000000 4176.207031,443.000000 4178.819824,443.000000 
	C4136.433594,377.357300 4094.592041,312.558777 4052.825928,247.876724 
	C4064.045654,235.569138 4074.893799,223.600418 4085.819336,211.703018 
	C4097.985840,198.453537 4110.174805,185.223892 4122.443359,172.069138 
	C4133.385742,160.336044 4144.489746,148.753372 4155.438965,137.026703 
	C4159.154297,133.047592 4162.616211,128.831940 4166.510742,124.360222 
	C4165.222168,124.154465 4164.758301,124.015617 4164.293945,124.015427 
	C4133.629883,124.003151 4102.965332,123.965836 4072.301758,124.096786 
	C4070.596680,124.104065 4068.453125,125.088867 4067.267578,126.335693 
	C4059.311523,134.701996 4051.604248,143.303757 4043.731934,151.750992 
	C4029.197754,167.347015 4014.638428,182.919983 4000.024414,198.441452 
	C3992.298584,206.647034 3984.355469,214.648758 3976.662109,222.884354 
	C3970.939209,229.010971 3965.506348,235.407745 3959.852783,241.600861 
	C3956.912842,244.821716 3953.775635,247.862335 3950.000000,251.729263 
	C3950.000000,167.264099 3950.000000,84.132050 3950.000000,1.000000 
	C4059.216553,1.000000 4168.433105,1.000000 4278.000000,1.000000 
	C4278.000000,24.357075 4278.000000,47.715897 4277.627930,71.410629 
	C4275.451172,62.144878 4270.579102,54.538795 4262.961426,48.374565 
	C4248.372070,36.568455 4225.879395,37.139542 4211.802734,47.894047 
	C4194.022949,61.477814 4190.665039,88.775383 4203.163086,106.728142 
	C4219.499512,130.195236 4255.484375,130.113953 4271.186523,106.343758 
	C4273.615234,102.666550 4275.736328,98.786354 4278.000000,95.000000 
	C4278.000000,213.611237 4278.000000,332.222473 4278.000000,451.000000 
	C4093.308350,451.000000 3908.616943,451.000000 3723.624268,450.601349 
	C3731.061768,449.137085 3738.875488,448.450470 3746.525635,446.937622 
	C3773.823242,441.539734 3798.098389,430.552826 3816.728271,408.904510 
	C3823.916504,400.551910 3829.243652,391.276764 3832.970215,381.068024 
	C3839.138428,364.171600 3840.964355,346.629761 3837.780518,328.993195 
	C3836.174561,320.096008 3833.209473,311.157349 3829.206787,303.053436 
	C3824.389893,293.300812 3817.380127,284.927368 3808.634521,277.949341 
	C3794.972656,267.049133 3779.649170,259.840424 3762.770752,256.129852 
	C3752.013672,253.764999 3740.989746,252.599152 3730.072510,250.982758 
	C3718.493164,249.268311 3706.875000,247.803024 3695.318115,245.952988 
	C3686.395996,244.524750 3677.259033,243.553955 3668.718506,240.816574 
	C3652.285400,235.549576 3647.448730,225.572189 3647.292480,213.005219 
	C3647.147949,201.385345 3653.330078,191.864182 3662.876709,185.052551 
	C3673.750000,177.294724 3686.518799,175.426453 3699.324707,175.214813 
	C3707.543213,175.078964 3716.010986,176.185074 3723.980225,178.236740 
	C3734.264648,180.884537 3743.449707,185.958511 3749.793457,195.201675 
	C3754.928223,202.683105 3758.694824,210.501892 3758.143555,219.691254 
	C3783.012451,219.691254 3807.418457,219.691254 3832.355957,219.691254 
	C3831.877197,213.955429 3832.178467,208.378296 3830.855713,203.217255 
	C3822.894287,172.150436 3805.433350,148.284821 3776.820068,132.943161 
	C3756.564941,122.082832 3734.658447,117.176277 3712.083740,116.294502 
	C3697.725586,115.733650 3683.052246,116.855072 3668.884766,119.318306 
	C3648.759033,122.817406 3630.091064,130.523788 3613.312256,142.841888 
	C3588.032959,161.400528 3575.316162,186.300873 3574.098633,217.207535 
	C3573.475098,233.036942 3577.389648,247.970459 3585.328125,261.834930 
	C3594.630615,278.081848 3608.008545,289.921173 3624.611816,298.057922 
	C3641.870117,306.515472 3660.778076,308.564789 3679.526611,310.975311 
	C3686.009033,311.808777 3692.541748,312.252014 3699.027832,313.060333 
	C3708.878906,314.287933 3718.701172,315.747986 3728.552002,316.979279 
	C3737.406250,318.086121 3745.823486,319.965881 3753.596680,324.945984 
	C3771.228516,336.242584 3772.124023,365.988159 3752.872803,379.047760 
	C3740.313965,387.567352 3726.009521,389.925598 3711.433105,390.854309 
	C3703.734131,391.344849 3695.924072,390.537109 3688.191406,389.955994 
	C3674.000488,388.889526 3661.290771,383.853851 3651.314941,373.610229 
	C3644.255859,366.360962 3640.220703,357.182129 3638.719482,347.326050 
	C3614.247559,347.326050 3590.163330,347.326050 3565.227051,347.326050 
	C3566.482666,353.666962 3567.296875,359.625732 3568.865723,365.378693 
	C3575.217773,388.669495 3588.798584,407.150299 3607.528809,421.993317 
	C3624.806641,435.685364 3644.520996,444.005310 3666.136719,448.046570 
	C3669.813477,448.733978 3673.381592,450.000885 3677.000000,451.000000 
M2888.000000,104.500000 
	C2888.000000,217.241180 2888.000000,329.982361 2888.000000,443.000000 
	C2890.335938,443.000000 2892.140625,443.000000 2893.945312,443.000000 
	C2947.932129,443.000000 3001.919189,443.108948 3055.905273,442.909546 
	C3066.907471,442.868896 3077.931152,441.949554 3088.899414,440.939026 
	C3106.582520,439.309814 3123.279053,433.829285 3139.201172,426.238922 
	C3156.664062,417.914093 3171.928223,406.647980 3184.798584,391.909363 
	C3198.744873,375.938477 3208.837158,357.955750 3215.999268,338.184174 
	C3226.768799,308.454102 3229.948486,277.408325 3230.838379,246.137680 
	C3231.380859,227.079605 3230.385498,207.975113 3229.966553,188.893982 
	C3229.847656,183.470581 3229.834717,177.966461 3228.896484,172.654221 
	C3226.171143,157.224167 3223.827148,141.654449 3219.833008,126.535881 
	C3211.590576,95.334618 3196.176758,68.276085 3171.456543,46.801640 
	C3155.933105,33.316711 3138.244141,24.032818 3118.985107,17.527454 
	C3098.739746,10.688782 3077.626709,8.331450 3056.464111,8.153740 
	C3001.814453,7.694833 2947.158691,7.998202 2892.505371,8.009913 
	C2891.070068,8.010221 2889.634521,8.157818 2888.000000,8.247676 
	C2888.000000,40.225292 2888.000000,71.862648 2888.000000,104.500000 
z"/>
<path fill="#0C0C27" opacity="1.000000" stroke="none" 
	d="
M2523.531250,1.000000 
	C2524.000000,148.104446 2524.000000,295.208893 2524.000000,442.656647 
	C2501.484375,442.656647 2479.087891,442.656647 2456.523193,442.656647 
	C2455.025391,432.054321 2453.496582,421.231567 2451.937500,410.195862 
	C2432.026367,436.485291 2405.123779,448.170197 2373.161621,450.601379 
	C2363.979248,451.000000 2354.958252,451.000000 2345.468750,451.000000 
	C2342.265137,450.006866 2339.605225,448.611298 2336.783203,448.084564 
	C2315.439941,444.100800 2296.987305,434.570923 2280.678955,420.281647 
	C2254.220459,397.098572 2239.570557,367.502258 2233.129639,333.533386 
	C2230.949463,322.036316 2229.757324,310.272766 2229.152588,298.577240 
	C2228.482178,285.610931 2228.054932,272.499573 2229.195801,259.599457 
	C2231.630371,232.070953 2237.923096,205.389420 2252.041992,181.236664 
	C2265.551270,158.126862 2283.314697,139.139313 2307.951660,127.612122 
	C2320.893066,121.557014 2334.501221,117.572708 2348.931396,116.993576 
	C2356.348633,116.695892 2363.809326,115.638031 2371.170166,116.129608 
	C2393.775391,117.639252 2415.815186,121.548981 2434.910645,135.024261 
	C2438.602295,137.629242 2442.009033,140.637680 2446.000000,143.821320 
	C2446.000000,96.347359 2446.000000,49.142338 2446.000000,1.468657 
	C2471.687500,1.000000 2497.375000,1.000000 2523.531250,1.000000 
M2347.022461,189.471268 
	C2335.135254,196.156052 2326.352051,205.910080 2320.082031,217.816879 
	C2310.741943,235.553802 2308.082520,254.987045 2307.122314,274.643982 
	C2306.720459,282.860291 2307.723633,291.140594 2307.986572,299.395020 
	C2308.460938,314.274902 2311.351807,328.653259 2317.020264,342.417328 
	C2323.351318,357.790222 2333.383789,369.923767 2348.143555,378.062500 
	C2362.154297,385.788300 2376.913574,386.569550 2392.287354,384.055237 
	C2412.729248,380.712067 2426.881592,369.137421 2436.365479,351.185364 
	C2446.066895,332.821289 2448.910889,312.761871 2449.781982,292.501099 
	C2450.303223,280.383240 2448.860840,268.158295 2447.953125,256.007446 
	C2446.857910,241.351425 2442.715576,227.474106 2435.811768,214.515305 
	C2429.375977,202.434509 2420.312256,192.532043 2407.543945,187.383331 
	C2387.543457,179.318466 2367.355225,179.088089 2347.022461,189.471268 
z"/>
<path fill="#0C0C27" opacity="1.000000" stroke="none" 
	d="
M3949.531250,1.000000 
	C3950.000000,84.132050 3950.000000,167.264099 3950.000000,251.729263 
	C3953.775635,247.862335 3956.912842,244.821716 3959.852783,241.600861 
	C3965.506348,235.407745 3970.939209,229.010971 3976.662109,222.884354 
	C3984.355469,214.648758 3992.298584,206.647034 4000.024414,198.441452 
	C4014.638428,182.919983 4029.197754,167.347015 4043.731934,151.750992 
	C4051.604248,143.303757 4059.311523,134.701996 4067.267578,126.335693 
	C4068.453125,125.088867 4070.596680,124.104065 4072.301758,124.096786 
	C4102.965332,123.965836 4133.629883,124.003151 4164.293945,124.015427 
	C4164.758301,124.015617 4165.222168,124.154465 4166.510742,124.360222 
	C4162.616211,128.831940 4159.154297,133.047592 4155.438965,137.026703 
	C4144.489746,148.753372 4133.385742,160.336044 4122.443359,172.069138 
	C4110.174805,185.223892 4097.985840,198.453537 4085.819336,211.703018 
	C4074.893799,223.600418 4064.045654,235.569138 4052.825928,247.876724 
	C4094.592041,312.558777 4136.433594,377.357300 4178.819824,443.000000 
	C4176.207031,443.000000 4174.621582,443.000000 4173.036133,443.000000 
	C4146.538086,443.000000 4120.040039,442.938110 4093.542725,443.069611 
	C4089.750977,443.088409 4087.750000,442.126038 4085.606445,438.539307 
	C4077.997070,425.807068 4069.592041,413.551910 4061.562988,401.068115 
	C4041.328857,369.606567 4021.136719,338.117981 4000.916260,306.647644 
	C4000.563477,306.098938 4000.068115,305.641968 3999.682617,305.193176 
	C3994.953613,310.471527 3990.348877,315.786255 3985.555908,320.925507 
	C3974.954590,332.293365 3964.132324,343.458862 3953.711914,354.988739 
	C3951.735840,357.175140 3950.191162,360.652191 3950.158691,363.552917 
	C3949.881104,388.214417 3950.000000,412.880463 3950.000000,437.545135 
	C3950.000000,439.184174 3950.000000,440.823181 3950.000000,442.729797 
	C3923.995361,442.729797 3898.260010,442.729797 3872.000000,442.729797 
	C3872.000000,295.787598 3872.000000,148.862457 3872.000000,1.468657 
	C3897.687500,1.000000 3923.375000,1.000000 3949.531250,1.000000 
z"/>
<path fill="#0C0C27" opacity="1.000000" stroke="none" 
	d="
M916.531372,1.000000 
	C917.000000,52.134518 917.000000,103.269035 917.000000,155.216202 
	C918.851624,153.481583 920.349060,152.308777 921.572083,150.898102 
	C937.894104,132.070938 959.008728,122.063942 983.139343,118.127922 
	C992.173401,116.654350 1001.505432,115.671768 1010.605164,116.182892 
	C1040.182007,117.844162 1066.169312,128.170425 1085.664551,151.323883 
	C1098.252686,166.274185 1105.704590,183.751236 1109.128052,203.130341 
	C1111.814941,218.340271 1112.011597,233.585861 1112.007324,248.905991 
	C1111.989868,311.569763 1112.000000,374.233521 1112.000000,436.897278 
	C1112.000000,438.717590 1112.000000,440.537903 1112.000000,442.677582 
	C1086.100586,442.677582 1060.364014,442.677582 1034.000000,442.677582 
	C1034.000000,441.065582 1034.000000,439.306458 1034.000000,437.547302 
	C1034.000000,371.383698 1034.224854,305.218750 1033.830200,239.057495 
	C1033.739990,223.930237 1030.135498,209.457489 1018.083191,198.458786 
	C1011.150574,192.132080 1002.612244,189.165115 993.964539,188.327728 
	C981.842224,187.153900 969.496094,187.027664 957.922363,192.924316 
	C942.276062,200.895935 932.647888,213.896606 926.040649,229.522812 
	C918.952026,246.287491 916.801331,263.884888 916.900696,282.035706 
	C917.183533,333.698425 917.000000,385.363708 917.000000,437.027985 
	C917.000000,438.837372 917.000000,440.646790 917.000000,442.723816 
	C891.006897,442.723816 865.270874,442.723816 839.000000,442.723816 
	C839.000000,295.794525 839.000000,148.865921 839.000000,1.468657 
	C864.687561,1.000000 890.375122,1.000000 916.531372,1.000000 
z"/>
<path fill="#0C0C27" opacity="1.000000" stroke="none" 
	d="
M1993.468628,451.000000 
	C1990.773926,450.001007 1988.639648,448.536957 1986.307251,448.075684 
	C1965.490479,443.958710 1947.053101,435.068939 1931.851807,420.232758 
	C1916.788940,405.531616 1907.853027,387.516479 1904.997070,366.584473 
	C1902.734009,349.997833 1903.466919,333.661407 1908.982788,317.697632 
	C1916.869873,294.871979 1932.387695,278.674133 1953.059937,267.016296 
	C1967.120850,259.086761 1982.548706,255.022232 1998.251465,252.139084 
	C2005.630371,250.784286 2013.232056,250.600449 2020.742676,250.014771 
	C2038.418091,248.636475 2056.098633,247.325012 2073.778809,246.010117 
	C2078.861816,245.632080 2083.949463,245.308014 2089.037598,245.007584 
	C2094.242676,244.700211 2099.451172,244.452179 2105.109863,244.154388 
	C2104.324463,230.226196 2106.344238,216.807007 2102.245361,203.490448 
	C2097.145752,186.922104 2085.174805,179.655502 2069.287354,177.049026 
	C2063.339111,176.073151 2057.259766,174.874542 2051.306152,175.159424 
	C2037.522949,175.818985 2023.807251,177.501984 2012.137329,186.002747 
	C2002.808594,192.798157 1996.791504,201.744690 1994.993652,213.311264 
	C1994.620483,215.711823 1994.157104,218.098328 1993.688477,220.756699 
	C1969.080688,220.756699 1944.318115,220.756699 1918.426147,220.756699 
	C1919.735107,212.830215 1920.603271,204.980301 1922.376221,197.340332 
	C1927.028809,177.291504 1937.228027,160.424057 1952.703125,146.815063 
	C1965.925537,135.187073 1981.382812,127.482628 1998.251587,123.218376 
	C2010.296021,120.173645 2022.772827,118.670967 2035.137207,117.121262 
	C2042.974731,116.138916 2050.981445,115.788513 2058.875000,116.100838 
	C2083.840332,117.088661 2108.253174,120.958977 2130.509521,133.215530 
	C2149.400391,143.618668 2162.739014,159.236252 2170.903809,179.076294 
	C2176.810303,193.428375 2179.817383,208.545273 2179.961426,224.085129 
	C2180.400879,271.494812 2180.672852,318.906036 2180.994629,366.316742 
	C2181.054443,375.121216 2184.634766,381.883820 2190.895752,382.778656 
	C2196.396729,383.564880 2202.099121,382.942993 2207.999023,382.942993 
	C2207.999023,400.802185 2208.028076,419.282990 2207.924072,437.763062 
	C2207.917969,438.827972 2207.070801,440.522247 2206.206543,440.851135 
	C2196.543701,444.528900 2186.982910,448.306061 2176.248779,448.119995 
	C2165.099854,447.926758 2154.115479,448.011841 2143.613037,443.240875 
	C2127.557617,435.947388 2119.085449,423.136261 2115.511719,405.949097 
	C2095.852539,433.118195 2068.534424,446.111176 2036.152954,450.607727 
	C2021.979126,451.000000 2007.958130,451.000000 1993.468628,451.000000 
M2099.054199,346.494659 
	C2105.673584,332.368652 2105.409180,317.379578 2104.804932,302.098114 
	C2100.384277,302.408936 2096.182861,302.730194 2091.977539,302.993713 
	C2086.229736,303.353912 2080.468262,303.543732 2074.731689,304.029907 
	C2059.888184,305.287964 2045.078003,307.154999 2030.211182,307.853119 
	C2017.243408,308.462067 2005.229614,311.272614 1994.762451,319.068939 
	C1984.277466,326.878662 1978.540771,337.713928 1979.219849,350.623535 
	C1979.983398,365.140442 1987.615234,376.116669 2000.679688,382.940735 
	C2014.847900,390.341400 2030.061157,389.684509 2044.848145,386.756073 
	C2068.684814,382.035461 2088.625488,370.977936 2099.054199,346.494659 
z"/>
<path fill="#0C0C27" opacity="1.000000" stroke="none" 
	d="
M2683.468750,451.000000 
	C2680.263916,450.006409 2677.602539,448.634003 2674.780029,448.079895 
	C2654.146973,444.028961 2635.479492,435.380310 2619.159912,422.432068 
	C2598.939209,406.389069 2583.569336,386.434631 2573.533447,362.322327 
	C2567.726562,348.370300 2563.359131,334.042694 2561.262695,319.268951 
	C2559.371094,305.939697 2559.276855,292.305481 2559.079834,278.795715 
	C2558.634766,248.259674 2565.220703,219.108459 2579.133545,191.982635 
	C2594.081055,162.839417 2616.324707,140.800873 2646.754150,127.780815 
	C2658.645752,122.692719 2671.037598,119.092392 2684.018799,118.015495 
	C2693.181641,117.255356 2702.401367,115.758659 2711.520752,116.186287 
	C2731.322754,117.114845 2750.625732,120.652435 2769.012207,128.855835 
	C2782.840332,135.025681 2795.392090,143.109039 2805.791016,153.728333 
	C2814.473389,162.594574 2821.816162,172.983887 2828.598877,183.446472 
	C2837.581299,197.302216 2843.008789,212.875702 2846.411133,229.006927 
	C2848.151611,237.259460 2849.371094,245.702347 2849.877197,254.116211 
	C2850.672363,267.341248 2850.770996,280.613159 2850.942627,293.868073 
	C2851.001709,298.425018 2850.395996,302.990570 2850.069580,307.922546 
	C2779.002930,307.922546 2708.241699,307.922546 2637.024658,307.922546 
	C2637.746826,320.127777 2639.017090,331.768829 2643.405029,342.886505 
	C2652.465332,365.841797 2668.619141,382.193970 2692.580566,387.344116 
	C2714.677734,392.093567 2737.136475,390.800171 2754.572266,372.798950 
	C2761.480225,365.666870 2766.142334,357.000671 2768.489990,347.118988 
	C2793.145020,347.118988 2817.778809,347.118988 2843.428223,347.118988 
	C2838.389648,375.839661 2825.618896,400.100311 2804.115234,419.097015 
	C2782.649414,438.060120 2756.869873,447.841339 2728.158203,450.603943 
	C2713.312500,451.000000 2698.625000,451.000000 2683.468750,451.000000 
M2668.500000,251.000000 
	C2703.244141,251.000000 2737.988281,251.000000 2773.964355,251.000000 
	C2772.565674,242.486313 2771.912354,234.507751 2769.879883,226.897491 
	C2764.039062,205.026825 2751.697754,188.536697 2729.156738,181.708511 
	C2719.020264,178.637939 2708.606689,177.561539 2697.888428,178.874863 
	C2689.114990,179.949890 2680.967529,182.434830 2673.125244,186.343246 
	C2658.875244,193.444931 2649.785400,205.291534 2643.391846,219.320084 
	C2638.882324,229.215118 2636.823975,239.788986 2637.072266,251.000000 
	C2647.558838,251.000000 2657.529541,251.000000 2668.500000,251.000000 
z"/>
<path fill="#0C0C27" opacity="1.000000" stroke="none" 
	d="
M3381.468750,451.000000 
	C3375.058594,449.346619 3369.161621,447.506683 3363.167236,446.075378 
	C3346.431641,442.079559 3331.506104,434.280548 3317.786621,424.193054 
	C3298.104980,409.721710 3283.230713,391.137573 3272.664307,369.161194 
	C3265.444824,354.145294 3260.872803,338.317871 3257.864502,321.890839 
	C3254.623779,304.195099 3254.261230,286.381683 3255.206543,268.634979 
	C3256.336182,247.428299 3260.520996,226.646072 3268.612305,206.816101 
	C3277.072510,186.082321 3288.818848,167.601379 3305.257568,152.215271 
	C3319.929199,138.483185 3336.971436,128.920456 3356.107422,123.049469 
	C3367.463623,119.565315 3379.085449,117.844269 3390.977783,116.810684 
	C3414.148193,114.796806 3436.348877,118.266563 3458.063965,125.989464 
	C3472.069336,130.970505 3484.438721,138.712326 3495.796143,148.254471 
	C3521.035400,169.458923 3535.302734,197.244934 3542.552246,228.636520 
	C3545.651855,242.057266 3546.096436,256.176239 3546.856445,270.026825 
	C3547.538574,282.461395 3547.000000,294.962891 3547.000000,307.826904 
	C3476.034912,307.826904 3405.312744,307.826904 3334.414062,307.826904 
	C3332.627930,320.319794 3335.374023,331.836517 3339.556396,342.974792 
	C3346.486572,361.430817 3358.890869,375.344604 3376.997559,383.223602 
	C3384.238037,386.374237 3392.429199,388.054626 3400.337646,388.789551 
	C3412.573975,389.926605 3424.822021,388.985077 3436.200684,383.350189 
	C3449.549561,376.739838 3458.442871,366.230713 3462.910156,352.142792 
	C3464.159668,348.201721 3465.788818,346.838806 3470.039795,346.884430 
	C3492.842041,347.129181 3515.648682,347.000000 3539.617188,347.000000 
	C3534.301270,375.817719 3521.707520,400.120209 3500.130127,419.148224 
	C3478.609619,438.126068 3452.869873,447.862274 3424.158203,450.603943 
	C3409.979248,451.000000 3395.958252,451.000000 3381.468750,451.000000 
M3352.464600,199.023376 
	C3339.370361,213.797775 3333.452393,231.185883 3332.996094,250.782654 
	C3379.028320,250.782654 3424.445312,250.782654 3469.969482,250.782654 
	C3469.609619,249.310486 3469.028809,248.064148 3469.045898,246.826111 
	C3469.187012,236.601013 3466.777100,226.876266 3462.948486,217.537857 
	C3456.580078,202.004959 3446.711182,189.815582 3430.354248,183.651230 
	C3419.405762,179.524979 3408.391113,178.040390 3396.677246,178.846741 
	C3379.507324,180.028656 3365.042236,186.395279 3352.464600,199.023376 
z"/>
<path fill="#0C0C27" opacity="1.000000" stroke="none" 
	d="
M1275.468628,451.000000 
	C1272.940430,450.007660 1270.976562,448.514832 1268.806641,448.099731 
	C1244.868896,443.520630 1224.337891,432.517792 1205.953125,416.615723 
	C1183.515869,397.208221 1169.329712,372.771454 1160.569336,344.944122 
	C1156.183472,331.012146 1153.382812,316.652863 1152.982422,301.933441 
	C1152.744385,293.179260 1151.717163,284.401611 1152.116211,275.683533 
	C1153.285889,250.130966 1157.689087,225.206436 1168.021484,201.556732 
	C1175.370239,184.735977 1185.197266,169.575211 1198.059814,156.516586 
	C1216.599121,137.694519 1238.891113,125.191231 1264.808105,120.214218 
	C1278.068237,117.667793 1291.787231,115.949020 1305.239014,116.280495 
	C1335.794189,117.033409 1364.248413,125.572464 1388.832031,144.455368 
	C1403.393433,155.640091 1414.391846,169.967987 1423.481201,185.885193 
	C1432.770630,202.152817 1438.475464,219.651886 1441.862183,237.925491 
	C1443.169067,244.975647 1443.357178,252.236603 1443.987061,259.407471 
	C1444.389282,263.987946 1444.898438,268.576569 1444.954224,273.166443 
	C1445.093140,284.571899 1445.000000,295.980133 1445.000000,307.770752 
	C1373.093750,307.770752 1302.368774,307.770752 1231.360962,307.770752 
	C1229.926758,319.725128 1232.190552,330.857513 1236.280273,341.479858 
	C1245.896118,366.455048 1262.855713,383.502899 1290.140259,387.956421 
	C1307.918213,390.858185 1325.358276,389.698822 1340.729858,378.956329 
	C1350.764282,371.943665 1357.344360,362.142517 1360.969482,350.438507 
	C1361.657104,348.218353 1362.373657,346.903473 1365.208252,346.921661 
	C1388.368164,347.070557 1411.529419,347.018036 1434.690186,347.041992 
	C1434.990479,347.042297 1435.290649,347.240906 1435.586304,347.345337 
	C1431.998047,392.150299 1390.828857,444.406921 1322.154053,450.606873 
	C1306.645752,451.000000 1291.291504,451.000000 1275.468628,451.000000 
M1338.941528,189.429703 
	C1334.807861,187.287796 1330.840210,184.700287 1326.509766,183.086029 
	C1312.505493,177.865540 1298.050415,177.111908 1283.456421,180.054840 
	C1274.203247,181.920761 1265.794556,185.913803 1258.112183,191.387665 
	C1247.553589,198.910889 1240.576294,209.389709 1236.218018,221.185196 
	C1232.765991,230.527512 1231.353882,240.623505 1228.936279,250.804657 
	C1275.871094,250.804657 1321.264893,250.804657 1367.005493,250.804657 
	C1365.174805,226.990753 1359.527222,205.240662 1338.941528,189.429703 
z"/>
<path fill="#0C0C27" opacity="1.000000" stroke="none" 
	d="
M3677.468750,451.000000 
	C3673.381592,450.000885 3669.813477,448.733978 3666.136719,448.046570 
	C3644.520996,444.005310 3624.806641,435.685364 3607.528809,421.993317 
	C3588.798584,407.150299 3575.217773,388.669495 3568.865723,365.378693 
	C3567.296875,359.625732 3566.482666,353.666962 3565.227051,347.326050 
	C3590.163330,347.326050 3614.247559,347.326050 3638.719482,347.326050 
	C3640.220703,357.182129 3644.255859,366.360962 3651.314941,373.610229 
	C3661.290771,383.853851 3674.000488,388.889526 3688.191406,389.955994 
	C3695.924072,390.537109 3703.734131,391.344849 3711.433105,390.854309 
	C3726.009521,389.925598 3740.313965,387.567352 3752.872803,379.047760 
	C3772.124023,365.988159 3771.228516,336.242584 3753.596680,324.945984 
	C3745.823486,319.965881 3737.406250,318.086121 3728.552002,316.979279 
	C3718.701172,315.747986 3708.878906,314.287933 3699.027832,313.060333 
	C3692.541748,312.252014 3686.009033,311.808777 3679.526611,310.975311 
	C3660.778076,308.564789 3641.870117,306.515472 3624.611816,298.057922 
	C3608.008545,289.921173 3594.630615,278.081848 3585.328125,261.834930 
	C3577.389648,247.970459 3573.475098,233.036942 3574.098633,217.207535 
	C3575.316162,186.300873 3588.032959,161.400528 3613.312256,142.841888 
	C3630.091064,130.523788 3648.759033,122.817406 3668.884766,119.318306 
	C3683.052246,116.855072 3697.725586,115.733650 3712.083740,116.294502 
	C3734.658447,117.176277 3756.564941,122.082832 3776.820068,132.943161 
	C3805.433350,148.284821 3822.894287,172.150436 3830.855713,203.217255 
	C3832.178467,208.378296 3831.877197,213.955429 3832.355957,219.691254 
	C3807.418457,219.691254 3783.012451,219.691254 3758.143555,219.691254 
	C3758.694824,210.501892 3754.928223,202.683105 3749.793457,195.201675 
	C3743.449707,185.958511 3734.264648,180.884537 3723.980225,178.236740 
	C3716.010986,176.185074 3707.543213,175.078964 3699.324707,175.214813 
	C3686.518799,175.426453 3673.750000,177.294724 3662.876709,185.052551 
	C3653.330078,191.864182 3647.147949,201.385345 3647.292480,213.005219 
	C3647.448730,225.572189 3652.285400,235.549576 3668.718506,240.816574 
	C3677.259033,243.553955 3686.395996,244.524750 3695.318115,245.952988 
	C3706.875000,247.803024 3718.493164,249.268311 3730.072510,250.982758 
	C3740.989746,252.599152 3752.013672,253.764999 3762.770752,256.129852 
	C3779.649170,259.840424 3794.972656,267.049133 3808.634521,277.949341 
	C3817.380127,284.927368 3824.389893,293.300812 3829.206787,303.053436 
	C3833.209473,311.157349 3836.174561,320.096008 3837.780518,328.993195 
	C3840.964355,346.629761 3839.138428,364.171600 3832.970215,381.068024 
	C3829.243652,391.276764 3823.916504,400.551910 3816.728271,408.904510 
	C3798.098389,430.552826 3773.823242,441.539734 3746.525635,446.937622 
	C3738.875488,448.450470 3731.061768,449.137085 3723.161621,450.601349 
	C3707.979248,451.000000 3692.958252,451.000000 3677.468750,451.000000 
z"/>
<path fill="#0C0C27" opacity="1.000000" stroke="none" 
	d="
M0.999999,196.333328 
	C1.664480,195.175171 2.833448,194.399445 2.919172,193.518295 
	C4.746947,174.730881 10.711615,157.040176 17.289906,139.537186 
	C17.861757,138.015656 20.207647,136.159241 21.740932,136.148849 
	C51.374783,135.948364 81.010345,136.000320 111.220100,136.000320 
	C107.311996,142.328171 103.707359,148.305542 99.964867,154.195297 
	C92.006355,166.720016 87.590851,180.602875 83.966110,194.842651 
	C80.381630,208.924194 80.003990,223.336288 81.214745,237.534531 
	C83.638809,265.961151 93.736412,291.702271 111.646019,314.163055 
	C112.552010,315.299255 113.106323,316.897125 114.242836,317.639130 
	C122.014946,322.713501 122.236107,330.218414 122.129372,338.484131 
	C121.783180,365.294128 122.000000,392.111420 122.000000,418.925903 
	C122.000000,420.546021 122.000000,422.166138 122.000000,424.589355 
	C117.696564,422.432220 113.822487,420.900940 110.381638,418.694183 
	C95.836975,409.365906 81.984337,399.219177 69.441422,387.159058 
	C50.038879,368.503265 34.323120,347.302643 22.662973,323.129761 
	C13.752161,304.656586 7.370186,285.302887 3.970990,265.015350 
	C3.419805,261.725677 2.509702,258.496155 1.382752,255.119415 
	C1.000000,254.555557 1.000000,254.111099 1.337842,253.246521 
	C1.450457,251.884262 1.225230,250.942123 1.000001,250.000000 
	C1.000000,234.312439 1.000000,218.624878 1.353131,202.363571 
	C1.470840,200.526550 1.235419,199.263275 0.999999,198.000000 
	C1.000000,197.555557 1.000000,197.111099 0.999999,196.333328 
z"/>
<path fill="#0C0C27" opacity="1.000000" stroke="none" 
	d="
M4278.000000,94.531380 
	C4275.736328,98.786354 4273.615234,102.666550 4271.186523,106.343758 
	C4255.484375,130.113953 4219.499512,130.195236 4203.163086,106.728142 
	C4190.665039,88.775383 4194.022949,61.477814 4211.802734,47.894047 
	C4225.879395,37.139542 4248.372070,36.568455 4262.961426,48.374565 
	C4270.579102,54.538795 4275.451172,62.144878 4277.627930,71.873260 
	C4278.000000,79.354256 4278.000000,86.708504 4278.000000,94.531380 
M4268.002441,93.374107 
	C4272.913574,80.057877 4268.968750,63.453167 4257.130859,54.618633 
	C4244.617676,45.279705 4226.406250,45.750023 4215.213379,56.395817 
	C4206.475098,64.707710 4203.341797,75.023590 4204.895508,87.167679 
	C4207.073730,104.191841 4219.566895,115.425400 4236.637207,115.899918 
	C4250.320312,116.280281 4262.428711,108.917526 4268.002441,93.374107 
z"/>
<path fill="#FFFFFF" opacity="1.000000" stroke="none" 
	d="
M0.999999,198.399979 
	C1.235419,199.263275 1.470840,200.526550 1.353131,201.894913 
	C1.000000,200.933319 1.000000,199.866638 0.999999,198.399979 
z"/>
<path fill="#FFFFFF" opacity="1.000000" stroke="none" 
	d="
M1.000001,250.375000 
	C1.225230,250.942123 1.450457,251.884262 1.337842,252.913193 
	C1.000000,252.250000 1.000000,251.500000 1.000001,250.375000 
z"/>
<path fill="#0C0C27" opacity="1.000000" stroke="none" 
	d="
M1521.830322,83.000229 
	C1479.720093,83.000023 1438.096313,83.000023 1396.236816,83.000023 
	C1396.236816,56.928730 1396.236816,31.194605 1396.236816,5.229964 
	C1509.743774,5.229964 1623.136108,5.229964 1736.764282,5.229964 
	C1736.764282,31.073477 1736.764282,56.807590 1736.764282,82.952362 
	C1694.248413,82.952362 1651.847534,82.952362 1609.049805,82.952362 
	C1609.049805,203.087158 1609.049805,322.812836 1609.049805,442.768860 
	C1580.917358,442.768860 1553.183594,442.768860 1525.000000,442.768860 
	C1525.000000,440.696625 1525.000000,438.747009 1525.000000,436.797394 
	C1525.000000,320.479767 1525.007935,204.162155 1524.927734,87.844597 
	C1524.926514,86.055260 1526.703979,82.680450 1521.830322,83.000229 
z"/>
<path fill="#0C0C27" opacity="1.000000" stroke="none" 
	d="
M717.448914,446.756317 
	C702.651428,444.640869 689.061218,440.487762 676.841614,432.392853 
	C659.277649,420.757538 648.633484,404.165375 644.229980,383.988556 
	C641.637085,372.108185 640.285156,359.737061 640.182495,347.571411 
	C639.750732,296.423126 640.000000,245.269119 640.000000,194.117203 
	C640.000000,192.296570 640.000000,190.475937 640.000000,188.245621 
	C620.783997,188.245621 601.714172,188.245621 582.323364,188.245621 
	C582.323364,166.773361 582.323364,145.706619 582.323364,124.228226 
	C601.233643,124.228226 620.303467,124.228226 639.783142,124.228226 
	C639.783142,97.086510 639.783142,70.348724 639.783142,43.551952 
	C665.873291,37.030281 691.590088,30.601954 717.858582,24.035702 
	C717.858582,57.296455 717.858582,90.453331 717.858582,123.838165 
	C744.695190,123.838165 770.975708,123.838165 797.627930,123.838165 
	C797.627930,145.130020 797.627930,166.197098 797.627930,187.673111 
	C771.530518,187.673111 745.129944,187.673111 718.347839,187.673111 
	C718.211060,189.298004 718.013672,190.551392 718.013306,191.804840 
	C717.997864,244.123093 717.668640,296.444733 718.204529,348.757477 
	C718.362732,364.205231 726.515442,373.619446 741.938965,375.959808 
	C757.374756,378.302002 772.785400,376.971954 788.176575,375.070282 
	C792.889832,374.487915 797.664551,374.403229 802.734558,374.069336 
	C802.823364,375.358246 802.987488,376.640411 802.988586,377.922699 
	C803.005127,396.917236 802.976624,415.911804 803.025208,434.906219 
	C803.032532,437.768036 803.043701,439.650360 799.082092,440.180634 
	C787.378967,441.747162 775.823425,444.463501 764.106934,445.869324 
	C753.344910,447.160645 742.455505,447.514435 731.608643,447.914337 
	C727.042786,448.082642 722.442139,447.308411 717.448914,446.756317 
z"/>
<path fill="#0C0C27" opacity="1.000000" stroke="none" 
	d="
M348.002441,298.970520 
	C358.439972,281.728607 364.649841,263.450653 367.042725,243.767899 
	C370.856903,212.393875 365.775970,182.676147 349.852081,155.328812 
	C343.935974,145.168625 336.041840,136.164810 329.139679,126.568993 
	C328.163696,125.212105 327.095154,123.488625 327.089325,121.931000 
	C326.970367,90.130211 327.000031,58.328865 327.000031,26.446365 
	C415.863495,69.082916 471.074005,178.802597 440.367035,286.005371 
	C405.193970,408.799988 287.077240,464.918854 185.257828,445.827057 
	C185.257828,418.617798 185.257828,391.377136 185.257828,363.726837 
	C199.519791,367.779968 213.718338,369.338715 228.220276,369.083374 
	C245.989365,368.770477 262.900635,364.986084 279.283936,358.312378 
	C294.435577,352.140381 307.743256,343.246307 320.128326,332.565277 
	C331.285278,322.943420 339.969238,311.491577 348.002441,298.970520 
z"/>
<path fill="#0C0C27" opacity="1.000000" stroke="none" 
	d="
M1719.003906,124.000000 
	C1736.147583,124.000000 1752.791870,124.000000 1769.873413,124.000000 
	C1772.028198,138.900330 1774.159790,153.640762 1776.427246,169.320923 
	C1778.941895,164.918076 1780.873535,160.830811 1783.430176,157.181244 
	C1794.736572,141.041382 1810.449829,130.913681 1828.979980,125.089531 
	C1844.963989,120.065598 1861.510742,119.420448 1878.127197,120.039970 
	C1879.223389,120.080841 1880.279419,120.787506 1881.389038,120.955978 
	C1884.445679,121.420166 1888.972534,120.702095 1890.226807,122.418320 
	C1891.848511,124.637413 1890.975952,128.761703 1890.981689,132.066025 
	C1891.017700,153.203537 1891.000000,174.341156 1891.000000,195.958939 
	C1884.790771,195.270859 1878.846069,194.865707 1872.990601,193.913086 
	C1858.599365,191.571808 1844.774414,193.763184 1831.394287,198.994934 
	C1804.462402,209.525650 1790.337158,230.415497 1785.090332,257.915527 
	C1783.353516,267.018036 1782.185669,276.378204 1782.134033,285.628265 
	C1781.852417,336.107788 1782.000000,386.589691 1782.000000,437.070801 
	C1782.000000,438.873779 1782.000000,440.676788 1782.000000,442.738281 
	C1755.983521,442.738281 1730.253662,442.738281 1704.261475,442.738281 
	C1704.261475,336.670013 1704.261475,230.628159 1704.261475,124.000000 
	C1708.974121,124.000000 1713.739258,124.000000 1719.003906,124.000000 
z"/>
<path fill="#0C0C27" opacity="1.000000" stroke="none" 
	d="
M185.000000,126.000000 
	C185.000000,111.525719 185.000000,97.551437 185.000000,83.168587 
	C156.370956,83.168587 127.969452,83.168587 99.285126,83.168587 
	C99.285126,56.361523 99.285126,29.961906 99.285126,3.280642 
	C154.310791,3.280642 209.372513,3.280642 264.717346,3.280642 
	C264.717346,86.636055 264.717346,170.026764 264.717346,253.708893 
	C238.373627,253.708893 211.973938,253.708893 185.000000,253.708893 
	C185.000000,211.342911 185.000000,168.921463 185.000000,126.000000 
z"/>
<path fill="#0C0C27" opacity="1.000000" stroke="none" 
	d="
M2888.000000,104.000000 
	C2888.000000,71.862648 2888.000000,40.225292 2888.000000,8.247676 
	C2889.634521,8.157818 2891.070068,8.010221 2892.505371,8.009913 
	C2947.158691,7.998202 3001.814453,7.694833 3056.464111,8.153740 
	C3077.626709,8.331450 3098.739746,10.688782 3118.985107,17.527454 
	C3138.244141,24.032818 3155.933105,33.316711 3171.456543,46.801640 
	C3196.176758,68.276085 3211.590576,95.334618 3219.833008,126.535881 
	C3223.827148,141.654449 3226.171143,157.224167 3228.896484,172.654221 
	C3229.834717,177.966461 3229.847656,183.470581 3229.966553,188.893982 
	C3230.385498,207.975113 3231.380859,227.079605 3230.838379,246.137680 
	C3229.948486,277.408325 3226.768799,308.454102 3215.999268,338.184174 
	C3208.837158,357.955750 3198.744873,375.938477 3184.798584,391.909363 
	C3171.928223,406.647980 3156.664062,417.914093 3139.201172,426.238922 
	C3123.279053,433.829285 3106.582520,439.309814 3088.899414,440.939026 
	C3077.931152,441.949554 3066.907471,442.868896 3055.905273,442.909546 
	C3001.919189,443.108948 2947.932129,443.000000 2893.945312,443.000000 
	C2892.140625,443.000000 2890.335938,443.000000 2888.000000,443.000000 
	C2888.000000,329.982361 2888.000000,217.241180 2888.000000,104.000000 
M2968.067383,80.740013 
	C2968.046387,176.860046 2968.024658,272.980072 2968.021484,369.100067 
	C2968.021484,369.701843 2968.282471,370.303619 2968.443359,371.000000 
	C2999.470215,371.000000 3030.278320,370.874664 3061.084473,371.059998 
	C3073.885498,371.137054 3085.796631,367.837952 3097.089844,362.346710 
	C3118.913086,351.734985 3132.116699,333.673462 3140.014160,311.249542 
	C3147.810791,289.112183 3149.271973,265.956299 3149.767822,242.880035 
	C3150.208008,222.405930 3148.688721,201.888504 3147.992188,181.391632 
	C3147.548828,168.341217 3144.809326,155.687149 3140.961182,143.274277 
	C3135.133789,124.476692 3124.968018,108.456795 3109.050293,96.670547 
	C3093.744873,85.337753 3075.937012,80.476418 3057.210205,80.144615 
	C3027.734375,79.622360 2998.242188,80.043709 2968.067383,80.740013 
z"/>
<path fill="#FFFFFF" opacity="1.000000" stroke="none" 
	d="
M2347.337402,189.253510 
	C2367.355225,179.088089 2387.543457,179.318466 2407.543945,187.383331 
	C2420.312256,192.532043 2429.375977,202.434509 2435.811768,214.515305 
	C2442.715576,227.474106 2446.857910,241.351425 2447.953125,256.007446 
	C2448.860840,268.158295 2450.303223,280.383240 2449.781982,292.501099 
	C2448.910889,312.761871 2446.066895,332.821289 2436.365479,351.185364 
	C2426.881592,369.137421 2412.729248,380.712067 2392.287354,384.055237 
	C2376.913574,386.569550 2362.154297,385.788300 2348.143555,378.062500 
	C2333.383789,369.923767 2323.351318,357.790222 2317.020264,342.417328 
	C2311.351807,328.653259 2308.460938,314.274902 2307.986572,299.395020 
	C2307.723633,291.140594 2306.720459,282.860291 2307.122314,274.643982 
	C2308.082520,254.987045 2310.741943,235.553802 2320.082031,217.816879 
	C2326.352051,205.910080 2335.135254,196.156052 2347.337402,189.253510 
z"/>
<path fill="#FFFFFF" opacity="1.000000" stroke="none" 
	d="
M2099.011719,346.887512 
	C2088.625488,370.977936 2068.684814,382.035461 2044.848145,386.756073 
	C2030.061157,389.684509 2014.847900,390.341400 2000.679688,382.940735 
	C1987.615234,376.116669 1979.983398,365.140442 1979.219849,350.623535 
	C1978.540771,337.713928 1984.277466,326.878662 1994.762451,319.068939 
	C2005.229614,311.272614 2017.243408,308.462067 2030.211182,307.853119 
	C2045.078003,307.154999 2059.888184,305.287964 2074.731689,304.029907 
	C2080.468262,303.543732 2086.229736,303.353912 2091.977539,302.993713 
	C2096.182861,302.730194 2100.384277,302.408936 2104.804932,302.098114 
	C2105.409180,317.379578 2105.673584,332.368652 2099.011719,346.887512 
z"/>
<path fill="#FFFFFF" opacity="1.000000" stroke="none" 
	d="
M2668.000000,251.000000 
	C2657.529541,251.000000 2647.558838,251.000000 2637.072266,251.000000 
	C2636.823975,239.788986 2638.882324,229.215118 2643.391846,219.320084 
	C2649.785400,205.291534 2658.875244,193.444931 2673.125244,186.343246 
	C2680.967529,182.434830 2689.114990,179.949890 2697.888428,178.874863 
	C2708.606689,177.561539 2719.020264,178.637939 2729.156738,181.708511 
	C2751.697754,188.536697 2764.039062,205.026825 2769.879883,226.897491 
	C2771.912354,234.507751 2772.565674,242.486313 2773.964355,251.000000 
	C2737.988281,251.000000 2703.244141,251.000000 2668.000000,251.000000 
z"/>
<path fill="#FFFFFF" opacity="1.000000" stroke="none" 
	d="
M3352.725098,198.773346 
	C3365.042236,186.395279 3379.507324,180.028656 3396.677246,178.846741 
	C3408.391113,178.040390 3419.405762,179.524979 3430.354248,183.651230 
	C3446.711182,189.815582 3456.580078,202.004959 3462.948486,217.537857 
	C3466.777100,226.876266 3469.187012,236.601013 3469.045898,246.826111 
	C3469.028809,248.064148 3469.609619,249.310486 3469.969482,250.782654 
	C3424.445312,250.782654 3379.028320,250.782654 3332.996094,250.782654 
	C3333.452393,231.185883 3339.370361,213.797775 3352.725098,198.773346 
z"/>
<path fill="#FFFFFF" opacity="1.000000" stroke="none" 
	d="
M1339.194458,189.698044 
	C1359.527222,205.240662 1365.174805,226.990753 1367.005493,250.804657 
	C1321.264893,250.804657 1275.871094,250.804657 1228.936279,250.804657 
	C1231.353882,240.623505 1232.765991,230.527512 1236.218018,221.185196 
	C1240.576294,209.389709 1247.553589,198.910889 1258.112183,191.387665 
	C1265.794556,185.913803 1274.203247,181.920761 1283.456421,180.054840 
	C1298.050415,177.111908 1312.505493,177.865540 1326.509766,183.086029 
	C1330.840210,184.700287 1334.807861,187.287796 1339.194458,189.698044 
z"/>
<path fill="#FFFFFF" opacity="1.000000" stroke="none" 
	d="
M4267.985352,93.787399 
	C4262.428711,108.917526 4250.320312,116.280281 4236.637207,115.899918 
	C4219.566895,115.425400 4207.073730,104.191841 4204.895508,87.167679 
	C4203.341797,75.023590 4206.475098,64.707710 4215.213379,56.395817 
	C4226.406250,45.750023 4244.617676,45.279705 4257.130859,54.618633 
	C4268.968750,63.453167 4272.913574,80.057877 4267.985352,93.787399 
M4230.996094,101.260857 
	C4230.996094,96.858185 4230.996094,92.455513 4230.996094,87.034981 
	C4234.606934,88.110313 4238.466309,88.082939 4239.700195,89.869011 
	C4242.354004,93.712494 4243.656738,98.489410 4245.441406,102.715370 
	C4248.699219,102.715370 4251.761719,102.715370 4255.050781,102.715370 
	C4252.859863,97.711380 4250.692383,93.079971 4248.864258,88.318352 
	C4248.499023,87.366570 4249.031738,85.464752 4249.824707,84.773819 
	C4254.361816,80.817497 4255.983887,75.587143 4254.786621,70.181870 
	C4253.689453,65.228973 4250.590820,60.677784 4244.834961,60.022575 
	C4237.722168,59.212852 4230.535645,59.051399 4223.209961,58.599270 
	C4223.209961,73.851669 4223.209961,88.239235 4223.209961,103.285622 
	C4225.965332,102.903000 4228.453125,102.557503 4230.996094,101.260857 
z"/>
<path fill="#FFFFFF" opacity="1.000000" stroke="none" 
	d="
M2968.412109,80.402786 
	C2998.242188,80.043709 3027.734375,79.622360 3057.210205,80.144615 
	C3075.937012,80.476418 3093.744873,85.337753 3109.050293,96.670547 
	C3124.968018,108.456795 3135.133789,124.476692 3140.961182,143.274277 
	C3144.809326,155.687149 3147.548828,168.341217 3147.992188,181.391632 
	C3148.688721,201.888504 3150.208008,222.405930 3149.767822,242.880035 
	C3149.271973,265.956299 3147.810791,289.112183 3140.014160,311.249542 
	C3132.116699,333.673462 3118.913086,351.734985 3097.089844,362.346710 
	C3085.796631,367.837952 3073.885498,371.137054 3061.084473,371.059998 
	C3030.278320,370.874664 2999.470215,371.000000 2968.443359,371.000000 
	C2968.282471,370.303619 2968.021484,369.701843 2968.021484,369.100067 
	C2968.024658,272.980072 2968.046387,176.860046 2968.412109,80.402786 
z"/>
<path fill="#0C0C27" opacity="1.000000" stroke="none" 
	d="
M4230.968750,101.736427 
	C4228.453125,102.557503 4225.965332,102.903000 4223.209961,103.285622 
	C4223.209961,88.239235 4223.209961,73.851669 4223.209961,58.599270 
	C4230.535645,59.051399 4237.722168,59.212852 4244.834961,60.022575 
	C4250.590820,60.677784 4253.689453,65.228973 4254.786621,70.181870 
	C4255.983887,75.587143 4254.361816,80.817497 4249.824707,84.773819 
	C4249.031738,85.464752 4248.499023,87.366570 4248.864258,88.318352 
	C4250.692383,93.079971 4252.859863,97.711380 4255.050781,102.715370 
	C4251.761719,102.715370 4248.699219,102.715370 4245.441406,102.715370 
	C4243.656738,98.489410 4242.354004,93.712494 4239.700195,89.869011 
	C4238.466309,88.082939 4234.606934,88.110313 4230.996094,87.034981 
	C4230.996094,92.455513 4230.996094,96.858185 4230.968750,101.736427 
M4239.897949,67.017586 
	C4236.979492,67.017586 4234.061035,67.017586 4231.317383,67.017586 
	C4231.317383,71.383904 4231.317383,75.118645 4231.317383,79.264145 
	C4236.525391,77.868248 4243.143066,81.992584 4245.858398,74.722092 
	C4247.373047,70.666252 4243.856445,68.783554 4239.897949,67.017586 
z"/>
<path fill="#FFFFFF" opacity="1.000000" stroke="none" 
	d="
M4240.316406,67.120247 
	C4243.856445,68.783554 4247.373047,70.666252 4245.858398,74.722092 
	C4243.143066,81.992584 4236.525391,77.868248 4231.317383,79.264145 
	C4231.317383,75.118645 4231.317383,71.383904 4231.317383,67.017586 
	C4234.061035,67.017586 4236.979492,67.017586 4240.316406,67.120247 
z"/>
</svg>