<svg xmlns="http://www.w3.org/2000/svg" xml:space="preserve" viewBox="0 0 4277 450"><path fill="#fff" d="M1 196V1c279.028 0 558.056 0 837.542.469.458 147.397.458 294.326.458 441.255h78v-5.696c0-51.664.184-103.33-.1-154.992-.099-18.151 2.052-35.749 9.14-52.513 6.608-15.626 16.236-28.627 31.882-36.599 11.574-5.896 23.92-5.77 36.043-4.596 8.647.837 17.186 3.804 24.118 10.13 12.052 11 15.657 25.472 15.747 40.6.395 66.16.17 132.326.17 198.49v5.13h78v-5.78c0-62.664-.01-125.328.007-187.992.005-15.32-.192-30.566-2.879-45.776-3.423-19.379-10.875-36.856-23.463-51.806-19.496-23.154-45.483-33.48-75.06-35.141-9.1-.511-18.432.471-27.466 1.945-24.13 3.936-45.245 13.943-61.567 32.77-1.223 1.41-2.72 2.584-4.572 4.318V1c509.361 0 1018.723 0 1528.542.469.458 47.673.458 94.878.458 142.352-3.991-3.183-7.398-6.192-11.09-8.797-19.095-13.475-41.135-17.385-63.74-18.894-7.36-.492-14.821.566-22.239.864-14.43.579-28.038 4.563-40.98 10.618-24.636 11.527-42.4 30.515-55.909 53.625-14.119 24.152-20.412 50.834-22.846 78.362-1.141 12.9-.714 26.012-.043 38.978.604 11.696 1.796 23.46 3.977 34.956 6.44 33.97 21.09 63.566 47.549 86.749 16.308 14.289 34.76 23.819 56.104 27.803 2.822.526 5.482 1.922 8.217 2.915-102.695 0-205.39 0-308.39-.392 31.924-4.497 59.243-17.49 78.902-44.659 3.573 17.187 12.046 29.998 28.101 37.292 10.502 4.77 21.487 4.686 32.636 4.879 10.734.186 20.295-3.591 29.958-7.269.864-.329 1.711-2.023 1.717-3.088.104-18.48.075-36.96.075-54.82-5.9 0-11.602.622-17.103-.164-6.261-.895-9.842-7.658-9.901-16.462-.322-47.411-.594-94.822-1.034-142.232-.144-15.54-3.15-30.657-9.057-45.009-8.165-19.84-21.504-35.457-40.394-45.86-22.257-12.257-46.67-16.127-71.635-17.115a145.5 145.5 0 0 0-23.738 1.02c-12.364 1.55-24.841 3.053-36.885 6.097-16.87 4.265-32.326 11.97-45.549 23.597-15.475 13.61-25.674 30.477-30.327 50.525-1.773 7.64-2.64 15.49-3.95 23.417h75.262c.47-2.659.932-5.045 1.306-7.446 1.798-11.566 7.815-20.513 17.143-27.308 11.67-8.501 25.386-10.184 39.17-10.844 5.953-.284 12.032.914 17.98 1.89 15.888 2.607 27.859 9.873 32.958 26.441 4.1 13.317 2.08 26.736 2.865 40.664-5.659.298-10.867.546-16.072.854-5.089.3-10.176.624-15.26 1.002-17.68 1.315-35.36 2.626-53.035 4.005-7.51.585-15.113.77-22.492 2.124-15.702 2.883-31.13 6.948-45.191 14.877-20.672 11.658-36.19 27.856-44.077 50.682-5.516 15.963-6.249 32.3-3.986 48.886 2.856 20.932 11.792 38.948 26.855 53.649 15.201 14.836 33.638 23.726 54.455 27.843 2.333.461 4.467 1.925 6.693 2.924-223.361 0-446.723 0-670.388-.393 68.217-6.2 109.386-58.457 112.974-103.262-.295-.104-.596-.303-.896-.303-23.16-.024-46.322.029-69.482-.12-2.834-.019-3.55 1.296-4.239 3.517-3.625 11.704-10.205 21.505-20.24 28.517-15.37 10.743-32.81 11.902-50.589 9-27.284-4.453-44.244-21.501-53.86-46.476-4.09-10.622-6.353-21.755-4.919-33.71H1445c0-11.79.093-23.198-.046-34.604-.056-4.59-.565-9.178-.967-13.759-.63-7.17-.818-14.431-2.125-21.482-3.387-18.273-9.091-35.772-18.38-52.04-9.09-15.917-20.089-30.245-34.65-41.43-24.584-18.883-53.038-27.422-83.593-28.175-13.452-.331-27.17 1.388-40.43 3.934-25.918 4.977-48.21 17.48-66.75 36.303-12.862 13.058-22.689 28.219-30.038 45.04-10.332 23.65-14.735 48.574-15.905 74.127-.399 8.718.628 17.495.866 26.25.4 14.719 3.201 29.078 7.587 43.01 8.76 27.827 22.947 52.264 45.384 71.672 18.385 15.902 38.916 26.905 62.854 31.484 2.17.415 4.133 1.908 6.193 2.9H1c0-65.028 0-130.056.383-195.423a49 49 0 0 1 2.588 9.438c3.4 20.288 9.781 39.642 18.692 58.115 11.66 24.173 27.376 45.373 46.778 64.03 12.543 12.06 26.396 22.206 40.94 31.534 3.441 2.207 7.316 3.738 11.619 5.895v-5.663c0-26.815-.217-53.632.13-80.442.106-8.266-.115-15.77-7.887-20.845-1.137-.742-1.691-2.34-2.597-3.476-17.91-22.46-28.007-48.202-30.431-76.628-1.211-14.199-.833-28.61 2.751-42.692 3.625-14.24 8.04-28.123 15.999-40.648 3.742-5.89 7.347-11.867 11.255-18.195-30.21 0-59.845-.052-89.48.149-1.532.01-3.878 1.867-4.45 3.388-6.578 17.503-12.543 35.194-14.37 53.981-.087.881-1.256 1.657-1.92 2.482M1522.317 83c4.387-.32 2.61 3.055 2.61 4.845.08 116.317.073 232.635.073 348.952v5.972h84.05V82.952h127.714V5.23h-340.527V83zm-804.46 363.963c4.585.345 9.186 1.12 13.752.951 10.847-.4 21.736-.753 32.498-2.045 11.716-1.405 23.272-4.122 34.975-5.688 3.962-.53 3.95-2.413 3.943-5.275-.048-18.994-.02-37.989-.036-56.983-.002-1.283-.166-2.565-.254-3.854-5.07.334-9.845.419-14.558 1.001-15.392 1.902-30.802 3.232-46.238.89-15.424-2.34-23.576-11.755-23.734-27.203-.536-52.312-.207-104.634-.192-156.952 0-1.254.198-2.507.335-4.132h79.28v-63.835h-79.77V24.036l-78.075 19.516v80.676h-57.46v64.018H640v5.871c0 51.152-.25 102.306.182 153.454.103 12.166 1.455 24.537 4.048 36.418 4.403 20.176 15.048 36.769 32.612 48.404 12.22 8.095 25.81 12.248 41.015 14.57M347.964 299.345c-7.995 12.147-16.679 23.598-27.836 33.22-12.385 10.681-25.692 19.575-40.844 25.747-16.383 6.674-33.295 10.458-51.064 10.771-14.502.256-28.7-1.303-42.962-5.356v82.1c101.82 19.092 219.936-37.027 255.109-159.822C471.074 178.803 415.863 69.083 327 26.446c0 31.883-.03 63.684.09 95.485.005 1.558 1.074 3.281 2.05 4.638 6.902 9.596 14.796 18.6 20.712 28.76 15.924 27.347 21.005 57.065 17.19 88.439-2.392 19.683-8.602 37.96-19.078 55.577M1718.504 124h-14.243v318.738H1782v-5.667c0-50.481-.148-100.963.134-151.443.052-9.25 1.22-18.61 2.956-27.712 5.247-27.5 19.372-48.39 46.304-58.921 13.38-5.232 27.205-7.423 41.597-5.082 5.855.953 11.8 1.358 18.009 2.046 0-21.618.018-42.755-.018-63.893-.006-3.304.867-7.429-.755-9.648-1.254-1.716-5.781-.998-8.838-1.462-1.11-.168-2.166-.875-3.262-.916-16.616-.62-33.163.026-49.147 5.05-18.53 5.824-34.243 15.951-45.55 32.091-2.556 3.65-4.488 7.737-7.003 12.14L1769.873 124zM185 126.5v127.209h79.717V3.28H99.285v79.888H185zM3677 451c-84.025 0-168.05 0-252.38-.396 28.25-2.742 53.99-12.478 75.51-31.456 21.578-19.028 34.171-43.33 39.487-72.148-23.968 0-46.775.13-69.577-.116-4.251-.045-5.88 1.318-7.13 5.259-4.467 14.088-13.36 24.597-26.71 31.207-11.378 5.635-23.626 6.577-35.862 5.44-7.909-.735-16.1-2.416-23.34-5.566-18.107-7.88-30.511-21.793-37.442-40.25-4.182-11.137-6.928-22.654-5.142-35.147H3547c0-12.864.539-25.366-.144-37.8-.76-13.85-1.204-27.97-4.304-41.39-7.25-31.392-21.517-59.178-46.756-80.383-11.357-9.542-23.727-17.283-37.732-22.265-21.715-7.722-43.916-11.192-67.086-9.178-11.893 1.033-23.514 2.754-34.87 6.238-19.137 5.871-36.179 15.434-50.85 29.166-16.44 15.386-28.185 33.867-36.646 54.601-8.091 19.83-12.276 40.612-13.405 61.819-.946 17.747-.583 35.56 2.658 53.256 3.008 16.427 7.58 32.254 14.8 47.27 10.566 21.977 25.44 40.56 45.122 55.032 13.72 10.088 28.645 17.887 45.38 21.882 5.995 1.432 11.892 3.272 17.833 4.925-217.358 0-434.717 0-652.38-.396 28.25-2.763 54.03-12.544 75.495-31.507 21.504-18.997 34.275-43.257 39.313-71.978h-74.938c-2.348 9.882-7.01 18.548-13.918 25.68-17.436 18.001-39.894 19.295-61.991 14.545-23.962-5.15-40.116-21.502-49.176-44.457-4.388-11.118-5.658-22.76-6.38-34.964h213.045c.326-4.932.932-9.498.873-14.055-.172-13.255-.27-26.527-1.066-39.752-.506-8.414-1.725-16.857-3.466-25.11-3.402-16.13-8.83-31.704-17.812-45.56-6.783-10.462-14.126-20.851-22.808-29.718-10.399-10.619-22.95-18.702-36.779-24.872-18.386-8.204-37.69-11.741-57.491-12.67-9.12-.427-18.34 1.07-27.502 1.83-12.981 1.076-25.373 4.677-37.265 9.765-30.43 13.02-52.673 35.058-67.62 64.202-13.913 27.125-20.5 56.277-20.054 86.813.197 13.51.291 27.144 2.183 40.473 2.096 14.774 6.464 29.101 12.27 43.053 10.036 24.113 25.406 44.067 45.627 60.11 16.32 12.948 34.987 21.597 55.62 25.648 2.823.554 5.484 1.926 8.22 2.92-103.025 0-206.05 0-309.376-.399 31.5-2.43 58.402-14.116 78.314-40.405l4.585 32.46H2524V1c449.025 0 898.05 0 1347.537.469.463 147.393.463 294.319.463 441.26h78v-5.184c0-24.665-.119-49.33.159-73.992.032-2.9 1.577-6.378 3.553-8.564 10.42-11.53 21.243-22.696 31.844-34.063 4.793-5.14 9.398-10.454 14.127-15.733.385.449.88.906 1.233 1.455 20.22 31.47 40.413 62.959 60.647 94.42 8.029 12.484 16.434 24.74 24.043 37.471 2.144 3.587 4.145 4.55 7.937 4.53 26.497-.13 52.995-.069 79.493-.069h5.784l-125.994-195.123c11.22-12.308 22.068-24.277 32.993-36.174 12.167-13.25 24.356-26.48 36.624-39.634 10.943-11.733 22.047-23.316 32.996-35.042 3.715-3.98 7.177-8.195 11.072-12.667-1.289-.206-1.753-.344-2.217-.345-30.664-.012-61.329-.05-91.992.082-1.705.007-3.849.992-5.034 2.239-7.956 8.366-15.664 16.968-23.536 25.415a12482 12482 0 0 1-43.708 46.69c-7.725 8.206-15.669 16.208-23.362 24.443-5.723 6.127-11.156 12.524-16.81 18.717-2.94 3.22-6.076 6.261-9.852 10.128V1h328c0 23.357 0 46.716-.372 70.41-2.177-9.265-7.049-16.871-14.667-23.035-14.589-11.807-37.082-11.235-51.158-.481-17.78 13.584-21.138 40.881-8.64 58.834 16.337 23.467 52.321 23.386 68.024-.384 2.428-3.677 4.55-7.558 6.813-11.344v356c-184.692 0-369.383 0-554.376-.399 7.438-1.464 15.251-2.15 22.902-3.663 27.297-5.398 51.572-16.385 70.202-38.033 7.189-8.353 12.516-17.628 16.242-27.837 6.168-16.896 7.994-34.438 4.81-52.075-1.605-8.897-4.57-17.836-8.573-25.94-4.817-9.752-11.827-18.126-20.572-25.104-13.662-10.9-28.986-18.109-45.864-21.82-10.757-2.364-21.781-3.53-32.698-5.146-11.58-1.715-23.198-3.18-34.755-5.03-8.922-1.428-18.059-2.399-26.6-5.136-16.433-5.267-21.27-15.245-21.426-27.812-.144-11.62 6.038-21.14 15.585-27.952 10.873-7.758 23.642-9.627 36.448-9.838 8.218-.136 16.686.97 24.655 3.022 10.285 2.648 19.47 7.722 25.813 16.965 5.135 7.481 8.902 15.3 8.35 24.49h74.213c-.479-5.737-.178-11.314-1.5-16.475-7.962-31.067-25.423-54.932-54.036-70.274-20.255-10.86-42.162-15.767-64.736-16.648-14.358-.561-29.032.56-43.2 3.023-20.125 3.5-38.793 11.206-55.572 23.524-25.279 18.559-37.996 43.459-39.213 74.366-.624 15.829 3.29 30.762 11.23 44.627 9.302 16.247 22.68 28.086 39.283 36.223 17.258 8.457 36.166 10.507 54.915 12.917 6.482.834 13.015 1.277 19.5 2.085 9.852 1.228 19.674 2.688 29.525 3.92 8.854 1.106 17.271 2.986 25.045 7.966 17.632 11.297 18.527 41.042-.724 54.102-12.559 8.52-26.863 10.878-41.44 11.806-7.699.49-15.509-.317-23.242-.898-14.19-1.066-26.9-6.102-36.876-16.346-7.06-7.249-11.094-16.428-12.596-26.284h-73.492c1.256 6.341 2.07 12.3 3.639 18.053 6.352 23.29 19.933 41.771 38.663 56.614 17.278 13.692 36.992 22.012 58.608 26.054 3.676.687 7.245 1.954 10.863 2.953m-789-346.5V443h5.945c53.987 0 107.974.109 161.96-.09 11.002-.041 22.026-.96 32.994-1.971 17.684-1.63 34.38-7.11 50.302-14.7 17.463-8.325 32.727-19.591 45.598-34.33 13.946-15.97 24.038-33.953 31.2-53.725 10.77-29.73 13.95-60.776 14.84-92.046.542-19.058-.454-38.163-.872-57.244-.12-5.423-.132-10.928-1.07-16.24-2.726-15.43-5.07-31-9.064-46.118-8.242-31.201-23.656-58.26-48.376-79.734-15.524-13.485-33.213-22.77-52.472-29.275-20.245-6.838-41.358-9.196-62.52-9.373-54.65-.46-109.306-.156-163.96-.144-1.435 0-2.87.148-4.505.238z"/><path fill="#0c0c27" d="M2523.531 1c.469 147.104.469 294.209.469 441.657h-67.477l-4.586-32.461c-19.91 26.29-46.813 37.974-78.775 40.405-9.183.399-18.204.399-27.693.399-3.204-.993-5.864-2.389-8.686-2.915-21.343-3.984-39.796-13.514-56.104-27.803-26.459-23.183-41.108-52.78-47.55-86.749-2.18-11.497-3.372-23.26-3.976-34.956-.67-12.966-1.098-26.077.043-38.978 2.434-27.528 8.727-54.21 22.846-78.362 13.51-23.11 31.273-42.098 55.91-53.625 12.941-6.055 26.55-10.04 40.98-10.618 7.417-.298 14.877-1.356 22.238-.864 22.605 1.51 44.645 5.419 63.74 18.894 3.692 2.605 7.099 5.614 11.09 8.797V1.47c25.688-.47 51.375-.47 77.531-.47m-176.509 188.471c-11.887 6.685-20.67 16.44-26.94 28.346-9.34 17.737-12 37.17-12.96 56.827-.402 8.216.602 16.497.865 24.751.474 14.88 3.365 29.258 9.033 43.022 6.331 15.373 16.364 27.507 31.124 35.646 14.01 7.725 28.77 8.507 44.143 5.992 20.442-3.343 34.595-14.918 44.078-32.87 9.702-18.364 12.546-38.423 13.417-58.684.521-12.118-.921-24.343-1.829-36.494-1.095-14.656-5.237-28.533-12.141-41.492-6.436-12.08-15.5-21.983-28.268-27.132-20-8.065-40.189-8.295-60.522 2.088M3949.531 1c.469 83.132.469 166.264.469 250.73 3.776-3.868 6.913-6.908 9.853-10.13 5.653-6.192 11.086-12.589 16.81-18.716 7.692-8.235 15.636-16.237 23.361-24.443a12482 12482 0 0 0 43.708-46.69c7.872-8.447 15.58-17.049 23.536-25.415 1.185-1.247 3.329-2.232 5.034-2.24 30.663-.13 61.328-.093 91.992-.08.464 0 .928.138 2.217.344-3.895 4.472-7.357 8.688-11.072 12.667-10.95 11.726-22.053 23.309-32.996 35.042-12.268 13.155-24.457 26.385-36.624 39.634-10.925 11.897-21.773 23.866-32.993 36.174L4178.82 443h-5.784c-26.498 0-52.996-.062-79.493.07-3.792.018-5.793-.944-7.937-4.53-7.609-12.733-16.014-24.988-24.043-37.472-20.234-31.461-40.426-62.95-60.647-94.42-.353-.55-.848-1.006-1.233-1.455-4.73 5.279-9.334 10.593-14.127 15.733-10.601 11.367-21.424 22.533-31.844 34.063-1.976 2.186-3.52 5.663-3.553 8.564-.278 24.661-.159 49.327-.159 73.992v5.185h-78V1.469C3897.688 1 3923.375 1 3949.531 1m-3033 0C917 52.135 917 103.269 917 155.216c1.852-1.734 3.35-2.907 4.572-4.318 16.322-18.827 37.437-28.834 61.567-32.77 9.034-1.474 18.366-2.456 27.466-1.945 29.577 1.661 55.564 11.987 75.06 35.14 12.588 14.951 20.04 32.428 23.463 51.807 2.687 15.21 2.884 30.456 2.88 45.776-.018 62.664-.008 125.328-.008 187.991v5.78h-78v-5.13c0-66.163.225-132.328-.17-198.49-.09-15.127-3.695-29.6-15.747-40.598-6.932-6.327-15.47-9.294-24.118-10.131-12.123-1.174-24.469-1.3-36.043 4.596-15.646 7.972-25.274 20.973-31.881 36.599-7.089 16.764-9.24 34.362-9.14 52.513.283 51.662.099 103.328.099 154.992v5.696h-78V1.469C864.688 1 890.375 1 916.531 1m1076.938 450c-2.695-.999-4.83-2.463-7.162-2.924-20.817-4.117-39.254-13.007-54.455-27.843-15.063-14.701-23.999-32.717-26.855-53.649-2.263-16.586-1.53-32.923 3.986-48.886 7.887-22.826 23.405-39.024 44.077-50.682 14.06-7.93 29.489-11.994 45.191-14.877 7.38-1.355 14.981-1.539 22.492-2.124 17.675-1.379 35.356-2.69 53.036-4.005 5.083-.378 10.17-.702 15.259-1.002 5.205-.308 10.413-.556 16.072-.854-.786-13.928 1.234-27.347-2.865-40.664-5.1-16.568-17.07-23.834-32.958-26.441-5.948-.976-12.027-2.174-17.98-1.89-13.784.66-27.5 2.343-39.17 10.844-9.328 6.795-15.345 15.742-17.143 27.308-.374 2.4-.837 4.787-1.306 7.446h-75.262c1.31-7.927 2.177-15.777 3.95-23.417 4.653-20.048 14.852-36.916 30.327-50.525 13.223-11.628 28.68-19.332 45.549-23.597 12.044-3.044 24.52-4.547 36.885-6.097a145.5 145.5 0 0 1 23.738-1.02c24.965.988 49.378 4.858 71.635 17.115 18.89 10.403 32.229 26.02 40.394 45.86 5.906 14.352 8.913 29.47 9.057 45.01.44 47.409.712 94.82 1.034 142.23.06 8.805 3.64 15.568 9.9 16.463 5.502.786 11.204.164 17.104.164 0 17.86.03 36.34-.075 54.82-.006 1.065-.853 2.76-1.717 3.088-9.663 3.678-19.224 7.455-29.958 7.269-11.15-.193-22.134-.108-32.636-4.88-16.055-7.293-24.528-20.104-28.101-37.29-19.66 27.168-46.978 40.161-79.359 44.658-14.174.392-28.195.392-42.684.392m105.585-104.505c6.62-14.126 6.355-29.115 5.75-44.397-4.42.31-8.621.632-12.826.896-5.748.36-11.51.55-17.246 1.036-14.844 1.258-29.654 3.125-44.52 3.823-12.969.61-24.982 3.42-35.45 11.216-10.485 7.81-16.221 18.645-15.542 31.555.763 14.516 8.395 25.493 21.46 32.317 14.168 7.4 29.381 6.744 44.168 3.815 23.837-4.72 43.777-15.778 54.206-40.261M2683.469 451c-3.205-.994-5.866-2.366-8.689-2.92-20.633-4.051-39.3-12.7-55.62-25.648-20.22-16.043-35.59-35.997-45.627-60.11-5.806-13.952-10.174-28.28-12.27-43.053-1.892-13.33-1.986-26.964-2.183-40.473-.445-30.536 6.14-59.688 20.054-86.813 14.947-29.144 37.19-51.182 67.62-64.202 11.892-5.088 24.284-8.689 37.265-9.766 9.163-.76 18.382-2.256 27.502-1.829 19.802.929 39.105 4.466 57.491 12.67 13.828 6.17 26.38 14.253 36.779 24.872 8.682 8.867 16.025 19.256 22.808 29.718 8.982 13.856 14.41 29.43 17.812 45.56 1.74 8.253 2.96 16.696 3.466 25.11.795 13.225.894 26.497 1.066 39.752.059 4.557-.547 9.123-.873 14.055h-213.045c.722 12.205 1.992 23.846 6.38 34.964 9.06 22.955 25.214 39.307 49.176 44.457 22.097 4.75 44.555 3.456 61.991-14.545 6.908-7.132 11.57-15.798 13.918-25.68h74.938c-5.038 28.72-17.81 52.981-39.313 71.978-21.466 18.963-47.245 28.744-75.957 31.507-14.845.396-29.533.396-44.69.396M2668.5 251h105.464c-1.398-8.514-2.052-16.492-4.084-24.103-5.84-21.87-18.182-38.36-40.723-45.188-10.137-3.071-20.55-4.147-31.269-2.834-8.773 1.075-16.92 3.56-24.763 7.468-14.25 7.102-23.34 18.949-29.733 32.977-4.51 9.895-6.568 20.469-6.32 31.68zm712.969 200c-6.41-1.653-12.307-3.493-18.302-4.925-16.735-3.995-31.66-11.794-45.38-21.882-19.682-14.471-34.556-33.055-45.123-55.032-7.22-15.016-11.791-30.843-14.8-47.27-3.24-17.696-3.603-35.51-2.657-53.256 1.13-21.207 5.314-41.989 13.405-61.819 8.46-20.734 20.207-39.215 36.646-54.6 14.671-13.733 31.713-23.296 50.85-29.167 11.356-3.484 22.977-5.205 34.87-6.238 23.17-2.014 45.37 1.456 67.086 9.178 14.005 4.982 26.375 12.723 37.732 22.265 25.24 21.205 39.507 48.99 46.756 80.383 3.1 13.42 3.544 27.54 4.304 41.39.683 12.434.144 24.936.144 37.8h-212.586c-1.786 12.493.96 24.01 5.142 35.148 6.93 18.456 19.335 32.37 37.442 40.249 7.24 3.15 15.431 4.83 23.34 5.566 12.236 1.137 24.484.195 35.863-5.44 13.349-6.61 22.242-17.12 26.71-31.207 1.249-3.941 2.878-5.304 7.129-5.259 22.802.245 45.609.116 69.577.116-5.316 28.818-17.91 53.12-39.487 72.148-21.52 18.978-47.26 28.714-75.972 31.456-14.179.396-28.2.396-42.69.396m-29.003-251.977c-13.095 14.775-19.013 32.163-19.469 51.76h136.973c-.36-1.473-.94-2.719-.923-3.957.141-10.225-2.269-19.95-6.098-29.288-6.368-15.533-16.237-27.722-32.594-33.887-10.948-4.126-21.963-5.61-33.677-4.804-17.17 1.182-31.635 7.548-44.212 20.176M1275.469 451c-2.529-.992-4.492-2.485-6.662-2.9-23.938-4.58-44.47-15.582-62.854-31.484-22.437-19.408-36.623-43.845-45.384-71.672-4.386-13.932-7.186-28.291-7.587-43.01-.238-8.755-1.265-17.532-.866-26.25 1.17-25.553 5.573-50.478 15.905-74.127 7.35-16.821 17.176-31.982 30.039-45.04 18.54-18.822 40.831-31.326 66.748-36.303 13.26-2.546 26.98-4.265 40.431-3.934 30.555.753 59.01 9.292 83.593 28.175 14.561 11.185 25.56 25.513 34.65 41.43 9.289 16.268 14.993 33.767 18.38 52.04 1.307 7.05 1.495 14.312 2.125 21.482.402 4.58.911 9.17.967 13.76.14 11.405.046 22.813.046 34.604h-213.639c-1.434 11.954.83 23.087 4.92 33.709 9.615 24.975 26.575 42.023 53.86 46.476 17.777 2.902 35.217 1.743 50.589-9 10.034-7.012 16.614-16.813 20.24-28.517.687-2.22 1.404-3.536 4.238-3.517 23.16.149 46.321.096 69.482.12.3 0 .6.199.896.303-3.588 44.805-44.757 97.062-113.432 103.262-15.508.393-30.862.393-46.685.393m63.473-261.57c-4.134-2.142-8.102-4.73-12.432-6.344-14.005-5.22-28.46-5.974-43.054-3.031-9.253 1.866-17.661 5.859-25.344 11.333-10.558 7.523-17.536 18.002-21.894 29.797-3.452 9.343-4.864 19.439-7.282 29.62h138.07c-1.831-23.814-7.479-45.564-28.064-61.375M3677.469 451c-4.087-1-7.656-2.266-11.332-2.953-21.616-4.042-41.33-12.362-58.608-26.054-18.73-14.843-32.311-33.324-38.663-56.614-1.57-5.753-2.383-11.712-3.639-18.053h73.492c1.502 9.856 5.537 19.035 12.596 26.284 9.976 10.244 22.685 15.28 36.876 16.346 7.733.581 15.543 1.389 23.242.898 14.577-.928 28.881-3.287 41.44-11.806 19.251-13.06 18.356-42.805.724-54.102-7.774-4.98-16.19-6.86-25.045-7.967-9.85-1.231-19.673-2.691-29.524-3.919-6.486-.808-13.019-1.251-19.501-2.085-18.749-2.41-37.657-4.46-54.915-12.917-16.603-8.137-29.981-19.976-39.284-36.223-7.938-13.865-11.853-28.798-11.23-44.627 1.218-30.907 13.935-55.807 39.214-74.366 16.78-12.318 35.447-20.025 55.573-23.524 14.167-2.463 28.84-3.584 43.199-3.023 22.574.881 44.48 5.788 64.736 16.648 28.613 15.342 46.074 39.207 54.036 70.274 1.322 5.161 1.021 10.738 1.5 16.474h-74.212c.55-9.19-3.216-17.008-8.35-24.49-6.344-9.242-15.53-14.316-25.814-16.964-7.969-2.052-16.437-3.158-24.655-3.022-12.806.211-25.575 2.08-36.448 9.838-9.547 6.811-15.73 16.332-15.585 27.952.157 12.567 4.993 22.545 21.427 27.812 8.54 2.737 17.677 3.708 26.6 5.136 11.556 1.85 23.174 3.315 34.754 5.03 10.917 1.616 21.94 2.782 32.698 5.147 16.878 3.71 32.202 10.92 45.864 21.82 8.745 6.977 15.755 15.35 20.572 25.103 4.002 8.104 6.968 17.043 8.574 25.94 3.183 17.637 1.357 35.179-4.81 52.075-3.727 10.209-9.054 19.484-16.243 27.837-18.63 21.648-42.905 32.635-70.202 38.033-7.65 1.512-15.464 2.2-23.364 3.663-15.183.399-30.204.399-45.693.399M1 196.333c.664-1.158 1.833-1.934 1.92-2.815 1.827-18.787 7.792-36.478 14.37-53.98.572-1.522 2.918-3.379 4.45-3.39 29.635-.2 59.27-.148 89.48-.148-3.908 6.328-7.513 12.306-11.255 18.195-7.959 12.525-12.374 26.408-15.999 40.648-3.584 14.081-3.962 28.493-2.751 42.692 2.424 28.426 12.521 54.167 30.431 76.628.906 1.136 1.46 2.734 2.597 3.476 7.772 5.075 7.993 12.58 7.886 20.845-.346 26.81-.129 53.627-.129 80.442v5.663c-4.303-2.157-8.178-3.688-11.618-5.895-14.545-9.328-28.398-19.475-40.94-31.535-19.403-18.656-35.119-39.856-46.779-64.03-8.91-18.472-15.293-37.826-18.692-58.114-.551-3.29-1.461-6.519-2.588-9.896-.383-.563-.383-1.008-.045-1.872.112-1.363-.113-2.305-.338-3.247 0-15.688 0-31.375.353-47.636.118-1.837-.118-3.1-.353-4.364zM4278 94.531c-2.264 4.255-4.385 8.136-6.813 11.813-15.703 23.77-51.687 23.851-68.024.384-12.498-17.953-9.14-45.25 8.64-58.834 14.076-10.754 36.57-11.326 51.158.48 7.618 6.165 12.49 13.77 14.667 23.5.372 7.48.372 14.835.372 22.657m-9.998-1.157c4.912-13.316.967-29.92-10.871-38.755-12.513-9.34-30.725-8.869-41.918 1.777-8.738 8.312-11.871 18.628-10.317 30.772 2.178 17.024 14.67 28.257 31.741 28.732 13.683.38 25.792-6.982 31.365-22.526"/><path fill="#fff" d="M1 198.4c.235.863.47 2.127.353 3.495C1 200.933 1 199.867 1 198.4m0 51.975c.225.567.45 1.51.338 2.538C1 252.25 1 251.5 1 250.375"/><path fill="#0c0c27" d="M1521.83 83h-125.593V5.23h340.527v77.722H1609.05V442.77H1525v-5.972c0-116.317.008-232.635-.072-348.952-.001-1.79 1.776-5.165-3.098-4.845M717.449 446.756c-14.798-2.115-28.388-6.268-40.607-14.363-17.564-11.635-28.209-28.228-32.612-48.404-2.593-11.88-3.945-24.252-4.048-36.418-.431-51.148-.182-102.302-.182-153.454v-5.871h-57.677v-64.018h57.46V43.552l78.076-19.516v99.802h79.769v63.835h-79.28c-.137 1.625-.334 2.878-.335 4.132-.015 52.318-.344 104.64.192 156.952.158 15.448 8.31 24.862 23.734 27.203 15.436 2.342 30.846 1.012 46.238-.89 4.713-.582 9.488-.667 14.558-1 .088 1.288.252 2.57.254 3.853.016 18.994-.012 37.989.036 56.983.008 2.862.019 4.744-3.943 5.275-11.703 1.566-23.259 4.283-34.975 5.688-10.762 1.292-21.651 1.645-32.498 2.045-4.566.169-9.167-.606-14.16-1.158M348.002 298.97c10.438-17.241 16.648-35.52 19.04-55.202 3.815-31.374-1.266-61.092-17.19-88.44-5.916-10.16-13.81-19.163-20.712-28.759-.976-1.357-2.045-3.08-2.05-4.638-.12-31.8-.09-63.602-.09-95.485 88.863 42.637 144.074 152.357 113.367 259.56-35.173 122.794-153.29 178.913-255.11 159.821v-82.1c14.263 4.053 28.461 5.612 42.963 5.356 17.77-.313 34.68-4.097 51.064-10.77 15.152-6.173 28.46-15.067 40.844-25.748 11.157-9.622 19.841-21.073 27.874-33.594"/><path fill="#0c0c27" d="M1719.004 124h50.87l6.553 45.32c2.515-4.402 4.447-8.49 7.003-12.139 11.307-16.14 27.02-26.267 45.55-32.091 15.984-5.024 32.53-5.67 49.147-5.05 1.096.04 2.152.748 3.262.916 3.057.464 7.584-.254 8.838 1.462 1.622 2.22.749 6.344.755 9.648.036 21.138.018 42.275.018 63.893-6.21-.688-12.154-1.093-18.01-2.046-14.39-2.341-28.216-.15-41.596 5.082-26.932 10.53-41.057 31.42-46.304 58.92-1.736 9.103-2.904 18.463-2.956 27.713-.282 50.48-.134 100.962-.134 151.443v5.667h-77.739V124zM185 126V83.169H99.285V3.28h165.432v250.428H185zm2703-22V8.248c1.635-.09 3.07-.238 4.505-.238 54.654-.012 109.31-.315 163.96.144 21.162.177 42.275 2.535 62.52 9.373 19.26 6.506 36.948 15.79 52.472 29.275 24.72 21.474 40.134 48.533 48.376 79.734 3.994 15.118 6.338 30.688 9.063 46.118.939 5.312.952 10.817 1.07 16.24.42 19.081 1.415 38.186.872 57.244-.89 31.27-4.07 62.316-14.839 92.046-7.162 19.772-17.254 37.754-31.2 53.725-12.87 14.739-28.135 26.005-45.598 34.33-15.922 7.59-32.618 13.07-50.302 14.7-10.968 1.01-21.992 1.93-32.994 1.97-53.986.2-107.973.091-161.96.091H2888zm80.067-23.26c-.02 96.12-.042 192.24-.046 288.36 0 .602.261 1.204.422 1.9 31.027 0 61.835-.125 92.641.06 12.801.077 24.713-3.222 36.006-8.713 21.823-10.612 35.027-28.674 42.924-51.097 7.797-22.138 9.258-45.294 9.754-68.37.44-20.474-1.08-40.991-1.776-61.488-.443-13.05-3.183-25.705-7.03-38.118-5.828-18.797-15.994-34.817-31.912-46.603-15.305-11.333-33.113-16.195-51.84-16.526-29.476-.523-58.968-.101-89.143.595"/><path fill="#fff" d="M2347.337 189.254c20.018-10.166 40.206-9.936 60.207-1.87 12.768 5.148 21.832 15.05 28.268 27.131 6.904 12.96 11.046 26.836 12.141 41.492.908 12.151 2.35 24.376 1.829 36.494-.871 20.26-3.715 40.32-13.417 58.684-9.483 17.952-23.636 29.527-44.078 32.87-15.373 2.515-30.133 1.733-44.143-5.993-14.76-8.138-24.793-20.272-31.124-35.645-5.668-13.764-8.56-28.142-9.033-43.022-.263-8.254-1.267-16.535-.865-24.751.96-19.657 3.62-39.09 12.96-56.827 6.27-11.907 15.053-21.66 27.255-28.563m-248.325 157.634c-10.387 24.09-30.327 35.147-54.164 39.868-14.787 2.929-30 3.585-44.168-3.815-13.065-6.824-20.697-17.8-21.46-32.317-.68-12.91 5.057-23.745 15.542-31.555 10.468-7.796 22.481-10.607 35.45-11.216 14.866-.698 29.676-2.565 44.52-3.823 5.736-.486 11.498-.676 17.246-1.036 4.205-.264 8.406-.585 12.827-.896.604 15.282.869 30.27-5.793 44.79M2668 251h-30.928c-.248-11.211 1.81-21.785 6.32-31.68 6.393-14.028 15.483-25.875 29.733-32.977 7.843-3.908 15.99-6.393 24.763-7.468 10.719-1.313 21.132-.237 31.269 2.834 22.54 6.828 34.882 23.318 40.723 45.188 2.032 7.61 2.686 15.59 4.084 24.103zm684.725-52.227c12.317-12.378 26.782-18.744 43.952-19.926 11.714-.807 22.729.678 33.677 4.804 16.357 6.165 26.226 18.354 32.594 33.887 3.83 9.338 6.239 19.063 6.098 29.288-.017 1.238.564 2.484.923 3.957h-136.973c.456-19.597 6.374-36.985 19.73-52.01m-2013.532-9.075c20.333 15.543 25.98 37.293 27.811 61.107h-138.069c2.418-10.181 3.83-20.277 7.282-29.62 4.358-11.795 11.336-22.274 21.894-29.797 7.683-5.474 16.091-9.467 25.344-11.333 14.594-2.943 29.05-2.19 43.054 3.031 4.33 1.614 8.298 4.202 12.684 6.612m2928.791-95.911c-5.556 15.13-17.665 22.493-31.348 22.113-17.07-.475-29.563-11.708-31.741-28.732-1.554-12.144 1.58-22.46 10.317-30.772 11.193-10.646 29.405-11.116 41.918-1.777 11.838 8.834 15.783 25.439 10.854 39.168m-36.989 7.474V87.035c3.61 1.075 7.47 1.048 8.704 2.834 2.654 3.843 3.957 8.62 5.741 12.846h9.61c-2.191-5.004-4.359-9.635-6.187-14.397-.365-.951.168-2.853.96-3.544 4.538-3.957 6.16-9.187 4.963-14.592-1.098-4.953-4.196-9.504-9.952-10.16-7.113-.81-14.3-.97-21.625-1.423v44.687c2.755-.383 5.243-.728 7.786-2.025M2968.412 80.403c29.83-.36 59.322-.78 88.798-.258 18.727.331 36.535 5.193 51.84 16.526 15.918 11.786 26.084 27.806 31.911 46.603 3.848 12.413 6.588 25.067 7.031 38.118.697 20.497 2.216 41.014 1.776 61.488-.496 23.076-1.957 46.232-9.754 68.37-7.897 22.423-21.1 40.485-42.924 51.097-11.293 5.491-23.205 8.79-36.006 8.713-30.806-.185-61.614-.06-92.64-.06-.162-.696-.423-1.298-.423-1.9.004-96.12.025-192.24.391-288.697"/><path fill="#0c0c27" d="M4230.969 101.736c-2.516.822-5.004 1.167-7.759 1.55V58.599c7.326.452 14.512.614 21.625 1.424 5.756.655 8.854 5.206 9.952 10.159 1.197 5.405-.425 10.635-4.962 14.592-.793.69-1.326 2.593-.96 3.544 1.827 4.762 3.995 9.393 6.186 14.397h-9.61c-1.784-4.226-3.087-9.003-5.74-12.846-1.235-1.786-5.094-1.759-8.705-2.834 0 5.42 0 9.823-.027 14.701m8.929-34.718h-8.58v12.246c5.207-1.396 11.825 2.729 14.54-4.542 1.515-4.056-2.002-5.938-5.96-7.704"/><path fill="#fff" d="M4240.316 67.12c3.54 1.664 7.057 3.546 5.542 7.602-2.715 7.27-9.333 3.146-14.54 4.542V67.018c2.743 0 5.661 0 8.998.102"/></svg>
