<svg fill="none" height="24" viewBox="0 0 24 24" width="24" xmlns="http://www.w3.org/2000/svg"><g fill="#801ed7"><path clip-rule="evenodd" d="m18 1c-1.6569 0-3 1.34315-3 3v9.9998c-1.213.9111-2 2.3633-2 4.0002 0 2.7614 2.2386 5 5 5s5-2.2386 5-5c0-1.6369-.787-3.0891-2-4.0002v-9.9998c0-1.65685-1.3431-3-3-3z" fill-rule="evenodd"/><path d="m10 4c0-.55228-.44771-1-1-1-.55228 0-1 .44772-1 1v2.58579l-1.29289-1.2929c-.39053-.39052-1.02369-.39052-1.41422 0-.39052.39053-.39052 1.02369 0 1.41422l2.70711 2.7071v1.58579h-1.58579l-2.7071-2.70711c-.39053-.39052-1.02369-.39052-1.41422 0-.39052.39053-.39052 1.02369 0 1.41422l1.2929 1.29289h-1.58579c-.55228 0-1 .4477-1 1s.44772 1 1 1h1.58579l-1.2929 1.2929c-.39052.3905-.39052 1.0237 0 1.4142.39053.3905 1.02369.3905 1.41422 0l2.7071-2.7071h1.58579v1.5858l-2.70711 2.7071c-.39052.3905-.39052 1.0237 0 1.4142.39053.3905 1.02369.3905 1.41422 0l1.29289-1.2929v2.5858c0 .5523.44772 1 1 1 .55229 0 1-.4477 1-1v-2.6337c.3824.2211.8799.168 1.2071-.1592.3905-.3905.3905-1.0237 0-1.4142l-1.2071-1.2071v-1.5858h2c.5523 0 1-.4477 1-1s-.4477-1-1-1h-2v-1.58578l2.7071-2.70711c.3905-.39053.3905-1.02369 0-1.41422-.3905-.39052-1.0237-.39052-1.4142 0l-1.2929 1.2929z"/></g></svg>