<svg fill="none" height="24" viewBox="0 0 24 24" width="24" xmlns="http://www.w3.org/2000/svg"><g clip-rule="evenodd" fill="#801ed7" fill-rule="evenodd"><path d="m8.92141 9.01012c.89002-.67245 1.97939-1.02796 3.09469-1.00999.5522.0089.9927.46377.9838 1.01598s-.4638.99269-1.016.98376c-.6692-.01078-1.3228.20253-1.8568.60603-.53404.4034-.9178.9739-1.09025 1.6206s-.1237 1.3325.13851 1.9483.72281 1.1262 1.30854 1.4501c.4833.2672.6585.8757.3912 1.359-.2672.4833-.87567.6585-1.35899.3912-.9762-.5397-1.74387-1.3905-2.18088-2.4168s-.51827-2.1693-.23085-3.2471c.28742-1.0779.92701-2.02862 1.81703-2.70108z"/><path d="m12 2c.5523 0 1 .44772 1 1v2c0 .55228-.4477 1-1 1s-1-.44772-1-1v-2c0-.55228.4477-1 1-1z"/><path d="m7.30711 17.6929c.39052.3905.39052 1.0237 0 1.4142l-1.4 1.4c-.39053.3905-1.02369.3905-1.41422 0-.39052-.3905-.39052-1.0237 0-1.4142l1.4-1.4c.39053-.3905 1.02369-.3905 1.41422 0z"/><path d="m1 13c0-.5523.44772-1 1-1h2c.55228 0 1 .4477 1 1s-.44772 1-1 1h-2c-.55228 0-1-.4477-1-1z"/><path d="m4.49289 5.49289c.39053-.39052 1.02369-.39052 1.41422 0l1.4 1.4c.39052.39053.39052 1.02369 0 1.41422-.39053.39052-1.02369.39052-1.41422 0l-1.4-1.4c-.39052-.39053-.39052-1.02369 0-1.41422z"/><path d="m15 4c0-1.65685 1.3431-3 3-3s3 1.34315 3 3v9.9998c1.213.9111 2 2.3633 2 4.0002 0 2.7614-2.2386 5-5 5s-5-2.2386-5-5c0-1.6369.787-3.0891 2-4.0002z"/></g></svg>