<svg fill="none" height="24" viewBox="0 0 24 24" width="24" xmlns="http://www.w3.org/2000/svg"><g clip-rule="evenodd" fill="#801ed7" fill-rule="evenodd"><path d="m8 1c-1.933 0-3.5 1.567-3.5 3.5v8.7572c-1.22003 1.0077-2 2.534-2 4.2428 0 3.0376 2.46243 5.5 5.5 5.5 3.0376 0 5.5-2.4624 5.5-5.5 0-1.7088-.78-3.2351-2-4.2428v-8.7572c0-1.933-1.567-3.5-3.5-3.5zm0 14.5c-1.10457 0-2 .8954-2 2s.89543 2 2 2 2-.8954 2-2-.89543-2-2-2z"/><path d="m14 3c0-.55228.4477-1 1-1h6c.5523 0 1 .44772 1 1 0 .55229-.4477 1-1 1h-6c-.5523 0-1-.44772-1-1z"/><path d="m14 7c0-.55228.4477-1 1-1h6c.5523 0 1 .44772 1 1 0 .55229-.4477 1-1 1h-6c-.5523 0-1-.44772-1-1z"/><path d="m14 11c0-.5523.4477-1 1-1h6c.5523 0 1 .4477 1 1s-.4477 1-1 1h-6c-.5523 0-1-.4477-1-1z"/></g></svg>