<svg fill="none" height="24" viewBox="0 0 24 24" width="24" xmlns="http://www.w3.org/2000/svg"><path d="m11.5342 1c-.7201 0-1.3725.42403-1.66495 1.08198l-3.36076 7.5617c-.08153.18345-.12411.27807-.15901.34467l-.0031.00588-.00663.00045c-.07504.00484-.17879.00532-.37954.00532h-.79875c-.52715-.00002-.98191-.00003-1.35649.0306-.39534.0323-.78856.1036-1.16694.2964-.56449.2876-1.02343.7465-1.31105 1.311-.19279.3784-.26411.7716-.29641 1.167-.030601.3745-.030586.8293-.03057 1.3564v4.6771c-.000016.5272-.000031.982.03057 1.3565.0323.3954.10362.7886.29641 1.167.28762.5645.74656 1.0234 1.31105 1.311.37838.1928.7716.2641 1.16694.2964.37457.0306.82933.0306 1.35647.0306.46312 0 .83856-.3754.83856-.8386v-8.1614c0-.5523.44772-1 1-1 .55229 0 1 .4477 1 1v7.4c0 .5601 0 .8401.10899 1.054.09588.1882.24886.3411.43702.437.21391.109.49394.109 1.05399.109h6.3196c.6988 0 1.2789 0 1.7562-.0363.4984-.038.9578-.1193 1.4013-.3203.6936-.3143 1.2831-.82 1.6992-1.4577.266-.4078.4163-.8495.5296-1.3363.1085-.4662.1967-1.0396.3029-1.7302l.5356-3.4815c.1408-.915.2562-1.6651.297-2.2773.0422-.6316.0146-1.221-.2009-1.7859-.3308-.86742-.9531-1.59275-1.7601-2.05166-.5256-.29886-1.1039-.41571-1.7346-.47012-.6113-.05275-1.3702-.05273-2.296-.05272h-.8498c-.2965 0-.4588-.00078-.5754-.0103l-.0131-.00115-.0012-.01318c-.0095-.11659-.0103-.27884-.0103-.57537v-2.93416c0-1.91413-1.5517-3.46584-3.4658-3.46584z" fill="#801ed7"/></svg>