<svg fill="none" height="24" viewBox="0 0 24 24" width="24" xmlns="http://www.w3.org/2000/svg"><path d="m16 2.6c0-.56005 0-.84008-.109-1.05399-.0959-.18816-.2488-.34114-.437-.43702-.2139-.10899-.4939-.10899-1.054-.10899h-6.31949c-.69873-.000009-1.27893-.000018-1.75624.03632-.49837.03793-.95777.11929-1.40131.32026-.69357.31427-1.28304.81999-1.69912 1.45771-.26607.40781-.41634.8495-.52962 1.33631-.10849.46625-.1967 1.03965-.30294 1.7303l-.5356 3.4814c-.14078.915-.25619 1.6651-.29701 2.2773-.04212.6316-.01457 1.221.2009 1.7859.33085.8674.95313 1.5928 1.76016 2.0517.52558.2988 1.10391.4157 1.7346.4701.61129.0527 1.37018.0527 2.29593.0527h.84985c.29653 0 .45878.0008.57537.0103l.01318.0012.00115.0131c.00952.1166.0103.2789.0103.5754v2.9342c0 1.9141 1.55169 3.4658 3.46579 3.4658.7201 0 1.3725-.424 1.665-1.082l3.3607-7.5617c.0816-.1834.1241-.278.159-.3447l.0031-.0058.0067-.0005c.075-.0048.1788-.0053.3795-.0053h.7987c.5272 0 .982 0 1.3565-.0306.3954-.0323.7886-.1036 1.167-.2964.5645-.2876 1.0234-.7465 1.311-1.311.1928-.3784.2641-.7716.2964-1.167.0306-.3745.0306-.8293.0306-1.35643v-4.67713c0-.52714 0-.9819-.0306-1.35647-.0323-.39534-.1036-.78856-.2964-1.16694-.2876-.56449-.7465-1.02343-1.311-1.31105-.3784-.19279-.7716-.26411-1.167-.29641-.3745-.030601-.8293-.030586-1.3564-.03057-.4632 0-.8387.3755-.8387.8387v8.1613c0 .5523-.4477 1-1 1s-1-.4477-1-1z" fill="#801ed7"/></svg>