<svg fill="none" height="24" viewBox="0 0 24 24" width="24" xmlns="http://www.w3.org/2000/svg"><path clip-rule="evenodd" d="m6.7587 3h10.4826c.805-.00001 1.4693-.00002 2.0105.0442.5621.04592 1.0788.14448 1.5642.39178.7526.38349 1.3645.99541 1.748 1.74806.2473.48534.3459 1.00204.3918 1.56414.0442.54119.0442 1.20554.0442 2.0105v6.48262c0 .805 0 1.4693-.0442 2.0105-.0459.5621-.1445 1.0788-.3918 1.5642-.3835.7526-.9954 1.3645-1.748 1.748-.4854.2473-1.0021.3459-1.5642.3918-.5412.0442-1.2055.0442-2.0105.0442h-10.48262c-.80496 0-1.46931 0-2.0105-.0442-.5621-.0459-1.0788-.1445-1.56414-.3918-.75265-.3835-1.36457-.9954-1.74806-1.748-.2473-.4854-.34586-1.0021-.39178-1.5642-.044221-.5412-.044212-1.2055-.0442-2.0105v-6.48261c-.000012-.80496-.000021-1.46933.0442-2.01051.04592-.5621.14448-1.0788.39178-1.56414.38349-.75265.99541-1.36457 1.74806-1.74806.48534-.2473 1.00204-.34586 1.56414-.39178.54118-.04422 1.20557-.04421 2.01052-.0442zm2.2413 3.5c0-.55228-.44771-1-1-1-.55228 0-1 .44772-1 1v1c0 .55229.44772 1 1 1 .55229 0 1-.44771 1-1zm-1 4c.55229 0 1 .4477 1 1v1c0 .5523-.44771 1-1 1-.55228 0-1-.4477-1-1v-1c0-.5523.44772-1 1-1zm1 6c0-.5523-.44771-1-1-1-.55228 0-1 .4477-1 1v1c0 .5523.44772 1 1 1 .55229 0 1-.4477 1-1z" fill="#801ed7" fill-rule="evenodd"/></svg>