<svg fill="none" height="24" viewBox="0 0 24 24" width="24" xmlns="http://www.w3.org/2000/svg"><path clip-rule="evenodd" d="m5.16146 3h13.67704c.5272-.00002.982-.00003 1.3565.03057.3954.0323.7886.10362 1.167.29641.5645.28762 1.0234.74657 1.311 1.31105.1928.37838.2641.7716.2964 1.16695.0306.37456.0306.82932.0306 1.35646v1.33856c0 .55229-.4477 1-1 1-1.3807 0-2.5 1.1193-2.5 2.5s1.1193 2.5 2.5 2.5c.5523 0 1 .4477 1 1v1.3386c0 .5271 0 .9819-.0306 1.3564-.0323.3954-.1036.7886-.2964 1.167-.2876.5645-.7465 1.0234-1.311 1.311-.3784.1928-.7716.2641-1.167.2964-.3745.0306-.8293.0306-1.3564.0306h-13.67716c-.52714 0-.9819 0-1.35646-.0306-.39535-.0323-.78857-.1036-1.16695-.2964-.56448-.2876-1.02343-.7465-1.31105-1.311-.19279-.3784-.26411-.7716-.29641-1.167-.030599-.3745-.030585-.8293-.03057-1.3564v-1.3386c0-.5523.44772-1 1-1 1.38072 0 2.5-1.1193 2.5-2.5s-1.11928-2.5-2.5-2.5c-.55228 0-1-.44771-1-1v-1.33858c-.000015-.52712-.000029-.98189.03057-1.35644.0323-.39535.10362-.78857.29641-1.16695.28762-.56448.74657-1.02343 1.31105-1.31105.37838-.19279.7716-.26411 1.16695-.29641.37455-.0306.82936-.03059 1.35648-.03057zm5.83854 3.5c0-.55228-.4477-1-1-1-.55228 0-1 .44772-1 1v1c0 .55229.44772 1 1 1 .5523 0 1-.44771 1-1zm-1 4c.5523 0 1 .4477 1 1v1c0 .5523-.4477 1-1 1-.55228 0-1-.4477-1-1v-1c0-.5523.44772-1 1-1zm1 6c0-.5523-.4477-1-1-1-.55228 0-1 .4477-1 1v1c0 .5523.44772 1 1 1 .5523 0 1-.4477 1-1z" fill="#801ed7" fill-rule="evenodd"/></svg>