<svg fill="none" height="24" viewBox="0 0 24 24" width="24" xmlns="http://www.w3.org/2000/svg"><path d="m16.5 1c-3.5899 0-6.50002 2.91015-6.50002 6.5 0 .40766.03762.80741.10992 1.19569l-3.10987-3.10988v-2.58578c0-.43043-.27543-.81257-.68377-.94869l-3.00001-1c-.35933-.119774-.7555-.02625-1.02333.24158l-1 1c-.26783.26783-.361354.664-.24158 1.02333l1 3.00001c.13612.40834.51826.68377.94869.68377h2.58578l3.49997 3.49997-6.2929 6.2929c-1.21896 1.2189-1.21896 3.1952 0 4.4142 1.21895 1.2189 3.19526 1.2189 4.41421 0l4.79291-4.793 4.7929 4.7929c1.2189 1.219 3.1953 1.2189 4.4142 0 1.219-1.219 1.2189-3.1953 0-4.4142l-3.0152-3.0152c2.7695-.7445 4.8081-3.273 4.8081-6.2776 0-.63809-.0923-1.25638-.2648-1.84137-.0998-.3384-.3705-.59916-.7124-.68621s-.7044.01251-.9539.26198l-1.986 1.9752c-.2417.24029-.3625.36044-.49.42926-.2972.16035-.6553.15986-.9521-.00131-.1274-.06917-.2478-.18965-.4888-.4306-.241-.24099-.3615-.36148-.4307-.48888-.1611-.2968-.1616-.65491-.0012-.95213.0688-.12757.189-.24838.4294-.48999l2.1469-2.15811c.2365-.23651.3391-.5756.2734-.90355-.0657-.32796-.291-.60135-.6004-.72849-.7627-.31345-1.5972-.4858-2.4694-.4858z" fill="#801ed7"/></svg>