<svg fill="none" height="24" viewBox="0 0 24 24" width="24" xmlns="http://www.w3.org/2000/svg"><path clip-rule="evenodd" d="m8.99998 8c0-3.86599 3.13402-7 7.00002-7 .8236 0 1.6161.14267 2.3527.40547.3229.11521.5643.38782.6395.72231.0753.33448-.026.68421-.2685.92665l-2.2435 2.26735c-.3182.32155-.4773.48233-.5523.66047-.1051.24984-.1043.53167.0022.78091.076.17771.236.33759.556.65734.3206.32035.4809.48053.659.55637.2497.10637.5319.10666.7819.00079.1782-.07547.3388-.23532.66-.55502l2.3041-2.29294c.2391-.23914.5829-.3412.9138-.27129s.604.30232.726.61775c.3033.7843.4691 1.63589.4691 2.52384 0 3.866-3.134 7-7 7-.5714 0-1.1281-.0687-1.6618-.1987-.2531-.0616-.4131-.1004-.53-.1239-.0216-.0044-.0393-.0076-.0535-.0101-.0038.0033-.0079.0069-.0123.011-.0621.0561-.1437.1372-.2875.281l-6.24781 6.2478c-1.21895 1.219-3.19526 1.219-4.41421 0-1.21896-1.2189-1.21896-3.1953 0-4.4142l6.24781-6.2478c.14382-.1438.22492-.2254.28103-.2875.01562-.0173.00673-.0367.00087-.0658-.02351-.1169-.06228-.27696-.12393-.53003-.13001-.53367-.19868-1.09038-.19868-1.66177z" fill="#801ed7" fill-rule="evenodd"/></svg>