<svg fill="none" height="24" viewBox="0 0 24 24" width="24" xmlns="http://www.w3.org/2000/svg"><g fill="#801ed7"><path d="m8 1c-.55228 0-1 .44772-1 1s.44772 1 1 1h3v1h-2.24129c-.80496-.00001-1.46934-.00002-2.01053.0442-.5621.04592-1.0788.14448-1.56414.39178-.75265.38349-1.36457.99541-1.74806 1.74806-.24729.48534-.34586 1.00204-.39178 1.56414-.01773.21691-.02889.4343-.0358.65193-.01722.54209-.02583.81313.08057 1.03396.09166.19025.25118.35491.43842.45257.21733.11336.50243.11336 1.07261.11336h14.8c.5702 0 .8553 0 1.0726-.11336.1873-.09766.3468-.26232.4384-.45257.1064-.22082.0978-.49187.0806-1.03396-.0069-.21763-.0181-.43502-.0358-.65193-.0459-.5621-.1445-1.0788-.3918-1.56414-.3835-.75265-.9954-1.36457-1.748-1.74806-.4854-.2473-1.0021-.34586-1.5642-.39178-.5412-.04422-1.2055-.04421-2.0105-.0442h-2.2413v-1h3c.5523 0 1-.44772 1-1s-.4477-1-1-1z"/><path d="m9.5 21c-.55228 0-1 .4477-1 1s.44772 1 1 1h5c.5523 0 1-.4477 1-1s-.4477-1-1-1z"/><path clip-rule="evenodd" d="m16.3788 19.9939c-.3432.0061-.7216.0061-1.1375.0061h-6.48262c-.41588 0-.79429 0-1.13752-.0061l-1.22676 2.4535c-.24698.494-.84766.6942-1.34164.4472-.49397-.2469-.6942-.8476-.44721-1.3416l.9201-1.8402c-.11566-.0424-.22947-.0916-.34161-.1488-.75265-.3835-1.36457-.9954-1.74806-1.748-.24729-.4854-.34586-1.0021-.39178-1.5642-.04422-.5412-.04421-1.2055-.0442-2.0105v-.6413c0-.5601 0-.8401.109-1.054.09587-.1882.24885-.3411.43701-.437.21391-.109.49394-.109 1.05399-.109h14.8c.5601 0 .8401 0 1.054.109.1882.0959.3411.2488.437.437.109.2139.109.4939.109 1.054v.6413c0 .805 0 1.4693-.0442 2.0105-.0459.5621-.1445 1.0788-.3918 1.5642-.3835.7526-.9954 1.3645-1.748 1.748-.1122.0572-.226.1064-.3417.1488l.9201 1.8402c.247.494.0468 1.0947-.4472 1.3416-.494.247-1.0947.0468-1.3417-.4472zm-7.8788-5.9939c-.82842 0-1.5.6716-1.5 1.5s.67158 1.5 1.5 1.5c.82843 0 1.5-.6716 1.5-1.5s-.67157-1.5-1.5-1.5zm7 0c-.8284 0-1.5.6716-1.5 1.5s.6716 1.5 1.5 1.5 1.5-.6716 1.5-1.5-.6716-1.5-1.5-1.5z" fill-rule="evenodd"/></g></svg>