<svg fill="none" height="24" viewBox="0 0 24 24" width="24" xmlns="http://www.w3.org/2000/svg"><g clip-rule="evenodd" fill="#801ed7" fill-rule="evenodd"><path d="m8.57516 1.00001c-.36681-.000102-.64425-.00018-.92156.03864-.24507.03431-.48642.09129-.72096.1702-.2654.08929-.51351.21344-.84155.37757l-1.03833.51917c-.49397.24699-.6942.84767-.44721 1.34164.24699.49398.84766.69421 1.34164.44722l.9865-.49325c.40186-.20093.51977-.25742.63672-.29677.11727-.03945.23795-.06794.36048-.08509.09563-.01339.19649-.01765.45118-.01888l.99976 1.99954h-.62312c-.80496-.00001-1.46934-.00002-2.01053.0442-.5621.04592-1.0788.14448-1.56414.39178-.75265.38349-1.36457.99541-1.74806 1.74806-.24729.48534-.34586 1.00204-.39178 1.56414-.01773.21691-.02889.4343-.0358.65193-.01722.54209-.02583.81309.08057 1.03399.09166.1902.25118.3549.43842.4525.21733.1134.50243.1134 1.07261.1134h14.8c.5702 0 .8553 0 1.0726-.1134.1873-.0976.3468-.2623.4384-.4525.1064-.2209.0978-.4919.0806-1.03399-.0069-.21763-.0181-.43502-.0358-.65193-.0459-.5621-.1445-1.0788-.3918-1.56414-.3835-.75265-.9954-1.36457-1.748-1.74806-.4854-.2473-1.0021-.34586-1.5642-.39178-.5412-.04422-1.2055-.04421-2.0105-.0442h-.6232l.9998-1.99954c.2547.00123.3555.00549.4512.01888.1225.01715.2432.04564.3604.08509.117.03935.2349.09584.6368.29677l.9865.49325c.4939.24699 1.0946.04676 1.3416-.44722.247-.49397.0468-1.09465-.4472-1.34164l-1.0383-.51917c-.3281-.16413-.5762-.28828-.8416-.37757-.2345-.07891-.4759-.13589-.7209-.1702-.2774-.03882-.5548-.038742-.9216-.03864zm3.80694 3.99999 1-1.99998h-2.7642l1 1.99998z"/><path d="m16.3788 20.9939c-.3432.0061-.7216.0061-1.1375.0061h-6.48262c-.41585 0-.79425 0-1.13745-.0061l-.72661 1.4535c-.24696.494-.84762.6942-1.34162.4473-.49399-.247-.69425-.8476-.44729-1.3416l.42004-.8403c-.11569-.0424-.22954-.0916-.34171-.1488-.75265-.3835-1.36457-.9954-1.74806-1.748-.24729-.4854-.34586-1.0021-.39178-1.5642-.04422-.5412-.04421-1.2055-.0442-2.0105v-.6413c0-.5601 0-.8401.109-1.054.09587-.1882.24885-.3411.43701-.437.21391-.109.49394-.109 1.05399-.109h14.8c.5601 0 .8401 0 1.054.109.1882.0959.3411.2488.437.437.109.2139.109.4939.109 1.054v.6413c0 .805 0 1.4693-.0442 2.0105-.0459.5621-.1445 1.0788-.3918 1.5642-.3835.7526-.9954 1.3645-1.748 1.748-.1122.0572-.226.1064-.3417.1488l.4201.8402c.247.494.0468 1.0947-.4472 1.3416-.494.247-1.0947.0468-1.3417-.4472zm-7.8788-5.9939c-.82842 0-1.5.6716-1.5 1.5s.67158 1.5 1.5 1.5c.82843 0 1.5-.6716 1.5-1.5s-.67157-1.5-1.5-1.5zm7 0c-.8284 0-1.5.6716-1.5 1.5s.6716 1.5 1.5 1.5 1.5-.6716 1.5-1.5-.6716-1.5-1.5-1.5z"/></g></svg>