<svg fill="none" height="24" viewBox="0 0 24 24" width="24" xmlns="http://www.w3.org/2000/svg"><g fill="#801ed7"><path d="m7 1c-.55228 0-1 .44772-1 1s.44772 1 1 1h1c.55228 0 1-.44772 1-1s-.44772-1-1-1z"/><path d="m9.22288 7.3629.90862-1.3629h-8.1315c-.55228 0-1-.44772-1-1s.44772-1 1-1h9.9853c.0104-.00016.0208-.00016.0313 0h1.9834c.5523 0 1 .44772 1 1s-.4477 1-1 1h-1.4648l-1.7031 2.55468c-.0366.0548-.0784.10585-.125.15241l-1.79289 1.79291 1.79289 1.7929c.3905.3905.3905 1.0237 0 1.4142s-1.02368.3905-1.41421 0l-1.7929-1.7929-2.79288 2.7929c-.39053.3905-1.02369.3905-1.41422 0-.39052-.3905-.39052-1.0237 0-1.4142l2.79289-2.7929-1.79289-1.79289c-.39052-.39053-.39052-1.02369 0-1.41422.39053-.39052 1.02369-.39052 1.41422 0l1.79288 1.79289z"/><path clip-rule="evenodd" d="m15.8477 9.30806c.4121-.199.8925-.199 1.3046 0 .3584.17311.5528.47472.6493.63703.1012.17001.205.38711.3069.60031l2.8716 6.0043c.0065.0128.0126.0257.0186.0388l1.9034 3.98c.2383.4982.0276 1.0953-.4707 1.3336-.4982.2383-1.0953.0275-1.3335-.4707l-1.6412-3.4315h-5.9134l-1.6412 3.4315c-.2383.4982-.8353.709-1.3336.4707-.4982-.2383-.70893-.8354-.4706-1.3336l1.9034-3.98c.0059-.0131.0121-.026.0186-.0388l2.8716-6.0042c.1019-.2133.2057-.4303.3068-.60041.0966-.16231.2909-.46392.6494-.63703zm2.6525 6.69184-2.0002-4.1822-2.0002 4.1822z" fill-rule="evenodd"/></g></svg>