<svg fill="none" height="24" viewBox="0 0 24 24" width="24" xmlns="http://www.w3.org/2000/svg"><g fill="#801ed7"><path d="m8.99998 3c0-.55228-.44772-1-1-1-.55229 0-1 .44772-1 1v1h-5c-.55229 0-1.000003.44772-1.000003 1s.447713 1 1.000003 1h8.27912c-.46536 1.9747-1.24752 3.79672-2.30305 5.413-.88934-.8348-1.64355-1.82855-2.05492-2.80219-.21494-.50874-.80161-.74691-1.31035-.53197-.50874.21495-.7469.80161-.53196 1.31035.55374 1.31061 1.54179 2.59181 2.69597 3.63631-1.42239 1.681-3.18415 3.0673-5.21985 4.079-.49457.2458-.696262.846-.45048 1.3405.24579.4946.84597.6963 1.34055.4505 2.3161-1.151 4.31388-2.7346 5.91855-4.6517.40678.26.81875.4851 1.2266.6684.50374.2263 1.09564.0014 1.32194-.5024.2264-.5038.0015-1.0956-.5023-1.322-.28-.1257-.56336-.2775-.84522-.4508 1.30872-1.9674 2.25072-4.20733 2.76362-6.637h1.6718c.5523 0 1-.44772 1-1s-.4477-1-1-1h-2.4835c-.0118-.00021-.0237-.00021-.0354 0h-2.48112z"/><path clip-rule="evenodd" d="m17.1523 9.30806c-.4121-.199-.8925-.199-1.3046 0-.3585.17311-.5528.47472-.6494.63703-.1011.17011-.2049.38711-.3068.60041l-2.8716 6.0042c-.0065.0128-.0127.0257-.0186.0388l-1.9034 3.98c-.23833.4982-.0276 1.0953.4706 1.3336.4983.2383 1.0953.0275 1.3336-.4707l1.6412-3.4315h5.9134l1.6412 3.4315c.2382.4982.8353.709 1.3335.4707.4983-.2383.709-.8354.4707-1.3336l-1.9034-3.98c-.006-.0131-.0121-.026-.0186-.0388l-2.8716-6.0042c-.1019-.2132-.2057-.4304-.3069-.60041-.0965-.16231-.2909-.46392-.6493-.63703zm-.6523 2.50964 2.0002 4.1822h-4.0004z" fill-rule="evenodd"/></g></svg>