<svg fill="none" height="24" viewBox="0 0 24 24" width="24" xmlns="http://www.w3.org/2000/svg"><path clip-rule="evenodd" d="m11.1615 1h1.677c.5272-.000015.982-.000029 1.3565.03057.3954.0323.7886.10362 1.167.29641.5645.28762 1.0234.74657 1.311 1.31105.1928.37838.2641.7716.2964 1.16695.0275.33577.0303.73599.0306 1.19502h4c.5523 0 1 .44772 1 1 0 .55229-.4477 1-1 1h-1v10.2413c0 .8049 0 1.4693-.0442 2.0105-.0459.5621-.1445 1.0788-.3918 1.5642-.3835.7526-.9954 1.3645-1.748 1.748-.4854.2473-1.0021.3459-1.5642.3918-.5412.0442-1.2055.0442-2.0105.0442h-4.48262c-.80496 0-1.46932 0-2.0105-.0442-.5621-.0459-1.07881-.1445-1.56414-.3918-.75265-.3835-1.36457-.9954-1.74807-1.748-.24729-.4854-.34585-1.0021-.39178-1.5642-.04421-.5412-.0442-1.2055-.04419-2.0105v-10.2413h-1c-.55228 0-1-.44771-1-1 0-.55228.44772-1 1-1h4.00003c.00028-.45903.00311-.85925.03054-1.19502.0323-.39535.10362-.78857.29641-1.16695.28762-.56448.74656-1.02343 1.31105-1.31105.37838-.19279.7716-.26411 1.16694-.29641.37453-.030599.82933-.030585 1.35653-.03057zm-1.1615 9.5c.5523 0 1 .4477 1 1v5c0 .5523-.4477 1-1 1-.55228 0-1-.4477-1-1v-5c0-.5523.44772-1 1-1zm5 1c0-.5523-.4477-1-1-1s-1 .4477-1 1v5c0 .5523.4477 1 1 1s1-.4477 1-1z" fill="#801ed7" fill-rule="evenodd"/></svg>