<svg fill="none" height="24" viewBox="0 0 24 24" width="24" xmlns="http://www.w3.org/2000/svg"><g fill="#801ed7"><path d="m8 3c0-.55228.44772-1 1-1h6c.5523 0 1 .44772 1 1s-.4477 1-1 1h-6c-.55228 0-1-.44772-1-1z"/><path clip-rule="evenodd" d="m2 6c0-.55228.44772-1 1-1h18c.5523 0 1 .44772 1 1s-.4477 1-1 1h-1.0644l-.6417 9.6255c-.0504.7554-.092 1.3806-.1667 1.8894-.0778.5298-.2012 1.0139-.4583 1.4651-.4001.7024-1.0037 1.2671-1.7311 1.6196-.4673.2265-.9586.3174-1.4924.3598-.5127.0407-1.1392.0406-1.8963.0406h-3.0981c-.75714 0-1.38369.0001-1.89638-.0406-.53379-.0424-1.02507-.1333-1.49236-.3598-.72744-.3525-1.331-.9172-1.73114-1.6196-.25704-.4512-.38043-.9353-.45822-1.4651-.07471-.5088-.11638-1.134-.16673-1.8894l-.6417-9.6255h-1.06447c-.55228 0-1-.44772-1-1zm8 3.5c.5523 0 1 .44772 1 1v5c0 .5523-.4477 1-1 1-.55228 0-1-.4477-1-1v-5c0-.55228.44772-1 1-1zm5 1c0-.55228-.4477-1-1-1s-1 .44772-1 1v5c0 .5523.4477 1 1 1s1-.4477 1-1z" fill-rule="evenodd"/></g></svg>