<svg fill="none" height="24" viewBox="0 0 24 24" width="24" xmlns="http://www.w3.org/2000/svg"><path d="m2.70711 6.29289c-.39053-.39052-1.02369-.39052-1.41422 0-.390521.39053-.390521 1.02369 0 1.41422l4.89118 4.89119c.17844.1785.35222.3523.51144.4875.17485.1484.39674.308.68646.4021.40168.1305.83438.1305 1.23606 0 .28972-.0941.51161-.2537.68646-.4021.15921-.1352.33299-.309.51143-.4875l2.75978-2.75982c.2097-.20968.325-.32386.4142-.39956l.0101-.00852.0101.00852c.0892.0757.2045.18988.4142.39956l6.1615 6.16152h-4.5858c-.5523 0-1 .4477-1 1s.4477 1 1 1h7c.5523 0 1-.4477 1-1v-7c0-.55228-.4477-1-1-1s-1 .44772-1 1v4.5858l-6.1841-6.18409c-.1784-.17848-.3522-.35231-.5114-.48747-.1749-.14843-.3967-.308-.6865-.40214-.4017-.13052-.8343-.13052-1.236 0-.2898.09414-.5116.25371-.6865.40214-.1592.13515-.333.30896-.5114.48742l-2.75984 2.75984c-.20967.2097-.32495.3239-.41413.3996l-.01013.0085-.01013-.0085c-.08918-.0757-.20446-.1899-.41413-.3996z" fill="#801ed7"/></svg>