<svg fill="none" height="24" viewBox="0 0 24 24" width="24" xmlns="http://www.w3.org/2000/svg"><path d="m15 6c-.5523 0-1 .44772-1 1s.4477 1 1 1h4.5858l-6.1615 6.1615c-.2097.2097-.325.3239-.4142.3996l-.0101.0085-.0101-.0085c-.0892-.0757-.2045-.1899-.4142-.3996l-2.75978-2.7598c-.17842-.1785-.35222-.3523-.51143-.4875-.17485-.1484-.39674-.308-.68646-.4021-.40168-.1305-.83438-.1305-1.23606 0-.28972.0941-.51161.2537-.68646.4021-.15921.1352-.33299.309-.51142.4875l-4.8912 4.8912c-.390521.3905-.390521 1.0237 0 1.4142.39053.3905 1.02369.3905 1.41422 0l4.86863-4.8686c.20967-.2097.32495-.3239.41413-.3996l.01013-.0085.01013.0085c.08918.0757.20446.1899.41413.3996l2.75984 2.7598c.1784.1785.3522.3523.5114.4875.1749.1484.3967.308.6865.4021.4017.1305.8343.1305 1.236 0 .2898-.0941.5116-.2537.6865-.4021.1592-.1352.333-.309.5114-.4875l6.1841-6.18409v4.58579c0 .5523.4477 1 1 1s1-.4477 1-1v-7c0-.55228-.4477-1-1-1z" fill="#801ed7"/></svg>