<svg fill="none" height="24" viewBox="0 0 24 24" width="24" xmlns="http://www.w3.org/2000/svg"><path clip-rule="evenodd" d="m10.8385 3h-5.67704c-.52713-.00002-.98192-.00003-1.35649.03057-.39534.0323-.78856.10362-1.16694.29641-.56449.28762-1.02343.74656-1.31105 1.31105-.19279.37838-.26411.7716-.29641 1.16694-.030601.37457-.030586.82931-.03057 1.35645v7.83858c0 1.3406.87937 2.4759 2.09276 2.8604.3936 1.7956 1.99346 3.1396 3.90724 3.1396 1.86384 0 3.4299-1.2748 3.874-3h3.1064l.0196.0002h.5355c.2427 1.696 1.7013 2.9998 3.4645 2.9998 1.7841 0 3.2565-1.335 3.4727-3.0605.0946-.021.1929-.0502.2927-.0915.49-.203.8794-.5924 1.0824-1.0824.0969-.2341.1274-.4598.1404-.6502.0118-.1741.0118-.3787.0118-.5887v-2.8638l.0001-.051c.0005-.1899.0011-.4291-.0554-.6644-.049-.2041-.1298-.3991-.2394-.5781-.1265-.2063-.296-.375-.4307-.5089l-.0361-.036-4.0628-4.06279-.036-.03615c-.1339-.13465-.3026-.30419-.5089-.43065-.179-.10966-.374-.19046-.5781-.23946-.2354-.0565-.4745-.05586-.6644-.05535l-.051.00009h-1.3549c-.0036-.0673-.0078-.13239-.013-.19522-.0323-.39534-.1036-.78856-.2964-1.16694-.2876-.56449-.7465-1.02343-1.311-1.31105-.3784-.19279-.7716-.26411-1.167-.29641-.3745-.0306-.8293-.03059-1.3565-.03057zm10.1612 12.6957c.0003-.0563.0003-.1208.0003-.1955v-2.8373c0-.131-.0002-.1963-.0024-.2438l-.0002-.0036-.0024-.0027c-.032-.0351-.0781-.0815-.1707-.1741l-4.0628-4.06277c-.0926-.09263-.139-.1387-.1741-.17074l-.0027-.00242-.0036-.00017c-.0475-.00217-.1128-.00241-.2438-.00241h-1.3373v7.69601c.6125-1.0164 1.7268-1.6962 3-1.6962 1.273 0 2.3872.6796 2.9997 1.6957zm-13.9997-.6957c-1.10457 0-2 .8954-2 2s.89543 2 2 2 2-.8954 2-2-.89543-2-2-2zm9.5 2.5c0-.8284.6716-1.5 1.5-1.5s1.5.6716 1.5 1.5-.6716 1.5-1.5 1.5-1.5-.6716-1.5-1.5z" fill="#801ed7" fill-rule="evenodd"/></svg>