<svg fill="none" height="24" viewBox="0 0 24 24" width="24" xmlns="http://www.w3.org/2000/svg"><path clip-rule="evenodd" d="m5.16146 2h7.67704c.5272-.00002.982-.00003 1.3565.03057.3954.0323.7886.10362 1.167.29641.5645.28762 1.0234.74656 1.311 1.31105.1928.37838.2641.7716.2964 1.16694.0306.37458.0306.82935.0306 1.35651v.83871h1.3373l.051-.00009c.1899-.00051.429-.00115.6644.05535.2041.049.3991.1298.5781.23946.2063.12645.375.29599.5089.43064l.036.03616 2.0628 2.06275.0361.03602c.1347.13393.3042.30262.4307.50892.1096.179.1904.374.2394.5781.0565.2353.0559.4745.0554.6644l-.0001.051v2.7692c0 .2524.0001.4982-.0169.7063-.0187.2286-.0628.4983-.2011.7698-.1917.3763-.4977.6823-.874.874-.2714.1383-.5412.1824-.7698.201-.1438.0118-.3056.0154-.4752.0165.2161.4547.337.9634.337 1.5003 0 1.933-1.567 3.5-3.5 3.5s-3.5-1.567-3.5-3.5c0-.5368.1208-1.0454.3368-1.5h-4.67361c.21597.4546.33681.9632.33681 1.5 0 1.933-1.567 3.5-3.5 3.5s-3.5-1.567-3.5-3.5c0-.5704.13643-1.1089.37844-1.5846-.25065-.0455-.49856-.1192-.74041-.2424-.56449-.2876-1.02343-.7465-1.31105-1.311-.19279-.3784-.26411-.7716-.29641-1.167-.030601-.3745-.030586-.8293-.03057-1.3564v-6.67714c-.000016-.52713-.000031-.98192.03057-1.35649.0323-.39534.10362-.78856.29641-1.16694.28762-.56449.74656-1.02343 1.31105-1.31105.37838-.19279.7716-.26411 1.16694-.29641.37457-.0306.82936-.03059 1.35649-.03057zm12.31434 15.0002h.0484c.8173.0129 1.4758.6795 1.4758 1.4998 0 .8284-.6716 1.5-1.5 1.5s-1.5-.6716-1.5-1.5c0-.8203.6585-1.4869 1.4758-1.4998zm-.0127-2h-.4631v-6.00001h1.3373c.131 0 .1963.00024.2438.00241l.0036.00017.0027.00242c.0351.03204.0815.07811.1741.17074l2.0628 2.06277c.0926.0926.1387.139.1707.1741l.0024.0027.0002.0036c.0022.0475.0024.1128.0024.2438v2.7373c0 .2965-.0008.4588-.0103.5754l-.0011.0131-.0132.0012c-.1166.0095-.2789.0103-.5754.0103h-2.8631c-.0123-.0001-.0246-.0002-.0369-.0002s-.0246.0001-.0369.0002zm-9.4631 3.4998c0-.8276-.67027-1.4987-1.49758-1.5h-.00484c-.82731.0013-1.49758.6724-1.49758 1.5 0 .8284.67157 1.5 1.5 1.5s1.5-.6716 1.5-1.5z" fill="#801ed7" fill-rule="evenodd"/></svg>