<svg fill="none" height="24" viewBox="0 0 24 24" width="24" xmlns="http://www.w3.org/2000/svg"><g fill="#801ed7"><path clip-rule="evenodd" d="m2.29289 2.29289c.39053-.39052 1.02369-.39052 1.41422 0l17.99999 18.00001c.3905.3905.3905 1.0237 0 1.4142s-1.0237.3905-1.4142 0l-5.5429-5.5429v2.8358h1.25c.5523 0 1 .4477 1 1s-.4477 1-1 1h-8c-.55228 0-1-.4477-1-1s.44772-1 1-1h1.25v-8.3358l-4.25-4.24999v.58574c0 .55228-.44772 1-1 1s-1-.44772-1-1v-1c0-.46271.10518-.90152.29254-1.29319l-.99965-.99965c-.39052-.39053-.39052-1.02369 0-1.41422z" fill-rule="evenodd"/><path d="m14.75 10.5074v-5.5074h2.25c.4796 0 .7893.00054 1.0262.01671.228.01556.3149.04217.3565.05941.245.1015.4397.29617.5412.5412.0172.04161.0438.12844.0594.35644.0162.23698.0167.54662.0167 1.02624 0 .55229.4477 1 1 1s1-.44771 1-1v-.03199c0-.43865 0-.81713-.0213-1.13039-.0225-.32983-.0721-.65974-.2071-.98567-.3044-.73508-.8885-1.31911-1.6235-1.62359-.326-.135-.6559-.1845-.9857-.20701-.3133-.02137-.6917-.02136-1.1304-.02135h-9.78936l2 2h.00736v.00736z"/></g></svg>