<svg fill="none" height="24" viewBox="0 0 24 24" width="24" xmlns="http://www.w3.org/2000/svg"><path clip-rule="evenodd" d="m6.96802 3h10.06398c.4386-.00001.8171-.00002 1.1304.02135.3298.02251.6597.07201.9857.20701.735.30448 1.3191.88851 1.6235 1.62359.135.32593.1845.65584.2071.98567.0213.31326.0213.69174.0213 1.13039v.03199c0 .55229-.4477 1-1 1s-1-.44771-1-1c0-.47962-.0005-.78926-.0167-1.02624-.0156-.228-.0422-.31483-.0594-.35644-.1015-.24503-.2962-.4397-.5412-.5412-.0416-.01724-.1285-.04385-.3565-.05941-.2369-.01617-.5466-.01671-1.0262-.01671h-2.25v14h1.25c.5523 0 1 .4477 1 1s-.4477 1-1 1h-8c-.55228 0-1-.4477-1-1s.44772-1 1-1h1.25v-14h-2.25c-.47962 0-.78926.00054-1.02624.01671-.228.01556-.31483.04217-.35644.05941-.24503.1015-.4397.29617-.5412.5412-.01724.04161-.04385.12844-.05941.35644-.01617.23698-.01671.54662-.01671 1.02624 0 .55229-.44771 1-1 1-.55228 0-1-.44771-1-1v-.03198c-.00001-.43865-.00002-.81714.02135-1.1304.02251-.32983.07201-.65974.20701-.98567.30448-.73508.88851-1.31911 1.62359-1.62359.32593-.135.65584-.1845.98567-.20701.31326-.02137.69175-.02136 1.1304-.02135z" fill="#801ed7" fill-rule="evenodd"/></svg>