<svg fill="none" height="24" viewBox="0 0 24 24" width="24" xmlns="http://www.w3.org/2000/svg"><path clip-rule="evenodd" d="m2.29289 2.29289c.39053-.39052 1.02369-.39052 1.41422 0l17.99999 18.00001c.3905.3905.3905 1.0237 0 1.4142s-1.0237.3905-1.4142 0l-7.2929-7.2929v4.5858h2c.5523 0 1 .4477 1 1s-.4477 1-1 1h-6c-.55228 0-1-.4477-1-1s.44772-1 1-1h2v-6.5858l-6-5.99999v.58579c0 .55228-.44772 1-1 1s-1-.44772-1-1v-1c0-.46272.10519-.90155.29256-1.29323l-.99967-.99966c-.39052-.39053-.39052-1.02369 0-1.41422zm15.73331 2.72382c-.2369-.01617-.5466-.01671-1.0262-.01671h-4v1.5c0 .55228-.4477 1-1 1s-1-.44772-1-1v-1.5h-1.5c-.55228 0-1-.44772-1-1s.44772-1 1-1h7.532c.4386-.00001.8171-.00002 1.1304.02135.3298.0225.6597.07201.9857.20701.735.30448 1.3191.8885 1.6235 1.62359.135.32593.1845.65584.2071.98567.0213.31325.0213.69174.0213 1.13039v.03199c0 .55228-.4477 1-1 1s-1-.44772-1-1c0-.47962-.0005-.78926-.0167-1.02624-.0156-.228-.0422-.31483-.0594-.35644-.1015-.24503-.2962-.43971-.5412-.5412-.0416-.01724-.1285-.04385-.3565-.05941z" fill="#801ed7" fill-rule="evenodd"/></svg>