<svg fill="none" height="24" viewBox="0 0 24 24" width="24" xmlns="http://www.w3.org/2000/svg"><path clip-rule="evenodd" d="m2.58329 12.8124c-.06747.0485-.14123.0888-.21982.1195-.13576.053-.27929.0747-.4205.0665-.15077-.0085-.29261-.0504-.41825-.1183-.10255-.0553-.19665-.1293-.27685-.2211-.12327-.1405-.20776-.316-.23677-.5095-.0073-.0485-.01097-.0974-.01109-.1461l-.00001-.0034c0-6.07513 4.92487-11 11-11 6.0751 0 11 4.92513 11 11.0003 0 .0493-.0036.0989-.0109.148-.0287.193-.1125.3679-.2349.5084-.1717.197-.4193.3261-.6972.3417-.1412.0082-.2847-.0135-.4205-.0665-.0786-.0307-.1523-.071-.2198-.1195-.2269-.1581-.4765-.288-.7276-.4024-.4775-.2176-1.0802-.41-1.6892-.41-.6089 0-1.2116.1924-1.6892.41-.2518.1147-.5016.2451-.7292.4035-.2817.2012-.6479.2427-.9674.1091-.4278-.1775-.8673-.33-1.3091-.4683-.4245-.1328-.877-.2581-1.305-.345v7.2909c0 1.9509-1.5304 3.6-3.5 3.6s-3.5-1.6491-3.5-3.6c0-.5523.44772-1 1-1s1 .4477 1 1c0 .9209.70818 1.6 1.5 1.6.7918 0 1.5-.6791 1.5-1.6v-7.2853c-.428.0842-.8805.2066-1.30503.3394-.44179.1383-.88126.2908-1.30908.4683-.31948.1336-.68567.0921-.96735-.1091-.22768-.1584-.47745-.2888-.72925-.4035-.47758-.2176-1.08028-.41-1.68922-.41-.60893 0-1.21163.1924-1.68921.41-.2511.1144-.50061.2443-.72757.4024z" fill="#801ed7" fill-rule="evenodd"/></svg>