<svg fill="none" height="24" viewBox="0 0 24 24" width="24" xmlns="http://www.w3.org/2000/svg"><path clip-rule="evenodd" d="m3.46991 5.05221c3.3454-4.116634 9.27369-5.316021 14.01679-2.58622l.0132.0076.0132.00765c4.7357 2.74271 6.6612 8.47646 4.7688 13.43206-.1375.3601-.3045.8734-.7571 1.2448-.3434.2817-.834.4559-1.2781.4538-.3204-.0015-.589-.0893-.8174-.1926-.1978-.0894-.4137-.2141-.6245-.3359l-6.4387-3.7174-4.40753 7.634h14.04143c.5523 0 1 .4477 1 1s-.4477 1-1 1h-20c-.55228 0-1-.4477-1-1s.44772-1 1-1h3.64917l4.98483-8.634-6.43888-3.71748c-.21081-.12166-.42678-.24629-.60316-.37289-.20361-.14615-.41398-.33489-.57546-.61157-.22388-.38357-.31831-.89556-.24601-1.33376.09536-.57793.45632-.97894.69942-1.27809zm1.55211 1.26133c2.01732-2.48239 5.18458-3.66713 8.26418-3.22357-.2746.17667-.548.37317-.8186.58609-1.4594 1.14838-2.9662 2.87777-4.28138 4.96731l-3.42776-1.99232c.03881-.05744.12559-.16773.26356-.33751zm13.95268 1.11942c-.2648 1.83807-1.0091 4.00764-2.1611 6.19144l3.4394 1.9724c.0303-.0623.0825-.1926.1605-.397 1.1412-2.9883.5835-6.32365-1.3405-8.76892-.0157.32616-.0492.66126-.0983 1.00208z" fill="#801ed7" fill-rule="evenodd"/></svg>