<svg fill="none" height="24" viewBox="0 0 24 24" width="24" xmlns="http://www.w3.org/2000/svg"><path d="m12 1c-5.47946 0-10.02148 4.00541-10.86114 9.2481-.00468.0293-.00966.0594-.01478.0903-.06152.3715-.142426.8602.04811 1.3663.15648.4156.49426.8118.87992 1.032.2782.1589.55475.2172.80416.242.21605.0214.46539.0214.70878.0213h7.43495v6.4c0 1.9509 1.5304 3.6 3.5 3.6s3.5-1.6491 3.5-3.6c0-.5523-.4477-1-1-1s-1 .4477-1 1c0 .921-.7082 1.6-1.5 1.6s-1.5-.679-1.5-1.6v-6.4h7.4349c.2434.0001.4927.0001.7088-.0213.2494-.0248.5259-.0831.8041-.2419.3857-.2203.7235-.6165.88-1.0321.1905-.5061.1096-.9948.0481-1.3663-.0052-.0309-.0101-.061-.0148-.0903-.8397-5.24269-5.3817-9.2481-10.8611-9.2481z" fill="#801ed7"/></svg>