<svg fill="none" height="24" viewBox="0 0 24 24" width="24" xmlns="http://www.w3.org/2000/svg"><path clip-rule="evenodd" d="m2 4c0-.55228.44772-1 1-1h1.9994.0012 3.49841.00198 1.99901c.5523 0 1 .44772 1 1 0 .55229-.4477 1-1 1h-1v5c0 2.7036 1.789 4.9919 4.2495 5.7409 2.4603-.7488 4.2505-3.0358 4.2505-5.7409v-5h-1c-.5523 0-1-.44772-1-1s.4477-1 1-1h1.9994.0012 1.9994c.5523 0 1 .44772 1 1 0 .55229-.4477 1-1 1h-1v5c0 4.4183-3.5817 8-8 8-4.41828 0-8-3.5817-8-8v-5h-1c-.55228 0-1-.44772-1-1zm1 17c0-.5523.44772-1 1-1h16c.5523 0 1 .4477 1 1s-.4477 1-1 1h-16c-.55228 0-1-.4477-1-1z" fill="#801ed7" fill-rule="evenodd"/></svg>