<svg fill="none" height="24" viewBox="0 0 24 24" width="24" xmlns="http://www.w3.org/2000/svg"><path clip-rule="evenodd" d="m19.4914 8.18681c2.5922.66306 4.5086 3.01429 4.5086 5.81319 0 3.3137-2.6863 6-6 6h-11.5c-3.58985 0-6.5-2.9101-6.5-6.5 0-3.0623 2.11764-5.62996 4.96841-6.31852 1.35557-2.49093 3.99615-4.18148 7.03159-4.18148 3.4283 0 6.3528 2.15641 7.4914 5.18681zm-12.19851 4.52029c.39053.3905 1.02369.3905 1.41422 0l2.29289-2.2929v5.5858c0 .5523.4477 1 1 1s1-.4477 1-1v-5.5858l2.2929 2.2929c.3905.3905 1.0237.3905 1.4142 0s.3905-1.0237 0-1.4142l-4-4.00001c-.3905-.39052-1.0237-.39052-1.4142 0l-4.00001 4.00001c-.39052.3905-.39052 1.0237 0 1.4142z" fill="#801ed7" fill-rule="evenodd"/></svg>