<svg fill="none" height="24" viewBox="0 0 24 24" width="24" xmlns="http://www.w3.org/2000/svg"><g fill="#801ed7"><path d="m2 3c0-.55228.44772-1 1-1h18c.5523 0 1 .44772 1 1s-.4477 1-1 1h-18c-.55228 0-1-.44772-1-1z"/><path d="m5.29289 13.7071c.39053.3905 1.02369.3905 1.41422 0l4.29289-4.29289v11.58579c0 .5523.4477 1 1 1s1-.4477 1-1v-11.58579l4.2929 4.29289c.3905.3905 1.0237.3905 1.4142 0s.3905-1.0237 0-1.4142l-6-6.00001c-.3905-.39052-1.0237-.39052-1.4142 0l-6.00001 6.00001c-.39052.3905-.39052 1.0237 0 1.4142z"/></g></svg>