<svg fill="none" height="24" viewBox="0 0 24 24" width="24" xmlns="http://www.w3.org/2000/svg"><path clip-rule="evenodd" d="m9 21c-4.97056 0-9-4.0294-9-9 0-4.97056 4.02944-9 9-9 2.6837 0 5.0931 1.17464 6.742 3.03783.2493-.02502.5021-.03783.758-.03783 4.1421 0 7.5 3.35786 7.5 7.5 0 4.1421-3.3579 7.5-7.5 7.5zm-1.70711-7.2929c.39053.3905 1.02369.3905 1.41422 0l2.29289-2.2929v5.5858c0 .5523.4477 1 1 1s1-.4477 1-1v-5.5858l2.2929 2.2929c.3905.3905 1.0237.3905 1.4142 0s.3905-1.0237 0-1.4142l-4-4.00001c-.3905-.39052-1.0237-.39052-1.4142 0l-4.00001 4.00001c-.39052.3905-.39052 1.0237 0 1.4142z" fill="#801ed7" fill-rule="evenodd"/></svg>