<svg fill="none" height="24" viewBox="0 0 24 24" width="24" xmlns="http://www.w3.org/2000/svg"><g fill="#801ed7"><path d="m11.2929 2.29289c.3905-.39052 1.0237-.39052 1.4142 0l5 5c.3905.39053.3905 1.02369 0 1.41422-.3905.39052-1.0237.39052-1.4142 0l-3.2929-3.2929v9.58579c0 .5523-.4477 1-1 1s-1-.4477-1-1v-9.58579l-3.29289 3.2929c-.39053.39052-1.02369.39052-1.41422 0-.39052-.39053-.39052-1.02369 0-1.41422z"/><path d="m8.00003 14c.55227 0 .99997.4477.99997 1 0 1.6569 1.3431 3 3 3s3-1.3431 3-3c0-.5523.4477-1 1-1h2.6671c.3045-.0002.5665-.0003.8022.037 1.2837.2033 2.2904 1.2101 2.4938 2.4938.0373.2356.0371.4976.0369.8022v.1497c.0002.4769.0003.8304-.0493 1.1431-.271 1.7116-1.6134 3.0539-3.325 3.325-.3127.0495-.6662.0494-1.1432.0493h-10.96502c-.47698.0001-.83047.0002-1.14322-.0493-1.71157-.2711-3.05393-1.6134-3.32502-3.325-.04953-.3128-.04942-.6663-.04926-1.1432l-.00001-.1497c-.0002-.3045-.00036-.5665.03696-.8021.20331-1.2837 1.21008-2.2905 2.49376-2.4938.23566-.0373.49767-.0372.8022-.037z"/></g></svg>