<svg fill="none" height="24" viewBox="0 0 24 24" width="24" xmlns="http://www.w3.org/2000/svg"><path d="m16.3788 22.0939c-.7623.3312-1.1435.4968-1.7455.3845-.4393-.0819-1.0403-.476-1.2905-.8464-.3428-.5074-.3428-1.0643-.3428-2.1782v-9.0396l2.2929 2.2929c.3905.3905 1.0237.3905 1.4142 0s.3905-1.0237 0-1.4142l-4-4.00001c-.3905-.39052-1.0237-.39052-1.4142 0l-4.00001 4.00001c-.39052.3905-.39052 1.0237 0 1.4142.39053.3905 1.02369.3905 1.41422 0l2.29289-2.2929-.0001 8.9304c-.001 1.261-.0018 2.2566.7341 3.2974.0877.1239.1918.2438.3062.3579-.0134.0001-.0268.0001-.0402.0001-6.07513 0-11-4.9249-11-11 0-6.07513 4.92487-11 11-11 6.0751 0 11 4.92487 11 11 0 4.5189-2.7249 8.4013-6.6212 10.0939z" fill="#801ed7"/></svg>