<svg fill="none" height="24" viewBox="0 0 24 24" width="24" xmlns="http://www.w3.org/2000/svg"><g fill="#801ed7"><path d="m10 4.00001c.5523 0 1 .44771 1 1v1c0 .55228-.4477 1-1 1-.55228 0-.99999-.44772-.99999-1v-1c0-.55229.44771-1 .99999-1z"/><path d="m15 5.00001c0-.55229-.4477-1-1-1s-1 .44771-1 1v1c0 .55228.4477 1 1 1s1-.44772 1-1z"/><path clip-rule="evenodd" d="m7.56811 1h8.86379c.2524-.000027.4982-.000057.7063.01695.2286.01868.4984.06274.7698.20104.3763.19175.6823.49771.874.87403.1383.27143.1824.54116.2011.76976.017.20812.0169.45386.0169.7062v4.61027c.1219.03922.2427.08794.362.14873.5645.28762 1.0234.74656 1.311 1.31105.1928.37837.2641.77157.2964 1.16697.0306.3745.0306.8293.0306 1.3564v5.0799c0 .805 0 1.4693-.0442 2.0105-.0459.5621-.1445 1.0788-.3918 1.5642-.3835.7526-.9954 1.3645-1.748 1.748-.4854.2473-1.0021.3459-1.5642.3918-.5412.0442-1.2055.0442-2.0104.0442h-6.48272c-.80495 0-1.46932 0-2.0105-.0442-.5621-.0459-1.0788-.1445-1.56414-.3918-.75265-.3835-1.36457-.9954-1.74806-1.748-.24729-.4854-.34586-1.0021-.39178-1.5642-.04422-.5412-.04421-1.2055-.0442-2.0104v-5.0799c-.00002-.5272-.00003-.982.03057-1.3565.0323-.3954.10362-.7886.29641-1.16697.28762-.56449.74656-1.02343 1.31105-1.31105.11932-.06079.24011-.10951.36198-.14873l-.00001-4.61014c-.00003-.25238-.00006-.49818.01695-.70633.01868-.2286.06275-.49833.20104-.76976.19175-.37632.49771-.68228.87403-.87403.27143-.1383.54116-.18236.76976-.20104.20815-.017007.45395-.016977.70633-.01695zm-.5681 7.00003c.05303-.00003.10685-.00003.16145-.00003h9.67704c.0546 0 .1085 0 .1615.00003v-4.40002c0-.29653-.0008-.45879-.0103-.57537l-.0011-.01319-.0132-.00114c-.1166-.00953-.2789-.0103-.5754-.0103h-8.79999c-.29653 0-.45878.00077-.57537.0103l-.01319.00114-.00114.01319c-.00953.11658-.0103.27884-.0103.57537z" fill-rule="evenodd"/></g></svg>