<svg fill="none" height="24" viewBox="0 0 24 24" width="24" xmlns="http://www.w3.org/2000/svg"><g fill="#801ed7"><path d="m20 4c0-.55228-.4477-1-1-1s-1 .44772-1 1v3.58579l-1.2929-1.2929c-.3905-.39052-1.0237-.39052-1.4142 0-.3905.39053-.3905 1.02369 0 1.41422l3 2.99999c.1875.1875.4419.2929.7071.2929s.5196-.1054.7071-.2929l3-2.99999c.3905-.39053.3905-1.02369 0-1.41422-.3905-.39052-1.0237-.39052-1.4142 0l-1.2929 1.2929z"/><g clip-rule="evenodd" fill-rule="evenodd"><path d="m6.75864 14h4.48256c.805 0 1.4694 0 2.0106.0442.5621.0459 1.0788.1445 1.5641.3918.7527.3835 1.3646.9954 1.7481 1.748.2473.4854.3458 1.0021.3917 1.5642.0443.5412.0443 1.2055.0442 2.0105 0 .2827.0129.5691-.0101.8511-.0119.1452-.0423.3532-.1533.5712-.1439.2822-.3733.5117-.6556.6555-.2179.1111-.4259.1415-.5711.1534-.1253.0102-.2676.0102-.3867.0101-4.1488-.0015-8.29754-.0015-12.4463 0-.11911.0001-.26137.0001-.38669-.0101-.14522-.0119-.35321-.0423-.57115-.1534-.28225-.1438-.51172-.3733-.65553-.6555-.11105-.218-.14149-.426-.15336-.5712-.023035-.282-.010129-.5685-.010129-.8511-.000013-.805-.000023-1.4693.044199-2.0105.04592-.5621.14448-1.0788.39178-1.5642.38349-.7526.99541-1.3645 1.74806-1.748.48533-.2473 1.00204-.3459 1.56414-.3918.54119-.0442 1.20555-.0442 2.01052-.0442z"/><path d="m4.49994 7.5c0-2.48528 2.01472-4.5 4.5-4.5 2.48526 0 4.49996 2.01472 4.49996 4.5s-2.0147 4.5-4.49996 4.5c-2.48528 0-4.5-2.01472-4.5-4.5z"/></g></g></svg>