<svg fill="none" height="24" viewBox="0 0 24 24" width="24" xmlns="http://www.w3.org/2000/svg"><g clip-rule="evenodd" fill="#801ed7" fill-rule="evenodd"><path d="m2.27242 19.314c2.50586-2.6578 5.93283-4.314 9.72758-4.314 3.7948 0 7.2218 1.6562 9.7276 4.314.2738.2904.3487.7158.1906 1.0822-.1582.3665-.5191.6038-.9182.6038h-17.99998c-.39911 0-.76001-.2373-.91815-.6038-.15814-.3664-.08324-.7918.19055-1.0822z"/><path d="m6.50002 7.5c0-3.03757 2.46244-5.5 5.49998-5.5 3.0376 0 5.5 2.46243 5.5 5.5 0 3.0376-2.4624 5.5-5.5 5.5-3.03754 0-5.49998-2.4624-5.49998-5.5z"/></g></svg>