<svg fill="none" height="24" viewBox="0 0 24 24" width="24" xmlns="http://www.w3.org/2000/svg"><g clip-rule="evenodd" fill="#801ed7" fill-rule="evenodd"><path d="m18.0429 10.0429c1.0809-1.08089 2.8333-1.0809 3.9142 0 1.081 1.0808 1.081 2.8334 0 3.9143-2.1598 2.1598-4.3233 4.316-6.4795 6.4794-.0851.0855-.1924.1931-.3179.2853-.1091.0801-.2261.1489-.3491.2053-.1415.065-.2877.1065-.4037.1395-1.0446.2965-2.0881.5965-3.1322.8948-.3492.0998-.725.0024-.9818-.2544s-.35419-.6326-.2544-.9818c.2983-1.0441.5983-2.0876.8948-3.1322.033-.116.0745-.2622.1395-.4037.0564-.123.1252-.24.2053-.3491.0922-.1255.1998-.2328.2853-.3179 2.1635-2.1562 4.3197-4.3197 6.4795-6.4795z"/><path d="m6.60988 14.5101c.14522.0119.35321.0423.57116.1534.28224.1438.51171.3733.65552.6555.11105.218.14149.426.15336.5712.01024.1253.01018.2676.01014.3867-.00049 1.3154-.00049 2.6308 0 3.9462.00004.1192.0001.2614-.01014.3867-.01187.1453-.04231.3532-.15336.5712-.14381.2822-.37328.5117-.65552.6555-.21795.1111-.42594.1415-.57116.1534-.12532.0102-.26757.0102-.38669.0101-2.87739-.001-.75528-.0153-3.63262.0001-.07137.0004-.21482.0011-.35099-.0229-.62102-.1095-1.10724-.5957-1.21674-1.2167-.024011-.1362-.023247-.2796-.022867-.351.003147-.5909-.027035-1.1932.076037-1.7777.36501-2.0701 1.98574-3.6908 4.0558-4.0558.64684-.1141 1.21002-.0878 1.47807-.0659z"/><path d="m4.50005 7.5c0-3.03757 2.46243-5.5 5.50005-5.5 3.0375 0 5.5 2.46243 5.5 5.5 0 3.0376-2.4625 5.5-5.5 5.5-3.03762 0-5.50005-2.4624-5.50005-5.5z"/></g></svg>