<svg fill="none" height="24" viewBox="0 0 24 24" width="24" xmlns="http://www.w3.org/2000/svg"><g clip-rule="evenodd" fill="#801ed7" fill-rule="evenodd"><path d="m7 9.5c0-2.76142 2.23858-5 5-5 2.7614 0 5 2.23858 5 5 0 2.7614-2.2386 5-5 5-2.76142 0-5-2.2386-5-5z"/><path d="m12 1c-6.07513 0-11 4.92487-11 11 0 6.0751 4.92487 11 11 11 6.0751 0 11-4.9249 11-11 0-6.07513-4.9249-11-11-11zm-9 11c0-4.97056 4.02944-9 9-9 4.9706 0 9 4.02944 9 9 0 2.2211-.8046 4.2543-2.1382 5.824-.9161-1.1126-2.3054-1.824-3.8618-1.824h-5.99995c-1.55637 0-2.94566.7114-3.8618 1.8241-1.33365-1.5698-2.13825-3.603-2.13825-5.8241z"/></g></svg>