<svg fill="none" height="24" viewBox="0 0 24 24" width="24" xmlns="http://www.w3.org/2000/svg"><g clip-rule="evenodd" fill="#801ed7" fill-rule="evenodd"><path d="m15.1045 3.02273c.2458-.49458.846-.69627 1.3405-.45048 1.8086.89878 3.055 2.76679 3.055 4.92775s-1.2464 4.029-3.055 4.9278c-.4945.2457-1.0947.0441-1.3405-.4505s-.0441-1.0948.4505-1.3406c1.1548-.5739 1.945-1.76394 1.945-3.1367s-.7902-2.5628-1.945-3.13673c-.4946-.24578-.6963-.84596-.4505-1.34054z"/><path d="m17.0889 16.3541c.2277-.5031.8202-.7265 1.3234-.4988 1.6779.7593 3.1618 1.984 4.374 3.5269.3412.4343.2658 1.0629-.1685 1.4041s-1.0629.2658-1.4041-.1685c-1.0427-1.3271-2.281-2.3317-3.626-2.9403-.5031-.2277-.7264-.8202-.4988-1.3234z"/><path d="m4.00001 7.5c0-3.03757 2.46243-5.5 5.5-5.5 3.03759 0 5.49999 2.46243 5.49999 5.5 0 3.0376-2.4624 5.5-5.49999 5.5-3.03757 0-5.5-2.4624-5.5-5.5z"/><path d="m1.21368 19.3822c2.09179-2.6624 5.00346-4.3822 8.28633-4.3822 3.28289 0 6.19459 1.7198 8.28629 4.3822.2365.301.2804.7106.1131 1.0549s-.5166.5629-.8994.5629h-14.99999c-.38282 0-.73205-.2186-.89939-.5629-.167351-.3443-.123449-.7539.11306-1.0549z"/></g></svg>