<svg fill="none" height="24" viewBox="0 0 24 24" width="24" xmlns="http://www.w3.org/2000/svg"><g clip-rule="evenodd" fill="#801ed7" fill-rule="evenodd"><path d="m17.1064 15.388c.2479-.4935.8489-.6926 1.3425-.4447 1.6344.8211 3.016 2.1282 4.0159 3.7389.1515.244.372.5699.4404 1.0115.0733.4728-.055.9249-.2462 1.2687-.1912.3437-.5077.6912-.948.8783-.4187.1779-.8741.1593-1.211.1593-.5523 0-1-.4477-1-1s.4477-1 1-1c.2152 0 .3283-.0006.4091-.0061l.0021-.0037c.0191-.0344-.1262-.2219-.1456-.2532-.8223-1.3246-1.9372-2.3648-3.2145-3.0065-.4935-.2479-.6926-.849-.4447-1.3425z"/><path d="m15.1045 3.02273c.2457-.49458.8459-.69627 1.3405-.45048 1.8086.89878 3.055 2.76679 3.055 4.92775s-1.2464 4.029-3.055 4.9278c-.4946.2457-1.0948.0441-1.3405-.4505-.2458-.4946-.0441-1.0948.4504-1.3406 1.1549-.5739 1.9451-1.76394 1.9451-3.1367s-.7902-2.5628-1.9451-3.13673c-.4945-.24578-.6962-.84596-.4504-1.34054z"/><path d="m3.99997 7.5c0-3.03757 2.46243-5.5 5.5-5.5 3.03753 0 5.50003 2.46243 5.50003 5.5 0 3.0376-2.4625 5.5-5.50003 5.5-3.03757 0-5.5-2.4624-5.5-5.5z"/><path d="m9.49997 14c3.19623 0 6.05353 1.8041 7.79713 4.4201.1536.2305.3174.4763.4319.7099.1379.2811.2369.6041.2137.9898-.0184.3077-.1205.5931-.2418.8197-.1214.2266-.3023.4698-.5482.6557-.3293.249-.6842.3363-.9979.3728-.2762.0321-.6034.0321-.9329.032-3.8131-.0007-7.62924-.0007-11.44386 0-.32954.0001-.65669.0001-.93293-.032-.3137-.0365-.66859-.1238-.9979-.3728-.24583-.1859-.42681-.4291-.54815-.6557s-.22339-.512-.24186-.8197c-.02315-.3857.07585-.7087.21369-.9898.11453-.2336.27834-.4794.43195-.7099 1.74359-2.616 4.60089-4.4201 7.79713-4.4201z"/></g></svg>