<svg fill="none" height="24" viewBox="0 0 24 24" width="24" xmlns="http://www.w3.org/2000/svg"><g clip-rule="evenodd" fill="#801ed7" fill-rule="evenodd"><path d="m8.78597 14.5c2.14263.0005 4.28533.0005 6.42793 0 .7267-.0002 1.2219-.0003 1.6543.076 2.0701.365 3.6908 1.9857 4.0558 4.0558.0762.4324.0761.9275.076 1.6542-.0001.1584.0048.3178-.0228.4745-.1095.621-.5958 1.1072-1.2168 1.2167-.1361.024-.2796.0233-.351.0229-4.9391-.0265-9.87978-.0265-14.81893 0-.07136.0004-.21482.0011-.35099-.0229-.62101-.1095-1.10723-.5957-1.21674-1.2167-.02762-.1567-.02276-.3161-.0228-.4745-.00016-.7267-.00027-1.2218.07598-1.6542.36501-2.0701 1.98574-3.6908 4.05579-4.0558.43241-.0763.92758-.0762 1.65426-.076z"/><path d="m6.49996 7.5c0-3.03757 2.46243-5.5 5.50004-5.5 3.0375 0 5.5 2.46243 5.5 5.5 0 3.0376-2.4625 5.5-5.5 5.5-3.03761 0-5.50004-2.4624-5.50004-5.5z"/></g></svg>