<svg fill="none" height="24" viewBox="0 0 24 24" width="24" xmlns="http://www.w3.org/2000/svg"><g clip-rule="evenodd" fill="#801ed7" fill-rule="evenodd"><path d="m18.7929 11.2929c.9428-.9428 2.4714-.9428 3.4142-.0001.9429.9429.9429 2.4715 0 3.4144-2.2279 2.2279-4.4603 4.4515-6.6839 6.6838-.0991.0995-.2239.2249-.3721.3282-.1288.0898-.2677.1642-.4138.2215-.1836.072-.3734.1063-.5162.1349l-2.0251.405c-.3279.0656-.6668-.0371-.9033-.2735-.2364-.2365-.339-.5754-.2734-.9033.1375-.6872.2763-1.3742.4124-2.0617.0273-.1377.0616-.3112.1276-.4794.0573-.1462.1317-.285.2215-.4138.1033-.1482.2286-.273.3281-.3721 2.2324-2.2236 4.456-4.456 6.684-6.6839z"/><path d="m8.18099 14.1635c.28225.1438.51172.3733.65553.6555.15307.3004.16362.6286.16349.9579v.0231c0 1.4744-.00054 2.9488 0 4.4231.00005.1191.0001.2614-.01014.3867-.01186.1452-.0423.3532-.15335.5712-.14381.2822-.37328.5117-.65553.6555-.21794.1111-.42594.1415-.57115.1534-.12532.0102-.26758.0102-.38669.0101h-4.44633c-.11927.0001-.26184.0001-.38746-.0102-.14572-.012-.35413-.0426-.57241-.1542-.2826-.1445-.51267-.3756-.65586-.6589-.1103-.2182-.14022-.4261-.15159-.5721-.009763-.1255-.00906-.2677-.00847-.3861.00516-1.0393-.025827-2.1532.37958-3.1319.50747-1.2252 1.48084-2.1985 2.70598-2.706.5097-.2111 1.04798-.2987 1.65672-.3402l1.47984-.0404c.32926-.0001.65743.0104.95784.1635z"/><path d="m14.5731 2.91554c.2072-.51193.7902-.75894 1.3021-.55172 1.8306.74099 3.1248 2.53624 3.1248 4.63618s-1.2942 3.8952-3.1248 4.6362c-.5119.2072-1.0949-.0398-1.3021-.5517-.2073-.512.0398-1.09497.5517-1.3022 1.1013-.44578 1.8752-1.52486 1.8752-2.7823s-.7739-2.33652-1.8752-2.7823c-.5119-.20723-.759-.79022-.5517-1.30216z"/><path d="m4.50001 7c0-2.76142 2.23857-5 5-5 2.76139 0 4.99999 2.23858 4.99999 5s-2.2386 5-4.99999 5c-2.76143 0-5-2.23858-5-5z"/></g></svg>