<svg fill="none" height="48" viewBox="0 0 48 48" width="48" xmlns="http://www.w3.org/2000/svg"><g clip-rule="evenodd" fill="#e9371f" fill-rule="evenodd"><path d="m36.0632 29.7535c.2753-1.0697 1.3657-1.7137 2.4354-1.4383 4.3126 1.11 7.5015 5.0225 7.5015 9.6848v4c0 1.1046-.8955 2-2 2-1.1046 0-2-.8954-2-2v-4c0-2.793-1.9103-5.1449-4.4985-5.8111-1.0698-.2753-1.7137-1.3657-1.4384-2.4354z"/><path d="m29.1462 5.83109c.4144-1.02387 1.5804-1.5179 2.6043-1.10345 3.6611 1.48198 6.2496 5.07249 6.2496 9.27236 0 4.1999-2.5885 7.7904-6.2496 9.2724-1.0239.4144-2.1899-.0796-2.6043-1.1035-.4145-1.0239.0796-2.1898 1.1034-2.6043 2.2026-.8916 3.7505-3.0497 3.7505-5.5646s-1.5479-4.67303-3.7505-5.56461c-1.0238-.41445-1.5179-1.58044-1.1034-2.6043z"/><path d="m14.358 27.9999c3.0947.0011 6.1894.0011 9.2842 0 2.1812-.0007 3.6696-.0012 4.9461.3408 3.4509.9247 6.1464 3.6202 7.071 7.0711.4605 1.7186.3272 3.5554.3411 5.3164.0017.2138.0052.6462-.1025 1.0483-.2775 1.0352-1.0861 1.8439-2.1214 2.1213-.402.1077-.8344.1043-1.0482.1026-9.1501-.0731-18.3064-.0731-27.45641 0-.21382.0017-.64624.0051-1.04827-.1026-1.03528-.2774-1.84392-1.0861-2.12132-2.1213-.10773-.4021-.10428-.8345-.10258-1.0483.01401-1.7567-.11868-3.6005.3411-5.3164.92467-3.4509 3.62014-6.1464 7.07106-7.0711 1.27642-.342 2.76482-.3415 4.94612-.3408z"/><path d="m9.00007 14c0-5.52285 4.47713-10 10.00003-10 5.5228 0 10 4.47715 10 10 0 5.5228-4.4772 10-10 10-5.5229 0-10.00003-4.4772-10.00003-10z"/></g></svg>