<svg fill="none" height="24" viewBox="0 0 24 24" width="24" xmlns="http://www.w3.org/2000/svg"><g clip-rule="evenodd" fill="#801ed7" fill-rule="evenodd"><path d="m18.0316 14.8768c.1377-.5349.6828-.8569 1.2177-.7192 2.1563.555 3.7507 2.5112 3.7507 4.8424v2c0 .5523-.4477 1-1 1-.5522 0-1-.4477-1-1v-2c0-1.3965-.9551-2.5725-2.2492-2.9055-.5349-.1377-.8569-.6829-.7192-1.2177z"/><path d="m14.5731 2.91554c.2072-.51193.7902-.75894 1.3022-.55172 1.8305.74099 3.1247 2.53624 3.1247 4.63618s-1.2942 3.8952-3.1247 4.6362c-.512.2072-1.095-.0398-1.3022-.5517-.2072-.512.0398-1.09497.5517-1.3022 1.1013-.44578 1.8752-1.52486 1.8752-2.7823s-.7739-2.33652-1.8752-2.7823c-.5119-.20723-.7589-.79022-.5517-1.30216z"/><path d="m7.17898 14c1.54737.0005 3.09472.0005 4.64212 0 1.0906-.0004 1.8348-.0006 2.473.1704 1.7255.4623 3.0732 1.81 3.5356 3.5355.2302.8593.1636 1.7777.1705 2.6582.0009.1069.0026.3231-.0513.5241-.1387.5177-.543.922-1.0606 1.0607-.201.0539-.4173.0521-.5242.0513-4.575-.0365-9.15314-.0365-13.72815 0-.10691.0008-.32313.0026-.52414-.0513-.51764-.1387-.92196-.543-1.06066-1.0607-.053864-.201-.05214-.4172-.051288-.5241.006998-.8783-.059341-1.8002.170548-2.6582.46233-1.7255 1.81007-3.0732 3.53553-3.5355.63822-.171 1.38242-.1708 2.47304-.1704z"/><path d="m4.50004 7c0-2.76142 2.23857-5 5-5 2.76146 0 4.99996 2.23858 4.99996 5s-2.2385 5-4.99996 5c-2.76143 0-5-2.23858-5-5z"/></g></svg>