<svg fill="none" height="24" viewBox="0 0 24 24" width="24" xmlns="http://www.w3.org/2000/svg"><g clip-rule="evenodd" fill="#801ed7" fill-rule="evenodd"><path d="m3.41812 18.3031c1.97296-2.6111 5.08073-4.3031 8.58188-4.3031 3.5011 0 6.6089 1.692 8.5818 4.3031.0089.0118.0179.0237.0269.0355.1696.2244.3515.4649.4815.697.1573.2809.274.6058.2667 1.001-.0058.3176-.102.615-.2189.8498s-.2961.4908-.546.687c-.3334.2616-.6963.3542-1.0187.3928-.2828.0339-.618.0339-.955.0338-.0152 0-.0304 0-.0456 0h-13.14549c-.01519 0-.03038 0-.04556 0-.337.0001-.67219.0001-.95503-.0338-.32239-.0386-.6853-.1312-1.01862-.3928-.24995-.1962-.42917-.4522-.54605-.687s-.21312-.5322-.21893-.8498c-.00723-.3952.10938-.7201.26672-1.001.12998-.2321.31188-.4726.48151-.697.009-.0118.01795-.0237.02687-.0355z"/><path d="m6.49997 7.5c0-3.03757 2.46244-5.5 5.50003-5.5 3.0375 0 5.5 2.46243 5.5 5.5 0 3.0376-2.4625 5.5-5.5 5.5-3.03759 0-5.50003-2.4624-5.50003-5.5z"/></g></svg>