<svg fill="none" height="24" viewBox="0 0 24 24" width="24" xmlns="http://www.w3.org/2000/svg"><g fill="#801ed7"><path d="m20.8025 2.55706c-.2448-.49509-.8445-.69803-1.3396-.45328-.4951.24476-.698.84452-.4533 1.33961 1.2736 2.57629 1.9904 5.4809 1.9904 8.55681 0 3.076-.7168 5.9806-1.9904 8.5569-.2447.495-.0418 1.0948.4533 1.3396.4951.2447 1.0948.0418 1.3396-.4533 1.407-2.846 2.1975-6.0533 2.1975-9.4432 0-3.38983-.7906-6.59712-2.1975-9.44314z"/><path d="m4.99037 3.44339c.24475-.49509.04181-1.09485-.45328-1.33961-.49509-.24475-1.09485-.04181-1.3396.45328-1.40697 2.84602-2.19749 6.05331-2.19749 9.44314 0 3.3899.79052 6.5972 2.19749 9.4432.24475.4951.84451.698 1.3396.4533.49509-.2448.69803-.8446.45328-1.3396-1.27363-2.5763-1.99037-5.4809-1.99037-8.5569 0-3.07591.71674-5.98052 1.99037-8.55681z"/><path d="m13.9986 8.76189c.6146-.72074 1.5131-1.13689 2.4604-1.13689h.0896c.5523 0 1 .44772 1 1s-.4477 1-1 1h-.0896c-.3596 0-.7026.15789-.9385.4345l-2.3401 2.7444.7409 2.6068c.0159.0559.0646.0893.1142.0893h1.3941c.5523 0 1 .4477 1 1s-.4477 1-1 1h-1.3941c-.9497 0-1.7793-.6326-2.038-1.5425l-.3765-1.3247-1.4753 1.7303c-.6146.7208-1.51313 1.1369-2.46038 1.1369h-.08968c-.55228 0-1-.4477-1-1s.44772-1 1-1h.08968c.35955 0 .70257-.1579.93847-.4345l2.34021-2.7446-.7409-2.60657c-.0159-.05594-.0645-.08933-.1142-.08933h-1.39406c-.55228 0-1-.44772-1-1s.44772-1 1-1h1.39406c.9497 0 1.7794.63256 2.038 1.54254l.3765 1.32456z"/></g></svg>