<svg fill="none" height="24" viewBox="0 0 24 24" width="24" xmlns="http://www.w3.org/2000/svg"><g fill="#801ed7"><path d="m21.5351 17.2924c.424-.0098.827-.1993 1.1055-.5254.2792-.3269.3236-.7202.3405-.9111.019-.2139.0189-.4797.0189-.75v-6.21183c0-.27036.0001-.53616-.0189-.75011-.0169-.19089-.0613-.58415-.3405-.91109-.3118-.36512-.7796-.55888-1.2583-.52121-.4286.03374-.7381.28045-.885.40346-.1647.13788-.3526.3258-.5437.517l-1.9536 1.95361c-.0002-.72774-.0032-1.33562-.0442-1.83755-.0459-.5621-.1445-1.0788-.3918-1.56414-.3835-.75265-.9954-1.36457-1.748-1.74806-.4854-.2473-1.0021-.34586-1.5642-.39179-.5412-.04421-1.2055-.0442-2.0105-.04419h-3.99866z"/><path d="m2.70711 1.29289c-.39053-.390521-1.02369-.390521-1.41422 0-.39052.39053-.39052 1.02369 0 1.41422l1.78498 1.78498c-.70403.38575-1.2766.975-1.64189 1.69194-.24729.48534-.34586 1.00204-.39178 1.56414-.044221.54118-.044211 1.20553-.0442 2.01048v4.48265c-.000011.8049-.000021 1.4693.0442 2.0105.04592.5621.14449 1.0788.39178 1.5642.38349.7526.99541 1.3645 1.74806 1.748.48534.2473 1.00204.3459 1.56414.3918.54118.0442 1.20553.0442 2.01048.0442h5.48264c.8049 0 1.4693 0 2.0105-.0442.5621-.0459 1.0788-.1445 1.5642-.3918.501-.2553.9397-.6118 1.2901-1.0437l4.1868 4.1868c.3905.3905 1.0237.3905 1.4142 0s.3905-1.0237 0-1.4142z"/></g></svg>