<svg fill="none" height="24" viewBox="0 0 24 24" width="24" xmlns="http://www.w3.org/2000/svg"><path d="m11 3.05484c-.2958.03266-.587.07962-.8731.14014-.54031.11431-1.071-.23104-1.18531-.77136-.11431-.54033.23104-1.07102.77136-1.18533.73865-.15627 1.50385-.23829 2.28705-.23829s1.5484.08202 2.287.23829c.5404.11431.8857.645.7714 1.18533-.1143.54032-.645.88567-1.1853.77136-.2861-.06052-.5773-.10748-.8731-.14014v4.04518c.6384.12958 1.2325.38077 1.7573.72834l2.8604-2.86033c-.2299-.18389-.469-.35676-.7164-.51777-.4629-.30121-.594-.92066-.2928-1.38357.3012-.46292.9206-.59401 1.3836-.2928 1.2913.84024 2.3949 1.94407 3.235 3.23555.3011.46297.1699 1.08239-.293 1.38353-.463.30113-1.0824.16994-1.3836-.29302-.1612-.24793-.3344-.48744-.5186-.71771l-2.8603 2.86032c.3476.52481.5988 1.11904.7284 1.75744h4.0452c-.0327-.2958-.0797-.5871-.1402-.8732-.1143-.54034.231-1.07104.7713-1.18536.5404-.11432 1.0711.23102 1.1854.77134.1563.73872.2383 1.50392.2383 2.28722 0 .783-.082 1.5479-.2381 2.2863-.1143.5404-.645.8858-1.1853.7715s-.8857-.645-.7715-1.1853c.0605-.2859.1074-.5769.1401-.8725h-4.0452c-.1296.6384-.3808 1.2325-.7284 1.7573l2.8604 2.8604c.1832-.2291.3555-.4673.516-.7138.3014-.4628.9209-.5937 1.3837-.2923.4628.3013.5937.9208.2923 1.3836-.8401 1.2903-1.9435 2.393-3.2344 3.2325-.4629.3011-1.0824.1698-1.3834-.2932-.3011-.463-.1699-1.0824.2931-1.3835.2482-.1614.488-.3347.7185-.5191l-2.8604-2.8603c-.5248.3476-1.119.5988-1.7574.7284v4.0452c.2948-.0326.5852-.0794.8704-.1396.5403-.1142 1.0709.2314 1.1851.7717.1141.5404-.2314 1.071-.7718 1.1851-.7376.1558-1.5016.2376-2.2837.2376-.785 0-1.5518-.0824-2.29196-.2393-.54027-.1146-.88538-.6454-.77082-1.1857s.64541-.8854 1.18568-.7708c.2873.0609.5799.1082.8771.141v-4.0452c-.6384-.1296-1.23263-.3808-1.75744-.7284l-2.86032 2.8603c.23.184.46922.357.71684.5181.46293.3012.59405.9206.29286 1.3835-.30118.463-.92062.5941-1.38355.2929-1.28952-.839-2.39189-1.9408-3.23154-3.2298-.30144-.4628-.17065-1.0823.29212-1.3837.46276-.3015 1.08228-.1707 1.38371.2921.16033.2461.33238.484.51535.7127l2.86033-2.8604c-.34757-.5248-.59876-1.1189-.72834-1.7573h-4.04518c.03266.2958.07963.5871.14017.8732.11432.5403-.23102 1.071-.77135 1.1854-.54032.1143-1.07101-.2311-1.18534-.7714-.15629-.7387-.23832-1.5039-.23832-2.2872 0-.7844.08227-1.5508.23901-2.29046.11449-.54029.64529-.88547 1.18557-.77099.54029.11449.88547.64529.77099 1.18555-.06081.287-.10797.5792-.14073.8759h4.04518c.12959-.6384.3808-1.23263.72841-1.75744l-2.86032-2.86032c-.18404.23004-.35703.4693-.51816.71696-.30118.46294-.92062.59407-1.38355.29289-.46294-.30118-.59407-.92062-.29289-1.38356.83983-1.29088 1.94305-2.39424 3.23382-3.23424.4629-.30124 1.08235-.17019 1.38359.29271.30124.46289.1702 1.08235-.2927 1.38359-.24728.16092-.48617.33367-.71588.51744l2.86032 2.86033c.5248-.34757 1.11894-.59876 1.75734-.72834z" fill="#801ed7"/></svg>