<svg fill="none" height="24" viewBox="0 0 24 24" width="24" xmlns="http://www.w3.org/2000/svg"><g clip-rule="evenodd" fill="#801ed7" fill-rule="evenodd"><path d="m19.1639 4.18816c.4484-.32252 1.0733-.22053 1.3958.2278 1.5356 2.1347 2.4403 4.75517 2.4403 7.58394 0 2.8288-.9047 5.4493-2.4403 7.584-.3225.4483-.9474.5503-1.3958.2278-.4483-.3225-.5503-.9474-.2278-1.3957 1.2991-1.8058 2.0639-4.0201 2.0639-6.4161 0-2.39589-.7648-4.61022-2.0639-6.416-.3225-.44833-.2205-1.07323.2278-1.39574z"/><path d="m15.1732 7.17975c.453-.31596 1.0763-.20489 1.3923.24808.9041 1.29621 1.4345 2.87367 1.4345 4.57207s-.5304 3.2759-1.4345 4.5721c-.316.453-.9393.5641-1.3923.2481-.453-.3159-.564-.9393-.2481-1.3923.6776-.9714 1.0749-2.1518 1.0749-3.4279s-.3973-2.45641-1.0749-3.42787c-.3159-.45298-.2049-1.07632.2481-1.39228z"/><path d="m10.3823 2.71166c.4787-.03767.9465.15609 1.2583.52121.2793.32694.3236.7202.3405.91109.019.21397.0189.47973.0189.75011v.03723 14.1745c0 .2704.0001.5361-.0189.7501-.0169.1909-.0612.5842-.3405.9111-.3118.3651-.7796.5589-1.2583.5212-.42862-.0337-.73806-.2804-.885-.4035-.16471-.1379-.35261-.3258-.54377-.517l-3.192-3.192c-.09263-.0927-.13903-.1387-.17415-.1708l-.00266-.0024-.00358-.0002c-.04749-.0021-.11288-.0024-.24388-.0024h-1.76914c-.25238.0001-.49818.0001-.70634-.0169-.2286-.0187-.49833-.0628-.76976-.2011-.37632-.1917-.68228-.4977-.87403-.874-.1383-.2714-.18236-.5411-.20104-.7697-.017007-.2082-.016977-.454-.01695-.7064l.00001-4.83187c0-.01064-.00001-.02127-.00001-.03189-.000027-.25239-.000057-.49818.01695-.70634.01868-.22859.06274-.49832.20104-.76975.19175-.37632.49771-.68228.87403-.87403.27143-.1383.54116-.18237.76976-.20104.20815-.01701.45394-.01698.70633-.01695h.0319 1.73725c.131 0 .19639-.00024.24388-.00241l.00358-.00017.00266-.00241c.03512-.03205.08152-.07811.17415-.17074l3.16568-3.16569c.00879-.00878.01756-.01756.02633-.02633.19116-.19122.37905-.37917.54376-.51706.14694-.12302.45638-.36972.885-.40346z"/></g></svg>