<svg fill="none" height="24" viewBox="0 0 24 24" width="24" xmlns="http://www.w3.org/2000/svg"><g fill="#801ed7"><path clip-rule="evenodd" d="m11.6406 3.23287c-.3118-.36512-.7796-.55888-1.2583-.52121-.42862.03374-.73806.28044-.885.40346-.16471.13789-.3526.32584-.54376.51706l-3.19201 3.19202c-.09263.09263-.13903.13869-.17415.17074l-.00266.00241-.00358.00017c-.04749.00217-.11288.00241-.24388.00241h-1.76915c-.25238-.00003-.49818-.00006-.70633.01695-.2286.01867-.49833.06274-.76976.20104-.37632.19175-.68228.49771-.87403.87403-.1383.27143-.18236.54116-.20104.76975-.017007.20816-.016977.45394-.01695.70632v4.86378c-.000027.2524-.000057.4982.01695.7064.01868.2286.06274.4983.20104.7697.19175.3763.49771.6823.87403.874.27143.1383.54116.1824.76976.2011.20816.017.45396.017.70634.0169h1.76914c.131 0 .19639.0003.24388.0024l.00358.0002.00266.0024c.03512.0321.08152.0781.17415.1708l3.192 3.192c.19115.1912.37907.3792.54377.517.14694.1231.45638.3698.885.4035.4787.0377.9465-.1561 1.2583-.5212.2793-.3269.3236-.7202.3405-.9111.019-.214.0189-.4797.0189-.7501v-14.21173c0-.27038.0001-.53614-.0189-.75011-.0169-.19089-.0612-.58415-.3405-.91109z" fill-rule="evenodd"/><path d="m22.7071 8.29289c.3905.39053.3905 1.02369 0 1.41422l-2.2929 2.29289 2.2929 2.2929c.3905.3905.3905 1.0237 0 1.4142s-1.0237.3905-1.4142 0l-2.2929-2.2929-2.2929 2.2929c-.3905.3905-1.0237.3905-1.4142 0s-.3905-1.0237 0-1.4142l2.2929-2.2929-2.2929-2.29289c-.3905-.39053-.3905-1.02369 0-1.41422.3905-.39052 1.0237-.39052 1.4142 0l2.2929 2.29291 2.2929-2.29291c.3905-.39052 1.0237-.39052 1.4142 0z"/></g></svg>