<svg fill="none" height="24" viewBox="0 0 24 24" width="24" xmlns="http://www.w3.org/2000/svg"><g fill="#801ed7"><path d="m5.16146 3h13.67704c.5272-.00001.982-.00003 1.3565.03057.3954.03231.7886.10362 1.167.29642.5645.28762 1.0234.74656 1.311 1.31104.1928.37838.2641.7716.2964 1.16695.0026.03184.005.06371.0073.09558.0362.52028.0544.78042-.0486 1.00948-.0866.19261-.2534.37151-.4396.47129-.2213.11867-.5104.11867-1.0885.11867h-18.8c-.57813 0-.86719 0-1.08854-.11867-.18612-.09978-.35297-.27868-.43956-.47129-.102988-.22906-.084846-.4892-.04856-1.00948.00222-.03188.00463-.06374.00723-.09558.0323-.39535.10362-.78857.29641-1.16695.28762-.56448.74656-1.02343 1.31105-1.31105.37838-.19279.7716-.26411 1.16694-.29641.37455-.0306.82937-.03059 1.35649-.03057z"/><path d="m1.8 9.5c-.28003 0-.42004 0-.527.0545-.09408.04793-.17057.12442-.21851.21851-.054494.10695-.054494.24699-.054494.52699v.4c0 .28 0 .42.054494.527.04794.0941.12443.1706.21851.2185.10696.0545.24697.0545.527.0545h3.82104c.4684-.0002.82262-.0003 1.17258.0621.30909.0551.61062.1464.89836.272.32578.1422.6204.3388 1.01002.5987l.64346.429c.47811.3187.61926.4085.76274.4712.1438.0628.2946.1084.4491.136.1541.0274.3214.031.896.031h1.0934c.5746 0 .7418-.0036.8959-.031.1546-.0276.3054-.0732.4492-.136.1435-.0627.2846-.1525.7627-.4712l.6434-.429c.3897-.2599.6843-.4565 1.0101-.5987.2878-.1256.5893-.2169.8984-.272.3499-.0624.7041-.0623 1.1725-.0621h3.8211c.28 0 .42 0 .527-.0545.0941-.0479.1706-.1244.2185-.2185.0545-.107.0545-.247.0545-.527v-.4c0-.28 0-.42004-.0545-.52699-.0479-.09409-.1244-.17058-.2185-.21851-.107-.0545-.247-.0545-.527-.0545z"/><path d="m23 15.1c0-.5601 0-.8401-.109-1.054-.0959-.1882-.2489-.3411-.437-.437-.2139-.109-.4939-.109-1.054-.109h-2.9467c-.5746 0-.7419.0036-.896.031-.1545.0276-.3053.0732-.4491.136-.1435.0627-.2846.1525-.7627.4712l-.6434.429c-.3897.2599-.6843.4565-1.0101.5987-.2878.1256-.5893.2169-.8984.272-.3499.0624-.7041.0623-1.1725.0621h-1.2421c-.4685.0002-.8227.0003-1.1726-.0621-.30912-.0551-.61065-.1464-.89839-.272-.32578-.1422-.62041-.3388-1.01005-.5987l-.64343-.429c-.4781-.3187-.61925-.4085-.76271-.4712-.14387-.0628-.29463-.1084-.44918-.136-.15409-.0274-.32135-.031-.89597-.031h-2.94667c-.56006 0-.84008 0-1.05399.109-.18817.0959-.34115.2488-.43702.437-.108994.2139-.108994.4939-.108994 1.054v1.7385c-.000016.5272-.00003.982.030574 1.3565.0323.3954.10361.7886.29641 1.167.28762.5645.74656 1.0234 1.31105 1.311.37838.1928.7716.2641 1.16694.2964.37457.0306.82932.0306 1.35646.0306h13.67717c.5271 0 .9819 0 1.3564-.0306.3954-.0323.7886-.1036 1.167-.2964.5645-.2876 1.0234-.7465 1.311-1.311.1928-.3784.2641-.7716.2964-1.167.0306-.3745.0306-.8293.0306-1.3564z"/></g></svg>