<svg fill="none" height="24" viewBox="0 0 24 24" width="24" xmlns="http://www.w3.org/2000/svg"><path clip-rule="evenodd" d="m1.99999 14.9998.00001.0056v2.8332c-.00002.5271-.00003.9819.03057 1.3564.0323.3954.10362.7886.29641 1.167.28762.5645.74656 1.0234 1.31105 1.311.37838.1928.7716.2641 1.16694.2964.37456.0306.82934.0306 1.35647.0306h11.67716c.5271 0 .9819 0 1.3564-.0306.3954-.0323.7886-.1036 1.167-.2964.5645-.2876 1.0234-.7465 1.311-1.311.1928-.3784.2641-.7716.2964-1.167.0306-.3745.0306-.8293.0306-1.3564v-6.6772c0-.5271 0-.9819-.0306-1.35642-.0323-.39535-.1036-.78857-.2964-1.16695-.2876-.56448-.7465-1.02343-1.311-1.31105-.3784-.19279-.7716-.26411-1.167-.29641-.3745-.0306-.8293-.03059-1.3565-.03057h-.8385v-2.54016c0-.38086 0-.73202-.0261-1.01798-.027-.29635-.0914-.67021-.3243-1.01005-.3062-.44658-.7803-.74995-1.3141-.84078-.4062-.06912-.7726.02913-1.053.12875-.2706.09613-.5894.24331-.9352.40295l-9.02432 4.16493c-.5568.25607-1.04628.48118-1.41984.84626-.32707.31965-.57673.70985-.7299 1.14077-.17494.49216-.1742 1.03092-.17337 1.64379zm12.95201-11.39542c-.1738.06174-.4083.16888-.8035.35128l-6.59604 3.04434h7.44754v-2.49957c0-.43525-.001-.69306-.0178-.87673l-.0028-.02879zm1.548 9.39562c-.8284 0-1.5.6716-1.5 1.5s.6716 1.5 1.5 1.5 1.5-.6716 1.5-1.5-.6716-1.5-1.5-1.5z" fill="#801ed7" fill-rule="evenodd"/></svg>