<svg fill="none" height="24" viewBox="0 0 24 24" width="24" xmlns="http://www.w3.org/2000/svg"><g fill="#801ed7"><path clip-rule="evenodd" d="m5.67016 5.50183c-.17229.00241-.33375.008-.47816.02087-.27157.02421-.60416.08169-.91971.27722-.424.26272-.73452.67439-.87065 1.15424-.10131.35712-.06522.69271-.01389.96049.05636.29398.08453.44098.17024.58827.11179.19213.32338.36702.53313.44064.16079.05644.34256.05644.70609.05644h14.40559c.3635 0 .5453 0 .706-.05644.2098-.07362.4214-.24851.5332-.44064.0857-.1473.1139-.29429.1702-.58827.0513-.26778.0874-.60337-.0139-.96049-.1361-.47985-.4466-.89152-.8706-1.15424-.3156-.19553-.6482-.25301-.9197-.27722-.1444-.01287-.3059-.01845-.4782-.02087.1118-.31921.1702-.65779.1702-1.00183 0-.78989-.308-1.55098-.8619-2.11492-.5544-.56455-1.3103-.88508-2.1024-.88508-1.7947 0-2.9082 1.21846-3.5357 2.27224-.6275-1.05378-1.741-2.27224-3.53571-2.27224-.79206 0-1.54795.32053-2.10241.88508-.55387.56394-.86188 1.32503-.86188 2.11492 0 .34404.05843.68262.17016 1.00183zm2.11861-1.71534c.18229-.18559.42565-.28649.67552-.28649.80968 0 1.43339.57581 1.91931 1.47527.095.17589.1783.35338.2507.52473h-2.17001c-.24987 0-.49323-.1009-.67552-.28649-.18288-.18621-.28877-.44254-.28877-.71351s.10589-.5273.28877-.71351zm5.57703 1.71351c.0723-.17135.1556-.34884.2507-.52473.4858-.89946 1.1095-1.47527 1.9192-1.47527.2499 0 .4933.1009.6755.28649.1829.18621.2888.44254.2888.71351s-.1059.5273-.2888.71351c-.1822.18559-.4256.28649-.6755.28649z" fill-rule="evenodd"/><path d="m21.2323 11.7768c-.1699-.2833-.2549-.4249-.3719-.5278-.1036-.091-.2248-.1597-.3561-.2016-.1484-.0474-.3136-.0474-.644-.0474h-15.72059c-.33034 0-.49551 0-.64392.0474-.13134.0419-.25258.1106-.35612.2016-.117.1029-.20198.2445-.37194.5278l-.54763.9127c-.36151.6018-.63456 1.0563-.77995 1.5586-.12818.4428-.17885.9044-.14978 1.3644.03297.5219.20092 1.0248.42327 1.6907l.2999.8999c.3373 1.0145.59117 1.778 1.0803 2.3629.42959.5137.98126.9114 1.60444 1.1564.70957.2791 1.51421.2785 2.58331.2777h9.43691c1.069.0008 1.8737.0014 2.5833-.2776.6232-.2451 1.1748-.6428 1.6044-1.1565.4891-.5849.743-1.3484 1.0803-2.3629l.2999-.8999c.2224-.6659.3903-1.1688.4233-1.6907.0291-.46-.0216-.9216-.1498-1.3644-.1454-.5022-.4184-.9568-.7799-1.5585z"/></g></svg>