<svg fill="none" height="24" viewBox="0 0 24 24" width="24" xmlns="http://www.w3.org/2000/svg"><path clip-rule="evenodd" d="m16.8385 3h-11.67704c-.52714-.00002-.98192-.00003-1.35648.03057-.39535.0323-.78857.10362-1.16695.29641-.56448.28762-1.02343.74656-1.31105 1.31105-.19279.37838-.26411.7716-.29641 1.16694-.030601.37456-.030586.82931-.03057 1.35644v9.67709c-.000016.5272-.000031.982.03057 1.3565.0323.3954.10362.7886.29641 1.167.28762.5645.74656 1.0234 1.31105 1.311.37838.1928.7716.2641 1.16694.2964.37457.0306.82933.0306 1.35647.0306h11.67716c.5271 0 .9819 0 1.3564-.0306.3954-.0323.7886-.1036 1.167-.2964.5645-.2876 1.0234-.7465 1.311-1.311.1928-.3784.2641-.7716.2964-1.167.0306-.3745.0306-.8293.0306-1.3564v-1.51c.9878-.3489 1.7339-1.1954 1.9424-2.2432.0582-.2929.058-.6207.0577-1.0014l-.0001-.0839.0001-.0839c.0003-.3807.0005-.7085-.0577-1.0014-.2085-1.04786-.9546-1.89434-1.9424-2.24325v-1.51011c0-.52714 0-.9819-.0306-1.35646-.0323-.39535-.1036-.78857-.2964-1.16695-.2876-.56448-.7465-1.02343-1.311-1.31105-.3784-.19279-.7716-.26411-1.167-.29641-.3745-.0306-.8293-.03058-1.3565-.03057zm-.0336 7.5193c.0723-.0144.1825-.0192.6951-.0192h2c.5126 0 .6229.0048.6951.0192.3967.0789.7068.389.7857.7857.0144.0722.0192.1825.0192.6951s-.0048.6228-.0192.6951c-.0789.3967-.389.7068-.7857.7857-.0722.0143-.1825.0192-.6951.0192h-2c-.5126 0-.6228-.0049-.6951-.0192-.3967-.0789-.7068-.389-.7857-.7857-.0143-.0723-.0192-.1825-.0192-.6951s.0049-.6229.0192-.6951c.0789-.3967.389-.7068.7857-.7857z" fill="#801ed7" fill-rule="evenodd"/></svg>