<svg fill="none" height="24" viewBox="0 0 24 24" width="24" xmlns="http://www.w3.org/2000/svg"><path clip-rule="evenodd" d="m10.4138.999819-.1518-.000155c-.71229-.001102-1.33696-.002067-1.8877.222866-.4813.19658-.90325.51486-1.22449.92364-.36758.46775-.53826 1.06865-.73287 1.7538l-.04156.14602-.22075.77262-.0166.00837c-.56448.28762-1.02343.74656-1.31105 1.31105-.19279.37838-.26411.7716-.29641 1.16694-.0306.37456-.03059.82934-.03057 1.35646v6.67717c-.00002.5271-.00003.9819.03057 1.3564.0323.3954.10362.7886.29641 1.167.28762.5645.74657 1.0234 1.31105 1.311l.01674.0085.22061.7721.04156.146c.19461.6852.36529 1.2861.73287 1.7538.32124.4088.74319.7271 1.22449.9237.55074.2249 1.17541.2239 1.8877.2228l.1518-.0001h3.1725l.1518.0001c.7122.0011 1.3369.0021 1.8876-.2228.4813-.1966.9033-.5149 1.2245-.9237.3676-.4677.5383-1.0686.7329-1.7538l.0416-.146.2206-.7721.0167-.0085c.5645-.2876 1.0234-.7465 1.311-1.311.1928-.3784.2641-.7716.2964-1.167.0306-.3745.0306-.8293.0306-1.3565v-6.67705c0-.52715 0-.98191-.0306-1.35648-.0323-.39534-.1036-.78856-.2964-1.16694-.2876-.56449-.7465-1.02343-1.311-1.31105l-.0166-.00836-.2207-.77263-.0416-.14602c-.1946-.68515-.3653-1.28605-.7329-1.7538-.3212-.40878-.7432-.72706-1.2245-.92364-.5507-.224933-1.1754-.223968-1.8876-.222866l-.1518.000155zm-1.75247 3.500181c-.11538 0-.22729-.00001-.33565.00031.24003-.83552.30814-1.00572.39667-1.11837.10708-.13626.24773-.24236.40816-.30788.13753-.05617.32851-.07424 1.28329-.07424h3.1725c.9547 0 1.1457.01807 1.2832.07424.1605.06552.3011.17162.4082.30788.0885.11265.1566.28284.3967 1.11837-.1084-.00032-.2203-.00031-.3357-.00031zm.06102 16.1177c-.08851-.1127-.15662-.2828-.39656-1.118.1083.0003.22027.0003.33557.0003h6.67724c.1154 0 .2273 0 .3356-.0003-.2399.8352-.308 1.0053-.3965 1.118-.1071.1362-.2477.2423-.4082.3078-.1375.0562-.3285.0743-1.2832.0743h-3.1725c-.95478 0-1.14576-.0181-1.28329-.0743-.16043-.0655-.30108-.1716-.40816-.3078zm4.27765-11.6177c0-.55228-.4477-1-1-1s-1 .44772-1 1v3c0 .2652.1054.5196.2929.7071l1.5 1.5c.3905.3905 1.0237.3905 1.4142 0s.3905-1.0237 0-1.4142l-1.2071-1.2071z" fill="#801ed7" fill-rule="evenodd"/></svg>