<svg fill="none" height="24" viewBox="0 0 24 24" width="24" xmlns="http://www.w3.org/2000/svg"><path clip-rule="evenodd" d="m13.4105 1h-2.8211c-.4382-.000013-.82047-.000026-1.13936.02368-.33967.02524-.67662.08087-1.01187.22738-.50657.22139-.94212.57846-1.25856 1.03178-.20942.3-.33004.6195-.42142.94762-.08578.30807-.16072.68283-.24666 1.11261l-.46192 2.30959c-1.27424 1.41702-2.04961 3.29163-2.04961 5.34734 0 2.0557.77535 3.9303 2.04956 5.3473l.46197 2.3098c.08594.4298.16088.8046.24666 1.1126.09138.3282.212.6477.42142.9477.31644.4533.75199.8103 1.25856 1.0317.33525.1465.6722.2022 1.01187.2274.31891.0237.70106.0237 1.13936.0237h2.8211c.4383 0 .8204 0 1.1394-.0237.3396-.0252.6766-.0809 1.0118-.2274.5066-.2214.9421-.5784 1.2586-1.0317.2094-.3.33-.6195.4214-.9477.0858-.308.1607-.6827.2466-1.1124l.462-2.3099c1.2743-1.417 2.0497-3.2916 2.0497-5.3474 0-2.05578-.7754-3.93045-2.0497-5.34748l-.462-2.30965c-.0859-.42968-.1608-.8044-.2466-1.11241-.0914-.32812-.212-.64762-.4214-.94762-.3165-.45332-.752-.81039-1.2586-1.03178-.3352-.14651-.6722-.20214-1.0118-.22738-.3189-.023706-.7012-.023693-1.1394-.02368zm-1.4105 3c-1.2732 0-2.47698.29744-3.54557.82662l.01161-.05807c.09453-.47261.1554-.77371.21885-1.00157.06007-.21572.10487-.29665.13468-.33937.10548-.1511.25067-.27012.41953-.34392.04772-.02086.13588-.04892.35918-.06552.23589-.01753.54302-.01817 1.02502-.01817h2.7533c.4819 0 .7891.00064 1.025.01817.2233.0166.3115.04466.3592.06552.1689.0738.314.19282.4195.34392.0298.04272.0746.12365.1347.33937.0635.22786.1243.52895.2189 1.00157l.0116.05802c-1.0686-.52915-2.2723-.82657-3.5455-.82657zm-3.53396 15.2316-.01165-.0582c1.0686.5292 2.27241.8266 3.54561.8266s2.4769-.2974 3.5455-.8266l-.0116.0582c-.0946.4727-.1554.7738-.2189 1.0016-.0601.2157-.1049.2967-.1347.3394-.1055.1511-.2506.2701-.4195.3439-.0477.0209-.1359.0489-.3592.0655-.2359.0176-.5431.0182-1.025.0182h-2.7533c-.482 0-.78913-.0006-1.02502-.0182-.2233-.0166-.31146-.0446-.35918-.0655-.16886-.0738-.31405-.1928-.41953-.3439-.02981-.0427-.07461-.1237-.13468-.3394-.06345-.2278-.12432-.5289-.21885-1.0016zm4.53396-10.2316c0-.55228-.4477-1-1-1s-1 .44772-1 1v3c0 .2652.1054.5196.2929.7071l1.5 1.5c.3905.3905 1.0237.3905 1.4142 0s.3905-1.0237 0-1.4142l-1.2071-1.2071z" fill="#801ed7" fill-rule="evenodd"/></svg>