<svg fill="none" height="24" viewBox="0 0 24 24" width="24" xmlns="http://www.w3.org/2000/svg"><g clip-rule="evenodd" fill="#801ed7" fill-rule="evenodd"><path d="m6.41713 7.58902c-.52983.25432-1.14699.41098-1.9171.41098-.78879 0-1.41431-.15407-1.94807-.41234-.49893-.24142-.8794-.55868-1.16717-.79864-.00839-.007-.01671-.01393-.02495-.0208-.424276-.35356-.4816-.98413-.12804-1.4084.35357-.42428.98413-.48161 1.40841-.12804.30938.25782.52137.42902.78288.55556.24124.11673.56572.21266 1.07694.21266.47988 0 .80022-.09334 1.05164-.21402.27272-.13091.50114-.30883.82366-.56685.00837-.0067.01681-.01345.02533-.02027.29919-.23948.68781-.55055 1.18226-.78788.52983-.25432 1.14699-.41098 1.9171-.41098.78878 0 1.41428.15407 1.94808.41234.4989.24142.8794.55868 1.1672.79864.0084.007.0167.01393.0249.0208.3094.25782.5214.42902.7829.55556.2412.11673.5657.21266 1.0769.21266.4799 0 .8002-.09334 1.0517-.21402.2727-.13091.5011-.30883.8236-.56685.0084-.0067.0168-.01345.0254-.02027.2991-.23948.6878-.55055 1.1822-.78788.5298-.25432 1.147-.41098 1.9171-.41098.7888 0 1.4143.15407 1.9481.41234.4989.24142.8794.55868 1.1672.79863l.0249.02081c.4243.35356.4816.98413.128 1.4084-.3535.42428-.9841.48161-1.4084.12804-.3093-.25782-.5213-.42902-.7828-.55556-.2413-.11673-.5658-.21266-1.077-.21266-.4799 0-.8002.09334-1.0516.21402-.2727.13091-.5012.30883-.8237.56685l-.0253.02027c-.2992.23948-.6878.55055-1.1823.78788-.5298.25432-1.147.41098-1.9171.41098-.7888 0-1.4143-.15407-1.948-.41234-.499-.24142-.8794-.55868-1.1672-.79864-.0084-.007-.0167-.01393-.025-.0208-.3093-.25782-.5213-.42902-.7828-.55556-.2413-.11673-.5658-.21266-1.07698-.21266-.47988 0-.80022.09334-1.05164.21402-.27272.13091-.50114.30883-.82366.56685-.00837.0067-.01681.01345-.02533.02027-.29918.23948-.68781.55055-1.18226.78788z"/><path d="m6.41713 19.589c-.52983.2543-1.14699.411-1.9171.411-.78879 0-1.41431-.1541-1.94807-.4123-.49893-.2415-.8794-.5587-1.16717-.7987-.00839-.007-.01671-.0139-.02495-.0208-.424276-.3535-.4816-.9841-.12804-1.4084.35357-.4243.98413-.4816 1.40841-.128.30938.2578.52137.429.78288.5555.24124.1168.56572.2127 1.07694.2127.47988 0 .80022-.0933 1.05164-.214.27272-.1309.50114-.3089.82366-.5669.00837-.0067.01681-.0134.02533-.0202.29919-.2395.68781-.5506 1.18226-.7879.52983-.2543 1.14699-.411 1.9171-.411.78878 0 1.41428.1541 1.94808.4123.4989.2415.8794.5587 1.1672.7987.0084.007.0167.0139.0249.0208.3094.2578.5214.429.7829.5555.2412.1168.5657.2127 1.0769.2127.4799 0 .8002-.0933 1.0517-.214.2727-.1309.5011-.3089.8236-.5669.0084-.0067.0168-.0134.0254-.0202.2991-.2395.6878-.5506 1.1822-.7879.5298-.2543 1.147-.411 1.9171-.411.7888 0 1.4143.1541 1.9481.4123.4989.2415.8794.5587 1.1672.7987l.0249.0208c.4243.3535.4816.9841.128 1.4084-.3535.4243-.9841.4816-1.4084.128-.3093-.2578-.5213-.429-.7828-.5555-.2413-.1168-.5658-.2127-1.077-.2127-.4799 0-.8002.0933-1.0516.214-.2727.1309-.5012.3089-.8237.5669l-.0253.0202c-.2992.2395-.6878.5506-1.1823.7879-.5298.2543-1.147.411-1.9171.411-.7888 0-1.4143-.1541-1.948-.4123-.499-.2415-.8794-.5587-1.1672-.7987-.0084-.007-.0167-.0139-.025-.0208-.3093-.2578-.5213-.429-.7828-.5555-.2413-.1168-.5658-.2127-1.07698-.2127-.47988 0-.80022.0933-1.05164.214-.27272.1309-.50114.3089-.82366.5669-.00837.0067-.01681.0134-.02533.0202-.29918.2395-.68781.5506-1.18226.7879z"/><path d="m6.41713 13.589c-.52983.2543-1.14699.411-1.9171.411-.78879 0-1.41431-.1541-1.94807-.4123-.49893-.2415-.8794-.5587-1.16717-.7987-.00839-.007-.01671-.0139-.02495-.0208-.424276-.3535-.4816-.9841-.12804-1.4084.35357-.4243.98413-.4816 1.40841-.128.30938.2578.52137.429.78288.5555.24124.1168.56572.2127 1.07694.2127.47988 0 .80022-.0933 1.05164-.214.27272-.1309.50114-.3089.82366-.5669.00837-.0067.01681-.0134.02533-.0202.29919-.2395.68781-.5506 1.18226-.7879.52983-.2543 1.14699-.411 1.9171-.411.78878 0 1.41428.1541 1.94808.4123.4989.2415.8794.5587 1.1672.7987.0084.007.0167.0139.0249.0208.3094.2578.5214.429.7829.5555.2412.1168.5657.2127 1.0769.2127.4799 0 .8002-.0933 1.0517-.214.2727-.1309.5011-.3089.8236-.5669.0084-.0067.0168-.0134.0254-.0202.2991-.2395.6878-.5506 1.1822-.7879.5298-.2543 1.147-.411 1.9171-.411.7888 0 1.4143.1541 1.9481.4123.4989.2415.8794.5587 1.1672.7987l.0249.0208c.4243.3535.4816.9841.128 1.4084-.3535.4243-.9841.4816-1.4084.128-.3093-.2578-.5213-.429-.7828-.5555-.2413-.1168-.5658-.2127-1.077-.2127-.4799 0-.8002.0933-1.0516.214-.2727.1309-.5012.3089-.8237.5669l-.0253.0202c-.2992.2395-.6878.5506-1.1823.7879-.5298.2543-1.147.411-1.9171.411-.7888 0-1.4143-.1541-1.948-.4123-.499-.2415-.8794-.5587-1.1672-.7987-.0084-.007-.0167-.0139-.025-.0208-.3093-.2578-.5213-.429-.7828-.5555-.2413-.1168-.5658-.2127-1.07698-.2127-.47988 0-.80022.0933-1.05164.214-.27272.1309-.50114.3089-.82366.5669-.00837.0067-.01681.0134-.02533.0202-.29918.2395-.68781.5506-1.18226.7879z"/></g></svg>