<svg fill="none" height="24" viewBox="0 0 24 24" width="24" xmlns="http://www.w3.org/2000/svg"><g fill="#801ed7"><path clip-rule="evenodd" d="m12 1c-5.24671 0-9.5 4.25329-9.5 9.5 0 5.2467 4.25329 9.5 9.5 9.5 5.2467 0 9.5-4.2533 9.5-9.5 0-5.24671-4.2533-9.5-9.5-9.5zm3.1875 9.5c0 1.7604-1.4271 3.1875-3.1875 3.1875s-3.1875-1.4271-3.1875-3.1875c0-1.76041 1.4271-3.1875 3.1875-3.1875s3.1875 1.42709 3.1875 3.1875z" fill-rule="evenodd"/><path d="m8 21c-.55228 0-1 .4477-1 1s.44772 1 1 1h8c.5523 0 1-.4477 1-1s-.4477-1-1-1z"/></g></svg>