<svg fill="none" height="24" viewBox="0 0 24 24" width="24" xmlns="http://www.w3.org/2000/svg"><g clip-rule="evenodd" fill="#801ed7" fill-rule="evenodd"><path d="m11 19.5c0-.5523.4477-1 1-1h.01c.5523 0 1 .4477 1 1s-.4477 1-1 1h-.01c-.5523 0-1-.4477-1-1z"/><path d="m11.9999 5.5c-3.90595 0-7.46123 1.49161-10.13093 3.93803-.40718.37312-1.039745.34552-1.41287-.06167-.3731254-.40718-.345518-1.03974.061662-1.41286 3.024038-2.77113 7.056598-4.4635 11.482138-4.4635 4.4255 0 8.4581 1.69237 11.4821 4.4635.4072.37312.4348 1.00568.0617 1.41286-.3731.40719-1.0057.43479-1.4129.06167-2.6697-2.44642-6.225-3.93803-10.1309-3.93803z"/><path d="m12 10.5c-2.53335 0-4.84452.9407-6.60705 2.4933-.41442.3651-1.04632.3251-1.41139-.0893-.36506-.4144-.32505-1.0463.08937-1.4114 2.11372-1.862 4.89057-2.9926 7.92907-2.9926s5.8153 1.1306 7.929 2.9926c.4145.3651.4545.997.0894 1.4114s-.997.4544-1.4114.0893c-1.7625-1.5526-4.0737-2.4933-6.607-2.4933z"/><path d="m11.9999 15.5c-1.1813 0-2.26449.4084-3.11996 1.0926-.43132.3449-1.0606.2749-1.40554-.1565-.34493-.4313-.2749-1.0606.15642-1.4055 1.19723-.9574 2.71758-1.5306 4.36908-1.5306 1.6268 0 3.1265.5562 4.3154 1.4881.4346.3407.5108.9693.1701 1.4039-.3408.4347-.9693.5108-1.404.1701-.8493-.6657-1.9177-1.0621-3.0815-1.0621z"/></g></svg>