<svg fill="none" height="24" viewBox="0 0 24 24" width="24" xmlns="http://www.w3.org/2000/svg"><g fill="#801ed7"><path d="m3.70711 2.29289c-.39053-.39052-1.02369-.39052-1.41422 0-.39052.39053-.39052 1.02369 0 1.41422l1.76067 1.76066c-1.28559.68092-2.47298 1.5217-3.535798 2.49562-.40718.37313-.4347874 1.00569-.061662 1.41287.373125.40718 1.00569.43479 1.41287.06166 1.08939-.99827 2.32622-1.83743 3.67363-2.48111l2.28765 2.28766c-1.39415.51666-2.66559 1.28453-3.75932 2.24803-.41442.3651-.45443.997-.08936 1.4114s.99697.4544 1.41139.0894c1.1425-1.0065 2.51526-1.7554 4.02817-2.158l2.66517 2.6652c-.0287-.0003-.0575-.0005-.0864-.0005-1.6515 0-3.17182.5732-4.36905 1.5306-.43132.3449-.50135.9742-.15642 1.4055.34494.4314.97422.5014 1.40554.1565.05168-.0414.10419-.0817.15751-.121.02427-.0143.04815-.0298.07155-.0464.846-.6011 1.85807-.924 2.89587-.924.8145 0 1.6131.1989 2.3281.5751.2643.1398.5147.3026.7484.4858.0566.0443.1164.0816.1784.1119l5.0331 5.0331c.3905.3905 1.0237.3905 1.4142 0s.3905-1.0237 0-1.4142z"/><path d="m10.3098 5.59816c.5586-.06334 1.1228-.09547 1.69-.09547 3.6522 0 7.179 1.33248 9.9188 3.74751.4143.3652 1.0462.32539 1.4114-.08891.3652-.41431.3254-1.04622-.0889-1.41142-3.1051-2.73704-7.1021-4.24718-11.2413-4.24718-.6428 0-1.2822.03642-1.9153.1082-.54881.06222-.94324.55752-.88102 1.10629s.55752.9432 1.10632.88098z"/><path d="m15.6095 9.04529c-.5273-.16428-1.0879.12999-1.2522.65727-.1643.52724.13 1.08794.6573 1.25224 1.2439.3875 2.4095 1.0173 3.4255 1.8636.4244.3535 1.0549.296 1.4084-.1284.3534-.4243.296-1.0549-.1284-1.4084-1.2192-1.0155-2.6179-1.77126-4.1106-2.23631z"/><path d="m12 18.5c-.5523 0-1 .4477-1 1s.4477 1 1 1h.01c.5523 0 1-.4477 1-1s-.4477-1-1-1z"/></g></svg>