<svg fill="none" height="24" viewBox="0 0 24 24" width="24" xmlns="http://www.w3.org/2000/svg"><g clip-rule="evenodd" fill="#801ed7" fill-rule="evenodd"><path d="m12.2192 12.9796c-2.1692.6942-4.63992 1.4849-7.49075.6805-.44277-.1249-.9719-.3102-1.37569-.4579-.20508-.0751-.38396-.1427-.51176-.1916-.06397-.0245-.11533-.0444-.15098-.0583l-.04136-.0162-.01539-.006s-.00018-.0001.35676-.905l-.35676.905c-.51377-.2026-.76617-.7835-.56353-1.2972.20263-.5138.78336-.766 1.29711-.5634l-.3666.9296c.36666-.9296.3666-.9296.3666-.9296l.01162.0046.03697.0144c.03261.0127.08058.0313.14086.0543.1207.0463.29002.1103.48375.1812.39381.1441.86468.3078 1.23149.4113 2.23196.6297 4.17363.0318 6.42376-.688.0284-.0091.0569-.0182.0855-.0273 2.1692-.6942 4.6399-1.48494 7.4907-.6806.4428.1249.972.3102 1.3757.458.2051.075.384.1426.5118.1916.064.0245.1153.0444.151.0583l.0413.0161.0154.006s.0002.0001-.3667.9304l.3667-.9304c.5138.2027.7662.7835.5636 1.2973-.2027.5137-.7834.766-1.2972.5633l-.0116-.0045-.0369-.0144c-.0327-.0127-.0806-.0313-.1409-.0544-.1207-.0462-.29-.1102-.4837-.1811-.3939-.1441-.8647-.3078-1.2315-.4113-2.232-.6298-4.1737-.0319-6.4238.6879-.0284.0091-.0569.0182-.0855.0274z"/><path d="m12.2192 18.9796c-2.1692.6942-4.63992 1.4849-7.49075.6805-.44277-.1249-.9719-.3102-1.37569-.4579-.20508-.0751-.38396-.1427-.51176-.1916-.06397-.0245-.11533-.0444-.15098-.0583l-.04136-.0162-.01539-.006s-.00018-.0001.35676-.905l-.35676.905c-.51377-.2026-.76617-.7835-.56353-1.2972.20263-.5138.78336-.766 1.29711-.5634l-.3666.9296c.36666-.9296.3666-.9296.3666-.9296l.01162.0046.03697.0144c.03261.0127.08058.0313.14086.0544.1207.0462.29002.1102.48375.1811.39381.1441.86468.3078 1.23149.4113 2.23196.6297 4.17363.0318 6.42376-.688.0284-.0091.0569-.0182.0855-.0273 2.1692-.6942 4.6399-1.4849 7.4907-.6806.4428.1249.972.3102 1.3757.458.2051.075.384.1426.5118.1916.064.0245.1153.0444.151.0583l.0413.0161.0154.006s.0002.0001-.3667.9304l.3667-.9304c.5138.2027.7662.7835.5636 1.2973-.2027.5137-.7834.766-1.2972.5633l-.0116-.0045-.0369-.0144c-.0327-.0127-.0806-.0313-.1409-.0544-.1207-.0462-.29-.1102-.4837-.1811-.3939-.1441-.8647-.3078-1.2315-.4113-2.232-.6298-4.1737-.0319-6.4238.6879-.0284.0091-.0569.0182-.0855.0274z"/><path d="m12.2192 6.97957c-2.1692.6942-4.63992 1.48492-7.49075.68057-.44277-.12493-.9719-.3102-1.37569-.45795-.20508-.07505-.38396-.14268-.51176-.19163-.06397-.0245-.11533-.04439-.15098-.05826l-.04136-.01615-.01539-.00605s-.00018-.00007.35676-.90504l-.35676.90504c-.51377-.20264-.76617-.78347-.56353-1.29723.20263-.51375.78336-.76597 1.29711-.56337l-.3666.92962c.36666-.9296.3666-.92962.3666-.92962l.01162.00456.03697.01443c.03261.0127.08058.03127.14086.05436.1207.04623.29002.11025.48375.18113.39381.14411.86468.30781 1.23149.41131 2.23196.62974 4.17363.03183 6.42376-.68797.0284-.00909.0569-.01821.0855-.02734 2.1692-.69421 4.6399-1.48492 7.4907-.68057.4428.12493.972.3102 1.3757.45795.2051.07504.384.14268.5118.19163.064.0245.1153.04439.151.05826l.0413.01615.0154.00605s.0002.00007-.3667.93032l.3667-.93032c.5138.20264.7662.78347.5636 1.29723-.2027.51377-.7834.76599-1.2972.56335l-.0116-.00454-.0369-.01444c-.0327-.01269-.0806-.03127-.1409-.05435-.1207-.04623-.29-.11025-.4837-.18114-.3939-.14411-.8647-.30781-1.2315-.4113-2.232-.62974-4.1737-.03184-6.4238.68797-.0284.00909-.0569.01821-.0855.02734z"/></g></svg>