<svg fill="none" height="24" viewBox="0 0 24 24" width="24" xmlns="http://www.w3.org/2000/svg"><g clip-rule="evenodd" fill="#801ed7" fill-rule="evenodd"><path d="m19 7c-.5922 0-1.1233.25615-1.4909.66691-.3684.41153-1.0006.44655-1.4121.07822-.4115-.36832-.4465-1.00052-.0782-1.41204.731-.81674 1.7965-1.33309 2.9812-1.33309 2.2092 0 4 1.79086 4 4 0 2.2091-1.7908 4-4 4h-17c-.55228 0-1-.4477-1-1s.44772-1 1-1h17c1.1046 0 2-.8954 2-2 0-1.10457-.8954-2-2-2z"/><path d="m11 5c-.296 0-.561.1274-.7456.33358-.3683.41153-1.0005.44655-1.41203.07822-.41152-.36832-.44655-1.00052-.07822-1.41205.54789-.61215 1.34725-.99975 2.23585-.99975 1.6569 0 3 1.34315 3 3s-1.3431 3-3 3h-8.99998c-.55228 0-1-.44772-1-1s.44772-1 1-1h8.99998c.5523 0 1-.44771 1-1s-.4477-1-1-1z"/><path d="m14 19c-.296 0-.561-.1274-.7456-.3336-.3683-.4115-1.0005-.4465-1.412-.0782-.4116.3683-.4466 1.0005-.0782 1.412.5478.6122 1.3472.9998 2.2358.9998 1.6569 0 3-1.3431 3-3s-1.3431-3-3-3h-11.99998c-.55228 0-1 .4477-1 1s.44772 1 1 1h11.99998c.5523 0 1 .4477 1 1s-.4477 1-1 1z"/></g></svg>