<svg fill="none" height="24" viewBox="0 0 24 24" width="24" xmlns="http://www.w3.org/2000/svg"><g clip-rule="evenodd" fill="#801ed7" fill-rule="evenodd"><path d="m19 6.5c-.5922 0-1.1233.25615-1.4909.66691-.3684.41153-1.0006.44655-1.4121.07822-.4115-.36832-.4465-1.00052-.0782-1.41204.731-.81674 1.7965-1.33309 2.9812-1.33309 2.2092 0 4 1.79086 4 4 0 2.2091-1.7908 4-4 4h-6c-.5523 0-1-.4477-1-1s.4477-1 1-1h6c1.1046 0 2-.89543 2-2s-.8954-2-2-2z"/><path d="m9 4c-.59224 0-1.12333.25615-1.49097.66691-.36833.41153-1.00052.44655-1.41205.07822-.41153-.36832-.44655-1.00052-.07822-1.41204.731-.81674 1.79648-1.33309 2.98124-1.33309 2.2091 0 4 1.79086 4 4s-1.7909 4-4 4h-7c-.55228 0-1-.44772-1-1s.44772-1 1-1h7c1.1046 0 2-.89543 2-2s-.8954-2-2-2z"/><path d="m13 20c-.5922 0-1.1233-.2562-1.491-.6669-.3683-.4115-1.0005-.4466-1.412-.0782-.41154.3683-.44657 1.0005-.0782 1.412.731.8167 1.7964 1.3331 2.9812 1.3331 2.2091 0 4-1.7909 4-4s-1.7909-4-4-4h-11c-.55228 0-1 .4477-1 1s.44772 1 1 1h11c1.1046 0 2 .8954 2 2s-.8954 2-2 2z"/></g></svg>