<svg fill="none" height="24" viewBox="0 0 24 24" width="24" xmlns="http://www.w3.org/2000/svg"><path d="m18.7071 6.70711c.3905-.39053.3905-1.02369 0-1.41422-.3905-.39052-1.0237-.39052-1.4142 0l-5.2929 5.29291-5.29289-5.29291c-.39053-.39052-1.02369-.39052-1.41422 0-.39052.39053-.39052 1.02369 0 1.41422l5.29291 5.29289-5.29291 5.2929c-.39052.3905-.39052 1.0237 0 1.4142.39053.3905 1.02369.3905 1.41422 0l5.29289-5.2929 5.2929 5.2929c.3905.3905 1.0237.3905 1.4142 0s.3905-1.0237 0-1.4142l-5.2929-5.2929z" fill="#801ed7"/></svg>