<svg fill="none" height="24" viewBox="0 0 24 24" width="24" xmlns="http://www.w3.org/2000/svg"><path clip-rule="evenodd" d="m13.0114 4.00599c-.1642-.0016-.3127-.00277-.4421-.00363-.0229-.00156-.046-.00236-.0693-.00236h-1c-.0245 0-.0488.00088-.0728.00261-.1289.00094-.2764.00222-.4395.00396-.6149.00655-1.45215.01966-2.33984.04594-.8861.02623-1.83043.0658-2.65695.12586-.79865.05802-1.57193.14023-2.06612.27189l-.01383.00379c-.59672.16818-1.13876.49037-1.57118.93445-.43245.44412-.73993.99442-.89095 1.5955-.00545.02169-.01017.04355-.01416.06555-.29675 1.63927-.442082 3.30215-.43417 4.96785-.010226 1.6783.13512 3.3539.43418 5.0055.0059.0326.01342.0649.02252.0967.16649.5824.48083 1.1117.91223 1.5371.43139.4253.96524.7322 1.54981.8916l.00555.0014c.49419.1317 1.26747.2139 2.06612.2719.82652.0601 1.77085.0997 2.65695.1259.88769.0263 1.72494.0394 2.33984.0459.1631.0018.3106.0031.4395.004.024.0017.0483.0026.0728.0026h1c.0245 0 .0488-.0009.0728-.0026.1289-.0009.2764-.0022.4395-.004.6149-.0065 1.4521-.0196 2.3398-.0459.8861-.0262 1.8305-.0658 2.657-.1259.7986-.058 1.5719-.1402 2.0661-.2719l.0138-.0038c.5968-.1681 1.1388-.4903 1.5712-.9344.4325-.4441.74-.9944.891-1.5955.0054-.0217.0102-.0436.0141-.0656.2945-1.6271.4399-3.2776.4342-4.9309.0103-1.6785-.1351-3.35437-.4342-5.00621-.004-.02199-.0087-.04384-.0141-.06551-.151-.60108-.4585-1.15139-.891-1.5955-.4324-.44409-.9744-.76627-1.5712-.93445-.0115-.00326-.0232-.00632-.0349-.00916-.4863-.11829-1.2523-.19302-2.0513-.24602-.8248-.05472-1.7677-.09081-2.6532-.11474-.887-.02398-1.7237-.03594-2.3382-.04192zm-3.16166 4.61009c-.09974.13323-.09974.37187-.09974.84916v5.06936c0 .4773 0 .7159.09974.8491.08692.1161.21996.1888.36466.1991.166.0119.3667-.1172.7682-.3753l3.9428-2.5347c.3484-.2239.5226-.3359.5828-.4783.0525-.1244.0525-.2648 0-.3892-.0602-.1424-.2344-.2544-.5828-.4783l-3.9428-2.5347c-.4015-.2581-.6022-.38715-.7682-.37529-.1447.01033-.27774.08297-.36466.19907z" fill="#801ed7" fill-rule="evenodd"/></svg>