<svg fill="none" height="24" viewBox="0 0 24 24" width="24" xmlns="http://www.w3.org/2000/svg"><g clip-rule="evenodd" fill="#801ed7" fill-rule="evenodd"><path d="m2.5 17.5001c0-.5523.44772-1 1-1h5.5c.55228 0 1 .4477 1 1s-.44772 1-1 1h-5.5c-.55228 0-1-.4477-1-1z"/><path d="m1 12.0001c0-.5523.44772-1 1-1h4.5c.55228 0 1 .4477 1 1s-.44772 1-1 1h-4.5c-.55228 0-1-.4477-1-1z"/><path d="m3 6.50008c0-.55228.44772-1 1-1h5c.55228 0 1 .44772 1 1 0 .55229-.44772 1-1 1h-5c-.55228 0-1-.44771-1-1z"/><path d="m17.3676 2.07009c.4271.16882.6843.6069.6236 1.06216l-.849 6.36783h3.8032.0345c.2208-.00005.4496-.0001.6386.01718.1859.01699.5241.06204.8264.29537.3526.27207.566.68677.5825 1.13187.0141.3816-.1458.683-.24.8442-.0958.1638-.2288.3499-.3572.5295-.0067.0094-.0134.0188-.02.0281l-6.5965 9.235c-.2669.3738-.7541.5176-1.1813.3488-.4271-.1688-.6843-.6069-.6236-1.0622l.849-6.3678h-3.8032c-.0115 0-.023 0-.0345 0-.2208 0-.4496.0001-.6386-.0172-.1859-.017-.52407-.062-.82639-.2954-.35257-.2721-.56598-.6868-.58248-1.1318-.01416-.3817.14577-.6831.24-.8442.09578-.1638.2288-.35.35714-.5296.0067-.0093.01339-.0187.02006-.028l6.59647-9.23505c.2669-.37374.7541-.51758 1.1813-.34876z"/></g></svg>