<svg fill="none" height="24" viewBox="0 0 24 24" width="24" xmlns="http://www.w3.org/2000/svg"><path clip-rule="evenodd" d="m12 1c-6.07513 0-11 4.92487-11 11 0 6.0751 4.92487 11 11 11 6.0751 0 11-4.9249 11-11 0-6.07513-4.9249-11-11-11zm-4.63844 11.2468 4.63844-6.7468v5h3.9791c.4929 0 .7394 0 .8737.1025.117.0893.1887.2257.196.3727.0084.1688-.1312.3719-.4104.778l-4.6384 6.7468v-5h-3.97921c-.49287 0-.73931 0-.87366-.1025-.11701-.0893-.18873-.2257-.19603-.3727-.00838-.1688.13123-.3719.41046-.778z" fill="#801ed7" fill-rule="evenodd"/></svg>