<svg fill="none" height="24" viewBox="0 0 24 24" width="24" xmlns="http://www.w3.org/2000/svg"><g fill="#801ed7"><path clip-rule="evenodd" d="m3.70711 2.29289c-.39053-.39052-1.02369-.39052-1.41422 0-.39052.39053-.39052 1.02369 0 1.41422l4.35427 4.35426-3.34485 4.01383c-.15432.1851-.31063.3726-.42443.5374-.10762.1558-.30413.4622-.3102.8648-.00696.461.19846.8995.55703 1.1893.31322.2531.67438.2983.86299.3154.19943.018.44353.018.68453.0179h6.19497l-.8595 6.876c-.05506.4405.1869.8646.5941 1.0413.4072.1768.8822.0639 1.1664-.2771l4.299-5.1588 4.2257 4.2257c.3905.3905 1.0237.3905 1.4142 0s.3905-1.0237 0-1.4142c-6-6-11.99997-11.99998-17.99999-18.00001z" fill-rule="evenodd"/><path d="m18.6385 14.3959 2.0592-2.471c.1543-.1851.3106-.3726.4244-.5374.1076-.1558.3041-.4622.3102-.8648.0069-.461-.1985-.89956-.557-1.18932-.3133-.25311-.6744-.29829-.863-.31536-.1995-.01806-.4436-.01801-.6846-.01797l-6.085.00001z"/><path d="m13.145 8.90234.8473-6.77825c.055-.4405-.1869-.86457-.5941-1.04134-.4072-.176764-.8822-.06391-1.1664.27712l-3.01333 3.61596z"/></g></svg>