<svg fill="none" height="24" viewBox="0 0 24 24" width="24" xmlns="http://www.w3.org/2000/svg"><path clip-rule="evenodd" d="m13.3982 1.08275c.4072.17677.6491.60084.5941 1.04134l-.8595 6.87597 6.1949-.00001c.241-.00004.4851-.00009.6846.01797.1886.01707.5497.06225.863.31536.3585.28976.5639.72832.557 1.18932-.0061.4026-.2026.709-.3102.8648-.1138.1648-.2701.3523-.4244.5374l-8.9295 10.7153c-.2842.3411-.7592.4539-1.1664.2772-.4072-.1768-.64916-.6009-.5941-1.0414l.8595-6.8759h-6.19499c-.24099 0-.48508.0001-.68451-.018-.18861-.0171-.54977-.0623-.86299-.3154-.35857-.2897-.56399-.7283-.55703-1.1893.00607-.4026.20258-.709.3102-.8648.1138-.1648.2701-.3523.42442-.5374.00765-.0092.01529-.0183.02292-.0275l8.90658-10.68783c.2842-.34103.7592-.453884 1.1664-.27712z" fill="#801ed7" fill-rule="evenodd"/></svg>