<svg width="500" height="500" viewBox="0 0 500 500" fill="none" xmlns="http://www.w3.org/2000/svg">
<g clip-path="url(#clip0_52_30)">
<path d="M250.06 500.03C388.131 500.03 500.06 388.101 500.06 250.03C500.06 111.959 388.131 0.0300293 250.06 0.0300293C111.989 0.0300293 0.0600586 111.959 0.0600586 250.03C0.0600586 388.101 111.989 500.03 250.06 500.03Z" fill="black"/>
<path d="M462.22 272.93C460.05 272.93 458.18 274.04 456.38 275.14C456.38 275.14 453.23 276.99 451.88 277.77C444.37 282.09 436.58 284.7 428.23 284.01C423.53 283.62 419.16 282.47 415.42 279.81C414.8 279.37 414.23 278.86 413.57 278.32C413.89 278.17 414.05 278.08 414.22 278.01C424.6 273.49 434.12 267.37 443.13 260.3C448.74 255.89 453.64 250.54 457.19 244.36C461.33 237.15 463.49 229.61 462.45 221.67C461.4 213.7 457.36 207.94 449.83 205.08C444.39 203.01 438.57 203.18 432.65 204.45C423.17 206.48 415.03 211.36 408.21 218.53C395.2 232.21 389.72 248 390.97 265.56C391.09 267.25 391.35 268.91 391.54 270.45C383.55 274.42 375.65 278.36 367.74 282.27C367.48 282.4 367.18 282.4 366.93 282.27C365.49 281.49 364.18 280.49 362.69 279.82C356.66 277.11 350.07 276.78 343.27 277.42C342.03 277.54 340.79 277.72 339.38 277.9C339.7 277.48 339.9 277.22 340.11 276.96C347.74 267.41 380.31 227.41 388.59 217C388.6 216.97 388.61 216.94 388.63 216.91C388.88 216.57 389.04 216.17 389.24 215.8C389.33 215.64 389.42 215.49 389.5 215.33C389.64 215.03 389.75 214.73 389.85 214.42C390 213.99 390.1 213.54 390.18 213.09C390.2 212.94 390.27 212.8 390.29 212.64C390.3 212.58 390.29 212.53 390.29 212.47C390.3 212.33 390.29 212.19 390.29 212.05C390.3 211.67 390.31 211.29 390.27 210.92C390.23 210.55 390.14 210.18 390.05 209.81C390.03 209.72 390.02 209.63 389.99 209.54C389.95 209.41 389.95 209.28 389.9 209.15C388.48 204.8 383.8 202.42 379.45 203.84C379.25 203.91 358.8 210.38 332.72 206.53C328.19 205.83 323.97 208.99 323.3 213.52C322.63 218.05 325.76 222.27 330.29 222.94C337.18 223.96 343.71 224.35 349.69 224.35C355.37 224.35 360.54 223.99 365.09 223.47C358.26 231.85 333.21 261.99 324.85 272.22C323.18 274.27 321.3 276.17 319.4 278.02C316.59 280.75 313.49 283.08 309.81 284.42C303.13 286.85 297.23 284.21 295.22 277.88C294.13 274.46 294.14 270.85 294.75 267.2C295.49 262.79 306.67 218.69 307.83 214.55C307.86 214.46 307.93 214.19 307.95 214.09C307.95 214.09 308.14 213.17 308.2 212.6C308.67 208.1 305.41 204.45 300.9 204.45C296.4 204.45 292.99 207.95 291.81 212.6C291.81 212.61 291.16 215.57 290.83 216.7C290.83 216.7 290.41 215.8 290.27 215.5C287.47 209.62 283.07 205.5 276.42 204.19C267.72 202.48 259.22 204.25 251.05 208.9C243.52 213.18 237.85 219.35 233.31 226.6C229.59 232.52 226.9 238.83 224.28 245.19C221.6 251.71 218.98 258.24 216.04 264.67C213.45 270.34 209.94 275.53 205.21 279.88C203.39 281.55 201.42 282.98 199.03 283.68C196.24 284.5 193.4 283.42 192.18 281.01C191.6 279.87 191.22 278.57 191.02 277.26C190.36 272.9 191.2 268.47 192.11 264.06C193.63 256.66 196.06 248.89 199.19 241.87C202.27 234.95 205.63 228.13 208.94 221.29C209.12 220.93 209.26 220.57 209.39 220.21C209.77 219.38 210.03 218.48 210.12 217.55C210.59 213.06 207.33 209.42 202.85 209.42C202.19 209.42 197.92 210.13 196.43 210.42C186.1 212.45 183.76 213.16 173.53 212.56C172.79 212.52 172.05 212.43 171.26 212.36C171.32 212 171.31 210.68 171.33 210.5C171.78 206.19 168.66 202.7 164.35 202.7C160.04 202.7 156.54 206.16 155.73 210.5C155.72 210.57 155.41 211.81 154.91 214.02C153.03 222.25 150.84 230.42 147.91 238.45C144.52 247.73 139.8 257.22 133.71 265.33C130.93 269.04 126.86 272.47 123.13 275.29C122.77 275.56 122.37 275.79 121.78 276.16C121.96 275.79 122.01 275.68 122.07 275.57C127.31 266.37 130.62 256.81 131.78 246.87C132.1 244.48 132.33 242.07 132.4 239.63C132.57 233.18 131.68 227 129.16 221.34C124.2 210.19 115.52 203.94 102.59 203.55C96.2003 203.36 89.5803 204.83 83.7003 208.03C83.4003 208.19 83.0903 208.34 82.7603 208.5C82.7503 208.36 82.7403 208.33 82.7503 208.3C82.7503 208.3 88.1003 188.26 90.7803 168.44C91.3903 163.93 88.2003 160.08 83.6503 159.88C79.6303 159.71 76.1603 162.62 75.6503 166.61C72.2303 193.09 64.2802 225.67 56.1102 248.62C51.7302 260.92 43.5502 271.19 31.9802 278.33C31.5202 278.61 30.9102 278.94 30.2302 279.28C26.6102 281.1 24.9003 285.32 26.3103 289.12C27.9403 293.51 33.0202 295.54 37.2202 293.48C44.0902 290.12 50.3103 285.63 55.7503 279.77C55.9503 279.55 56.1602 279.34 56.4202 279.06C56.5302 279.37 56.6203 279.61 56.7003 279.84C58.7403 285.5 62.2203 290.55 67.0903 293.99C73.0903 298.23 80.1503 299.94 87.8103 300.14C88.1603 300.15 88.4602 300.09 88.7902 300.07L88.7503 300.13C94.7703 300.29 100.8 299.63 106.82 298.2C125.1 293.84 141.09 283.81 151.46 267.42C158.38 256.49 163.16 244.4 166.69 232.32C167.22 230.49 167.71 228.65 168.25 226.72C187.89 228.09 189.75 225.94 189.62 226.24C188.67 228.31 187.71 230.73 186.84 232.82C181.9 244.69 177.43 257.22 175.57 269.73C174.7 275.56 174.52 281.33 175.96 286.88C177.57 293.13 181.2 297.58 187.6 299.3C195.55 301.44 203.15 299.9 210.28 294.49C214.97 290.93 218.64 286.47 221.91 281.67C222.23 281.2 222.56 280.73 222.97 280.12C223.3 281.02 223.41 281.34 223.77 282.2C225.39 286.17 227.67 289.88 230.78 292.81C238.39 299.96 247.77 301.99 258.83 298.71C265.76 296.66 271.4 292.28 276.32 286.88C277.14 285.98 277.92 285.05 278.81 284.04C279.04 284.97 279.22 285.76 279.44 286.55C280.78 291.26 283.21 295.13 287.68 297.36C293.92 300.48 300.71 301.13 307.87 299.12C312.34 297.86 316.72 296.06 321.12 294.41C329.11 291.4 337.2 289.79 345.43 290.14C347.29 290.22 349.09 290.55 350.9 291.26C350.45 291.53 350.11 291.72 349.77 291.93C344.3 295.36 338.77 298.67 333.39 302.25C325.96 307.2 319.47 313.18 314.55 320.7C309.42 328.53 306.42 336.84 306.84 345.8C307.24 354.31 310.87 360.87 317.99 365.1C324 368.67 330.78 369.04 337.89 366.99C350.07 363.48 359.76 356.22 366.95 345.53C371.41 338.9 374.28 331.71 375.99 324.17C377.9 315.75 378.27 307.45 376.47 299.34C376.15 297.91 375.74 296.5 375.33 294.95C383.84 290.05 396.79 284.85 396.79 284.85C397.06 285.24 397.24 285.51 397.42 285.77C400.59 290.47 404.98 294.21 410.21 296.56C418.27 300.18 427.04 300.86 436.15 299.72C446.26 298.45 455.68 294.7 464.39 288.72C464.39 288.72 469.26 285.31 469.69 281.23C470.15 276.65 466.82 272.93 462.22 272.93ZM116.35 246.24C114.57 258.59 110.02 268.75 101.23 277.23C98.3602 280 95.1203 282.14 91.3703 283.27C85.2303 285.12 80.0703 283.94 75.9003 279.88C72.4503 276.53 70.6502 272.21 70.1102 267.34C68.5902 253.58 72.5203 240.84 82.2603 229.34C84.6903 226.47 87.5502 224.06 90.8502 222.27C98.9002 217.9 108.29 219.87 112.7 226.79C115.07 230.51 116.13 234.77 116.37 239.34C116.51 241.95 116.36 244.62 116.35 246.24ZM272.12 272.2C269.15 276.04 265.62 279.29 261.32 281.61C252.84 286.18 244.57 284.17 240.29 276.49C238.11 272.58 237.21 268.21 237.13 263.6C237.11 262.31 237.16 261.02 237.21 259.88C237.27 258.53 237.4 257.18 237.64 255.85C239.53 245.36 243.51 236.26 250.82 228.42C254.09 224.91 257.84 222.09 262.35 220.56C269.74 218.06 276.3 220.5 280 227.06C282.17 230.91 283.17 235.21 283.19 239.76C283.26 251.46 279.74 262.34 272.12 272.2ZM346.57 346C345.73 346.85 344.83 347.67 343.87 348.37C332.92 356.38 322.99 351.36 323.38 341.1C323.56 336.46 325.43 332.27 328.12 328.29C331.99 322.57 337.04 318.03 342.62 314.03C348.42 309.88 360.88 302.76 361.05 302.69C361.85 305.24 362.23 307.86 362.17 310.55C361.9 324 356.65 335.82 346.57 346ZM408.11 264.5C407.87 264.62 407.62 264.72 407.19 264.91C407.13 262.94 406.96 261.07 407.04 259.18C407.49 248.26 411.27 238.19 418.57 229.17C419.45 228.08 420.44 227.08 421.52 226.19C427.6 221.16 434.4 217.49 440.5 219.61C444.09 220.86 446.16 224.29 445.95 228.45C445.72 232.91 443.7 236.77 440.94 240.37C437.09 245.39 432.3 249.42 427.21 253.09C421.15 257.48 414.76 261.24 408.11 264.5Z" fill="#FCFDFD"/>
</g>
<defs>
<clipPath id="clip0_52_30">
<rect width="500" height="500" fill="white"/>
</clipPath>
</defs>
</svg>
